<svg width="1250" height="216" viewBox="0 0 1250 216" fill="none" xmlns="http://www.w3.org/2000/svg">
<rect width="1250" height="215" rx="20" fill="white"/>
<path fill-rule="evenodd" clip-rule="evenodd" d="M914 148L914 215L912.5 215L912.5 148C912.5 146.067 910.933 144.5 909 144.5L807 144.5L807 143L909 143C911.761 143 914 145.238 914 148ZM722 142.999L621 142.999C618.239 142.999 616 145.238 616 147.999L616 214.999L617.5 214.999L617.5 147.999C617.5 146.066 619.067 144.499 621 144.499L722 144.499L722 142.999Z" fill="#B0BBD5"/>
<rect x="648.778" y="174.705" width="19.4444" height="30.2951" rx="4" fill="#4318FF"/>
<mask id="path-4-inside-1_202_28" fill="white">
<path d="M646 178C646 174.686 648.686 172 652 172H665C668.314 172 671 174.686 671 178V191.475H646V178Z"/>
</mask>
<path d="M644 178C644 173.582 647.582 170 652 170H665C669.418 170 673 173.582 673 178H669C669 175.791 667.209 174 665 174H652C649.791 174 648 175.791 648 178H644ZM671 191.475H646H671ZM644 191.475V178C644 173.582 647.582 170 652 170V174C649.791 174 648 175.791 648 178V191.475H644ZM665 170C669.418 170 673 173.582 673 178V191.475H669V178C669 175.791 667.209 174 665 174V170Z" fill="#4318FF" mask="url(#path-4-inside-1_202_28)"/>
<rect x="799.278" y="175.205" width="18.4444" height="29.2951" rx="3.5" fill="#DADEE7" stroke="#DADEE7"/>
<mask id="path-7-inside-2_202_28" fill="white">
<path d="M796 178C796 174.686 798.686 172 802 172H815C818.314 172 821 174.686 821 178V191.475H796V178Z"/>
</mask>
<path d="M794 178C794 173.582 797.582 170 802 170H815C819.418 170 823 173.582 823 178H819C819 175.791 817.209 174 815 174H802C799.791 174 798 175.791 798 178H794ZM821 191.475H796H821ZM794 191.475V178C794 173.582 797.582 170 802 170V174C799.791 174 798 175.791 798 178V191.475H794ZM815 170C819.418 170 823 173.582 823 178V191.475H819V178C819 175.791 817.209 174 815 174V170Z" fill="#DADEE7" mask="url(#path-7-inside-2_202_28)"/>
<rect x="679.684" y="174.705" width="19.4444" height="30.2951" rx="4" fill="#4318FF"/>
<mask id="path-10-inside-3_202_28" fill="white">
<path d="M676.906 178C676.906 174.686 679.593 172 682.906 172H695.906C699.22 172 701.906 174.686 701.906 178V191.475H676.906V178Z"/>
</mask>
<path d="M674.906 178C674.906 173.582 678.488 170 682.906 170H695.906C700.325 170 703.906 173.582 703.906 178H699.906C699.906 175.791 698.115 174 695.906 174H682.906C680.697 174 678.906 175.791 678.906 178H674.906ZM701.906 191.475H676.906H701.906ZM674.906 191.475V178C674.906 173.582 678.488 170 682.906 170V174C680.697 174 678.906 175.791 678.906 178V191.475H674.906ZM695.906 170C700.325 170 703.906 173.582 703.906 178V191.475H699.906V178C699.906 175.791 698.115 174 695.906 174V170Z" fill="#4318FF" mask="url(#path-10-inside-3_202_28)"/>
<rect x="830.184" y="175.205" width="18.4444" height="29.2951" rx="3.5" fill="#DADEE7" stroke="#DADEE7"/>
<mask id="path-13-inside-4_202_28" fill="white">
<path d="M826.906 178C826.906 174.686 829.593 172 832.906 172H845.906C849.22 172 851.906 174.686 851.906 178V191.475H826.906V178Z"/>
</mask>
<path d="M824.906 178C824.906 173.582 828.488 170 832.906 170H845.906C850.325 170 853.906 173.582 853.906 178H849.906C849.906 175.791 848.115 174 845.906 174H832.906C830.697 174 828.906 175.791 828.906 178H824.906ZM851.906 191.475H826.906H851.906ZM824.906 191.475V178C824.906 173.582 828.488 170 832.906 170V174C830.697 174 828.906 175.791 828.906 178V191.475H824.906ZM845.906 170C850.325 170 853.906 173.582 853.906 178V191.475H849.906V178C849.906 175.791 848.115 174 845.906 174V170Z" fill="#DADEE7" mask="url(#path-13-inside-4_202_28)"/>
<rect x="711.09" y="175.205" width="18.4444" height="29.2951" rx="3.5" fill="#DADEE7" stroke="#DADEE7"/>
<mask id="path-16-inside-5_202_28" fill="white">
<path d="M707.812 178C707.812 174.686 710.499 172 713.812 172H726.812C730.126 172 732.812 174.686 732.812 178V191.475H707.812V178Z"/>
</mask>
<path d="M705.812 178C705.812 173.582 709.394 170 713.812 170H726.812C731.231 170 734.812 173.582 734.812 178H730.812C730.812 175.791 729.022 174 726.812 174H713.812C711.603 174 709.812 175.791 709.812 178H705.812ZM732.812 191.475H707.812H732.812ZM705.812 191.475V178C705.812 173.582 709.394 170 713.812 170V174C711.603 174 709.812 175.791 709.812 178V191.475H705.812ZM726.812 170C731.231 170 734.812 173.582 734.812 178V191.475H730.812V178C730.812 175.791 729.022 174 726.812 174V170Z" fill="#DADEE7" mask="url(#path-16-inside-5_202_28)"/>
<rect x="860.59" y="174.705" width="19.4444" height="30.2951" rx="4" fill="#4318FF"/>
<mask id="path-19-inside-6_202_28" fill="white">
<path d="M857.812 178C857.812 174.686 860.499 172 863.812 172H876.812C880.126 172 882.812 174.686 882.812 178V191.475H857.812V178Z"/>
</mask>
<path d="M855.812 178C855.812 173.582 859.394 170 863.812 170H876.812C881.231 170 884.812 173.582 884.812 178H880.812C880.812 175.791 879.022 174 876.812 174H863.812C861.603 174 859.812 175.791 859.812 178H855.812ZM882.812 191.475H857.812H882.812ZM855.812 191.475V178C855.812 173.582 859.394 170 863.812 170V174C861.603 174 859.812 175.791 859.812 178V191.475H855.812ZM876.812 170C881.231 170 884.812 173.582 884.812 178V191.475H880.812V178C880.812 175.791 879.022 174 876.812 174V170Z" fill="#4318FF" mask="url(#path-19-inside-6_202_28)"/>
<rect x="739.5" y="128.5" width="48" height="24" rx="3.5" fill="#DADEE7"/>
<path d="M748.33 145V135.004H749.744L754.294 143.236H754.35C754.341 142.993 754.327 142.713 754.308 142.396C754.289 142.079 754.275 141.761 754.266 141.444C754.257 141.117 754.252 140.837 754.252 140.604V135.004H755.358V145H753.986L749.38 136.74H749.324C749.343 136.983 749.357 137.272 749.366 137.608C749.385 137.935 749.399 138.261 749.408 138.588C749.427 138.915 749.436 139.204 749.436 139.456V145H748.33ZM756.688 145V144.034H760.286V145H756.688ZM758.48 143.124C758.079 143.124 757.719 143.035 757.402 142.858C757.094 142.671 756.851 142.401 756.674 142.046C756.497 141.691 756.408 141.257 756.408 140.744C756.408 139.979 756.595 139.395 756.968 138.994C757.351 138.583 757.869 138.378 758.522 138.378C758.923 138.378 759.278 138.471 759.586 138.658C759.903 138.835 760.151 139.101 760.328 139.456C760.515 139.801 760.608 140.231 760.608 140.744C760.608 141.509 760.417 142.097 760.034 142.508C759.651 142.919 759.133 143.124 758.48 143.124ZM758.508 142.312C758.919 142.312 759.213 142.181 759.39 141.92C759.567 141.649 759.656 141.257 759.656 140.744C759.656 140.221 759.567 139.839 759.39 139.596C759.213 139.344 758.919 139.218 758.508 139.218C758.107 139.218 757.813 139.344 757.626 139.596C757.439 139.839 757.346 140.221 757.346 140.744C757.346 141.257 757.435 141.649 757.612 141.92C757.799 142.181 758.097 142.312 758.508 142.312ZM761.805 136.04V134.878H764.437V145H763.149V136.04H761.805ZM766.29 136.04V134.878H768.922V145H767.634V136.04H766.29ZM777.564 135.984H772.65V139.176C772.865 138.877 773.182 138.635 773.602 138.448C774.022 138.252 774.475 138.154 774.96 138.154C775.735 138.154 776.365 138.317 776.85 138.644C777.336 138.961 777.681 139.377 777.886 139.89C778.101 140.394 778.208 140.931 778.208 141.5C778.208 142.172 778.082 142.774 777.83 143.306C777.578 143.838 777.191 144.258 776.668 144.566C776.155 144.874 775.516 145.028 774.75 145.028C773.77 145.028 772.977 144.776 772.37 144.272C771.764 143.768 771.395 143.096 771.264 142.256H772.51C772.632 142.788 772.888 143.203 773.28 143.502C773.672 143.801 774.167 143.95 774.764 143.95C775.502 143.95 776.057 143.731 776.43 143.292C776.804 142.844 776.99 142.256 776.99 141.528C776.99 140.8 776.804 140.24 776.43 139.848C776.057 139.447 775.506 139.246 774.778 139.246C774.284 139.246 773.85 139.367 773.476 139.61C773.112 139.843 772.846 140.165 772.678 140.576H771.474V134.864H777.564V135.984Z" fill="#2B3674"/>
<rect x="739.5" y="128.5" width="48" height="24" rx="3.5" stroke="#DADEE7"/>
<rect x="680" y="149" width="19" height="17" rx="4" fill="#DADEE7"/>
<path d="M691.45 161L690.59 158.79H687.76L686.91 161H686L688.79 153.83H689.6L692.38 161H691.45ZM689.52 155.83C689.5 155.777 689.467 155.68 689.42 155.54C689.373 155.4 689.327 155.257 689.28 155.11C689.24 154.957 689.207 154.84 689.18 154.76C689.147 154.893 689.11 155.03 689.07 155.17C689.037 155.303 689 155.427 688.96 155.54C688.927 155.653 688.897 155.75 688.87 155.83L688.06 157.99H690.32L689.52 155.83Z" fill="#2B3674"/>
<rect x="831" y="149" width="19" height="17" rx="4" fill="#DADEE7"/>
<path d="M837.97 161V153.86H842.21V154.65H838.87V156.88H839.93C840.643 156.88 841.197 156.97 841.59 157.15C841.983 157.323 842.257 157.563 842.41 157.87C842.563 158.17 842.64 158.517 842.64 158.91C842.64 159.343 842.553 159.717 842.38 160.03C842.213 160.343 841.94 160.583 841.56 160.75C841.18 160.917 840.68 161 840.06 161H837.97ZM839.97 160.23C840.61 160.23 841.06 160.123 841.32 159.91C841.58 159.69 841.71 159.357 841.71 158.91C841.71 158.603 841.647 158.36 841.52 158.18C841.4 157.993 841.2 157.86 840.92 157.78C840.647 157.7 840.28 157.66 839.82 157.66H838.87V160.23H839.97Z" fill="#2B3674"/>
<rect x="764" y="172" width="2" height="43" rx="1" fill="#B0BBD5"/>
<path fill-rule="evenodd" clip-rule="evenodd" d="M1249 147L1249 172.242L1247.5 172.615L1247.5 147C1247.5 145.067 1245.93 143.5 1244 143.5L1217 143.5L1217 142L1244 142C1246.76 142 1249 144.238 1249 147ZM1113 142L1086 142C1083.24 142 1081 144.238 1081 147L1081 213.999L1082.5 213.627L1082.5 147C1082.5 145.067 1084.07 143.5 1086 143.5L1113 143.5L1113 142Z" fill="#B0BBD5"/>
<rect x="1125.28" y="174.205" width="18.4444" height="29.2951" rx="3.5" fill="#DADEE7" stroke="#DADEE7"/>
<mask id="path-30-inside-7_202_28" fill="white">
<path d="M1122 177C1122 173.686 1124.69 171 1128 171H1141C1144.31 171 1147 173.686 1147 177V190.475H1122V177Z"/>
</mask>
<path d="M1120 177C1120 172.582 1123.58 169 1128 169H1141C1145.42 169 1149 172.582 1149 177H1145C1145 174.791 1143.21 173 1141 173H1128C1125.79 173 1124 174.791 1124 177H1120ZM1147 190.475H1122H1147ZM1120 190.475V177C1120 172.582 1123.58 169 1128 169V173C1125.79 173 1124 174.791 1124 177V190.475H1120ZM1141 169C1145.42 169 1149 172.582 1149 177V190.475H1145V177C1145 174.791 1143.21 173 1141 173V169Z" fill="#DADEE7" mask="url(#path-30-inside-7_202_28)"/>
<rect x="1156.18" y="174.205" width="18.4444" height="29.2951" rx="3.5" fill="#DADEE7" stroke="#DADEE7"/>
<mask id="path-33-inside-8_202_28" fill="white">
<path d="M1152.91 177C1152.91 173.686 1155.59 171 1158.91 171H1171.91C1175.22 171 1177.91 173.686 1177.91 177V190.475H1152.91V177Z"/>
</mask>
<path d="M1150.91 177C1150.91 172.582 1154.49 169 1158.91 169H1171.91C1176.32 169 1179.91 172.582 1179.91 177H1175.91C1175.91 174.791 1174.12 173 1171.91 173H1158.91C1156.7 173 1154.91 174.791 1154.91 177H1150.91ZM1177.91 190.475H1152.91H1177.91ZM1150.91 190.475V177C1150.91 172.582 1154.49 169 1158.91 169V173C1156.7 173 1154.91 174.791 1154.91 177V190.475H1150.91ZM1171.91 169C1176.32 169 1179.91 172.582 1179.91 177V190.475H1175.91V177C1175.91 174.791 1174.12 173 1171.91 173V169Z" fill="#DADEE7" mask="url(#path-33-inside-8_202_28)"/>
<rect x="1186.59" y="173.705" width="19.4444" height="30.2951" rx="4" fill="#4318FF"/>
<mask id="path-36-inside-9_202_28" fill="white">
<path d="M1183.81 177C1183.81 173.686 1186.5 171 1189.81 171H1202.81C1206.13 171 1208.81 173.686 1208.81 177V190.475H1183.81V177Z"/>
</mask>
<path d="M1181.81 177C1181.81 172.582 1185.39 169 1189.81 169H1202.81C1207.23 169 1210.81 172.582 1210.81 177H1206.81C1206.81 174.791 1205.02 173 1202.81 173H1189.81C1187.6 173 1185.81 174.791 1185.81 177H1181.81ZM1208.81 190.475H1183.81H1208.81ZM1181.81 190.475V177C1181.81 172.582 1185.39 169 1189.81 169V173C1187.6 173 1185.81 174.791 1185.81 177V190.475H1181.81ZM1202.81 169C1207.23 169 1210.81 172.582 1210.81 177V190.475H1206.81V177C1206.81 174.791 1205.02 173 1202.81 173V169Z" fill="#4318FF" mask="url(#path-36-inside-9_202_28)"/>
<rect x="1126.5" y="127.5" width="77" height="24" rx="3.5" fill="#DADEE7"/>
<path d="M1135.33 144V134.004H1136.74L1141.29 142.236H1141.35C1141.34 141.993 1141.33 141.713 1141.31 141.396C1141.29 141.079 1141.28 140.761 1141.27 140.444C1141.26 140.117 1141.25 139.837 1141.25 139.604V134.004H1142.36V144H1140.99L1136.38 135.74H1136.32C1136.34 135.983 1136.36 136.272 1136.37 136.608C1136.38 136.935 1136.4 137.261 1136.41 137.588C1136.43 137.915 1136.44 138.204 1136.44 138.456V144H1135.33ZM1143.69 144V143.034H1147.29V144H1143.69ZM1145.48 142.124C1145.08 142.124 1144.72 142.035 1144.4 141.858C1144.09 141.671 1143.85 141.401 1143.67 141.046C1143.5 140.691 1143.41 140.257 1143.41 139.744C1143.41 138.979 1143.59 138.395 1143.97 137.994C1144.35 137.583 1144.87 137.378 1145.52 137.378C1145.92 137.378 1146.28 137.471 1146.59 137.658C1146.9 137.835 1147.15 138.101 1147.33 138.456C1147.51 138.801 1147.61 139.231 1147.61 139.744C1147.61 140.509 1147.42 141.097 1147.03 141.508C1146.65 141.919 1146.13 142.124 1145.48 142.124ZM1145.51 141.312C1145.92 141.312 1146.21 141.181 1146.39 140.92C1146.57 140.649 1146.66 140.257 1146.66 139.744C1146.66 139.221 1146.57 138.839 1146.39 138.596C1146.21 138.344 1145.92 138.218 1145.51 138.218C1145.11 138.218 1144.81 138.344 1144.63 138.596C1144.44 138.839 1144.35 139.221 1144.35 139.744C1144.35 140.257 1144.43 140.649 1144.61 140.92C1144.8 141.181 1145.1 141.312 1145.51 141.312ZM1148.81 135.04V133.878H1151.44V144H1150.15V135.04H1148.81ZM1153.29 135.04V133.878H1155.92V144H1154.63V135.04H1153.29ZM1163.75 136.286C1163.55 135.25 1162.91 134.732 1161.83 134.732C1161 134.732 1160.38 135.054 1159.97 135.698C1159.56 136.333 1159.36 137.383 1159.37 138.848C1159.58 138.363 1159.94 137.985 1160.43 137.714C1160.94 137.434 1161.5 137.294 1162.11 137.294C1163.08 137.294 1163.84 137.593 1164.41 138.19C1164.99 138.787 1165.28 139.613 1165.28 140.668C1165.28 141.303 1165.15 141.872 1164.9 142.376C1164.66 142.88 1164.28 143.281 1163.78 143.58C1163.29 143.879 1162.68 144.028 1161.97 144.028C1161.01 144.028 1160.26 143.813 1159.72 143.384C1159.18 142.955 1158.8 142.362 1158.59 141.606C1158.37 140.85 1158.26 139.917 1158.26 138.806C1158.26 135.381 1159.46 133.668 1161.85 133.668C1162.76 133.668 1163.48 133.915 1164 134.41C1164.53 134.905 1164.83 135.53 1164.93 136.286H1163.75ZM1161.85 138.372C1161.45 138.372 1161.07 138.456 1160.71 138.624C1160.36 138.783 1160.07 139.03 1159.85 139.366C1159.63 139.693 1159.52 140.094 1159.52 140.57C1159.52 141.279 1159.73 141.858 1160.14 142.306C1160.55 142.745 1161.14 142.964 1161.9 142.964C1162.56 142.964 1163.08 142.763 1163.46 142.362C1163.85 141.951 1164.05 141.401 1164.05 140.71C1164.05 139.982 1163.86 139.413 1163.49 139.002C1163.11 138.582 1162.57 138.372 1161.85 138.372ZM1174.62 136.356C1175.55 136.356 1176.29 136.678 1176.85 137.322C1177.42 137.966 1177.7 138.937 1177.7 140.234C1177.7 141.083 1177.57 141.802 1177.31 142.39C1177.06 142.969 1176.7 143.407 1176.23 143.706C1175.77 143.995 1175.23 144.14 1174.61 144.14C1174.22 144.14 1173.88 144.089 1173.59 143.986C1173.29 143.883 1173.03 143.753 1172.82 143.594C1172.61 143.426 1172.43 143.244 1172.28 143.048H1172.2C1172.22 143.207 1172.24 143.407 1172.26 143.65C1172.27 143.893 1172.28 144.103 1172.28 144.28V147.36H1171.05V136.496H1172.06L1172.23 137.518H1172.28C1172.43 137.303 1172.61 137.107 1172.82 136.93C1173.03 136.753 1173.28 136.613 1173.57 136.51C1173.87 136.407 1174.22 136.356 1174.62 136.356ZM1174.4 137.392C1173.89 137.392 1173.49 137.49 1173.18 137.686C1172.87 137.873 1172.65 138.157 1172.51 138.54C1172.37 138.923 1172.29 139.408 1172.28 139.996V140.234C1172.28 140.85 1172.35 141.373 1172.48 141.802C1172.61 142.231 1172.83 142.558 1173.14 142.782C1173.45 143.006 1173.88 143.118 1174.43 143.118C1174.88 143.118 1175.26 142.992 1175.55 142.74C1175.84 142.488 1176.06 142.147 1176.2 141.718C1176.35 141.279 1176.43 140.78 1176.43 140.22C1176.43 139.361 1176.26 138.675 1175.92 138.162C1175.6 137.649 1175.09 137.392 1174.4 137.392ZM1186.19 140.234C1186.19 140.859 1186.1 141.415 1185.94 141.9C1185.78 142.376 1185.54 142.782 1185.24 143.118C1184.94 143.454 1184.57 143.711 1184.13 143.888C1183.7 144.056 1183.22 144.14 1182.69 144.14C1182.19 144.14 1181.74 144.056 1181.32 143.888C1180.9 143.711 1180.53 143.454 1180.22 143.118C1179.92 142.782 1179.67 142.376 1179.5 141.9C1179.33 141.415 1179.24 140.859 1179.24 140.234C1179.24 139.403 1179.38 138.703 1179.66 138.134C1179.94 137.555 1180.35 137.117 1180.87 136.818C1181.39 136.51 1182.01 136.356 1182.73 136.356C1183.41 136.356 1184.01 136.51 1184.52 136.818C1185.05 137.117 1185.45 137.555 1185.74 138.134C1186.04 138.703 1186.19 139.403 1186.19 140.234ZM1180.52 140.234C1180.52 140.822 1180.59 141.335 1180.74 141.774C1180.9 142.203 1181.14 142.535 1181.47 142.768C1181.8 143.001 1182.21 143.118 1182.72 143.118C1183.22 143.118 1183.64 143.001 1183.96 142.768C1184.29 142.535 1184.53 142.203 1184.68 141.774C1184.84 141.335 1184.91 140.822 1184.91 140.234C1184.91 139.637 1184.84 139.128 1184.68 138.708C1184.52 138.288 1184.28 137.966 1183.95 137.742C1183.63 137.509 1183.22 137.392 1182.7 137.392C1181.94 137.392 1181.38 137.644 1181.04 138.148C1180.69 138.652 1180.52 139.347 1180.52 140.234ZM1187.75 139.492C1187.75 138.4 1187.86 137.471 1188.07 136.706C1188.3 135.931 1188.64 135.315 1189.09 134.858C1189.56 134.391 1190.16 134.079 1190.89 133.92C1191.49 133.789 1192.08 133.673 1192.66 133.57C1193.24 133.467 1193.78 133.374 1194.29 133.29L1194.5 134.368C1194.25 134.405 1193.98 134.452 1193.69 134.508C1193.39 134.555 1193.08 134.606 1192.78 134.662C1192.47 134.709 1192.17 134.76 1191.88 134.816C1191.6 134.863 1191.35 134.909 1191.14 134.956C1190.83 135.021 1190.55 135.133 1190.31 135.292C1190.07 135.441 1189.86 135.647 1189.68 135.908C1189.51 136.169 1189.38 136.491 1189.28 136.874C1189.17 137.257 1189.11 137.709 1189.09 138.232H1189.18C1189.31 138.055 1189.49 137.873 1189.71 137.686C1189.94 137.499 1190.22 137.341 1190.54 137.21C1190.86 137.079 1191.23 137.014 1191.64 137.014C1192.29 137.014 1192.84 137.159 1193.27 137.448C1193.7 137.728 1194.03 138.12 1194.25 138.624C1194.47 139.128 1194.58 139.716 1194.58 140.388C1194.58 141.219 1194.44 141.914 1194.15 142.474C1193.86 143.034 1193.46 143.454 1192.94 143.734C1192.43 144.005 1191.83 144.14 1191.15 144.14C1190.64 144.14 1190.17 144.042 1189.75 143.846C1189.33 143.641 1188.97 143.342 1188.67 142.95C1188.37 142.558 1188.15 142.073 1187.99 141.494C1187.83 140.915 1187.75 140.248 1187.75 139.492ZM1191.25 143.118C1191.66 143.118 1192.01 143.034 1192.31 142.866C1192.62 142.698 1192.86 142.423 1193.03 142.04C1193.2 141.657 1193.28 141.149 1193.28 140.514C1193.28 139.749 1193.13 139.147 1192.85 138.708C1192.57 138.26 1192.1 138.036 1191.45 138.036C1191.03 138.036 1190.66 138.129 1190.33 138.316C1189.99 138.493 1189.71 138.699 1189.49 138.932C1189.26 139.165 1189.1 139.361 1189.01 139.52C1189.01 139.977 1189.04 140.421 1189.11 140.85C1189.17 141.279 1189.28 141.667 1189.44 142.012C1189.61 142.348 1189.84 142.619 1190.13 142.824C1190.43 143.02 1190.8 143.118 1191.25 143.118Z" fill="#2B3674"/>
<rect x="1126.5" y="127.5" width="77" height="24" rx="3.5" stroke="#DADEE7"/>
<path fill-rule="evenodd" clip-rule="evenodd" d="M1082 215L1082 215.041L1082 214L1080.5 214L1080.5 147C1080.5 145.067 1078.93 143.5 1077 143.5L1050 143.5L1050 142L1077 142C1079.76 142 1082 144.238 1082 147L1082 215ZM946 141.999L919 141.999C916.239 141.999 914 144.238 914 146.999L914 214L915.5 214L915.5 146.999C915.5 145.066 917.067 143.499 919 143.499L946 143.499L946 141.999Z" fill="#B0BBD5"/>
<rect x="958.278" y="174.205" width="18.4444" height="29.2951" rx="3.5" fill="#DADEE7" stroke="#DADEE7"/>
<mask id="path-42-inside-10_202_28" fill="white">
<path d="M955 177C955 173.686 957.686 171 961 171H974C977.314 171 980 173.686 980 177V190.475H955V177Z"/>
</mask>
<path d="M953 177C953 172.582 956.582 169 961 169H974C978.418 169 982 172.582 982 177H978C978 174.791 976.209 173 974 173H961C958.791 173 957 174.791 957 177H953ZM980 190.475H955H980ZM953 190.475V177C953 172.582 956.582 169 961 169V173C958.791 173 957 174.791 957 177V190.475H953ZM974 169C978.418 169 982 172.582 982 177V190.475H978V177C978 174.791 976.209 173 974 173V169Z" fill="#DADEE7" mask="url(#path-42-inside-10_202_28)"/>
<rect x="989.184" y="174.205" width="18.4444" height="29.2951" rx="3.5" fill="#DADEE7" stroke="#DADEE7"/>
<mask id="path-45-inside-11_202_28" fill="white">
<path d="M985.906 177C985.906 173.686 988.593 171 991.906 171H1004.91C1008.22 171 1010.91 173.686 1010.91 177V190.475H985.906V177Z"/>
</mask>
<path d="M983.906 177C983.906 172.582 987.488 169 991.906 169H1004.91C1009.32 169 1012.91 172.582 1012.91 177H1008.91C1008.91 174.791 1007.12 173 1004.91 173H991.906C989.697 173 987.906 174.791 987.906 177H983.906ZM1010.91 190.475H985.906H1010.91ZM983.906 190.475V177C983.906 172.582 987.488 169 991.906 169V173C989.697 173 987.906 174.791 987.906 177V190.475H983.906ZM1004.91 169C1009.32 169 1012.91 172.582 1012.91 177V190.475H1008.91V177C1008.91 174.791 1007.12 173 1004.91 173V169Z" fill="#DADEE7" mask="url(#path-45-inside-11_202_28)"/>
<rect x="1019.59" y="173.705" width="19.4444" height="30.2951" rx="4" fill="#4318FF"/>
<mask id="path-48-inside-12_202_28" fill="white">
<path d="M1016.81 177C1016.81 173.686 1019.5 171 1022.81 171H1035.81C1039.13 171 1041.81 173.686 1041.81 177V190.475H1016.81V177Z"/>
</mask>
<path d="M1014.81 177C1014.81 172.582 1018.39 169 1022.81 169H1035.81C1040.23 169 1043.81 172.582 1043.81 177H1039.81C1039.81 174.791 1038.02 173 1035.81 173H1022.81C1020.6 173 1018.81 174.791 1018.81 177H1014.81ZM1041.81 190.475H1016.81H1041.81ZM1014.81 190.475V177C1014.81 172.582 1018.39 169 1022.81 169V173C1020.6 173 1018.81 174.791 1018.81 177V190.475H1014.81ZM1035.81 169C1040.23 169 1043.81 172.582 1043.81 177V190.475H1039.81V177C1039.81 174.791 1038.02 173 1035.81 173V169Z" fill="#4318FF" mask="url(#path-48-inside-12_202_28)"/>
<rect x="959.5" y="127.5" width="64" height="24" rx="3.5" fill="#DADEE7"/>
<path d="M968.33 144V134.004H969.744L974.294 142.236H974.35C974.341 141.993 974.327 141.713 974.308 141.396C974.289 141.079 974.275 140.761 974.266 140.444C974.257 140.117 974.252 139.837 974.252 139.604V134.004H975.358V144H973.986L969.38 135.74H969.324C969.343 135.983 969.357 136.272 969.366 136.608C969.385 136.935 969.399 137.261 969.408 137.588C969.427 137.915 969.436 138.204 969.436 138.456V144H968.33ZM976.688 144V143.034H980.286V144H976.688ZM978.48 142.124C978.079 142.124 977.719 142.035 977.402 141.858C977.094 141.671 976.851 141.401 976.674 141.046C976.497 140.691 976.408 140.257 976.408 139.744C976.408 138.979 976.595 138.395 976.968 137.994C977.351 137.583 977.869 137.378 978.522 137.378C978.923 137.378 979.278 137.471 979.586 137.658C979.903 137.835 980.151 138.101 980.328 138.456C980.515 138.801 980.608 139.231 980.608 139.744C980.608 140.509 980.417 141.097 980.034 141.508C979.651 141.919 979.133 142.124 978.48 142.124ZM978.508 141.312C978.919 141.312 979.213 141.181 979.39 140.92C979.567 140.649 979.656 140.257 979.656 139.744C979.656 139.221 979.567 138.839 979.39 138.596C979.213 138.344 978.919 138.218 978.508 138.218C978.107 138.218 977.813 138.344 977.626 138.596C977.439 138.839 977.346 139.221 977.346 139.744C977.346 140.257 977.435 140.649 977.612 140.92C977.799 141.181 978.097 141.312 978.508 141.312ZM981.805 135.04V133.878H984.437V144H983.149V135.04H981.805ZM986.29 135.04V133.878H988.922V144H987.634V135.04H986.29ZM997.564 134.984H992.65V138.176C992.865 137.877 993.182 137.635 993.602 137.448C994.022 137.252 994.475 137.154 994.96 137.154C995.735 137.154 996.365 137.317 996.85 137.644C997.336 137.961 997.681 138.377 997.886 138.89C998.101 139.394 998.208 139.931 998.208 140.5C998.208 141.172 998.082 141.774 997.83 142.306C997.578 142.838 997.191 143.258 996.668 143.566C996.155 143.874 995.516 144.028 994.75 144.028C993.77 144.028 992.977 143.776 992.37 143.272C991.764 142.768 991.395 142.096 991.264 141.256H992.51C992.632 141.788 992.888 142.203 993.28 142.502C993.672 142.801 994.167 142.95 994.764 142.95C995.502 142.95 996.057 142.731 996.43 142.292C996.804 141.844 996.99 141.256 996.99 140.528C996.99 139.8 996.804 139.24 996.43 138.848C996.057 138.447 995.506 138.246 994.778 138.246C994.284 138.246 993.85 138.367 993.476 138.61C993.112 138.843 992.846 139.165 992.678 139.576H991.474V133.864H997.564V134.984ZM1006.75 140.234C1006.75 140.859 1006.66 141.415 1006.5 141.9C1006.34 142.376 1006.1 142.782 1005.8 143.118C1005.5 143.454 1005.13 143.711 1004.69 143.888C1004.26 144.056 1003.78 144.14 1003.25 144.14C1002.75 144.14 1002.3 144.056 1001.88 143.888C1001.46 143.711 1001.09 143.454 1000.78 143.118C1000.48 142.782 1000.23 142.376 1000.06 141.9C999.887 141.415 999.803 140.859 999.803 140.234C999.803 139.403 999.943 138.703 1000.22 138.134C1000.5 137.555 1000.9 137.117 1001.43 136.818C1001.95 136.51 1002.57 136.356 1003.29 136.356C1003.97 136.356 1004.57 136.51 1005.08 136.818C1005.6 137.117 1006.01 137.555 1006.3 138.134C1006.6 138.703 1006.75 139.403 1006.75 140.234ZM1001.08 140.234C1001.08 140.822 1001.15 141.335 1001.3 141.774C1001.46 142.203 1001.7 142.535 1002.03 142.768C1002.36 143.001 1002.77 143.118 1003.28 143.118C1003.78 143.118 1004.19 143.001 1004.52 142.768C1004.85 142.535 1005.09 142.203 1005.24 141.774C1005.39 141.335 1005.47 140.822 1005.47 140.234C1005.47 139.637 1005.39 139.128 1005.24 138.708C1005.08 138.288 1004.83 137.966 1004.51 137.742C1004.19 137.509 1003.77 137.392 1003.26 137.392C1002.5 137.392 1001.94 137.644 1001.6 138.148C1001.25 138.652 1001.08 139.347 1001.08 140.234ZM1008.31 139.492C1008.31 138.4 1008.42 137.471 1008.63 136.706C1008.85 135.931 1009.19 135.315 1009.65 134.858C1010.12 134.391 1010.72 134.079 1011.44 133.92C1012.05 133.789 1012.64 133.673 1013.22 133.57C1013.8 133.467 1014.34 133.374 1014.85 133.29L1015.06 134.368C1014.81 134.405 1014.54 134.452 1014.24 134.508C1013.95 134.555 1013.64 134.606 1013.33 134.662C1013.03 134.709 1012.73 134.76 1012.44 134.816C1012.16 134.863 1011.91 134.909 1011.7 134.956C1011.39 135.021 1011.11 135.133 1010.87 135.292C1010.63 135.441 1010.42 135.647 1010.24 135.908C1010.07 136.169 1009.94 136.491 1009.83 136.874C1009.73 137.257 1009.67 137.709 1009.65 138.232H1009.74C1009.87 138.055 1010.04 137.873 1010.27 137.686C1010.5 137.499 1010.78 137.341 1011.09 137.21C1011.42 137.079 1011.79 137.014 1012.2 137.014C1012.85 137.014 1013.39 137.159 1013.82 137.448C1014.26 137.728 1014.59 138.12 1014.8 138.624C1015.03 139.128 1015.14 139.716 1015.14 140.388C1015.14 141.219 1015 141.914 1014.71 142.474C1014.42 143.034 1014.02 143.454 1013.5 143.734C1012.99 144.005 1012.39 144.14 1011.71 144.14C1011.2 144.14 1010.73 144.042 1010.31 143.846C1009.89 143.641 1009.53 143.342 1009.23 142.95C1008.93 142.558 1008.7 142.073 1008.55 141.494C1008.39 140.915 1008.31 140.248 1008.31 139.492ZM1011.81 143.118C1012.22 143.118 1012.57 143.034 1012.87 142.866C1013.18 142.698 1013.42 142.423 1013.59 142.04C1013.75 141.657 1013.84 141.149 1013.84 140.514C1013.84 139.749 1013.69 139.147 1013.4 138.708C1013.12 138.26 1012.66 138.036 1012 138.036C1011.59 138.036 1011.22 138.129 1010.88 138.316C1010.55 138.493 1010.27 138.699 1010.04 138.932C1009.82 139.165 1009.66 139.361 1009.57 139.52C1009.57 139.977 1009.6 140.421 1009.67 140.85C1009.73 141.279 1009.84 141.667 1010 142.012C1010.17 142.348 1010.4 142.619 1010.69 142.824C1010.99 143.02 1011.36 143.118 1011.81 143.118Z" fill="#2B3674"/>
<rect x="959.5" y="127.5" width="64" height="24" rx="3.5" stroke="#DADEE7"/>
<path fill-rule="evenodd" clip-rule="evenodd" d="M20 3H1230C1239.39 3 1247 10.6112 1247 20V70.5C1247 71.3284 1247.67 72 1248.5 72V72C1249.33 72 1250 71.3284 1250 70.5V20C1250 8.95431 1241.05 0 1230 0H20C8.95431 0 0 8.9543 0 20V195C0 206.046 8.95427 215 20 215H1230C1241.05 215 1250 206.046 1250 195V148.5C1250 147.672 1249.33 147 1248.5 147V147C1247.67 147 1247 147.672 1247 148.5V195C1247 204.389 1239.39 212 1230 212H20C10.6111 212 3 204.389 3 195V20C3 10.6112 10.6112 3 20 3Z" fill="#B0BBD5"/>
<path d="M513.594 27.2188H503.312C502.923 27.2188 502.549 27.3735 502.274 27.6489C501.998 27.9244 501.844 28.298 501.844 28.6875V36.0312H494.5C494.11 36.0312 493.737 36.186 493.461 36.4614C493.186 36.7369 493.031 37.1105 493.031 37.5V44.8438H485.687C485.298 44.8438 484.924 44.9985 484.649 45.2739C484.373 45.5494 484.219 45.923 484.219 46.3125V53.6562H475.406C475.017 53.6562 474.643 53.811 474.368 54.0864C474.092 54.3619 473.937 54.7355 473.937 55.125C473.937 55.5145 474.092 55.8881 474.368 56.1636C474.643 56.439 475.017 56.5938 475.406 56.5938H485.687C486.077 56.5938 486.451 56.439 486.726 56.1636C487.002 55.8881 487.156 55.5145 487.156 55.125V47.7812H494.5C494.89 47.7812 495.263 47.6265 495.539 47.3511C495.814 47.0756 495.969 46.702 495.969 46.3125V38.9688H503.312C503.702 38.9688 504.076 38.814 504.351 38.5386C504.627 38.2631 504.781 37.8895 504.781 37.5V30.1562H513.594C513.983 30.1562 514.357 30.0015 514.632 29.7261C514.908 29.4506 515.062 29.077 515.062 28.6875C515.062 28.298 514.908 27.9244 514.632 27.6489C514.357 27.3735 513.983 27.2188 513.594 27.2188ZM475.406 40.4375C475.6 40.4386 475.791 40.4016 475.97 40.3285C476.149 40.2554 476.312 40.1477 476.449 40.0116L493.031 23.4294V25.2506C493.031 25.6402 493.186 26.0137 493.461 26.2892C493.737 26.5646 494.11 26.7194 494.5 26.7194C494.89 26.7194 495.263 26.5646 495.539 26.2892C495.814 26.0137 495.969 25.6402 495.969 25.2506V19.875C495.969 19.4855 495.814 19.1119 495.539 18.8364C495.263 18.561 494.89 18.4062 494.5 18.4062H489.124C488.735 18.4062 488.361 18.561 488.086 18.8364C487.81 19.1119 487.656 19.4855 487.656 19.875C487.656 20.2645 487.81 20.6381 488.086 20.9136C488.361 21.189 488.735 21.3438 489.124 21.3438H490.946L474.363 37.9259C474.156 38.1314 474.015 38.3938 473.958 38.6799C473.9 38.9659 473.929 39.2626 474.041 39.532C474.153 39.8014 474.343 40.0314 474.586 40.1927C474.829 40.354 475.115 40.4392 475.406 40.4375Z" fill="#B0BBD5"/>
<rect x="579.5" y="12.5" width="412.413" height="46.9999" rx="3.5" fill="#DADEE7" stroke="#DADEE7"/>
<rect x="1014.5" y="12.5" width="227.219" height="46.9999" rx="3.5" fill="#DADEE7" stroke="#DADEE7"/>
<g clip-path="url(#clip0_202_28)">
<path d="M782.054 37.6474L791.769 33.2254C793.327 32.5164 792.493 30.2562 790.974 30.5335C789.751 28.163 787.478 27.1597 785.122 27.5584C782.306 23.015 774.873 24.844 774.873 30.5578L774.873 48.6023C774.873 48.7084 774.915 48.8102 774.99 48.8852C775.065 48.9602 775.167 49.0023 775.273 49.0023C775.379 49.0023 775.481 48.9602 775.556 48.8852C775.631 48.8102 775.673 48.7084 775.673 48.6023L775.673 30.5578C775.673 25.7757 781.813 24.1591 784.297 27.7568C783.776 27.9203 783.277 28.1486 782.812 28.4363C780.992 26.3515 777.255 27.5069 777.255 30.5578L777.255 48.6023C777.255 48.7084 777.297 48.8102 777.372 48.8852C777.447 48.9602 777.549 49.0023 777.655 49.0023C777.761 49.0023 777.863 48.9602 777.938 48.8852C778.013 48.8102 778.055 48.7084 778.055 48.6023L778.055 30.5578C778.055 28.2643 780.834 27.4573 782.159 28.9024C780.317 30.4044 779.552 32.7764 780.546 35.2797C779.347 36.237 780.481 38.3635 782.054 37.6474ZM781.214 35.8031C781.311 35.7592 781.386 35.6787 781.423 35.5794C781.461 35.48 781.457 35.37 781.413 35.2734C778.762 29.4491 787.335 25.412 790.223 30.824L782.343 34.4104C782.295 34.4319 782.252 34.4627 782.215 34.5011C782.179 34.5395 782.151 34.5847 782.132 34.634C782.113 34.6834 782.104 34.736 782.106 34.7888C782.108 34.8416 782.12 34.8935 782.142 34.9416C782.164 34.9896 782.195 35.0329 782.234 35.0688C782.272 35.1048 782.318 35.1327 782.367 35.151C782.417 35.1693 782.469 35.1777 782.522 35.1755C782.575 35.1734 782.627 35.1608 782.675 35.1385L790.93 31.3812C791.689 31.0435 792.177 32.1608 791.438 32.4973L781.722 36.9192C780.977 37.2585 780.469 36.1425 781.214 35.8031Z" fill="#2B3674"/>
<path d="M788.259 38.1236L787.887 37.1416C787.848 37.044 787.773 36.9654 787.676 36.923C787.58 36.8806 787.471 36.8776 787.373 36.9148C787.275 36.952 787.195 37.0264 787.151 37.1219C787.107 37.2173 787.103 37.3262 787.139 37.425L787.511 38.4069C787.529 38.456 787.557 38.501 787.593 38.5393C787.629 38.5775 787.672 38.6083 787.72 38.6299C787.768 38.6515 787.82 38.6634 787.872 38.665C787.925 38.6666 787.977 38.6579 788.026 38.6393C788.075 38.6207 788.12 38.5926 788.159 38.5566C788.197 38.5206 788.228 38.4774 788.249 38.4295C788.271 38.3817 788.283 38.33 788.284 38.2775C788.286 38.225 788.277 38.1727 788.259 38.1236ZM791.093 45.6078L790.384 43.7367C790.366 43.687 790.338 43.6414 790.302 43.6025C790.267 43.5636 790.223 43.5323 790.175 43.5103C790.127 43.4882 790.075 43.476 790.022 43.4742C789.969 43.4724 789.917 43.4812 789.867 43.4999C789.818 43.5186 789.772 43.547 789.734 43.5834C789.695 43.6197 789.665 43.6634 789.643 43.7118C789.622 43.7601 789.61 43.8123 789.609 43.8652C789.608 43.9181 789.617 43.9707 789.636 44.02L790.345 45.891C790.383 45.9891 790.459 46.068 790.555 46.1106C790.651 46.1533 790.76 46.1564 790.859 46.1191C790.957 46.0818 791.037 46.0072 791.081 45.9115C791.125 45.8158 791.129 45.7066 791.093 45.6078ZM789.676 41.8656L788.967 39.9946C788.93 39.8954 788.854 39.8152 788.758 39.7716C788.661 39.728 788.551 39.7246 788.452 39.7622C788.352 39.7998 788.272 39.8752 788.229 39.9719C788.185 40.0686 788.182 40.1787 788.219 40.2779L788.928 42.1489C788.965 42.2482 789.041 42.3284 789.137 42.372C789.234 42.4155 789.344 42.4189 789.443 42.3813C789.543 42.3438 789.623 42.2683 789.666 42.1716C789.71 42.0749 789.713 41.9648 789.676 41.8656ZM791.802 47.4788C791.764 47.3796 791.689 47.2994 791.592 47.2558C791.495 47.2122 791.385 47.2088 791.286 47.2464C791.187 47.284 791.106 47.3594 791.063 47.4561C791.019 47.5528 791.016 47.6629 791.053 47.7621L791.425 48.744C791.454 48.82 791.505 48.8854 791.572 48.9315C791.639 48.9777 791.718 49.0024 791.799 49.0024C792.078 49.0024 792.273 48.7228 792.173 48.4607L791.802 47.4788ZM785.255 39.5391L785.084 38.5032C785.067 38.3986 785.008 38.3051 784.922 38.2433C784.836 38.1815 784.729 38.1565 784.624 38.1738C784.572 38.1824 784.523 38.201 784.478 38.2288C784.433 38.2565 784.395 38.2928 784.364 38.3355C784.334 38.3782 784.312 38.4265 784.3 38.4776C784.288 38.5288 784.286 38.5818 784.295 38.6336L784.466 39.6695C784.483 39.7741 784.541 39.8674 784.628 39.9291C784.714 39.9908 784.821 40.0157 784.926 39.9984C785.03 39.9811 785.124 39.9231 785.185 39.837C785.247 39.7508 785.272 39.6437 785.255 39.5391ZM786.069 44.4698L785.662 42.0044C785.654 41.9526 785.635 41.903 785.607 41.8584C785.58 41.8137 785.543 41.775 785.501 41.7444C785.458 41.7139 785.41 41.692 785.358 41.6801C785.307 41.6681 785.254 41.6664 785.202 41.675C785.151 41.6836 785.101 41.7023 785.056 41.73C785.012 41.7577 784.973 41.794 784.942 41.8367C784.912 41.8794 784.89 41.9277 784.878 41.9789C784.866 42.03 784.864 42.083 784.873 42.1348L785.28 44.6002C785.297 44.7049 785.356 44.7984 785.442 44.8601C785.528 44.9219 785.635 44.9469 785.74 44.9296C785.845 44.9123 785.938 44.8542 786 44.7679C786.062 44.6817 786.087 44.5745 786.069 44.4698ZM786.477 46.9351C786.459 46.8306 786.401 46.7372 786.315 46.6756C786.229 46.6139 786.121 46.589 786.017 46.6062C785.912 46.6235 785.819 46.6816 785.757 46.7677C785.695 46.8538 785.67 46.9609 785.687 47.0655L785.858 48.1014C785.874 48.1948 785.922 48.2798 785.994 48.3411C786.066 48.4024 786.158 48.4362 786.253 48.4363C786.501 48.4363 786.688 48.2138 786.648 47.9711L786.477 46.9351ZM781.999 39.4036C781.778 39.3922 781.589 39.5608 781.578 39.7814L781.47 41.7784C781.457 42.0075 781.64 42.2 781.869 42.2C781.972 42.1999 782.07 42.1606 782.144 42.0903C782.218 42.0199 782.263 41.9237 782.268 41.8216L782.376 39.8246C782.379 39.7721 782.372 39.7196 782.354 39.6701C782.337 39.6205 782.31 39.5749 782.275 39.5358C782.24 39.4967 782.197 39.4649 782.15 39.4422C782.102 39.4195 782.051 39.4064 781.999 39.4036ZM781.759 43.8431C781.538 43.8315 781.349 44.0004 781.338 44.221L781.23 46.218C781.217 46.4471 781.4 46.6396 781.629 46.6396C781.732 46.6395 781.83 46.6002 781.904 46.5298C781.978 46.4595 782.023 46.3633 782.028 46.2612L782.136 44.2642C782.139 44.2117 782.132 44.1592 782.114 44.1097C782.097 44.0601 782.07 44.0145 782.035 43.9754C782 43.9363 781.957 43.9045 781.91 43.8818C781.862 43.8591 781.811 43.846 781.759 43.8431ZM790.192 35.6313C790.105 35.6916 790.045 35.7842 790.026 35.8885C790.007 35.9929 790.03 36.1005 790.09 36.1878L790.688 37.0514C790.748 37.1382 790.841 37.1974 790.945 37.2162C791.049 37.2349 791.156 37.2117 791.243 37.1515C791.33 37.0914 791.39 36.9992 791.409 36.8951C791.428 36.7911 791.405 36.6837 791.346 36.5964L790.748 35.7328C790.688 35.6455 790.596 35.5858 790.491 35.5668C790.387 35.5478 790.279 35.571 790.192 35.6313ZM792.817 38.7245C792.757 38.6378 792.664 38.5785 792.56 38.5597C792.456 38.541 792.349 38.5642 792.262 38.6244C792.175 38.6846 792.115 38.7768 792.096 38.8808C792.077 38.9848 792.099 39.0922 792.159 39.1795L793.631 41.3076C793.668 41.3609 793.717 41.4044 793.774 41.4345C793.832 41.4646 793.895 41.4802 793.96 41.4801C794.279 41.4801 794.473 41.1192 794.289 40.8526L792.817 38.7245ZM795.76 42.9808C795.7 42.894 795.607 42.8348 795.503 42.816C795.399 42.7973 795.292 42.8205 795.205 42.8807C795.118 42.9408 795.058 43.033 795.039 43.1371C795.02 43.2411 795.042 43.3485 795.102 43.4358L795.699 44.2994C795.736 44.3527 795.785 44.3962 795.843 44.4263C795.9 44.4563 795.964 44.472 796.029 44.4719C796.348 44.4719 796.542 44.1109 796.357 43.8443L795.76 42.9808ZM794.54 34.9327L793.733 34.2611C793.693 34.2275 793.646 34.2021 793.596 34.1865C793.546 34.171 793.493 34.1654 793.441 34.1702C793.388 34.175 793.338 34.19 793.291 34.2145C793.245 34.2389 793.203 34.2723 793.17 34.3127C793.136 34.353 793.111 34.3996 793.095 34.4498C793.08 34.5 793.074 34.5527 793.079 34.605C793.084 34.6573 793.099 34.7082 793.123 34.7547C793.148 34.8012 793.181 34.8424 793.221 34.876L794.028 35.5476C794.11 35.6155 794.215 35.6482 794.321 35.6385C794.426 35.6288 794.524 35.5776 794.592 35.496C794.66 35.4145 794.692 35.3093 794.683 35.2037C794.673 35.098 794.622 35.0005 794.54 34.9327ZM796.983 36.9654L796.176 36.2938C796.094 36.2259 795.989 36.1932 795.883 36.2029C795.778 36.2126 795.68 36.2638 795.612 36.3454C795.544 36.4269 795.512 36.5321 795.521 36.6377C795.531 36.7434 795.582 36.8408 795.664 36.9087L796.471 37.5803C796.553 37.6482 796.658 37.6809 796.763 37.6712C796.869 37.6615 796.966 37.6103 797.034 37.5287C797.102 37.4472 797.135 37.342 797.125 37.2364C797.116 37.1307 797.064 37.0333 796.983 36.9654Z" fill="#2B3674"/>
</g>
<g clip-path="url(#clip1_202_28)">
<path d="M1124.05 37.6449L1133.77 33.223C1135.33 32.514 1134.49 30.2537 1132.97 30.5311C1131.75 28.1606 1129.48 27.1573 1127.12 27.5559C1124.31 23.0126 1116.87 24.8415 1116.87 30.5554L1116.87 48.5999C1116.87 48.706 1116.92 48.8077 1116.99 48.8827C1117.07 48.9577 1117.17 48.9999 1117.27 48.9999C1117.38 48.9999 1117.48 48.9577 1117.56 48.8827C1117.63 48.8077 1117.67 48.706 1117.67 48.5999L1117.67 30.5554C1117.67 25.7733 1123.81 24.1567 1126.3 27.7544C1125.78 27.9179 1125.28 28.1462 1124.81 28.4339C1122.99 26.349 1119.25 27.5045 1119.25 30.5554L1119.25 48.5999C1119.25 48.706 1119.3 48.8077 1119.37 48.8827C1119.45 48.9577 1119.55 48.9999 1119.65 48.9999C1119.76 48.9999 1119.86 48.9577 1119.94 48.8827C1120.01 48.8077 1120.05 48.706 1120.05 48.5999L1120.05 30.5554C1120.05 28.2619 1122.83 27.4548 1124.16 28.9C1122.32 30.402 1121.55 32.774 1122.55 35.2772C1121.35 36.2345 1122.48 38.361 1124.05 37.6449ZM1123.21 35.8007C1123.31 35.7568 1123.39 35.6763 1123.42 35.5769C1123.46 35.4776 1123.46 35.3675 1123.41 35.271C1120.76 29.4467 1129.34 25.4096 1132.22 30.8215L1124.34 34.408C1124.3 34.4295 1124.25 34.4603 1124.22 34.4987C1124.18 34.5371 1124.15 34.5822 1124.13 34.6316C1124.11 34.681 1124.1 34.7336 1124.11 34.7864C1124.11 34.8391 1124.12 34.8911 1124.14 34.9391C1124.16 34.9872 1124.19 35.0304 1124.23 35.0664C1124.27 35.1023 1124.32 35.1303 1124.37 35.1486C1124.42 35.1669 1124.47 35.1752 1124.52 35.1731C1124.57 35.1709 1124.63 35.1584 1124.67 35.1361L1132.93 31.3788C1133.69 31.0411 1134.18 32.1583 1133.44 32.4949L1123.72 36.9168C1122.98 37.2561 1122.47 36.1401 1123.21 35.8007Z" fill="#2B3674"/>
<path d="M1130.26 38.1211L1129.89 37.1392C1129.85 37.0415 1129.77 36.963 1129.68 36.9205C1129.58 36.8781 1129.47 36.8752 1129.37 36.9124C1129.27 36.9496 1129.2 37.024 1129.15 37.1194C1129.11 37.2149 1129.1 37.3237 1129.14 37.4225L1129.51 38.4045C1129.53 38.4536 1129.56 38.4985 1129.59 38.5368C1129.63 38.5751 1129.67 38.6059 1129.72 38.6275C1129.77 38.649 1129.82 38.661 1129.87 38.6626C1129.92 38.6642 1129.98 38.6554 1130.03 38.6368C1130.08 38.6182 1130.12 38.5901 1130.16 38.5542C1130.2 38.5182 1130.23 38.475 1130.25 38.4271C1130.27 38.3792 1130.28 38.3275 1130.28 38.275C1130.29 38.2225 1130.28 38.1702 1130.26 38.1211ZM1133.09 45.6053L1132.38 43.7342C1132.37 43.6845 1132.34 43.6389 1132.3 43.6001C1132.27 43.5612 1132.22 43.5298 1132.18 43.5078C1132.13 43.4858 1132.07 43.4735 1132.02 43.4718C1131.97 43.47 1131.92 43.4787 1131.87 43.4975C1131.82 43.5162 1131.77 43.5446 1131.73 43.5809C1131.7 43.6173 1131.66 43.6609 1131.64 43.7093C1131.62 43.7577 1131.61 43.8098 1131.61 43.8627C1131.61 43.9156 1131.62 43.9683 1131.64 44.0175L1132.34 45.8886C1132.38 45.9866 1132.46 46.0655 1132.55 46.1082C1132.65 46.1509 1132.76 46.1539 1132.86 46.1166C1132.96 46.0794 1133.04 46.0048 1133.08 45.9091C1133.12 45.8133 1133.13 45.7042 1133.09 45.6053ZM1131.68 41.8632L1130.97 39.9921C1130.93 39.8929 1130.85 39.8127 1130.76 39.7691C1130.66 39.7255 1130.55 39.7222 1130.45 39.7597C1130.35 39.7973 1130.27 39.8728 1130.23 39.9695C1130.18 40.0662 1130.18 40.1763 1130.22 40.2755L1130.93 42.1465C1130.97 42.2457 1131.04 42.3259 1131.14 42.3695C1131.23 42.4131 1131.34 42.4165 1131.44 42.3789C1131.54 42.3413 1131.62 42.2659 1131.67 42.1692C1131.71 42.0724 1131.71 41.9624 1131.68 41.8632ZM1133.8 47.4763C1133.76 47.3771 1133.69 47.2969 1133.59 47.2533C1133.49 47.2098 1133.38 47.2064 1133.29 47.244C1133.19 47.2815 1133.11 47.357 1133.06 47.4537C1133.02 47.5504 1133.02 47.6605 1133.05 47.7597L1133.43 48.7416C1133.45 48.8175 1133.51 48.8829 1133.57 48.9291C1133.64 48.9753 1133.72 49 1133.8 49C1134.08 49 1134.27 48.7203 1134.17 48.4583L1133.8 47.4763ZM1127.25 39.5367L1127.08 38.5008C1127.07 38.3961 1127.01 38.3027 1126.92 38.2409C1126.84 38.1791 1126.73 38.1541 1126.62 38.1714C1126.57 38.1799 1126.52 38.1986 1126.48 38.2263C1126.43 38.2541 1126.39 38.2903 1126.36 38.333C1126.33 38.3757 1126.31 38.424 1126.3 38.4752C1126.29 38.5264 1126.29 38.5794 1126.29 38.6312L1126.47 39.6671C1126.48 39.7716 1126.54 39.865 1126.63 39.9266C1126.71 39.9883 1126.82 40.0132 1126.93 39.996C1127.03 39.9787 1127.12 39.9206 1127.19 39.8345C1127.25 39.7484 1127.27 39.6413 1127.25 39.5367ZM1128.07 44.4674L1127.66 42.002C1127.65 41.9502 1127.63 41.9005 1127.61 41.8559C1127.58 41.8113 1127.54 41.7726 1127.5 41.742C1127.46 41.7114 1127.41 41.6895 1127.36 41.6776C1127.31 41.6657 1127.25 41.664 1127.2 41.6726C1127.15 41.6811 1127.1 41.6998 1127.06 41.7275C1127.01 41.7553 1126.97 41.7915 1126.94 41.8342C1126.91 41.8769 1126.89 41.9253 1126.88 41.9764C1126.87 42.0276 1126.86 42.0806 1126.87 42.1324L1127.28 44.5978C1127.3 44.7024 1127.36 44.7959 1127.44 44.8577C1127.53 44.9195 1127.64 44.9445 1127.74 44.9272C1127.84 44.9099 1127.94 44.8517 1128 44.7655C1128.06 44.6793 1128.09 44.572 1128.07 44.4674ZM1128.48 46.9327C1128.46 46.8281 1128.4 46.7348 1128.31 46.6731C1128.23 46.6115 1128.12 46.5865 1128.02 46.6038C1127.91 46.6211 1127.82 46.6791 1127.76 46.7652C1127.7 46.8514 1127.67 46.9585 1127.69 47.0631L1127.86 48.099C1127.87 48.1924 1127.92 48.2773 1127.99 48.3387C1128.07 48.4 1128.16 48.4337 1128.25 48.4339C1128.5 48.4339 1128.69 48.2114 1128.65 47.9686L1128.48 46.9327ZM1124 39.4011C1123.78 39.3898 1123.59 39.5584 1123.58 39.7789L1123.47 41.776C1123.46 42.0051 1123.64 42.1975 1123.87 42.1975C1123.97 42.1975 1124.07 42.1582 1124.14 42.0878C1124.22 42.0174 1124.26 41.9213 1124.27 41.8192L1124.38 39.8221C1124.38 39.7697 1124.37 39.7172 1124.35 39.6676C1124.34 39.6181 1124.31 39.5725 1124.27 39.5334C1124.24 39.4943 1124.2 39.4625 1124.15 39.4398C1124.1 39.4171 1124.05 39.4039 1124 39.4011ZM1123.76 43.8407C1123.54 43.829 1123.35 43.9979 1123.34 44.2185L1123.23 46.2155C1123.22 46.4446 1123.4 46.6371 1123.63 46.6371C1123.73 46.637 1123.83 46.5978 1123.9 46.5274C1123.98 46.457 1124.02 46.3609 1124.03 46.2587L1124.14 44.2617C1124.14 44.2093 1124.13 44.1568 1124.11 44.1072C1124.1 44.0577 1124.07 44.012 1124.03 43.9729C1124 43.9338 1123.96 43.902 1123.91 43.8793C1123.86 43.8566 1123.81 43.8435 1123.76 43.8407ZM1132.19 35.6289C1132.1 35.6892 1132.04 35.7817 1132.03 35.8861C1132.01 35.9904 1132.03 36.0981 1132.09 36.1853L1132.69 37.049C1132.75 37.1357 1132.84 37.195 1132.94 37.2137C1133.05 37.2325 1133.16 37.2093 1133.24 37.1491C1133.33 37.0889 1133.39 36.9967 1133.41 36.8927C1133.43 36.7886 1133.41 36.6812 1133.35 36.594L1132.75 35.7304C1132.69 35.6431 1132.6 35.5834 1132.49 35.5644C1132.39 35.5453 1132.28 35.5685 1132.19 35.6289ZM1134.82 38.7221C1134.76 38.6353 1134.66 38.5761 1134.56 38.5573C1134.46 38.5385 1134.35 38.5618 1134.26 38.622C1134.17 38.6821 1134.11 38.7743 1134.1 38.8784C1134.08 38.9824 1134.1 39.0898 1134.16 39.1771L1135.63 41.3051C1135.67 41.3584 1135.72 41.402 1135.77 41.4321C1135.83 41.4621 1135.9 41.4778 1135.96 41.4777C1136.28 41.4777 1136.47 41.1168 1136.29 40.8502L1134.82 38.7221ZM1137.76 42.9784C1137.7 42.8916 1137.61 42.8324 1137.5 42.8136C1137.4 42.7948 1137.29 42.8181 1137.2 42.8782C1137.12 42.9384 1137.06 43.0306 1137.04 43.1346C1137.02 43.2387 1137.04 43.3461 1137.1 43.4334L1137.7 44.2969C1137.74 44.3502 1137.79 44.3938 1137.84 44.4238C1137.9 44.4539 1137.96 44.4695 1138.03 44.4694C1138.35 44.4694 1138.54 44.1085 1138.36 43.8419L1137.76 42.9784ZM1136.54 34.9302L1135.73 34.2586C1135.69 34.225 1135.65 34.1997 1135.6 34.1841C1135.55 34.1685 1135.49 34.163 1135.44 34.1677C1135.39 34.1725 1135.34 34.1876 1135.29 34.212C1135.24 34.2365 1135.2 34.2698 1135.17 34.3102C1135.14 34.3506 1135.11 34.3972 1135.1 34.4474C1135.08 34.4975 1135.07 34.5503 1135.08 34.6026C1135.08 34.6549 1135.1 34.7057 1135.12 34.7522C1135.15 34.7987 1135.18 34.8399 1135.22 34.8735L1136.03 35.5452C1136.11 35.613 1136.21 35.6457 1136.32 35.636C1136.43 35.6264 1136.52 35.5751 1136.59 35.4936C1136.66 35.412 1136.69 35.3069 1136.68 35.2012C1136.67 35.0956 1136.62 34.9981 1136.54 34.9302ZM1138.98 36.963L1138.18 36.2913C1138.09 36.2235 1137.99 36.1908 1137.88 36.2005C1137.78 36.2101 1137.68 36.2614 1137.61 36.3429C1137.54 36.4245 1137.51 36.5296 1137.52 36.6353C1137.53 36.7409 1137.58 36.8384 1137.66 36.9063L1138.47 37.5779C1138.55 37.6457 1138.66 37.6784 1138.76 37.6688C1138.87 37.6591 1138.97 37.6078 1139.03 37.5263C1139.1 37.4447 1139.13 37.3396 1139.13 37.2339C1139.12 37.1283 1139.06 37.0308 1138.98 36.963Z" fill="#2B3674"/>
</g>
<path fill-rule="evenodd" clip-rule="evenodd" d="M565 67L565 0L566.5 0L566.5 67C566.5 68.933 568.067 70.5 570 70.5L705.427 70.5V72L570 72C567.239 72 565 69.7614 565 67ZM868.875 72L1002 72C1004.76 72 1007 69.7614 1007 67L1007 0L1005.5 0L1005.5 67C1005.5 68.933 1003.93 70.5 1002 70.5L868.875 70.5V72Z" fill="#B0BBD5"/>
<path fill-rule="evenodd" clip-rule="evenodd" d="M1006 67L1006 0L1007.5 0.262471L1007.5 67C1007.5 68.933 1009.07 70.5 1011 70.5L1083.52 70.5V72L1011 72C1008.24 72 1006 69.7614 1006 67ZM1173.75 72L1245 72C1247.76 72 1250 69.7614 1250 67L1250 42.6952L1248.5 42.4328L1248.5 67C1248.5 68.933 1246.93 70.5 1245 70.5L1173.75 70.5V72Z" fill="#B0BBD5"/>
<rect x="447.401" y="173.705" width="19.4444" height="30.2951" rx="4" fill="#DADEE7"/>
<mask id="path-63-inside-13_202_28" fill="white">
<path d="M444.623 177C444.623 173.686 447.309 171 450.623 171H463.623C466.937 171 469.623 173.686 469.623 177V190.475H444.623V177Z"/>
</mask>
<path d="M442.623 177C442.623 172.582 446.205 169 450.623 169H463.623C468.041 169 471.623 172.582 471.623 177H467.623C467.623 174.791 465.832 173 463.623 173H450.623C448.414 173 446.623 174.791 446.623 177H442.623ZM469.623 190.475H444.623H469.623ZM442.623 190.475V177C442.623 172.582 446.205 169 450.623 169V173C448.414 173 446.623 174.791 446.623 177V190.475H442.623ZM463.623 169C468.041 169 471.623 172.582 471.623 177V190.475H467.623V177C467.623 174.791 465.832 173 463.623 173V169Z" fill="#DADEE7" mask="url(#path-63-inside-13_202_28)"/>
<rect x="162.687" y="12.7049" width="19.4444" height="30.2951" rx="4" fill="#DADEE7"/>
<mask id="path-66-inside-14_202_28" fill="white">
<path d="M159.909 16C159.909 12.6863 162.595 10 165.909 10L178.909 10C182.223 10 184.909 12.6863 184.909 16L184.909 29.4754L159.909 29.4754L159.909 16Z"/>
</mask>
<path d="M157.909 16C157.909 11.5817 161.491 8 165.909 8L178.909 8C183.327 8 186.909 11.5817 186.909 16L182.909 16C182.909 13.7909 181.118 12 178.909 12L165.909 12C163.7 12 161.909 13.7909 161.909 16L157.909 16ZM184.909 29.4754L159.909 29.4754L184.909 29.4754ZM157.909 29.4754L157.909 16C157.909 11.5817 161.491 8 165.909 8L165.909 12C163.7 12 161.909 13.7909 161.909 16L161.909 29.4754L157.909 29.4754ZM178.909 8C183.327 8 186.909 11.5817 186.909 16L186.909 29.4754L182.909 29.4754L182.909 16C182.909 13.7909 181.118 12 178.909 12L178.909 8Z" fill="#DADEE7" mask="url(#path-66-inside-14_202_28)"/>
<rect x="353.687" y="12.7049" width="19.4444" height="30.2951" rx="4" fill="#DADEE7"/>
<mask id="path-69-inside-15_202_28" fill="white">
<path d="M350.909 16C350.909 12.6863 353.595 10 356.909 10L369.909 10C373.223 10 375.909 12.6863 375.909 16L375.909 29.4754L350.909 29.4754L350.909 16Z"/>
</mask>
<path d="M348.909 16C348.909 11.5817 352.491 8 356.909 8L369.909 8C374.327 8 377.909 11.5817 377.909 16L373.909 16C373.909 13.7909 372.118 12 369.909 12L356.909 12C354.7 12 352.909 13.7909 352.909 16L348.909 16ZM375.909 29.4754L350.909 29.4754L375.909 29.4754ZM348.909 29.4754L348.909 16C348.909 11.5817 352.491 8 356.909 8L356.909 12C354.7 12 352.909 13.7909 352.909 16L352.909 29.4754L348.909 29.4754ZM369.909 8C374.327 8 377.909 11.5817 377.909 16L377.909 29.4754L373.909 29.4754L373.909 16C373.909 13.7909 372.118 12 369.909 12L369.909 8Z" fill="#DADEE7" mask="url(#path-69-inside-15_202_28)"/>
<rect x="544.314" y="173.705" width="19.4444" height="30.2951" rx="4" fill="#DADEE7"/>
<mask id="path-72-inside-16_202_28" fill="white">
<path d="M541.537 177C541.537 173.686 544.223 171 547.537 171H560.537C563.85 171 566.537 173.686 566.537 177V190.475H541.537V177Z"/>
</mask>
<path d="M539.537 177C539.537 172.582 543.118 169 547.537 169H560.537C564.955 169 568.537 172.582 568.537 177H564.537C564.537 174.791 562.746 173 560.537 173H547.537C545.327 173 543.537 174.791 543.537 177H539.537ZM566.537 190.475H541.537H566.537ZM539.537 190.475V177C539.537 172.582 543.118 169 547.537 169V173C545.327 173 543.537 174.791 543.537 177V190.475H539.537ZM560.537 169C564.955 169 568.537 172.582 568.537 177V190.475H564.537V177C564.537 174.791 562.746 173 560.537 173V169Z" fill="#DADEE7" mask="url(#path-72-inside-16_202_28)"/>
<rect x="65.7734" y="12.7049" width="19.4444" height="30.2951" rx="4" fill="#DADEE7"/>
<mask id="path-75-inside-17_202_28" fill="white">
<path d="M62.9956 16C62.9956 12.6863 65.6819 10 68.9956 10L81.9956 10C85.3093 10 87.9956 12.6863 87.9956 16L87.9956 29.4754L62.9956 29.4754L62.9956 16Z"/>
</mask>
<path d="M60.9956 16C60.9956 11.5817 64.5773 8 68.9956 8L81.9956 8C86.4139 8 89.9956 11.5817 89.9956 16L85.9956 16C85.9956 13.7909 84.2047 12 81.9956 12L68.9956 12C66.7865 12 64.9956 13.7909 64.9956 16L60.9956 16ZM87.9956 29.4754L62.9956 29.4754L87.9956 29.4754ZM60.9956 29.4754L60.9956 16C60.9956 11.5817 64.5773 8 68.9956 8L68.9956 12C66.7865 12 64.9956 13.7909 64.9956 16L64.9956 29.4754L60.9956 29.4754ZM81.9956 8C86.4139 8 89.9956 11.5817 89.9956 16L89.9956 29.4754L85.9956 29.4754L85.9956 16C85.9956 13.7909 84.2047 12 81.9956 12L81.9956 8Z" fill="#DADEE7" mask="url(#path-75-inside-17_202_28)"/>
<rect x="256.773" y="12.7049" width="19.4444" height="30.2951" rx="4" fill="#DADEE7"/>
<mask id="path-78-inside-18_202_28" fill="white">
<path d="M253.996 16C253.996 12.6863 256.682 10 259.996 10L272.996 10C276.309 10 278.996 12.6863 278.996 16L278.996 29.4754L253.996 29.4754L253.996 16Z"/>
</mask>
<path d="M251.996 16C251.996 11.5817 255.577 8 259.996 8L272.996 8C277.414 8 280.996 11.5817 280.996 16L276.996 16C276.996 13.7909 275.205 12 272.996 12L259.996 12C257.786 12 255.996 13.7909 255.996 16L251.996 16ZM278.996 29.4754L253.996 29.4754L278.996 29.4754ZM251.996 29.4754L251.996 16C251.996 11.5817 255.577 8 259.996 8L259.996 12C257.786 12 255.996 13.7909 255.996 16L255.996 29.4754L251.996 29.4754ZM272.996 8C277.414 8 280.996 11.5817 280.996 16L280.996 29.4754L276.996 29.4754L276.996 16C276.996 13.7909 275.205 12 272.996 12L272.996 8Z" fill="#DADEE7" mask="url(#path-78-inside-18_202_28)"/>
<rect x="478.869" y="173.705" width="19.4444" height="30.2951" rx="4" fill="#DADEE7"/>
<mask id="path-81-inside-19_202_28" fill="white">
<path d="M476.091 177C476.091 173.686 478.777 171 482.091 171H495.091C498.405 171 501.091 173.686 501.091 177V190.475H476.091V177Z"/>
</mask>
<path d="M474.091 177C474.091 172.582 477.673 169 482.091 169H495.091C499.509 169 503.091 172.582 503.091 177H499.091C499.091 174.791 497.3 173 495.091 173H482.091C479.882 173 478.091 174.791 478.091 177H474.091ZM501.091 190.475H476.091H501.091ZM474.091 190.475V177C474.091 172.582 477.673 169 482.091 169V173C479.882 173 478.091 174.791 478.091 177V190.475H474.091ZM495.091 169C499.509 169 503.091 172.582 503.091 177V190.475H499.091V177C499.091 174.791 497.3 173 495.091 173V169Z" fill="#DADEE7" mask="url(#path-81-inside-19_202_28)"/>
<rect x="194.155" y="12.7049" width="19.4444" height="30.2951" rx="4" fill="#DADEE7"/>
<mask id="path-84-inside-20_202_28" fill="white">
<path d="M191.377 16C191.377 12.6863 194.063 10 197.377 10L210.377 10C213.691 10 216.377 12.6863 216.377 16L216.377 29.4754L191.377 29.4754L191.377 16Z"/>
</mask>
<path d="M189.377 16C189.377 11.5817 192.959 8 197.377 8L210.377 8C214.795 8 218.377 11.5817 218.377 16L214.377 16C214.377 13.7909 212.586 12 210.377 12L197.377 12C195.168 12 193.377 13.7909 193.377 16L189.377 16ZM216.377 29.4754L191.377 29.4754L216.377 29.4754ZM189.377 29.4754L189.377 16C189.377 11.5817 192.959 8 197.377 8L197.377 12C195.168 12 193.377 13.7909 193.377 16L193.377 29.4754L189.377 29.4754ZM210.377 8C214.795 8 218.377 11.5817 218.377 16L218.377 29.4754L214.377 29.4754L214.377 16C214.377 13.7909 212.586 12 210.377 12L210.377 8Z" fill="#DADEE7" mask="url(#path-84-inside-20_202_28)"/>
<rect x="385.155" y="12.7049" width="19.4444" height="30.2951" rx="4" fill="#DADEE7"/>
<mask id="path-87-inside-21_202_28" fill="white">
<path d="M382.377 16C382.377 12.6863 385.063 10 388.377 10L401.377 10C404.691 10 407.377 12.6863 407.377 16L407.377 29.4754L382.377 29.4754L382.377 16Z"/>
</mask>
<path d="M380.377 16C380.377 11.5817 383.959 8 388.377 8L401.377 8C405.795 8 409.377 11.5817 409.377 16L405.377 16C405.377 13.7909 403.586 12 401.377 12L388.377 12C386.168 12 384.377 13.7909 384.377 16L380.377 16ZM407.377 29.4754L382.377 29.4754L407.377 29.4754ZM380.377 29.4754L380.377 16C380.377 11.5817 383.959 8 388.377 8L388.377 12C386.168 12 384.377 13.7909 384.377 16L384.377 29.4754L380.377 29.4754ZM401.377 8C405.795 8 409.377 11.5817 409.377 16L409.377 29.4754L405.377 29.4754L405.377 16C405.377 13.7909 403.586 12 401.377 12L401.377 8Z" fill="#DADEE7" mask="url(#path-87-inside-21_202_28)"/>
<rect x="575.782" y="173.705" width="19.4444" height="30.295" rx="4" fill="#DADEE7"/>
<mask id="path-90-inside-22_202_28" fill="white">
<path d="M573.004 177C573.004 173.686 575.691 171 579.004 171H592.004C595.318 171 598.004 173.686 598.004 177V190.475H573.004V177Z"/>
</mask>
<path d="M571.004 177C571.004 172.582 574.586 169 579.004 169H592.004C596.423 169 600.004 172.582 600.004 177H596.004C596.004 174.791 594.214 173 592.004 173H579.004C576.795 173 575.004 174.791 575.004 177H571.004ZM598.004 190.475H573.004H598.004ZM571.004 190.475V177C571.004 172.582 574.586 169 579.004 169V173C576.795 173 575.004 174.791 575.004 177V190.475H571.004ZM592.004 169C596.423 169 600.004 172.582 600.004 177V190.475H596.004V177C596.004 174.791 594.214 173 592.004 173V169Z" fill="#DADEE7" mask="url(#path-90-inside-22_202_28)"/>
<rect x="97.2415" y="12.705" width="19.4444" height="30.295" rx="4" fill="#DADEE7"/>
<mask id="path-93-inside-23_202_28" fill="white">
<path d="M94.4636 16C94.4636 12.6863 97.1499 10 100.464 10L113.464 10C116.777 10 119.464 12.6863 119.464 16L119.464 29.4754L94.4636 29.4754L94.4636 16Z"/>
</mask>
<path d="M92.4636 16C92.4636 11.5817 96.0453 8 100.464 8L113.464 8C117.882 8 121.464 11.5817 121.464 16L117.464 16C117.464 13.7909 115.673 12 113.464 12L100.464 12C98.2545 12 96.4636 13.7909 96.4636 16L92.4636 16ZM119.464 29.4754L94.4636 29.4754L119.464 29.4754ZM92.4636 29.4754L92.4636 16C92.4636 11.5817 96.0453 8 100.464 8L100.464 12C98.2545 12 96.4636 13.7909 96.4636 16L96.4636 29.4754L92.4636 29.4754ZM113.464 8C117.882 8 121.464 11.5817 121.464 16L121.464 29.4754L117.464 29.4754L117.464 16C117.464 13.7909 115.673 12 113.464 12L113.464 8Z" fill="#DADEE7" mask="url(#path-93-inside-23_202_28)"/>
<rect x="288.241" y="12.705" width="19.4444" height="30.295" rx="4" fill="#DADEE7"/>
<mask id="path-96-inside-24_202_28" fill="white">
<path d="M285.464 16C285.464 12.6863 288.15 10 291.464 10L304.464 10C307.777 10 310.464 12.6863 310.464 16L310.464 29.4754L285.464 29.4754L285.464 16Z"/>
</mask>
<path d="M283.464 16C283.464 11.5817 287.045 8 291.464 8L304.464 8C308.882 8 312.464 11.5817 312.464 16L308.464 16C308.464 13.7909 306.673 12 304.464 12L291.464 12C289.254 12 287.464 13.7909 287.464 16L283.464 16ZM310.464 29.4754L285.464 29.4754L310.464 29.4754ZM283.464 29.4754L283.464 16C283.464 11.5817 287.045 8 291.464 8L291.464 12C289.254 12 287.464 13.7909 287.464 16L287.464 29.4754L283.464 29.4754ZM304.464 8C308.882 8 312.464 11.5817 312.464 16L312.464 29.4754L308.464 29.4754L308.464 16C308.464 13.7909 306.673 12 304.464 12L304.464 8Z" fill="#DADEE7" mask="url(#path-96-inside-24_202_28)"/>
<rect x="463" y="148" width="19" height="17" rx="4" fill="#DADEE7"/>
<path d="M474.45 160L473.59 157.79H470.76L469.91 160H469L471.79 152.83H472.6L475.38 160H474.45ZM472.52 154.83C472.5 154.777 472.467 154.68 472.42 154.54C472.373 154.4 472.327 154.257 472.28 154.11C472.24 153.957 472.207 153.84 472.18 153.76C472.147 153.893 472.11 154.03 472.07 154.17C472.037 154.303 472 154.427 471.96 154.54C471.927 154.653 471.897 154.75 471.87 154.83L471.06 156.99H473.32L472.52 154.83Z" fill="#2B3674"/>
<rect x="179" y="49" width="19" height="17" rx="4" fill="#DADEE7"/>
<path d="M190.45 61L189.59 58.79H186.76L185.91 61H185L187.79 53.83H188.6L191.38 61H190.45ZM188.52 55.83C188.5 55.7767 188.467 55.68 188.42 55.54C188.373 55.4 188.327 55.2567 188.28 55.11C188.24 54.9567 188.207 54.84 188.18 54.76C188.147 54.8933 188.11 55.03 188.07 55.17C188.037 55.3033 188 55.4267 187.96 55.54C187.927 55.6533 187.897 55.75 187.87 55.83L187.06 57.99H189.32L188.52 55.83Z" fill="#2B3674"/>
<rect x="370" y="49" width="19" height="17" rx="4" fill="#DADEE7"/>
<path d="M381.45 61L380.59 58.79H377.76L376.91 61H376L378.79 53.83H379.6L382.38 61H381.45ZM379.52 55.83C379.5 55.7767 379.467 55.68 379.42 55.54C379.373 55.4 379.327 55.2567 379.28 55.11C379.24 54.9567 379.207 54.84 379.18 54.76C379.147 54.8933 379.11 55.03 379.07 55.17C379.037 55.3033 379 55.4267 378.96 55.54C378.927 55.6533 378.897 55.75 378.87 55.83L378.06 57.99H380.32L379.52 55.83Z" fill="#2B3674"/>
<rect x="561" y="148" width="19" height="17" rx="4" fill="#DADEE7"/>
<path d="M567.97 160V152.86H572.21V153.65H568.87V155.88H569.93C570.643 155.88 571.197 155.97 571.59 156.15C571.983 156.323 572.257 156.563 572.41 156.87C572.563 157.17 572.64 157.517 572.64 157.91C572.64 158.343 572.553 158.717 572.38 159.03C572.213 159.343 571.94 159.583 571.56 159.75C571.18 159.917 570.68 160 570.06 160H567.97ZM569.97 159.23C570.61 159.23 571.06 159.123 571.32 158.91C571.58 158.69 571.71 158.357 571.71 157.91C571.71 157.603 571.647 157.36 571.52 157.18C571.4 156.993 571.2 156.86 570.92 156.78C570.647 156.7 570.28 156.66 569.82 156.66H568.87V159.23H569.97Z" fill="#2B3674"/>
<rect x="81" y="49" width="19" height="17" rx="4" fill="#DADEE7"/>
<path d="M87.97 61V53.86H92.21V54.65H88.87V56.88H89.93C90.6433 56.88 91.1967 56.97 91.59 57.15C91.9833 57.3233 92.2567 57.5633 92.41 57.87C92.5633 58.17 92.64 58.5167 92.64 58.91C92.64 59.3433 92.5533 59.7167 92.38 60.03C92.2133 60.3433 91.94 60.5833 91.56 60.75C91.18 60.9167 90.68 61 90.06 61H87.97ZM89.97 60.23C90.61 60.23 91.06 60.1233 91.32 59.91C91.58 59.69 91.71 59.3567 91.71 58.91C91.71 58.6033 91.6467 58.36 91.52 58.18C91.4 57.9933 91.2 57.86 90.92 57.78C90.6467 57.7 90.28 57.66 89.82 57.66H88.87V60.23H89.97Z" fill="#2B3674"/>
<rect x="272" y="49" width="19" height="17" rx="4" fill="#DADEE7"/>
<path d="M278.97 61V53.86H283.21V54.65H279.87V56.88H280.93C281.643 56.88 282.197 56.97 282.59 57.15C282.983 57.3233 283.257 57.5633 283.41 57.87C283.563 58.17 283.64 58.5167 283.64 58.91C283.64 59.3433 283.553 59.7167 283.38 60.03C283.213 60.3433 282.94 60.5833 282.56 60.75C282.18 60.9167 281.68 61 281.06 61H278.97ZM280.97 60.23C281.61 60.23 282.06 60.1233 282.32 59.91C282.58 59.69 282.71 59.3567 282.71 58.91C282.71 58.6033 282.647 58.36 282.52 58.18C282.4 57.9933 282.2 57.86 281.92 57.78C281.647 57.7 281.28 57.66 280.82 57.66H279.87V60.23H280.97Z" fill="#2B3674"/>
<rect x="495" y="127" width="49" height="25" rx="4" fill="#DADEE7"/>
<path d="M504.33 144V134.004H505.744L510.294 142.236H510.35C510.341 141.993 510.327 141.713 510.308 141.396C510.289 141.079 510.275 140.761 510.266 140.444C510.257 140.117 510.252 139.837 510.252 139.604V134.004H511.358V144H509.986L505.38 135.74H505.324C505.343 135.983 505.357 136.272 505.366 136.608C505.385 136.935 505.399 137.261 505.408 137.588C505.427 137.915 505.436 138.204 505.436 138.456V144H504.33ZM512.688 144V143.034H516.286V144H512.688ZM514.48 142.124C514.079 142.124 513.719 142.035 513.402 141.858C513.094 141.671 512.851 141.401 512.674 141.046C512.497 140.691 512.408 140.257 512.408 139.744C512.408 138.979 512.595 138.395 512.968 137.994C513.351 137.583 513.869 137.378 514.522 137.378C514.923 137.378 515.278 137.471 515.586 137.658C515.903 137.835 516.151 138.101 516.328 138.456C516.515 138.801 516.608 139.231 516.608 139.744C516.608 140.509 516.417 141.097 516.034 141.508C515.651 141.919 515.133 142.124 514.48 142.124ZM514.508 141.312C514.919 141.312 515.213 141.181 515.39 140.92C515.567 140.649 515.656 140.257 515.656 139.744C515.656 139.221 515.567 138.839 515.39 138.596C515.213 138.344 514.919 138.218 514.508 138.218C514.107 138.218 513.813 138.344 513.626 138.596C513.439 138.839 513.346 139.221 513.346 139.744C513.346 140.257 513.435 140.649 513.612 140.92C513.799 141.181 514.097 141.312 514.508 141.312ZM517.805 135.04V133.878H520.437V144H519.149V135.04H517.805ZM522.29 135.04V133.878H524.922V144H523.634V135.04H522.29ZM526.802 141.746V140.78L531.716 133.976H533.242V140.64H534.642V141.746H533.242V144H531.982V141.746H526.802ZM532.038 135.306L528.272 140.64H532.038V135.306Z" fill="#2B3674"/>
<rect x="113" y="62" width="49" height="25" rx="4" fill="#DADEE7"/>
<path d="M122.33 79V69.004H123.744L128.294 77.236H128.35C128.341 76.9933 128.327 76.7133 128.308 76.396C128.289 76.0787 128.275 75.7613 128.266 75.444C128.257 75.1173 128.252 74.8373 128.252 74.604V69.004H129.358V79H127.986L123.38 70.74H123.324C123.343 70.9827 123.357 71.272 123.366 71.608C123.385 71.9347 123.399 72.2613 123.408 72.588C123.427 72.9147 123.436 73.204 123.436 73.456V79H122.33ZM130.688 79V78.034H134.286V79H130.688ZM132.48 77.124C132.079 77.124 131.719 77.0353 131.402 76.858C131.094 76.6713 130.851 76.4007 130.674 76.046C130.497 75.6913 130.408 75.2573 130.408 74.744C130.408 73.9787 130.595 73.3953 130.968 72.994C131.351 72.5833 131.869 72.378 132.522 72.378C132.923 72.378 133.278 72.4713 133.586 72.658C133.903 72.8353 134.151 73.1013 134.328 73.456C134.515 73.8013 134.608 74.2307 134.608 74.744C134.608 75.5093 134.417 76.0973 134.034 76.508C133.651 76.9187 133.133 77.124 132.48 77.124ZM132.508 76.312C132.919 76.312 133.213 76.1813 133.39 75.92C133.567 75.6493 133.656 75.2573 133.656 74.744C133.656 74.2213 133.567 73.8387 133.39 73.596C133.213 73.344 132.919 73.218 132.508 73.218C132.107 73.218 131.813 73.344 131.626 73.596C131.439 73.8387 131.346 74.2213 131.346 74.744C131.346 75.2573 131.435 75.6493 131.612 75.92C131.799 76.1813 132.097 76.312 132.508 76.312ZM135.805 70.04V68.878H138.437V79H137.149V70.04H135.805ZM140.29 70.04V68.878H142.922V79H141.634V70.04H140.29ZM145.11 73.834C145.11 72.2287 145.372 70.978 145.894 70.082C146.417 69.1767 147.332 68.724 148.638 68.724C149.936 68.724 150.846 69.1767 151.368 70.082C151.891 70.978 152.152 72.2287 152.152 73.834C152.152 75.4673 151.891 76.7367 151.368 77.642C150.846 78.5473 149.936 79 148.638 79C147.332 79 146.417 78.5473 145.894 77.642C145.372 76.7367 145.11 75.4673 145.11 73.834ZM150.892 73.834C150.892 73.022 150.836 72.336 150.724 71.776C150.622 71.2067 150.402 70.7493 150.066 70.404C149.74 70.0587 149.264 69.886 148.638 69.886C148.004 69.886 147.518 70.0587 147.182 70.404C146.856 70.7493 146.636 71.2067 146.524 71.776C146.422 72.336 146.37 73.022 146.37 73.834C146.37 74.674 146.422 75.3787 146.524 75.948C146.636 76.5173 146.856 76.9747 147.182 77.32C147.518 77.6653 148.004 77.838 148.638 77.838C149.264 77.838 149.74 77.6653 150.066 77.32C150.402 76.9747 150.622 76.5173 150.724 75.948C150.836 75.3787 150.892 74.674 150.892 73.834Z" fill="#2B3674"/>
<rect x="304" y="62" width="48" height="25" rx="4" fill="#DADEE7"/>
<path d="M313.33 79V69.004H314.744L319.294 77.236H319.35C319.341 76.9933 319.327 76.7133 319.308 76.396C319.289 76.0787 319.275 75.7613 319.266 75.444C319.257 75.1173 319.252 74.8373 319.252 74.604V69.004H320.358V79H318.986L314.38 70.74H314.324C314.343 70.9827 314.357 71.272 314.366 71.608C314.385 71.9347 314.399 72.2613 314.408 72.588C314.427 72.9147 314.436 73.204 314.436 73.456V79H313.33ZM321.688 79V78.034H325.286V79H321.688ZM323.48 77.124C323.079 77.124 322.719 77.0353 322.402 76.858C322.094 76.6713 321.851 76.4007 321.674 76.046C321.497 75.6913 321.408 75.2573 321.408 74.744C321.408 73.9787 321.595 73.3953 321.968 72.994C322.351 72.5833 322.869 72.378 323.522 72.378C323.923 72.378 324.278 72.4713 324.586 72.658C324.903 72.8353 325.151 73.1013 325.328 73.456C325.515 73.8013 325.608 74.2307 325.608 74.744C325.608 75.5093 325.417 76.0973 325.034 76.508C324.651 76.9187 324.133 77.124 323.48 77.124ZM323.508 76.312C323.919 76.312 324.213 76.1813 324.39 75.92C324.567 75.6493 324.656 75.2573 324.656 74.744C324.656 74.2213 324.567 73.8387 324.39 73.596C324.213 73.344 323.919 73.218 323.508 73.218C323.107 73.218 322.813 73.344 322.626 73.596C322.439 73.8387 322.346 74.2213 322.346 74.744C322.346 75.2573 322.435 75.6493 322.612 75.92C322.799 76.1813 323.097 76.312 323.508 76.312ZM326.805 70.04V68.878H329.437V79H328.149V70.04H326.805ZM331.29 70.04V68.878H333.922V79H332.634V70.04H331.29ZM335.956 77.978C337.142 77.026 338.07 76.2467 338.742 75.64C339.414 75.024 339.979 74.3847 340.436 73.722C340.903 73.05 341.136 72.392 341.136 71.748C341.136 71.1413 340.987 70.6653 340.688 70.32C340.399 69.9653 339.928 69.788 339.274 69.788C338.64 69.788 338.145 69.9887 337.79 70.39C337.445 70.782 337.258 71.3093 337.23 71.972H335.998C336.036 70.9267 336.353 70.1193 336.95 69.55C337.548 68.9807 338.318 68.696 339.26 68.696C340.222 68.696 340.982 68.962 341.542 69.494C342.112 70.026 342.396 70.7587 342.396 71.692C342.396 72.4667 342.163 73.2227 341.696 73.96C341.239 74.688 340.716 75.332 340.128 75.892C339.54 76.4427 338.789 77.0867 337.874 77.824H342.69V78.888H335.956V77.978Z" fill="#2B3674"/>
<path fill-rule="evenodd" clip-rule="evenodd" d="M617 147L617 214L615.5 214L615.5 147C615.5 145.067 613.933 143.5 612 143.5L556 143.5L556 142L612 142C614.761 142 617 144.239 617 147ZM485 142L430 142C427.239 142 425 144.239 425 147L425 214L426.5 214L426.5 147C426.5 145.067 428.067 143.5 430 143.5L485 143.5L485 142Z" fill="#B0BBD5"/>
<path fill-rule="evenodd" clip-rule="evenodd" d="M44 67L44 0L45.5 2.62268e-07L45.5 67C45.5 68.933 47.067 70.5 49 70.5L105 70.5L105 72L49 72C46.2386 72 44 69.7614 44 67ZM176 72L231 72C233.761 72 236 69.7615 236 67L236 3.35703e-05L234.5 3.33081e-05L234.5 67C234.5 68.933 232.933 70.5 231 70.5L176 70.5L176 72Z" fill="#B0BBD5"/>
<path fill-rule="evenodd" clip-rule="evenodd" d="M235 67L235 0L236.5 2.62268e-07L236.5 67C236.5 68.933 238.067 70.5 240 70.5L296 70.5L296 72L240 72C237.239 72 235 69.7614 235 67ZM367 72L422 72C424.761 72 427 69.7615 427 67L427 3.35703e-05L425.5 3.33081e-05L425.5 67C425.5 68.933 423.933 70.5 422 70.5L367 70.5L367 72Z" fill="#B0BBD5"/>
<rect x="520" y="171" width="2" height="43" rx="1" fill="#B0BBD5"/>
<rect x="141" y="43" width="2" height="43" rx="1" transform="rotate(-180 141 43)" fill="#B0BBD5"/>
<rect x="256.401" y="173.705" width="19.4444" height="30.2951" rx="4" fill="#DADEE7"/>
<mask id="path-122-inside-25_202_28" fill="white">
<path d="M253.623 177C253.623 173.686 256.309 171 259.623 171H272.623C275.937 171 278.623 173.686 278.623 177V190.475H253.623V177Z"/>
</mask>
<path d="M251.623 177C251.623 172.582 255.205 169 259.623 169H272.623C277.041 169 280.623 172.582 280.623 177H276.623C276.623 174.791 274.832 173 272.623 173H259.623C257.414 173 255.623 174.791 255.623 177H251.623ZM278.623 190.475H253.623H278.623ZM251.623 190.475V177C251.623 172.582 255.205 169 259.623 169V173C257.414 173 255.623 174.791 255.623 177V190.475H251.623ZM272.623 169C277.041 169 280.623 172.582 280.623 177V190.475H276.623V177C276.623 174.791 274.832 173 272.623 173V169Z" fill="#DADEE7" mask="url(#path-122-inside-25_202_28)"/>
<rect x="353.314" y="173.705" width="19.4444" height="30.2951" rx="4" fill="#DADEE7"/>
<mask id="path-125-inside-26_202_28" fill="white">
<path d="M350.537 177C350.537 173.686 353.223 171 356.537 171H369.537C372.85 171 375.537 173.686 375.537 177V190.475H350.537V177Z"/>
</mask>
<path d="M348.537 177C348.537 172.582 352.118 169 356.537 169H369.537C373.955 169 377.537 172.582 377.537 177H373.537C373.537 174.791 371.746 173 369.537 173H356.537C354.327 173 352.537 174.791 352.537 177H348.537ZM375.537 190.475H350.537H375.537ZM348.537 190.475V177C348.537 172.582 352.118 169 356.537 169V173C354.327 173 352.537 174.791 352.537 177V190.475H348.537ZM369.537 169C373.955 169 377.537 172.582 377.537 177V190.475H373.537V177C373.537 174.791 371.746 173 369.537 173V169Z" fill="#DADEE7" mask="url(#path-125-inside-26_202_28)"/>
<rect x="287.869" y="173.705" width="19.4444" height="30.2951" rx="4" fill="#DADEE7"/>
<mask id="path-128-inside-27_202_28" fill="white">
<path d="M285.091 177C285.091 173.686 287.777 171 291.091 171H304.091C307.405 171 310.091 173.686 310.091 177V190.475H285.091V177Z"/>
</mask>
<path d="M283.091 177C283.091 172.582 286.673 169 291.091 169H304.091C308.509 169 312.091 172.582 312.091 177H308.091C308.091 174.791 306.3 173 304.091 173H291.091C288.882 173 287.091 174.791 287.091 177H283.091ZM310.091 190.475H285.091H310.091ZM283.091 190.475V177C283.091 172.582 286.673 169 291.091 169V173C288.882 173 287.091 174.791 287.091 177V190.475H283.091ZM304.091 169C308.509 169 312.091 172.582 312.091 177V190.475H308.091V177C308.091 174.791 306.3 173 304.091 173V169Z" fill="#DADEE7" mask="url(#path-128-inside-27_202_28)"/>
<rect x="384.782" y="173.705" width="19.4444" height="30.295" rx="4" fill="#DADEE7"/>
<mask id="path-131-inside-28_202_28" fill="white">
<path d="M382.004 177C382.004 173.686 384.691 171 388.004 171H401.004C404.318 171 407.004 173.686 407.004 177V190.475H382.004V177Z"/>
</mask>
<path d="M380.004 177C380.004 172.582 383.586 169 388.004 169H401.004C405.423 169 409.004 172.582 409.004 177H405.004C405.004 174.791 403.214 173 401.004 173H388.004C385.795 173 384.004 174.791 384.004 177H380.004ZM407.004 190.475H382.004H407.004ZM380.004 190.475V177C380.004 172.582 383.586 169 388.004 169V173C385.795 173 384.004 174.791 384.004 177V190.475H380.004ZM401.004 169C405.423 169 409.004 172.582 409.004 177V190.475H405.004V177C405.004 174.791 403.214 173 401.004 173V169Z" fill="#DADEE7" mask="url(#path-131-inside-28_202_28)"/>
<rect x="272" y="148" width="19" height="17" rx="4" fill="#DADEE7"/>
<path d="M283.45 160L282.59 157.79H279.76L278.91 160H278L280.79 152.83H281.6L284.38 160H283.45ZM281.52 154.83C281.5 154.777 281.467 154.68 281.42 154.54C281.373 154.4 281.327 154.257 281.28 154.11C281.24 153.957 281.207 153.84 281.18 153.76C281.147 153.893 281.11 154.03 281.07 154.17C281.037 154.303 281 154.427 280.96 154.54C280.927 154.653 280.897 154.75 280.87 154.83L280.06 156.99H282.32L281.52 154.83Z" fill="#2B3674"/>
<rect x="370" y="148" width="19" height="17" rx="4" fill="#DADEE7"/>
<path d="M376.97 160V152.86H381.21V153.65H377.87V155.88H378.93C379.643 155.88 380.197 155.97 380.59 156.15C380.983 156.323 381.257 156.563 381.41 156.87C381.563 157.17 381.64 157.517 381.64 157.91C381.64 158.343 381.553 158.717 381.38 159.03C381.213 159.343 380.94 159.583 380.56 159.75C380.18 159.917 379.68 160 379.06 160H376.97ZM378.97 159.23C379.61 159.23 380.06 159.123 380.32 158.91C380.58 158.69 380.71 158.357 380.71 157.91C380.71 157.603 380.647 157.36 380.52 157.18C380.4 156.993 380.2 156.86 379.92 156.78C379.647 156.7 379.28 156.66 378.82 156.66H377.87V159.23H378.97Z" fill="#2B3674"/>
<rect x="304" y="127" width="48" height="25" rx="4" fill="#DADEE7"/>
<path d="M313.33 144V134.004H314.744L319.294 142.236H319.35C319.341 141.993 319.327 141.713 319.308 141.396C319.289 141.079 319.275 140.761 319.266 140.444C319.257 140.117 319.252 139.837 319.252 139.604V134.004H320.358V144H318.986L314.38 135.74H314.324C314.343 135.983 314.357 136.272 314.366 136.608C314.385 136.935 314.399 137.261 314.408 137.588C314.427 137.915 314.436 138.204 314.436 138.456V144H313.33ZM321.688 144V143.034H325.286V144H321.688ZM323.48 142.124C323.079 142.124 322.719 142.035 322.402 141.858C322.094 141.671 321.851 141.401 321.674 141.046C321.497 140.691 321.408 140.257 321.408 139.744C321.408 138.979 321.595 138.395 321.968 137.994C322.351 137.583 322.869 137.378 323.522 137.378C323.923 137.378 324.278 137.471 324.586 137.658C324.903 137.835 325.151 138.101 325.328 138.456C325.515 138.801 325.608 139.231 325.608 139.744C325.608 140.509 325.417 141.097 325.034 141.508C324.651 141.919 324.133 142.124 323.48 142.124ZM323.508 141.312C323.919 141.312 324.213 141.181 324.39 140.92C324.567 140.649 324.656 140.257 324.656 139.744C324.656 139.221 324.567 138.839 324.39 138.596C324.213 138.344 323.919 138.218 323.508 138.218C323.107 138.218 322.813 138.344 322.626 138.596C322.439 138.839 322.346 139.221 322.346 139.744C322.346 140.257 322.435 140.649 322.612 140.92C322.799 141.181 323.097 141.312 323.508 141.312ZM326.805 135.04V133.878H329.437V144H328.149V135.04H326.805ZM331.29 135.04V133.878H333.922V144H332.634V135.04H331.29ZM336.082 136.426C336.148 135.567 336.479 134.895 337.076 134.41C337.674 133.925 338.448 133.682 339.4 133.682C340.035 133.682 340.581 133.799 341.038 134.032C341.505 134.256 341.855 134.564 342.088 134.956C342.331 135.348 342.452 135.791 342.452 136.286C342.452 136.865 342.284 137.364 341.948 137.784C341.622 138.204 341.192 138.475 340.66 138.596V138.666C341.267 138.815 341.748 139.109 342.102 139.548C342.457 139.987 342.634 140.561 342.634 141.27C342.634 141.802 342.513 142.283 342.27 142.712C342.028 143.132 341.664 143.463 341.178 143.706C340.693 143.949 340.11 144.07 339.428 144.07C338.439 144.07 337.627 143.813 336.992 143.3C336.358 142.777 336.003 142.04 335.928 141.088H337.16C337.226 141.648 337.454 142.105 337.846 142.46C338.238 142.815 338.761 142.992 339.414 142.992C340.068 142.992 340.562 142.824 340.898 142.488C341.244 142.143 341.416 141.699 341.416 141.158C341.416 140.458 341.183 139.954 340.716 139.646C340.25 139.338 339.545 139.184 338.602 139.184H338.28V138.12H338.616C339.475 138.111 340.124 137.971 340.562 137.7C341.001 137.42 341.22 136.991 341.22 136.412C341.22 135.917 341.057 135.521 340.73 135.222C340.413 134.923 339.956 134.774 339.358 134.774C338.78 134.774 338.313 134.923 337.958 135.222C337.604 135.521 337.394 135.922 337.328 136.426H336.082Z" fill="#2B3674"/>
<path fill-rule="evenodd" clip-rule="evenodd" d="M426 147L426 214L424.5 214L424.5 147C424.5 145.067 422.933 143.5 421 143.5L365 143.5L365 142L421 142C423.761 142 426 144.239 426 147ZM294 142L239 142C236.239 142 234 144.239 234 147L234 214L235.5 214L235.5 147C235.5 145.067 237.067 143.5 239 143.5L294 143.5L294 142Z" fill="#B0BBD5"/>
<rect x="329" y="171" width="2" height="43" rx="1" fill="#B0BBD5"/>
<rect x="65.4009" y="173.705" width="19.4444" height="30.2951" rx="4" fill="#DADEE7"/>
<mask id="path-142-inside-29_202_28" fill="white">
<path d="M62.623 177C62.623 173.686 65.3093 171 68.623 171H81.623C84.9368 171 87.623 173.686 87.623 177V190.475H62.623V177Z"/>
</mask>
<path d="M60.623 177C60.623 172.582 64.2048 169 68.623 169H81.623C86.0413 169 89.623 172.582 89.623 177H85.623C85.623 174.791 83.8322 173 81.623 173H68.623C66.4139 173 64.623 174.791 64.623 177H60.623ZM87.623 190.475H62.623H87.623ZM60.623 190.475V177C60.623 172.582 64.2048 169 68.623 169V173C66.4139 173 64.623 174.791 64.623 177V190.475H60.623ZM81.623 169C86.0413 169 89.623 172.582 89.623 177V190.475H85.623V177C85.623 174.791 83.8322 173 81.623 173V169Z" fill="#DADEE7" mask="url(#path-142-inside-29_202_28)"/>
<rect x="162.314" y="173.705" width="19.4444" height="30.2951" rx="4" fill="#DADEE7"/>
<mask id="path-145-inside-30_202_28" fill="white">
<path d="M159.537 177C159.537 173.686 162.223 171 165.537 171H178.537C181.85 171 184.537 173.686 184.537 177V190.475H159.537V177Z"/>
</mask>
<path d="M157.537 177C157.537 172.582 161.118 169 165.537 169H178.537C182.955 169 186.537 172.582 186.537 177H182.537C182.537 174.791 180.746 173 178.537 173H165.537C163.327 173 161.537 174.791 161.537 177H157.537ZM184.537 190.475H159.537H184.537ZM157.537 190.475V177C157.537 172.582 161.118 169 165.537 169V173C163.327 173 161.537 174.791 161.537 177V190.475H157.537ZM178.537 169C182.955 169 186.537 172.582 186.537 177V190.475H182.537V177C182.537 174.791 180.746 173 178.537 173V169Z" fill="#DADEE7" mask="url(#path-145-inside-30_202_28)"/>
<rect x="96.8687" y="173.705" width="19.4444" height="30.2951" rx="4" fill="#DADEE7"/>
<mask id="path-148-inside-31_202_28" fill="white">
<path d="M94.0908 177C94.0908 173.686 96.7771 171 100.091 171H113.091C116.405 171 119.091 173.686 119.091 177V190.475H94.0908V177Z"/>
</mask>
<path d="M92.0908 177C92.0908 172.582 95.6725 169 100.091 169H113.091C117.509 169 121.091 172.582 121.091 177H117.091C117.091 174.791 115.3 173 113.091 173H100.091C97.8817 173 96.0908 174.791 96.0908 177H92.0908ZM119.091 190.475H94.0908H119.091ZM92.0908 190.475V177C92.0908 172.582 95.6725 169 100.091 169V173C97.8817 173 96.0908 174.791 96.0908 177V190.475H92.0908ZM113.091 169C117.509 169 121.091 172.582 121.091 177V190.475H117.091V177C117.091 174.791 115.3 173 113.091 173V169Z" fill="#DADEE7" mask="url(#path-148-inside-31_202_28)"/>
<rect x="193.782" y="173.705" width="19.4444" height="30.295" rx="4" fill="#DADEE7"/>
<mask id="path-151-inside-32_202_28" fill="white">
<path d="M191.004 177C191.004 173.686 193.691 171 197.004 171H210.004C213.318 171 216.004 173.686 216.004 177V190.475H191.004V177Z"/>
</mask>
<path d="M189.004 177C189.004 172.582 192.586 169 197.004 169H210.004C214.423 169 218.004 172.582 218.004 177H214.004C214.004 174.791 212.214 173 210.004 173H197.004C194.795 173 193.004 174.791 193.004 177H189.004ZM216.004 190.475H191.004H216.004ZM189.004 190.475V177C189.004 172.582 192.586 169 197.004 169V173C194.795 173 193.004 174.791 193.004 177V190.475H189.004ZM210.004 169C214.423 169 218.004 172.582 218.004 177V190.475H214.004V177C214.004 174.791 212.214 173 210.004 173V169Z" fill="#DADEE7" mask="url(#path-151-inside-32_202_28)"/>
<rect x="81" y="148" width="19" height="17" rx="4" fill="#DADEE7"/>
<path d="M92.45 160L91.59 157.79H88.76L87.91 160H87L89.79 152.83H90.6L93.38 160H92.45ZM90.52 154.83C90.5 154.777 90.4667 154.68 90.42 154.54C90.3733 154.4 90.3267 154.257 90.28 154.11C90.24 153.957 90.2067 153.84 90.18 153.76C90.1467 153.893 90.11 154.03 90.07 154.17C90.0367 154.303 90 154.427 89.96 154.54C89.9267 154.653 89.8967 154.75 89.87 154.83L89.06 156.99H91.32L90.52 154.83Z" fill="#2B3674"/>
<rect x="179" y="148" width="19" height="17" rx="4" fill="#DADEE7"/>
<path d="M185.97 160V152.86H190.21V153.65H186.87V155.88H187.93C188.643 155.88 189.197 155.97 189.59 156.15C189.983 156.323 190.257 156.563 190.41 156.87C190.563 157.17 190.64 157.517 190.64 157.91C190.64 158.343 190.553 158.717 190.38 159.03C190.213 159.343 189.94 159.583 189.56 159.75C189.18 159.917 188.68 160 188.06 160H185.97ZM187.97 159.23C188.61 159.23 189.06 159.123 189.32 158.91C189.58 158.69 189.71 158.357 189.71 157.91C189.71 157.603 189.647 157.36 189.52 157.18C189.4 156.993 189.2 156.86 188.92 156.78C188.647 156.7 188.28 156.66 187.82 156.66H186.87V159.23H187.97Z" fill="#2B3674"/>
<rect x="113" y="127" width="44" height="25" rx="4" fill="#DADEE7"/>
<path d="M122.33 144V134.004H123.744L128.294 142.236H128.35C128.341 141.993 128.327 141.713 128.308 141.396C128.289 141.079 128.275 140.761 128.266 140.444C128.257 140.117 128.252 139.837 128.252 139.604V134.004H129.358V144H127.986L123.38 135.74H123.324C123.343 135.983 123.357 136.272 123.366 136.608C123.385 136.935 123.399 137.261 123.408 137.588C123.427 137.915 123.436 138.204 123.436 138.456V144H122.33ZM130.688 144V143.034H134.286V144H130.688ZM132.48 142.124C132.079 142.124 131.719 142.035 131.402 141.858C131.094 141.671 130.851 141.401 130.674 141.046C130.497 140.691 130.408 140.257 130.408 139.744C130.408 138.979 130.595 138.395 130.968 137.994C131.351 137.583 131.869 137.378 132.522 137.378C132.923 137.378 133.278 137.471 133.586 137.658C133.903 137.835 134.151 138.101 134.328 138.456C134.515 138.801 134.608 139.231 134.608 139.744C134.608 140.509 134.417 141.097 134.034 141.508C133.651 141.919 133.133 142.124 132.48 142.124ZM132.508 141.312C132.919 141.312 133.213 141.181 133.39 140.92C133.567 140.649 133.656 140.257 133.656 139.744C133.656 139.221 133.567 138.839 133.39 138.596C133.213 138.344 132.919 138.218 132.508 138.218C132.107 138.218 131.813 138.344 131.626 138.596C131.439 138.839 131.346 139.221 131.346 139.744C131.346 140.257 131.435 140.649 131.612 140.92C131.799 141.181 132.097 141.312 132.508 141.312ZM135.805 135.04V133.878H138.437V144H137.149V135.04H135.805ZM140.29 135.04V133.878H142.922V144H141.634V135.04H140.29ZM144.774 135.04V133.878H147.406V144H146.118V135.04H144.774Z" fill="#2B3674"/>
<path fill-rule="evenodd" clip-rule="evenodd" d="M235 147L235 214L233.5 214L233.5 147C233.5 145.067 231.933 143.5 230 143.5L174 143.5L174 142L230 142C232.761 142 235 144.239 235 147ZM103 142L48 142C45.2386 142 43 144.239 43 147L43 214L44.5 214L44.5 147C44.5 145.067 46.067 143.5 48 143.5L103 143.5L103 142Z" fill="#B0BBD5"/>
<rect x="138" y="171" width="2" height="43" rx="1" fill="#B0BBD5"/>
<defs>
<clipPath id="clip0_202_28">
<rect width="24" height="24" fill="white" transform="translate(774 25.0024)"/>
</clipPath>
<clipPath id="clip1_202_28">
<rect width="24" height="24" fill="white" transform="translate(1116 25)"/>
</clipPath>
</defs>
</svg>
