<svg width="26" height="33" viewBox="0 0 26 33" fill="none" xmlns="http://www.w3.org/2000/svg">
<rect x="2.87158" y="2.70483" width="19.4444" height="30.2951" rx="4" fill="#4318FF"/>
<mask id="path-2-inside-1_0_800" fill="white">
<path d="M0.09381 5.99994C0.0938106 2.68623 2.7801 -6.05655e-05 6.09381 -5.99861e-05L19.0938 -5.77131e-05C22.4075 -5.71337e-05 25.0938 2.68624 25.0938 5.99994L25.0938 19.4754L0.0938076 19.4753L0.09381 5.99994Z"/>
</mask>
<path d="M-1.90619 5.99994C-1.90619 1.58166 1.67553 -2.00006 6.09381 -2.00006L19.0938 -2.00006C23.5121 -2.00006 27.0938 1.58167 27.0938 5.99994L23.0938 5.99994C23.0938 3.7908 21.3029 1.99994 19.0938 1.99994L6.09381 1.99994C3.88467 1.99994 2.09381 3.7908 2.09381 5.99994L-1.90619 5.99994ZM25.0938 19.4754L0.0938076 19.4753L25.0938 19.4754ZM-1.90619 19.4753L-1.90619 5.99994C-1.90619 1.58166 1.67553 -2.00006 6.09381 -2.00006L6.09381 1.99994C3.88467 1.99994 2.09381 3.7908 2.09381 5.99994L2.09381 19.4753L-1.90619 19.4753ZM19.0938 -2.00006C23.5121 -2.00006 27.0938 1.58167 27.0938 5.99994L27.0938 19.4754L23.0938 19.4754L23.0938 5.99994C23.0938 3.7908 21.3029 1.99994 19.0938 1.99994L19.0938 -2.00006Z" fill="#4318FF" mask="url(#path-2-inside-1_0_800)"/>
</svg>
