<svg width="25" height="33" viewBox="0 0 25 33" fill="none" xmlns="http://www.w3.org/2000/svg">
<rect x="3.27808" y="3.20685" width="18.4444" height="29.2951" rx="3.5" fill="#DADEE7" stroke="#DADEE7"/>
<mask id="path-2-inside-1_0_986" fill="white">
<path d="M0.000244141 6.00196C0.000244141 2.68825 2.68654 0.00195312 6.00024 0.00195312H19.0002C22.314 0.00195312 25.0002 2.68825 25.0002 6.00195V19.4774H0.000244141V6.00196Z"/>
</mask>
<path d="M-1.99976 6.00195C-1.99976 1.58368 1.58197 -1.99805 6.00024 -1.99805H19.0002C23.4185 -1.99805 27.0002 1.58368 27.0002 6.00195H23.0002C23.0002 3.79281 21.2094 2.00195 19.0002 2.00195H6.00024C3.79111 2.00195 2.00024 3.79281 2.00024 6.00195H-1.99976ZM25.0002 19.4774H0.000244141H25.0002ZM-1.99976 19.4774V6.00195C-1.99976 1.58368 1.58197 -1.99805 6.00024 -1.99805V2.00195C3.79111 2.00195 2.00024 3.79281 2.00024 6.00195V19.4774H-1.99976ZM19.0002 -1.99805C23.4185 -1.99805 27.0002 1.58368 27.0002 6.00195V19.4774H23.0002V6.00195C23.0002 3.79281 21.2094 2.00195 19.0002 2.00195V-1.99805Z" fill="#DADEE7" mask="url(#path-2-inside-1_0_986)"/>
</svg>
