<svg width="1250" height="218" viewBox="0 0 1250 218" fill="none" xmlns="http://www.w3.org/2000/svg">
<rect y="1.99902" width="1250" height="215" rx="20" fill="white"/>
<rect x="807.567" y="176.705" width="19.4444" height="30.2951" rx="4" fill="#DADEE7"/>
<mask id="path-3-inside-1_202_29" fill="white">
<path d="M804.789 180C804.789 176.686 807.475 174 810.789 174H823.789C827.103 174 829.789 176.686 829.789 180V193.475H804.789V180Z"/>
</mask>
<path d="M802.789 180C802.789 175.582 806.371 172 810.789 172H823.789C828.207 172 831.789 175.582 831.789 180H827.789C827.789 177.791 825.998 176 823.789 176H810.789C808.58 176 806.789 177.791 806.789 180H802.789ZM829.789 193.475H804.789H829.789ZM802.789 193.475V180C802.789 175.582 806.371 172 810.789 172V176C808.58 176 806.789 177.791 806.789 180V193.475H802.789ZM823.789 172C828.207 172 831.789 175.582 831.789 180V193.475H827.789V180C827.789 177.791 825.998 176 823.789 176V172Z" fill="#DADEE7" mask="url(#path-3-inside-1_202_29)"/>
<rect x="903.48" y="176.705" width="19.4444" height="30.2951" rx="4" fill="#DADEE7"/>
<mask id="path-6-inside-2_202_29" fill="white">
<path d="M900.703 180C900.703 176.686 903.389 174 906.703 174H919.703C923.016 174 925.703 176.686 925.703 180V193.475H900.703V180Z"/>
</mask>
<path d="M898.703 180C898.703 175.582 902.284 172 906.703 172H919.703C924.121 172 927.703 175.582 927.703 180H923.703C923.703 177.791 921.912 176 919.703 176H906.703C904.493 176 902.703 177.791 902.703 180H898.703ZM925.703 193.475H900.703H925.703ZM898.703 193.475V180C898.703 175.582 902.284 172 906.703 172V176C904.493 176 902.703 177.791 902.703 180V193.475H898.703ZM919.703 172C924.121 172 927.703 175.582 927.703 180V193.475H923.703V180C923.703 177.791 921.912 176 919.703 176V172Z" fill="#DADEE7" mask="url(#path-6-inside-2_202_29)"/>
<rect x="839.035" y="176.705" width="19.4444" height="30.2951" rx="4" fill="#DADEE7"/>
<mask id="path-9-inside-3_202_29" fill="white">
<path d="M836.257 180C836.257 176.686 838.943 174 842.257 174H855.257C858.571 174 861.257 176.686 861.257 180V193.475H836.257V180Z"/>
</mask>
<path d="M834.257 180C834.257 175.582 837.839 172 842.257 172H855.257C859.675 172 863.257 175.582 863.257 180H859.257C859.257 177.791 857.466 176 855.257 176H842.257C840.048 176 838.257 177.791 838.257 180H834.257ZM861.257 193.475H836.257H861.257ZM834.257 193.475V180C834.257 175.582 837.839 172 842.257 172V176C840.048 176 838.257 177.791 838.257 180V193.475H834.257ZM855.257 172C859.675 172 863.257 175.582 863.257 180V193.475H859.257V180C859.257 177.791 857.466 176 855.257 176V172Z" fill="#DADEE7" mask="url(#path-9-inside-3_202_29)"/>
<rect x="934.948" y="176.705" width="19.4444" height="30.295" rx="4" fill="#DADEE7"/>
<mask id="path-12-inside-4_202_29" fill="white">
<path d="M932.17 180C932.17 176.686 934.857 174 938.17 174H951.17C954.484 174 957.17 176.686 957.17 180V193.475H932.17V180Z"/>
</mask>
<path d="M930.17 180C930.17 175.582 933.752 172 938.17 172H951.17C955.589 172 959.17 175.582 959.17 180H955.17C955.17 177.791 953.38 176 951.17 176H938.17C935.961 176 934.17 177.791 934.17 180H930.17ZM957.17 193.475H932.17H957.17ZM930.17 193.475V180C930.17 175.582 933.752 172 938.17 172V176C935.961 176 934.17 177.791 934.17 180V193.475H930.17ZM951.17 172C955.589 172 959.17 175.582 959.17 180V193.475H955.17V180C955.17 177.791 953.38 176 951.17 176V172Z" fill="#DADEE7" mask="url(#path-12-inside-4_202_29)"/>
<rect x="823" y="151" width="19" height="17" rx="4" fill="#DADEE7"/>
<path d="M834.45 163L833.59 160.79H830.76L829.91 163H829L831.79 155.83H832.6L835.38 163H834.45ZM832.52 157.83C832.5 157.777 832.467 157.68 832.42 157.54C832.373 157.4 832.327 157.257 832.28 157.11C832.24 156.957 832.207 156.84 832.18 156.76C832.147 156.893 832.11 157.03 832.07 157.17C832.037 157.303 832 157.427 831.96 157.54C831.927 157.653 831.897 157.75 831.87 157.83L831.06 159.99H833.32L832.52 157.83Z" fill="#2B3674"/>
<rect x="921" y="151" width="19" height="17" rx="4" fill="#DADEE7"/>
<path d="M927.97 163V155.86H932.21V156.65H928.87V158.88H929.93C930.643 158.88 931.197 158.97 931.59 159.15C931.983 159.323 932.257 159.563 932.41 159.87C932.563 160.17 932.64 160.517 932.64 160.91C932.64 161.343 932.553 161.717 932.38 162.03C932.213 162.343 931.94 162.583 931.56 162.75C931.18 162.917 930.68 163 930.06 163H927.97ZM929.97 162.23C930.61 162.23 931.06 162.123 931.32 161.91C931.58 161.69 931.71 161.357 931.71 160.91C931.71 160.603 931.647 160.36 931.52 160.18C931.4 159.993 931.2 159.86 930.92 159.78C930.647 159.7 930.28 159.66 929.82 159.66H928.87V162.23H929.97Z" fill="#2B3674"/>
<rect x="855" y="130" width="49" height="25" rx="4" fill="#DADEE7"/>
<path d="M864.33 147V137.004H865.744L870.294 145.236H870.35C870.341 144.993 870.327 144.713 870.308 144.396C870.289 144.079 870.275 143.761 870.266 143.444C870.257 143.117 870.252 142.837 870.252 142.604V137.004H871.358V147H869.986L865.38 138.74H865.324C865.343 138.983 865.357 139.272 865.366 139.608C865.385 139.935 865.399 140.261 865.408 140.588C865.427 140.915 865.436 141.204 865.436 141.456V147H864.33ZM872.688 147V146.034H876.286V147H872.688ZM874.48 145.124C874.079 145.124 873.719 145.035 873.402 144.858C873.094 144.671 872.851 144.401 872.674 144.046C872.497 143.691 872.408 143.257 872.408 142.744C872.408 141.979 872.595 141.395 872.968 140.994C873.351 140.583 873.869 140.378 874.522 140.378C874.923 140.378 875.278 140.471 875.586 140.658C875.903 140.835 876.151 141.101 876.328 141.456C876.515 141.801 876.608 142.231 876.608 142.744C876.608 143.509 876.417 144.097 876.034 144.508C875.651 144.919 875.133 145.124 874.48 145.124ZM874.508 144.312C874.919 144.312 875.213 144.181 875.39 143.92C875.567 143.649 875.656 143.257 875.656 142.744C875.656 142.221 875.567 141.839 875.39 141.596C875.213 141.344 874.919 141.218 874.508 141.218C874.107 141.218 873.813 141.344 873.626 141.596C873.439 141.839 873.346 142.221 873.346 142.744C873.346 143.257 873.435 143.649 873.612 143.92C873.799 144.181 874.097 144.312 874.508 144.312ZM877.805 138.04V136.878H880.437V147H879.149V138.04H877.805ZM882.29 138.04V136.878H884.922V147H883.634V138.04H882.29ZM888.748 144.284C888.842 144.816 889.056 145.227 889.392 145.516C889.738 145.805 890.2 145.95 890.778 145.95C891.553 145.95 892.122 145.647 892.486 145.04C892.86 144.433 893.037 143.411 893.018 141.974C892.822 142.394 892.496 142.725 892.038 142.968C891.581 143.201 891.072 143.318 890.512 143.318C889.887 143.318 889.327 143.192 888.832 142.94C888.347 142.679 887.964 142.301 887.684 141.806C887.404 141.311 887.264 140.714 887.264 140.014C887.264 139.015 887.554 138.213 888.132 137.606C888.711 136.99 889.532 136.682 890.596 136.682C891.903 136.682 892.818 137.107 893.34 137.956C893.872 138.805 894.138 140.07 894.138 141.75C894.138 142.926 894.031 143.897 893.816 144.662C893.611 145.427 893.256 146.011 892.752 146.412C892.258 146.813 891.576 147.014 890.708 147.014C889.756 147.014 889.014 146.757 888.482 146.244C887.95 145.731 887.647 145.077 887.572 144.284H888.748ZM890.722 142.24C891.348 142.24 891.861 142.049 892.262 141.666C892.664 141.274 892.864 140.747 892.864 140.084C892.864 139.384 892.668 138.819 892.276 138.39C891.884 137.961 891.334 137.746 890.624 137.746C889.971 137.746 889.448 137.951 889.056 138.362C888.674 138.773 888.482 139.314 888.482 139.986C888.482 140.667 888.674 141.213 889.056 141.624C889.439 142.035 889.994 142.24 890.722 142.24Z" fill="#2B3674"/>
<path fill-rule="evenodd" clip-rule="evenodd" d="M977 150L977 217L975.5 217L975.5 150C975.5 148.067 973.933 146.5 972 146.5L916 146.5L916 145L972 145C974.761 145 977 147.239 977 150ZM845 145L790 145C787.239 145 785 147.239 785 150L785 217L786.5 217L786.5 150C786.5 148.067 788.067 146.5 790 146.5L845 146.5L845 145Z" fill="#B0BBD5"/>
<rect x="998.567" y="176.705" width="19.4444" height="30.2951" rx="4" fill="#DADEE7"/>
<mask id="path-22-inside-5_202_29" fill="white">
<path d="M995.789 180C995.789 176.686 998.475 174 1001.79 174H1014.79C1018.1 174 1020.79 176.686 1020.79 180V193.475H995.789V180Z"/>
</mask>
<path d="M993.789 180C993.789 175.582 997.371 172 1001.79 172H1014.79C1019.21 172 1022.79 175.582 1022.79 180H1018.79C1018.79 177.791 1017 176 1014.79 176H1001.79C999.58 176 997.789 177.791 997.789 180H993.789ZM1020.79 193.475H995.789H1020.79ZM993.789 193.475V180C993.789 175.582 997.371 172 1001.79 172V176C999.58 176 997.789 177.791 997.789 180V193.475H993.789ZM1014.79 172C1019.21 172 1022.79 175.582 1022.79 180V193.475H1018.79V180C1018.79 177.791 1017 176 1014.79 176V172Z" fill="#DADEE7" mask="url(#path-22-inside-5_202_29)"/>
<rect x="1094.48" y="176.705" width="19.4444" height="30.2951" rx="4" fill="#DADEE7"/>
<mask id="path-25-inside-6_202_29" fill="white">
<path d="M1091.7 180C1091.7 176.686 1094.39 174 1097.7 174H1110.7C1114.02 174 1116.7 176.686 1116.7 180V193.475H1091.7V180Z"/>
</mask>
<path d="M1089.7 180C1089.7 175.582 1093.28 172 1097.7 172H1110.7C1115.12 172 1118.7 175.582 1118.7 180H1114.7C1114.7 177.791 1112.91 176 1110.7 176H1097.7C1095.49 176 1093.7 177.791 1093.7 180H1089.7ZM1116.7 193.475H1091.7H1116.7ZM1089.7 193.475V180C1089.7 175.582 1093.28 172 1097.7 172V176C1095.49 176 1093.7 177.791 1093.7 180V193.475H1089.7ZM1110.7 172C1115.12 172 1118.7 175.582 1118.7 180V193.475H1114.7V180C1114.7 177.791 1112.91 176 1110.7 176V172Z" fill="#DADEE7" mask="url(#path-25-inside-6_202_29)"/>
<rect x="1030.03" y="176.705" width="19.4444" height="30.2951" rx="4" fill="#DADEE7"/>
<mask id="path-28-inside-7_202_29" fill="white">
<path d="M1027.26 180C1027.26 176.686 1029.94 174 1033.26 174H1046.26C1049.57 174 1052.26 176.686 1052.26 180V193.475H1027.26V180Z"/>
</mask>
<path d="M1025.26 180C1025.26 175.582 1028.84 172 1033.26 172H1046.26C1050.68 172 1054.26 175.582 1054.26 180H1050.26C1050.26 177.791 1048.47 176 1046.26 176H1033.26C1031.05 176 1029.26 177.791 1029.26 180H1025.26ZM1052.26 193.475H1027.26H1052.26ZM1025.26 193.475V180C1025.26 175.582 1028.84 172 1033.26 172V176C1031.05 176 1029.26 177.791 1029.26 180V193.475H1025.26ZM1046.26 172C1050.68 172 1054.26 175.582 1054.26 180V193.475H1050.26V180C1050.26 177.791 1048.47 176 1046.26 176V172Z" fill="#DADEE7" mask="url(#path-28-inside-7_202_29)"/>
<rect x="1125.95" y="176.705" width="19.4444" height="30.295" rx="4" fill="#DADEE7"/>
<mask id="path-31-inside-8_202_29" fill="white">
<path d="M1123.17 180C1123.17 176.686 1125.86 174 1129.17 174H1142.17C1145.48 174 1148.17 176.686 1148.17 180V193.475H1123.17V180Z"/>
</mask>
<path d="M1121.17 180C1121.17 175.582 1124.75 172 1129.17 172H1142.17C1146.59 172 1150.17 175.582 1150.17 180H1146.17C1146.17 177.791 1144.38 176 1142.17 176H1129.17C1126.96 176 1125.17 177.791 1125.17 180H1121.17ZM1148.17 193.475H1123.17H1148.17ZM1121.17 193.475V180C1121.17 175.582 1124.75 172 1129.17 172V176C1126.96 176 1125.17 177.791 1125.17 180V193.475H1121.17ZM1142.17 172C1146.59 172 1150.17 175.582 1150.17 180V193.475H1146.17V180C1146.17 177.791 1144.38 176 1142.17 176V172Z" fill="#DADEE7" mask="url(#path-31-inside-8_202_29)"/>
<rect x="1014" y="151" width="19" height="17" rx="4" fill="#DADEE7"/>
<path d="M1025.45 163L1024.59 160.79H1021.76L1020.91 163H1020L1022.79 155.83H1023.6L1026.38 163H1025.45ZM1023.52 157.83C1023.5 157.777 1023.47 157.68 1023.42 157.54C1023.37 157.4 1023.33 157.257 1023.28 157.11C1023.24 156.957 1023.21 156.84 1023.18 156.76C1023.15 156.893 1023.11 157.03 1023.07 157.17C1023.04 157.303 1023 157.427 1022.96 157.54C1022.93 157.653 1022.9 157.75 1022.87 157.83L1022.06 159.99H1024.32L1023.52 157.83Z" fill="#2B3674"/>
<rect x="1112" y="151" width="19" height="17" rx="4" fill="#DADEE7"/>
<path d="M1118.97 163V155.86H1123.21V156.65H1119.87V158.88H1120.93C1121.64 158.88 1122.2 158.97 1122.59 159.15C1122.98 159.323 1123.26 159.563 1123.41 159.87C1123.56 160.17 1123.64 160.517 1123.64 160.91C1123.64 161.343 1123.55 161.717 1123.38 162.03C1123.21 162.343 1122.94 162.583 1122.56 162.75C1122.18 162.917 1121.68 163 1121.06 163H1118.97ZM1120.97 162.23C1121.61 162.23 1122.06 162.123 1122.32 161.91C1122.58 161.69 1122.71 161.357 1122.71 160.91C1122.71 160.603 1122.65 160.36 1122.52 160.18C1122.4 159.993 1122.2 159.86 1121.92 159.78C1121.65 159.7 1121.28 159.66 1120.82 159.66H1119.87V162.23H1120.97Z" fill="#2B3674"/>
<rect x="1046" y="130" width="52" height="25" rx="4" fill="#DADEE7"/>
<path d="M1055.33 147V137.004H1056.74L1061.29 145.236H1061.35C1061.34 144.993 1061.33 144.713 1061.31 144.396C1061.29 144.079 1061.28 143.761 1061.27 143.444C1061.26 143.117 1061.25 142.837 1061.25 142.604V137.004H1062.36V147H1060.99L1056.38 138.74H1056.32C1056.34 138.983 1056.36 139.272 1056.37 139.608C1056.38 139.935 1056.4 140.261 1056.41 140.588C1056.43 140.915 1056.44 141.204 1056.44 141.456V147H1055.33ZM1063.69 147V146.034H1067.29V147H1063.69ZM1065.48 145.124C1065.08 145.124 1064.72 145.035 1064.4 144.858C1064.09 144.671 1063.85 144.401 1063.67 144.046C1063.5 143.691 1063.41 143.257 1063.41 142.744C1063.41 141.979 1063.59 141.395 1063.97 140.994C1064.35 140.583 1064.87 140.378 1065.52 140.378C1065.92 140.378 1066.28 140.471 1066.59 140.658C1066.9 140.835 1067.15 141.101 1067.33 141.456C1067.51 141.801 1067.61 142.231 1067.61 142.744C1067.61 143.509 1067.42 144.097 1067.03 144.508C1066.65 144.919 1066.13 145.124 1065.48 145.124ZM1065.51 144.312C1065.92 144.312 1066.21 144.181 1066.39 143.92C1066.57 143.649 1066.66 143.257 1066.66 142.744C1066.66 142.221 1066.57 141.839 1066.39 141.596C1066.21 141.344 1065.92 141.218 1065.51 141.218C1065.11 141.218 1064.81 141.344 1064.63 141.596C1064.44 141.839 1064.35 142.221 1064.35 142.744C1064.35 143.257 1064.43 143.649 1064.61 143.92C1064.8 144.181 1065.1 144.312 1065.51 144.312ZM1068.81 138.04V136.878H1071.44V147H1070.15V138.04H1068.81ZM1073.47 145.978C1074.66 145.026 1075.59 144.247 1076.26 143.64C1076.93 143.024 1077.49 142.385 1077.95 141.722C1078.42 141.05 1078.65 140.392 1078.65 139.748C1078.65 139.141 1078.5 138.665 1078.2 138.32C1077.91 137.965 1077.44 137.788 1076.79 137.788C1076.16 137.788 1075.66 137.989 1075.31 138.39C1074.96 138.782 1074.77 139.309 1074.75 139.972H1073.51C1073.55 138.927 1073.87 138.119 1074.47 137.55C1075.06 136.981 1075.83 136.696 1076.78 136.696C1077.74 136.696 1078.5 136.962 1079.06 137.494C1079.63 138.026 1079.91 138.759 1079.91 139.692C1079.91 140.467 1079.68 141.223 1079.21 141.96C1078.75 142.688 1078.23 143.332 1077.64 143.892C1077.06 144.443 1076.3 145.087 1075.39 145.824H1080.21V146.888H1073.47V145.978ZM1081.68 141.834C1081.68 140.229 1081.94 138.978 1082.46 138.082C1082.99 137.177 1083.9 136.724 1085.21 136.724C1086.5 136.724 1087.41 137.177 1087.94 138.082C1088.46 138.978 1088.72 140.229 1088.72 141.834C1088.72 143.467 1088.46 144.737 1087.94 145.642C1087.41 146.547 1086.5 147 1085.21 147C1083.9 147 1082.99 146.547 1082.46 145.642C1081.94 144.737 1081.68 143.467 1081.68 141.834ZM1087.46 141.834C1087.46 141.022 1087.4 140.336 1087.29 139.776C1087.19 139.207 1086.97 138.749 1086.63 138.404C1086.31 138.059 1085.83 137.886 1085.21 137.886C1084.57 137.886 1084.09 138.059 1083.75 138.404C1083.42 138.749 1083.2 139.207 1083.09 139.776C1082.99 140.336 1082.94 141.022 1082.94 141.834C1082.94 142.674 1082.99 143.379 1083.09 143.948C1083.2 144.517 1083.42 144.975 1083.75 145.32C1084.09 145.665 1084.57 145.838 1085.21 145.838C1085.83 145.838 1086.31 145.665 1086.63 145.32C1086.97 144.975 1087.19 144.517 1087.29 143.948C1087.4 143.379 1087.46 142.674 1087.46 141.834Z" fill="#2B3674"/>
<path fill-rule="evenodd" clip-rule="evenodd" d="M1168 150L1168 217L1166.5 217L1166.5 150C1166.5 148.067 1164.93 146.5 1163 146.5L1107 146.5L1107 145L1163 145C1165.76 145 1168 147.239 1168 150ZM1036 145L981 145C978.239 145 976 147.239 976 150L976 217L977.5 217L977.5 150C977.5 148.067 979.067 146.5 981 146.5L1036 146.5L1036 145Z" fill="#B0BBD5"/>
<path fill-rule="evenodd" clip-rule="evenodd" d="M983 1.00039L983 0.958496L983 1.99994L984.5 1.99994L984.5 69.0004C984.5 70.9334 986.067 72.5004 988 72.5004L1015 72.5004L1015 74.0004L988 74.0004C985.239 74.0004 983 71.7618 983 69.0004L983 1.00039ZM1119 74.0004L1146 74.0004C1148.76 74.0004 1151 71.7618 1151 69.0004L1151 2.00043L1149.5 2.00042L1149.5 69.0004C1149.5 70.9334 1147.93 72.5004 1146 72.5004L1119 72.5004L1119 74.0004Z" fill="#B0BBD5"/>
<path fill-rule="evenodd" clip-rule="evenodd" d="M786 150.001L786 217.001L784.5 217.001L784.5 150.001C784.5 148.068 782.933 146.501 781 146.501L679 146.501L679 145.001L781 145.001C783.761 145.001 786 147.24 786 150.001ZM594 145.001L493 145.001C490.239 145.001 488 147.24 488 150.001L488 217.001L489.5 217.001L489.5 150.001C489.5 148.068 491.067 146.501 493 146.501L594 146.501L594 145.001Z" fill="#B0BBD5"/>
<path fill-rule="evenodd" clip-rule="evenodd" d="M489 150.001L489 217.001L487.5 217.001L487.5 150.001C487.5 148.068 485.933 146.501 484 146.501L382 146.501L382 145.001L484 145.001C486.761 145.001 489 147.24 489 150.001ZM297 145.001L196 145.001C193.239 145.001 191 147.24 191 150.001L191 217.001L192.5 217.001L192.5 150.001C192.5 148.068 194.067 146.501 196 146.501L297 146.501L297 145.001Z" fill="#B0BBD5"/>
<path fill-rule="evenodd" clip-rule="evenodd" d="M1230 4.99902H20C10.6112 4.99902 3 12.6102 3 21.999V196.999C3 206.388 10.6111 213.999 20 213.999H1230C1239.39 213.999 1247 206.388 1247 196.999V21.999C1247 12.6102 1239.39 4.99902 1230 4.99902ZM20 1.99902C8.95431 1.99902 0 10.9533 0 21.999V196.999C0 208.045 8.95427 216.999 20 216.999H1230C1241.05 216.999 1250 208.045 1250 196.999V21.999C1250 10.9533 1241.05 1.99902 1230 1.99902H20Z" fill="#B0BBD5"/>
<path d="M340.594 29.2178H330.312C329.923 29.2178 329.549 29.3725 329.274 29.648C328.998 29.9234 328.844 30.297 328.844 30.6865V38.0303H321.5C321.11 38.0303 320.737 38.185 320.461 38.4605C320.186 38.7359 320.031 39.1095 320.031 39.499V46.8428H312.687C312.298 46.8428 311.924 46.9975 311.649 47.273C311.373 47.5484 311.219 47.922 311.219 48.3115V55.6553H302.406C302.017 55.6553 301.643 55.81 301.368 56.0855C301.092 56.3609 300.937 56.7345 300.937 57.124C300.937 57.5136 301.092 57.8871 301.368 58.1626C301.643 58.438 302.017 58.5928 302.406 58.5928H312.687C313.077 58.5928 313.451 58.438 313.726 58.1626C314.002 57.8871 314.156 57.5136 314.156 57.124V49.7803H321.5C321.89 49.7803 322.263 49.6255 322.539 49.3501C322.814 49.0746 322.969 48.7011 322.969 48.3115V40.9678H330.312C330.702 40.9678 331.076 40.813 331.351 40.5376C331.627 40.2621 331.781 39.8886 331.781 39.499V32.1553H340.594C340.983 32.1553 341.357 32.0005 341.632 31.7251C341.908 31.4496 342.062 31.0761 342.062 30.6865C342.062 30.297 341.908 29.9234 341.632 29.648C341.357 29.3725 340.983 29.2178 340.594 29.2178ZM302.406 42.4365C302.6 42.4376 302.791 42.4006 302.97 42.3275C303.149 42.2544 303.312 42.1467 303.449 42.0106L320.031 25.4284V27.2496C320.031 27.6392 320.186 28.0128 320.461 28.2882C320.737 28.5637 321.11 28.7184 321.5 28.7184C321.89 28.7184 322.263 28.5637 322.539 28.2882C322.814 28.0128 322.969 27.6392 322.969 27.2496V21.874C322.969 21.4845 322.814 21.1109 322.539 20.8355C322.263 20.56 321.89 20.4053 321.5 20.4053H316.124C315.735 20.4053 315.361 20.56 315.086 20.8355C314.81 21.1109 314.656 21.4845 314.656 21.874C314.656 22.2636 314.81 22.6371 315.086 22.9126C315.361 23.188 315.735 23.3428 316.124 23.3428H317.946L301.363 39.925C301.156 40.1304 301.015 40.3929 300.958 40.6789C300.9 40.9649 300.929 41.2616 301.041 41.531C301.153 41.8004 301.343 42.0305 301.586 42.1917C301.829 42.353 302.115 42.4382 302.406 42.4365Z" fill="#B0BBD5"/>
<rect x="521.278" y="177.207" width="18.4444" height="29.2951" rx="3.5" fill="#DADEE7" stroke="#DADEE7"/>
<mask id="path-46-inside-9_202_29" fill="white">
<path d="M518 180.002C518 176.688 520.686 174.002 524 174.002H537C540.314 174.002 543 176.688 543 180.002V193.477H518V180.002Z"/>
</mask>
<path d="M516 180.002C516 175.584 519.582 172.002 524 172.002H537C541.418 172.002 545 175.584 545 180.002H541C541 177.793 539.209 176.002 537 176.002H524C521.791 176.002 520 177.793 520 180.002H516ZM543 193.477H518H543ZM516 193.477V180.002C516 175.584 519.582 172.002 524 172.002V176.002C521.791 176.002 520 177.793 520 180.002V193.477H516ZM537 172.002C541.418 172.002 545 175.584 545 180.002V193.477H541V180.002C541 177.793 539.209 176.002 537 176.002V172.002Z" fill="#DADEE7" mask="url(#path-46-inside-9_202_29)"/>
<rect x="225.278" y="177.207" width="18.4444" height="29.2951" rx="3.5" fill="#DADEE7" stroke="#DADEE7"/>
<mask id="path-49-inside-10_202_29" fill="white">
<path d="M222 180.002C222 176.688 224.686 174.002 228 174.002H241C244.314 174.002 247 176.688 247 180.002V193.477H222V180.002Z"/>
</mask>
<path d="M220 180.002C220 175.584 223.582 172.002 228 172.002H241C245.418 172.002 249 175.584 249 180.002H245C245 177.793 243.209 176.002 241 176.002H228C225.791 176.002 224 177.793 224 180.002H220ZM247 193.477H222H247ZM220 193.477V180.002C220 175.584 223.582 172.002 228 172.002V176.002C225.791 176.002 224 177.793 224 180.002V193.477H220ZM241 172.002C245.418 172.002 249 175.584 249 180.002V193.477H245V180.002C245 177.793 243.209 176.002 241 176.002V172.002Z" fill="#DADEE7" mask="url(#path-49-inside-10_202_29)"/>
<rect x="670.778" y="176.707" width="19.4444" height="30.2951" rx="4" fill="#FF1A63"/>
<mask id="path-52-inside-11_202_29" fill="white">
<path d="M668 180.002C668 176.688 670.686 174.002 674 174.002H687C690.314 174.002 693 176.688 693 180.002V193.477H668V180.002Z"/>
</mask>
<path d="M666 180.002C666 175.584 669.582 172.002 674 172.002H687C691.418 172.002 695 175.584 695 180.002H691C691 177.793 689.209 176.002 687 176.002H674C671.791 176.002 670 177.793 670 180.002H666ZM693 193.477H668H693ZM666 193.477V180.002C666 175.584 669.582 172.002 674 172.002V176.002C671.791 176.002 670 177.793 670 180.002V193.477H666ZM687 172.002C691.418 172.002 695 175.584 695 180.002V193.477H691V180.002C691 177.793 689.209 176.002 687 176.002V172.002Z" fill="#FF1A63" mask="url(#path-52-inside-11_202_29)"/>
<rect x="374.778" y="176.707" width="19.4444" height="30.2951" rx="4" fill="#FF1A63"/>
<mask id="path-55-inside-12_202_29" fill="white">
<path d="M372 180.002C372 176.688 374.686 174.002 378 174.002H391C394.314 174.002 397 176.688 397 180.002V193.477H372V180.002Z"/>
</mask>
<path d="M370 180.002C370 175.584 373.582 172.002 378 172.002H391C395.418 172.002 399 175.584 399 180.002H395C395 177.793 393.209 176.002 391 176.002H378C375.791 176.002 374 177.793 374 180.002H370ZM397 193.477H372H397ZM370 193.477V180.002C370 175.584 373.582 172.002 378 172.002V176.002C375.791 176.002 374 177.793 374 180.002V193.477H370ZM391 172.002C395.418 172.002 399 175.584 399 180.002V193.477H395V180.002C395 177.793 393.209 176.002 391 176.002V172.002Z" fill="#FF1A63" mask="url(#path-55-inside-12_202_29)"/>
<rect x="119.546" y="177.207" width="18.4444" height="29.2951" rx="3.5" fill="#DADEE7" stroke="#DADEE7"/>
<mask id="path-58-inside-13_202_29" fill="white">
<path d="M116.268 180.002C116.268 176.688 118.954 174.002 122.268 174.002H135.268C138.582 174.002 141.268 176.688 141.268 180.002V193.477H116.268V180.002Z"/>
</mask>
<path d="M114.268 180.002C114.268 175.584 117.85 172.002 122.268 172.002H135.268C139.686 172.002 143.268 175.584 143.268 180.002H139.268C139.268 177.793 137.477 176.002 135.268 176.002H122.268C120.059 176.002 118.268 177.793 118.268 180.002H114.268ZM141.268 193.477H116.268H141.268ZM114.268 193.477V180.002C114.268 175.584 117.85 172.002 122.268 172.002V176.002C120.059 176.002 118.268 177.793 118.268 180.002V193.477H114.268ZM135.268 172.002C139.686 172.002 143.268 175.584 143.268 180.002V193.477H139.268V180.002C139.268 177.793 137.477 176.002 135.268 176.002V172.002Z" fill="#DADEE7" mask="url(#path-58-inside-13_202_29)"/>
<rect x="22.7537" y="177.207" width="18.4444" height="29.2951" rx="3.5" fill="#DADEE7" stroke="#DADEE7"/>
<mask id="path-61-inside-14_202_29" fill="white">
<path d="M19.4758 180.002C19.4758 176.688 22.1621 174.002 25.4758 174.002H38.4758C41.7895 174.002 44.4758 176.688 44.4758 180.002V193.477H19.4758V180.002Z"/>
</mask>
<path d="M17.4758 180.002C17.4758 175.584 21.0576 172.002 25.4758 172.002H38.4758C42.8941 172.002 46.4758 175.584 46.4758 180.002H42.4758C42.4758 177.793 40.685 176.002 38.4758 176.002H25.4758C23.2667 176.002 21.4758 177.793 21.4758 180.002H17.4758ZM44.4758 193.477H19.4758H44.4758ZM17.4758 193.477V180.002C17.4758 175.584 21.0576 172.002 25.4758 172.002V176.002C23.2667 176.002 21.4758 177.793 21.4758 180.002V193.477H17.4758ZM38.4758 172.002C42.8941 172.002 46.4758 175.584 46.4758 180.002V193.477H42.4758V180.002C42.4758 177.793 40.685 176.002 38.4758 176.002V172.002Z" fill="#DADEE7" mask="url(#path-61-inside-14_202_29)"/>
<rect x="551.684" y="176.707" width="19.4444" height="30.2951" rx="4" fill="#FF1A63"/>
<mask id="path-64-inside-15_202_29" fill="white">
<path d="M548.906 180.002C548.906 176.688 551.593 174.002 554.906 174.002H567.906C571.22 174.002 573.906 176.688 573.906 180.002V193.477H548.906V180.002Z"/>
</mask>
<path d="M546.906 180.002C546.906 175.584 550.488 172.002 554.906 172.002H567.906C572.325 172.002 575.906 175.584 575.906 180.002H571.906C571.906 177.793 570.115 176.002 567.906 176.002H554.906C552.697 176.002 550.906 177.793 550.906 180.002H546.906ZM573.906 193.477H548.906H573.906ZM546.906 193.477V180.002C546.906 175.584 550.488 172.002 554.906 172.002V176.002C552.697 176.002 550.906 177.793 550.906 180.002V193.477H546.906ZM567.906 172.002C572.325 172.002 575.906 175.584 575.906 180.002V193.477H571.906V180.002C571.906 177.793 570.115 176.002 567.906 176.002V172.002Z" fill="#FF1A63" mask="url(#path-64-inside-15_202_29)"/>
<rect x="255.684" y="176.707" width="19.4444" height="30.2951" rx="4" fill="#FF1A63"/>
<mask id="path-67-inside-16_202_29" fill="white">
<path d="M252.906 180.002C252.906 176.688 255.593 174.002 258.906 174.002H271.906C275.22 174.002 277.906 176.688 277.906 180.002V193.477H252.906V180.002Z"/>
</mask>
<path d="M250.906 180.002C250.906 175.584 254.488 172.002 258.906 172.002H271.906C276.325 172.002 279.906 175.584 279.906 180.002H275.906C275.906 177.793 274.115 176.002 271.906 176.002H258.906C256.697 176.002 254.906 177.793 254.906 180.002H250.906ZM277.906 193.477H252.906H277.906ZM250.906 193.477V180.002C250.906 175.584 254.488 172.002 258.906 172.002V176.002C256.697 176.002 254.906 177.793 254.906 180.002V193.477H250.906ZM271.906 172.002C276.325 172.002 279.906 175.584 279.906 180.002V193.477H275.906V180.002C275.906 177.793 274.115 176.002 271.906 176.002V172.002Z" fill="#FF1A63" mask="url(#path-67-inside-16_202_29)"/>
<rect x="701.684" y="176.707" width="19.4444" height="30.2951" rx="4" fill="#FF1A63"/>
<mask id="path-70-inside-17_202_29" fill="white">
<path d="M698.906 180.002C698.906 176.688 701.593 174.002 704.906 174.002H717.906C721.22 174.002 723.906 176.688 723.906 180.002V193.477H698.906V180.002Z"/>
</mask>
<path d="M696.906 180.002C696.906 175.584 700.488 172.002 704.906 172.002H717.906C722.325 172.002 725.906 175.584 725.906 180.002H721.906C721.906 177.793 720.115 176.002 717.906 176.002H704.906C702.697 176.002 700.906 177.793 700.906 180.002H696.906ZM723.906 193.477H698.906H723.906ZM696.906 193.477V180.002C696.906 175.584 700.488 172.002 704.906 172.002V176.002C702.697 176.002 700.906 177.793 700.906 180.002V193.477H696.906ZM717.906 172.002C722.325 172.002 725.906 175.584 725.906 180.002V193.477H721.906V180.002C721.906 177.793 720.115 176.002 717.906 176.002V172.002Z" fill="#FF1A63" mask="url(#path-70-inside-17_202_29)"/>
<rect x="405.684" y="176.707" width="19.4444" height="30.2951" rx="4" fill="#FF1A63"/>
<mask id="path-73-inside-18_202_29" fill="white">
<path d="M402.906 180.002C402.906 176.688 405.593 174.002 408.906 174.002H421.906C425.22 174.002 427.906 176.688 427.906 180.002V193.477H402.906V180.002Z"/>
</mask>
<path d="M400.906 180.002C400.906 175.584 404.488 172.002 408.906 172.002H421.906C426.325 172.002 429.906 175.584 429.906 180.002H425.906C425.906 177.793 424.115 176.002 421.906 176.002H408.906C406.697 176.002 404.906 177.793 404.906 180.002H400.906ZM427.906 193.477H402.906H427.906ZM400.906 193.477V180.002C400.906 175.584 404.488 172.002 408.906 172.002V176.002C406.697 176.002 404.906 177.793 404.906 180.002V193.477H400.906ZM421.906 172.002C426.325 172.002 429.906 175.584 429.906 180.002V193.477H425.906V180.002C425.906 177.793 424.115 176.002 421.906 176.002V172.002Z" fill="#FF1A63" mask="url(#path-73-inside-18_202_29)"/>
<rect x="583.09" y="177.207" width="18.4444" height="29.2951" rx="3.5" fill="#DADEE7" stroke="#DADEE7"/>
<mask id="path-76-inside-19_202_29" fill="white">
<path d="M579.812 180.002C579.812 176.688 582.499 174.002 585.812 174.002H598.812C602.126 174.002 604.812 176.688 604.812 180.002V193.477H579.812V180.002Z"/>
</mask>
<path d="M577.812 180.002C577.812 175.584 581.394 172.002 585.812 172.002H598.812C603.231 172.002 606.812 175.584 606.812 180.002H602.812C602.812 177.793 601.022 176.002 598.812 176.002H585.812C583.603 176.002 581.812 177.793 581.812 180.002H577.812ZM604.812 193.477H579.812H604.812ZM577.812 193.477V180.002C577.812 175.584 581.394 172.002 585.812 172.002V176.002C583.603 176.002 581.812 177.793 581.812 180.002V193.477H577.812ZM598.812 172.002C603.231 172.002 606.812 175.584 606.812 180.002V193.477H602.812V180.002C602.812 177.793 601.022 176.002 598.812 176.002V172.002Z" fill="#DADEE7" mask="url(#path-76-inside-19_202_29)"/>
<rect x="287.09" y="177.207" width="18.4444" height="29.2951" rx="3.5" fill="#DADEE7" stroke="#DADEE7"/>
<mask id="path-79-inside-20_202_29" fill="white">
<path d="M283.812 180.002C283.812 176.688 286.499 174.002 289.812 174.002H302.812C306.126 174.002 308.812 176.688 308.812 180.002V193.477H283.812V180.002Z"/>
</mask>
<path d="M281.812 180.002C281.812 175.584 285.394 172.002 289.812 172.002H302.812C307.231 172.002 310.812 175.584 310.812 180.002H306.812C306.812 177.793 305.022 176.002 302.812 176.002H289.812C287.603 176.002 285.812 177.793 285.812 180.002H281.812ZM308.812 193.477H283.812H308.812ZM281.812 193.477V180.002C281.812 175.584 285.394 172.002 289.812 172.002V176.002C287.603 176.002 285.812 177.793 285.812 180.002V193.477H281.812ZM302.812 172.002C307.231 172.002 310.812 175.584 310.812 180.002V193.477H306.812V180.002C306.812 177.793 305.022 176.002 302.812 176.002V172.002Z" fill="#DADEE7" mask="url(#path-79-inside-20_202_29)"/>
<rect x="733.09" y="177.207" width="18.4444" height="29.2951" rx="3.5" fill="#DADEE7" stroke="#DADEE7"/>
<mask id="path-82-inside-21_202_29" fill="white">
<path d="M729.812 180.002C729.812 176.688 732.499 174.002 735.812 174.002H748.812C752.126 174.002 754.812 176.688 754.812 180.002V193.477H729.812V180.002Z"/>
</mask>
<path d="M727.812 180.002C727.812 175.584 731.394 172.002 735.812 172.002H748.812C753.231 172.002 756.812 175.584 756.812 180.002H752.812C752.812 177.793 751.022 176.002 748.812 176.002H735.812C733.603 176.002 731.812 177.793 731.812 180.002H727.812ZM754.812 193.477H729.812H754.812ZM727.812 193.477V180.002C727.812 175.584 731.394 172.002 735.812 172.002V176.002C733.603 176.002 731.812 177.793 731.812 180.002V193.477H727.812ZM748.812 172.002C753.231 172.002 756.812 175.584 756.812 180.002V193.477H752.812V180.002C752.812 177.793 751.022 176.002 748.812 176.002V172.002Z" fill="#DADEE7" mask="url(#path-82-inside-21_202_29)"/>
<rect x="437.09" y="177.207" width="18.4444" height="29.2951" rx="3.5" fill="#DADEE7" stroke="#DADEE7"/>
<mask id="path-85-inside-22_202_29" fill="white">
<path d="M433.812 180.002C433.812 176.688 436.499 174.002 439.812 174.002H452.812C456.126 174.002 458.812 176.688 458.812 180.002V193.477H433.812V180.002Z"/>
</mask>
<path d="M431.812 180.002C431.812 175.584 435.394 172.002 439.812 172.002H452.812C457.231 172.002 460.812 175.584 460.812 180.002H456.812C456.812 177.793 455.022 176.002 452.812 176.002H439.812C437.603 176.002 435.812 177.793 435.812 180.002H431.812ZM458.812 193.477H433.812H458.812ZM431.812 193.477V180.002C431.812 175.584 435.394 172.002 439.812 172.002V176.002C437.603 176.002 435.812 177.793 435.812 180.002V193.477H431.812ZM452.812 172.002C457.231 172.002 460.812 175.584 460.812 180.002V193.477H456.812V180.002C456.812 177.793 455.022 176.002 452.812 176.002V172.002Z" fill="#DADEE7" mask="url(#path-85-inside-22_202_29)"/>
<rect x="151.014" y="177.207" width="18.4444" height="29.2951" rx="3.5" fill="#DADEE7" stroke="#DADEE7"/>
<mask id="path-88-inside-23_202_29" fill="white">
<path d="M147.736 180.002C147.736 176.688 150.422 174.002 153.736 174.002H166.736C170.05 174.002 172.736 176.688 172.736 180.002V193.477H147.736V180.002Z"/>
</mask>
<path d="M145.736 180.002C145.736 175.584 149.318 172.002 153.736 172.002H166.736C171.154 172.002 174.736 175.584 174.736 180.002H170.736C170.736 177.793 168.945 176.002 166.736 176.002H153.736C151.527 176.002 149.736 177.793 149.736 180.002H145.736ZM172.736 193.477H147.736H172.736ZM145.736 193.477V180.002C145.736 175.584 149.318 172.002 153.736 172.002V176.002C151.527 176.002 149.736 177.793 149.736 180.002V193.477H145.736ZM166.736 172.002C171.154 172.002 174.736 175.584 174.736 180.002V193.477H170.736V180.002C170.736 177.793 168.945 176.002 166.736 176.002V172.002Z" fill="#DADEE7" mask="url(#path-88-inside-23_202_29)"/>
<rect x="54.2217" y="177.207" width="18.4444" height="29.2951" rx="3.5" fill="#DADEE7" stroke="#DADEE7"/>
<mask id="path-91-inside-24_202_29" fill="white">
<path d="M50.9438 180.002C50.9438 176.688 53.6301 174.002 56.9438 174.002H69.9438C73.2576 174.002 75.9438 176.688 75.9438 180.002V193.477H50.9438V180.002Z"/>
</mask>
<path d="M48.9438 180.002C48.9438 175.584 52.5256 172.002 56.9438 172.002H69.9438C74.3621 172.002 77.9438 175.584 77.9438 180.002H73.9438C73.9438 177.793 72.153 176.002 69.9438 176.002H56.9438C54.7347 176.002 52.9438 177.793 52.9438 180.002H48.9438ZM75.9438 193.477H50.9438H75.9438ZM48.9438 193.477V180.002C48.9438 175.584 52.5256 172.002 56.9438 172.002V176.002C54.7347 176.002 52.9438 177.793 52.9438 180.002V193.477H48.9438ZM69.9438 172.002C74.3621 172.002 77.9438 175.584 77.9438 180.002V193.477H73.9438V180.002C73.9438 177.793 72.153 176.002 69.9438 176.002V172.002Z" fill="#DADEE7" mask="url(#path-91-inside-24_202_29)"/>
<rect x="610.5" y="130.502" width="48" height="24" rx="3.5" fill="#DADEE7"/>
<path d="M619.33 147.002V137.006H620.744L625.294 145.238H625.35C625.341 144.995 625.327 144.715 625.308 144.398C625.289 144.081 625.275 143.763 625.266 143.446C625.257 143.119 625.252 142.839 625.252 142.606V137.006H626.358V147.002H624.986L620.38 138.742H620.324C620.343 138.985 620.357 139.274 620.366 139.61C620.385 139.937 620.399 140.263 620.408 140.59C620.427 140.917 620.436 141.206 620.436 141.458V147.002H619.33ZM627.688 147.002V146.036H631.286V147.002H627.688ZM629.48 145.126C629.079 145.126 628.719 145.037 628.402 144.86C628.094 144.673 627.851 144.403 627.674 144.048C627.497 143.693 627.408 143.259 627.408 142.746C627.408 141.981 627.595 141.397 627.968 140.996C628.351 140.585 628.869 140.38 629.522 140.38C629.923 140.38 630.278 140.473 630.586 140.66C630.903 140.837 631.151 141.103 631.328 141.458C631.515 141.803 631.608 142.233 631.608 142.746C631.608 143.511 631.417 144.099 631.034 144.51C630.651 144.921 630.133 145.126 629.48 145.126ZM629.508 144.314C629.919 144.314 630.213 144.183 630.39 143.922C630.567 143.651 630.656 143.259 630.656 142.746C630.656 142.223 630.567 141.841 630.39 141.598C630.213 141.346 629.919 141.22 629.508 141.22C629.107 141.22 628.813 141.346 628.626 141.598C628.439 141.841 628.346 142.223 628.346 142.746C628.346 143.259 628.435 143.651 628.612 143.922C628.799 144.183 629.097 144.314 629.508 144.314ZM632.805 138.042V136.88H635.437V147.002H634.149V138.042H632.805ZM637.29 138.042V136.88H639.922V147.002H638.634V138.042H637.29ZM643.958 141.738C643.436 141.533 643.034 141.234 642.754 140.842C642.474 140.45 642.334 139.974 642.334 139.414C642.334 138.91 642.46 138.457 642.712 138.056C642.964 137.645 643.338 137.323 643.832 137.09C644.336 136.847 644.943 136.726 645.652 136.726C646.362 136.726 646.964 136.847 647.458 137.09C647.962 137.323 648.34 137.645 648.592 138.056C648.854 138.457 648.984 138.91 648.984 139.414C648.984 139.955 648.84 140.431 648.55 140.842C648.261 141.243 647.864 141.542 647.36 141.738C647.939 141.915 648.396 142.228 648.732 142.676C649.078 143.115 649.25 143.647 649.25 144.272C649.25 144.879 649.101 145.411 648.802 145.868C648.504 146.316 648.079 146.666 647.528 146.918C646.987 147.161 646.362 147.282 645.652 147.282C644.943 147.282 644.318 147.161 643.776 146.918C643.244 146.666 642.829 146.316 642.53 145.868C642.232 145.411 642.082 144.879 642.082 144.272C642.082 143.647 642.25 143.11 642.586 142.662C642.922 142.214 643.38 141.906 643.958 141.738ZM647.752 139.568C647.752 138.999 647.566 138.56 647.192 138.252C646.819 137.944 646.306 137.79 645.652 137.79C645.008 137.79 644.5 137.944 644.126 138.252C643.753 138.56 643.566 139.003 643.566 139.582C643.566 140.105 643.758 140.525 644.14 140.842C644.532 141.159 645.036 141.318 645.652 141.318C646.278 141.318 646.782 141.159 647.164 140.842C647.556 140.515 647.752 140.091 647.752 139.568ZM645.652 142.298C644.962 142.298 644.397 142.461 643.958 142.788C643.52 143.105 643.3 143.586 643.3 144.23C643.3 144.827 643.51 145.308 643.93 145.672C644.36 146.036 644.934 146.218 645.652 146.218C646.371 146.218 646.94 146.036 647.36 145.672C647.78 145.308 647.99 144.827 647.99 144.23C647.99 143.605 647.776 143.129 647.346 142.802C646.917 142.466 646.352 142.298 645.652 142.298Z" fill="#2B3674"/>
<rect x="610.5" y="130.502" width="48" height="24" rx="3.5" stroke="#DADEE7"/>
<rect x="69.5" y="130.502" width="48" height="24" rx="3.5" fill="#DADEE7"/>
<path d="M78.33 147.002V137.006H79.744L84.294 145.238H84.35C84.3407 144.995 84.3267 144.715 84.308 144.398C84.2893 144.081 84.2753 143.763 84.266 143.446C84.2567 143.119 84.252 142.839 84.252 142.606V137.006H85.358V147.002H83.986L79.38 138.742H79.324C79.3427 138.985 79.3567 139.274 79.366 139.61C79.3847 139.937 79.3987 140.263 79.408 140.59C79.4267 140.917 79.436 141.206 79.436 141.458V147.002H78.33ZM86.688 147.002V146.036H90.286V147.002H86.688ZM88.48 145.126C88.0787 145.126 87.7193 145.037 87.402 144.86C87.094 144.673 86.8513 144.403 86.674 144.048C86.4967 143.693 86.408 143.259 86.408 142.746C86.408 141.981 86.5947 141.397 86.968 140.996C87.3507 140.585 87.8687 140.38 88.522 140.38C88.9233 140.38 89.278 140.473 89.586 140.66C89.9033 140.837 90.1507 141.103 90.328 141.458C90.5147 141.803 90.608 142.233 90.608 142.746C90.608 143.511 90.4167 144.099 90.034 144.51C89.6513 144.921 89.1333 145.126 88.48 145.126ZM88.508 144.314C88.9187 144.314 89.2127 144.183 89.39 143.922C89.5673 143.651 89.656 143.259 89.656 142.746C89.656 142.223 89.5673 141.841 89.39 141.598C89.2127 141.346 88.9187 141.22 88.508 141.22C88.1067 141.22 87.8127 141.346 87.626 141.598C87.4393 141.841 87.346 142.223 87.346 142.746C87.346 143.259 87.4347 143.651 87.612 143.922C87.7987 144.183 88.0973 144.314 88.508 144.314ZM91.8054 138.042V136.88H94.4374V147.002H93.1494V138.042H91.8054ZM96.2898 138.042V136.88H98.9218V147.002H97.6338V138.042H96.2898ZM106.752 139.288C106.547 138.252 105.908 137.734 104.834 137.734C104.004 137.734 103.383 138.056 102.972 138.7C102.562 139.335 102.361 140.385 102.37 141.85C102.585 141.365 102.94 140.987 103.434 140.716C103.938 140.436 104.498 140.296 105.114 140.296C106.076 140.296 106.841 140.595 107.41 141.192C107.989 141.789 108.278 142.615 108.278 143.67C108.278 144.305 108.152 144.874 107.9 145.378C107.658 145.882 107.284 146.283 106.78 146.582C106.286 146.881 105.684 147.03 104.974 147.03C104.013 147.03 103.262 146.815 102.72 146.386C102.179 145.957 101.801 145.364 101.586 144.608C101.372 143.852 101.264 142.919 101.264 141.808C101.264 138.383 102.459 136.67 104.848 136.67C105.763 136.67 106.482 136.917 107.004 137.412C107.527 137.907 107.835 138.532 107.928 139.288H106.752ZM104.848 141.374C104.447 141.374 104.069 141.458 103.714 141.626C103.36 141.785 103.07 142.032 102.846 142.368C102.632 142.695 102.524 143.096 102.524 143.572C102.524 144.281 102.73 144.86 103.14 145.308C103.551 145.747 104.139 145.966 104.904 145.966C105.558 145.966 106.076 145.765 106.458 145.364C106.85 144.953 107.046 144.403 107.046 143.712C107.046 142.984 106.86 142.415 106.486 142.004C106.113 141.584 105.567 141.374 104.848 141.374Z" fill="#2B3674"/>
<rect x="69.5" y="130.502" width="48" height="24" rx="3.5" stroke="#DADEE7"/>
<rect x="313.5" y="130.502" width="46" height="24" rx="3.5" fill="#DADEE7"/>
<path d="M322.33 147.002V137.006H323.744L328.294 145.238H328.35C328.341 144.995 328.327 144.715 328.308 144.398C328.289 144.081 328.275 143.763 328.266 143.446C328.257 143.119 328.252 142.839 328.252 142.606V137.006H329.358V147.002H327.986L323.38 138.742H323.324C323.343 138.985 323.357 139.274 323.366 139.61C323.385 139.937 323.399 140.263 323.408 140.59C323.427 140.917 323.436 141.206 323.436 141.458V147.002H322.33ZM330.688 147.002V146.036H334.286V147.002H330.688ZM332.48 145.126C332.079 145.126 331.719 145.037 331.402 144.86C331.094 144.673 330.851 144.403 330.674 144.048C330.497 143.693 330.408 143.259 330.408 142.746C330.408 141.981 330.595 141.397 330.968 140.996C331.351 140.585 331.869 140.38 332.522 140.38C332.923 140.38 333.278 140.473 333.586 140.66C333.903 140.837 334.151 141.103 334.328 141.458C334.515 141.803 334.608 142.233 334.608 142.746C334.608 143.511 334.417 144.099 334.034 144.51C333.651 144.921 333.133 145.126 332.48 145.126ZM332.508 144.314C332.919 144.314 333.213 144.183 333.39 143.922C333.567 143.651 333.656 143.259 333.656 142.746C333.656 142.223 333.567 141.841 333.39 141.598C333.213 141.346 332.919 141.22 332.508 141.22C332.107 141.22 331.813 141.346 331.626 141.598C331.439 141.841 331.346 142.223 331.346 142.746C331.346 143.259 331.435 143.651 331.612 143.922C331.799 144.183 332.097 144.314 332.508 144.314ZM335.805 138.042V136.88H338.437V147.002H337.149V138.042H335.805ZM340.29 138.042V136.88H342.922V147.002H341.634V138.042H340.29ZM351.34 137.874L347.448 147.002H346.16L350.108 138H344.704V136.908H351.34V137.874Z" fill="#2B3674"/>
<rect x="313.5" y="130.502" width="46" height="24" rx="3.5" stroke="#DADEE7"/>
<rect x="552" y="151.002" width="19" height="17" rx="4" fill="#DADEE7"/>
<path d="M563.45 163.002L562.59 160.792H559.76L558.91 163.002H558L560.79 155.832H561.6L564.38 163.002H563.45ZM561.52 157.832C561.5 157.779 561.467 157.682 561.42 157.542C561.373 157.402 561.327 157.259 561.28 157.112C561.24 156.959 561.207 156.842 561.18 156.762C561.147 156.895 561.11 157.032 561.07 157.172C561.037 157.305 561 157.429 560.96 157.542C560.927 157.655 560.897 157.752 560.87 157.832L560.06 159.992H562.32L561.52 157.832Z" fill="#2B3674"/>
<rect x="255" y="151.002" width="19" height="17" rx="4" fill="#DADEE7"/>
<path d="M266.45 163.002L265.59 160.792H262.76L261.91 163.002H261L263.79 155.832H264.6L267.38 163.002H266.45ZM264.52 157.832C264.5 157.779 264.467 157.682 264.42 157.542C264.373 157.402 264.327 157.259 264.28 157.112C264.24 156.959 264.207 156.842 264.18 156.762C264.147 156.895 264.11 157.032 264.07 157.172C264.037 157.305 264 157.429 263.96 157.542C263.927 157.655 263.897 157.752 263.87 157.832L263.06 159.992H265.32L264.52 157.832Z" fill="#2B3674"/>
<rect x="37" y="151.002" width="19" height="17" rx="4" fill="#DADEE7"/>
<path d="M48.45 163.002L47.59 160.792H44.76L43.91 163.002H43L45.79 155.832H46.6L49.38 163.002H48.45ZM46.52 157.832C46.5 157.779 46.4667 157.682 46.42 157.542C46.3733 157.402 46.3267 157.259 46.28 157.112C46.24 156.959 46.2067 156.842 46.18 156.762C46.1467 156.895 46.11 157.032 46.07 157.172C46.0367 157.305 46 157.429 45.96 157.542C45.9267 157.655 45.8967 157.752 45.87 157.832L45.06 159.992H47.32L46.52 157.832Z" fill="#2B3674"/>
<rect x="703" y="151.002" width="19" height="17" rx="4" fill="#DADEE7"/>
<path d="M709.97 163.002V155.862H714.21V156.652H710.87V158.882H711.93C712.643 158.882 713.197 158.972 713.59 159.152C713.983 159.325 714.257 159.565 714.41 159.872C714.563 160.172 714.64 160.519 714.64 160.912C714.64 161.345 714.553 161.719 714.38 162.032C714.213 162.345 713.94 162.585 713.56 162.752C713.18 162.919 712.68 163.002 712.06 163.002H709.97ZM711.97 162.232C712.61 162.232 713.06 162.125 713.32 161.912C713.58 161.692 713.71 161.359 713.71 160.912C713.71 160.605 713.647 160.362 713.52 160.182C713.4 159.995 713.2 159.862 712.92 159.782C712.647 159.702 712.28 159.662 711.82 159.662H710.87V162.232H711.97Z" fill="#2B3674"/>
<rect x="406" y="151.002" width="19" height="17" rx="4" fill="#DADEE7"/>
<path d="M412.97 163.002V155.862H417.21V156.652H413.87V158.882H414.93C415.643 158.882 416.197 158.972 416.59 159.152C416.983 159.325 417.257 159.565 417.41 159.872C417.563 160.172 417.64 160.519 417.64 160.912C417.64 161.345 417.553 161.719 417.38 162.032C417.213 162.345 416.94 162.585 416.56 162.752C416.18 162.919 415.68 163.002 415.06 163.002H412.97ZM414.97 162.232C415.61 162.232 416.06 162.125 416.32 161.912C416.58 161.692 416.71 161.359 416.71 160.912C416.71 160.605 416.647 160.362 416.52 160.182C416.4 159.995 416.2 159.862 415.92 159.782C415.647 159.702 415.28 159.662 414.82 159.662H413.87V162.232H414.97Z" fill="#2B3674"/>
<rect x="136" y="151.002" width="19" height="17" rx="4" fill="#DADEE7"/>
<path d="M142.97 163.002V155.862H147.21V156.652H143.87V158.882H144.93C145.643 158.882 146.197 158.972 146.59 159.152C146.983 159.325 147.257 159.565 147.41 159.872C147.563 160.172 147.64 160.519 147.64 160.912C147.64 161.345 147.553 161.719 147.38 162.032C147.213 162.345 146.94 162.585 146.56 162.752C146.18 162.919 145.68 163.002 145.06 163.002H142.97ZM144.97 162.232C145.61 162.232 146.06 162.125 146.32 161.912C146.58 161.692 146.71 161.359 146.71 160.912C146.71 160.605 146.647 160.362 146.52 160.182C146.4 159.995 146.2 159.862 145.92 159.782C145.647 159.702 145.28 159.662 144.82 159.662H143.87V162.232H144.97Z" fill="#2B3674"/>
<rect x="8.5" y="14.5" width="227.219" height="46.9999" rx="3.5" fill="#DADEE7" stroke="#DADEE7"/>
<g clip-path="url(#clip0_202_29)">
<path d="M118.054 39.6449L127.769 35.223C129.327 34.514 128.493 32.2537 126.974 32.5311C125.751 30.1606 123.478 29.1573 121.122 29.5559C118.306 25.0126 110.873 26.8415 110.873 32.5554L110.873 50.5999C110.873 50.706 110.915 50.8077 110.99 50.8827C111.065 50.9577 111.167 50.9999 111.273 50.9999C111.379 50.9999 111.481 50.9577 111.556 50.8827C111.631 50.8077 111.673 50.706 111.673 50.5999L111.673 32.5554C111.673 27.7733 117.813 26.1567 120.297 29.7544C119.776 29.9179 119.277 30.1462 118.812 30.4339C116.992 28.349 113.255 29.5045 113.255 32.5554L113.255 50.5999C113.255 50.706 113.297 50.8077 113.372 50.8827C113.447 50.9577 113.549 50.9999 113.655 50.9999C113.761 50.9999 113.863 50.9577 113.938 50.8827C114.013 50.8077 114.055 50.706 114.055 50.5999L114.055 32.5554C114.055 30.2619 116.834 29.4548 118.159 30.9C116.317 32.402 115.552 34.774 116.546 37.2772C115.347 38.2345 116.481 40.361 118.054 39.6449ZM117.214 37.8007C117.311 37.7568 117.386 37.6763 117.423 37.5769C117.461 37.4776 117.457 37.3675 117.413 37.271C114.762 31.4467 123.335 27.4096 126.223 32.8215L118.343 36.408C118.295 36.4295 118.252 36.4603 118.215 36.4987C118.179 36.5371 118.151 36.5822 118.132 36.6316C118.113 36.681 118.104 36.7336 118.106 36.7864C118.108 36.8391 118.12 36.8911 118.142 36.9391C118.164 36.9872 118.195 37.0304 118.234 37.0664C118.272 37.1023 118.318 37.1303 118.367 37.1486C118.417 37.1669 118.469 37.1752 118.522 37.1731C118.575 37.1709 118.627 37.1584 118.675 37.1361L126.93 33.3788C127.689 33.0411 128.177 34.1583 127.438 34.4949L117.722 38.9168C116.977 39.2561 116.469 38.1401 117.214 37.8007Z" fill="#2B3674"/>
<path d="M124.259 40.1211L123.887 39.1392C123.848 39.0415 123.773 38.963 123.676 38.9205C123.58 38.8781 123.471 38.8752 123.373 38.9124C123.275 38.9496 123.195 39.024 123.151 39.1194C123.107 39.2149 123.103 39.3237 123.139 39.4225L123.511 40.4045C123.529 40.4536 123.557 40.4985 123.593 40.5368C123.629 40.5751 123.672 40.6059 123.72 40.6275C123.768 40.649 123.82 40.661 123.872 40.6626C123.925 40.6642 123.977 40.6554 124.026 40.6368C124.075 40.6182 124.12 40.5901 124.159 40.5542C124.197 40.5182 124.228 40.475 124.249 40.4271C124.271 40.3792 124.283 40.3275 124.284 40.275C124.286 40.2225 124.277 40.1702 124.259 40.1211ZM127.093 47.6053L126.384 45.7342C126.366 45.6845 126.338 45.6389 126.302 45.6001C126.267 45.5612 126.223 45.5298 126.175 45.5078C126.127 45.4858 126.075 45.4735 126.022 45.4718C125.969 45.47 125.917 45.4787 125.867 45.4975C125.818 45.5162 125.772 45.5446 125.734 45.5809C125.695 45.6173 125.665 45.6609 125.643 45.7093C125.622 45.7577 125.61 45.8098 125.609 45.8627C125.608 45.9156 125.617 45.9683 125.636 46.0175L126.345 47.8886C126.383 47.9866 126.459 48.0655 126.555 48.1082C126.651 48.1509 126.76 48.1539 126.859 48.1166C126.957 48.0794 127.037 48.0048 127.081 47.9091C127.125 47.8133 127.129 47.7042 127.093 47.6053ZM125.676 43.8632L124.967 41.9921C124.93 41.8929 124.854 41.8127 124.758 41.7691C124.661 41.7255 124.551 41.7222 124.452 41.7597C124.352 41.7973 124.272 41.8728 124.229 41.9695C124.185 42.0662 124.182 42.1763 124.219 42.2755L124.928 44.1465C124.965 44.2457 125.041 44.3259 125.137 44.3695C125.234 44.4131 125.344 44.4165 125.443 44.3789C125.543 44.3413 125.623 44.2659 125.666 44.1692C125.71 44.0724 125.713 43.9624 125.676 43.8632ZM127.802 49.4763C127.764 49.3771 127.689 49.2969 127.592 49.2533C127.495 49.2098 127.385 49.2064 127.286 49.244C127.187 49.2815 127.106 49.357 127.063 49.4537C127.019 49.5504 127.016 49.6605 127.053 49.7597L127.425 50.7416C127.454 50.8175 127.505 50.8829 127.572 50.9291C127.639 50.9753 127.718 51 127.799 51C128.078 51 128.273 50.7203 128.173 50.4583L127.802 49.4763ZM121.255 41.5367L121.084 40.5008C121.067 40.3961 121.008 40.3027 120.922 40.2409C120.836 40.1791 120.729 40.1541 120.624 40.1714C120.572 40.1799 120.523 40.1986 120.478 40.2263C120.433 40.2541 120.395 40.2903 120.364 40.333C120.334 40.3757 120.312 40.424 120.3 40.4752C120.288 40.5264 120.286 40.5794 120.295 40.6312L120.466 41.6671C120.483 41.7716 120.541 41.865 120.628 41.9266C120.714 41.9883 120.821 42.0132 120.926 41.996C121.03 41.9787 121.124 41.9206 121.185 41.8345C121.247 41.7484 121.272 41.6413 121.255 41.5367ZM122.069 46.4674L121.662 44.002C121.654 43.9502 121.635 43.9005 121.607 43.8559C121.58 43.8113 121.543 43.7726 121.501 43.742C121.458 43.7114 121.41 43.6895 121.358 43.6776C121.307 43.6657 121.254 43.664 121.202 43.6726C121.151 43.6811 121.101 43.6998 121.056 43.7275C121.012 43.7553 120.973 43.7915 120.942 43.8342C120.912 43.8769 120.89 43.9253 120.878 43.9764C120.866 44.0276 120.864 44.0806 120.873 44.1324L121.28 46.5978C121.297 46.7024 121.356 46.7959 121.442 46.8577C121.528 46.9195 121.635 46.9445 121.74 46.9272C121.845 46.9099 121.938 46.8517 122 46.7655C122.062 46.6793 122.087 46.572 122.069 46.4674ZM122.477 48.9327C122.459 48.8281 122.401 48.7348 122.315 48.6731C122.229 48.6115 122.121 48.5865 122.017 48.6038C121.912 48.6211 121.819 48.6791 121.757 48.7652C121.695 48.8514 121.67 48.9585 121.687 49.0631L121.858 50.099C121.874 50.1924 121.922 50.2773 121.994 50.3387C122.066 50.4 122.158 50.4337 122.253 50.4339C122.501 50.4339 122.688 50.2114 122.648 49.9686L122.477 48.9327ZM117.999 41.4011C117.778 41.3898 117.589 41.5584 117.578 41.7789L117.47 43.776C117.457 44.0051 117.64 44.1975 117.869 44.1975C117.972 44.1975 118.07 44.1582 118.144 44.0878C118.218 44.0174 118.263 43.9213 118.268 43.8192L118.376 41.8221C118.379 41.7697 118.372 41.7172 118.354 41.6676C118.337 41.6181 118.31 41.5725 118.275 41.5334C118.24 41.4943 118.197 41.4625 118.15 41.4398C118.102 41.4171 118.051 41.4039 117.999 41.4011ZM117.759 45.8407C117.538 45.829 117.349 45.9979 117.338 46.2185L117.23 48.2155C117.217 48.4446 117.4 48.6371 117.629 48.6371C117.732 48.637 117.83 48.5978 117.904 48.5274C117.978 48.457 118.023 48.3609 118.028 48.2587L118.136 46.2617C118.139 46.2093 118.132 46.1568 118.114 46.1072C118.097 46.0577 118.07 46.012 118.035 45.9729C118 45.9338 117.957 45.902 117.91 45.8793C117.862 45.8566 117.811 45.8435 117.759 45.8407ZM126.192 37.6289C126.105 37.6892 126.045 37.7817 126.026 37.8861C126.007 37.9904 126.03 38.0981 126.09 38.1853L126.688 39.049C126.748 39.1357 126.841 39.195 126.945 39.2137C127.049 39.2325 127.156 39.2093 127.243 39.1491C127.33 39.0889 127.39 38.9967 127.409 38.8927C127.428 38.7886 127.405 38.6812 127.346 38.594L126.748 37.7304C126.688 37.6431 126.596 37.5834 126.491 37.5644C126.387 37.5453 126.279 37.5685 126.192 37.6289ZM128.817 40.7221C128.757 40.6353 128.664 40.5761 128.56 40.5573C128.456 40.5385 128.349 40.5618 128.262 40.622C128.175 40.6821 128.115 40.7743 128.096 40.8784C128.077 40.9824 128.099 41.0898 128.159 41.1771L129.631 43.3051C129.668 43.3584 129.717 43.402 129.774 43.4321C129.832 43.4621 129.895 43.4778 129.96 43.4777C130.279 43.4777 130.473 43.1168 130.289 42.8502L128.817 40.7221ZM131.76 44.9784C131.7 44.8916 131.607 44.8324 131.503 44.8136C131.399 44.7948 131.292 44.8181 131.205 44.8782C131.118 44.9384 131.058 45.0306 131.039 45.1346C131.02 45.2387 131.042 45.3461 131.102 45.4334L131.699 46.2969C131.736 46.3502 131.785 46.3938 131.843 46.4238C131.9 46.4539 131.964 46.4695 132.029 46.4694C132.348 46.4694 132.542 46.1085 132.357 45.8419L131.76 44.9784ZM130.54 36.9302L129.733 36.2586C129.693 36.225 129.646 36.1997 129.596 36.1841C129.546 36.1685 129.493 36.163 129.441 36.1677C129.388 36.1725 129.338 36.1876 129.291 36.212C129.245 36.2365 129.203 36.2698 129.17 36.3102C129.136 36.3506 129.111 36.3972 129.095 36.4474C129.08 36.4975 129.074 36.5503 129.079 36.6026C129.084 36.6549 129.099 36.7057 129.123 36.7522C129.148 36.7987 129.181 36.8399 129.221 36.8735L130.028 37.5452C130.11 37.613 130.215 37.6457 130.321 37.636C130.426 37.6264 130.524 37.5751 130.592 37.4936C130.66 37.412 130.692 37.3069 130.683 37.2012C130.673 37.0956 130.622 36.9981 130.54 36.9302ZM132.983 38.963L132.176 38.2913C132.094 38.2235 131.989 38.1908 131.883 38.2005C131.778 38.2101 131.68 38.2614 131.612 38.3429C131.544 38.4245 131.512 38.5296 131.521 38.6353C131.531 38.7409 131.582 38.8384 131.664 38.9063L132.471 39.5779C132.553 39.6457 132.658 39.6784 132.763 39.6688C132.869 39.6591 132.966 39.6078 133.034 39.5263C133.102 39.4447 133.135 39.3396 133.125 39.2339C133.116 39.1283 133.064 39.0308 132.983 38.963Z" fill="#2B3674"/>
</g>
<path fill-rule="evenodd" clip-rule="evenodd" d="M686 68.999V1.99902H687.5V68.999C687.5 70.932 689.067 72.499 691 72.499H793V73.999H691C688.239 73.999 686 71.7604 686 68.999ZM878 73.999H979C981.761 73.999 984 71.7604 984 68.999V1.99902H982.5V68.999C982.5 70.932 980.933 72.499 979 72.499H878V73.999Z" fill="#B0BBD5"/>
<path fill-rule="evenodd" clip-rule="evenodd" d="M389 68.999V1.99902H390.5V68.999C390.5 70.932 392.067 72.499 394 72.499H496V73.999H394C391.239 73.999 389 71.7604 389 68.999ZM581 73.999H682C684.761 73.999 687 71.7604 687 68.999V1.99902H685.5V68.999C685.5 70.932 683.933 72.499 682 72.499H581V73.999Z" fill="#B0BBD5"/>
<path fill-rule="evenodd" clip-rule="evenodd" d="M0 69L0 33L1.5 32.8094L1.5 69C1.5 70.933 3.067 72.5 5 72.5L77.5209 72.5L77.5209 74L4.99999 74C2.23857 74 0 71.7614 0 69ZM167.75 74L239 74C241.761 74 244 71.7614 244 69L244 2L242.5 2.19057L242.5 69C242.5 70.933 240.933 72.5 239 72.5L167.75 72.5V74Z" fill="#B0BBD5"/>
<path fill-rule="evenodd" clip-rule="evenodd" d="M192 150.001L192 217.001L190.5 216.678L190.5 150.001C190.5 148.068 188.933 146.501 187 146.501L131 146.501L131 145.001L187 145.001C189.761 145.001 192 147.24 192 150.001ZM60 145.001L5.00001 145.001C2.23858 145.001 6.09874e-06 147.24 5.85733e-06 150.001L3.61785e-06 175.618L1.5 175.941L1.50001 150.001C1.50001 148.068 3.06701 146.501 5.00001 146.501L60 146.501L60 145.001Z" fill="#B0BBD5"/>
<rect x="636" y="174.001" width="2" height="43" rx="1" fill="#B0BBD5"/>
<rect x="339" y="174.001" width="2" height="43" rx="1" fill="#B0BBD5"/>
<rect x="95" y="174.001" width="2" height="43" rx="1" fill="#B0BBD5"/>
<defs>
<clipPath id="clip0_202_29">
<rect width="24" height="24" fill="white" transform="translate(110 27)"/>
</clipPath>
</defs>
</svg>
