<svg width="26" height="33" viewBox="0 0 26 33" fill="none" xmlns="http://www.w3.org/2000/svg">
<rect x="3.68408" y="2.70685" width="19.4444" height="30.2951" rx="4" fill="#FF1A63"/>
<mask id="path-2-inside-1_0_998" fill="white">
<path d="M0.90625 6.00196C0.90625 2.68825 3.59254 0.00195312 6.90625 0.00195312H19.9062C23.22 0.00195312 25.9062 2.68825 25.9062 6.00195V19.4774H0.90625V6.00196Z"/>
</mask>
<path d="M-1.09375 6.00195C-1.09375 1.58368 2.48797 -1.99805 6.90625 -1.99805H19.9062C24.3245 -1.99805 27.9062 1.58368 27.9062 6.00195H23.9062C23.9062 3.79281 22.1154 2.00195 19.9062 2.00195H6.90625C4.69711 2.00195 2.90625 3.79281 2.90625 6.00195H-1.09375ZM25.9062 19.4774H0.90625H25.9062ZM-1.09375 19.4774V6.00195C-1.09375 1.58368 2.48797 -1.99805 6.90625 -1.99805V2.00195C4.69711 2.00195 2.90625 3.79281 2.90625 6.00195V19.4774H-1.09375ZM19.9062 -1.99805C24.3245 -1.99805 27.9062 1.58368 27.9062 6.00195V19.4774H23.9062V6.00195C23.9062 3.79281 22.1154 2.00195 19.9062 2.00195V-1.99805Z" fill="#FF1A63" mask="url(#path-2-inside-1_0_998)"/>
</svg>
