<svg width="90" height="26" viewBox="0 0 90 26" fill="none" xmlns="http://www.w3.org/2000/svg">
<path d="M12.194 22L6.058 13.94V22H1.612V3.748H6.058V11.756L12.142 3.748H17.368L10.296 12.692L17.628 22H12.194ZM36.0689 22H31.6229L24.1869 10.742V22H19.7409V3.748H24.1869L31.6229 15.058V3.748H36.0689V22ZM54.9437 3.748L48.6257 15.968V22H44.1797V15.968L37.8617 3.748H42.9057L46.4417 11.392L49.9517 3.748H54.9437ZM69.865 3.748V7.31H65.029V22H60.583V7.31H55.747V3.748H69.865ZM78.9344 3.748C80.8584 3.748 82.5397 4.12933 83.9784 4.892C85.417 5.65467 86.5264 6.72933 87.3064 8.116C88.1037 9.48533 88.5024 11.0713 88.5024 12.874C88.5024 14.6593 88.1037 16.2453 87.3064 17.632C86.5264 19.0187 85.4084 20.0933 83.9524 20.856C82.5137 21.6187 80.841 22 78.9344 22H72.0964V3.748H78.9344ZM78.6484 18.152C80.3297 18.152 81.6384 17.6927 82.5744 16.774C83.5104 15.8553 83.9784 14.5553 83.9784 12.874C83.9784 11.1927 83.5104 9.884 82.5744 8.948C81.6384 8.012 80.3297 7.544 78.6484 7.544H76.5424V18.152H78.6484Z" fill="#2B3674"/>
</svg>
