<svg width="1250" height="216" viewBox="0 0 1250 216" fill="none" xmlns="http://www.w3.org/2000/svg">
<rect y="0.999023" width="1250" height="215" rx="20" fill="white"/>
<path d="M9 163C9 160.791 10.7909 159 13 159H163C165.209 159 167 160.791 167 163V203C167 205.209 165.209 207 163 207H23C15.268 207 9 200.732 9 193V163Z" fill="#DADEE7"/>
<path d="M77.6761 169.15C75.1806 169.15 73.1504 171.819 73.1504 175.099C73.1504 177.685 74.4098 179.952 76.2504 180.748L75.8387 195.962C75.8324 196.207 75.8752 196.451 75.9647 196.679C76.0543 196.908 76.1886 197.116 76.3598 197.292C76.5311 197.467 76.7357 197.607 76.9618 197.702C77.1878 197.798 77.4307 197.847 77.676 197.847C77.9214 197.847 78.1642 197.798 78.3903 197.702C78.6163 197.607 78.821 197.467 78.9922 197.292C79.1635 197.116 79.2978 196.908 79.3873 196.679C79.4768 196.451 79.5197 196.207 79.5134 195.962L79.1017 180.748C80.9423 179.952 82.2017 177.685 82.2017 175.099C82.2021 171.819 80.1719 169.15 77.6761 169.15ZM78.5349 180.058C78.4487 180.087 78.3741 180.143 78.3221 180.218C78.2701 180.292 78.2435 180.382 78.2463 180.473L78.6665 195.986C78.67 196.118 78.6471 196.25 78.5989 196.373C78.5508 196.496 78.4784 196.609 78.3861 196.703C78.2938 196.798 78.1834 196.874 78.0615 196.925C77.9396 196.977 77.8086 197.003 77.6763 197.003C77.5439 197.003 77.4129 196.977 77.291 196.925C77.1691 196.874 77.0587 196.798 76.9664 196.703C76.8741 196.609 76.8018 196.496 76.7536 196.373C76.7055 196.25 76.6825 196.118 76.6861 195.986L77.1063 180.473C77.1088 180.382 77.0821 180.293 77.0301 180.218C76.9781 180.144 76.9036 180.088 76.8176 180.059C75.1574 179.501 73.998 177.462 73.998 175.099C73.998 172.287 75.6481 169.998 77.6761 169.998C79.7042 169.998 81.3545 172.287 81.3545 175.099C81.3545 177.462 80.1951 179.501 78.5349 180.058ZM88.5479 169.166C88.2786 169.118 88.001 169.169 87.7663 169.31C87.5315 169.45 87.3554 169.671 87.2704 169.931C86.0624 173.471 84.5894 179.298 84.4315 186.958C84.4299 187.035 84.4496 187.112 84.4884 187.179C84.5272 187.246 84.5837 187.301 84.6516 187.338L86.3331 188.26L85.8417 195.896C85.8258 196.142 85.8593 196.388 85.9405 196.62C86.0217 196.853 86.1487 197.067 86.3142 197.249C86.4796 197.431 86.68 197.578 86.9035 197.682C87.127 197.785 87.3689 197.842 87.615 197.85C87.8611 197.858 88.1062 197.816 88.3359 197.728C88.5655 197.639 88.7749 197.505 88.9517 197.333C89.1285 197.162 89.269 196.957 89.3649 196.73C89.4608 196.503 89.5101 196.26 89.5099 196.014V170.302C89.5136 170.028 89.4182 169.763 89.2414 169.554C89.0646 169.345 88.8183 169.208 88.5479 169.166ZM88.6625 196.014C88.6622 196.276 88.5579 196.527 88.3727 196.712C88.1874 196.897 87.9362 197.002 87.6741 197.002C87.539 197.002 87.4053 196.974 87.2813 196.92C87.1573 196.867 87.0457 196.788 86.9533 196.69C86.8608 196.591 86.7896 196.475 86.744 196.347C86.6983 196.22 86.6793 196.085 86.6879 195.95L87.1965 188.046C87.2018 187.965 87.1839 187.885 87.1451 187.814C87.1062 187.744 87.0481 187.685 86.9774 187.647L85.2852 186.719C85.4676 179.294 86.8979 173.648 88.0728 170.205C88.0956 170.137 88.142 170.079 88.2036 170.042C88.2652 170.005 88.3379 169.991 88.4088 170.002C88.4798 170.014 88.5442 170.051 88.5907 170.105C88.6372 170.16 88.6626 170.23 88.6625 170.302V196.014ZM101.426 169.15C101.37 169.15 101.315 169.161 101.264 169.183C101.212 169.204 101.165 169.235 101.126 169.274C101.087 169.314 101.055 169.361 101.034 169.412C101.013 169.463 101.002 169.519 101.002 169.574V176.523C101.003 177.343 100.729 178.14 100.225 178.787C99.7198 179.433 99.0129 179.892 98.2168 180.09C98.1231 180.114 98.0403 180.168 97.9819 180.245C97.9235 180.322 97.8932 180.417 97.8959 180.513L98.3149 195.984C98.319 196.117 98.2965 196.249 98.2486 196.373C98.2006 196.497 98.1283 196.61 98.0359 196.705C97.9435 196.8 97.8329 196.876 97.7106 196.928C97.5883 196.98 97.4569 197.007 97.3241 197.007C97.1913 197.007 97.0599 196.98 96.9376 196.928C96.8153 196.876 96.7047 196.8 96.6123 196.705C96.5199 196.61 96.4476 196.497 96.3996 196.373C96.3517 196.249 96.3292 196.117 96.3333 195.984L96.7523 180.513C96.755 180.417 96.7247 180.322 96.6663 180.245C96.6079 180.168 96.5251 180.114 96.4314 180.09C95.6349 179.893 94.9276 179.434 94.4224 178.787C93.9173 178.141 93.6433 177.343 93.6443 176.523V169.574C93.6443 169.462 93.5996 169.354 93.5202 169.275C93.4407 169.195 93.3329 169.15 93.2205 169.15C93.1081 169.15 93.0003 169.195 92.9208 169.275C92.8413 169.354 92.7966 169.462 92.7966 169.574V176.523C92.7954 177.473 93.0943 178.4 93.6506 179.172C94.207 179.943 94.9924 180.519 95.8952 180.817L95.4852 195.961C95.4783 196.207 95.5207 196.451 95.6099 196.68C95.6992 196.909 95.8335 197.118 96.0048 197.294C96.1762 197.471 96.3811 197.611 96.6076 197.706C96.834 197.802 97.0773 197.851 97.3231 197.851C97.5689 197.851 97.8123 197.802 98.0387 197.706C98.2651 197.611 98.4701 197.471 98.6414 197.294C98.8128 197.118 98.9471 196.909 99.0363 196.68C99.1256 196.451 99.168 196.207 99.1611 195.961L98.7511 180.817C99.6538 180.519 100.439 179.943 100.996 179.172C101.552 178.4 101.851 177.473 101.85 176.523V169.574C101.85 169.519 101.839 169.463 101.817 169.412C101.796 169.361 101.765 169.314 101.726 169.274C101.686 169.235 101.639 169.204 101.588 169.183C101.537 169.161 101.481 169.15 101.426 169.15Z" fill="#2B3674"/>
<path d="M95.2719 176.699C95.3275 176.699 95.3826 176.688 95.4341 176.666C95.4855 176.645 95.5323 176.614 95.5716 176.575C95.611 176.535 95.6422 176.488 95.6635 176.437C95.6848 176.386 95.6957 176.33 95.6957 176.275V169.574C95.6957 169.462 95.651 169.354 95.5715 169.275C95.4921 169.195 95.3843 169.15 95.2719 169.15C95.1594 169.15 95.0516 169.195 94.9722 169.275C94.8927 169.354 94.848 169.462 94.848 169.574V176.275C94.848 176.33 94.8589 176.386 94.8802 176.437C94.9015 176.488 94.9327 176.535 94.9721 176.575C95.0115 176.614 95.0582 176.645 95.1096 176.666C95.1611 176.688 95.2162 176.699 95.2719 176.699ZM97.3229 176.699C97.4353 176.699 97.5431 176.654 97.6226 176.575C97.7021 176.495 97.7468 176.387 97.7468 176.275V169.574C97.7468 169.462 97.7021 169.354 97.6226 169.275C97.5431 169.195 97.4353 169.15 97.3229 169.15C97.2105 169.15 97.1027 169.195 97.0232 169.275C96.9438 169.354 96.8991 169.462 96.8991 169.574V176.275C96.8991 176.33 96.91 176.386 96.9313 176.437C96.9526 176.488 96.9838 176.535 97.0232 176.575C97.0625 176.614 97.1093 176.645 97.1607 176.666C97.2121 176.688 97.2673 176.699 97.3229 176.699ZM99.374 176.699C99.4297 176.699 99.4848 176.688 99.5363 176.666C99.5877 176.645 99.6344 176.614 99.6738 176.575C99.7131 176.535 99.7444 176.488 99.7657 176.437C99.7869 176.386 99.7979 176.33 99.7979 176.275V169.574C99.7979 169.462 99.7532 169.354 99.6737 169.275C99.5942 169.195 99.4864 169.15 99.374 169.15C99.2616 169.15 99.1538 169.195 99.0743 169.275C98.9948 169.354 98.9502 169.462 98.9502 169.574V176.275C98.9502 176.387 98.9948 176.495 99.0743 176.575C99.1538 176.654 99.2616 176.699 99.374 176.699Z" fill="#2B3674"/>
<path fill-rule="evenodd" clip-rule="evenodd" d="M1230 3.99902H20C10.6112 3.99902 3 11.6102 3 20.999V195.999C3 205.388 10.6111 212.999 20 212.999H1230C1239.39 212.999 1247 205.388 1247 195.999V20.999C1247 11.6102 1239.39 3.99902 1230 3.99902ZM20 0.999023C8.95431 0.999023 0 9.95333 0 20.999V195.999C0 207.045 8.95427 215.999 20 215.999H1230C1241.05 215.999 1250 207.045 1250 195.999V20.999C1250 9.95333 1241.05 0.999023 1230 0.999023H20Z" fill="#B0BBD5"/>
<path d="M699.594 29.2188H689.313C688.923 29.2188 688.549 29.3735 688.274 29.6489C687.999 29.9244 687.844 30.298 687.844 30.6875V38.0312H680.5C680.111 38.0312 679.737 38.186 679.461 38.4614C679.186 38.7369 679.031 39.1105 679.031 39.5V46.8438H671.688C671.298 46.8438 670.924 46.9985 670.649 47.2739C670.374 47.5494 670.219 47.923 670.219 48.3125V55.6562H661.406C661.017 55.6562 660.643 55.811 660.368 56.0864C660.092 56.3619 659.938 56.7355 659.938 57.125C659.938 57.5145 660.092 57.8881 660.368 58.1636C660.643 58.439 661.017 58.5938 661.406 58.5938H671.688C672.077 58.5938 672.451 58.439 672.726 58.1636C673.002 57.8881 673.156 57.5145 673.156 57.125V49.7812H680.5C680.89 49.7812 681.263 49.6265 681.539 49.3511C681.814 49.0756 681.969 48.702 681.969 48.3125V40.9688H689.313C689.702 40.9688 690.076 40.814 690.351 40.5386C690.627 40.2631 690.781 39.8895 690.781 39.5V32.1562H699.594C699.983 32.1562 700.357 32.0015 700.632 31.7261C700.908 31.4506 701.063 31.077 701.063 30.6875C701.063 30.298 700.908 29.9244 700.632 29.6489C700.357 29.3735 699.983 29.2188 699.594 29.2188ZM661.406 42.4375C661.6 42.4386 661.791 42.4016 661.97 42.3285C662.149 42.2554 662.312 42.1477 662.449 42.0116L679.031 25.4294V27.2506C679.031 27.6402 679.186 28.0137 679.461 28.2892C679.737 28.5646 680.111 28.7194 680.5 28.7194C680.89 28.7194 681.263 28.5646 681.539 28.2892C681.814 28.0137 681.969 27.6402 681.969 27.2506V21.875C681.969 21.4855 681.814 21.1119 681.539 20.8364C681.263 20.561 680.89 20.4062 680.5 20.4062H675.124C674.735 20.4062 674.361 20.561 674.086 20.8364C673.81 21.1119 673.656 21.4855 673.656 21.875C673.656 22.2645 673.81 22.6381 674.086 22.9136C674.361 23.189 674.735 23.3438 675.124 23.3438H676.946L660.363 39.9259C660.156 40.1314 660.015 40.3938 659.958 40.6799C659.9 40.9659 659.929 41.2626 660.041 41.532C660.153 41.8014 660.343 42.0314 660.586 42.1927C660.829 42.354 661.115 42.4392 661.406 42.4375Z" fill="#B0BBD5"/>
<path fill-rule="evenodd" clip-rule="evenodd" d="M788 68L788 0L788 1.00004L789.5 1.00004L789.5 68C789.5 69.933 791.067 71.5 793 71.5L849 71.5L849 73L793 73C790.239 73 788 70.7614 788 68ZM920 73L975 73C977.761 73 980 70.7615 980 68L980 1.00003L978.5 1.00003L978.5 68C978.5 69.933 976.933 71.5 975 71.5L920 71.5L920 73Z" fill="#B0BBD5"/>
<path fill-rule="evenodd" clip-rule="evenodd" d="M979 68L979 1L980.5 1L980.5 68C980.5 69.933 982.067 71.5 984 71.5L1040 71.5L1040 73L984 73C981.239 73 979 70.7614 979 68ZM1111 73L1166 73C1168.76 73 1171 70.7615 1171 68L1171 1.00003L1169.5 1.00003L1169.5 68C1169.5 69.933 1167.93 71.5 1166 71.5L1111 71.5L1111 73Z" fill="#B0BBD5"/>
<rect x="288" y="44" width="2" height="43" rx="1" transform="rotate(-180 288 44)" fill="#B0BBD5"/>
<rect x="309.687" y="13.705" width="19.4444" height="30.2951" rx="4" fill="#DADEE7"/>
<mask id="path-11-inside-1_0_852" fill="white">
<path d="M306.909 17C306.909 13.6863 309.595 11 312.909 11L325.909 11C329.223 11 331.909 13.6863 331.909 17L331.909 30.4754L306.909 30.4754L306.909 17Z"/>
</mask>
<path d="M304.909 17C304.909 12.5817 308.491 9 312.909 9L325.909 9C330.327 9 333.909 12.5817 333.909 17L329.909 17C329.909 14.7909 328.118 13 325.909 13L312.909 13C310.7 13 308.909 14.7909 308.909 17L304.909 17ZM331.909 30.4754L306.909 30.4754L331.909 30.4754ZM304.909 30.4754L304.909 17C304.909 12.5817 308.491 9 312.909 9L312.909 13C310.7 13 308.909 14.7909 308.909 17L308.909 30.4754L304.909 30.4754ZM325.909 9C330.327 9 333.909 12.5817 333.909 17L333.909 30.4754L329.909 30.4754L329.909 17C329.909 14.7909 328.118 13 325.909 13L325.909 9Z" fill="#DADEE7" mask="url(#path-11-inside-1_0_852)"/>
<rect x="118.687" y="13.705" width="19.4444" height="30.2951" rx="4" fill="#DADEE7"/>
<mask id="path-14-inside-2_0_852" fill="white">
<path d="M115.909 17C115.909 13.6863 118.595 11 121.909 11L134.909 11C138.223 11 140.909 13.6863 140.909 17L140.909 30.4754L115.909 30.4754L115.909 17Z"/>
</mask>
<path d="M113.909 17C113.909 12.5817 117.491 9 121.909 9L134.909 9C139.327 9 142.909 12.5817 142.909 17L138.909 17C138.909 14.7909 137.118 13 134.909 13L121.909 13C119.7 13 117.909 14.7909 117.909 17L113.909 17ZM140.909 30.4754L115.909 30.4754L140.909 30.4754ZM113.909 30.4754L113.909 17C113.909 12.5817 117.491 9 121.909 9L121.909 13C119.7 13 117.909 14.7909 117.909 17L117.909 30.4754L113.909 30.4754ZM134.909 9C139.327 9 142.909 12.5817 142.909 17L142.909 30.4754L138.909 30.4754L138.909 17C138.909 14.7909 137.118 13 134.909 13L134.909 9Z" fill="#DADEE7" mask="url(#path-14-inside-2_0_852)"/>
<rect x="500.687" y="13.705" width="19.4444" height="30.2951" rx="4" fill="#DADEE7"/>
<mask id="path-17-inside-3_0_852" fill="white">
<path d="M497.909 17C497.909 13.6863 500.595 11 503.909 11L516.909 11C520.223 11 522.909 13.6863 522.909 17L522.909 30.4754L497.909 30.4754L497.909 17Z"/>
</mask>
<path d="M495.909 17C495.909 12.5817 499.491 9 503.909 9L516.909 9C521.327 9 524.909 12.5817 524.909 17L520.909 17C520.909 14.7909 519.118 13 516.909 13L503.909 13C501.7 13 499.909 14.7909 499.909 17L495.909 17ZM522.909 30.4754L497.909 30.4754L522.909 30.4754ZM495.909 30.4754L495.909 17C495.909 12.5817 499.491 9 503.909 9L503.909 13C501.7 13 499.909 14.7909 499.909 17L499.909 30.4754L495.909 30.4754ZM516.909 9C521.327 9 524.909 12.5817 524.909 17L524.909 30.4754L520.909 30.4754L520.909 17C520.909 14.7909 519.118 13 516.909 13L516.909 9Z" fill="#DADEE7" mask="url(#path-17-inside-3_0_852)"/>
<rect x="212.773" y="13.705" width="19.4444" height="30.2951" rx="4" fill="#DADEE7"/>
<mask id="path-20-inside-4_0_852" fill="white">
<path d="M209.996 17C209.996 13.6863 212.682 11 215.996 11L228.996 11C232.309 11 234.996 13.6863 234.996 17L234.996 30.4754L209.996 30.4754L209.996 17Z"/>
</mask>
<path d="M207.996 17C207.996 12.5817 211.577 9 215.996 9L228.996 9C233.414 9 236.996 12.5817 236.996 17L232.996 17C232.996 14.7909 231.205 13 228.996 13L215.996 13C213.786 13 211.996 14.7909 211.996 17L207.996 17ZM234.996 30.4754L209.996 30.4754L234.996 30.4754ZM207.996 30.4754L207.996 17C207.996 12.5817 211.577 9 215.996 9L215.996 13C213.786 13 211.996 14.7909 211.996 17L211.996 30.4754L207.996 30.4754ZM228.996 9C233.414 9 236.996 12.5817 236.996 17L236.996 30.4754L232.996 30.4754L232.996 17C232.996 14.7909 231.205 13 228.996 13L228.996 9Z" fill="#DADEE7" mask="url(#path-20-inside-4_0_852)"/>
<rect x="21.7734" y="13.705" width="19.4444" height="30.2951" rx="4" fill="#DADEE7"/>
<mask id="path-23-inside-5_0_852" fill="white">
<path d="M18.9956 17C18.9956 13.6863 21.6819 11 24.9956 11L37.9956 11C41.3093 11 43.9956 13.6863 43.9956 17L43.9956 30.4754L18.9956 30.4754L18.9956 17Z"/>
</mask>
<path d="M16.9956 17C16.9956 12.5817 20.5773 9 24.9956 9L37.9956 9C42.4139 9 45.9956 12.5817 45.9956 17L41.9956 17C41.9956 14.7909 40.2047 13 37.9956 13L24.9956 13C22.7865 13 20.9956 14.7909 20.9956 17L16.9956 17ZM43.9956 30.4754L18.9956 30.4754L43.9956 30.4754ZM16.9956 30.4754L16.9956 17C16.9956 12.5817 20.5773 9 24.9956 9L24.9956 13C22.7865 13 20.9956 14.7909 20.9956 17L20.9956 30.4754L16.9956 30.4754ZM37.9956 9C42.4139 9 45.9956 12.5817 45.9956 17L45.9956 30.4754L41.9956 30.4754L41.9956 17C41.9956 14.7909 40.2047 13 37.9956 13L37.9956 9Z" fill="#DADEE7" mask="url(#path-23-inside-5_0_852)"/>
<rect x="403.773" y="13.705" width="19.4444" height="30.2951" rx="4" fill="#DADEE7"/>
<mask id="path-26-inside-6_0_852" fill="white">
<path d="M400.996 17C400.996 13.6863 403.682 11 406.996 11L419.996 11C423.309 11 425.996 13.6863 425.996 17L425.996 30.4754L400.996 30.4754L400.996 17Z"/>
</mask>
<path d="M398.996 17C398.996 12.5817 402.577 9 406.996 9L419.996 9C424.414 9 427.996 12.5817 427.996 17L423.996 17C423.996 14.7909 422.205 13 419.996 13L406.996 13C404.786 13 402.996 14.7909 402.996 17L398.996 17ZM425.996 30.4754L400.996 30.4754L425.996 30.4754ZM398.996 30.4754L398.996 17C398.996 12.5817 402.577 9 406.996 9L406.996 13C404.786 13 402.996 14.7909 402.996 17L402.996 30.4754L398.996 30.4754ZM419.996 9C424.414 9 427.996 12.5817 427.996 17L427.996 30.4754L423.996 30.4754L423.996 17C423.996 14.7909 422.205 13 419.996 13L419.996 9Z" fill="#DADEE7" mask="url(#path-26-inside-6_0_852)"/>
<rect x="341.155" y="13.705" width="19.4444" height="30.2951" rx="4" fill="#DADEE7"/>
<mask id="path-29-inside-7_0_852" fill="white">
<path d="M338.377 17C338.377 13.6863 341.063 11 344.377 11L357.377 11C360.691 11 363.377 13.6863 363.377 17L363.377 30.4754L338.377 30.4754L338.377 17Z"/>
</mask>
<path d="M336.377 17C336.377 12.5817 339.959 9 344.377 9L357.377 9C361.795 9 365.377 12.5817 365.377 17L361.377 17C361.377 14.7909 359.586 13 357.377 13L344.377 13C342.168 13 340.377 14.7909 340.377 17L336.377 17ZM363.377 30.4754L338.377 30.4754L363.377 30.4754ZM336.377 30.4754L336.377 17C336.377 12.5817 339.959 9 344.377 9L344.377 13C342.168 13 340.377 14.7909 340.377 17L340.377 30.4754L336.377 30.4754ZM357.377 9C361.795 9 365.377 12.5817 365.377 17L365.377 30.4754L361.377 30.4754L361.377 17C361.377 14.7909 359.586 13 357.377 13L357.377 9Z" fill="#DADEE7" mask="url(#path-29-inside-7_0_852)"/>
<rect x="150.155" y="13.705" width="19.4444" height="30.2951" rx="4" fill="#DADEE7"/>
<mask id="path-32-inside-8_0_852" fill="white">
<path d="M147.377 17C147.377 13.6863 150.063 11 153.377 11L166.377 11C169.691 11 172.377 13.6863 172.377 17L172.377 30.4754L147.377 30.4754L147.377 17Z"/>
</mask>
<path d="M145.377 17C145.377 12.5817 148.959 9 153.377 9L166.377 9C170.795 9 174.377 12.5817 174.377 17L170.377 17C170.377 14.7909 168.586 13 166.377 13L153.377 13C151.168 13 149.377 14.7909 149.377 17L145.377 17ZM172.377 30.4754L147.377 30.4754L172.377 30.4754ZM145.377 30.4754L145.377 17C145.377 12.5817 148.959 9 153.377 9L153.377 13C151.168 13 149.377 14.7909 149.377 17L149.377 30.4754L145.377 30.4754ZM166.377 9C170.795 9 174.377 12.5817 174.377 17L174.377 30.4754L170.377 30.4754L170.377 17C170.377 14.7909 168.586 13 166.377 13L166.377 9Z" fill="#DADEE7" mask="url(#path-32-inside-8_0_852)"/>
<rect x="532.155" y="13.705" width="19.4444" height="30.2951" rx="4" fill="#DADEE7"/>
<mask id="path-35-inside-9_0_852" fill="white">
<path d="M529.377 17C529.377 13.6863 532.064 11 535.377 11L548.377 11C551.691 11 554.377 13.6863 554.377 17L554.377 30.4754L529.377 30.4754L529.377 17Z"/>
</mask>
<path d="M527.377 17C527.377 12.5817 530.959 9 535.377 9L548.377 9C552.796 9 556.377 12.5817 556.377 17L552.377 17C552.377 14.7909 550.587 13 548.377 13L535.377 13C533.168 13 531.377 14.7909 531.377 17L527.377 17ZM554.377 30.4754L529.377 30.4754L554.377 30.4754ZM527.377 30.4754L527.377 17C527.377 12.5817 530.959 9 535.377 9L535.377 13C533.168 13 531.377 14.7909 531.377 17L531.377 30.4754L527.377 30.4754ZM548.377 9C552.796 9 556.377 12.5817 556.377 17L556.377 30.4754L552.377 30.4754L552.377 17C552.377 14.7909 550.587 13 548.377 13L548.377 9Z" fill="#DADEE7" mask="url(#path-35-inside-9_0_852)"/>
<rect x="244.241" y="13.705" width="19.4444" height="30.295" rx="4" fill="#DADEE7"/>
<mask id="path-38-inside-10_0_852" fill="white">
<path d="M241.463 17C241.464 13.6863 244.15 11 247.464 11L260.464 11C263.777 11 266.464 13.6863 266.463 17L266.463 30.4754L241.463 30.4754L241.463 17Z"/>
</mask>
<path d="M239.463 17C239.464 12.5817 243.045 9 247.464 9L260.464 9C264.882 9 268.464 12.5817 268.463 17L264.463 17C264.464 14.7909 262.673 13 260.464 13L247.464 13C245.254 13 243.464 14.7909 243.463 17L239.463 17ZM266.463 30.4754L241.463 30.4754L266.463 30.4754ZM239.463 30.4754L239.463 17C239.464 12.5817 243.045 9 247.464 9L247.464 13C245.254 13 243.464 14.7909 243.463 17L243.463 30.4754L239.463 30.4754ZM260.464 9C264.882 9 268.464 12.5817 268.463 17L268.463 30.4754L264.463 30.4754L264.463 17C264.464 14.7909 262.673 13 260.464 13L260.464 9Z" fill="#DADEE7" mask="url(#path-38-inside-10_0_852)"/>
<rect x="53.2413" y="13.705" width="19.4444" height="30.295" rx="4" fill="#DADEE7"/>
<mask id="path-41-inside-11_0_852" fill="white">
<path d="M50.4635 17C50.4635 13.6863 53.1498 11 56.4635 11L69.4635 11C72.7772 11 75.4635 13.6863 75.4635 17L75.4635 30.4754L50.4635 30.4754L50.4635 17Z"/>
</mask>
<path d="M48.4635 17C48.4635 12.5817 52.0452 9 56.4635 9L69.4635 9C73.8818 9 77.4635 12.5817 77.4635 17L73.4635 17C73.4635 14.7909 71.6726 13 69.4635 13L56.4635 13C54.2544 13 52.4635 14.7909 52.4635 17L48.4635 17ZM75.4635 30.4754L50.4635 30.4754L75.4635 30.4754ZM48.4635 30.4754L48.4635 17C48.4635 12.5817 52.0452 9 56.4635 9L56.4635 13C54.2544 13 52.4635 14.7909 52.4635 17L52.4635 30.4754L48.4635 30.4754ZM69.4635 9C73.8818 9 77.4635 12.5817 77.4635 17L77.4635 30.4754L73.4635 30.4754L73.4635 17C73.4635 14.7909 71.6726 13 69.4635 13L69.4635 9Z" fill="#DADEE7" mask="url(#path-41-inside-11_0_852)"/>
<rect x="435.241" y="13.705" width="19.4444" height="30.295" rx="4" fill="#DADEE7"/>
<mask id="path-44-inside-12_0_852" fill="white">
<path d="M432.463 17C432.464 13.6863 435.15 11 438.464 11L451.464 11C454.777 11 457.464 13.6863 457.463 17L457.463 30.4754L432.463 30.4754L432.463 17Z"/>
</mask>
<path d="M430.463 17C430.464 12.5817 434.045 9 438.464 9L451.464 9C455.882 9 459.464 12.5817 459.463 17L455.463 17C455.464 14.7909 453.673 13 451.464 13L438.464 13C436.254 13 434.464 14.7909 434.463 17L430.463 17ZM457.463 30.4754L432.463 30.4754L457.463 30.4754ZM430.463 30.4754L430.463 17C430.464 12.5817 434.045 9 438.464 9L438.464 13C436.254 13 434.464 14.7909 434.463 17L434.463 30.4754L430.463 30.4754ZM451.464 9C455.882 9 459.464 12.5817 459.463 17L459.463 30.4754L455.463 30.4754L455.463 17C455.464 14.7909 453.673 13 451.464 13L451.464 9Z" fill="#DADEE7" mask="url(#path-44-inside-12_0_852)"/>
<rect x="326" y="50" width="19" height="17" rx="4" fill="#DADEE7"/>
<path d="M337.45 62L336.59 59.79H333.76L332.91 62H332L334.79 54.83H335.6L338.38 62H337.45ZM335.52 56.83C335.5 56.7767 335.467 56.68 335.42 56.54C335.373 56.4 335.327 56.2567 335.28 56.11C335.24 55.9567 335.207 55.84 335.18 55.76C335.147 55.8933 335.11 56.03 335.07 56.17C335.037 56.3033 335 56.4267 334.96 56.54C334.927 56.6533 334.897 56.75 334.87 56.83L334.06 58.99H336.32L335.52 56.83Z" fill="#2B3674"/>
<rect x="135" y="50" width="19" height="17" rx="4" fill="#DADEE7"/>
<path d="M146.45 62L145.59 59.79H142.76L141.91 62H141L143.79 54.83H144.6L147.38 62H146.45ZM144.52 56.83C144.5 56.7767 144.467 56.68 144.42 56.54C144.373 56.4 144.327 56.2567 144.28 56.11C144.24 55.9567 144.207 55.84 144.18 55.76C144.147 55.8933 144.11 56.03 144.07 56.17C144.037 56.3033 144 56.4267 143.96 56.54C143.927 56.6533 143.897 56.75 143.87 56.83L143.06 58.99H145.32L144.52 56.83Z" fill="#2B3674"/>
<rect x="517" y="50" width="19" height="17" rx="4" fill="#DADEE7"/>
<path d="M528.45 62L527.59 59.79H524.76L523.91 62H523L525.79 54.83H526.6L529.38 62H528.45ZM526.52 56.83C526.5 56.7767 526.467 56.68 526.42 56.54C526.373 56.4 526.327 56.2567 526.28 56.11C526.24 55.9567 526.207 55.84 526.18 55.76C526.147 55.8933 526.11 56.03 526.07 56.17C526.037 56.3033 526 56.4267 525.96 56.54C525.927 56.6533 525.897 56.75 525.87 56.83L525.06 58.99H527.32L526.52 56.83Z" fill="#2B3674"/>
<rect x="228" y="50" width="19" height="17" rx="4" fill="#DADEE7"/>
<path d="M234.97 62V54.86H239.21V55.65H235.87V57.88H236.93C237.643 57.88 238.197 57.97 238.59 58.15C238.983 58.3233 239.257 58.5633 239.41 58.87C239.563 59.17 239.64 59.5167 239.64 59.91C239.64 60.3433 239.553 60.7167 239.38 61.03C239.213 61.3433 238.94 61.5833 238.56 61.75C238.18 61.9167 237.68 62 237.06 62H234.97ZM236.97 61.23C237.61 61.23 238.06 61.1233 238.32 60.91C238.58 60.69 238.71 60.3567 238.71 59.91C238.71 59.6033 238.647 59.36 238.52 59.18C238.4 58.9933 238.2 58.86 237.92 58.78C237.647 58.7 237.28 58.66 236.82 58.66H235.87V61.23H236.97Z" fill="#2B3674"/>
<rect x="37" y="50" width="19" height="17" rx="4" fill="#DADEE7"/>
<path d="M43.97 62V54.86H48.21V55.65H44.87V57.88H45.93C46.6433 57.88 47.1967 57.97 47.59 58.15C47.9833 58.3233 48.2567 58.5633 48.41 58.87C48.5633 59.17 48.64 59.5167 48.64 59.91C48.64 60.3433 48.5533 60.7167 48.38 61.03C48.2133 61.3433 47.94 61.5833 47.56 61.75C47.18 61.9167 46.68 62 46.06 62H43.97ZM45.97 61.23C46.61 61.23 47.06 61.1233 47.32 60.91C47.58 60.69 47.71 60.3567 47.71 59.91C47.71 59.6033 47.6467 59.36 47.52 59.18C47.4 58.9933 47.2 58.86 46.92 58.78C46.6467 58.7 46.28 58.66 45.82 58.66H44.87V61.23H45.97Z" fill="#2B3674"/>
<rect x="419" y="50" width="19" height="17" rx="4" fill="#DADEE7"/>
<path d="M425.97 62V54.86H430.21V55.65H426.87V57.88H427.93C428.643 57.88 429.197 57.97 429.59 58.15C429.983 58.3233 430.257 58.5633 430.41 58.87C430.563 59.17 430.64 59.5167 430.64 59.91C430.64 60.3433 430.553 60.7167 430.38 61.03C430.213 61.3433 429.94 61.5833 429.56 61.75C429.18 61.9167 428.68 62 428.06 62H425.97ZM427.97 61.23C428.61 61.23 429.06 61.1233 429.32 60.91C429.58 60.69 429.71 60.3567 429.71 59.91C429.71 59.6033 429.647 59.36 429.52 59.18C429.4 58.9933 429.2 58.86 428.92 58.78C428.647 58.7 428.28 58.66 427.82 58.66H426.87V61.23H427.97Z" fill="#2B3674"/>
<rect x="260" y="63" width="56" height="25" rx="4" fill="#DADEE7"/>
<path d="M269.33 80V70.004H270.744L275.294 78.236H275.35C275.341 77.9933 275.327 77.7133 275.308 77.396C275.289 77.0787 275.275 76.7613 275.266 76.444C275.257 76.1173 275.252 75.8373 275.252 75.604V70.004H276.358V80H274.986L270.38 71.74H270.324C270.343 71.9827 270.357 72.272 270.366 72.608C270.385 72.9347 270.399 73.2613 270.408 73.588C270.427 73.9147 270.436 74.204 270.436 74.456V80H269.33ZM277.688 80V79.034H281.286V80H277.688ZM279.48 78.124C279.079 78.124 278.719 78.0353 278.402 77.858C278.094 77.6713 277.851 77.4007 277.674 77.046C277.497 76.6913 277.408 76.2573 277.408 75.744C277.408 74.9787 277.595 74.3953 277.968 73.994C278.351 73.5833 278.869 73.378 279.522 73.378C279.923 73.378 280.278 73.4713 280.586 73.658C280.903 73.8353 281.151 74.1013 281.328 74.456C281.515 74.8013 281.608 75.2307 281.608 75.744C281.608 76.5093 281.417 77.0973 281.034 77.508C280.651 77.9187 280.133 78.124 279.48 78.124ZM279.508 77.312C279.919 77.312 280.213 77.1813 280.39 76.92C280.567 76.6493 280.656 76.2573 280.656 75.744C280.656 75.2213 280.567 74.8387 280.39 74.596C280.213 74.344 279.919 74.218 279.508 74.218C279.107 74.218 278.813 74.344 278.626 74.596C278.439 74.8387 278.346 75.2213 278.346 75.744C278.346 76.2573 278.435 76.6493 278.612 76.92C278.799 77.1813 279.097 77.312 279.508 77.312ZM282.987 78.978C284.173 78.026 285.101 77.2467 285.773 76.64C286.445 76.024 287.01 75.3847 287.467 74.722C287.934 74.05 288.167 73.392 288.167 72.748C288.167 72.1413 288.018 71.6653 287.719 71.32C287.43 70.9653 286.959 70.788 286.305 70.788C285.671 70.788 285.176 70.9887 284.821 71.39C284.476 71.782 284.289 72.3093 284.261 72.972H283.029C283.067 71.9267 283.384 71.1193 283.981 70.55C284.579 69.9807 285.349 69.696 286.291 69.696C287.253 69.696 288.013 69.962 288.573 70.494C289.143 71.026 289.427 71.7587 289.427 72.692C289.427 73.4667 289.194 74.2227 288.727 74.96C288.27 75.688 287.747 76.332 287.159 76.892C286.571 77.4427 285.82 78.0867 284.905 78.824H289.721V79.888H282.987V78.978ZM291.194 74.834C291.194 73.2287 291.456 71.978 291.978 71.082C292.501 70.1767 293.416 69.724 294.722 69.724C296.02 69.724 296.93 70.1767 297.452 71.082C297.975 71.978 298.236 73.2287 298.236 74.834C298.236 76.4673 297.975 77.7367 297.452 78.642C296.93 79.5473 296.02 80 294.722 80C293.416 80 292.501 79.5473 291.978 78.642C291.456 77.7367 291.194 76.4673 291.194 74.834ZM296.976 74.834C296.976 74.022 296.92 73.336 296.808 72.776C296.706 72.2067 296.486 71.7493 296.15 71.404C295.824 71.0587 295.348 70.886 294.722 70.886C294.088 70.886 293.602 71.0587 293.266 71.404C292.94 71.7493 292.72 72.2067 292.608 72.776C292.506 73.336 292.454 74.022 292.454 74.834C292.454 75.674 292.506 76.3787 292.608 76.948C292.72 77.5173 292.94 77.9747 293.266 78.32C293.602 78.6653 294.088 78.838 294.722 78.838C295.348 78.838 295.824 78.6653 296.15 78.32C296.486 77.9747 296.706 77.5173 296.808 76.948C296.92 76.3787 296.976 75.674 296.976 74.834ZM301.833 74.736C301.311 74.5307 300.909 74.232 300.629 73.84C300.349 73.448 300.209 72.972 300.209 72.412C300.209 71.908 300.335 71.4553 300.587 71.054C300.839 70.6433 301.213 70.3213 301.707 70.088C302.211 69.8453 302.818 69.724 303.527 69.724C304.237 69.724 304.839 69.8453 305.333 70.088C305.837 70.3213 306.215 70.6433 306.467 71.054C306.729 71.4553 306.859 71.908 306.859 72.412C306.859 72.9533 306.715 73.4293 306.425 73.84C306.136 74.2413 305.739 74.54 305.235 74.736C305.814 74.9133 306.271 75.226 306.607 75.674C306.953 76.1127 307.125 76.6447 307.125 77.27C307.125 77.8767 306.976 78.4087 306.677 78.866C306.379 79.314 305.954 79.664 305.403 79.916C304.862 80.1587 304.237 80.28 303.527 80.28C302.818 80.28 302.193 80.1587 301.651 79.916C301.119 79.664 300.704 79.314 300.405 78.866C300.107 78.4087 299.957 77.8767 299.957 77.27C299.957 76.6447 300.125 76.108 300.461 75.66C300.797 75.212 301.255 74.904 301.833 74.736ZM305.627 72.566C305.627 71.9967 305.441 71.558 305.067 71.25C304.694 70.942 304.181 70.788 303.527 70.788C302.883 70.788 302.375 70.942 302.001 71.25C301.628 71.558 301.441 72.0013 301.441 72.58C301.441 73.1027 301.633 73.5227 302.015 73.84C302.407 74.1573 302.911 74.316 303.527 74.316C304.153 74.316 304.657 74.1573 305.039 73.84C305.431 73.5133 305.627 73.0887 305.627 72.566ZM303.527 75.296C302.837 75.296 302.272 75.4593 301.833 75.786C301.395 76.1033 301.175 76.584 301.175 77.228C301.175 77.8253 301.385 78.306 301.805 78.67C302.235 79.034 302.809 79.216 303.527 79.216C304.246 79.216 304.815 79.034 305.235 78.67C305.655 78.306 305.865 77.8253 305.865 77.228C305.865 76.6027 305.651 76.1267 305.221 75.8C304.792 75.464 304.227 75.296 303.527 75.296Z" fill="#2B3674"/>
<rect x="69" y="63" width="55" height="25" rx="4" fill="#DADEE7"/>
<path d="M78.33 80V70.004H79.744L84.294 78.236H84.35C84.3407 77.9933 84.3267 77.7133 84.308 77.396C84.2893 77.0787 84.2753 76.7613 84.266 76.444C84.2567 76.1173 84.252 75.8373 84.252 75.604V70.004H85.358V80H83.986L79.38 71.74H79.324C79.3427 71.9827 79.3567 72.272 79.366 72.608C79.3847 72.9347 79.3987 73.2613 79.408 73.588C79.4267 73.9147 79.436 74.204 79.436 74.456V80H78.33ZM86.688 80V79.034H90.286V80H86.688ZM88.48 78.124C88.0787 78.124 87.7193 78.0353 87.402 77.858C87.094 77.6713 86.8513 77.4007 86.674 77.046C86.4967 76.6913 86.408 76.2573 86.408 75.744C86.408 74.9787 86.5947 74.3953 86.968 73.994C87.3507 73.5833 87.8687 73.378 88.522 73.378C88.9233 73.378 89.278 73.4713 89.586 73.658C89.9033 73.8353 90.1507 74.1013 90.328 74.456C90.5147 74.8013 90.608 75.2307 90.608 75.744C90.608 76.5093 90.4167 77.0973 90.034 77.508C89.6513 77.9187 89.1333 78.124 88.48 78.124ZM88.508 77.312C88.9187 77.312 89.2127 77.1813 89.39 76.92C89.5673 76.6493 89.656 76.2573 89.656 75.744C89.656 75.2213 89.5673 74.8387 89.39 74.596C89.2127 74.344 88.9187 74.218 88.508 74.218C88.1067 74.218 87.8127 74.344 87.626 74.596C87.4393 74.8387 87.346 75.2213 87.346 75.744C87.346 76.2573 87.4347 76.6493 87.612 76.92C87.7987 77.1813 88.0973 77.312 88.508 77.312ZM91.9874 78.978C93.1728 78.026 94.1014 77.2467 94.7734 76.64C95.4454 76.024 96.0101 75.3847 96.4674 74.722C96.9341 74.05 97.1674 73.392 97.1674 72.748C97.1674 72.1413 97.0181 71.6653 96.7194 71.32C96.4301 70.9653 95.9588 70.788 95.3054 70.788C94.6708 70.788 94.1761 70.9887 93.8214 71.39C93.4761 71.782 93.2894 72.3093 93.2614 72.972H92.0294C92.0668 71.9267 92.3841 71.1193 92.9814 70.55C93.5788 69.9807 94.3488 69.696 95.2914 69.696C96.2528 69.696 97.0134 69.962 97.5734 70.494C98.1428 71.026 98.4274 71.7587 98.4274 72.692C98.4274 73.4667 98.1941 74.2227 97.7274 74.96C97.2701 75.688 96.7474 76.332 96.1594 76.892C95.5714 77.4427 94.8201 78.0867 93.9054 78.824H98.7214V79.888H91.9874V78.978ZM100.194 74.834C100.194 73.2287 100.456 71.978 100.978 71.082C101.501 70.1767 102.416 69.724 103.722 69.724C105.02 69.724 105.93 70.1767 106.452 71.082C106.975 71.978 107.236 73.2287 107.236 74.834C107.236 76.4673 106.975 77.7367 106.452 78.642C105.93 79.5473 105.02 80 103.722 80C102.416 80 101.501 79.5473 100.978 78.642C100.456 77.7367 100.194 76.4673 100.194 74.834ZM105.976 74.834C105.976 74.022 105.92 73.336 105.808 72.776C105.706 72.2067 105.486 71.7493 105.15 71.404C104.824 71.0587 104.348 70.886 103.722 70.886C103.088 70.886 102.602 71.0587 102.266 71.404C101.94 71.7493 101.72 72.2067 101.608 72.776C101.506 73.336 101.454 74.022 101.454 74.834C101.454 75.674 101.506 76.3787 101.608 76.948C101.72 77.5173 101.94 77.9747 102.266 78.32C102.602 78.6653 103.088 78.838 103.722 78.838C104.348 78.838 104.824 78.6653 105.15 78.32C105.486 77.9747 105.706 77.5173 105.808 76.948C105.92 76.3787 105.976 75.674 105.976 74.834ZM115.215 70.872L111.323 80H110.035L113.983 70.998H108.579V69.906H115.215V70.872Z" fill="#2B3674"/>
<rect x="451" y="63" width="55" height="25" rx="4" fill="#DADEE7"/>
<path d="M460.33 80V70.004H461.744L466.294 78.236H466.35C466.341 77.9933 466.327 77.7133 466.308 77.396C466.289 77.0787 466.275 76.7613 466.266 76.444C466.257 76.1173 466.252 75.8373 466.252 75.604V70.004H467.358V80H465.986L461.38 71.74H461.324C461.343 71.9827 461.357 72.272 461.366 72.608C461.385 72.9347 461.399 73.2613 461.408 73.588C461.427 73.9147 461.436 74.204 461.436 74.456V80H460.33ZM468.688 80V79.034H472.286V80H468.688ZM470.48 78.124C470.079 78.124 469.719 78.0353 469.402 77.858C469.094 77.6713 468.851 77.4007 468.674 77.046C468.497 76.6913 468.408 76.2573 468.408 75.744C468.408 74.9787 468.595 74.3953 468.968 73.994C469.351 73.5833 469.869 73.378 470.522 73.378C470.923 73.378 471.278 73.4713 471.586 73.658C471.903 73.8353 472.151 74.1013 472.328 74.456C472.515 74.8013 472.608 75.2307 472.608 75.744C472.608 76.5093 472.417 77.0973 472.034 77.508C471.651 77.9187 471.133 78.124 470.48 78.124ZM470.508 77.312C470.919 77.312 471.213 77.1813 471.39 76.92C471.567 76.6493 471.656 76.2573 471.656 75.744C471.656 75.2213 471.567 74.8387 471.39 74.596C471.213 74.344 470.919 74.218 470.508 74.218C470.107 74.218 469.813 74.344 469.626 74.596C469.439 74.8387 469.346 75.2213 469.346 75.744C469.346 76.2573 469.435 76.6493 469.612 76.92C469.799 77.1813 470.097 77.312 470.508 77.312ZM473.987 78.978C475.173 78.026 476.101 77.2467 476.773 76.64C477.445 76.024 478.01 75.3847 478.467 74.722C478.934 74.05 479.167 73.392 479.167 72.748C479.167 72.1413 479.018 71.6653 478.719 71.32C478.43 70.9653 477.959 70.788 477.305 70.788C476.671 70.788 476.176 70.9887 475.821 71.39C475.476 71.782 475.289 72.3093 475.261 72.972H474.029C474.067 71.9267 474.384 71.1193 474.981 70.55C475.579 69.9807 476.349 69.696 477.291 69.696C478.253 69.696 479.013 69.962 479.573 70.494C480.143 71.026 480.427 71.7587 480.427 72.692C480.427 73.4667 480.194 74.2227 479.727 74.96C479.27 75.688 478.747 76.332 478.159 76.892C477.571 77.4427 476.82 78.0867 475.905 78.824H480.721V79.888H473.987V78.978ZM482.194 74.834C482.194 73.2287 482.456 71.978 482.978 71.082C483.501 70.1767 484.416 69.724 485.722 69.724C487.02 69.724 487.93 70.1767 488.452 71.082C488.975 71.978 489.236 73.2287 489.236 74.834C489.236 76.4673 488.975 77.7367 488.452 78.642C487.93 79.5473 487.02 80 485.722 80C484.416 80 483.501 79.5473 482.978 78.642C482.456 77.7367 482.194 76.4673 482.194 74.834ZM487.976 74.834C487.976 74.022 487.92 73.336 487.808 72.776C487.706 72.2067 487.486 71.7493 487.15 71.404C486.824 71.0587 486.348 70.886 485.722 70.886C485.088 70.886 484.602 71.0587 484.266 71.404C483.94 71.7493 483.72 72.2067 483.608 72.776C483.506 73.336 483.454 74.022 483.454 74.834C483.454 75.674 483.506 76.3787 483.608 76.948C483.72 77.5173 483.94 77.9747 484.266 78.32C484.602 78.6653 485.088 78.838 485.722 78.838C486.348 78.838 486.824 78.6653 487.15 78.32C487.486 77.9747 487.706 77.5173 487.808 76.948C487.92 76.3787 487.976 75.674 487.976 74.834ZM497.215 70.872L493.323 80H492.035L495.983 70.998H490.579V69.906H497.215V70.872Z" fill="#2B3674"/>
<path fill-rule="evenodd" clip-rule="evenodd" d="M191 68L191 1L192.5 1L192.5 68C192.5 69.933 194.067 71.5 196 71.5L252 71.5L252 73L196 73C193.239 73 191 70.7614 191 68ZM323 73L378 73C380.761 73 383 70.7615 383 68L383 1.00003L381.5 1.00003L381.5 68C381.5 69.933 379.933 71.5 378 71.5L323 71.5L323 73Z" fill="#B0BBD5"/>
<path fill-rule="evenodd" clip-rule="evenodd" d="M-1.17147e-05 68L-6.81138e-06 39.9565L1.49999 39.6522L1.49999 68C1.49999 69.933 3.06699 71.5 4.99999 71.5L61 71.5L61 73L4.99999 73C2.23857 73 -1.21975e-05 70.7614 -1.17147e-05 68ZM132 73L187 73C189.761 73 192 70.7615 192 68L192 1.00003L190.5 1.30438L190.5 68C190.5 69.933 188.933 71.5 187 71.5L132 71.5L132 73Z" fill="#B0BBD5"/>
<path fill-rule="evenodd" clip-rule="evenodd" d="M382 68L382 1L383.5 1L383.5 68C383.5 69.933 385.067 71.5 387 71.5L443 71.5L443 73L387 73C384.239 73 382 70.7614 382 68ZM514 73L569 73C571.761 73 574 70.7615 574 68L574 1.00003L572.5 1.00003L572.5 68C572.5 69.933 570.933 71.5 569 71.5L514 71.5L514 73Z" fill="#B0BBD5"/>
<rect x="97" y="44" width="2" height="43" rx="1" transform="rotate(-180 97 44)" fill="#B0BBD5"/>
<path fill-rule="evenodd" clip-rule="evenodd" d="M1248 147L1248 176.008L1246.5 176.596L1246.5 147C1246.5 145.067 1244.93 143.5 1243 143.5L1217.18 143.5L1217.18 142L1243 142C1245.76 142 1248 144.239 1248 147ZM1181.31 142L1156 142C1153.24 142 1151 144.239 1151 147L1151 214L1152.5 213.412L1152.5 147C1152.5 145.067 1154.07 143.5 1156 143.5L1181.31 143.5L1181.31 142Z" fill="#B0BBD5"/>
<rect x="872.567" y="175.705" width="19.4444" height="30.2951" rx="4" fill="#DADEE7"/>
<mask id="path-70-inside-13_0_852" fill="white">
<path d="M869.789 179C869.789 175.686 872.475 173 875.789 173H888.789C892.103 173 894.789 175.686 894.789 179V192.475H869.789V179Z"/>
</mask>
<path d="M867.789 179C867.789 174.582 871.371 171 875.789 171H888.789C893.207 171 896.789 174.582 896.789 179H892.789C892.789 176.791 890.998 175 888.789 175H875.789C873.58 175 871.789 176.791 871.789 179H867.789ZM894.789 192.475H869.789H894.789ZM867.789 192.475V179C867.789 174.582 871.371 171 875.789 171V175C873.58 175 871.789 176.791 871.789 179V192.475H867.789ZM888.789 171C893.207 171 896.789 174.582 896.789 179V192.475H892.789V179C892.789 176.791 890.998 175 888.789 175V171Z" fill="#DADEE7" mask="url(#path-70-inside-13_0_852)"/>
<rect x="968.481" y="175.705" width="19.4444" height="30.2951" rx="4" fill="#DADEE7"/>
<mask id="path-73-inside-14_0_852" fill="white">
<path d="M965.703 179C965.703 175.686 968.389 173 971.703 173H984.703C988.016 173 990.703 175.686 990.703 179V192.475H965.703V179Z"/>
</mask>
<path d="M963.703 179C963.703 174.582 967.284 171 971.703 171H984.703C989.121 171 992.703 174.582 992.703 179H988.703C988.703 176.791 986.912 175 984.703 175H971.703C969.494 175 967.703 176.791 967.703 179H963.703ZM990.703 192.475H965.703H990.703ZM963.703 192.475V179C963.703 174.582 967.284 171 971.703 171V175C969.494 175 967.703 176.791 967.703 179V192.475H963.703ZM984.703 171C989.121 171 992.703 174.582 992.703 179V192.475H988.703V179C988.703 176.791 986.912 175 984.703 175V171Z" fill="#DADEE7" mask="url(#path-73-inside-14_0_852)"/>
<rect x="904.035" y="175.705" width="19.4444" height="30.2951" rx="4" fill="#DADEE7"/>
<mask id="path-76-inside-15_0_852" fill="white">
<path d="M901.257 179C901.257 175.686 903.943 173 907.257 173H920.257C923.571 173 926.257 175.686 926.257 179V192.475H901.257V179Z"/>
</mask>
<path d="M899.257 179C899.257 174.582 902.839 171 907.257 171H920.257C924.675 171 928.257 174.582 928.257 179H924.257C924.257 176.791 922.466 175 920.257 175H907.257C905.048 175 903.257 176.791 903.257 179H899.257ZM926.257 192.475H901.257H926.257ZM899.257 192.475V179C899.257 174.582 902.839 171 907.257 171V175C905.048 175 903.257 176.791 903.257 179V192.475H899.257ZM920.257 171C924.675 171 928.257 174.582 928.257 179V192.475H924.257V179C924.257 176.791 922.466 175 920.257 175V171Z" fill="#DADEE7" mask="url(#path-76-inside-15_0_852)"/>
<rect x="999.948" y="175.705" width="19.4444" height="30.295" rx="4" fill="#DADEE7"/>
<mask id="path-79-inside-16_0_852" fill="white">
<path d="M997.171 179C997.171 175.686 999.857 173 1003.17 173H1016.17C1019.48 173 1022.17 175.686 1022.17 179V192.475H997.171V179Z"/>
</mask>
<path d="M995.171 179C995.171 174.582 998.752 171 1003.17 171H1016.17C1020.59 171 1024.17 174.582 1024.17 179H1020.17C1020.17 176.791 1018.38 175 1016.17 175H1003.17C1000.96 175 999.171 176.791 999.171 179H995.171ZM1022.17 192.475H997.171H1022.17ZM995.171 192.475V179C995.171 174.582 998.752 171 1003.17 171V175C1000.96 175 999.171 176.791 999.171 179V192.475H995.171ZM1016.17 171C1020.59 171 1024.17 174.582 1024.17 179V192.475H1020.17V179C1020.17 176.791 1018.38 175 1016.17 175V171Z" fill="#DADEE7" mask="url(#path-79-inside-16_0_852)"/>
<rect x="888" y="150" width="19" height="17" rx="4" fill="#DADEE7"/>
<path d="M899.45 162L898.59 159.79H895.76L894.91 162H894L896.79 154.83H897.6L900.38 162H899.45ZM897.52 156.83C897.5 156.777 897.467 156.68 897.42 156.54C897.374 156.4 897.327 156.257 897.28 156.11C897.24 155.957 897.207 155.84 897.18 155.76C897.147 155.893 897.11 156.03 897.07 156.17C897.037 156.303 897 156.427 896.96 156.54C896.927 156.653 896.897 156.75 896.87 156.83L896.06 158.99H898.32L897.52 156.83Z" fill="#2B3674"/>
<rect x="986" y="150" width="19" height="17" rx="4" fill="#DADEE7"/>
<path d="M992.97 162V154.86H997.21V155.65H993.87V157.88H994.93C995.644 157.88 996.197 157.97 996.59 158.15C996.984 158.323 997.257 158.563 997.41 158.87C997.564 159.17 997.64 159.517 997.64 159.91C997.64 160.343 997.554 160.717 997.38 161.03C997.214 161.343 996.94 161.583 996.56 161.75C996.18 161.917 995.68 162 995.06 162H992.97ZM994.97 161.23C995.61 161.23 996.06 161.123 996.32 160.91C996.58 160.69 996.71 160.357 996.71 159.91C996.71 159.603 996.647 159.36 996.52 159.18C996.4 158.993 996.2 158.86 995.92 158.78C995.647 158.7 995.28 158.66 994.82 158.66H993.87V161.23H994.97Z" fill="#2B3674"/>
<rect x="920" y="129" width="56" height="25" rx="4" fill="#DADEE7"/>
<path d="M929.33 146V136.004H930.744L935.294 144.236H935.35C935.341 143.993 935.327 143.713 935.308 143.396C935.29 143.079 935.276 142.761 935.266 142.444C935.257 142.117 935.252 141.837 935.252 141.604V136.004H936.358V146H934.986L930.38 137.74H930.324C930.343 137.983 930.357 138.272 930.366 138.608C930.385 138.935 930.399 139.261 930.408 139.588C930.427 139.915 930.436 140.204 930.436 140.456V146H929.33ZM937.688 146V145.034H941.286V146H937.688ZM939.48 144.124C939.079 144.124 938.72 144.035 938.402 143.858C938.094 143.671 937.852 143.401 937.674 143.046C937.497 142.691 937.408 142.257 937.408 141.744C937.408 140.979 937.595 140.395 937.968 139.994C938.351 139.583 938.869 139.378 939.522 139.378C939.924 139.378 940.278 139.471 940.586 139.658C940.904 139.835 941.151 140.101 941.328 140.456C941.515 140.801 941.608 141.231 941.608 141.744C941.608 142.509 941.417 143.097 941.034 143.508C940.652 143.919 940.134 144.124 939.48 144.124ZM939.508 143.312C939.919 143.312 940.213 143.181 940.39 142.92C940.568 142.649 940.656 142.257 940.656 141.744C940.656 141.221 940.568 140.839 940.39 140.596C940.213 140.344 939.919 140.218 939.508 140.218C939.107 140.218 938.813 140.344 938.626 140.596C938.44 140.839 938.346 141.221 938.346 141.744C938.346 142.257 938.435 142.649 938.612 142.92C938.799 143.181 939.098 143.312 939.508 143.312ZM942.988 144.978C944.173 144.026 945.102 143.247 945.774 142.64C946.446 142.024 947.01 141.385 947.468 140.722C947.934 140.05 948.168 139.392 948.168 138.748C948.168 138.141 948.018 137.665 947.72 137.32C947.43 136.965 946.959 136.788 946.306 136.788C945.671 136.788 945.176 136.989 944.822 137.39C944.476 137.782 944.29 138.309 944.262 138.972H943.03C943.067 137.927 943.384 137.119 943.982 136.55C944.579 135.981 945.349 135.696 946.292 135.696C947.253 135.696 948.014 135.962 948.574 136.494C949.143 137.026 949.428 137.759 949.428 138.692C949.428 139.467 949.194 140.223 948.728 140.96C948.27 141.688 947.748 142.332 947.16 142.892C946.572 143.443 945.82 144.087 944.906 144.824H949.722V145.888H942.988V144.978ZM951.194 140.834C951.194 139.229 951.456 137.978 951.978 137.082C952.501 136.177 953.416 135.724 954.722 135.724C956.02 135.724 956.93 136.177 957.452 137.082C957.975 137.978 958.236 139.229 958.236 140.834C958.236 142.467 957.975 143.737 957.452 144.642C956.93 145.547 956.02 146 954.722 146C953.416 146 952.501 145.547 951.978 144.642C951.456 143.737 951.194 142.467 951.194 140.834ZM956.976 140.834C956.976 140.022 956.92 139.336 956.808 138.776C956.706 138.207 956.486 137.749 956.15 137.404C955.824 137.059 955.348 136.886 954.722 136.886C954.088 136.886 953.602 137.059 953.266 137.404C952.94 137.749 952.72 138.207 952.608 138.776C952.506 139.336 952.454 140.022 952.454 140.834C952.454 141.674 952.506 142.379 952.608 142.948C952.72 143.517 952.94 143.975 953.266 144.32C953.602 144.665 954.088 144.838 954.722 144.838C955.348 144.838 955.824 144.665 956.15 144.32C956.486 143.975 956.706 143.517 956.808 142.948C956.92 142.379 956.976 141.674 956.976 140.834ZM959.677 143.746V142.78L964.591 135.976H966.117V142.64H967.517V143.746H966.117V146H964.857V143.746H959.677ZM964.913 137.306L961.147 142.64H964.913V137.306Z" fill="#2B3674"/>
<path fill-rule="evenodd" clip-rule="evenodd" d="M1042 149L1042 216L1040.5 216L1040.5 149C1040.5 147.067 1038.93 145.5 1037 145.5L981 145.5L981 144L1037 144C1039.76 144 1042 146.239 1042 149ZM910 144L855 144C852.239 144 850 146.239 850 149L850 216L851.5 216L851.5 149C851.5 147.067 853.067 145.5 855 145.5L910 145.5L910 144Z" fill="#B0BBD5"/>
<path fill-rule="evenodd" clip-rule="evenodd" d="M851 149.002L851 216.002L849.5 216.002L849.5 149.002C849.5 147.069 847.933 145.502 846 145.502L744 145.502L744 144.002L846 144.002C848.762 144.002 851 146.241 851 149.002ZM659 144.002L558 144.002C555.239 144.002 553 146.241 553 149.002L553 216.002L554.5 216.002L554.5 149.002C554.5 147.069 556.067 145.502 558 145.502L659 145.502L659 144.002Z" fill="#B0BBD5"/>
<path fill-rule="evenodd" clip-rule="evenodd" d="M554 149.002L554 216.002L552.5 216.002L552.5 149.002C552.5 147.069 550.933 145.502 549 145.502L447 145.502L447 144.002L549 144.002C551.761 144.002 554 146.241 554 149.002ZM362 144.002L261 144.002C258.239 144.002 256 146.241 256 149.002L256 216.002L257.5 216.002L257.5 149.002C257.5 147.069 259.067 145.502 261 145.502L362 145.502L362 144.002Z" fill="#B0BBD5"/>
<rect x="586.278" y="176.207" width="18.4444" height="29.2951" rx="3.5" fill="#DADEE7" stroke="#DADEE7"/>
<mask id="path-91-inside-17_0_852" fill="white">
<path d="M583 179.002C583 175.688 585.687 173.002 589 173.002H602C605.314 173.002 608 175.688 608 179.002V192.477H583V179.002Z"/>
</mask>
<path d="M581 179.002C581 174.584 584.582 171.002 589 171.002H602C606.419 171.002 610 174.584 610 179.002H606C606 176.793 604.209 175.002 602 175.002H589C586.791 175.002 585 176.793 585 179.002H581ZM608 192.477H583H608ZM581 192.477V179.002C581 174.584 584.582 171.002 589 171.002V175.002C586.791 175.002 585 176.793 585 179.002V192.477H581ZM602 171.002C606.419 171.002 610 174.584 610 179.002V192.477H606V179.002C606 176.793 604.209 175.002 602 175.002V171.002Z" fill="#DADEE7" mask="url(#path-91-inside-17_0_852)"/>
<rect x="290.278" y="176.207" width="18.4444" height="29.2951" rx="3.5" fill="#DADEE7" stroke="#DADEE7"/>
<mask id="path-94-inside-18_0_852" fill="white">
<path d="M287 179.002C287 175.688 289.687 173.002 293 173.002H306C309.314 173.002 312 175.688 312 179.002V192.477H287V179.002Z"/>
</mask>
<path d="M285 179.002C285 174.584 288.582 171.002 293 171.002H306C310.419 171.002 314 174.584 314 179.002H310C310 176.793 308.209 175.002 306 175.002H293C290.791 175.002 289 176.793 289 179.002H285ZM312 192.477H287H312ZM285 192.477V179.002C285 174.584 288.582 171.002 293 171.002V175.002C290.791 175.002 289 176.793 289 179.002V192.477H285ZM306 171.002C310.419 171.002 314 174.584 314 179.002V192.477H310V179.002C310 176.793 308.209 175.002 306 175.002V171.002Z" fill="#DADEE7" mask="url(#path-94-inside-18_0_852)"/>
<rect x="735.778" y="175.707" width="19.4444" height="30.2951" rx="4" fill="#FF1A63"/>
<mask id="path-97-inside-19_0_852" fill="white">
<path d="M733 179.002C733 175.688 735.687 173.002 739 173.002H752C755.314 173.002 758 175.688 758 179.002V192.477H733V179.002Z"/>
</mask>
<path d="M731 179.002C731 174.584 734.582 171.002 739 171.002H752C756.419 171.002 760 174.584 760 179.002H756C756 176.793 754.209 175.002 752 175.002H739C736.791 175.002 735 176.793 735 179.002H731ZM758 192.477H733H758ZM731 192.477V179.002C731 174.584 734.582 171.002 739 171.002V175.002C736.791 175.002 735 176.793 735 179.002V192.477H731ZM752 171.002C756.419 171.002 760 174.584 760 179.002V192.477H756V179.002C756 176.793 754.209 175.002 752 175.002V171.002Z" fill="#FF1A63" mask="url(#path-97-inside-19_0_852)"/>
<rect x="439.778" y="175.707" width="19.4444" height="30.2951" rx="4" fill="#FF1A63"/>
<mask id="path-100-inside-20_0_852" fill="white">
<path d="M437 179.002C437 175.688 439.686 173.002 443 173.002H456C459.314 173.002 462 175.688 462 179.002V192.477H437V179.002Z"/>
</mask>
<path d="M435 179.002C435 174.584 438.582 171.002 443 171.002H456C460.418 171.002 464 174.584 464 179.002H460C460 176.793 458.209 175.002 456 175.002H443C440.791 175.002 439 176.793 439 179.002H435ZM462 192.477H437H462ZM435 192.477V179.002C435 174.584 438.582 171.002 443 171.002V175.002C440.791 175.002 439 176.793 439 179.002V192.477H435ZM456 171.002C460.418 171.002 464 174.584 464 179.002V192.477H460V179.002C460 176.793 458.209 175.002 456 175.002V171.002Z" fill="#FF1A63" mask="url(#path-100-inside-20_0_852)"/>
<rect x="616.684" y="175.707" width="19.4444" height="30.2951" rx="4" fill="#FF1A63"/>
<mask id="path-103-inside-21_0_852" fill="white">
<path d="M613.906 179.002C613.906 175.688 616.593 173.002 619.906 173.002H632.906C636.22 173.002 638.906 175.688 638.906 179.002V192.477H613.906V179.002Z"/>
</mask>
<path d="M611.906 179.002C611.906 174.584 615.488 171.002 619.906 171.002H632.906C637.325 171.002 640.906 174.584 640.906 179.002H636.906C636.906 176.793 635.116 175.002 632.906 175.002H619.906C617.697 175.002 615.906 176.793 615.906 179.002H611.906ZM638.906 192.477H613.906H638.906ZM611.906 192.477V179.002C611.906 174.584 615.488 171.002 619.906 171.002V175.002C617.697 175.002 615.906 176.793 615.906 179.002V192.477H611.906ZM632.906 171.002C637.325 171.002 640.906 174.584 640.906 179.002V192.477H636.906V179.002C636.906 176.793 635.116 175.002 632.906 175.002V171.002Z" fill="#FF1A63" mask="url(#path-103-inside-21_0_852)"/>
<rect x="320.684" y="175.707" width="19.4444" height="30.2951" rx="4" fill="#FF1A63"/>
<mask id="path-106-inside-22_0_852" fill="white">
<path d="M317.906 179.002C317.906 175.688 320.593 173.002 323.906 173.002H336.906C340.22 173.002 342.906 175.688 342.906 179.002V192.477H317.906V179.002Z"/>
</mask>
<path d="M315.906 179.002C315.906 174.584 319.488 171.002 323.906 171.002H336.906C341.325 171.002 344.906 174.584 344.906 179.002H340.906C340.906 176.793 339.115 175.002 336.906 175.002H323.906C321.697 175.002 319.906 176.793 319.906 179.002H315.906ZM342.906 192.477H317.906H342.906ZM315.906 192.477V179.002C315.906 174.584 319.488 171.002 323.906 171.002V175.002C321.697 175.002 319.906 176.793 319.906 179.002V192.477H315.906ZM336.906 171.002C341.325 171.002 344.906 174.584 344.906 179.002V192.477H340.906V179.002C340.906 176.793 339.115 175.002 336.906 175.002V171.002Z" fill="#FF1A63" mask="url(#path-106-inside-22_0_852)"/>
<rect x="766.684" y="175.707" width="19.4444" height="30.2951" rx="4" fill="#FF1A63"/>
<mask id="path-109-inside-23_0_852" fill="white">
<path d="M763.906 179.002C763.906 175.688 766.593 173.002 769.906 173.002H782.906C786.22 173.002 788.906 175.688 788.906 179.002V192.477H763.906V179.002Z"/>
</mask>
<path d="M761.906 179.002C761.906 174.584 765.488 171.002 769.906 171.002H782.906C787.325 171.002 790.906 174.584 790.906 179.002H786.906C786.906 176.793 785.116 175.002 782.906 175.002H769.906C767.697 175.002 765.906 176.793 765.906 179.002H761.906ZM788.906 192.477H763.906H788.906ZM761.906 192.477V179.002C761.906 174.584 765.488 171.002 769.906 171.002V175.002C767.697 175.002 765.906 176.793 765.906 179.002V192.477H761.906ZM782.906 171.002C787.325 171.002 790.906 174.584 790.906 179.002V192.477H786.906V179.002C786.906 176.793 785.116 175.002 782.906 175.002V171.002Z" fill="#FF1A63" mask="url(#path-109-inside-23_0_852)"/>
<rect x="470.684" y="175.707" width="19.4444" height="30.2951" rx="4" fill="#FF1A63"/>
<mask id="path-112-inside-24_0_852" fill="white">
<path d="M467.906 179.002C467.906 175.688 470.593 173.002 473.906 173.002H486.906C490.22 173.002 492.906 175.688 492.906 179.002V192.477H467.906V179.002Z"/>
</mask>
<path d="M465.906 179.002C465.906 174.584 469.488 171.002 473.906 171.002H486.906C491.325 171.002 494.906 174.584 494.906 179.002H490.906C490.906 176.793 489.115 175.002 486.906 175.002H473.906C471.697 175.002 469.906 176.793 469.906 179.002H465.906ZM492.906 192.477H467.906H492.906ZM465.906 192.477V179.002C465.906 174.584 469.488 171.002 473.906 171.002V175.002C471.697 175.002 469.906 176.793 469.906 179.002V192.477H465.906ZM486.906 171.002C491.325 171.002 494.906 174.584 494.906 179.002V192.477H490.906V179.002C490.906 176.793 489.115 175.002 486.906 175.002V171.002Z" fill="#FF1A63" mask="url(#path-112-inside-24_0_852)"/>
<rect x="648.091" y="176.207" width="18.4444" height="29.2951" rx="3.5" fill="#DADEE7" stroke="#DADEE7"/>
<mask id="path-115-inside-25_0_852" fill="white">
<path d="M644.813 179.002C644.813 175.688 647.499 173.002 650.813 173.002H663.813C667.126 173.002 669.813 175.688 669.813 179.002V192.477H644.813V179.002Z"/>
</mask>
<path d="M642.813 179.002C642.813 174.584 646.394 171.002 650.813 171.002H663.813C668.231 171.002 671.813 174.584 671.813 179.002H667.813C667.813 176.793 666.022 175.002 663.813 175.002H650.813C648.604 175.002 646.813 176.793 646.813 179.002H642.813ZM669.813 192.477H644.813H669.813ZM642.813 192.477V179.002C642.813 174.584 646.394 171.002 650.813 171.002V175.002C648.604 175.002 646.813 176.793 646.813 179.002V192.477H642.813ZM663.813 171.002C668.231 171.002 671.813 174.584 671.813 179.002V192.477H667.813V179.002C667.813 176.793 666.022 175.002 663.813 175.002V171.002Z" fill="#DADEE7" mask="url(#path-115-inside-25_0_852)"/>
<rect x="352.09" y="176.207" width="18.4444" height="29.2951" rx="3.5" fill="#DADEE7" stroke="#DADEE7"/>
<mask id="path-118-inside-26_0_852" fill="white">
<path d="M348.812 179.002C348.812 175.688 351.499 173.002 354.812 173.002H367.812C371.126 173.002 373.812 175.688 373.812 179.002V192.477H348.812V179.002Z"/>
</mask>
<path d="M346.812 179.002C346.812 174.584 350.394 171.002 354.812 171.002H367.812C372.231 171.002 375.812 174.584 375.812 179.002H371.812C371.812 176.793 370.022 175.002 367.812 175.002H354.812C352.603 175.002 350.812 176.793 350.812 179.002H346.812ZM373.812 192.477H348.812H373.812ZM346.812 192.477V179.002C346.812 174.584 350.394 171.002 354.812 171.002V175.002C352.603 175.002 350.812 176.793 350.812 179.002V192.477H346.812ZM367.812 171.002C372.231 171.002 375.812 174.584 375.812 179.002V192.477H371.812V179.002C371.812 176.793 370.022 175.002 367.812 175.002V171.002Z" fill="#DADEE7" mask="url(#path-118-inside-26_0_852)"/>
<rect x="798.091" y="176.207" width="18.4444" height="29.2951" rx="3.5" fill="#DADEE7" stroke="#DADEE7"/>
<mask id="path-121-inside-27_0_852" fill="white">
<path d="M794.813 179.002C794.813 175.688 797.499 173.002 800.813 173.002H813.813C817.126 173.002 819.813 175.688 819.813 179.002V192.477H794.813V179.002Z"/>
</mask>
<path d="M792.813 179.002C792.813 174.584 796.394 171.002 800.813 171.002H813.813C818.231 171.002 821.813 174.584 821.813 179.002H817.813C817.813 176.793 816.022 175.002 813.813 175.002H800.813C798.604 175.002 796.813 176.793 796.813 179.002H792.813ZM819.813 192.477H794.813H819.813ZM792.813 192.477V179.002C792.813 174.584 796.394 171.002 800.813 171.002V175.002C798.604 175.002 796.813 176.793 796.813 179.002V192.477H792.813ZM813.813 171.002C818.231 171.002 821.813 174.584 821.813 179.002V192.477H817.813V179.002C817.813 176.793 816.022 175.002 813.813 175.002V171.002Z" fill="#DADEE7" mask="url(#path-121-inside-27_0_852)"/>
<rect x="502.09" y="176.207" width="18.4444" height="29.2951" rx="3.5" fill="#DADEE7" stroke="#DADEE7"/>
<mask id="path-124-inside-28_0_852" fill="white">
<path d="M498.812 179.002C498.812 175.688 501.499 173.002 504.812 173.002H517.812C521.126 173.002 523.812 175.688 523.812 179.002V192.477H498.812V179.002Z"/>
</mask>
<path d="M496.812 179.002C496.812 174.584 500.394 171.002 504.812 171.002H517.812C522.231 171.002 525.812 174.584 525.812 179.002H521.812C521.812 176.793 520.022 175.002 517.812 175.002H504.812C502.603 175.002 500.812 176.793 500.812 179.002H496.812ZM523.812 192.477H498.812H523.812ZM496.812 192.477V179.002C496.812 174.584 500.394 171.002 504.812 171.002V175.002C502.603 175.002 500.812 176.793 500.812 179.002V192.477H496.812ZM517.812 171.002C522.231 171.002 525.812 174.584 525.812 179.002V192.477H521.812V179.002C521.812 176.793 520.022 175.002 517.812 175.002V171.002Z" fill="#DADEE7" mask="url(#path-124-inside-28_0_852)"/>
<rect x="675.5" y="129.502" width="55" height="24" rx="3.5" fill="#DADEE7"/>
<path d="M684.33 146.002V136.006H685.744L690.294 144.238H690.35C690.341 143.995 690.327 143.715 690.308 143.398C690.29 143.081 690.276 142.763 690.266 142.446C690.257 142.119 690.252 141.839 690.252 141.606V136.006H691.358V146.002H689.986L685.38 137.742H685.324C685.343 137.985 685.357 138.274 685.366 138.61C685.385 138.937 685.399 139.263 685.408 139.59C685.427 139.917 685.436 140.206 685.436 140.458V146.002H684.33ZM692.688 146.002V145.036H696.286V146.002H692.688ZM694.48 144.126C694.079 144.126 693.72 144.037 693.402 143.86C693.094 143.673 692.852 143.403 692.674 143.048C692.497 142.693 692.408 142.259 692.408 141.746C692.408 140.981 692.595 140.397 692.968 139.996C693.351 139.585 693.869 139.38 694.522 139.38C694.924 139.38 695.278 139.473 695.586 139.66C695.904 139.837 696.151 140.103 696.328 140.458C696.515 140.803 696.608 141.233 696.608 141.746C696.608 142.511 696.417 143.099 696.034 143.51C695.652 143.921 695.134 144.126 694.48 144.126ZM694.508 143.314C694.919 143.314 695.213 143.183 695.39 142.922C695.568 142.651 695.656 142.259 695.656 141.746C695.656 141.223 695.568 140.841 695.39 140.598C695.213 140.346 694.919 140.22 694.508 140.22C694.107 140.22 693.813 140.346 693.626 140.598C693.44 140.841 693.346 141.223 693.346 141.746C693.346 142.259 693.435 142.651 693.612 142.922C693.799 143.183 694.098 143.314 694.508 143.314ZM697.988 144.98C699.173 144.028 700.102 143.249 700.774 142.642C701.446 142.026 702.01 141.387 702.468 140.724C702.934 140.052 703.168 139.394 703.168 138.75C703.168 138.143 703.018 137.667 702.72 137.322C702.43 136.967 701.959 136.79 701.306 136.79C700.671 136.79 700.176 136.991 699.822 137.392C699.476 137.784 699.29 138.311 699.262 138.974H698.03C698.067 137.929 698.384 137.121 698.982 136.552C699.579 135.983 700.349 135.698 701.292 135.698C702.253 135.698 703.014 135.964 703.574 136.496C704.143 137.028 704.428 137.761 704.428 138.694C704.428 139.469 704.194 140.225 703.728 140.962C703.27 141.69 702.748 142.334 702.16 142.894C701.572 143.445 700.82 144.089 699.906 144.826H704.722V145.89H697.988V144.98ZM706.194 140.836C706.194 139.231 706.456 137.98 706.978 137.084C707.501 136.179 708.416 135.726 709.722 135.726C711.02 135.726 711.93 136.179 712.452 137.084C712.975 137.98 713.236 139.231 713.236 140.836C713.236 142.469 712.975 143.739 712.452 144.644C711.93 145.549 711.02 146.002 709.722 146.002C708.416 146.002 707.501 145.549 706.978 144.644C706.456 143.739 706.194 142.469 706.194 140.836ZM711.976 140.836C711.976 140.024 711.92 139.338 711.808 138.778C711.706 138.209 711.486 137.751 711.15 137.406C710.824 137.061 710.348 136.888 709.722 136.888C709.088 136.888 708.602 137.061 708.266 137.406C707.94 137.751 707.72 138.209 707.608 138.778C707.506 139.338 707.454 140.024 707.454 140.836C707.454 141.676 707.506 142.381 707.608 142.95C707.72 143.519 707.94 143.977 708.266 144.322C708.602 144.667 709.088 144.84 709.722 144.84C710.348 144.84 710.824 144.667 711.15 144.322C711.486 143.977 711.706 143.519 711.808 142.95C711.92 142.381 711.976 141.676 711.976 140.836ZM721.439 136.986H716.525V140.178C716.74 139.879 717.057 139.637 717.477 139.45C717.897 139.254 718.35 139.156 718.835 139.156C719.61 139.156 720.24 139.319 720.725 139.646C721.211 139.963 721.556 140.379 721.761 140.892C721.976 141.396 722.083 141.933 722.083 142.502C722.083 143.174 721.957 143.776 721.705 144.308C721.453 144.84 721.066 145.26 720.543 145.568C720.03 145.876 719.391 146.03 718.625 146.03C717.645 146.03 716.852 145.778 716.245 145.274C715.639 144.77 715.27 144.098 715.139 143.258H716.385C716.507 143.79 716.763 144.205 717.155 144.504C717.547 144.803 718.042 144.952 718.639 144.952C719.377 144.952 719.932 144.733 720.305 144.294C720.679 143.846 720.865 143.258 720.865 142.53C720.865 141.802 720.679 141.242 720.305 140.85C719.932 140.449 719.381 140.248 718.653 140.248C718.159 140.248 717.725 140.369 717.351 140.612C716.987 140.845 716.721 141.167 716.553 141.578H715.349V135.866H721.439V136.986Z" fill="#2B3674"/>
<rect x="675.5" y="129.502" width="55" height="24" rx="3.5" stroke="#DADEE7"/>
<rect x="378.5" y="129.502" width="56" height="24" rx="3.5" fill="#DADEE7"/>
<path d="M387.33 146.002V136.006H388.744L393.294 144.238H393.35C393.341 143.995 393.327 143.715 393.308 143.398C393.289 143.081 393.275 142.763 393.266 142.446C393.257 142.119 393.252 141.839 393.252 141.606V136.006H394.358V146.002H392.986L388.38 137.742H388.324C388.343 137.985 388.357 138.274 388.366 138.61C388.385 138.937 388.399 139.263 388.408 139.59C388.427 139.917 388.436 140.206 388.436 140.458V146.002H387.33ZM395.688 146.002V145.036H399.286V146.002H395.688ZM397.48 144.126C397.079 144.126 396.719 144.037 396.402 143.86C396.094 143.673 395.851 143.403 395.674 143.048C395.497 142.693 395.408 142.259 395.408 141.746C395.408 140.981 395.595 140.397 395.968 139.996C396.351 139.585 396.869 139.38 397.522 139.38C397.923 139.38 398.278 139.473 398.586 139.66C398.903 139.837 399.151 140.103 399.328 140.458C399.515 140.803 399.608 141.233 399.608 141.746C399.608 142.511 399.417 143.099 399.034 143.51C398.651 143.921 398.133 144.126 397.48 144.126ZM397.508 143.314C397.919 143.314 398.213 143.183 398.39 142.922C398.567 142.651 398.656 142.259 398.656 141.746C398.656 141.223 398.567 140.841 398.39 140.598C398.213 140.346 397.919 140.22 397.508 140.22C397.107 140.22 396.813 140.346 396.626 140.598C396.439 140.841 396.346 141.223 396.346 141.746C396.346 142.259 396.435 142.651 396.612 142.922C396.799 143.183 397.097 143.314 397.508 143.314ZM400.987 144.98C402.173 144.028 403.101 143.249 403.773 142.642C404.445 142.026 405.01 141.387 405.467 140.724C405.934 140.052 406.167 139.394 406.167 138.75C406.167 138.143 406.018 137.667 405.719 137.322C405.43 136.967 404.959 136.79 404.305 136.79C403.671 136.79 403.176 136.991 402.821 137.392C402.476 137.784 402.289 138.311 402.261 138.974H401.029C401.067 137.929 401.384 137.121 401.981 136.552C402.579 135.983 403.349 135.698 404.291 135.698C405.253 135.698 406.013 135.964 406.573 136.496C407.143 137.028 407.427 137.761 407.427 138.694C407.427 139.469 407.194 140.225 406.727 140.962C406.27 141.69 405.747 142.334 405.159 142.894C404.571 143.445 403.82 144.089 402.905 144.826H407.721V145.89H400.987V144.98ZM409.194 140.836C409.194 139.231 409.456 137.98 409.978 137.084C410.501 136.179 411.416 135.726 412.722 135.726C414.02 135.726 414.93 136.179 415.452 137.084C415.975 137.98 416.236 139.231 416.236 140.836C416.236 142.469 415.975 143.739 415.452 144.644C414.93 145.549 414.02 146.002 412.722 146.002C411.416 146.002 410.501 145.549 409.978 144.644C409.456 143.739 409.194 142.469 409.194 140.836ZM414.976 140.836C414.976 140.024 414.92 139.338 414.808 138.778C414.706 138.209 414.486 137.751 414.15 137.406C413.824 137.061 413.348 136.888 412.722 136.888C412.088 136.888 411.602 137.061 411.266 137.406C410.94 137.751 410.72 138.209 410.608 138.778C410.506 139.338 410.454 140.024 410.454 140.836C410.454 141.676 410.506 142.381 410.608 142.95C410.72 143.519 410.94 143.977 411.266 144.322C411.602 144.667 412.088 144.84 412.722 144.84C413.348 144.84 413.824 144.667 414.15 144.322C414.486 143.977 414.706 143.519 414.808 142.95C414.92 142.381 414.976 141.676 414.976 140.836ZM423.627 138.288C423.422 137.252 422.783 136.734 421.709 136.734C420.879 136.734 420.258 137.056 419.847 137.7C419.437 138.335 419.236 139.385 419.245 140.85C419.46 140.365 419.815 139.987 420.309 139.716C420.813 139.436 421.373 139.296 421.989 139.296C422.951 139.296 423.716 139.595 424.285 140.192C424.864 140.789 425.153 141.615 425.153 142.67C425.153 143.305 425.027 143.874 424.775 144.378C424.533 144.882 424.159 145.283 423.655 145.582C423.161 145.881 422.559 146.03 421.849 146.03C420.888 146.03 420.137 145.815 419.595 145.386C419.054 144.957 418.676 144.364 418.461 143.608C418.247 142.852 418.139 141.919 418.139 140.808C418.139 137.383 419.334 135.67 421.723 135.67C422.638 135.67 423.357 135.917 423.879 136.412C424.402 136.907 424.71 137.532 424.803 138.288H423.627ZM421.723 140.374C421.322 140.374 420.944 140.458 420.589 140.626C420.235 140.785 419.945 141.032 419.721 141.368C419.507 141.695 419.399 142.096 419.399 142.572C419.399 143.281 419.605 143.86 420.015 144.308C420.426 144.747 421.014 144.966 421.779 144.966C422.433 144.966 422.951 144.765 423.333 144.364C423.725 143.953 423.921 143.403 423.921 142.712C423.921 141.984 423.735 141.415 423.361 141.004C422.988 140.584 422.442 140.374 421.723 140.374Z" fill="#2B3674"/>
<rect x="378.5" y="129.502" width="56" height="24" rx="3.5" stroke="#DADEE7"/>
<rect x="617" y="150.002" width="19" height="17" rx="4" fill="#DADEE7"/>
<path d="M628.45 162.002L627.59 159.792H624.76L623.91 162.002H623L625.79 154.832H626.6L629.38 162.002H628.45ZM626.52 156.832C626.5 156.779 626.467 156.682 626.42 156.542C626.374 156.402 626.327 156.259 626.28 156.112C626.24 155.959 626.207 155.842 626.18 155.762C626.147 155.895 626.11 156.032 626.07 156.172C626.037 156.305 626 156.429 625.96 156.542C625.927 156.655 625.897 156.752 625.87 156.832L625.06 158.992H627.32L626.52 156.832Z" fill="#2B3674"/>
<rect x="320" y="150.002" width="19" height="17" rx="4" fill="#DADEE7"/>
<path d="M331.45 162.002L330.59 159.792H327.76L326.91 162.002H326L328.79 154.832H329.6L332.38 162.002H331.45ZM329.52 156.832C329.5 156.779 329.467 156.682 329.42 156.542C329.373 156.402 329.327 156.259 329.28 156.112C329.24 155.959 329.207 155.842 329.18 155.762C329.147 155.895 329.11 156.032 329.07 156.172C329.037 156.305 329 156.429 328.96 156.542C328.927 156.655 328.897 156.752 328.87 156.832L328.06 158.992H330.32L329.52 156.832Z" fill="#2B3674"/>
<rect x="768" y="150.002" width="19" height="17" rx="4" fill="#DADEE7"/>
<path d="M774.97 162.002V154.862H779.21V155.652H775.87V157.882H776.93C777.644 157.882 778.197 157.972 778.59 158.152C778.984 158.325 779.257 158.565 779.41 158.872C779.564 159.172 779.64 159.519 779.64 159.912C779.64 160.345 779.554 160.719 779.38 161.032C779.214 161.345 778.94 161.585 778.56 161.752C778.18 161.919 777.68 162.002 777.06 162.002H774.97ZM776.97 161.232C777.61 161.232 778.06 161.125 778.32 160.912C778.58 160.692 778.71 160.359 778.71 159.912C778.71 159.605 778.647 159.362 778.52 159.182C778.4 158.995 778.2 158.862 777.92 158.782C777.647 158.702 777.28 158.662 776.82 158.662H775.87V161.232H776.97Z" fill="#2B3674"/>
<rect x="471" y="150.002" width="19" height="17" rx="4" fill="#DADEE7"/>
<path d="M477.97 162.002V154.862H482.21V155.652H478.87V157.882H479.93C480.643 157.882 481.197 157.972 481.59 158.152C481.983 158.325 482.257 158.565 482.41 158.872C482.563 159.172 482.64 159.519 482.64 159.912C482.64 160.345 482.553 160.719 482.38 161.032C482.213 161.345 481.94 161.585 481.56 161.752C481.18 161.919 480.68 162.002 480.06 162.002H477.97ZM479.97 161.232C480.61 161.232 481.06 161.125 481.32 160.912C481.58 160.692 481.71 160.359 481.71 159.912C481.71 159.605 481.647 159.362 481.52 159.182C481.4 158.995 481.2 158.862 480.92 158.782C480.647 158.702 480.28 158.662 479.82 158.662H478.87V161.232H479.97Z" fill="#2B3674"/>
<rect x="701" y="173.002" width="2" height="43" rx="1" fill="#B0BBD5"/>
<rect x="945" y="173" width="2" height="43" rx="1" fill="#B0BBD5"/>
<rect x="404" y="173" width="2" height="43" rx="1" fill="#B0BBD5"/>
</svg>
