<svg width="1250" height="216" viewBox="0 0 1250 216" fill="none" xmlns="http://www.w3.org/2000/svg">
<rect y="0.999023" width="1250" height="215" rx="20" fill="white"/>
<path d="M9 163C9 160.791 10.7909 159 13 159H163C165.209 159 167 160.791 167 163V203C167 205.209 165.209 207 163 207H23C15.268 207 9 200.732 9 193V163Z" fill="#DADEE7"/>
<path d="M77.6761 169.15C75.1806 169.15 73.1504 171.819 73.1504 175.099C73.1504 177.685 74.4098 179.952 76.2504 180.748L75.8387 195.962C75.8324 196.207 75.8752 196.451 75.9647 196.679C76.0543 196.908 76.1886 197.116 76.3598 197.292C76.5311 197.467 76.7357 197.607 76.9618 197.702C77.1878 197.798 77.4307 197.847 77.676 197.847C77.9214 197.847 78.1642 197.798 78.3903 197.702C78.6163 197.607 78.821 197.467 78.9922 197.292C79.1635 197.116 79.2978 196.908 79.3873 196.679C79.4768 196.451 79.5197 196.207 79.5134 195.962L79.1017 180.748C80.9423 179.952 82.2017 177.685 82.2017 175.099C82.2021 171.819 80.1719 169.15 77.6761 169.15ZM78.5349 180.058C78.4487 180.087 78.3741 180.143 78.3221 180.218C78.2701 180.292 78.2435 180.382 78.2463 180.473L78.6665 195.986C78.67 196.118 78.6471 196.25 78.5989 196.373C78.5508 196.496 78.4784 196.609 78.3861 196.703C78.2938 196.798 78.1834 196.874 78.0615 196.925C77.9396 196.977 77.8086 197.003 77.6763 197.003C77.5439 197.003 77.4129 196.977 77.291 196.925C77.1691 196.874 77.0587 196.798 76.9664 196.703C76.8741 196.609 76.8018 196.496 76.7536 196.373C76.7055 196.25 76.6825 196.118 76.6861 195.986L77.1063 180.473C77.1088 180.382 77.0821 180.293 77.0301 180.218C76.9781 180.144 76.9036 180.088 76.8176 180.059C75.1574 179.501 73.998 177.462 73.998 175.099C73.998 172.287 75.6481 169.998 77.6761 169.998C79.7042 169.998 81.3545 172.287 81.3545 175.099C81.3545 177.462 80.1951 179.501 78.5349 180.058ZM88.5479 169.166C88.2786 169.118 88.001 169.169 87.7663 169.31C87.5315 169.45 87.3554 169.671 87.2704 169.931C86.0624 173.471 84.5894 179.298 84.4315 186.958C84.4299 187.035 84.4496 187.112 84.4884 187.179C84.5272 187.246 84.5837 187.301 84.6516 187.338L86.3331 188.26L85.8417 195.896C85.8258 196.142 85.8593 196.388 85.9405 196.62C86.0217 196.853 86.1487 197.067 86.3142 197.249C86.4796 197.431 86.68 197.578 86.9035 197.682C87.127 197.785 87.3689 197.842 87.615 197.85C87.8611 197.858 88.1062 197.816 88.3359 197.728C88.5655 197.639 88.7749 197.505 88.9517 197.333C89.1285 197.162 89.269 196.957 89.3649 196.73C89.4608 196.503 89.5101 196.26 89.5099 196.014V170.302C89.5136 170.028 89.4182 169.763 89.2414 169.554C89.0646 169.345 88.8183 169.208 88.5479 169.166ZM88.6625 196.014C88.6622 196.276 88.5579 196.527 88.3727 196.712C88.1874 196.897 87.9362 197.002 87.6741 197.002C87.539 197.002 87.4053 196.974 87.2813 196.92C87.1573 196.867 87.0457 196.788 86.9533 196.69C86.8608 196.591 86.7896 196.475 86.744 196.347C86.6983 196.22 86.6793 196.085 86.6879 195.95L87.1965 188.046C87.2018 187.965 87.1839 187.885 87.1451 187.814C87.1062 187.744 87.0481 187.685 86.9774 187.647L85.2852 186.719C85.4676 179.294 86.8979 173.648 88.0728 170.205C88.0956 170.137 88.142 170.079 88.2036 170.042C88.2652 170.005 88.3379 169.991 88.4088 170.002C88.4798 170.014 88.5442 170.051 88.5907 170.105C88.6372 170.16 88.6626 170.23 88.6625 170.302V196.014ZM101.426 169.15C101.37 169.15 101.315 169.161 101.264 169.183C101.212 169.204 101.165 169.235 101.126 169.274C101.087 169.314 101.055 169.361 101.034 169.412C101.013 169.463 101.002 169.519 101.002 169.574V176.523C101.003 177.343 100.729 178.14 100.225 178.787C99.7198 179.433 99.0129 179.892 98.2168 180.09C98.1231 180.114 98.0403 180.168 97.9819 180.245C97.9235 180.322 97.8932 180.417 97.8959 180.513L98.3149 195.984C98.319 196.117 98.2965 196.249 98.2486 196.373C98.2006 196.497 98.1283 196.61 98.0359 196.705C97.9435 196.8 97.8329 196.876 97.7106 196.928C97.5883 196.98 97.4569 197.007 97.3241 197.007C97.1913 197.007 97.0599 196.98 96.9376 196.928C96.8153 196.876 96.7047 196.8 96.6123 196.705C96.5199 196.61 96.4476 196.497 96.3996 196.373C96.3517 196.249 96.3292 196.117 96.3333 195.984L96.7523 180.513C96.755 180.417 96.7247 180.322 96.6663 180.245C96.6079 180.168 96.5251 180.114 96.4314 180.09C95.6349 179.893 94.9276 179.434 94.4224 178.787C93.9173 178.141 93.6433 177.343 93.6443 176.523V169.574C93.6443 169.462 93.5996 169.354 93.5202 169.275C93.4407 169.195 93.3329 169.15 93.2205 169.15C93.1081 169.15 93.0003 169.195 92.9208 169.275C92.8413 169.354 92.7966 169.462 92.7966 169.574V176.523C92.7954 177.473 93.0943 178.4 93.6506 179.172C94.207 179.943 94.9924 180.519 95.8952 180.817L95.4852 195.961C95.4783 196.207 95.5207 196.451 95.6099 196.68C95.6992 196.909 95.8335 197.118 96.0048 197.294C96.1762 197.471 96.3811 197.611 96.6076 197.706C96.834 197.802 97.0773 197.851 97.3231 197.851C97.5689 197.851 97.8123 197.802 98.0387 197.706C98.2651 197.611 98.4701 197.471 98.6414 197.294C98.8128 197.118 98.9471 196.909 99.0363 196.68C99.1256 196.451 99.168 196.207 99.1611 195.961L98.7511 180.817C99.6538 180.519 100.439 179.943 100.996 179.172C101.552 178.4 101.851 177.473 101.85 176.523V169.574C101.85 169.519 101.839 169.463 101.817 169.412C101.796 169.361 101.765 169.314 101.726 169.274C101.686 169.235 101.639 169.204 101.588 169.183C101.537 169.161 101.481 169.15 101.426 169.15Z" fill="#2B3674"/>
<path d="M95.272 176.699C95.3276 176.699 95.3828 176.688 95.4342 176.666C95.4856 176.645 95.5324 176.614 95.5717 176.575C95.6111 176.535 95.6423 176.488 95.6636 176.437C95.6849 176.386 95.6958 176.33 95.6958 176.275V169.574C95.6958 169.462 95.6511 169.354 95.5717 169.275C95.4922 169.195 95.3844 169.15 95.272 169.15C95.1596 169.15 95.0518 169.195 94.9723 169.275C94.8928 169.354 94.8481 169.462 94.8481 169.574V176.275C94.8481 176.33 94.8591 176.386 94.8803 176.437C94.9016 176.488 94.9328 176.535 94.9722 176.575C95.0116 176.614 95.0583 176.645 95.1097 176.666C95.1612 176.688 95.2163 176.699 95.272 176.699ZM97.3231 176.699C97.4355 176.699 97.5433 176.654 97.6228 176.575C97.7022 176.495 97.7469 176.387 97.7469 176.275V169.574C97.7469 169.462 97.7022 169.354 97.6228 169.275C97.5433 169.195 97.4355 169.15 97.3231 169.15C97.2107 169.15 97.1029 169.195 97.0234 169.275C96.9439 169.354 96.8992 169.462 96.8992 169.574V176.275C96.8992 176.33 96.9101 176.386 96.9314 176.437C96.9527 176.488 96.9839 176.535 97.0233 176.575C97.0627 176.614 97.1094 176.645 97.1608 176.666C97.2123 176.688 97.2674 176.699 97.3231 176.699ZM99.3741 176.699C99.4298 176.699 99.4849 176.688 99.5364 176.666C99.5878 176.645 99.6345 176.614 99.6739 176.575C99.7133 176.535 99.7445 176.488 99.7658 176.437C99.7871 176.386 99.798 176.33 99.798 176.275V169.574C99.798 169.462 99.7533 169.354 99.6738 169.275C99.5944 169.195 99.4866 169.15 99.3741 169.15C99.2617 169.15 99.1539 169.195 99.0745 169.275C98.995 169.354 98.9503 169.462 98.9503 169.574V176.275C98.9503 176.387 98.995 176.495 99.0745 176.575C99.1539 176.654 99.2617 176.699 99.3741 176.699Z" fill="#2B3674"/>
<path fill-rule="evenodd" clip-rule="evenodd" d="M1230 3.99902H20C10.6112 3.99902 3 11.6102 3 20.999V195.999C3 205.388 10.6111 212.999 20 212.999H1230C1239.39 212.999 1247 205.388 1247 195.999V20.999C1247 11.6102 1239.39 3.99902 1230 3.99902ZM20 0.999023C8.95431 0.999023 0 9.95333 0 20.999V195.999C0 207.045 8.95427 215.999 20 215.999H1230C1241.05 215.999 1250 207.045 1250 195.999V20.999C1250 9.95333 1241.05 0.999023 1230 0.999023H20Z" fill="#B0BBD5"/>
<path d="M699.594 29.2188H689.313C688.923 29.2188 688.55 29.3735 688.274 29.6489C687.999 29.9244 687.844 30.298 687.844 30.6875V38.0312H680.5C680.111 38.0312 679.737 38.186 679.462 38.4614C679.186 38.7369 679.031 39.1105 679.031 39.5V46.8438H671.688C671.298 46.8438 670.925 46.9985 670.649 47.2739C670.374 47.5494 670.219 47.923 670.219 48.3125V55.6562H661.406C661.017 55.6562 660.643 55.811 660.368 56.0864C660.092 56.3619 659.938 56.7355 659.938 57.125C659.938 57.5145 660.092 57.8881 660.368 58.1636C660.643 58.439 661.017 58.5938 661.406 58.5938H671.688C672.077 58.5938 672.451 58.439 672.726 58.1636C673.002 57.8881 673.156 57.5145 673.156 57.125V49.7812H680.5C680.89 49.7812 681.263 49.6265 681.539 49.3511C681.814 49.0756 681.969 48.702 681.969 48.3125V40.9688H689.313C689.702 40.9688 690.076 40.814 690.351 40.5386C690.627 40.2631 690.781 39.8895 690.781 39.5V32.1562H699.594C699.984 32.1562 700.357 32.0015 700.633 31.7261C700.908 31.4506 701.063 31.077 701.063 30.6875C701.063 30.298 700.908 29.9244 700.633 29.6489C700.357 29.3735 699.984 29.2188 699.594 29.2188ZM661.406 42.4375C661.6 42.4386 661.791 42.4016 661.97 42.3285C662.149 42.2554 662.312 42.1477 662.449 42.0116L679.031 25.4294V27.2506C679.031 27.6402 679.186 28.0137 679.462 28.2892C679.737 28.5646 680.111 28.7194 680.5 28.7194C680.89 28.7194 681.263 28.5646 681.539 28.2892C681.814 28.0137 681.969 27.6402 681.969 27.2506V21.875C681.969 21.4855 681.814 21.1119 681.539 20.8364C681.263 20.561 680.89 20.4062 680.5 20.4062H675.125C674.735 20.4062 674.361 20.561 674.086 20.8364C673.811 21.1119 673.656 21.4855 673.656 21.875C673.656 22.2645 673.811 22.6381 674.086 22.9136C674.361 23.189 674.735 23.3438 675.125 23.3438H676.946L660.364 39.9259C660.157 40.1314 660.015 40.3938 659.958 40.6799C659.901 40.9659 659.93 41.2626 660.041 41.532C660.153 41.8014 660.343 42.0314 660.586 42.1927C660.829 42.354 661.115 42.4392 661.406 42.4375Z" fill="#B0BBD5"/>
<rect x="288" y="44" width="2" height="43" rx="1" transform="rotate(-180 288 44)" fill="#B0BBD5"/>
<rect x="309.687" y="13.705" width="19.4444" height="30.2951" rx="4" fill="#DADEE7"/>
<mask id="path-9-inside-1_0_4998" fill="white">
<path d="M306.909 17C306.909 13.6863 309.595 11 312.909 11L325.909 11C329.223 11 331.909 13.6863 331.909 17L331.909 30.4754L306.909 30.4754L306.909 17Z"/>
</mask>
<path d="M304.909 17C304.909 12.5817 308.491 9 312.909 9L325.909 9C330.327 9 333.909 12.5817 333.909 17L329.909 17C329.909 14.7909 328.118 13 325.909 13L312.909 13C310.7 13 308.909 14.7909 308.909 17L304.909 17ZM331.909 30.4754L306.909 30.4754L331.909 30.4754ZM304.909 30.4754L304.909 17C304.909 12.5817 308.491 9 312.909 9L312.909 13C310.7 13 308.909 14.7909 308.909 17L308.909 30.4754L304.909 30.4754ZM325.909 9C330.327 9 333.909 12.5817 333.909 17L333.909 30.4754L329.909 30.4754L329.909 17C329.909 14.7909 328.118 13 325.909 13L325.909 9Z" fill="#DADEE7" mask="url(#path-9-inside-1_0_4998)"/>
<rect x="118.687" y="13.705" width="19.4444" height="30.2951" rx="4" fill="#DADEE7"/>
<mask id="path-12-inside-2_0_4998" fill="white">
<path d="M115.909 17C115.909 13.6863 118.595 11 121.909 11L134.909 11C138.223 11 140.909 13.6863 140.909 17L140.909 30.4754L115.909 30.4754L115.909 17Z"/>
</mask>
<path d="M113.909 17C113.909 12.5817 117.491 9 121.909 9L134.909 9C139.327 9 142.909 12.5817 142.909 17L138.909 17C138.909 14.7909 137.118 13 134.909 13L121.909 13C119.7 13 117.909 14.7909 117.909 17L113.909 17ZM140.909 30.4754L115.909 30.4754L140.909 30.4754ZM113.909 30.4754L113.909 17C113.909 12.5817 117.491 9 121.909 9L121.909 13C119.7 13 117.909 14.7909 117.909 17L117.909 30.4754L113.909 30.4754ZM134.909 9C139.327 9 142.909 12.5817 142.909 17L142.909 30.4754L138.909 30.4754L138.909 17C138.909 14.7909 137.118 13 134.909 13L134.909 9Z" fill="#DADEE7" mask="url(#path-12-inside-2_0_4998)"/>
<rect x="500.687" y="13.705" width="19.4444" height="30.2951" rx="4" fill="#DADEE7"/>
<mask id="path-15-inside-3_0_4998" fill="white">
<path d="M497.909 17C497.909 13.6863 500.595 11 503.909 11L516.909 11C520.223 11 522.909 13.6863 522.909 17L522.909 30.4754L497.909 30.4754L497.909 17Z"/>
</mask>
<path d="M495.909 17C495.909 12.5817 499.491 9 503.909 9L516.909 9C521.327 9 524.909 12.5817 524.909 17L520.909 17C520.909 14.7909 519.118 13 516.909 13L503.909 13C501.7 13 499.909 14.7909 499.909 17L495.909 17ZM522.909 30.4754L497.909 30.4754L522.909 30.4754ZM495.909 30.4754L495.909 17C495.909 12.5817 499.491 9 503.909 9L503.909 13C501.7 13 499.909 14.7909 499.909 17L499.909 30.4754L495.909 30.4754ZM516.909 9C521.327 9 524.909 12.5817 524.909 17L524.909 30.4754L520.909 30.4754L520.909 17C520.909 14.7909 519.118 13 516.909 13L516.909 9Z" fill="#DADEE7" mask="url(#path-15-inside-3_0_4998)"/>
<rect x="212.773" y="13.705" width="19.4444" height="30.2951" rx="4" fill="#DADEE7"/>
<mask id="path-18-inside-4_0_4998" fill="white">
<path d="M209.996 17C209.996 13.6863 212.682 11 215.996 11L228.996 11C232.309 11 234.996 13.6863 234.996 17L234.996 30.4754L209.996 30.4754L209.996 17Z"/>
</mask>
<path d="M207.996 17C207.996 12.5817 211.577 9 215.996 9L228.996 9C233.414 9 236.996 12.5817 236.996 17L232.996 17C232.996 14.7909 231.205 13 228.996 13L215.996 13C213.786 13 211.996 14.7909 211.996 17L207.996 17ZM234.996 30.4754L209.996 30.4754L234.996 30.4754ZM207.996 30.4754L207.996 17C207.996 12.5817 211.577 9 215.996 9L215.996 13C213.786 13 211.996 14.7909 211.996 17L211.996 30.4754L207.996 30.4754ZM228.996 9C233.414 9 236.996 12.5817 236.996 17L236.996 30.4754L232.996 30.4754L232.996 17C232.996 14.7909 231.205 13 228.996 13L228.996 9Z" fill="#DADEE7" mask="url(#path-18-inside-4_0_4998)"/>
<rect x="21.7734" y="13.705" width="19.4444" height="30.2951" rx="4" fill="#DADEE7"/>
<mask id="path-21-inside-5_0_4998" fill="white">
<path d="M18.9956 17C18.9956 13.6863 21.6819 11 24.9956 11L37.9956 11C41.3093 11 43.9956 13.6863 43.9956 17L43.9956 30.4754L18.9956 30.4754L18.9956 17Z"/>
</mask>
<path d="M16.9956 17C16.9956 12.5817 20.5773 9 24.9956 9L37.9956 9C42.4139 9 45.9956 12.5817 45.9956 17L41.9956 17C41.9956 14.7909 40.2047 13 37.9956 13L24.9956 13C22.7865 13 20.9956 14.7909 20.9956 17L16.9956 17ZM43.9956 30.4754L18.9956 30.4754L43.9956 30.4754ZM16.9956 30.4754L16.9956 17C16.9956 12.5817 20.5773 9 24.9956 9L24.9956 13C22.7865 13 20.9956 14.7909 20.9956 17L20.9956 30.4754L16.9956 30.4754ZM37.9956 9C42.4139 9 45.9956 12.5817 45.9956 17L45.9956 30.4754L41.9956 30.4754L41.9956 17C41.9956 14.7909 40.2047 13 37.9956 13L37.9956 9Z" fill="#DADEE7" mask="url(#path-21-inside-5_0_4998)"/>
<rect x="403.773" y="13.705" width="19.4444" height="30.2951" rx="4" fill="#DADEE7"/>
<mask id="path-24-inside-6_0_4998" fill="white">
<path d="M400.996 17C400.996 13.6863 403.682 11 406.996 11L419.996 11C423.309 11 425.996 13.6863 425.996 17L425.996 30.4754L400.996 30.4754L400.996 17Z"/>
</mask>
<path d="M398.996 17C398.996 12.5817 402.577 9 406.996 9L419.996 9C424.414 9 427.996 12.5817 427.996 17L423.996 17C423.996 14.7909 422.205 13 419.996 13L406.996 13C404.786 13 402.996 14.7909 402.996 17L398.996 17ZM425.996 30.4754L400.996 30.4754L425.996 30.4754ZM398.996 30.4754L398.996 17C398.996 12.5817 402.577 9 406.996 9L406.996 13C404.786 13 402.996 14.7909 402.996 17L402.996 30.4754L398.996 30.4754ZM419.996 9C424.414 9 427.996 12.5817 427.996 17L427.996 30.4754L423.996 30.4754L423.996 17C423.996 14.7909 422.205 13 419.996 13L419.996 9Z" fill="#DADEE7" mask="url(#path-24-inside-6_0_4998)"/>
<rect x="341.155" y="13.705" width="19.4444" height="30.2951" rx="4" fill="#DADEE7"/>
<mask id="path-27-inside-7_0_4998" fill="white">
<path d="M338.377 17C338.377 13.6863 341.063 11 344.377 11L357.377 11C360.691 11 363.377 13.6863 363.377 17L363.377 30.4754L338.377 30.4754L338.377 17Z"/>
</mask>
<path d="M336.377 17C336.377 12.5817 339.959 9 344.377 9L357.377 9C361.795 9 365.377 12.5817 365.377 17L361.377 17C361.377 14.7909 359.586 13 357.377 13L344.377 13C342.168 13 340.377 14.7909 340.377 17L336.377 17ZM363.377 30.4754L338.377 30.4754L363.377 30.4754ZM336.377 30.4754L336.377 17C336.377 12.5817 339.959 9 344.377 9L344.377 13C342.168 13 340.377 14.7909 340.377 17L340.377 30.4754L336.377 30.4754ZM357.377 9C361.795 9 365.377 12.5817 365.377 17L365.377 30.4754L361.377 30.4754L361.377 17C361.377 14.7909 359.586 13 357.377 13L357.377 9Z" fill="#DADEE7" mask="url(#path-27-inside-7_0_4998)"/>
<rect x="150.155" y="13.705" width="19.4444" height="30.2951" rx="4" fill="#DADEE7"/>
<mask id="path-30-inside-8_0_4998" fill="white">
<path d="M147.377 17C147.377 13.6863 150.063 11 153.377 11L166.377 11C169.691 11 172.377 13.6863 172.377 17L172.377 30.4754L147.377 30.4754L147.377 17Z"/>
</mask>
<path d="M145.377 17C145.377 12.5817 148.959 9 153.377 9L166.377 9C170.795 9 174.377 12.5817 174.377 17L170.377 17C170.377 14.7909 168.586 13 166.377 13L153.377 13C151.168 13 149.377 14.7909 149.377 17L145.377 17ZM172.377 30.4754L147.377 30.4754L172.377 30.4754ZM145.377 30.4754L145.377 17C145.377 12.5817 148.959 9 153.377 9L153.377 13C151.168 13 149.377 14.7909 149.377 17L149.377 30.4754L145.377 30.4754ZM166.377 9C170.795 9 174.377 12.5817 174.377 17L174.377 30.4754L170.377 30.4754L170.377 17C170.377 14.7909 168.586 13 166.377 13L166.377 9Z" fill="#DADEE7" mask="url(#path-30-inside-8_0_4998)"/>
<rect x="532.155" y="13.705" width="19.4444" height="30.2951" rx="4" fill="#DADEE7"/>
<mask id="path-33-inside-9_0_4998" fill="white">
<path d="M529.377 17C529.377 13.6863 532.064 11 535.377 11L548.377 11C551.691 11 554.377 13.6863 554.377 17L554.377 30.4754L529.377 30.4754L529.377 17Z"/>
</mask>
<path d="M527.377 17C527.377 12.5817 530.959 9 535.377 9L548.377 9C552.796 9 556.377 12.5817 556.377 17L552.377 17C552.377 14.7909 550.587 13 548.377 13L535.377 13C533.168 13 531.377 14.7909 531.377 17L527.377 17ZM554.377 30.4754L529.377 30.4754L554.377 30.4754ZM527.377 30.4754L527.377 17C527.377 12.5817 530.959 9 535.377 9L535.377 13C533.168 13 531.377 14.7909 531.377 17L531.377 30.4754L527.377 30.4754ZM548.377 9C552.796 9 556.377 12.5817 556.377 17L556.377 30.4754L552.377 30.4754L552.377 17C552.377 14.7909 550.587 13 548.377 13L548.377 9Z" fill="#DADEE7" mask="url(#path-33-inside-9_0_4998)"/>
<rect x="244.241" y="13.705" width="19.4444" height="30.295" rx="4" fill="#DADEE7"/>
<mask id="path-36-inside-10_0_4998" fill="white">
<path d="M241.463 17C241.463 13.6863 244.15 11 247.463 11L260.463 11C263.777 11 266.463 13.6863 266.463 17L266.463 30.4754L241.463 30.4754L241.463 17Z"/>
</mask>
<path d="M239.463 17C239.463 12.5817 243.045 9 247.463 9L260.463 9C264.882 9 268.463 12.5817 268.463 17L264.463 17C264.463 14.7909 262.673 13 260.463 13L247.463 13C245.254 13 243.463 14.7909 243.463 17L239.463 17ZM266.463 30.4754L241.463 30.4754L266.463 30.4754ZM239.463 30.4754L239.463 17C239.463 12.5817 243.045 9 247.463 9L247.463 13C245.254 13 243.463 14.7909 243.463 17L243.463 30.4754L239.463 30.4754ZM260.463 9C264.882 9 268.463 12.5817 268.463 17L268.463 30.4754L264.463 30.4754L264.463 17C264.463 14.7909 262.673 13 260.463 13L260.463 9Z" fill="#DADEE7" mask="url(#path-36-inside-10_0_4998)"/>
<rect x="53.2412" y="13.705" width="19.4444" height="30.295" rx="4" fill="#DADEE7"/>
<mask id="path-39-inside-11_0_4998" fill="white">
<path d="M50.4634 17C50.4634 13.6863 53.1497 11 56.4634 11L69.4634 11C72.7771 11 75.4634 13.6863 75.4634 17L75.4634 30.4754L50.4634 30.4754L50.4634 17Z"/>
</mask>
<path d="M48.4634 17C48.4634 12.5817 52.0451 9 56.4634 9L69.4634 9C73.8817 9 77.4634 12.5817 77.4634 17L73.4634 17C73.4634 14.7909 71.6725 13 69.4634 13L56.4634 13C54.2542 13 52.4634 14.7909 52.4634 17L48.4634 17ZM75.4634 30.4754L50.4634 30.4754L75.4634 30.4754ZM48.4634 30.4754L48.4634 17C48.4634 12.5817 52.0451 9 56.4634 9L56.4634 13C54.2542 13 52.4634 14.7909 52.4634 17L52.4634 30.4754L48.4634 30.4754ZM69.4634 9C73.8817 9 77.4634 12.5817 77.4634 17L77.4634 30.4754L73.4634 30.4754L73.4634 17C73.4634 14.7909 71.6725 13 69.4634 13L69.4634 9Z" fill="#DADEE7" mask="url(#path-39-inside-11_0_4998)"/>
<rect x="435.241" y="13.705" width="19.4444" height="30.295" rx="4" fill="#DADEE7"/>
<mask id="path-42-inside-12_0_4998" fill="white">
<path d="M432.463 17C432.463 13.6863 435.15 11 438.463 11L451.463 11C454.777 11 457.463 13.6863 457.463 17L457.463 30.4754L432.463 30.4754L432.463 17Z"/>
</mask>
<path d="M430.463 17C430.463 12.5817 434.045 9 438.463 9L451.463 9C455.882 9 459.463 12.5817 459.463 17L455.463 17C455.463 14.7909 453.673 13 451.463 13L438.463 13C436.254 13 434.463 14.7909 434.463 17L430.463 17ZM457.463 30.4754L432.463 30.4754L457.463 30.4754ZM430.463 30.4754L430.463 17C430.463 12.5817 434.045 9 438.463 9L438.463 13C436.254 13 434.463 14.7909 434.463 17L434.463 30.4754L430.463 30.4754ZM451.463 9C455.882 9 459.463 12.5817 459.463 17L459.463 30.4754L455.463 30.4754L455.463 17C455.463 14.7909 453.673 13 451.463 13L451.463 9Z" fill="#DADEE7" mask="url(#path-42-inside-12_0_4998)"/>
<rect x="326" y="50" width="19" height="17" rx="4" fill="#DADEE7"/>
<path d="M337.45 62L336.59 59.79H333.76L332.91 62H332L334.79 54.83H335.6L338.38 62H337.45ZM335.52 56.83C335.5 56.7767 335.467 56.68 335.42 56.54C335.373 56.4 335.327 56.2567 335.28 56.11C335.24 55.9567 335.207 55.84 335.18 55.76C335.147 55.8933 335.11 56.03 335.07 56.17C335.037 56.3033 335 56.4267 334.96 56.54C334.927 56.6533 334.897 56.75 334.87 56.83L334.06 58.99H336.32L335.52 56.83Z" fill="#2B3674"/>
<rect x="135" y="50" width="19" height="17" rx="4" fill="#DADEE7"/>
<path d="M146.45 62L145.59 59.79H142.76L141.91 62H141L143.79 54.83H144.6L147.38 62H146.45ZM144.52 56.83C144.5 56.7767 144.467 56.68 144.42 56.54C144.373 56.4 144.327 56.2567 144.28 56.11C144.24 55.9567 144.207 55.84 144.18 55.76C144.147 55.8933 144.11 56.03 144.07 56.17C144.037 56.3033 144 56.4267 143.96 56.54C143.927 56.6533 143.897 56.75 143.87 56.83L143.06 58.99H145.32L144.52 56.83Z" fill="#2B3674"/>
<rect x="517" y="50" width="19" height="17" rx="4" fill="#DADEE7"/>
<path d="M528.45 62L527.59 59.79H524.76L523.91 62H523L525.79 54.83H526.6L529.38 62H528.45ZM526.52 56.83C526.5 56.7767 526.467 56.68 526.42 56.54C526.373 56.4 526.327 56.2567 526.28 56.11C526.24 55.9567 526.207 55.84 526.18 55.76C526.147 55.8933 526.11 56.03 526.07 56.17C526.037 56.3033 526 56.4267 525.96 56.54C525.927 56.6533 525.897 56.75 525.87 56.83L525.06 58.99H527.32L526.52 56.83Z" fill="#2B3674"/>
<rect x="228" y="50" width="19" height="17" rx="4" fill="#DADEE7"/>
<path d="M234.97 62V54.86H239.21V55.65H235.87V57.88H236.93C237.643 57.88 238.197 57.97 238.59 58.15C238.983 58.3233 239.257 58.5633 239.41 58.87C239.563 59.17 239.64 59.5167 239.64 59.91C239.64 60.3433 239.553 60.7167 239.38 61.03C239.213 61.3433 238.94 61.5833 238.56 61.75C238.18 61.9167 237.68 62 237.06 62H234.97ZM236.97 61.23C237.61 61.23 238.06 61.1233 238.32 60.91C238.58 60.69 238.71 60.3567 238.71 59.91C238.71 59.6033 238.647 59.36 238.52 59.18C238.4 58.9933 238.2 58.86 237.92 58.78C237.647 58.7 237.28 58.66 236.82 58.66H235.87V61.23H236.97Z" fill="#2B3674"/>
<rect x="37" y="50" width="19" height="17" rx="4" fill="#DADEE7"/>
<path d="M43.97 62V54.86H48.21V55.65H44.87V57.88H45.93C46.6433 57.88 47.1967 57.97 47.59 58.15C47.9833 58.3233 48.2567 58.5633 48.41 58.87C48.5633 59.17 48.64 59.5167 48.64 59.91C48.64 60.3433 48.5533 60.7167 48.38 61.03C48.2133 61.3433 47.94 61.5833 47.56 61.75C47.18 61.9167 46.68 62 46.06 62H43.97ZM45.97 61.23C46.61 61.23 47.06 61.1233 47.32 60.91C47.58 60.69 47.71 60.3567 47.71 59.91C47.71 59.6033 47.6467 59.36 47.52 59.18C47.4 58.9933 47.2 58.86 46.92 58.78C46.6467 58.7 46.28 58.66 45.82 58.66H44.87V61.23H45.97Z" fill="#2B3674"/>
<rect x="419" y="50" width="19" height="17" rx="4" fill="#DADEE7"/>
<path d="M425.97 62V54.86H430.21V55.65H426.87V57.88H427.93C428.643 57.88 429.197 57.97 429.59 58.15C429.983 58.3233 430.257 58.5633 430.41 58.87C430.563 59.17 430.64 59.5167 430.64 59.91C430.64 60.3433 430.553 60.7167 430.38 61.03C430.213 61.3433 429.94 61.5833 429.56 61.75C429.18 61.9167 428.68 62 428.06 62H425.97ZM427.97 61.23C428.61 61.23 429.06 61.1233 429.32 60.91C429.58 60.69 429.71 60.3567 429.71 59.91C429.71 59.6033 429.647 59.36 429.52 59.18C429.4 58.9933 429.2 58.86 428.92 58.78C428.647 58.7 428.28 58.66 427.82 58.66H426.87V61.23H427.97Z" fill="#2B3674"/>
<rect x="260" y="63" width="56" height="25" rx="4" fill="#DADEE7"/>
<path d="M269.33 80V70.004H270.744L275.294 78.236H275.35C275.341 77.9933 275.327 77.7133 275.308 77.396C275.289 77.0787 275.275 76.7613 275.266 76.444C275.257 76.1173 275.252 75.8373 275.252 75.604V70.004H276.358V80H274.986L270.38 71.74H270.324C270.343 71.9827 270.357 72.272 270.366 72.608C270.385 72.9347 270.399 73.2613 270.408 73.588C270.427 73.9147 270.436 74.204 270.436 74.456V80H269.33ZM277.688 80V79.034H281.286V80H277.688ZM279.48 78.124C279.079 78.124 278.719 78.0353 278.402 77.858C278.094 77.6713 277.851 77.4007 277.674 77.046C277.497 76.6913 277.408 76.2573 277.408 75.744C277.408 74.9787 277.595 74.3953 277.968 73.994C278.351 73.5833 278.869 73.378 279.522 73.378C279.923 73.378 280.278 73.4713 280.586 73.658C280.903 73.8353 281.151 74.1013 281.328 74.456C281.515 74.8013 281.608 75.2307 281.608 75.744C281.608 76.5093 281.417 77.0973 281.034 77.508C280.651 77.9187 280.133 78.124 279.48 78.124ZM279.508 77.312C279.919 77.312 280.213 77.1813 280.39 76.92C280.567 76.6493 280.656 76.2573 280.656 75.744C280.656 75.2213 280.567 74.8387 280.39 74.596C280.213 74.344 279.919 74.218 279.508 74.218C279.107 74.218 278.813 74.344 278.626 74.596C278.439 74.8387 278.346 75.2213 278.346 75.744C278.346 76.2573 278.435 76.6493 278.612 76.92C278.799 77.1813 279.097 77.312 279.508 77.312ZM289.371 70.872L285.479 80H284.191L288.139 70.998H282.735V69.906H289.371V70.872ZM290.784 74.834C290.784 73.2287 291.045 71.978 291.568 71.082C292.091 70.1767 293.005 69.724 294.312 69.724C295.609 69.724 296.519 70.1767 297.042 71.082C297.565 71.978 297.826 73.2287 297.826 74.834C297.826 76.4673 297.565 77.7367 297.042 78.642C296.519 79.5473 295.609 80 294.312 80C293.005 80 292.091 79.5473 291.568 78.642C291.045 77.7367 290.784 76.4673 290.784 74.834ZM296.566 74.834C296.566 74.022 296.51 73.336 296.398 72.776C296.295 72.2067 296.076 71.7493 295.74 71.404C295.413 71.0587 294.937 70.886 294.312 70.886C293.677 70.886 293.192 71.0587 292.856 71.404C292.529 71.7493 292.31 72.2067 292.198 72.776C292.095 73.336 292.044 74.022 292.044 74.834C292.044 75.674 292.095 76.3787 292.198 76.948C292.31 77.5173 292.529 77.9747 292.856 78.32C293.192 78.6653 293.677 78.838 294.312 78.838C294.937 78.838 295.413 78.6653 295.74 78.32C296.076 77.9747 296.295 77.5173 296.398 76.948C296.51 76.3787 296.566 75.674 296.566 74.834ZM301.423 74.736C300.9 74.5307 300.499 74.232 300.219 73.84C299.939 73.448 299.799 72.972 299.799 72.412C299.799 71.908 299.925 71.4553 300.177 71.054C300.429 70.6433 300.802 70.3213 301.297 70.088C301.801 69.8453 302.408 69.724 303.117 69.724C303.826 69.724 304.428 69.8453 304.923 70.088C305.427 70.3213 305.805 70.6433 306.057 71.054C306.318 71.4553 306.449 71.908 306.449 72.412C306.449 72.9533 306.304 73.4293 306.015 73.84C305.726 74.2413 305.329 74.54 304.825 74.736C305.404 74.9133 305.861 75.226 306.197 75.674C306.542 76.1127 306.715 76.6447 306.715 77.27C306.715 77.8767 306.566 78.4087 306.267 78.866C305.968 79.314 305.544 79.664 304.993 79.916C304.452 80.1587 303.826 80.28 303.117 80.28C302.408 80.28 301.782 80.1587 301.241 79.916C300.709 79.664 300.294 79.314 299.995 78.866C299.696 78.4087 299.547 77.8767 299.547 77.27C299.547 76.6447 299.715 76.108 300.051 75.66C300.387 75.212 300.844 74.904 301.423 74.736ZM305.217 72.566C305.217 71.9967 305.03 71.558 304.657 71.25C304.284 70.942 303.77 70.788 303.117 70.788C302.473 70.788 301.964 70.942 301.591 71.25C301.218 71.558 301.031 72.0013 301.031 72.58C301.031 73.1027 301.222 73.5227 301.605 73.84C301.997 74.1573 302.501 74.316 303.117 74.316C303.742 74.316 304.246 74.1573 304.629 73.84C305.021 73.5133 305.217 73.0887 305.217 72.566ZM303.117 75.296C302.426 75.296 301.862 75.4593 301.423 75.786C300.984 76.1033 300.765 76.584 300.765 77.228C300.765 77.8253 300.975 78.306 301.395 78.67C301.824 79.034 302.398 79.216 303.117 79.216C303.836 79.216 304.405 79.034 304.825 78.67C305.245 78.306 305.455 77.8253 305.455 77.228C305.455 76.6027 305.24 76.1267 304.811 75.8C304.382 75.464 303.817 75.296 303.117 75.296Z" fill="#2B3674"/>
<path fill-rule="evenodd" clip-rule="evenodd" d="M788 68L788 0L788 1.00004L789.5 1.00004L789.5 68C789.5 69.933 791.067 71.5 793 71.5L849 71.5L849 73L793 73C790.239 73 788 70.7614 788 68ZM920 73L975 73C977.761 73 980 70.7615 980 68L980 1.00003L978.5 1.00003L978.5 68C978.5 69.933 976.933 71.5 975 71.5L920 71.5L920 73Z" fill="#B0BBD5"/>
<path fill-rule="evenodd" clip-rule="evenodd" d="M979 68L979 1L980.5 1L980.5 68C980.5 69.933 982.067 71.5 984 71.5L1040 71.5L1040 73L984 73C981.239 73 979 70.7614 979 68ZM1111 73L1166 73C1168.76 73 1171 70.7615 1171 68L1171 1.00003L1169.5 1.00003L1169.5 68C1169.5 69.933 1167.93 71.5 1166 71.5L1111 71.5L1111 73Z" fill="#B0BBD5"/>
<rect x="885.004" y="44" width="2" height="43" rx="1" transform="rotate(-180 885.004 44)" fill="#B0BBD5"/>
<rect x="906.692" y="13.705" width="19.4444" height="30.2951" rx="4" fill="#DADEE7"/>
<mask id="path-62-inside-13_0_4998" fill="white">
<path d="M903.914 17C903.914 13.6863 906.6 11 909.914 11L922.914 11C926.228 11 928.914 13.6863 928.914 17L928.914 30.4754L903.914 30.4754L903.914 17Z"/>
</mask>
<path d="M901.914 17C901.914 12.5817 905.496 9 909.914 9L922.914 9C927.332 9 930.914 12.5817 930.914 17L926.914 17C926.914 14.7909 925.123 13 922.914 13L909.914 13C907.705 13 905.914 14.7909 905.914 17L901.914 17ZM928.914 30.4754L903.914 30.4754L928.914 30.4754ZM901.914 30.4754L901.914 17C901.914 12.5817 905.496 9 909.914 9L909.914 13C907.705 13 905.914 14.7909 905.914 17L905.914 30.4754L901.914 30.4754ZM922.914 9C927.332 9 930.914 12.5817 930.914 17L930.914 30.4754L926.914 30.4754L926.914 17C926.914 14.7909 925.123 13 922.914 13L922.914 9Z" fill="#DADEE7" mask="url(#path-62-inside-13_0_4998)"/>
<rect x="809.778" y="13.705" width="19.4444" height="30.2951" rx="4" fill="#DADEE7"/>
<mask id="path-65-inside-14_0_4998" fill="white">
<path d="M807 17C807 13.6863 809.686 11 813 11L826 11C829.314 11 832 13.6863 832 17L832 30.4754L807 30.4754L807 17Z"/>
</mask>
<path d="M805 17C805 12.5817 808.582 9 813 9L826 9C830.418 9 834 12.5817 834 17L830 17C830 14.7909 828.209 13 826 13L813 13C810.791 13 809 14.7909 809 17L805 17ZM832 30.4754L807 30.4754L832 30.4754ZM805 30.4754L805 17C805 12.5817 808.582 9 813 9L813 13C810.791 13 809 14.7909 809 17L809 30.4754L805 30.4754ZM826 9C830.418 9 834 12.5817 834 17L834 30.4754L830 30.4754L830 17C830 14.7909 828.209 13 826 13L826 9Z" fill="#DADEE7" mask="url(#path-65-inside-14_0_4998)"/>
<rect x="938.159" y="13.705" width="19.4444" height="30.2951" rx="4" fill="#DADEE7"/>
<mask id="path-68-inside-15_0_4998" fill="white">
<path d="M935.381 17C935.381 13.6863 938.067 11 941.381 11L954.381 11C957.695 11 960.381 13.6863 960.381 17L960.381 30.4754L935.381 30.4754L935.381 17Z"/>
</mask>
<path d="M933.381 17C933.381 12.5817 936.963 9 941.381 9L954.381 9C958.799 9 962.381 12.5817 962.381 17L958.381 17C958.381 14.7909 956.59 13 954.381 13L941.381 13C939.172 13 937.381 14.7909 937.381 17L933.381 17ZM960.381 30.4754L935.381 30.4754L960.381 30.4754ZM933.381 30.4754L933.381 17C933.381 12.5817 936.963 9 941.381 9L941.381 13C939.172 13 937.381 14.7909 937.381 17L937.381 30.4754L933.381 30.4754ZM954.381 9C958.799 9 962.381 12.5817 962.381 17L962.381 30.4754L958.381 30.4754L958.381 17C958.381 14.7909 956.59 13 954.381 13L954.381 9Z" fill="#DADEE7" mask="url(#path-68-inside-15_0_4998)"/>
<rect x="841.246" y="13.705" width="19.4444" height="30.295" rx="4" fill="#DADEE7"/>
<mask id="path-71-inside-16_0_4998" fill="white">
<path d="M838.468 17C838.468 13.6863 841.154 11 844.468 11L857.468 11C860.781 11 863.468 13.6863 863.468 17L863.468 30.4754L838.468 30.4754L838.468 17Z"/>
</mask>
<path d="M836.468 17C836.468 12.5817 840.049 9 844.468 9L857.468 9C861.886 9 865.468 12.5817 865.468 17L861.468 17C861.468 14.7909 859.677 13 857.468 13L844.468 13C842.259 13 840.468 14.7909 840.468 17L836.468 17ZM863.468 30.4754L838.468 30.4754L863.468 30.4754ZM836.468 30.4754L836.468 17C836.468 12.5817 840.049 9 844.468 9L844.468 13C842.259 13 840.468 14.7909 840.468 17L840.468 30.4754L836.468 30.4754ZM857.468 9C861.886 9 865.468 12.5817 865.468 17L865.468 30.4754L861.468 30.4754L861.468 17C861.468 14.7909 859.677 13 857.468 13L857.468 9Z" fill="#DADEE7" mask="url(#path-71-inside-16_0_4998)"/>
<rect x="923.004" y="50" width="19" height="17" rx="4" fill="#DADEE7"/>
<path d="M934.454 62L933.594 59.79H930.764L929.914 62H929.004L931.794 54.83H932.604L935.384 62H934.454ZM932.524 56.83C932.504 56.7767 932.471 56.68 932.424 56.54C932.377 56.4 932.331 56.2567 932.284 56.11C932.244 55.9567 932.211 55.84 932.184 55.76C932.151 55.8933 932.114 56.03 932.074 56.17C932.041 56.3033 932.004 56.4267 931.964 56.54C931.931 56.6533 931.901 56.75 931.874 56.83L931.064 58.99H933.324L932.524 56.83Z" fill="#2B3674"/>
<rect x="825.004" y="50" width="19" height="17" rx="4" fill="#DADEE7"/>
<path d="M831.974 62V54.86H836.214V55.65H832.874V57.88H833.934C834.647 57.88 835.201 57.97 835.594 58.15C835.987 58.3233 836.261 58.5633 836.414 58.87C836.567 59.17 836.644 59.5167 836.644 59.91C836.644 60.3433 836.557 60.7167 836.384 61.03C836.217 61.3433 835.944 61.5833 835.564 61.75C835.184 61.9167 834.684 62 834.064 62H831.974ZM833.974 61.23C834.614 61.23 835.064 61.1233 835.324 60.91C835.584 60.69 835.714 60.3567 835.714 59.91C835.714 59.6033 835.651 59.36 835.524 59.18C835.404 58.9933 835.204 58.86 834.924 58.78C834.651 58.7 834.284 58.66 833.824 58.66H832.874V61.23H833.974Z" fill="#2B3674"/>
<rect x="857.004" y="63" width="55" height="25" rx="4" fill="#DADEE7"/>
<path d="M866.334 80V70.004H867.748L872.298 78.236H872.354C872.345 77.9933 872.331 77.7133 872.312 77.396C872.293 77.0787 872.279 76.7613 872.27 76.444C872.261 76.1173 872.256 75.8373 872.256 75.604V70.004H873.362V80H871.99L867.384 71.74H867.328C867.347 71.9827 867.361 72.272 867.37 72.608C867.389 72.9347 867.403 73.2613 867.412 73.588C867.431 73.9147 867.44 74.204 867.44 74.456V80H866.334ZM874.692 80V79.034H878.29V80H874.692ZM876.484 78.124C876.083 78.124 875.723 78.0353 875.406 77.858C875.098 77.6713 874.855 77.4007 874.678 77.046C874.501 76.6913 874.412 76.2573 874.412 75.744C874.412 74.9787 874.599 74.3953 874.972 73.994C875.355 73.5833 875.873 73.378 876.526 73.378C876.927 73.378 877.282 73.4713 877.59 73.658C877.907 73.8353 878.155 74.1013 878.332 74.456C878.519 74.8013 878.612 75.2307 878.612 75.744C878.612 76.5093 878.421 77.0973 878.038 77.508C877.655 77.9187 877.137 78.124 876.484 78.124ZM876.512 77.312C876.923 77.312 877.217 77.1813 877.394 76.92C877.571 76.6493 877.66 76.2573 877.66 75.744C877.66 75.2213 877.571 74.8387 877.394 74.596C877.217 74.344 876.923 74.218 876.512 74.218C876.111 74.218 875.817 74.344 875.63 74.596C875.443 74.8387 875.35 75.2213 875.35 75.744C875.35 76.2573 875.439 76.6493 875.616 76.92C875.803 77.1813 876.101 77.312 876.512 77.312ZM886.375 70.872L882.483 80H881.195L885.143 70.998H879.739V69.906H886.375V70.872ZM887.788 74.834C887.788 73.2287 888.049 71.978 888.572 71.082C889.095 70.1767 890.009 69.724 891.316 69.724C892.613 69.724 893.523 70.1767 894.046 71.082C894.569 71.978 894.83 73.2287 894.83 74.834C894.83 76.4673 894.569 77.7367 894.046 78.642C893.523 79.5473 892.613 80 891.316 80C890.009 80 889.095 79.5473 888.572 78.642C888.049 77.7367 887.788 76.4673 887.788 74.834ZM893.57 74.834C893.57 74.022 893.514 73.336 893.402 72.776C893.299 72.2067 893.08 71.7493 892.744 71.404C892.417 71.0587 891.941 70.886 891.316 70.886C890.681 70.886 890.196 71.0587 889.86 71.404C889.533 71.7493 889.314 72.2067 889.202 72.776C889.099 73.336 889.048 74.022 889.048 74.834C889.048 75.674 889.099 76.3787 889.202 76.948C889.314 77.5173 889.533 77.9747 889.86 78.32C890.196 78.6653 890.681 78.838 891.316 78.838C891.941 78.838 892.417 78.6653 892.744 78.32C893.08 77.9747 893.299 77.5173 893.402 76.948C893.514 76.3787 893.57 75.674 893.57 74.834ZM896.551 72.426C896.616 71.5673 896.948 70.8953 897.545 70.41C898.142 69.9247 898.917 69.682 899.869 69.682C900.504 69.682 901.05 69.7987 901.507 70.032C901.974 70.256 902.324 70.564 902.557 70.956C902.8 71.348 902.921 71.7913 902.921 72.286C902.921 72.8647 902.753 73.364 902.417 73.784C902.09 74.204 901.661 74.4747 901.129 74.596V74.666C901.736 74.8153 902.216 75.1093 902.571 75.548C902.926 75.9867 903.103 76.5607 903.103 77.27C903.103 77.802 902.982 78.2827 902.739 78.712C902.496 79.132 902.132 79.4633 901.647 79.706C901.162 79.9487 900.578 80.07 899.897 80.07C898.908 80.07 898.096 79.8133 897.461 79.3C896.826 78.7773 896.472 78.04 896.397 77.088H897.629C897.694 77.648 897.923 78.1053 898.315 78.46C898.707 78.8147 899.23 78.992 899.883 78.992C900.536 78.992 901.031 78.824 901.367 78.488C901.712 78.1427 901.885 77.6993 901.885 77.158C901.885 76.458 901.652 75.954 901.185 75.646C900.718 75.338 900.014 75.184 899.071 75.184H898.749V74.12H899.085C899.944 74.1107 900.592 73.9707 901.031 73.7C901.47 73.42 901.689 72.9907 901.689 72.412C901.689 71.9173 901.526 71.5207 901.199 71.222C900.882 70.9233 900.424 70.774 899.827 70.774C899.248 70.774 898.782 70.9233 898.427 71.222C898.072 71.5207 897.862 71.922 897.797 72.426H896.551Z" fill="#2B3674"/>
<rect x="1076" y="44" width="2" height="43" rx="1" transform="rotate(-180 1076 44)" fill="#B0BBD5"/>
<rect x="1097.69" y="13.705" width="19.4444" height="30.2951" rx="4" fill="#DADEE7"/>
<mask id="path-81-inside-17_0_4998" fill="white">
<path d="M1094.91 17C1094.91 13.6863 1097.6 11 1100.91 11L1113.91 11C1117.23 11 1119.91 13.6863 1119.91 17L1119.91 30.4754L1094.91 30.4754L1094.91 17Z"/>
</mask>
<path d="M1092.91 17C1092.91 12.5817 1096.5 9 1100.91 9L1113.91 9C1118.33 9 1121.91 12.5817 1121.91 17L1117.91 17C1117.91 14.7909 1116.12 13 1113.91 13L1100.91 13C1098.7 13 1096.91 14.7909 1096.91 17L1092.91 17ZM1119.91 30.4754L1094.91 30.4754L1119.91 30.4754ZM1092.91 30.4754L1092.91 17C1092.91 12.5817 1096.5 9 1100.91 9L1100.91 13C1098.7 13 1096.91 14.7909 1096.91 17L1096.91 30.4754L1092.91 30.4754ZM1113.91 9C1118.33 9 1121.91 12.5817 1121.91 17L1121.91 30.4754L1117.91 30.4754L1117.91 17C1117.91 14.7909 1116.12 13 1113.91 13L1113.91 9Z" fill="#DADEE7" mask="url(#path-81-inside-17_0_4998)"/>
<rect x="1000.78" y="13.705" width="19.4444" height="30.2951" rx="4" fill="#DADEE7"/>
<mask id="path-84-inside-18_0_4998" fill="white">
<path d="M998 17C998 13.6863 1000.69 11 1004 11L1017 11C1020.31 11 1023 13.6863 1023 17L1023 30.4754L998 30.4754L998 17Z"/>
</mask>
<path d="M996 17C996 12.5817 999.582 9 1004 9L1017 9C1021.42 9 1025 12.5817 1025 17L1021 17C1021 14.7909 1019.21 13 1017 13L1004 13C1001.79 13 1000 14.7909 1000 17L996 17ZM1023 30.4754L998 30.4754L1023 30.4754ZM996 30.4754L996 17C996 12.5817 999.582 9 1004 9L1004 13C1001.79 13 1000 14.7909 1000 17L1000 30.4754L996 30.4754ZM1017 9C1021.42 9 1025 12.5817 1025 17L1025 30.4754L1021 30.4754L1021 17C1021 14.7909 1019.21 13 1017 13L1017 9Z" fill="#DADEE7" mask="url(#path-84-inside-18_0_4998)"/>
<rect x="1129.16" y="13.705" width="19.4444" height="30.2951" rx="4" fill="#DADEE7"/>
<mask id="path-87-inside-19_0_4998" fill="white">
<path d="M1126.38 17C1126.38 13.6863 1129.07 11 1132.38 11L1145.38 11C1148.69 11 1151.38 13.6863 1151.38 17L1151.38 30.4754L1126.38 30.4754L1126.38 17Z"/>
</mask>
<path d="M1124.38 17C1124.38 12.5817 1127.96 9 1132.38 9L1145.38 9C1149.8 9 1153.38 12.5817 1153.38 17L1149.38 17C1149.38 14.7909 1147.59 13 1145.38 13L1132.38 13C1130.17 13 1128.38 14.7909 1128.38 17L1124.38 17ZM1151.38 30.4754L1126.38 30.4754L1151.38 30.4754ZM1124.38 30.4754L1124.38 17C1124.38 12.5817 1127.96 9 1132.38 9L1132.38 13C1130.17 13 1128.38 14.7909 1128.38 17L1128.38 30.4754L1124.38 30.4754ZM1145.38 9C1149.8 9 1153.38 12.5817 1153.38 17L1153.38 30.4754L1149.38 30.4754L1149.38 17C1149.38 14.7909 1147.59 13 1145.38 13L1145.38 9Z" fill="#DADEE7" mask="url(#path-87-inside-19_0_4998)"/>
<rect x="1032.25" y="13.705" width="19.4444" height="30.295" rx="4" fill="#DADEE7"/>
<mask id="path-90-inside-20_0_4998" fill="white">
<path d="M1029.47 17C1029.47 13.6863 1032.15 11 1035.47 11L1048.47 11C1051.78 11 1054.47 13.6863 1054.47 17L1054.47 30.4754L1029.47 30.4754L1029.47 17Z"/>
</mask>
<path d="M1027.47 17C1027.47 12.5817 1031.05 9 1035.47 9L1048.47 9C1052.89 9 1056.47 12.5817 1056.47 17L1052.47 17C1052.47 14.7909 1050.68 13 1048.47 13L1035.47 13C1033.26 13 1031.47 14.7909 1031.47 17L1027.47 17ZM1054.47 30.4754L1029.47 30.4754L1054.47 30.4754ZM1027.47 30.4754L1027.47 17C1027.47 12.5817 1031.05 9 1035.47 9L1035.47 13C1033.26 13 1031.47 14.7909 1031.47 17L1031.47 30.4754L1027.47 30.4754ZM1048.47 9C1052.89 9 1056.47 12.5817 1056.47 17L1056.47 30.4754L1052.47 30.4754L1052.47 17C1052.47 14.7909 1050.68 13 1048.47 13L1048.47 9Z" fill="#DADEE7" mask="url(#path-90-inside-20_0_4998)"/>
<rect x="1114" y="50" width="19" height="17" rx="4" fill="#DADEE7"/>
<path d="M1125.45 62L1124.59 59.79H1121.76L1120.91 62H1120L1122.79 54.83H1123.6L1126.38 62H1125.45ZM1123.52 56.83C1123.5 56.7767 1123.47 56.68 1123.42 56.54C1123.38 56.4 1123.33 56.2567 1123.28 56.11C1123.24 55.9567 1123.21 55.84 1123.18 55.76C1123.15 55.8933 1123.11 56.03 1123.07 56.17C1123.04 56.3033 1123 56.4267 1122.96 56.54C1122.93 56.6533 1122.9 56.75 1122.87 56.83L1122.06 58.99H1124.32L1123.52 56.83Z" fill="#2B3674"/>
<rect x="1016" y="50" width="19" height="17" rx="4" fill="#DADEE7"/>
<path d="M1022.97 62V54.86H1027.21V55.65H1023.87V57.88H1024.93C1025.65 57.88 1026.2 57.97 1026.59 58.15C1026.99 58.3233 1027.26 58.5633 1027.41 58.87C1027.57 59.17 1027.64 59.5167 1027.64 59.91C1027.64 60.3433 1027.56 60.7167 1027.38 61.03C1027.22 61.3433 1026.94 61.5833 1026.56 61.75C1026.18 61.9167 1025.68 62 1025.06 62H1022.97ZM1024.97 61.23C1025.61 61.23 1026.06 61.1233 1026.32 60.91C1026.58 60.69 1026.71 60.3567 1026.71 59.91C1026.71 59.6033 1026.65 59.36 1026.52 59.18C1026.4 58.9933 1026.2 58.86 1025.92 58.78C1025.65 58.7 1025.28 58.66 1024.82 58.66H1023.87V61.23H1024.97Z" fill="#2B3674"/>
<rect x="1048" y="63" width="55" height="25" rx="4" fill="#DADEE7"/>
<path d="M1057.33 80V70.004H1058.75L1063.3 78.236H1063.35C1063.34 77.9933 1063.33 77.7133 1063.31 77.396C1063.29 77.0787 1063.28 76.7613 1063.27 76.444C1063.26 76.1173 1063.26 75.8373 1063.26 75.604V70.004H1064.36V80H1062.99L1058.38 71.74H1058.33C1058.35 71.9827 1058.36 72.272 1058.37 72.608C1058.39 72.9347 1058.4 73.2613 1058.41 73.588C1058.43 73.9147 1058.44 74.204 1058.44 74.456V80H1057.33ZM1065.69 80V79.034H1069.29V80H1065.69ZM1067.48 78.124C1067.08 78.124 1066.72 78.0353 1066.41 77.858C1066.1 77.6713 1065.86 77.4007 1065.68 77.046C1065.5 76.6913 1065.41 76.2573 1065.41 75.744C1065.41 74.9787 1065.6 74.3953 1065.97 73.994C1066.35 73.5833 1066.87 73.378 1067.53 73.378C1067.93 73.378 1068.28 73.4713 1068.59 73.658C1068.91 73.8353 1069.15 74.1013 1069.33 74.456C1069.52 74.8013 1069.61 75.2307 1069.61 75.744C1069.61 76.5093 1069.42 77.0973 1069.04 77.508C1068.66 77.9187 1068.14 78.124 1067.48 78.124ZM1067.51 77.312C1067.92 77.312 1068.22 77.1813 1068.39 76.92C1068.57 76.6493 1068.66 76.2573 1068.66 75.744C1068.66 75.2213 1068.57 74.8387 1068.39 74.596C1068.22 74.344 1067.92 74.218 1067.51 74.218C1067.11 74.218 1066.82 74.344 1066.63 74.596C1066.44 74.8387 1066.35 75.2213 1066.35 75.744C1066.35 76.2573 1066.44 76.6493 1066.62 76.92C1066.8 77.1813 1067.1 77.312 1067.51 77.312ZM1077.38 70.872L1073.48 80H1072.2L1076.14 70.998H1070.74V69.906H1077.38V70.872ZM1078.79 74.834C1078.79 73.2287 1079.05 71.978 1079.57 71.082C1080.09 70.1767 1081.01 69.724 1082.32 69.724C1083.61 69.724 1084.52 70.1767 1085.05 71.082C1085.57 71.978 1085.83 73.2287 1085.83 74.834C1085.83 76.4673 1085.57 77.7367 1085.05 78.642C1084.52 79.5473 1083.61 80 1082.32 80C1081.01 80 1080.09 79.5473 1079.57 78.642C1079.05 77.7367 1078.79 76.4673 1078.79 74.834ZM1084.57 74.834C1084.57 74.022 1084.51 73.336 1084.4 72.776C1084.3 72.2067 1084.08 71.7493 1083.74 71.404C1083.42 71.0587 1082.94 70.886 1082.32 70.886C1081.68 70.886 1081.2 71.0587 1080.86 71.404C1080.53 71.7493 1080.31 72.2067 1080.2 72.776C1080.1 73.336 1080.05 74.022 1080.05 74.834C1080.05 75.674 1080.1 76.3787 1080.2 76.948C1080.31 77.5173 1080.53 77.9747 1080.86 78.32C1081.2 78.6653 1081.68 78.838 1082.32 78.838C1082.94 78.838 1083.42 78.6653 1083.74 78.32C1084.08 77.9747 1084.3 77.5173 1084.4 76.948C1084.51 76.3787 1084.57 75.674 1084.57 74.834ZM1087.42 78.978C1088.61 78.026 1089.54 77.2467 1090.21 76.64C1090.88 76.024 1091.45 75.3847 1091.9 74.722C1092.37 74.05 1092.6 73.392 1092.6 72.748C1092.6 72.1413 1092.46 71.6653 1092.16 71.32C1091.87 70.9653 1091.4 70.788 1090.74 70.788C1090.11 70.788 1089.61 70.9887 1089.26 71.39C1088.91 71.782 1088.73 72.3093 1088.7 72.972H1087.47C1087.5 71.9267 1087.82 71.1193 1088.42 70.55C1089.02 69.9807 1089.79 69.696 1090.73 69.696C1091.69 69.696 1092.45 69.962 1093.01 70.494C1093.58 71.026 1093.86 71.7587 1093.86 72.692C1093.86 73.4667 1093.63 74.2227 1093.16 74.96C1092.71 75.688 1092.18 76.332 1091.6 76.892C1091.01 77.4427 1090.26 78.0867 1089.34 78.824H1094.16V79.888H1087.42V78.978Z" fill="#2B3674"/>
<rect x="69" y="63" width="55" height="25" rx="4" fill="#DADEE7"/>
<path d="M78.33 80V70.004H79.744L84.294 78.236H84.35C84.3407 77.9933 84.3267 77.7133 84.308 77.396C84.2893 77.0787 84.2753 76.7613 84.266 76.444C84.2567 76.1173 84.252 75.8373 84.252 75.604V70.004H85.358V80H83.986L79.38 71.74H79.324C79.3427 71.9827 79.3567 72.272 79.366 72.608C79.3847 72.9347 79.3987 73.2613 79.408 73.588C79.4267 73.9147 79.436 74.204 79.436 74.456V80H78.33ZM86.688 80V79.034H90.286V80H86.688ZM88.48 78.124C88.0787 78.124 87.7193 78.0353 87.402 77.858C87.094 77.6713 86.8513 77.4007 86.674 77.046C86.4967 76.6913 86.408 76.2573 86.408 75.744C86.408 74.9787 86.5947 74.3953 86.968 73.994C87.3507 73.5833 87.8687 73.378 88.522 73.378C88.9233 73.378 89.278 73.4713 89.586 73.658C89.9033 73.8353 90.1507 74.1013 90.328 74.456C90.5147 74.8013 90.608 75.2307 90.608 75.744C90.608 76.5093 90.4167 77.0973 90.034 77.508C89.6513 77.9187 89.1333 78.124 88.48 78.124ZM88.508 77.312C88.9187 77.312 89.2127 77.1813 89.39 76.92C89.5673 76.6493 89.656 76.2573 89.656 75.744C89.656 75.2213 89.5673 74.8387 89.39 74.596C89.2127 74.344 88.9187 74.218 88.508 74.218C88.1067 74.218 87.8127 74.344 87.626 74.596C87.4393 74.8387 87.346 75.2213 87.346 75.744C87.346 76.2573 87.4347 76.6493 87.612 76.92C87.7987 77.1813 88.0973 77.312 88.508 77.312ZM98.3714 70.872L94.4794 80H93.1914L97.1394 70.998H91.7354V69.906H98.3714V70.872ZM99.784 74.834C99.784 73.2287 100.045 71.978 100.568 71.082C101.091 70.1767 102.005 69.724 103.312 69.724C104.609 69.724 105.519 70.1767 106.042 71.082C106.565 71.978 106.826 73.2287 106.826 74.834C106.826 76.4673 106.565 77.7367 106.042 78.642C105.519 79.5473 104.609 80 103.312 80C102.005 80 101.091 79.5473 100.568 78.642C100.045 77.7367 99.784 76.4673 99.784 74.834ZM105.566 74.834C105.566 74.022 105.51 73.336 105.398 72.776C105.295 72.2067 105.076 71.7493 104.74 71.404C104.413 71.0587 103.937 70.886 103.312 70.886C102.677 70.886 102.192 71.0587 101.856 71.404C101.529 71.7493 101.31 72.2067 101.198 72.776C101.095 73.336 101.044 74.022 101.044 74.834C101.044 75.674 101.095 76.3787 101.198 76.948C101.31 77.5173 101.529 77.9747 101.856 78.32C102.192 78.6653 102.677 78.838 103.312 78.838C103.937 78.838 104.413 78.6653 104.74 78.32C105.076 77.9747 105.295 77.5173 105.398 76.948C105.51 76.3787 105.566 75.674 105.566 74.834ZM114.805 70.872L110.913 80H109.625L113.573 70.998H108.169V69.906H114.805V70.872Z" fill="#2B3674"/>
<rect x="451" y="63" width="55" height="25" rx="4" fill="#DADEE7"/>
<path d="M460.33 80V70.004H461.744L466.294 78.236H466.35C466.341 77.9933 466.327 77.7133 466.308 77.396C466.289 77.0787 466.275 76.7613 466.266 76.444C466.257 76.1173 466.252 75.8373 466.252 75.604V70.004H467.358V80H465.986L461.38 71.74H461.324C461.343 71.9827 461.357 72.272 461.366 72.608C461.385 72.9347 461.399 73.2613 461.408 73.588C461.427 73.9147 461.436 74.204 461.436 74.456V80H460.33ZM468.688 80V79.034H472.286V80H468.688ZM470.48 78.124C470.079 78.124 469.719 78.0353 469.402 77.858C469.094 77.6713 468.851 77.4007 468.674 77.046C468.497 76.6913 468.408 76.2573 468.408 75.744C468.408 74.9787 468.595 74.3953 468.968 73.994C469.351 73.5833 469.869 73.378 470.522 73.378C470.923 73.378 471.278 73.4713 471.586 73.658C471.903 73.8353 472.151 74.1013 472.328 74.456C472.515 74.8013 472.608 75.2307 472.608 75.744C472.608 76.5093 472.417 77.0973 472.034 77.508C471.651 77.9187 471.133 78.124 470.48 78.124ZM470.508 77.312C470.919 77.312 471.213 77.1813 471.39 76.92C471.567 76.6493 471.656 76.2573 471.656 75.744C471.656 75.2213 471.567 74.8387 471.39 74.596C471.213 74.344 470.919 74.218 470.508 74.218C470.107 74.218 469.813 74.344 469.626 74.596C469.439 74.8387 469.346 75.2213 469.346 75.744C469.346 76.2573 469.435 76.6493 469.612 76.92C469.799 77.1813 470.097 77.312 470.508 77.312ZM480.371 70.872L476.479 80H475.191L479.139 70.998H473.735V69.906H480.371V70.872ZM481.784 74.834C481.784 73.2287 482.045 71.978 482.568 71.082C483.091 70.1767 484.005 69.724 485.312 69.724C486.609 69.724 487.519 70.1767 488.042 71.082C488.565 71.978 488.826 73.2287 488.826 74.834C488.826 76.4673 488.565 77.7367 488.042 78.642C487.519 79.5473 486.609 80 485.312 80C484.005 80 483.091 79.5473 482.568 78.642C482.045 77.7367 481.784 76.4673 481.784 74.834ZM487.566 74.834C487.566 74.022 487.51 73.336 487.398 72.776C487.295 72.2067 487.076 71.7493 486.74 71.404C486.413 71.0587 485.937 70.886 485.312 70.886C484.677 70.886 484.192 71.0587 483.856 71.404C483.529 71.7493 483.31 72.2067 483.198 72.776C483.095 73.336 483.044 74.022 483.044 74.834C483.044 75.674 483.095 76.3787 483.198 76.948C483.31 77.5173 483.529 77.9747 483.856 78.32C484.192 78.6653 484.677 78.838 485.312 78.838C485.937 78.838 486.413 78.6653 486.74 78.32C487.076 77.9747 487.295 77.5173 487.398 76.948C487.51 76.3787 487.566 75.674 487.566 74.834ZM496.805 70.872L492.913 80H491.625L495.573 70.998H490.169V69.906H496.805V70.872Z" fill="#2B3674"/>
<path fill-rule="evenodd" clip-rule="evenodd" d="M191 68L191 1L192.5 1L192.5 68C192.5 69.933 194.067 71.5 196 71.5L252 71.5L252 73L196 73C193.239 73 191 70.7614 191 68ZM323 73L378 73C380.761 73 383 70.7615 383 68L383 1.00003L381.5 1.00003L381.5 68C381.5 69.933 379.933 71.5 378 71.5L323 71.5L323 73Z" fill="#B0BBD5"/>
<path fill-rule="evenodd" clip-rule="evenodd" d="M-1.17147e-05 68L-6.81138e-06 39.9565L1.49999 39.6522L1.49999 68C1.49999 69.933 3.06699 71.5 4.99999 71.5L61 71.5L61 73L4.99999 73C2.23857 73 -1.21975e-05 70.7614 -1.17147e-05 68ZM132 73L187 73C189.761 73 192 70.7615 192 68L192 1.00003L190.5 1.30438L190.5 68C190.5 69.933 188.933 71.5 187 71.5L132 71.5L132 73Z" fill="#B0BBD5"/>
<path fill-rule="evenodd" clip-rule="evenodd" d="M382 68L382 1L383.5 1L383.5 68C383.5 69.933 385.067 71.5 387 71.5L443 71.5L443 73L387 73C384.239 73 382 70.7614 382 68ZM514 73L569 73C571.761 73 574 70.7615 574 68L574 1.00003L572.5 1.00003L572.5 68C572.5 69.933 570.933 71.5 569 71.5L514 71.5L514 73Z" fill="#B0BBD5"/>
<rect x="97" y="44" width="2" height="43" rx="1" transform="rotate(-180 97 44)" fill="#B0BBD5"/>
<rect x="872.567" y="175.705" width="19.4444" height="30.2951" rx="4" fill="#DADEE7"/>
<mask id="path-107-inside-21_0_4998" fill="white">
<path d="M869.789 179C869.789 175.686 872.475 173 875.789 173H888.789C892.103 173 894.789 175.686 894.789 179V192.475H869.789V179Z"/>
</mask>
<path d="M867.789 179C867.789 174.582 871.371 171 875.789 171H888.789C893.207 171 896.789 174.582 896.789 179H892.789C892.789 176.791 890.998 175 888.789 175H875.789C873.58 175 871.789 176.791 871.789 179H867.789ZM894.789 192.475H869.789H894.789ZM867.789 192.475V179C867.789 174.582 871.371 171 875.789 171V175C873.58 175 871.789 176.791 871.789 179V192.475H867.789ZM888.789 171C893.207 171 896.789 174.582 896.789 179V192.475H892.789V179C892.789 176.791 890.998 175 888.789 175V171Z" fill="#DADEE7" mask="url(#path-107-inside-21_0_4998)"/>
<rect x="968.48" y="175.705" width="19.4444" height="30.2951" rx="4" fill="#DADEE7"/>
<mask id="path-110-inside-22_0_4998" fill="white">
<path d="M965.703 179C965.703 175.686 968.389 173 971.703 173H984.703C988.016 173 990.703 175.686 990.703 179V192.475H965.703V179Z"/>
</mask>
<path d="M963.703 179C963.703 174.582 967.284 171 971.703 171H984.703C989.121 171 992.703 174.582 992.703 179H988.703C988.703 176.791 986.912 175 984.703 175H971.703C969.493 175 967.703 176.791 967.703 179H963.703ZM990.703 192.475H965.703H990.703ZM963.703 192.475V179C963.703 174.582 967.284 171 971.703 171V175C969.493 175 967.703 176.791 967.703 179V192.475H963.703ZM984.703 171C989.121 171 992.703 174.582 992.703 179V192.475H988.703V179C988.703 176.791 986.912 175 984.703 175V171Z" fill="#DADEE7" mask="url(#path-110-inside-22_0_4998)"/>
<rect x="904.035" y="175.705" width="19.4444" height="30.2951" rx="4" fill="#DADEE7"/>
<mask id="path-113-inside-23_0_4998" fill="white">
<path d="M901.257 179C901.257 175.686 903.943 173 907.257 173H920.257C923.571 173 926.257 175.686 926.257 179V192.475H901.257V179Z"/>
</mask>
<path d="M899.257 179C899.257 174.582 902.839 171 907.257 171H920.257C924.675 171 928.257 174.582 928.257 179H924.257C924.257 176.791 922.466 175 920.257 175H907.257C905.048 175 903.257 176.791 903.257 179H899.257ZM926.257 192.475H901.257H926.257ZM899.257 192.475V179C899.257 174.582 902.839 171 907.257 171V175C905.048 175 903.257 176.791 903.257 179V192.475H899.257ZM920.257 171C924.675 171 928.257 174.582 928.257 179V192.475H924.257V179C924.257 176.791 922.466 175 920.257 175V171Z" fill="#DADEE7" mask="url(#path-113-inside-23_0_4998)"/>
<rect x="999.948" y="175.705" width="19.4444" height="30.295" rx="4" fill="#DADEE7"/>
<mask id="path-116-inside-24_0_4998" fill="white">
<path d="M997.17 179C997.17 175.686 999.857 173 1003.17 173H1016.17C1019.48 173 1022.17 175.686 1022.17 179V192.475H997.17V179Z"/>
</mask>
<path d="M995.17 179C995.17 174.582 998.752 171 1003.17 171H1016.17C1020.59 171 1024.17 174.582 1024.17 179H1020.17C1020.17 176.791 1018.38 175 1016.17 175H1003.17C1000.96 175 999.17 176.791 999.17 179H995.17ZM1022.17 192.475H997.17H1022.17ZM995.17 192.475V179C995.17 174.582 998.752 171 1003.17 171V175C1000.96 175 999.17 176.791 999.17 179V192.475H995.17ZM1016.17 171C1020.59 171 1024.17 174.582 1024.17 179V192.475H1020.17V179C1020.17 176.791 1018.38 175 1016.17 175V171Z" fill="#DADEE7" mask="url(#path-116-inside-24_0_4998)"/>
<rect x="888" y="150" width="19" height="17" rx="4" fill="#DADEE7"/>
<path d="M899.45 162L898.59 159.79H895.76L894.91 162H894L896.79 154.83H897.6L900.38 162H899.45ZM897.52 156.83C897.5 156.777 897.467 156.68 897.42 156.54C897.373 156.4 897.327 156.257 897.28 156.11C897.24 155.957 897.207 155.84 897.18 155.76C897.147 155.893 897.11 156.03 897.07 156.17C897.037 156.303 897 156.427 896.96 156.54C896.927 156.653 896.897 156.75 896.87 156.83L896.06 158.99H898.32L897.52 156.83Z" fill="#2B3674"/>
<rect x="986" y="150" width="19" height="17" rx="4" fill="#DADEE7"/>
<path d="M992.97 162V154.86H997.21V155.65H993.87V157.88H994.93C995.643 157.88 996.197 157.97 996.59 158.15C996.983 158.323 997.257 158.563 997.41 158.87C997.563 159.17 997.64 159.517 997.64 159.91C997.64 160.343 997.553 160.717 997.38 161.03C997.213 161.343 996.94 161.583 996.56 161.75C996.18 161.917 995.68 162 995.06 162H992.97ZM994.97 161.23C995.61 161.23 996.06 161.123 996.32 160.91C996.58 160.69 996.71 160.357 996.71 159.91C996.71 159.603 996.647 159.36 996.52 159.18C996.4 158.993 996.2 158.86 995.92 158.78C995.647 158.7 995.28 158.66 994.82 158.66H993.87V161.23H994.97Z" fill="#2B3674"/>
<rect x="920" y="129" width="56" height="25" rx="4" fill="#DADEE7"/>
<path d="M929.33 146V136.004H930.744L935.294 144.236H935.35C935.341 143.993 935.327 143.713 935.308 143.396C935.289 143.079 935.275 142.761 935.266 142.444C935.257 142.117 935.252 141.837 935.252 141.604V136.004H936.358V146H934.986L930.38 137.74H930.324C930.343 137.983 930.357 138.272 930.366 138.608C930.385 138.935 930.399 139.261 930.408 139.588C930.427 139.915 930.436 140.204 930.436 140.456V146H929.33ZM937.688 146V145.034H941.286V146H937.688ZM939.48 144.124C939.079 144.124 938.719 144.035 938.402 143.858C938.094 143.671 937.851 143.401 937.674 143.046C937.497 142.691 937.408 142.257 937.408 141.744C937.408 140.979 937.595 140.395 937.968 139.994C938.351 139.583 938.869 139.378 939.522 139.378C939.923 139.378 940.278 139.471 940.586 139.658C940.903 139.835 941.151 140.101 941.328 140.456C941.515 140.801 941.608 141.231 941.608 141.744C941.608 142.509 941.417 143.097 941.034 143.508C940.651 143.919 940.133 144.124 939.48 144.124ZM939.508 143.312C939.919 143.312 940.213 143.181 940.39 142.92C940.567 142.649 940.656 142.257 940.656 141.744C940.656 141.221 940.567 140.839 940.39 140.596C940.213 140.344 939.919 140.218 939.508 140.218C939.107 140.218 938.813 140.344 938.626 140.596C938.439 140.839 938.346 141.221 938.346 141.744C938.346 142.257 938.435 142.649 938.612 142.92C938.799 143.181 939.097 143.312 939.508 143.312ZM949.371 136.872L945.479 146H944.191L948.139 136.998H942.735V135.906H949.371V136.872ZM950.784 140.834C950.784 139.229 951.045 137.978 951.568 137.082C952.091 136.177 953.005 135.724 954.312 135.724C955.609 135.724 956.519 136.177 957.042 137.082C957.565 137.978 957.826 139.229 957.826 140.834C957.826 142.467 957.565 143.737 957.042 144.642C956.519 145.547 955.609 146 954.312 146C953.005 146 952.091 145.547 951.568 144.642C951.045 143.737 950.784 142.467 950.784 140.834ZM956.566 140.834C956.566 140.022 956.51 139.336 956.398 138.776C956.295 138.207 956.076 137.749 955.74 137.404C955.413 137.059 954.937 136.886 954.312 136.886C953.677 136.886 953.192 137.059 952.856 137.404C952.529 137.749 952.31 138.207 952.198 138.776C952.095 139.336 952.044 140.022 952.044 140.834C952.044 141.674 952.095 142.379 952.198 142.948C952.31 143.517 952.529 143.975 952.856 144.32C953.192 144.665 953.677 144.838 954.312 144.838C954.937 144.838 955.413 144.665 955.74 144.32C956.076 143.975 956.295 143.517 956.398 142.948C956.51 142.379 956.566 141.674 956.566 140.834ZM959.267 143.746V142.78L964.181 135.976H965.707V142.64H967.107V143.746H965.707V146H964.447V143.746H959.267ZM964.503 137.306L960.737 142.64H964.503V137.306Z" fill="#2B3674"/>
<path fill-rule="evenodd" clip-rule="evenodd" d="M1042 149L1042 216L1040.5 216L1040.5 149C1040.5 147.067 1038.93 145.5 1037 145.5L981 145.5L981 144L1037 144C1039.76 144 1042 146.239 1042 149ZM910 144L855 144C852.239 144 850 146.239 850 149L850 216L851.5 216L851.5 149C851.5 147.067 853.067 145.5 855 145.5L910 145.5L910 144Z" fill="#B0BBD5"/>
<rect x="1062.57" y="175.705" width="19.4444" height="30.2951" rx="4" fill="#DADEE7"/>
<mask id="path-126-inside-25_0_4998" fill="white">
<path d="M1059.79 179C1059.79 175.686 1062.48 173 1065.79 173H1078.79C1082.1 173 1084.79 175.686 1084.79 179V192.475H1059.79V179Z"/>
</mask>
<path d="M1057.79 179C1057.79 174.582 1061.37 171 1065.79 171H1078.79C1083.21 171 1086.79 174.582 1086.79 179H1082.79C1082.79 176.791 1081 175 1078.79 175H1065.79C1063.58 175 1061.79 176.791 1061.79 179H1057.79ZM1084.79 192.475H1059.79H1084.79ZM1057.79 192.475V179C1057.79 174.582 1061.37 171 1065.79 171V175C1063.58 175 1061.79 176.791 1061.79 179V192.475H1057.79ZM1078.79 171C1083.21 171 1086.79 174.582 1086.79 179V192.475H1082.79V179C1082.79 176.791 1081 175 1078.79 175V171Z" fill="#DADEE7" mask="url(#path-126-inside-25_0_4998)"/>
<rect x="1158.48" y="175.705" width="19.4444" height="30.2951" rx="4" fill="#DADEE7"/>
<mask id="path-129-inside-26_0_4998" fill="white">
<path d="M1155.7 179C1155.7 175.686 1158.39 173 1161.7 173H1174.7C1178.02 173 1180.7 175.686 1180.7 179V192.475H1155.7V179Z"/>
</mask>
<path d="M1153.7 179C1153.7 174.582 1157.28 171 1161.7 171H1174.7C1179.12 171 1182.7 174.582 1182.7 179H1178.7C1178.7 176.791 1176.91 175 1174.7 175H1161.7C1159.49 175 1157.7 176.791 1157.7 179H1153.7ZM1180.7 192.475H1155.7H1180.7ZM1153.7 192.475V179C1153.7 174.582 1157.28 171 1161.7 171V175C1159.49 175 1157.7 176.791 1157.7 179V192.475H1153.7ZM1174.7 171C1179.12 171 1182.7 174.582 1182.7 179V192.475H1178.7V179C1178.7 176.791 1176.91 175 1174.7 175V171Z" fill="#DADEE7" mask="url(#path-129-inside-26_0_4998)"/>
<rect x="1094.03" y="175.705" width="19.4444" height="30.2951" rx="4" fill="#DADEE7"/>
<mask id="path-132-inside-27_0_4998" fill="white">
<path d="M1091.26 179C1091.26 175.686 1093.94 173 1097.26 173H1110.26C1113.57 173 1116.26 175.686 1116.26 179V192.475H1091.26V179Z"/>
</mask>
<path d="M1089.26 179C1089.26 174.582 1092.84 171 1097.26 171H1110.26C1114.68 171 1118.26 174.582 1118.26 179H1114.26C1114.26 176.791 1112.47 175 1110.26 175H1097.26C1095.05 175 1093.26 176.791 1093.26 179H1089.26ZM1116.26 192.475H1091.26H1116.26ZM1089.26 192.475V179C1089.26 174.582 1092.84 171 1097.26 171V175C1095.05 175 1093.26 176.791 1093.26 179V192.475H1089.26ZM1110.26 171C1114.68 171 1118.26 174.582 1118.26 179V192.475H1114.26V179C1114.26 176.791 1112.47 175 1110.26 175V171Z" fill="#DADEE7" mask="url(#path-132-inside-27_0_4998)"/>
<rect x="1189.95" y="175.705" width="19.4444" height="30.295" rx="4" fill="#DADEE7"/>
<mask id="path-135-inside-28_0_4998" fill="white">
<path d="M1187.17 179C1187.17 175.686 1189.86 173 1193.17 173H1206.17C1209.48 173 1212.17 175.686 1212.17 179V192.475H1187.17V179Z"/>
</mask>
<path d="M1185.17 179C1185.17 174.582 1188.75 171 1193.17 171H1206.17C1210.59 171 1214.17 174.582 1214.17 179H1210.17C1210.17 176.791 1208.38 175 1206.17 175H1193.17C1190.96 175 1189.17 176.791 1189.17 179H1185.17ZM1212.17 192.475H1187.17H1212.17ZM1185.17 192.475V179C1185.17 174.582 1188.75 171 1193.17 171V175C1190.96 175 1189.17 176.791 1189.17 179V192.475H1185.17ZM1206.17 171C1210.59 171 1214.17 174.582 1214.17 179V192.475H1210.17V179C1210.17 176.791 1208.38 175 1206.17 175V171Z" fill="#DADEE7" mask="url(#path-135-inside-28_0_4998)"/>
<rect x="1078" y="150" width="19" height="17" rx="4" fill="#DADEE7"/>
<path d="M1089.45 162L1088.59 159.79H1085.76L1084.91 162H1084L1086.79 154.83H1087.6L1090.38 162H1089.45ZM1087.52 156.83C1087.5 156.777 1087.47 156.68 1087.42 156.54C1087.37 156.4 1087.33 156.257 1087.28 156.11C1087.24 155.957 1087.21 155.84 1087.18 155.76C1087.15 155.893 1087.11 156.03 1087.07 156.17C1087.04 156.303 1087 156.427 1086.96 156.54C1086.93 156.653 1086.9 156.75 1086.87 156.83L1086.06 158.99H1088.32L1087.52 156.83Z" fill="#2B3674"/>
<rect x="1176" y="150" width="19" height="17" rx="4" fill="#DADEE7"/>
<path d="M1182.97 162V154.86H1187.21V155.65H1183.87V157.88H1184.93C1185.64 157.88 1186.2 157.97 1186.59 158.15C1186.98 158.323 1187.26 158.563 1187.41 158.87C1187.56 159.17 1187.64 159.517 1187.64 159.91C1187.64 160.343 1187.55 160.717 1187.38 161.03C1187.21 161.343 1186.94 161.583 1186.56 161.75C1186.18 161.917 1185.68 162 1185.06 162H1182.97ZM1184.97 161.23C1185.61 161.23 1186.06 161.123 1186.32 160.91C1186.58 160.69 1186.71 160.357 1186.71 159.91C1186.71 159.603 1186.65 159.36 1186.52 159.18C1186.4 158.993 1186.2 158.86 1185.92 158.78C1185.65 158.7 1185.28 158.66 1184.82 158.66H1183.87V161.23H1184.97Z" fill="#2B3674"/>
<rect x="1110" y="129" width="52" height="25" rx="4" fill="#DADEE7"/>
<path d="M1119.33 146V136.004H1120.74L1125.29 144.236H1125.35C1125.34 143.993 1125.33 143.713 1125.31 143.396C1125.29 143.079 1125.28 142.761 1125.27 142.444C1125.26 142.117 1125.25 141.837 1125.25 141.604V136.004H1126.36V146H1124.99L1120.38 137.74H1120.32C1120.34 137.983 1120.36 138.272 1120.37 138.608C1120.38 138.935 1120.4 139.261 1120.41 139.588C1120.43 139.915 1120.44 140.204 1120.44 140.456V146H1119.33ZM1127.69 146V145.034H1131.29V146H1127.69ZM1129.48 144.124C1129.08 144.124 1128.72 144.035 1128.4 143.858C1128.09 143.671 1127.85 143.401 1127.67 143.046C1127.5 142.691 1127.41 142.257 1127.41 141.744C1127.41 140.979 1127.59 140.395 1127.97 139.994C1128.35 139.583 1128.87 139.378 1129.52 139.378C1129.92 139.378 1130.28 139.471 1130.59 139.658C1130.9 139.835 1131.15 140.101 1131.33 140.456C1131.51 140.801 1131.61 141.231 1131.61 141.744C1131.61 142.509 1131.42 143.097 1131.03 143.508C1130.65 143.919 1130.13 144.124 1129.48 144.124ZM1129.51 143.312C1129.92 143.312 1130.21 143.181 1130.39 142.92C1130.57 142.649 1130.66 142.257 1130.66 141.744C1130.66 141.221 1130.57 140.839 1130.39 140.596C1130.21 140.344 1129.92 140.218 1129.51 140.218C1129.11 140.218 1128.81 140.344 1128.63 140.596C1128.44 140.839 1128.35 141.221 1128.35 141.744C1128.35 142.257 1128.43 142.649 1128.61 142.92C1128.8 143.181 1129.1 143.312 1129.51 143.312ZM1139.37 136.872L1135.48 146H1134.19L1138.14 136.998H1132.74V135.906H1139.37V136.872ZM1140.78 140.834C1140.78 139.229 1141.05 137.978 1141.57 137.082C1142.09 136.177 1143.01 135.724 1144.31 135.724C1145.61 135.724 1146.52 136.177 1147.04 137.082C1147.56 137.978 1147.83 139.229 1147.83 140.834C1147.83 142.467 1147.56 143.737 1147.04 144.642C1146.52 145.547 1145.61 146 1144.31 146C1143.01 146 1142.09 145.547 1141.57 144.642C1141.05 143.737 1140.78 142.467 1140.78 140.834ZM1146.57 140.834C1146.57 140.022 1146.51 139.336 1146.4 138.776C1146.3 138.207 1146.08 137.749 1145.74 137.404C1145.41 137.059 1144.94 136.886 1144.31 136.886C1143.68 136.886 1143.19 137.059 1142.86 137.404C1142.53 137.749 1142.31 138.207 1142.2 138.776C1142.1 139.336 1142.04 140.022 1142.04 140.834C1142.04 141.674 1142.1 142.379 1142.2 142.948C1142.31 143.517 1142.53 143.975 1142.86 144.32C1143.19 144.665 1143.68 144.838 1144.31 144.838C1144.94 144.838 1145.41 144.665 1145.74 144.32C1146.08 143.975 1146.3 143.517 1146.4 142.948C1146.51 142.379 1146.57 141.674 1146.57 140.834ZM1149.24 137.04V135.878H1151.87V146H1150.58V137.04H1149.24Z" fill="#2B3674"/>
<path fill-rule="evenodd" clip-rule="evenodd" d="M1232 149L1232 216L1230.5 216L1230.5 149C1230.5 147.067 1228.93 145.5 1227 145.5L1171 145.5L1171 144L1227 144C1229.76 144 1232 146.239 1232 149ZM1100 144L1045 144C1042.24 144 1040 146.239 1040 149L1040 216L1041.5 216L1041.5 149C1041.5 147.067 1043.07 145.5 1045 145.5L1100 145.5L1100 144Z" fill="#B0BBD5"/>
<path fill-rule="evenodd" clip-rule="evenodd" d="M851 149.002L851 216.002L849.5 216.002L849.5 149.002C849.5 147.069 847.933 145.502 846 145.502L744 145.502L744 144.002L846 144.002C848.761 144.002 851 146.241 851 149.002ZM659 144.002L558 144.002C555.239 144.002 553 146.241 553 149.002L553 216.002L554.5 216.002L554.5 149.002C554.5 147.069 556.067 145.502 558 145.502L659 145.502L659 144.002Z" fill="#B0BBD5"/>
<path fill-rule="evenodd" clip-rule="evenodd" d="M554 149.002L554 216.002L552.5 216.002L552.5 149.002C552.5 147.069 550.933 145.502 549 145.502L447 145.502L447 144.002L549 144.002C551.761 144.002 554 146.241 554 149.002ZM362 144.002L261 144.002C258.239 144.002 256 146.241 256 149.002L256 216.002L257.5 216.002L257.5 149.002C257.5 147.069 259.067 145.502 261 145.502L362 145.502L362 144.002Z" fill="#B0BBD5"/>
<rect x="586.278" y="176.207" width="18.4444" height="29.2951" rx="3.5" fill="#DADEE7" stroke="#DADEE7"/>
<mask id="path-147-inside-29_0_4998" fill="white">
<path d="M583 179.002C583 175.688 585.686 173.002 589 173.002H602C605.314 173.002 608 175.688 608 179.002V192.477H583V179.002Z"/>
</mask>
<path d="M581 179.002C581 174.584 584.582 171.002 589 171.002H602C606.418 171.002 610 174.584 610 179.002H606C606 176.793 604.209 175.002 602 175.002H589C586.791 175.002 585 176.793 585 179.002H581ZM608 192.477H583H608ZM581 192.477V179.002C581 174.584 584.582 171.002 589 171.002V175.002C586.791 175.002 585 176.793 585 179.002V192.477H581ZM602 171.002C606.418 171.002 610 174.584 610 179.002V192.477H606V179.002C606 176.793 604.209 175.002 602 175.002V171.002Z" fill="#DADEE7" mask="url(#path-147-inside-29_0_4998)"/>
<rect x="290.278" y="176.207" width="18.4444" height="29.2951" rx="3.5" fill="#DADEE7" stroke="#DADEE7"/>
<mask id="path-150-inside-30_0_4998" fill="white">
<path d="M287 179.002C287 175.688 289.686 173.002 293 173.002H306C309.314 173.002 312 175.688 312 179.002V192.477H287V179.002Z"/>
</mask>
<path d="M285 179.002C285 174.584 288.582 171.002 293 171.002H306C310.418 171.002 314 174.584 314 179.002H310C310 176.793 308.209 175.002 306 175.002H293C290.791 175.002 289 176.793 289 179.002H285ZM312 192.477H287H312ZM285 192.477V179.002C285 174.584 288.582 171.002 293 171.002V175.002C290.791 175.002 289 176.793 289 179.002V192.477H285ZM306 171.002C310.418 171.002 314 174.584 314 179.002V192.477H310V179.002C310 176.793 308.209 175.002 306 175.002V171.002Z" fill="#DADEE7" mask="url(#path-150-inside-30_0_4998)"/>
<rect x="735.778" y="175.707" width="19.4444" height="30.2951" rx="4" fill="#FF1A63"/>
<mask id="path-153-inside-31_0_4998" fill="white">
<path d="M733 179.002C733 175.688 735.686 173.002 739 173.002H752C755.314 173.002 758 175.688 758 179.002V192.477H733V179.002Z"/>
</mask>
<path d="M731 179.002C731 174.584 734.582 171.002 739 171.002H752C756.418 171.002 760 174.584 760 179.002H756C756 176.793 754.209 175.002 752 175.002H739C736.791 175.002 735 176.793 735 179.002H731ZM758 192.477H733H758ZM731 192.477V179.002C731 174.584 734.582 171.002 739 171.002V175.002C736.791 175.002 735 176.793 735 179.002V192.477H731ZM752 171.002C756.418 171.002 760 174.584 760 179.002V192.477H756V179.002C756 176.793 754.209 175.002 752 175.002V171.002Z" fill="#FF1A63" mask="url(#path-153-inside-31_0_4998)"/>
<rect x="439.778" y="175.707" width="19.4444" height="30.2951" rx="4" fill="#FF1A63"/>
<mask id="path-156-inside-32_0_4998" fill="white">
<path d="M437 179.002C437 175.688 439.686 173.002 443 173.002H456C459.314 173.002 462 175.688 462 179.002V192.477H437V179.002Z"/>
</mask>
<path d="M435 179.002C435 174.584 438.582 171.002 443 171.002H456C460.418 171.002 464 174.584 464 179.002H460C460 176.793 458.209 175.002 456 175.002H443C440.791 175.002 439 176.793 439 179.002H435ZM462 192.477H437H462ZM435 192.477V179.002C435 174.584 438.582 171.002 443 171.002V175.002C440.791 175.002 439 176.793 439 179.002V192.477H435ZM456 171.002C460.418 171.002 464 174.584 464 179.002V192.477H460V179.002C460 176.793 458.209 175.002 456 175.002V171.002Z" fill="#FF1A63" mask="url(#path-156-inside-32_0_4998)"/>
<rect x="616.684" y="175.707" width="19.4444" height="30.2951" rx="4" fill="#FF1A63"/>
<mask id="path-159-inside-33_0_4998" fill="white">
<path d="M613.906 179.002C613.906 175.688 616.593 173.002 619.906 173.002H632.906C636.22 173.002 638.906 175.688 638.906 179.002V192.477H613.906V179.002Z"/>
</mask>
<path d="M611.906 179.002C611.906 174.584 615.488 171.002 619.906 171.002H632.906C637.325 171.002 640.906 174.584 640.906 179.002H636.906C636.906 176.793 635.115 175.002 632.906 175.002H619.906C617.697 175.002 615.906 176.793 615.906 179.002H611.906ZM638.906 192.477H613.906H638.906ZM611.906 192.477V179.002C611.906 174.584 615.488 171.002 619.906 171.002V175.002C617.697 175.002 615.906 176.793 615.906 179.002V192.477H611.906ZM632.906 171.002C637.325 171.002 640.906 174.584 640.906 179.002V192.477H636.906V179.002C636.906 176.793 635.115 175.002 632.906 175.002V171.002Z" fill="#FF1A63" mask="url(#path-159-inside-33_0_4998)"/>
<rect x="320.684" y="175.707" width="19.4444" height="30.2951" rx="4" fill="#FF1A63"/>
<mask id="path-162-inside-34_0_4998" fill="white">
<path d="M317.906 179.002C317.906 175.688 320.593 173.002 323.906 173.002H336.906C340.22 173.002 342.906 175.688 342.906 179.002V192.477H317.906V179.002Z"/>
</mask>
<path d="M315.906 179.002C315.906 174.584 319.488 171.002 323.906 171.002H336.906C341.325 171.002 344.906 174.584 344.906 179.002H340.906C340.906 176.793 339.115 175.002 336.906 175.002H323.906C321.697 175.002 319.906 176.793 319.906 179.002H315.906ZM342.906 192.477H317.906H342.906ZM315.906 192.477V179.002C315.906 174.584 319.488 171.002 323.906 171.002V175.002C321.697 175.002 319.906 176.793 319.906 179.002V192.477H315.906ZM336.906 171.002C341.325 171.002 344.906 174.584 344.906 179.002V192.477H340.906V179.002C340.906 176.793 339.115 175.002 336.906 175.002V171.002Z" fill="#FF1A63" mask="url(#path-162-inside-34_0_4998)"/>
<rect x="766.684" y="175.707" width="19.4444" height="30.2951" rx="4" fill="#FF1A63"/>
<mask id="path-165-inside-35_0_4998" fill="white">
<path d="M763.906 179.002C763.906 175.688 766.593 173.002 769.906 173.002H782.906C786.22 173.002 788.906 175.688 788.906 179.002V192.477H763.906V179.002Z"/>
</mask>
<path d="M761.906 179.002C761.906 174.584 765.488 171.002 769.906 171.002H782.906C787.325 171.002 790.906 174.584 790.906 179.002H786.906C786.906 176.793 785.115 175.002 782.906 175.002H769.906C767.697 175.002 765.906 176.793 765.906 179.002H761.906ZM788.906 192.477H763.906H788.906ZM761.906 192.477V179.002C761.906 174.584 765.488 171.002 769.906 171.002V175.002C767.697 175.002 765.906 176.793 765.906 179.002V192.477H761.906ZM782.906 171.002C787.325 171.002 790.906 174.584 790.906 179.002V192.477H786.906V179.002C786.906 176.793 785.115 175.002 782.906 175.002V171.002Z" fill="#FF1A63" mask="url(#path-165-inside-35_0_4998)"/>
<rect x="470.684" y="175.707" width="19.4444" height="30.2951" rx="4" fill="#FF1A63"/>
<mask id="path-168-inside-36_0_4998" fill="white">
<path d="M467.906 179.002C467.906 175.688 470.593 173.002 473.906 173.002H486.906C490.22 173.002 492.906 175.688 492.906 179.002V192.477H467.906V179.002Z"/>
</mask>
<path d="M465.906 179.002C465.906 174.584 469.488 171.002 473.906 171.002H486.906C491.325 171.002 494.906 174.584 494.906 179.002H490.906C490.906 176.793 489.115 175.002 486.906 175.002H473.906C471.697 175.002 469.906 176.793 469.906 179.002H465.906ZM492.906 192.477H467.906H492.906ZM465.906 192.477V179.002C465.906 174.584 469.488 171.002 473.906 171.002V175.002C471.697 175.002 469.906 176.793 469.906 179.002V192.477H465.906ZM486.906 171.002C491.325 171.002 494.906 174.584 494.906 179.002V192.477H490.906V179.002C490.906 176.793 489.115 175.002 486.906 175.002V171.002Z" fill="#FF1A63" mask="url(#path-168-inside-36_0_4998)"/>
<rect x="648.09" y="176.207" width="18.4444" height="29.2951" rx="3.5" fill="#DADEE7" stroke="#DADEE7"/>
<mask id="path-171-inside-37_0_4998" fill="white">
<path d="M644.812 179.002C644.812 175.688 647.499 173.002 650.812 173.002H663.812C667.126 173.002 669.812 175.688 669.812 179.002V192.477H644.812V179.002Z"/>
</mask>
<path d="M642.812 179.002C642.812 174.584 646.394 171.002 650.812 171.002H663.812C668.231 171.002 671.812 174.584 671.812 179.002H667.812C667.812 176.793 666.022 175.002 663.812 175.002H650.812C648.603 175.002 646.812 176.793 646.812 179.002H642.812ZM669.812 192.477H644.812H669.812ZM642.812 192.477V179.002C642.812 174.584 646.394 171.002 650.812 171.002V175.002C648.603 175.002 646.812 176.793 646.812 179.002V192.477H642.812ZM663.812 171.002C668.231 171.002 671.812 174.584 671.812 179.002V192.477H667.812V179.002C667.812 176.793 666.022 175.002 663.812 175.002V171.002Z" fill="#DADEE7" mask="url(#path-171-inside-37_0_4998)"/>
<rect x="352.09" y="176.207" width="18.4444" height="29.2951" rx="3.5" fill="#DADEE7" stroke="#DADEE7"/>
<mask id="path-174-inside-38_0_4998" fill="white">
<path d="M348.812 179.002C348.812 175.688 351.499 173.002 354.812 173.002H367.812C371.126 173.002 373.812 175.688 373.812 179.002V192.477H348.812V179.002Z"/>
</mask>
<path d="M346.812 179.002C346.812 174.584 350.394 171.002 354.812 171.002H367.812C372.231 171.002 375.812 174.584 375.812 179.002H371.812C371.812 176.793 370.022 175.002 367.812 175.002H354.812C352.603 175.002 350.812 176.793 350.812 179.002H346.812ZM373.812 192.477H348.812H373.812ZM346.812 192.477V179.002C346.812 174.584 350.394 171.002 354.812 171.002V175.002C352.603 175.002 350.812 176.793 350.812 179.002V192.477H346.812ZM367.812 171.002C372.231 171.002 375.812 174.584 375.812 179.002V192.477H371.812V179.002C371.812 176.793 370.022 175.002 367.812 175.002V171.002Z" fill="#DADEE7" mask="url(#path-174-inside-38_0_4998)"/>
<rect x="798.09" y="176.207" width="18.4444" height="29.2951" rx="3.5" fill="#DADEE7" stroke="#DADEE7"/>
<mask id="path-177-inside-39_0_4998" fill="white">
<path d="M794.812 179.002C794.812 175.688 797.499 173.002 800.812 173.002H813.812C817.126 173.002 819.812 175.688 819.812 179.002V192.477H794.812V179.002Z"/>
</mask>
<path d="M792.812 179.002C792.812 174.584 796.394 171.002 800.812 171.002H813.812C818.231 171.002 821.812 174.584 821.812 179.002H817.812C817.812 176.793 816.022 175.002 813.812 175.002H800.812C798.603 175.002 796.812 176.793 796.812 179.002H792.812ZM819.812 192.477H794.812H819.812ZM792.812 192.477V179.002C792.812 174.584 796.394 171.002 800.812 171.002V175.002C798.603 175.002 796.812 176.793 796.812 179.002V192.477H792.812ZM813.812 171.002C818.231 171.002 821.812 174.584 821.812 179.002V192.477H817.812V179.002C817.812 176.793 816.022 175.002 813.812 175.002V171.002Z" fill="#DADEE7" mask="url(#path-177-inside-39_0_4998)"/>
<rect x="502.09" y="176.207" width="18.4444" height="29.2951" rx="3.5" fill="#DADEE7" stroke="#DADEE7"/>
<mask id="path-180-inside-40_0_4998" fill="white">
<path d="M498.812 179.002C498.812 175.688 501.499 173.002 504.812 173.002H517.812C521.126 173.002 523.812 175.688 523.812 179.002V192.477H498.812V179.002Z"/>
</mask>
<path d="M496.812 179.002C496.812 174.584 500.394 171.002 504.812 171.002H517.812C522.231 171.002 525.812 174.584 525.812 179.002H521.812C521.812 176.793 520.022 175.002 517.812 175.002H504.812C502.603 175.002 500.812 176.793 500.812 179.002H496.812ZM523.812 192.477H498.812H523.812ZM496.812 192.477V179.002C496.812 174.584 500.394 171.002 504.812 171.002V175.002C502.603 175.002 500.812 176.793 500.812 179.002V192.477H496.812ZM517.812 171.002C522.231 171.002 525.812 174.584 525.812 179.002V192.477H521.812V179.002C521.812 176.793 520.022 175.002 517.812 175.002V171.002Z" fill="#DADEE7" mask="url(#path-180-inside-40_0_4998)"/>
<rect x="675.5" y="129.502" width="55" height="24" rx="3.5" fill="#DADEE7"/>
<path d="M684.33 146.002V136.006H685.744L690.294 144.238H690.35C690.341 143.995 690.327 143.715 690.308 143.398C690.289 143.081 690.275 142.763 690.266 142.446C690.257 142.119 690.252 141.839 690.252 141.606V136.006H691.358V146.002H689.986L685.38 137.742H685.324C685.343 137.985 685.357 138.274 685.366 138.61C685.385 138.937 685.399 139.263 685.408 139.59C685.427 139.917 685.436 140.206 685.436 140.458V146.002H684.33ZM692.688 146.002V145.036H696.286V146.002H692.688ZM694.48 144.126C694.079 144.126 693.719 144.037 693.402 143.86C693.094 143.673 692.851 143.403 692.674 143.048C692.497 142.693 692.408 142.259 692.408 141.746C692.408 140.981 692.595 140.397 692.968 139.996C693.351 139.585 693.869 139.38 694.522 139.38C694.923 139.38 695.278 139.473 695.586 139.66C695.903 139.837 696.151 140.103 696.328 140.458C696.515 140.803 696.608 141.233 696.608 141.746C696.608 142.511 696.417 143.099 696.034 143.51C695.651 143.921 695.133 144.126 694.48 144.126ZM694.508 143.314C694.919 143.314 695.213 143.183 695.39 142.922C695.567 142.651 695.656 142.259 695.656 141.746C695.656 141.223 695.567 140.841 695.39 140.598C695.213 140.346 694.919 140.22 694.508 140.22C694.107 140.22 693.813 140.346 693.626 140.598C693.439 140.841 693.346 141.223 693.346 141.746C693.346 142.259 693.435 142.651 693.612 142.922C693.799 143.183 694.097 143.314 694.508 143.314ZM704.371 136.874L700.479 146.002H699.191L703.139 137H697.735V135.908H704.371V136.874ZM705.784 140.836C705.784 139.231 706.045 137.98 706.568 137.084C707.091 136.179 708.005 135.726 709.312 135.726C710.609 135.726 711.519 136.179 712.042 137.084C712.565 137.98 712.826 139.231 712.826 140.836C712.826 142.469 712.565 143.739 712.042 144.644C711.519 145.549 710.609 146.002 709.312 146.002C708.005 146.002 707.091 145.549 706.568 144.644C706.045 143.739 705.784 142.469 705.784 140.836ZM711.566 140.836C711.566 140.024 711.51 139.338 711.398 138.778C711.295 138.209 711.076 137.751 710.74 137.406C710.413 137.061 709.937 136.888 709.312 136.888C708.677 136.888 708.192 137.061 707.856 137.406C707.529 137.751 707.31 138.209 707.198 138.778C707.095 139.338 707.044 140.024 707.044 140.836C707.044 141.676 707.095 142.381 707.198 142.95C707.31 143.519 707.529 143.977 707.856 144.322C708.192 144.667 708.677 144.84 709.312 144.84C709.937 144.84 710.413 144.667 710.74 144.322C711.076 143.977 711.295 143.519 711.398 142.95C711.51 142.381 711.566 141.676 711.566 140.836ZM721.029 136.986H716.115V140.178C716.33 139.879 716.647 139.637 717.067 139.45C717.487 139.254 717.94 139.156 718.425 139.156C719.2 139.156 719.83 139.319 720.315 139.646C720.8 139.963 721.146 140.379 721.351 140.892C721.566 141.396 721.673 141.933 721.673 142.502C721.673 143.174 721.547 143.776 721.295 144.308C721.043 144.84 720.656 145.26 720.133 145.568C719.62 145.876 718.98 146.03 718.215 146.03C717.235 146.03 716.442 145.778 715.835 145.274C715.228 144.77 714.86 144.098 714.729 143.258H715.975C716.096 143.79 716.353 144.205 716.745 144.504C717.137 144.803 717.632 144.952 718.229 144.952C718.966 144.952 719.522 144.733 719.895 144.294C720.268 143.846 720.455 143.258 720.455 142.53C720.455 141.802 720.268 141.242 719.895 140.85C719.522 140.449 718.971 140.248 718.243 140.248C717.748 140.248 717.314 140.369 716.941 140.612C716.577 140.845 716.311 141.167 716.143 141.578H714.939V135.866H721.029V136.986Z" fill="#2B3674"/>
<rect x="675.5" y="129.502" width="55" height="24" rx="3.5" stroke="#DADEE7"/>
<rect x="378.5" y="129.502" width="55" height="24" rx="3.5" fill="#DADEE7"/>
<path d="M387.33 146.002V136.006H388.744L393.294 144.238H393.35C393.341 143.995 393.327 143.715 393.308 143.398C393.289 143.081 393.275 142.763 393.266 142.446C393.257 142.119 393.252 141.839 393.252 141.606V136.006H394.358V146.002H392.986L388.38 137.742H388.324C388.343 137.985 388.357 138.274 388.366 138.61C388.385 138.937 388.399 139.263 388.408 139.59C388.427 139.917 388.436 140.206 388.436 140.458V146.002H387.33ZM395.688 146.002V145.036H399.286V146.002H395.688ZM397.48 144.126C397.079 144.126 396.719 144.037 396.402 143.86C396.094 143.673 395.851 143.403 395.674 143.048C395.497 142.693 395.408 142.259 395.408 141.746C395.408 140.981 395.595 140.397 395.968 139.996C396.351 139.585 396.869 139.38 397.522 139.38C397.923 139.38 398.278 139.473 398.586 139.66C398.903 139.837 399.151 140.103 399.328 140.458C399.515 140.803 399.608 141.233 399.608 141.746C399.608 142.511 399.417 143.099 399.034 143.51C398.651 143.921 398.133 144.126 397.48 144.126ZM397.508 143.314C397.919 143.314 398.213 143.183 398.39 142.922C398.567 142.651 398.656 142.259 398.656 141.746C398.656 141.223 398.567 140.841 398.39 140.598C398.213 140.346 397.919 140.22 397.508 140.22C397.107 140.22 396.813 140.346 396.626 140.598C396.439 140.841 396.346 141.223 396.346 141.746C396.346 142.259 396.435 142.651 396.612 142.922C396.799 143.183 397.097 143.314 397.508 143.314ZM407.371 136.874L403.479 146.002H402.191L406.139 137H400.735V135.908H407.371V136.874ZM408.784 140.836C408.784 139.231 409.045 137.98 409.568 137.084C410.091 136.179 411.005 135.726 412.312 135.726C413.609 135.726 414.519 136.179 415.042 137.084C415.565 137.98 415.826 139.231 415.826 140.836C415.826 142.469 415.565 143.739 415.042 144.644C414.519 145.549 413.609 146.002 412.312 146.002C411.005 146.002 410.091 145.549 409.568 144.644C409.045 143.739 408.784 142.469 408.784 140.836ZM414.566 140.836C414.566 140.024 414.51 139.338 414.398 138.778C414.295 138.209 414.076 137.751 413.74 137.406C413.413 137.061 412.937 136.888 412.312 136.888C411.677 136.888 411.192 137.061 410.856 137.406C410.529 137.751 410.31 138.209 410.198 138.778C410.095 139.338 410.044 140.024 410.044 140.836C410.044 141.676 410.095 142.381 410.198 142.95C410.31 143.519 410.529 143.977 410.856 144.322C411.192 144.667 411.677 144.84 412.312 144.84C412.937 144.84 413.413 144.667 413.74 144.322C414.076 143.977 414.295 143.519 414.398 142.95C414.51 142.381 414.566 141.676 414.566 140.836ZM423.217 138.288C423.012 137.252 422.372 136.734 421.299 136.734C420.468 136.734 419.848 137.056 419.437 137.7C419.026 138.335 418.826 139.385 418.835 140.85C419.05 140.365 419.404 139.987 419.899 139.716C420.403 139.436 420.963 139.296 421.579 139.296C422.54 139.296 423.306 139.595 423.875 140.192C424.454 140.789 424.743 141.615 424.743 142.67C424.743 143.305 424.617 143.874 424.365 144.378C424.122 144.882 423.749 145.283 423.245 145.582C422.75 145.881 422.148 146.03 421.439 146.03C420.478 146.03 419.726 145.815 419.185 145.386C418.644 144.957 418.266 144.364 418.051 143.608C417.836 142.852 417.729 141.919 417.729 140.808C417.729 137.383 418.924 135.67 421.313 135.67C422.228 135.67 422.946 135.917 423.469 136.412C423.992 136.907 424.3 137.532 424.393 138.288H423.217ZM421.313 140.374C420.912 140.374 420.534 140.458 420.179 140.626C419.824 140.785 419.535 141.032 419.311 141.368C419.096 141.695 418.989 142.096 418.989 142.572C418.989 143.281 419.194 143.86 419.605 144.308C420.016 144.747 420.604 144.966 421.369 144.966C422.022 144.966 422.54 144.765 422.923 144.364C423.315 143.953 423.511 143.403 423.511 142.712C423.511 141.984 423.324 141.415 422.951 141.004C422.578 140.584 422.032 140.374 421.313 140.374Z" fill="#2B3674"/>
<rect x="378.5" y="129.502" width="55" height="24" rx="3.5" stroke="#DADEE7"/>
<rect x="617" y="150.002" width="19" height="17" rx="4" fill="#DADEE7"/>
<path d="M628.45 162.002L627.59 159.792H624.76L623.91 162.002H623L625.79 154.832H626.6L629.38 162.002H628.45ZM626.52 156.832C626.5 156.779 626.467 156.682 626.42 156.542C626.373 156.402 626.327 156.259 626.28 156.112C626.24 155.959 626.207 155.842 626.18 155.762C626.147 155.895 626.11 156.032 626.07 156.172C626.037 156.305 626 156.429 625.96 156.542C625.927 156.655 625.897 156.752 625.87 156.832L625.06 158.992H627.32L626.52 156.832Z" fill="#2B3674"/>
<rect x="320" y="150.002" width="19" height="17" rx="4" fill="#DADEE7"/>
<path d="M331.45 162.002L330.59 159.792H327.76L326.91 162.002H326L328.79 154.832H329.6L332.38 162.002H331.45ZM329.52 156.832C329.5 156.779 329.467 156.682 329.42 156.542C329.373 156.402 329.327 156.259 329.28 156.112C329.24 155.959 329.207 155.842 329.18 155.762C329.147 155.895 329.11 156.032 329.07 156.172C329.037 156.305 329 156.429 328.96 156.542C328.927 156.655 328.897 156.752 328.87 156.832L328.06 158.992H330.32L329.52 156.832Z" fill="#2B3674"/>
<rect x="768" y="150.002" width="19" height="17" rx="4" fill="#DADEE7"/>
<path d="M774.97 162.002V154.862H779.21V155.652H775.87V157.882H776.93C777.643 157.882 778.197 157.972 778.59 158.152C778.983 158.325 779.257 158.565 779.41 158.872C779.563 159.172 779.64 159.519 779.64 159.912C779.64 160.345 779.553 160.719 779.38 161.032C779.213 161.345 778.94 161.585 778.56 161.752C778.18 161.919 777.68 162.002 777.06 162.002H774.97ZM776.97 161.232C777.61 161.232 778.06 161.125 778.32 160.912C778.58 160.692 778.71 160.359 778.71 159.912C778.71 159.605 778.647 159.362 778.52 159.182C778.4 158.995 778.2 158.862 777.92 158.782C777.647 158.702 777.28 158.662 776.82 158.662H775.87V161.232H776.97Z" fill="#2B3674"/>
<rect x="471" y="150.002" width="19" height="17" rx="4" fill="#DADEE7"/>
<path d="M477.97 162.002V154.862H482.21V155.652H478.87V157.882H479.93C480.643 157.882 481.197 157.972 481.59 158.152C481.983 158.325 482.257 158.565 482.41 158.872C482.563 159.172 482.64 159.519 482.64 159.912C482.64 160.345 482.553 160.719 482.38 161.032C482.213 161.345 481.94 161.585 481.56 161.752C481.18 161.919 480.68 162.002 480.06 162.002H477.97ZM479.97 161.232C480.61 161.232 481.06 161.125 481.32 160.912C481.58 160.692 481.71 160.359 481.71 159.912C481.71 159.605 481.647 159.362 481.52 159.182C481.4 158.995 481.2 158.862 480.92 158.782C480.647 158.702 480.28 158.662 479.82 158.662H478.87V161.232H479.97Z" fill="#2B3674"/>
<rect x="701" y="173.002" width="2" height="43" rx="1" fill="#B0BBD5"/>
<rect x="945" y="173" width="2" height="43" rx="1" fill="#B0BBD5"/>
<rect x="1137" y="173" width="2" height="43" rx="1" fill="#B0BBD5"/>
<rect x="404" y="173" width="2" height="43" rx="1" fill="#B0BBD5"/>
</svg>
