<svg width="1250" height="216" viewBox="0 0 1250 216" fill="none" xmlns="http://www.w3.org/2000/svg">
<rect y="0.999023" width="1250" height="215" rx="20" fill="white"/>
<path d="M9 163C9 160.791 10.7909 159 13 159H163C165.209 159 167 160.791 167 163V203C167 205.209 165.209 207 163 207H23C15.268 207 9 200.732 9 193V163Z" fill="#DADEE7"/>
<path d="M77.6761 169.15C75.1806 169.15 73.1504 171.819 73.1504 175.099C73.1504 177.685 74.4098 179.952 76.2504 180.748L75.8387 195.962C75.8324 196.207 75.8752 196.451 75.9647 196.679C76.0543 196.908 76.1886 197.116 76.3598 197.292C76.5311 197.467 76.7357 197.607 76.9618 197.702C77.1878 197.798 77.4307 197.847 77.676 197.847C77.9214 197.847 78.1642 197.798 78.3903 197.702C78.6163 197.607 78.821 197.467 78.9922 197.292C79.1635 197.116 79.2978 196.908 79.3873 196.679C79.4768 196.451 79.5197 196.207 79.5134 195.962L79.1017 180.748C80.9423 179.952 82.2017 177.685 82.2017 175.099C82.2021 171.819 80.1719 169.15 77.6761 169.15ZM78.5349 180.058C78.4487 180.087 78.3741 180.143 78.3221 180.218C78.2701 180.292 78.2435 180.382 78.2463 180.473L78.6665 195.986C78.67 196.118 78.6471 196.25 78.5989 196.373C78.5508 196.496 78.4784 196.609 78.3861 196.703C78.2938 196.798 78.1834 196.874 78.0615 196.925C77.9396 196.977 77.8086 197.003 77.6763 197.003C77.5439 197.003 77.4129 196.977 77.291 196.925C77.1691 196.874 77.0587 196.798 76.9664 196.703C76.8741 196.609 76.8018 196.496 76.7536 196.373C76.7055 196.25 76.6825 196.118 76.6861 195.986L77.1063 180.473C77.1088 180.382 77.0821 180.293 77.0301 180.218C76.9781 180.144 76.9036 180.088 76.8176 180.059C75.1574 179.501 73.998 177.462 73.998 175.099C73.998 172.287 75.6481 169.998 77.6761 169.998C79.7042 169.998 81.3545 172.287 81.3545 175.099C81.3545 177.462 80.1951 179.501 78.5349 180.058ZM88.5479 169.166C88.2786 169.118 88.001 169.169 87.7663 169.31C87.5315 169.45 87.3554 169.671 87.2704 169.931C86.0624 173.471 84.5894 179.298 84.4315 186.958C84.4299 187.035 84.4496 187.112 84.4884 187.179C84.5272 187.246 84.5837 187.301 84.6516 187.338L86.3331 188.26L85.8417 195.896C85.8258 196.142 85.8593 196.388 85.9405 196.62C86.0217 196.853 86.1487 197.067 86.3142 197.249C86.4796 197.431 86.68 197.578 86.9035 197.682C87.127 197.785 87.3689 197.842 87.615 197.85C87.8611 197.858 88.1062 197.816 88.3359 197.728C88.5655 197.639 88.7749 197.505 88.9517 197.333C89.1285 197.162 89.269 196.957 89.3649 196.73C89.4608 196.503 89.5101 196.26 89.5099 196.014V170.302C89.5136 170.028 89.4182 169.763 89.2414 169.554C89.0646 169.345 88.8183 169.208 88.5479 169.166ZM88.6625 196.014C88.6622 196.276 88.5579 196.527 88.3727 196.712C88.1874 196.897 87.9362 197.002 87.6741 197.002C87.539 197.002 87.4053 196.974 87.2813 196.92C87.1573 196.867 87.0457 196.788 86.9533 196.69C86.8608 196.591 86.7896 196.475 86.744 196.347C86.6983 196.22 86.6793 196.085 86.6879 195.95L87.1965 188.046C87.2018 187.965 87.1839 187.885 87.1451 187.814C87.1062 187.744 87.0481 187.685 86.9774 187.647L85.2852 186.719C85.4676 179.294 86.8979 173.648 88.0728 170.205C88.0956 170.137 88.142 170.079 88.2036 170.042C88.2652 170.005 88.3379 169.991 88.4088 170.002C88.4798 170.014 88.5442 170.051 88.5907 170.105C88.6372 170.16 88.6626 170.23 88.6625 170.302V196.014ZM101.426 169.15C101.37 169.15 101.315 169.161 101.264 169.183C101.212 169.204 101.165 169.235 101.126 169.274C101.087 169.314 101.055 169.361 101.034 169.412C101.013 169.463 101.002 169.519 101.002 169.574V176.523C101.003 177.343 100.729 178.14 100.225 178.787C99.7198 179.433 99.0129 179.892 98.2168 180.09C98.1231 180.114 98.0403 180.168 97.9819 180.245C97.9235 180.322 97.8932 180.417 97.8959 180.513L98.3149 195.984C98.319 196.117 98.2965 196.249 98.2486 196.373C98.2006 196.497 98.1283 196.61 98.0359 196.705C97.9435 196.8 97.8329 196.876 97.7106 196.928C97.5883 196.98 97.4569 197.007 97.3241 197.007C97.1913 197.007 97.0599 196.98 96.9376 196.928C96.8153 196.876 96.7047 196.8 96.6123 196.705C96.5199 196.61 96.4476 196.497 96.3996 196.373C96.3517 196.249 96.3292 196.117 96.3333 195.984L96.7523 180.513C96.755 180.417 96.7247 180.322 96.6663 180.245C96.6079 180.168 96.5251 180.114 96.4314 180.09C95.6349 179.893 94.9276 179.434 94.4224 178.787C93.9173 178.141 93.6433 177.343 93.6443 176.523V169.574C93.6443 169.462 93.5996 169.354 93.5202 169.275C93.4407 169.195 93.3329 169.15 93.2205 169.15C93.1081 169.15 93.0003 169.195 92.9208 169.275C92.8413 169.354 92.7966 169.462 92.7966 169.574V176.523C92.7954 177.473 93.0943 178.4 93.6506 179.172C94.207 179.943 94.9924 180.519 95.8952 180.817L95.4852 195.961C95.4783 196.207 95.5207 196.451 95.6099 196.68C95.6992 196.909 95.8335 197.118 96.0048 197.294C96.1762 197.471 96.3811 197.611 96.6076 197.706C96.834 197.802 97.0773 197.851 97.3231 197.851C97.5689 197.851 97.8123 197.802 98.0387 197.706C98.2651 197.611 98.4701 197.471 98.6414 197.294C98.8128 197.118 98.9471 196.909 99.0363 196.68C99.1256 196.451 99.168 196.207 99.1611 195.961L98.7511 180.817C99.6538 180.519 100.439 179.943 100.996 179.172C101.552 178.4 101.851 177.473 101.85 176.523V169.574C101.85 169.519 101.839 169.463 101.817 169.412C101.796 169.361 101.765 169.314 101.726 169.274C101.686 169.235 101.639 169.204 101.588 169.183C101.537 169.161 101.481 169.15 101.426 169.15Z" fill="#2B3674"/>
<path d="M95.272 176.699C95.3276 176.699 95.3828 176.688 95.4342 176.666C95.4856 176.645 95.5324 176.614 95.5717 176.575C95.6111 176.535 95.6423 176.488 95.6636 176.437C95.6849 176.386 95.6958 176.33 95.6958 176.275V169.574C95.6958 169.462 95.6511 169.354 95.5717 169.275C95.4922 169.195 95.3844 169.15 95.272 169.15C95.1596 169.15 95.0518 169.195 94.9723 169.275C94.8928 169.354 94.8481 169.462 94.8481 169.574V176.275C94.8481 176.33 94.8591 176.386 94.8803 176.437C94.9016 176.488 94.9328 176.535 94.9722 176.575C95.0116 176.614 95.0583 176.645 95.1097 176.666C95.1612 176.688 95.2163 176.699 95.272 176.699ZM97.3231 176.699C97.4355 176.699 97.5433 176.654 97.6228 176.575C97.7022 176.495 97.7469 176.387 97.7469 176.275V169.574C97.7469 169.462 97.7022 169.354 97.6228 169.275C97.5433 169.195 97.4355 169.15 97.3231 169.15C97.2107 169.15 97.1029 169.195 97.0234 169.275C96.9439 169.354 96.8992 169.462 96.8992 169.574V176.275C96.8992 176.33 96.9101 176.386 96.9314 176.437C96.9527 176.488 96.9839 176.535 97.0233 176.575C97.0627 176.614 97.1094 176.645 97.1608 176.666C97.2123 176.688 97.2674 176.699 97.3231 176.699ZM99.3741 176.699C99.4298 176.699 99.4849 176.688 99.5364 176.666C99.5878 176.645 99.6345 176.614 99.6739 176.575C99.7133 176.535 99.7445 176.488 99.7658 176.437C99.7871 176.386 99.798 176.33 99.798 176.275V169.574C99.798 169.462 99.7533 169.354 99.6738 169.275C99.5944 169.195 99.4866 169.15 99.3741 169.15C99.2617 169.15 99.1539 169.195 99.0745 169.275C98.995 169.354 98.9503 169.462 98.9503 169.574V176.275C98.9503 176.387 98.995 176.495 99.0745 176.575C99.1539 176.654 99.2617 176.699 99.3741 176.699Z" fill="#2B3674"/>
<path fill-rule="evenodd" clip-rule="evenodd" d="M1230 3.99902H20C10.6112 3.99902 3 11.6102 3 20.999V195.999C3 205.388 10.6111 212.999 20 212.999H1230C1239.39 212.999 1247 205.388 1247 195.999V20.999C1247 11.6102 1239.39 3.99902 1230 3.99902ZM20 0.999023C8.95431 0.999023 0 9.95333 0 20.999V195.999C0 207.045 8.95427 215.999 20 215.999H1230C1241.05 215.999 1250 207.045 1250 195.999V20.999C1250 9.95333 1241.05 0.999023 1230 0.999023H20Z" fill="#B0BBD5"/>
<path d="M699.594 29.2188H689.313C688.923 29.2188 688.55 29.3735 688.274 29.6489C687.999 29.9244 687.844 30.298 687.844 30.6875V38.0312H680.5C680.111 38.0312 679.737 38.186 679.462 38.4614C679.186 38.7369 679.031 39.1105 679.031 39.5V46.8438H671.688C671.298 46.8438 670.925 46.9985 670.649 47.2739C670.374 47.5494 670.219 47.923 670.219 48.3125V55.6562H661.406C661.017 55.6562 660.643 55.811 660.368 56.0864C660.092 56.3619 659.938 56.7355 659.938 57.125C659.938 57.5145 660.092 57.8881 660.368 58.1636C660.643 58.439 661.017 58.5938 661.406 58.5938H671.688C672.077 58.5938 672.451 58.439 672.726 58.1636C673.002 57.8881 673.156 57.5145 673.156 57.125V49.7812H680.5C680.89 49.7812 681.263 49.6265 681.539 49.3511C681.814 49.0756 681.969 48.702 681.969 48.3125V40.9688H689.313C689.702 40.9688 690.076 40.814 690.351 40.5386C690.627 40.2631 690.781 39.8895 690.781 39.5V32.1562H699.594C699.984 32.1562 700.357 32.0015 700.633 31.7261C700.908 31.4506 701.063 31.077 701.063 30.6875C701.063 30.298 700.908 29.9244 700.633 29.6489C700.357 29.3735 699.984 29.2188 699.594 29.2188ZM661.406 42.4375C661.6 42.4386 661.791 42.4016 661.97 42.3285C662.149 42.2554 662.312 42.1477 662.449 42.0116L679.031 25.4294V27.2506C679.031 27.6402 679.186 28.0137 679.462 28.2892C679.737 28.5646 680.111 28.7194 680.5 28.7194C680.89 28.7194 681.263 28.5646 681.539 28.2892C681.814 28.0137 681.969 27.6402 681.969 27.2506V21.875C681.969 21.4855 681.814 21.1119 681.539 20.8364C681.263 20.561 680.89 20.4062 680.5 20.4062H675.125C674.735 20.4062 674.361 20.561 674.086 20.8364C673.811 21.1119 673.656 21.4855 673.656 21.875C673.656 22.2645 673.811 22.6381 674.086 22.9136C674.361 23.189 674.735 23.3438 675.125 23.3438H676.946L660.364 39.9259C660.157 40.1314 660.015 40.3938 659.958 40.6799C659.901 40.9659 659.93 41.2626 660.041 41.532C660.153 41.8014 660.343 42.0314 660.586 42.1927C660.829 42.354 661.115 42.4392 661.406 42.4375Z" fill="#B0BBD5"/>
<rect x="288" y="44" width="2" height="43" rx="1" transform="rotate(-180 288 44)" fill="#B0BBD5"/>
<rect x="309.687" y="13.705" width="19.4444" height="30.2951" rx="4" fill="#DADEE7"/>
<mask id="path-9-inside-1_0_4157" fill="white">
<path d="M306.909 17C306.909 13.6863 309.595 11 312.909 11L325.909 11C329.223 11 331.909 13.6863 331.909 17L331.909 30.4754L306.909 30.4754L306.909 17Z"/>
</mask>
<path d="M304.909 17C304.909 12.5817 308.491 9 312.909 9L325.909 9C330.327 9 333.909 12.5817 333.909 17L329.909 17C329.909 14.7909 328.118 13 325.909 13L312.909 13C310.7 13 308.909 14.7909 308.909 17L304.909 17ZM331.909 30.4754L306.909 30.4754L331.909 30.4754ZM304.909 30.4754L304.909 17C304.909 12.5817 308.491 9 312.909 9L312.909 13C310.7 13 308.909 14.7909 308.909 17L308.909 30.4754L304.909 30.4754ZM325.909 9C330.327 9 333.909 12.5817 333.909 17L333.909 30.4754L329.909 30.4754L329.909 17C329.909 14.7909 328.118 13 325.909 13L325.909 9Z" fill="#DADEE7" mask="url(#path-9-inside-1_0_4157)"/>
<rect x="118.687" y="13.705" width="19.4444" height="30.2951" rx="4" fill="#DADEE7"/>
<mask id="path-12-inside-2_0_4157" fill="white">
<path d="M115.909 17C115.909 13.6863 118.595 11 121.909 11L134.909 11C138.223 11 140.909 13.6863 140.909 17L140.909 30.4754L115.909 30.4754L115.909 17Z"/>
</mask>
<path d="M113.909 17C113.909 12.5817 117.491 9 121.909 9L134.909 9C139.327 9 142.909 12.5817 142.909 17L138.909 17C138.909 14.7909 137.118 13 134.909 13L121.909 13C119.7 13 117.909 14.7909 117.909 17L113.909 17ZM140.909 30.4754L115.909 30.4754L140.909 30.4754ZM113.909 30.4754L113.909 17C113.909 12.5817 117.491 9 121.909 9L121.909 13C119.7 13 117.909 14.7909 117.909 17L117.909 30.4754L113.909 30.4754ZM134.909 9C139.327 9 142.909 12.5817 142.909 17L142.909 30.4754L138.909 30.4754L138.909 17C138.909 14.7909 137.118 13 134.909 13L134.909 9Z" fill="#DADEE7" mask="url(#path-12-inside-2_0_4157)"/>
<rect x="500.687" y="13.705" width="19.4444" height="30.2951" rx="4" fill="#DADEE7"/>
<mask id="path-15-inside-3_0_4157" fill="white">
<path d="M497.909 17C497.909 13.6863 500.595 11 503.909 11L516.909 11C520.223 11 522.909 13.6863 522.909 17L522.909 30.4754L497.909 30.4754L497.909 17Z"/>
</mask>
<path d="M495.909 17C495.909 12.5817 499.491 9 503.909 9L516.909 9C521.327 9 524.909 12.5817 524.909 17L520.909 17C520.909 14.7909 519.118 13 516.909 13L503.909 13C501.7 13 499.909 14.7909 499.909 17L495.909 17ZM522.909 30.4754L497.909 30.4754L522.909 30.4754ZM495.909 30.4754L495.909 17C495.909 12.5817 499.491 9 503.909 9L503.909 13C501.7 13 499.909 14.7909 499.909 17L499.909 30.4754L495.909 30.4754ZM516.909 9C521.327 9 524.909 12.5817 524.909 17L524.909 30.4754L520.909 30.4754L520.909 17C520.909 14.7909 519.118 13 516.909 13L516.909 9Z" fill="#DADEE7" mask="url(#path-15-inside-3_0_4157)"/>
<rect x="212.773" y="13.705" width="19.4444" height="30.2951" rx="4" fill="#DADEE7"/>
<mask id="path-18-inside-4_0_4157" fill="white">
<path d="M209.996 17C209.996 13.6863 212.682 11 215.996 11L228.996 11C232.309 11 234.996 13.6863 234.996 17L234.996 30.4754L209.996 30.4754L209.996 17Z"/>
</mask>
<path d="M207.996 17C207.996 12.5817 211.577 9 215.996 9L228.996 9C233.414 9 236.996 12.5817 236.996 17L232.996 17C232.996 14.7909 231.205 13 228.996 13L215.996 13C213.786 13 211.996 14.7909 211.996 17L207.996 17ZM234.996 30.4754L209.996 30.4754L234.996 30.4754ZM207.996 30.4754L207.996 17C207.996 12.5817 211.577 9 215.996 9L215.996 13C213.786 13 211.996 14.7909 211.996 17L211.996 30.4754L207.996 30.4754ZM228.996 9C233.414 9 236.996 12.5817 236.996 17L236.996 30.4754L232.996 30.4754L232.996 17C232.996 14.7909 231.205 13 228.996 13L228.996 9Z" fill="#DADEE7" mask="url(#path-18-inside-4_0_4157)"/>
<rect x="21.7734" y="13.705" width="19.4444" height="30.2951" rx="4" fill="#DADEE7"/>
<mask id="path-21-inside-5_0_4157" fill="white">
<path d="M18.9956 17C18.9956 13.6863 21.6819 11 24.9956 11L37.9956 11C41.3093 11 43.9956 13.6863 43.9956 17L43.9956 30.4754L18.9956 30.4754L18.9956 17Z"/>
</mask>
<path d="M16.9956 17C16.9956 12.5817 20.5773 9 24.9956 9L37.9956 9C42.4139 9 45.9956 12.5817 45.9956 17L41.9956 17C41.9956 14.7909 40.2047 13 37.9956 13L24.9956 13C22.7865 13 20.9956 14.7909 20.9956 17L16.9956 17ZM43.9956 30.4754L18.9956 30.4754L43.9956 30.4754ZM16.9956 30.4754L16.9956 17C16.9956 12.5817 20.5773 9 24.9956 9L24.9956 13C22.7865 13 20.9956 14.7909 20.9956 17L20.9956 30.4754L16.9956 30.4754ZM37.9956 9C42.4139 9 45.9956 12.5817 45.9956 17L45.9956 30.4754L41.9956 30.4754L41.9956 17C41.9956 14.7909 40.2047 13 37.9956 13L37.9956 9Z" fill="#DADEE7" mask="url(#path-21-inside-5_0_4157)"/>
<rect x="403.773" y="13.705" width="19.4444" height="30.2951" rx="4" fill="#DADEE7"/>
<mask id="path-24-inside-6_0_4157" fill="white">
<path d="M400.996 17C400.996 13.6863 403.682 11 406.996 11L419.996 11C423.309 11 425.996 13.6863 425.996 17L425.996 30.4754L400.996 30.4754L400.996 17Z"/>
</mask>
<path d="M398.996 17C398.996 12.5817 402.577 9 406.996 9L419.996 9C424.414 9 427.996 12.5817 427.996 17L423.996 17C423.996 14.7909 422.205 13 419.996 13L406.996 13C404.786 13 402.996 14.7909 402.996 17L398.996 17ZM425.996 30.4754L400.996 30.4754L425.996 30.4754ZM398.996 30.4754L398.996 17C398.996 12.5817 402.577 9 406.996 9L406.996 13C404.786 13 402.996 14.7909 402.996 17L402.996 30.4754L398.996 30.4754ZM419.996 9C424.414 9 427.996 12.5817 427.996 17L427.996 30.4754L423.996 30.4754L423.996 17C423.996 14.7909 422.205 13 419.996 13L419.996 9Z" fill="#DADEE7" mask="url(#path-24-inside-6_0_4157)"/>
<rect x="341.155" y="13.705" width="19.4444" height="30.2951" rx="4" fill="#DADEE7"/>
<mask id="path-27-inside-7_0_4157" fill="white">
<path d="M338.377 17C338.377 13.6863 341.063 11 344.377 11L357.377 11C360.691 11 363.377 13.6863 363.377 17L363.377 30.4754L338.377 30.4754L338.377 17Z"/>
</mask>
<path d="M336.377 17C336.377 12.5817 339.959 9 344.377 9L357.377 9C361.795 9 365.377 12.5817 365.377 17L361.377 17C361.377 14.7909 359.586 13 357.377 13L344.377 13C342.168 13 340.377 14.7909 340.377 17L336.377 17ZM363.377 30.4754L338.377 30.4754L363.377 30.4754ZM336.377 30.4754L336.377 17C336.377 12.5817 339.959 9 344.377 9L344.377 13C342.168 13 340.377 14.7909 340.377 17L340.377 30.4754L336.377 30.4754ZM357.377 9C361.795 9 365.377 12.5817 365.377 17L365.377 30.4754L361.377 30.4754L361.377 17C361.377 14.7909 359.586 13 357.377 13L357.377 9Z" fill="#DADEE7" mask="url(#path-27-inside-7_0_4157)"/>
<rect x="150.155" y="13.705" width="19.4444" height="30.2951" rx="4" fill="#DADEE7"/>
<mask id="path-30-inside-8_0_4157" fill="white">
<path d="M147.377 17C147.377 13.6863 150.063 11 153.377 11L166.377 11C169.691 11 172.377 13.6863 172.377 17L172.377 30.4754L147.377 30.4754L147.377 17Z"/>
</mask>
<path d="M145.377 17C145.377 12.5817 148.959 9 153.377 9L166.377 9C170.795 9 174.377 12.5817 174.377 17L170.377 17C170.377 14.7909 168.586 13 166.377 13L153.377 13C151.168 13 149.377 14.7909 149.377 17L145.377 17ZM172.377 30.4754L147.377 30.4754L172.377 30.4754ZM145.377 30.4754L145.377 17C145.377 12.5817 148.959 9 153.377 9L153.377 13C151.168 13 149.377 14.7909 149.377 17L149.377 30.4754L145.377 30.4754ZM166.377 9C170.795 9 174.377 12.5817 174.377 17L174.377 30.4754L170.377 30.4754L170.377 17C170.377 14.7909 168.586 13 166.377 13L166.377 9Z" fill="#DADEE7" mask="url(#path-30-inside-8_0_4157)"/>
<rect x="532.155" y="13.705" width="19.4444" height="30.2951" rx="4" fill="#DADEE7"/>
<mask id="path-33-inside-9_0_4157" fill="white">
<path d="M529.377 17C529.377 13.6863 532.064 11 535.377 11L548.377 11C551.691 11 554.377 13.6863 554.377 17L554.377 30.4754L529.377 30.4754L529.377 17Z"/>
</mask>
<path d="M527.377 17C527.377 12.5817 530.959 9 535.377 9L548.377 9C552.796 9 556.377 12.5817 556.377 17L552.377 17C552.377 14.7909 550.587 13 548.377 13L535.377 13C533.168 13 531.377 14.7909 531.377 17L527.377 17ZM554.377 30.4754L529.377 30.4754L554.377 30.4754ZM527.377 30.4754L527.377 17C527.377 12.5817 530.959 9 535.377 9L535.377 13C533.168 13 531.377 14.7909 531.377 17L531.377 30.4754L527.377 30.4754ZM548.377 9C552.796 9 556.377 12.5817 556.377 17L556.377 30.4754L552.377 30.4754L552.377 17C552.377 14.7909 550.587 13 548.377 13L548.377 9Z" fill="#DADEE7" mask="url(#path-33-inside-9_0_4157)"/>
<rect x="244.241" y="13.705" width="19.4444" height="30.295" rx="4" fill="#DADEE7"/>
<mask id="path-36-inside-10_0_4157" fill="white">
<path d="M241.463 17C241.463 13.6863 244.15 11 247.463 11L260.463 11C263.777 11 266.463 13.6863 266.463 17L266.463 30.4754L241.463 30.4754L241.463 17Z"/>
</mask>
<path d="M239.463 17C239.463 12.5817 243.045 9 247.463 9L260.463 9C264.882 9 268.463 12.5817 268.463 17L264.463 17C264.463 14.7909 262.673 13 260.463 13L247.463 13C245.254 13 243.463 14.7909 243.463 17L239.463 17ZM266.463 30.4754L241.463 30.4754L266.463 30.4754ZM239.463 30.4754L239.463 17C239.463 12.5817 243.045 9 247.463 9L247.463 13C245.254 13 243.463 14.7909 243.463 17L243.463 30.4754L239.463 30.4754ZM260.463 9C264.882 9 268.463 12.5817 268.463 17L268.463 30.4754L264.463 30.4754L264.463 17C264.463 14.7909 262.673 13 260.463 13L260.463 9Z" fill="#DADEE7" mask="url(#path-36-inside-10_0_4157)"/>
<rect x="53.2412" y="13.705" width="19.4444" height="30.295" rx="4" fill="#DADEE7"/>
<mask id="path-39-inside-11_0_4157" fill="white">
<path d="M50.4634 17C50.4634 13.6863 53.1497 11 56.4634 11L69.4634 11C72.7771 11 75.4634 13.6863 75.4634 17L75.4634 30.4754L50.4634 30.4754L50.4634 17Z"/>
</mask>
<path d="M48.4634 17C48.4634 12.5817 52.0451 9 56.4634 9L69.4634 9C73.8817 9 77.4634 12.5817 77.4634 17L73.4634 17C73.4634 14.7909 71.6725 13 69.4634 13L56.4634 13C54.2542 13 52.4634 14.7909 52.4634 17L48.4634 17ZM75.4634 30.4754L50.4634 30.4754L75.4634 30.4754ZM48.4634 30.4754L48.4634 17C48.4634 12.5817 52.0451 9 56.4634 9L56.4634 13C54.2542 13 52.4634 14.7909 52.4634 17L52.4634 30.4754L48.4634 30.4754ZM69.4634 9C73.8817 9 77.4634 12.5817 77.4634 17L77.4634 30.4754L73.4634 30.4754L73.4634 17C73.4634 14.7909 71.6725 13 69.4634 13L69.4634 9Z" fill="#DADEE7" mask="url(#path-39-inside-11_0_4157)"/>
<rect x="435.241" y="13.705" width="19.4444" height="30.295" rx="4" fill="#DADEE7"/>
<mask id="path-42-inside-12_0_4157" fill="white">
<path d="M432.463 17C432.463 13.6863 435.15 11 438.463 11L451.463 11C454.777 11 457.463 13.6863 457.463 17L457.463 30.4754L432.463 30.4754L432.463 17Z"/>
</mask>
<path d="M430.463 17C430.463 12.5817 434.045 9 438.463 9L451.463 9C455.882 9 459.463 12.5817 459.463 17L455.463 17C455.463 14.7909 453.673 13 451.463 13L438.463 13C436.254 13 434.463 14.7909 434.463 17L430.463 17ZM457.463 30.4754L432.463 30.4754L457.463 30.4754ZM430.463 30.4754L430.463 17C430.463 12.5817 434.045 9 438.463 9L438.463 13C436.254 13 434.463 14.7909 434.463 17L434.463 30.4754L430.463 30.4754ZM451.463 9C455.882 9 459.463 12.5817 459.463 17L459.463 30.4754L455.463 30.4754L455.463 17C455.463 14.7909 453.673 13 451.463 13L451.463 9Z" fill="#DADEE7" mask="url(#path-42-inside-12_0_4157)"/>
<rect x="326" y="50" width="19" height="17" rx="4" fill="#DADEE7"/>
<path d="M337.45 62L336.59 59.79H333.76L332.91 62H332L334.79 54.83H335.6L338.38 62H337.45ZM335.52 56.83C335.5 56.7767 335.467 56.68 335.42 56.54C335.373 56.4 335.327 56.2567 335.28 56.11C335.24 55.9567 335.207 55.84 335.18 55.76C335.147 55.8933 335.11 56.03 335.07 56.17C335.037 56.3033 335 56.4267 334.96 56.54C334.927 56.6533 334.897 56.75 334.87 56.83L334.06 58.99H336.32L335.52 56.83Z" fill="#2B3674"/>
<rect x="135" y="50" width="19" height="17" rx="4" fill="#DADEE7"/>
<path d="M146.45 62L145.59 59.79H142.76L141.91 62H141L143.79 54.83H144.6L147.38 62H146.45ZM144.52 56.83C144.5 56.7767 144.467 56.68 144.42 56.54C144.373 56.4 144.327 56.2567 144.28 56.11C144.24 55.9567 144.207 55.84 144.18 55.76C144.147 55.8933 144.11 56.03 144.07 56.17C144.037 56.3033 144 56.4267 143.96 56.54C143.927 56.6533 143.897 56.75 143.87 56.83L143.06 58.99H145.32L144.52 56.83Z" fill="#2B3674"/>
<rect x="517" y="50" width="19" height="17" rx="4" fill="#DADEE7"/>
<path d="M528.45 62L527.59 59.79H524.76L523.91 62H523L525.79 54.83H526.6L529.38 62H528.45ZM526.52 56.83C526.5 56.7767 526.467 56.68 526.42 56.54C526.373 56.4 526.327 56.2567 526.28 56.11C526.24 55.9567 526.207 55.84 526.18 55.76C526.147 55.8933 526.11 56.03 526.07 56.17C526.037 56.3033 526 56.4267 525.96 56.54C525.927 56.6533 525.897 56.75 525.87 56.83L525.06 58.99H527.32L526.52 56.83Z" fill="#2B3674"/>
<rect x="228" y="50" width="19" height="17" rx="4" fill="#DADEE7"/>
<path d="M234.97 62V54.86H239.21V55.65H235.87V57.88H236.93C237.643 57.88 238.197 57.97 238.59 58.15C238.983 58.3233 239.257 58.5633 239.41 58.87C239.563 59.17 239.64 59.5167 239.64 59.91C239.64 60.3433 239.553 60.7167 239.38 61.03C239.213 61.3433 238.94 61.5833 238.56 61.75C238.18 61.9167 237.68 62 237.06 62H234.97ZM236.97 61.23C237.61 61.23 238.06 61.1233 238.32 60.91C238.58 60.69 238.71 60.3567 238.71 59.91C238.71 59.6033 238.647 59.36 238.52 59.18C238.4 58.9933 238.2 58.86 237.92 58.78C237.647 58.7 237.28 58.66 236.82 58.66H235.87V61.23H236.97Z" fill="#2B3674"/>
<rect x="37" y="50" width="19" height="17" rx="4" fill="#DADEE7"/>
<path d="M43.97 62V54.86H48.21V55.65H44.87V57.88H45.93C46.6433 57.88 47.1967 57.97 47.59 58.15C47.9833 58.3233 48.2567 58.5633 48.41 58.87C48.5633 59.17 48.64 59.5167 48.64 59.91C48.64 60.3433 48.5533 60.7167 48.38 61.03C48.2133 61.3433 47.94 61.5833 47.56 61.75C47.18 61.9167 46.68 62 46.06 62H43.97ZM45.97 61.23C46.61 61.23 47.06 61.1233 47.32 60.91C47.58 60.69 47.71 60.3567 47.71 59.91C47.71 59.6033 47.6467 59.36 47.52 59.18C47.4 58.9933 47.2 58.86 46.92 58.78C46.6467 58.7 46.28 58.66 45.82 58.66H44.87V61.23H45.97Z" fill="#2B3674"/>
<rect x="419" y="50" width="19" height="17" rx="4" fill="#DADEE7"/>
<path d="M425.97 62V54.86H430.21V55.65H426.87V57.88H427.93C428.643 57.88 429.197 57.97 429.59 58.15C429.983 58.3233 430.257 58.5633 430.41 58.87C430.563 59.17 430.64 59.5167 430.64 59.91C430.64 60.3433 430.553 60.7167 430.38 61.03C430.213 61.3433 429.94 61.5833 429.56 61.75C429.18 61.9167 428.68 62 428.06 62H425.97ZM427.97 61.23C428.61 61.23 429.06 61.1233 429.32 60.91C429.58 60.69 429.71 60.3567 429.71 59.91C429.71 59.6033 429.647 59.36 429.52 59.18C429.4 58.9933 429.2 58.86 428.92 58.78C428.647 58.7 428.28 58.66 427.82 58.66H426.87V61.23H427.97Z" fill="#2B3674"/>
<rect x="260" y="63" width="57" height="25" rx="4" fill="#DADEE7"/>
<path d="M269.33 80V70.004H270.744L275.294 78.236H275.35C275.341 77.9933 275.327 77.7133 275.308 77.396C275.289 77.0787 275.275 76.7613 275.266 76.444C275.257 76.1173 275.252 75.8373 275.252 75.604V70.004H276.358V80H274.986L270.38 71.74H270.324C270.343 71.9827 270.357 72.272 270.366 72.608C270.385 72.9347 270.399 73.2613 270.408 73.588C270.427 73.9147 270.436 74.204 270.436 74.456V80H269.33ZM277.688 80V79.034H281.286V80H277.688ZM279.48 78.124C279.079 78.124 278.719 78.0353 278.402 77.858C278.094 77.6713 277.851 77.4007 277.674 77.046C277.497 76.6913 277.408 76.2573 277.408 75.744C277.408 74.9787 277.595 74.3953 277.968 73.994C278.351 73.5833 278.869 73.378 279.522 73.378C279.923 73.378 280.278 73.4713 280.586 73.658C280.903 73.8353 281.151 74.1013 281.328 74.456C281.515 74.8013 281.608 75.2307 281.608 75.744C281.608 76.5093 281.417 77.0973 281.034 77.508C280.651 77.9187 280.133 78.124 279.48 78.124ZM279.508 77.312C279.919 77.312 280.213 77.1813 280.39 76.92C280.567 76.6493 280.656 76.2573 280.656 75.744C280.656 75.2213 280.567 74.8387 280.39 74.596C280.213 74.344 279.919 74.218 279.508 74.218C279.107 74.218 278.813 74.344 278.626 74.596C278.439 74.8387 278.346 75.2213 278.346 75.744C278.346 76.2573 278.435 76.6493 278.612 76.92C278.799 77.1813 279.097 77.312 279.508 77.312ZM288.783 72.286C288.578 71.25 287.939 70.732 286.865 70.732C286.035 70.732 285.414 71.054 285.003 71.698C284.593 72.3327 284.392 73.3827 284.401 74.848C284.616 74.3627 284.971 73.9847 285.465 73.714C285.969 73.434 286.529 73.294 287.145 73.294C288.107 73.294 288.872 73.5927 289.441 74.19C290.02 74.7873 290.309 75.6133 290.309 76.668C290.309 77.3027 290.183 77.872 289.931 78.376C289.689 78.88 289.315 79.2813 288.811 79.58C288.317 79.8787 287.715 80.028 287.005 80.028C286.044 80.028 285.293 79.8133 284.751 79.384C284.21 78.9547 283.832 78.362 283.617 77.606C283.403 76.85 283.295 75.9167 283.295 74.806C283.295 71.3807 284.49 69.668 286.879 69.668C287.794 69.668 288.513 69.9153 289.035 70.41C289.558 70.9047 289.866 71.53 289.959 72.286H288.783ZM286.879 74.372C286.478 74.372 286.1 74.456 285.745 74.624C285.391 74.7827 285.101 75.03 284.877 75.366C284.663 75.6927 284.555 76.094 284.555 76.57C284.555 77.2793 284.761 77.858 285.171 78.306C285.582 78.7447 286.17 78.964 286.935 78.964C287.589 78.964 288.107 78.7633 288.489 78.362C288.881 77.9513 289.077 77.4007 289.077 76.71C289.077 75.982 288.891 75.4127 288.517 75.002C288.144 74.582 287.598 74.372 286.879 74.372ZM292.028 74.834C292.028 73.2287 292.289 71.978 292.812 71.082C293.335 70.1767 294.249 69.724 295.556 69.724C296.853 69.724 297.763 70.1767 298.286 71.082C298.809 71.978 299.07 73.2287 299.07 74.834C299.07 76.4673 298.809 77.7367 298.286 78.642C297.763 79.5473 296.853 80 295.556 80C294.249 80 293.335 79.5473 292.812 78.642C292.289 77.7367 292.028 76.4673 292.028 74.834ZM297.81 74.834C297.81 74.022 297.754 73.336 297.642 72.776C297.539 72.2067 297.32 71.7493 296.984 71.404C296.657 71.0587 296.181 70.886 295.556 70.886C294.921 70.886 294.436 71.0587 294.1 71.404C293.773 71.7493 293.554 72.2067 293.442 72.776C293.339 73.336 293.288 74.022 293.288 74.834C293.288 75.674 293.339 76.3787 293.442 76.948C293.554 77.5173 293.773 77.9747 294.1 78.32C294.436 78.6653 294.921 78.838 295.556 78.838C296.181 78.838 296.657 78.6653 296.984 78.32C297.32 77.9747 297.539 77.5173 297.642 76.948C297.754 76.3787 297.81 75.674 297.81 74.834ZM302.667 74.736C302.145 74.5307 301.743 74.232 301.463 73.84C301.183 73.448 301.043 72.972 301.043 72.412C301.043 71.908 301.169 71.4553 301.421 71.054C301.673 70.6433 302.047 70.3213 302.541 70.088C303.045 69.8453 303.652 69.724 304.361 69.724C305.071 69.724 305.673 69.8453 306.167 70.088C306.671 70.3213 307.049 70.6433 307.301 71.054C307.563 71.4553 307.693 71.908 307.693 72.412C307.693 72.9533 307.549 73.4293 307.259 73.84C306.97 74.2413 306.573 74.54 306.069 74.736C306.648 74.9133 307.105 75.226 307.441 75.674C307.787 76.1127 307.959 76.6447 307.959 77.27C307.959 77.8767 307.81 78.4087 307.511 78.866C307.213 79.314 306.788 79.664 306.237 79.916C305.696 80.1587 305.071 80.28 304.361 80.28C303.652 80.28 303.027 80.1587 302.485 79.916C301.953 79.664 301.538 79.314 301.239 78.866C300.941 78.4087 300.791 77.8767 300.791 77.27C300.791 76.6447 300.959 76.108 301.295 75.66C301.631 75.212 302.089 74.904 302.667 74.736ZM306.461 72.566C306.461 71.9967 306.275 71.558 305.901 71.25C305.528 70.942 305.015 70.788 304.361 70.788C303.717 70.788 303.209 70.942 302.835 71.25C302.462 71.558 302.275 72.0013 302.275 72.58C302.275 73.1027 302.467 73.5227 302.849 73.84C303.241 74.1573 303.745 74.316 304.361 74.316C304.987 74.316 305.491 74.1573 305.873 73.84C306.265 73.5133 306.461 73.0887 306.461 72.566ZM304.361 75.296C303.671 75.296 303.106 75.4593 302.667 75.786C302.229 76.1033 302.009 76.584 302.009 77.228C302.009 77.8253 302.219 78.306 302.639 78.67C303.069 79.034 303.643 79.216 304.361 79.216C305.08 79.216 305.649 79.034 306.069 78.67C306.489 78.306 306.699 77.8253 306.699 77.228C306.699 76.6027 306.485 76.1267 306.055 75.8C305.626 75.464 305.061 75.296 304.361 75.296Z" fill="#2B3674"/>
<path fill-rule="evenodd" clip-rule="evenodd" d="M788 68L788 0L788 1.00004L789.5 1.00004L789.5 68C789.5 69.933 791.067 71.5 793 71.5L849 71.5L849 73L793 73C790.239 73 788 70.7614 788 68ZM920 73L975 73C977.761 73 980 70.7615 980 68L980 1.00003L978.5 1.00003L978.5 68C978.5 69.933 976.933 71.5 975 71.5L920 71.5L920 73Z" fill="#B0BBD5"/>
<path fill-rule="evenodd" clip-rule="evenodd" d="M979 68L979 1L980.5 1L980.5 68C980.5 69.933 982.067 71.5 984 71.5L1040 71.5L1040 73L984 73C981.239 73 979 70.7614 979 68ZM1111 73L1166 73C1168.76 73 1171 70.7615 1171 68L1171 1.00003L1169.5 1.00003L1169.5 68C1169.5 69.933 1167.93 71.5 1166 71.5L1111 71.5L1111 73Z" fill="#B0BBD5"/>
<rect x="885.004" y="44" width="2" height="43" rx="1" transform="rotate(-180 885.004 44)" fill="#B0BBD5"/>
<rect x="906.692" y="13.705" width="19.4444" height="30.2951" rx="4" fill="#DADEE7"/>
<mask id="path-62-inside-13_0_4157" fill="white">
<path d="M903.914 17C903.914 13.6863 906.6 11 909.914 11L922.914 11C926.228 11 928.914 13.6863 928.914 17L928.914 30.4754L903.914 30.4754L903.914 17Z"/>
</mask>
<path d="M901.914 17C901.914 12.5817 905.496 9 909.914 9L922.914 9C927.332 9 930.914 12.5817 930.914 17L926.914 17C926.914 14.7909 925.123 13 922.914 13L909.914 13C907.705 13 905.914 14.7909 905.914 17L901.914 17ZM928.914 30.4754L903.914 30.4754L928.914 30.4754ZM901.914 30.4754L901.914 17C901.914 12.5817 905.496 9 909.914 9L909.914 13C907.705 13 905.914 14.7909 905.914 17L905.914 30.4754L901.914 30.4754ZM922.914 9C927.332 9 930.914 12.5817 930.914 17L930.914 30.4754L926.914 30.4754L926.914 17C926.914 14.7909 925.123 13 922.914 13L922.914 9Z" fill="#DADEE7" mask="url(#path-62-inside-13_0_4157)"/>
<rect x="809.778" y="13.705" width="19.4444" height="30.2951" rx="4" fill="#DADEE7"/>
<mask id="path-65-inside-14_0_4157" fill="white">
<path d="M807 17C807 13.6863 809.686 11 813 11L826 11C829.314 11 832 13.6863 832 17L832 30.4754L807 30.4754L807 17Z"/>
</mask>
<path d="M805 17C805 12.5817 808.582 9 813 9L826 9C830.418 9 834 12.5817 834 17L830 17C830 14.7909 828.209 13 826 13L813 13C810.791 13 809 14.7909 809 17L805 17ZM832 30.4754L807 30.4754L832 30.4754ZM805 30.4754L805 17C805 12.5817 808.582 9 813 9L813 13C810.791 13 809 14.7909 809 17L809 30.4754L805 30.4754ZM826 9C830.418 9 834 12.5817 834 17L834 30.4754L830 30.4754L830 17C830 14.7909 828.209 13 826 13L826 9Z" fill="#DADEE7" mask="url(#path-65-inside-14_0_4157)"/>
<rect x="938.159" y="13.705" width="19.4444" height="30.2951" rx="4" fill="#DADEE7"/>
<mask id="path-68-inside-15_0_4157" fill="white">
<path d="M935.381 17C935.381 13.6863 938.067 11 941.381 11L954.381 11C957.695 11 960.381 13.6863 960.381 17L960.381 30.4754L935.381 30.4754L935.381 17Z"/>
</mask>
<path d="M933.381 17C933.381 12.5817 936.963 9 941.381 9L954.381 9C958.799 9 962.381 12.5817 962.381 17L958.381 17C958.381 14.7909 956.59 13 954.381 13L941.381 13C939.172 13 937.381 14.7909 937.381 17L933.381 17ZM960.381 30.4754L935.381 30.4754L960.381 30.4754ZM933.381 30.4754L933.381 17C933.381 12.5817 936.963 9 941.381 9L941.381 13C939.172 13 937.381 14.7909 937.381 17L937.381 30.4754L933.381 30.4754ZM954.381 9C958.799 9 962.381 12.5817 962.381 17L962.381 30.4754L958.381 30.4754L958.381 17C958.381 14.7909 956.59 13 954.381 13L954.381 9Z" fill="#DADEE7" mask="url(#path-68-inside-15_0_4157)"/>
<rect x="841.246" y="13.705" width="19.4444" height="30.295" rx="4" fill="#DADEE7"/>
<mask id="path-71-inside-16_0_4157" fill="white">
<path d="M838.468 17C838.468 13.6863 841.154 11 844.468 11L857.468 11C860.781 11 863.468 13.6863 863.468 17L863.468 30.4754L838.468 30.4754L838.468 17Z"/>
</mask>
<path d="M836.468 17C836.468 12.5817 840.049 9 844.468 9L857.468 9C861.886 9 865.468 12.5817 865.468 17L861.468 17C861.468 14.7909 859.677 13 857.468 13L844.468 13C842.259 13 840.468 14.7909 840.468 17L836.468 17ZM863.468 30.4754L838.468 30.4754L863.468 30.4754ZM836.468 30.4754L836.468 17C836.468 12.5817 840.049 9 844.468 9L844.468 13C842.259 13 840.468 14.7909 840.468 17L840.468 30.4754L836.468 30.4754ZM857.468 9C861.886 9 865.468 12.5817 865.468 17L865.468 30.4754L861.468 30.4754L861.468 17C861.468 14.7909 859.677 13 857.468 13L857.468 9Z" fill="#DADEE7" mask="url(#path-71-inside-16_0_4157)"/>
<rect x="923.004" y="50" width="19" height="17" rx="4" fill="#DADEE7"/>
<path d="M934.454 62L933.594 59.79H930.764L929.914 62H929.004L931.794 54.83H932.604L935.384 62H934.454ZM932.524 56.83C932.504 56.7767 932.471 56.68 932.424 56.54C932.377 56.4 932.331 56.2567 932.284 56.11C932.244 55.9567 932.211 55.84 932.184 55.76C932.151 55.8933 932.114 56.03 932.074 56.17C932.041 56.3033 932.004 56.4267 931.964 56.54C931.931 56.6533 931.901 56.75 931.874 56.83L931.064 58.99H933.324L932.524 56.83Z" fill="#2B3674"/>
<rect x="825.004" y="50" width="19" height="17" rx="4" fill="#DADEE7"/>
<path d="M831.974 62V54.86H836.214V55.65H832.874V57.88H833.934C834.647 57.88 835.201 57.97 835.594 58.15C835.987 58.3233 836.261 58.5633 836.414 58.87C836.567 59.17 836.644 59.5167 836.644 59.91C836.644 60.3433 836.557 60.7167 836.384 61.03C836.217 61.3433 835.944 61.5833 835.564 61.75C835.184 61.9167 834.684 62 834.064 62H831.974ZM833.974 61.23C834.614 61.23 835.064 61.1233 835.324 60.91C835.584 60.69 835.714 60.3567 835.714 59.91C835.714 59.6033 835.651 59.36 835.524 59.18C835.404 58.9933 835.204 58.86 834.924 58.78C834.651 58.7 834.284 58.66 833.824 58.66H832.874V61.23H833.974Z" fill="#2B3674"/>
<rect x="857.004" y="63" width="57" height="25" rx="4" fill="#DADEE7"/>
<path d="M866.334 80V70.004H867.748L872.298 78.236H872.354C872.345 77.9933 872.331 77.7133 872.312 77.396C872.293 77.0787 872.279 76.7613 872.27 76.444C872.261 76.1173 872.256 75.8373 872.256 75.604V70.004H873.362V80H871.99L867.384 71.74H867.328C867.347 71.9827 867.361 72.272 867.37 72.608C867.389 72.9347 867.403 73.2613 867.412 73.588C867.431 73.9147 867.44 74.204 867.44 74.456V80H866.334ZM874.692 80V79.034H878.29V80H874.692ZM876.484 78.124C876.083 78.124 875.723 78.0353 875.406 77.858C875.098 77.6713 874.855 77.4007 874.678 77.046C874.501 76.6913 874.412 76.2573 874.412 75.744C874.412 74.9787 874.599 74.3953 874.972 73.994C875.355 73.5833 875.873 73.378 876.526 73.378C876.927 73.378 877.282 73.4713 877.59 73.658C877.907 73.8353 878.155 74.1013 878.332 74.456C878.519 74.8013 878.612 75.2307 878.612 75.744C878.612 76.5093 878.421 77.0973 878.038 77.508C877.655 77.9187 877.137 78.124 876.484 78.124ZM876.512 77.312C876.923 77.312 877.217 77.1813 877.394 76.92C877.571 76.6493 877.66 76.2573 877.66 75.744C877.66 75.2213 877.571 74.8387 877.394 74.596C877.217 74.344 876.923 74.218 876.512 74.218C876.111 74.218 875.817 74.344 875.63 74.596C875.443 74.8387 875.35 75.2213 875.35 75.744C875.35 76.2573 875.439 76.6493 875.616 76.92C875.803 77.1813 876.101 77.312 876.512 77.312ZM885.787 72.286C885.582 71.25 884.943 70.732 883.869 70.732C883.039 70.732 882.418 71.054 882.007 71.698C881.597 72.3327 881.396 73.3827 881.405 74.848C881.62 74.3627 881.975 73.9847 882.469 73.714C882.973 73.434 883.533 73.294 884.149 73.294C885.111 73.294 885.876 73.5927 886.445 74.19C887.024 74.7873 887.313 75.6133 887.313 76.668C887.313 77.3027 887.187 77.872 886.935 78.376C886.693 78.88 886.319 79.2813 885.815 79.58C885.321 79.8787 884.719 80.028 884.009 80.028C883.048 80.028 882.297 79.8133 881.755 79.384C881.214 78.9547 880.836 78.362 880.621 77.606C880.407 76.85 880.299 75.9167 880.299 74.806C880.299 71.3807 881.494 69.668 883.883 69.668C884.798 69.668 885.517 69.9153 886.039 70.41C886.562 70.9047 886.87 71.53 886.963 72.286H885.787ZM883.883 74.372C883.482 74.372 883.104 74.456 882.749 74.624C882.395 74.7827 882.105 75.03 881.881 75.366C881.667 75.6927 881.559 76.094 881.559 76.57C881.559 77.2793 881.765 77.858 882.175 78.306C882.586 78.7447 883.174 78.964 883.939 78.964C884.593 78.964 885.111 78.7633 885.493 78.362C885.885 77.9513 886.081 77.4007 886.081 76.71C886.081 75.982 885.895 75.4127 885.521 75.002C885.148 74.582 884.602 74.372 883.883 74.372ZM889.032 74.834C889.032 73.2287 889.293 71.978 889.816 71.082C890.339 70.1767 891.253 69.724 892.56 69.724C893.857 69.724 894.767 70.1767 895.29 71.082C895.813 71.978 896.074 73.2287 896.074 74.834C896.074 76.4673 895.813 77.7367 895.29 78.642C894.767 79.5473 893.857 80 892.56 80C891.253 80 890.339 79.5473 889.816 78.642C889.293 77.7367 889.032 76.4673 889.032 74.834ZM894.814 74.834C894.814 74.022 894.758 73.336 894.646 72.776C894.543 72.2067 894.324 71.7493 893.988 71.404C893.661 71.0587 893.185 70.886 892.56 70.886C891.925 70.886 891.44 71.0587 891.104 71.404C890.777 71.7493 890.558 72.2067 890.446 72.776C890.343 73.336 890.292 74.022 890.292 74.834C890.292 75.674 890.343 76.3787 890.446 76.948C890.558 77.5173 890.777 77.9747 891.104 78.32C891.44 78.6653 891.925 78.838 892.56 78.838C893.185 78.838 893.661 78.6653 893.988 78.32C894.324 77.9747 894.543 77.5173 894.646 76.948C894.758 76.3787 894.814 75.674 894.814 74.834ZM897.795 72.426C897.86 71.5673 898.192 70.8953 898.789 70.41C899.386 69.9247 900.161 69.682 901.113 69.682C901.748 69.682 902.294 69.7987 902.751 70.032C903.218 70.256 903.568 70.564 903.801 70.956C904.044 71.348 904.165 71.7913 904.165 72.286C904.165 72.8647 903.997 73.364 903.661 73.784C903.334 74.204 902.905 74.4747 902.373 74.596V74.666C902.98 74.8153 903.46 75.1093 903.815 75.548C904.17 75.9867 904.347 76.5607 904.347 77.27C904.347 77.802 904.226 78.2827 903.983 78.712C903.74 79.132 903.376 79.4633 902.891 79.706C902.406 79.9487 901.822 80.07 901.141 80.07C900.152 80.07 899.34 79.8133 898.705 79.3C898.07 78.7773 897.716 78.04 897.641 77.088H898.873C898.938 77.648 899.167 78.1053 899.559 78.46C899.951 78.8147 900.474 78.992 901.127 78.992C901.78 78.992 902.275 78.824 902.611 78.488C902.956 78.1427 903.129 77.6993 903.129 77.158C903.129 76.458 902.896 75.954 902.429 75.646C901.962 75.338 901.258 75.184 900.315 75.184H899.993V74.12H900.329C901.188 74.1107 901.836 73.9707 902.275 73.7C902.714 73.42 902.933 72.9907 902.933 72.412C902.933 71.9173 902.77 71.5207 902.443 71.222C902.126 70.9233 901.668 70.774 901.071 70.774C900.492 70.774 900.026 70.9233 899.671 71.222C899.316 71.5207 899.106 71.922 899.041 72.426H897.795Z" fill="#2B3674"/>
<rect x="1076" y="44" width="2" height="43" rx="1" transform="rotate(-180 1076 44)" fill="#B0BBD5"/>
<rect x="1097.69" y="13.705" width="19.4444" height="30.2951" rx="4" fill="#DADEE7"/>
<mask id="path-81-inside-17_0_4157" fill="white">
<path d="M1094.91 17C1094.91 13.6863 1097.6 11 1100.91 11L1113.91 11C1117.23 11 1119.91 13.6863 1119.91 17L1119.91 30.4754L1094.91 30.4754L1094.91 17Z"/>
</mask>
<path d="M1092.91 17C1092.91 12.5817 1096.5 9 1100.91 9L1113.91 9C1118.33 9 1121.91 12.5817 1121.91 17L1117.91 17C1117.91 14.7909 1116.12 13 1113.91 13L1100.91 13C1098.7 13 1096.91 14.7909 1096.91 17L1092.91 17ZM1119.91 30.4754L1094.91 30.4754L1119.91 30.4754ZM1092.91 30.4754L1092.91 17C1092.91 12.5817 1096.5 9 1100.91 9L1100.91 13C1098.7 13 1096.91 14.7909 1096.91 17L1096.91 30.4754L1092.91 30.4754ZM1113.91 9C1118.33 9 1121.91 12.5817 1121.91 17L1121.91 30.4754L1117.91 30.4754L1117.91 17C1117.91 14.7909 1116.12 13 1113.91 13L1113.91 9Z" fill="#DADEE7" mask="url(#path-81-inside-17_0_4157)"/>
<rect x="1000.78" y="13.705" width="19.4444" height="30.2951" rx="4" fill="#DADEE7"/>
<mask id="path-84-inside-18_0_4157" fill="white">
<path d="M998 17C998 13.6863 1000.69 11 1004 11L1017 11C1020.31 11 1023 13.6863 1023 17L1023 30.4754L998 30.4754L998 17Z"/>
</mask>
<path d="M996 17C996 12.5817 999.582 9 1004 9L1017 9C1021.42 9 1025 12.5817 1025 17L1021 17C1021 14.7909 1019.21 13 1017 13L1004 13C1001.79 13 1000 14.7909 1000 17L996 17ZM1023 30.4754L998 30.4754L1023 30.4754ZM996 30.4754L996 17C996 12.5817 999.582 9 1004 9L1004 13C1001.79 13 1000 14.7909 1000 17L1000 30.4754L996 30.4754ZM1017 9C1021.42 9 1025 12.5817 1025 17L1025 30.4754L1021 30.4754L1021 17C1021 14.7909 1019.21 13 1017 13L1017 9Z" fill="#DADEE7" mask="url(#path-84-inside-18_0_4157)"/>
<rect x="1129.16" y="13.705" width="19.4444" height="30.2951" rx="4" fill="#DADEE7"/>
<mask id="path-87-inside-19_0_4157" fill="white">
<path d="M1126.38 17C1126.38 13.6863 1129.07 11 1132.38 11L1145.38 11C1148.69 11 1151.38 13.6863 1151.38 17L1151.38 30.4754L1126.38 30.4754L1126.38 17Z"/>
</mask>
<path d="M1124.38 17C1124.38 12.5817 1127.96 9 1132.38 9L1145.38 9C1149.8 9 1153.38 12.5817 1153.38 17L1149.38 17C1149.38 14.7909 1147.59 13 1145.38 13L1132.38 13C1130.17 13 1128.38 14.7909 1128.38 17L1124.38 17ZM1151.38 30.4754L1126.38 30.4754L1151.38 30.4754ZM1124.38 30.4754L1124.38 17C1124.38 12.5817 1127.96 9 1132.38 9L1132.38 13C1130.17 13 1128.38 14.7909 1128.38 17L1128.38 30.4754L1124.38 30.4754ZM1145.38 9C1149.8 9 1153.38 12.5817 1153.38 17L1153.38 30.4754L1149.38 30.4754L1149.38 17C1149.38 14.7909 1147.59 13 1145.38 13L1145.38 9Z" fill="#DADEE7" mask="url(#path-87-inside-19_0_4157)"/>
<rect x="1032.25" y="13.705" width="19.4444" height="30.295" rx="4" fill="#DADEE7"/>
<mask id="path-90-inside-20_0_4157" fill="white">
<path d="M1029.47 17C1029.47 13.6863 1032.15 11 1035.47 11L1048.47 11C1051.78 11 1054.47 13.6863 1054.47 17L1054.47 30.4754L1029.47 30.4754L1029.47 17Z"/>
</mask>
<path d="M1027.47 17C1027.47 12.5817 1031.05 9 1035.47 9L1048.47 9C1052.89 9 1056.47 12.5817 1056.47 17L1052.47 17C1052.47 14.7909 1050.68 13 1048.47 13L1035.47 13C1033.26 13 1031.47 14.7909 1031.47 17L1027.47 17ZM1054.47 30.4754L1029.47 30.4754L1054.47 30.4754ZM1027.47 30.4754L1027.47 17C1027.47 12.5817 1031.05 9 1035.47 9L1035.47 13C1033.26 13 1031.47 14.7909 1031.47 17L1031.47 30.4754L1027.47 30.4754ZM1048.47 9C1052.89 9 1056.47 12.5817 1056.47 17L1056.47 30.4754L1052.47 30.4754L1052.47 17C1052.47 14.7909 1050.68 13 1048.47 13L1048.47 9Z" fill="#DADEE7" mask="url(#path-90-inside-20_0_4157)"/>
<rect x="1114" y="50" width="19" height="17" rx="4" fill="#DADEE7"/>
<path d="M1125.45 62L1124.59 59.79H1121.76L1120.91 62H1120L1122.79 54.83H1123.6L1126.38 62H1125.45ZM1123.52 56.83C1123.5 56.7767 1123.47 56.68 1123.42 56.54C1123.38 56.4 1123.33 56.2567 1123.28 56.11C1123.24 55.9567 1123.21 55.84 1123.18 55.76C1123.15 55.8933 1123.11 56.03 1123.07 56.17C1123.04 56.3033 1123 56.4267 1122.96 56.54C1122.93 56.6533 1122.9 56.75 1122.87 56.83L1122.06 58.99H1124.32L1123.52 56.83Z" fill="#2B3674"/>
<rect x="1016" y="50" width="19" height="17" rx="4" fill="#DADEE7"/>
<path d="M1022.97 62V54.86H1027.21V55.65H1023.87V57.88H1024.93C1025.65 57.88 1026.2 57.97 1026.59 58.15C1026.99 58.3233 1027.26 58.5633 1027.41 58.87C1027.57 59.17 1027.64 59.5167 1027.64 59.91C1027.64 60.3433 1027.56 60.7167 1027.38 61.03C1027.22 61.3433 1026.94 61.5833 1026.56 61.75C1026.18 61.9167 1025.68 62 1025.06 62H1022.97ZM1024.97 61.23C1025.61 61.23 1026.06 61.1233 1026.32 60.91C1026.58 60.69 1026.71 60.3567 1026.71 59.91C1026.71 59.6033 1026.65 59.36 1026.52 59.18C1026.4 58.9933 1026.2 58.86 1025.92 58.78C1025.65 58.7 1025.28 58.66 1024.82 58.66H1023.87V61.23H1024.97Z" fill="#2B3674"/>
<rect x="1048" y="63" width="57" height="25" rx="4" fill="#DADEE7"/>
<path d="M1057.33 80V70.004H1058.75L1063.3 78.236H1063.35C1063.34 77.9933 1063.33 77.7133 1063.31 77.396C1063.29 77.0787 1063.28 76.7613 1063.27 76.444C1063.26 76.1173 1063.26 75.8373 1063.26 75.604V70.004H1064.36V80H1062.99L1058.38 71.74H1058.33C1058.35 71.9827 1058.36 72.272 1058.37 72.608C1058.39 72.9347 1058.4 73.2613 1058.41 73.588C1058.43 73.9147 1058.44 74.204 1058.44 74.456V80H1057.33ZM1065.69 80V79.034H1069.29V80H1065.69ZM1067.48 78.124C1067.08 78.124 1066.72 78.0353 1066.41 77.858C1066.1 77.6713 1065.86 77.4007 1065.68 77.046C1065.5 76.6913 1065.41 76.2573 1065.41 75.744C1065.41 74.9787 1065.6 74.3953 1065.97 73.994C1066.35 73.5833 1066.87 73.378 1067.53 73.378C1067.93 73.378 1068.28 73.4713 1068.59 73.658C1068.91 73.8353 1069.15 74.1013 1069.33 74.456C1069.52 74.8013 1069.61 75.2307 1069.61 75.744C1069.61 76.5093 1069.42 77.0973 1069.04 77.508C1068.66 77.9187 1068.14 78.124 1067.48 78.124ZM1067.51 77.312C1067.92 77.312 1068.22 77.1813 1068.39 76.92C1068.57 76.6493 1068.66 76.2573 1068.66 75.744C1068.66 75.2213 1068.57 74.8387 1068.39 74.596C1068.22 74.344 1067.92 74.218 1067.51 74.218C1067.11 74.218 1066.82 74.344 1066.63 74.596C1066.44 74.8387 1066.35 75.2213 1066.35 75.744C1066.35 76.2573 1066.44 76.6493 1066.62 76.92C1066.8 77.1813 1067.1 77.312 1067.51 77.312ZM1076.79 72.286C1076.58 71.25 1075.94 70.732 1074.87 70.732C1074.04 70.732 1073.42 71.054 1073.01 71.698C1072.6 72.3327 1072.4 73.3827 1072.41 74.848C1072.62 74.3627 1072.97 73.9847 1073.47 73.714C1073.97 73.434 1074.53 73.294 1075.15 73.294C1076.11 73.294 1076.88 73.5927 1077.45 74.19C1078.02 74.7873 1078.31 75.6133 1078.31 76.668C1078.31 77.3027 1078.19 77.872 1077.94 78.376C1077.69 78.88 1077.32 79.2813 1076.82 79.58C1076.32 79.8787 1075.72 80.028 1075.01 80.028C1074.05 80.028 1073.3 79.8133 1072.76 79.384C1072.21 78.9547 1071.84 78.362 1071.62 77.606C1071.41 76.85 1071.3 75.9167 1071.3 74.806C1071.3 71.3807 1072.49 69.668 1074.88 69.668C1075.8 69.668 1076.52 69.9153 1077.04 70.41C1077.56 70.9047 1077.87 71.53 1077.96 72.286H1076.79ZM1074.88 74.372C1074.48 74.372 1074.1 74.456 1073.75 74.624C1073.39 74.7827 1073.11 75.03 1072.88 75.366C1072.67 75.6927 1072.56 76.094 1072.56 76.57C1072.56 77.2793 1072.76 77.858 1073.18 78.306C1073.59 78.7447 1074.17 78.964 1074.94 78.964C1075.59 78.964 1076.11 78.7633 1076.49 78.362C1076.89 77.9513 1077.08 77.4007 1077.08 76.71C1077.08 75.982 1076.89 75.4127 1076.52 75.002C1076.15 74.582 1075.6 74.372 1074.88 74.372ZM1080.03 74.834C1080.03 73.2287 1080.29 71.978 1080.82 71.082C1081.34 70.1767 1082.25 69.724 1083.56 69.724C1084.86 69.724 1085.77 70.1767 1086.29 71.082C1086.81 71.978 1087.07 73.2287 1087.07 74.834C1087.07 76.4673 1086.81 77.7367 1086.29 78.642C1085.77 79.5473 1084.86 80 1083.56 80C1082.25 80 1081.34 79.5473 1080.82 78.642C1080.29 77.7367 1080.03 76.4673 1080.03 74.834ZM1085.81 74.834C1085.81 74.022 1085.76 73.336 1085.65 72.776C1085.54 72.2067 1085.32 71.7493 1084.99 71.404C1084.66 71.0587 1084.19 70.886 1083.56 70.886C1082.93 70.886 1082.44 71.0587 1082.1 71.404C1081.78 71.7493 1081.56 72.2067 1081.45 72.776C1081.34 73.336 1081.29 74.022 1081.29 74.834C1081.29 75.674 1081.34 76.3787 1081.45 76.948C1081.56 77.5173 1081.78 77.9747 1082.1 78.32C1082.44 78.6653 1082.93 78.838 1083.56 78.838C1084.19 78.838 1084.66 78.6653 1084.99 78.32C1085.32 77.9747 1085.54 77.5173 1085.65 76.948C1085.76 76.3787 1085.81 75.674 1085.81 74.834ZM1088.67 78.978C1089.85 78.026 1090.78 77.2467 1091.46 76.64C1092.13 76.024 1092.69 75.3847 1093.15 74.722C1093.62 74.05 1093.85 73.392 1093.85 72.748C1093.85 72.1413 1093.7 71.6653 1093.4 71.32C1093.11 70.9653 1092.64 70.788 1091.99 70.788C1091.35 70.788 1090.86 70.9887 1090.5 71.39C1090.16 71.782 1089.97 72.3093 1089.94 72.972H1088.71C1088.75 71.9267 1089.07 71.1193 1089.66 70.55C1090.26 69.9807 1091.03 69.696 1091.97 69.696C1092.93 69.696 1093.7 69.962 1094.26 70.494C1094.82 71.026 1095.11 71.7587 1095.11 72.692C1095.11 73.4667 1094.88 74.2227 1094.41 74.96C1093.95 75.688 1093.43 76.332 1092.84 76.892C1092.25 77.4427 1091.5 78.0867 1090.59 78.824H1095.4V79.888H1088.67V78.978Z" fill="#2B3674"/>
<rect x="69" y="63" width="56" height="25" rx="4" fill="#DADEE7"/>
<path d="M78.33 80V70.004H79.744L84.294 78.236H84.35C84.3407 77.9933 84.3267 77.7133 84.308 77.396C84.2893 77.0787 84.2753 76.7613 84.266 76.444C84.2567 76.1173 84.252 75.8373 84.252 75.604V70.004H85.358V80H83.986L79.38 71.74H79.324C79.3427 71.9827 79.3567 72.272 79.366 72.608C79.3847 72.9347 79.3987 73.2613 79.408 73.588C79.4267 73.9147 79.436 74.204 79.436 74.456V80H78.33ZM86.688 80V79.034H90.286V80H86.688ZM88.48 78.124C88.0787 78.124 87.7193 78.0353 87.402 77.858C87.094 77.6713 86.8513 77.4007 86.674 77.046C86.4967 76.6913 86.408 76.2573 86.408 75.744C86.408 74.9787 86.5947 74.3953 86.968 73.994C87.3507 73.5833 87.8687 73.378 88.522 73.378C88.9233 73.378 89.278 73.4713 89.586 73.658C89.9033 73.8353 90.1507 74.1013 90.328 74.456C90.5147 74.8013 90.608 75.2307 90.608 75.744C90.608 76.5093 90.4167 77.0973 90.034 77.508C89.6513 77.9187 89.1333 78.124 88.48 78.124ZM88.508 77.312C88.9187 77.312 89.2127 77.1813 89.39 76.92C89.5673 76.6493 89.656 76.2573 89.656 75.744C89.656 75.2213 89.5673 74.8387 89.39 74.596C89.2127 74.344 88.9187 74.218 88.508 74.218C88.1067 74.218 87.8127 74.344 87.626 74.596C87.4393 74.8387 87.346 75.2213 87.346 75.744C87.346 76.2573 87.4347 76.6493 87.612 76.92C87.7987 77.1813 88.0973 77.312 88.508 77.312ZM97.7834 72.286C97.5781 71.25 96.9388 70.732 95.8654 70.732C95.0348 70.732 94.4141 71.054 94.0034 71.698C93.5928 72.3327 93.3921 73.3827 93.4014 74.848C93.6161 74.3627 93.9708 73.9847 94.4654 73.714C94.9694 73.434 95.5294 73.294 96.1454 73.294C97.1068 73.294 97.8721 73.5927 98.4414 74.19C99.0201 74.7873 99.3094 75.6133 99.3094 76.668C99.3094 77.3027 99.1834 77.872 98.9314 78.376C98.6888 78.88 98.3154 79.2813 97.8114 79.58C97.3168 79.8787 96.7148 80.028 96.0054 80.028C95.0441 80.028 94.2928 79.8133 93.7514 79.384C93.2101 78.9547 92.8321 78.362 92.6174 77.606C92.4028 76.85 92.2954 75.9167 92.2954 74.806C92.2954 71.3807 93.4901 69.668 95.8794 69.668C96.7941 69.668 97.5128 69.9153 98.0354 70.41C98.5581 70.9047 98.8661 71.53 98.9594 72.286H97.7834ZM95.8794 74.372C95.4781 74.372 95.1001 74.456 94.7454 74.624C94.3908 74.7827 94.1014 75.03 93.8774 75.366C93.6628 75.6927 93.5554 76.094 93.5554 76.57C93.5554 77.2793 93.7608 77.858 94.1714 78.306C94.5821 78.7447 95.1701 78.964 95.9354 78.964C96.5888 78.964 97.1068 78.7633 97.4894 78.362C97.8814 77.9513 98.0774 77.4007 98.0774 76.71C98.0774 75.982 97.8908 75.4127 97.5174 75.002C97.1441 74.582 96.5981 74.372 95.8794 74.372ZM101.028 74.834C101.028 73.2287 101.289 71.978 101.812 71.082C102.335 70.1767 103.249 69.724 104.556 69.724C105.853 69.724 106.763 70.1767 107.286 71.082C107.809 71.978 108.07 73.2287 108.07 74.834C108.07 76.4673 107.809 77.7367 107.286 78.642C106.763 79.5473 105.853 80 104.556 80C103.249 80 102.335 79.5473 101.812 78.642C101.289 77.7367 101.028 76.4673 101.028 74.834ZM106.81 74.834C106.81 74.022 106.754 73.336 106.642 72.776C106.539 72.2067 106.32 71.7493 105.984 71.404C105.657 71.0587 105.181 70.886 104.556 70.886C103.921 70.886 103.436 71.0587 103.1 71.404C102.773 71.7493 102.554 72.2067 102.442 72.776C102.339 73.336 102.288 74.022 102.288 74.834C102.288 75.674 102.339 76.3787 102.442 76.948C102.554 77.5173 102.773 77.9747 103.1 78.32C103.436 78.6653 103.921 78.838 104.556 78.838C105.181 78.838 105.657 78.6653 105.984 78.32C106.32 77.9747 106.539 77.5173 106.642 76.948C106.754 76.3787 106.81 75.674 106.81 74.834ZM116.049 70.872L112.157 80H110.869L114.817 70.998H109.413V69.906H116.049V70.872Z" fill="#2B3674"/>
<rect x="451" y="63" width="56" height="25" rx="4" fill="#DADEE7"/>
<path d="M460.33 80V70.004H461.744L466.294 78.236H466.35C466.341 77.9933 466.327 77.7133 466.308 77.396C466.289 77.0787 466.275 76.7613 466.266 76.444C466.257 76.1173 466.252 75.8373 466.252 75.604V70.004H467.358V80H465.986L461.38 71.74H461.324C461.343 71.9827 461.357 72.272 461.366 72.608C461.385 72.9347 461.399 73.2613 461.408 73.588C461.427 73.9147 461.436 74.204 461.436 74.456V80H460.33ZM468.688 80V79.034H472.286V80H468.688ZM470.48 78.124C470.079 78.124 469.719 78.0353 469.402 77.858C469.094 77.6713 468.851 77.4007 468.674 77.046C468.497 76.6913 468.408 76.2573 468.408 75.744C468.408 74.9787 468.595 74.3953 468.968 73.994C469.351 73.5833 469.869 73.378 470.522 73.378C470.923 73.378 471.278 73.4713 471.586 73.658C471.903 73.8353 472.151 74.1013 472.328 74.456C472.515 74.8013 472.608 75.2307 472.608 75.744C472.608 76.5093 472.417 77.0973 472.034 77.508C471.651 77.9187 471.133 78.124 470.48 78.124ZM470.508 77.312C470.919 77.312 471.213 77.1813 471.39 76.92C471.567 76.6493 471.656 76.2573 471.656 75.744C471.656 75.2213 471.567 74.8387 471.39 74.596C471.213 74.344 470.919 74.218 470.508 74.218C470.107 74.218 469.813 74.344 469.626 74.596C469.439 74.8387 469.346 75.2213 469.346 75.744C469.346 76.2573 469.435 76.6493 469.612 76.92C469.799 77.1813 470.097 77.312 470.508 77.312ZM479.783 72.286C479.578 71.25 478.939 70.732 477.865 70.732C477.035 70.732 476.414 71.054 476.003 71.698C475.593 72.3327 475.392 73.3827 475.401 74.848C475.616 74.3627 475.971 73.9847 476.465 73.714C476.969 73.434 477.529 73.294 478.145 73.294C479.107 73.294 479.872 73.5927 480.441 74.19C481.02 74.7873 481.309 75.6133 481.309 76.668C481.309 77.3027 481.183 77.872 480.931 78.376C480.689 78.88 480.315 79.2813 479.811 79.58C479.317 79.8787 478.715 80.028 478.005 80.028C477.044 80.028 476.293 79.8133 475.751 79.384C475.21 78.9547 474.832 78.362 474.617 77.606C474.403 76.85 474.295 75.9167 474.295 74.806C474.295 71.3807 475.49 69.668 477.879 69.668C478.794 69.668 479.513 69.9153 480.035 70.41C480.558 70.9047 480.866 71.53 480.959 72.286H479.783ZM477.879 74.372C477.478 74.372 477.1 74.456 476.745 74.624C476.391 74.7827 476.101 75.03 475.877 75.366C475.663 75.6927 475.555 76.094 475.555 76.57C475.555 77.2793 475.761 77.858 476.171 78.306C476.582 78.7447 477.17 78.964 477.935 78.964C478.589 78.964 479.107 78.7633 479.489 78.362C479.881 77.9513 480.077 77.4007 480.077 76.71C480.077 75.982 479.891 75.4127 479.517 75.002C479.144 74.582 478.598 74.372 477.879 74.372ZM483.028 74.834C483.028 73.2287 483.289 71.978 483.812 71.082C484.335 70.1767 485.249 69.724 486.556 69.724C487.853 69.724 488.763 70.1767 489.286 71.082C489.809 71.978 490.07 73.2287 490.07 74.834C490.07 76.4673 489.809 77.7367 489.286 78.642C488.763 79.5473 487.853 80 486.556 80C485.249 80 484.335 79.5473 483.812 78.642C483.289 77.7367 483.028 76.4673 483.028 74.834ZM488.81 74.834C488.81 74.022 488.754 73.336 488.642 72.776C488.539 72.2067 488.32 71.7493 487.984 71.404C487.657 71.0587 487.181 70.886 486.556 70.886C485.921 70.886 485.436 71.0587 485.1 71.404C484.773 71.7493 484.554 72.2067 484.442 72.776C484.339 73.336 484.288 74.022 484.288 74.834C484.288 75.674 484.339 76.3787 484.442 76.948C484.554 77.5173 484.773 77.9747 485.1 78.32C485.436 78.6653 485.921 78.838 486.556 78.838C487.181 78.838 487.657 78.6653 487.984 78.32C488.32 77.9747 488.539 77.5173 488.642 76.948C488.754 76.3787 488.81 75.674 488.81 74.834ZM498.049 70.872L494.157 80H492.869L496.817 70.998H491.413V69.906H498.049V70.872Z" fill="#2B3674"/>
<path fill-rule="evenodd" clip-rule="evenodd" d="M191 68L191 1L192.5 1L192.5 68C192.5 69.933 194.067 71.5 196 71.5L252 71.5L252 73L196 73C193.239 73 191 70.7614 191 68ZM323 73L378 73C380.761 73 383 70.7615 383 68L383 1.00003L381.5 1.00003L381.5 68C381.5 69.933 379.933 71.5 378 71.5L323 71.5L323 73Z" fill="#B0BBD5"/>
<path fill-rule="evenodd" clip-rule="evenodd" d="M-1.17147e-05 68L-6.81138e-06 39.9565L1.49999 39.6522L1.49999 68C1.49999 69.933 3.06699 71.5 4.99999 71.5L61 71.5L61 73L4.99999 73C2.23857 73 -1.21975e-05 70.7614 -1.17147e-05 68ZM132 73L187 73C189.761 73 192 70.7615 192 68L192 1.00003L190.5 1.30438L190.5 68C190.5 69.933 188.933 71.5 187 71.5L132 71.5L132 73Z" fill="#B0BBD5"/>
<path fill-rule="evenodd" clip-rule="evenodd" d="M382 68L382 1L383.5 1L383.5 68C383.5 69.933 385.067 71.5 387 71.5L443 71.5L443 73L387 73C384.239 73 382 70.7614 382 68ZM514 73L569 73C571.761 73 574 70.7615 574 68L574 1.00003L572.5 1.00003L572.5 68C572.5 69.933 570.933 71.5 569 71.5L514 71.5L514 73Z" fill="#B0BBD5"/>
<rect x="97" y="44" width="2" height="43" rx="1" transform="rotate(-180 97 44)" fill="#B0BBD5"/>
<rect x="872.567" y="175.705" width="19.4444" height="30.2951" rx="4" fill="#DADEE7"/>
<mask id="path-107-inside-21_0_4157" fill="white">
<path d="M869.789 179C869.789 175.686 872.475 173 875.789 173H888.789C892.103 173 894.789 175.686 894.789 179V192.475H869.789V179Z"/>
</mask>
<path d="M867.789 179C867.789 174.582 871.371 171 875.789 171H888.789C893.207 171 896.789 174.582 896.789 179H892.789C892.789 176.791 890.998 175 888.789 175H875.789C873.58 175 871.789 176.791 871.789 179H867.789ZM894.789 192.475H869.789H894.789ZM867.789 192.475V179C867.789 174.582 871.371 171 875.789 171V175C873.58 175 871.789 176.791 871.789 179V192.475H867.789ZM888.789 171C893.207 171 896.789 174.582 896.789 179V192.475H892.789V179C892.789 176.791 890.998 175 888.789 175V171Z" fill="#DADEE7" mask="url(#path-107-inside-21_0_4157)"/>
<rect x="968.48" y="175.705" width="19.4444" height="30.2951" rx="4" fill="#DADEE7"/>
<mask id="path-110-inside-22_0_4157" fill="white">
<path d="M965.703 179C965.703 175.686 968.389 173 971.703 173H984.703C988.016 173 990.703 175.686 990.703 179V192.475H965.703V179Z"/>
</mask>
<path d="M963.703 179C963.703 174.582 967.284 171 971.703 171H984.703C989.121 171 992.703 174.582 992.703 179H988.703C988.703 176.791 986.912 175 984.703 175H971.703C969.493 175 967.703 176.791 967.703 179H963.703ZM990.703 192.475H965.703H990.703ZM963.703 192.475V179C963.703 174.582 967.284 171 971.703 171V175C969.493 175 967.703 176.791 967.703 179V192.475H963.703ZM984.703 171C989.121 171 992.703 174.582 992.703 179V192.475H988.703V179C988.703 176.791 986.912 175 984.703 175V171Z" fill="#DADEE7" mask="url(#path-110-inside-22_0_4157)"/>
<rect x="904.035" y="175.705" width="19.4444" height="30.2951" rx="4" fill="#DADEE7"/>
<mask id="path-113-inside-23_0_4157" fill="white">
<path d="M901.257 179C901.257 175.686 903.943 173 907.257 173H920.257C923.571 173 926.257 175.686 926.257 179V192.475H901.257V179Z"/>
</mask>
<path d="M899.257 179C899.257 174.582 902.839 171 907.257 171H920.257C924.675 171 928.257 174.582 928.257 179H924.257C924.257 176.791 922.466 175 920.257 175H907.257C905.048 175 903.257 176.791 903.257 179H899.257ZM926.257 192.475H901.257H926.257ZM899.257 192.475V179C899.257 174.582 902.839 171 907.257 171V175C905.048 175 903.257 176.791 903.257 179V192.475H899.257ZM920.257 171C924.675 171 928.257 174.582 928.257 179V192.475H924.257V179C924.257 176.791 922.466 175 920.257 175V171Z" fill="#DADEE7" mask="url(#path-113-inside-23_0_4157)"/>
<rect x="999.948" y="175.705" width="19.4444" height="30.295" rx="4" fill="#DADEE7"/>
<mask id="path-116-inside-24_0_4157" fill="white">
<path d="M997.17 179C997.17 175.686 999.857 173 1003.17 173H1016.17C1019.48 173 1022.17 175.686 1022.17 179V192.475H997.17V179Z"/>
</mask>
<path d="M995.17 179C995.17 174.582 998.752 171 1003.17 171H1016.17C1020.59 171 1024.17 174.582 1024.17 179H1020.17C1020.17 176.791 1018.38 175 1016.17 175H1003.17C1000.96 175 999.17 176.791 999.17 179H995.17ZM1022.17 192.475H997.17H1022.17ZM995.17 192.475V179C995.17 174.582 998.752 171 1003.17 171V175C1000.96 175 999.17 176.791 999.17 179V192.475H995.17ZM1016.17 171C1020.59 171 1024.17 174.582 1024.17 179V192.475H1020.17V179C1020.17 176.791 1018.38 175 1016.17 175V171Z" fill="#DADEE7" mask="url(#path-116-inside-24_0_4157)"/>
<rect x="888" y="150" width="19" height="17" rx="4" fill="#DADEE7"/>
<path d="M899.45 162L898.59 159.79H895.76L894.91 162H894L896.79 154.83H897.6L900.38 162H899.45ZM897.52 156.83C897.5 156.777 897.467 156.68 897.42 156.54C897.373 156.4 897.327 156.257 897.28 156.11C897.24 155.957 897.207 155.84 897.18 155.76C897.147 155.893 897.11 156.03 897.07 156.17C897.037 156.303 897 156.427 896.96 156.54C896.927 156.653 896.897 156.75 896.87 156.83L896.06 158.99H898.32L897.52 156.83Z" fill="#2B3674"/>
<rect x="986" y="150" width="19" height="17" rx="4" fill="#DADEE7"/>
<path d="M992.97 162V154.86H997.21V155.65H993.87V157.88H994.93C995.643 157.88 996.197 157.97 996.59 158.15C996.983 158.323 997.257 158.563 997.41 158.87C997.563 159.17 997.64 159.517 997.64 159.91C997.64 160.343 997.553 160.717 997.38 161.03C997.213 161.343 996.94 161.583 996.56 161.75C996.18 161.917 995.68 162 995.06 162H992.97ZM994.97 161.23C995.61 161.23 996.06 161.123 996.32 160.91C996.58 160.69 996.71 160.357 996.71 159.91C996.71 159.603 996.647 159.36 996.52 159.18C996.4 158.993 996.2 158.86 995.92 158.78C995.647 158.7 995.28 158.66 994.82 158.66H993.87V161.23H994.97Z" fill="#2B3674"/>
<rect x="920" y="129" width="57" height="25" rx="4" fill="#DADEE7"/>
<path d="M929.33 146V136.004H930.744L935.294 144.236H935.35C935.341 143.993 935.327 143.713 935.308 143.396C935.289 143.079 935.275 142.761 935.266 142.444C935.257 142.117 935.252 141.837 935.252 141.604V136.004H936.358V146H934.986L930.38 137.74H930.324C930.343 137.983 930.357 138.272 930.366 138.608C930.385 138.935 930.399 139.261 930.408 139.588C930.427 139.915 930.436 140.204 930.436 140.456V146H929.33ZM937.688 146V145.034H941.286V146H937.688ZM939.48 144.124C939.079 144.124 938.719 144.035 938.402 143.858C938.094 143.671 937.851 143.401 937.674 143.046C937.497 142.691 937.408 142.257 937.408 141.744C937.408 140.979 937.595 140.395 937.968 139.994C938.351 139.583 938.869 139.378 939.522 139.378C939.923 139.378 940.278 139.471 940.586 139.658C940.903 139.835 941.151 140.101 941.328 140.456C941.515 140.801 941.608 141.231 941.608 141.744C941.608 142.509 941.417 143.097 941.034 143.508C940.651 143.919 940.133 144.124 939.48 144.124ZM939.508 143.312C939.919 143.312 940.213 143.181 940.39 142.92C940.567 142.649 940.656 142.257 940.656 141.744C940.656 141.221 940.567 140.839 940.39 140.596C940.213 140.344 939.919 140.218 939.508 140.218C939.107 140.218 938.813 140.344 938.626 140.596C938.439 140.839 938.346 141.221 938.346 141.744C938.346 142.257 938.435 142.649 938.612 142.92C938.799 143.181 939.097 143.312 939.508 143.312ZM948.783 138.286C948.578 137.25 947.939 136.732 946.865 136.732C946.035 136.732 945.414 137.054 945.003 137.698C944.593 138.333 944.392 139.383 944.401 140.848C944.616 140.363 944.971 139.985 945.465 139.714C945.969 139.434 946.529 139.294 947.145 139.294C948.107 139.294 948.872 139.593 949.441 140.19C950.02 140.787 950.309 141.613 950.309 142.668C950.309 143.303 950.183 143.872 949.931 144.376C949.689 144.88 949.315 145.281 948.811 145.58C948.317 145.879 947.715 146.028 947.005 146.028C946.044 146.028 945.293 145.813 944.751 145.384C944.21 144.955 943.832 144.362 943.617 143.606C943.403 142.85 943.295 141.917 943.295 140.806C943.295 137.381 944.49 135.668 946.879 135.668C947.794 135.668 948.513 135.915 949.035 136.41C949.558 136.905 949.866 137.53 949.959 138.286H948.783ZM946.879 140.372C946.478 140.372 946.1 140.456 945.745 140.624C945.391 140.783 945.101 141.03 944.877 141.366C944.663 141.693 944.555 142.094 944.555 142.57C944.555 143.279 944.761 143.858 945.171 144.306C945.582 144.745 946.17 144.964 946.935 144.964C947.589 144.964 948.107 144.763 948.489 144.362C948.881 143.951 949.077 143.401 949.077 142.71C949.077 141.982 948.891 141.413 948.517 141.002C948.144 140.582 947.598 140.372 946.879 140.372ZM952.028 140.834C952.028 139.229 952.289 137.978 952.812 137.082C953.335 136.177 954.249 135.724 955.556 135.724C956.853 135.724 957.763 136.177 958.286 137.082C958.809 137.978 959.07 139.229 959.07 140.834C959.07 142.467 958.809 143.737 958.286 144.642C957.763 145.547 956.853 146 955.556 146C954.249 146 953.335 145.547 952.812 144.642C952.289 143.737 952.028 142.467 952.028 140.834ZM957.81 140.834C957.81 140.022 957.754 139.336 957.642 138.776C957.539 138.207 957.32 137.749 956.984 137.404C956.657 137.059 956.181 136.886 955.556 136.886C954.921 136.886 954.436 137.059 954.1 137.404C953.773 137.749 953.554 138.207 953.442 138.776C953.339 139.336 953.288 140.022 953.288 140.834C953.288 141.674 953.339 142.379 953.442 142.948C953.554 143.517 953.773 143.975 954.1 144.32C954.436 144.665 954.921 144.838 955.556 144.838C956.181 144.838 956.657 144.665 956.984 144.32C957.32 143.975 957.539 143.517 957.642 142.948C957.754 142.379 957.81 141.674 957.81 140.834ZM960.511 143.746V142.78L965.425 135.976H966.951V142.64H968.351V143.746H966.951V146H965.691V143.746H960.511ZM965.747 137.306L961.981 142.64H965.747V137.306Z" fill="#2B3674"/>
<path fill-rule="evenodd" clip-rule="evenodd" d="M1042 149L1042 216L1040.5 216L1040.5 149C1040.5 147.067 1038.93 145.5 1037 145.5L981 145.5L981 144L1037 144C1039.76 144 1042 146.239 1042 149ZM910 144L855 144C852.239 144 850 146.239 850 149L850 216L851.5 216L851.5 149C851.5 147.067 853.067 145.5 855 145.5L910 145.5L910 144Z" fill="#B0BBD5"/>
<rect x="1062.57" y="175.705" width="19.4444" height="30.2951" rx="4" fill="#DADEE7"/>
<mask id="path-126-inside-25_0_4157" fill="white">
<path d="M1059.79 179C1059.79 175.686 1062.48 173 1065.79 173H1078.79C1082.1 173 1084.79 175.686 1084.79 179V192.475H1059.79V179Z"/>
</mask>
<path d="M1057.79 179C1057.79 174.582 1061.37 171 1065.79 171H1078.79C1083.21 171 1086.79 174.582 1086.79 179H1082.79C1082.79 176.791 1081 175 1078.79 175H1065.79C1063.58 175 1061.79 176.791 1061.79 179H1057.79ZM1084.79 192.475H1059.79H1084.79ZM1057.79 192.475V179C1057.79 174.582 1061.37 171 1065.79 171V175C1063.58 175 1061.79 176.791 1061.79 179V192.475H1057.79ZM1078.79 171C1083.21 171 1086.79 174.582 1086.79 179V192.475H1082.79V179C1082.79 176.791 1081 175 1078.79 175V171Z" fill="#DADEE7" mask="url(#path-126-inside-25_0_4157)"/>
<rect x="1158.48" y="175.705" width="19.4444" height="30.2951" rx="4" fill="#DADEE7"/>
<mask id="path-129-inside-26_0_4157" fill="white">
<path d="M1155.7 179C1155.7 175.686 1158.39 173 1161.7 173H1174.7C1178.02 173 1180.7 175.686 1180.7 179V192.475H1155.7V179Z"/>
</mask>
<path d="M1153.7 179C1153.7 174.582 1157.28 171 1161.7 171H1174.7C1179.12 171 1182.7 174.582 1182.7 179H1178.7C1178.7 176.791 1176.91 175 1174.7 175H1161.7C1159.49 175 1157.7 176.791 1157.7 179H1153.7ZM1180.7 192.475H1155.7H1180.7ZM1153.7 192.475V179C1153.7 174.582 1157.28 171 1161.7 171V175C1159.49 175 1157.7 176.791 1157.7 179V192.475H1153.7ZM1174.7 171C1179.12 171 1182.7 174.582 1182.7 179V192.475H1178.7V179C1178.7 176.791 1176.91 175 1174.7 175V171Z" fill="#DADEE7" mask="url(#path-129-inside-26_0_4157)"/>
<rect x="1094.03" y="175.705" width="19.4444" height="30.2951" rx="4" fill="#DADEE7"/>
<mask id="path-132-inside-27_0_4157" fill="white">
<path d="M1091.26 179C1091.26 175.686 1093.94 173 1097.26 173H1110.26C1113.57 173 1116.26 175.686 1116.26 179V192.475H1091.26V179Z"/>
</mask>
<path d="M1089.26 179C1089.26 174.582 1092.84 171 1097.26 171H1110.26C1114.68 171 1118.26 174.582 1118.26 179H1114.26C1114.26 176.791 1112.47 175 1110.26 175H1097.26C1095.05 175 1093.26 176.791 1093.26 179H1089.26ZM1116.26 192.475H1091.26H1116.26ZM1089.26 192.475V179C1089.26 174.582 1092.84 171 1097.26 171V175C1095.05 175 1093.26 176.791 1093.26 179V192.475H1089.26ZM1110.26 171C1114.68 171 1118.26 174.582 1118.26 179V192.475H1114.26V179C1114.26 176.791 1112.47 175 1110.26 175V171Z" fill="#DADEE7" mask="url(#path-132-inside-27_0_4157)"/>
<rect x="1189.95" y="175.705" width="19.4444" height="30.295" rx="4" fill="#DADEE7"/>
<mask id="path-135-inside-28_0_4157" fill="white">
<path d="M1187.17 179C1187.17 175.686 1189.86 173 1193.17 173H1206.17C1209.48 173 1212.17 175.686 1212.17 179V192.475H1187.17V179Z"/>
</mask>
<path d="M1185.17 179C1185.17 174.582 1188.75 171 1193.17 171H1206.17C1210.59 171 1214.17 174.582 1214.17 179H1210.17C1210.17 176.791 1208.38 175 1206.17 175H1193.17C1190.96 175 1189.17 176.791 1189.17 179H1185.17ZM1212.17 192.475H1187.17H1212.17ZM1185.17 192.475V179C1185.17 174.582 1188.75 171 1193.17 171V175C1190.96 175 1189.17 176.791 1189.17 179V192.475H1185.17ZM1206.17 171C1210.59 171 1214.17 174.582 1214.17 179V192.475H1210.17V179C1210.17 176.791 1208.38 175 1206.17 175V171Z" fill="#DADEE7" mask="url(#path-135-inside-28_0_4157)"/>
<rect x="1078" y="150" width="19" height="17" rx="4" fill="#DADEE7"/>
<path d="M1089.45 162L1088.59 159.79H1085.76L1084.91 162H1084L1086.79 154.83H1087.6L1090.38 162H1089.45ZM1087.52 156.83C1087.5 156.777 1087.47 156.68 1087.42 156.54C1087.37 156.4 1087.33 156.257 1087.28 156.11C1087.24 155.957 1087.21 155.84 1087.18 155.76C1087.15 155.893 1087.11 156.03 1087.07 156.17C1087.04 156.303 1087 156.427 1086.96 156.54C1086.93 156.653 1086.9 156.75 1086.87 156.83L1086.06 158.99H1088.32L1087.52 156.83Z" fill="#2B3674"/>
<rect x="1176" y="150" width="19" height="17" rx="4" fill="#DADEE7"/>
<path d="M1182.97 162V154.86H1187.21V155.65H1183.87V157.88H1184.93C1185.64 157.88 1186.2 157.97 1186.59 158.15C1186.98 158.323 1187.26 158.563 1187.41 158.87C1187.56 159.17 1187.64 159.517 1187.64 159.91C1187.64 160.343 1187.55 160.717 1187.38 161.03C1187.21 161.343 1186.94 161.583 1186.56 161.75C1186.18 161.917 1185.68 162 1185.06 162H1182.97ZM1184.97 161.23C1185.61 161.23 1186.06 161.123 1186.32 160.91C1186.58 160.69 1186.71 160.357 1186.71 159.91C1186.71 159.603 1186.65 159.36 1186.52 159.18C1186.4 158.993 1186.2 158.86 1185.92 158.78C1185.65 158.7 1185.28 158.66 1184.82 158.66H1183.87V161.23H1184.97Z" fill="#2B3674"/>
<rect x="1110" y="129" width="53" height="25" rx="4" fill="#DADEE7"/>
<path d="M1119.33 146V136.004H1120.74L1125.29 144.236H1125.35C1125.34 143.993 1125.33 143.713 1125.31 143.396C1125.29 143.079 1125.28 142.761 1125.27 142.444C1125.26 142.117 1125.25 141.837 1125.25 141.604V136.004H1126.36V146H1124.99L1120.38 137.74H1120.32C1120.34 137.983 1120.36 138.272 1120.37 138.608C1120.38 138.935 1120.4 139.261 1120.41 139.588C1120.43 139.915 1120.44 140.204 1120.44 140.456V146H1119.33ZM1127.69 146V145.034H1131.29V146H1127.69ZM1129.48 144.124C1129.08 144.124 1128.72 144.035 1128.4 143.858C1128.09 143.671 1127.85 143.401 1127.67 143.046C1127.5 142.691 1127.41 142.257 1127.41 141.744C1127.41 140.979 1127.59 140.395 1127.97 139.994C1128.35 139.583 1128.87 139.378 1129.52 139.378C1129.92 139.378 1130.28 139.471 1130.59 139.658C1130.9 139.835 1131.15 140.101 1131.33 140.456C1131.51 140.801 1131.61 141.231 1131.61 141.744C1131.61 142.509 1131.42 143.097 1131.03 143.508C1130.65 143.919 1130.13 144.124 1129.48 144.124ZM1129.51 143.312C1129.92 143.312 1130.21 143.181 1130.39 142.92C1130.57 142.649 1130.66 142.257 1130.66 141.744C1130.66 141.221 1130.57 140.839 1130.39 140.596C1130.21 140.344 1129.92 140.218 1129.51 140.218C1129.11 140.218 1128.81 140.344 1128.63 140.596C1128.44 140.839 1128.35 141.221 1128.35 141.744C1128.35 142.257 1128.43 142.649 1128.61 142.92C1128.8 143.181 1129.1 143.312 1129.51 143.312ZM1138.78 138.286C1138.58 137.25 1137.94 136.732 1136.87 136.732C1136.03 136.732 1135.41 137.054 1135 137.698C1134.59 138.333 1134.39 139.383 1134.4 140.848C1134.62 140.363 1134.97 139.985 1135.47 139.714C1135.97 139.434 1136.53 139.294 1137.15 139.294C1138.11 139.294 1138.87 139.593 1139.44 140.19C1140.02 140.787 1140.31 141.613 1140.31 142.668C1140.31 143.303 1140.18 143.872 1139.93 144.376C1139.69 144.88 1139.32 145.281 1138.81 145.58C1138.32 145.879 1137.71 146.028 1137.01 146.028C1136.04 146.028 1135.29 145.813 1134.75 145.384C1134.21 144.955 1133.83 144.362 1133.62 143.606C1133.4 142.85 1133.3 141.917 1133.3 140.806C1133.3 137.381 1134.49 135.668 1136.88 135.668C1137.79 135.668 1138.51 135.915 1139.04 136.41C1139.56 136.905 1139.87 137.53 1139.96 138.286H1138.78ZM1136.88 140.372C1136.48 140.372 1136.1 140.456 1135.75 140.624C1135.39 140.783 1135.1 141.03 1134.88 141.366C1134.66 141.693 1134.56 142.094 1134.56 142.57C1134.56 143.279 1134.76 143.858 1135.17 144.306C1135.58 144.745 1136.17 144.964 1136.94 144.964C1137.59 144.964 1138.11 144.763 1138.49 144.362C1138.88 143.951 1139.08 143.401 1139.08 142.71C1139.08 141.982 1138.89 141.413 1138.52 141.002C1138.14 140.582 1137.6 140.372 1136.88 140.372ZM1142.03 140.834C1142.03 139.229 1142.29 137.978 1142.81 137.082C1143.33 136.177 1144.25 135.724 1145.56 135.724C1146.85 135.724 1147.76 136.177 1148.29 137.082C1148.81 137.978 1149.07 139.229 1149.07 140.834C1149.07 142.467 1148.81 143.737 1148.29 144.642C1147.76 145.547 1146.85 146 1145.56 146C1144.25 146 1143.33 145.547 1142.81 144.642C1142.29 143.737 1142.03 142.467 1142.03 140.834ZM1147.81 140.834C1147.81 140.022 1147.75 139.336 1147.64 138.776C1147.54 138.207 1147.32 137.749 1146.98 137.404C1146.66 137.059 1146.18 136.886 1145.56 136.886C1144.92 136.886 1144.44 137.059 1144.1 137.404C1143.77 137.749 1143.55 138.207 1143.44 138.776C1143.34 139.336 1143.29 140.022 1143.29 140.834C1143.29 141.674 1143.34 142.379 1143.44 142.948C1143.55 143.517 1143.77 143.975 1144.1 144.32C1144.44 144.665 1144.92 144.838 1145.56 144.838C1146.18 144.838 1146.66 144.665 1146.98 144.32C1147.32 143.975 1147.54 143.517 1147.64 142.948C1147.75 142.379 1147.81 141.674 1147.81 140.834ZM1150.48 137.04V135.878H1153.12V146H1151.83V137.04H1150.48Z" fill="#2B3674"/>
<path fill-rule="evenodd" clip-rule="evenodd" d="M1232 149L1232 216L1230.5 216L1230.5 149C1230.5 147.067 1228.93 145.5 1227 145.5L1171 145.5L1171 144L1227 144C1229.76 144 1232 146.239 1232 149ZM1100 144L1045 144C1042.24 144 1040 146.239 1040 149L1040 216L1041.5 216L1041.5 149C1041.5 147.067 1043.07 145.5 1045 145.5L1100 145.5L1100 144Z" fill="#B0BBD5"/>
<path fill-rule="evenodd" clip-rule="evenodd" d="M851 149.002L851 216.002L849.5 216.002L849.5 149.002C849.5 147.069 847.933 145.502 846 145.502L744 145.502L744 144.002L846 144.002C848.761 144.002 851 146.241 851 149.002ZM659 144.002L558 144.002C555.239 144.002 553 146.241 553 149.002L553 216.002L554.5 216.002L554.5 149.002C554.5 147.069 556.067 145.502 558 145.502L659 145.502L659 144.002Z" fill="#B0BBD5"/>
<path fill-rule="evenodd" clip-rule="evenodd" d="M554 149.002L554 216.002L552.5 216.002L552.5 149.002C552.5 147.069 550.933 145.502 549 145.502L447 145.502L447 144.002L549 144.002C551.761 144.002 554 146.241 554 149.002ZM362 144.002L261 144.002C258.239 144.002 256 146.241 256 149.002L256 216.002L257.5 216.002L257.5 149.002C257.5 147.069 259.067 145.502 261 145.502L362 145.502L362 144.002Z" fill="#B0BBD5"/>
<rect x="586.278" y="176.207" width="18.4444" height="29.2951" rx="3.5" fill="#DADEE7" stroke="#DADEE7"/>
<mask id="path-147-inside-29_0_4157" fill="white">
<path d="M583 179.002C583 175.688 585.686 173.002 589 173.002H602C605.314 173.002 608 175.688 608 179.002V192.477H583V179.002Z"/>
</mask>
<path d="M581 179.002C581 174.584 584.582 171.002 589 171.002H602C606.418 171.002 610 174.584 610 179.002H606C606 176.793 604.209 175.002 602 175.002H589C586.791 175.002 585 176.793 585 179.002H581ZM608 192.477H583H608ZM581 192.477V179.002C581 174.584 584.582 171.002 589 171.002V175.002C586.791 175.002 585 176.793 585 179.002V192.477H581ZM602 171.002C606.418 171.002 610 174.584 610 179.002V192.477H606V179.002C606 176.793 604.209 175.002 602 175.002V171.002Z" fill="#DADEE7" mask="url(#path-147-inside-29_0_4157)"/>
<rect x="290.278" y="176.207" width="18.4444" height="29.2951" rx="3.5" fill="#DADEE7" stroke="#DADEE7"/>
<mask id="path-150-inside-30_0_4157" fill="white">
<path d="M287 179.002C287 175.688 289.686 173.002 293 173.002H306C309.314 173.002 312 175.688 312 179.002V192.477H287V179.002Z"/>
</mask>
<path d="M285 179.002C285 174.584 288.582 171.002 293 171.002H306C310.418 171.002 314 174.584 314 179.002H310C310 176.793 308.209 175.002 306 175.002H293C290.791 175.002 289 176.793 289 179.002H285ZM312 192.477H287H312ZM285 192.477V179.002C285 174.584 288.582 171.002 293 171.002V175.002C290.791 175.002 289 176.793 289 179.002V192.477H285ZM306 171.002C310.418 171.002 314 174.584 314 179.002V192.477H310V179.002C310 176.793 308.209 175.002 306 175.002V171.002Z" fill="#DADEE7" mask="url(#path-150-inside-30_0_4157)"/>
<rect x="735.778" y="175.707" width="19.4444" height="30.2951" rx="4" fill="#FF1A63"/>
<mask id="path-153-inside-31_0_4157" fill="white">
<path d="M733 179.002C733 175.688 735.686 173.002 739 173.002H752C755.314 173.002 758 175.688 758 179.002V192.477H733V179.002Z"/>
</mask>
<path d="M731 179.002C731 174.584 734.582 171.002 739 171.002H752C756.418 171.002 760 174.584 760 179.002H756C756 176.793 754.209 175.002 752 175.002H739C736.791 175.002 735 176.793 735 179.002H731ZM758 192.477H733H758ZM731 192.477V179.002C731 174.584 734.582 171.002 739 171.002V175.002C736.791 175.002 735 176.793 735 179.002V192.477H731ZM752 171.002C756.418 171.002 760 174.584 760 179.002V192.477H756V179.002C756 176.793 754.209 175.002 752 175.002V171.002Z" fill="#FF1A63" mask="url(#path-153-inside-31_0_4157)"/>
<rect x="439.778" y="175.707" width="19.4444" height="30.2951" rx="4" fill="#FF1A63"/>
<mask id="path-156-inside-32_0_4157" fill="white">
<path d="M437 179.002C437 175.688 439.686 173.002 443 173.002H456C459.314 173.002 462 175.688 462 179.002V192.477H437V179.002Z"/>
</mask>
<path d="M435 179.002C435 174.584 438.582 171.002 443 171.002H456C460.418 171.002 464 174.584 464 179.002H460C460 176.793 458.209 175.002 456 175.002H443C440.791 175.002 439 176.793 439 179.002H435ZM462 192.477H437H462ZM435 192.477V179.002C435 174.584 438.582 171.002 443 171.002V175.002C440.791 175.002 439 176.793 439 179.002V192.477H435ZM456 171.002C460.418 171.002 464 174.584 464 179.002V192.477H460V179.002C460 176.793 458.209 175.002 456 175.002V171.002Z" fill="#FF1A63" mask="url(#path-156-inside-32_0_4157)"/>
<rect x="616.684" y="175.707" width="19.4444" height="30.2951" rx="4" fill="#FF1A63"/>
<mask id="path-159-inside-33_0_4157" fill="white">
<path d="M613.906 179.002C613.906 175.688 616.593 173.002 619.906 173.002H632.906C636.22 173.002 638.906 175.688 638.906 179.002V192.477H613.906V179.002Z"/>
</mask>
<path d="M611.906 179.002C611.906 174.584 615.488 171.002 619.906 171.002H632.906C637.325 171.002 640.906 174.584 640.906 179.002H636.906C636.906 176.793 635.115 175.002 632.906 175.002H619.906C617.697 175.002 615.906 176.793 615.906 179.002H611.906ZM638.906 192.477H613.906H638.906ZM611.906 192.477V179.002C611.906 174.584 615.488 171.002 619.906 171.002V175.002C617.697 175.002 615.906 176.793 615.906 179.002V192.477H611.906ZM632.906 171.002C637.325 171.002 640.906 174.584 640.906 179.002V192.477H636.906V179.002C636.906 176.793 635.115 175.002 632.906 175.002V171.002Z" fill="#FF1A63" mask="url(#path-159-inside-33_0_4157)"/>
<rect x="320.684" y="175.707" width="19.4444" height="30.2951" rx="4" fill="#FF1A63"/>
<mask id="path-162-inside-34_0_4157" fill="white">
<path d="M317.906 179.002C317.906 175.688 320.593 173.002 323.906 173.002H336.906C340.22 173.002 342.906 175.688 342.906 179.002V192.477H317.906V179.002Z"/>
</mask>
<path d="M315.906 179.002C315.906 174.584 319.488 171.002 323.906 171.002H336.906C341.325 171.002 344.906 174.584 344.906 179.002H340.906C340.906 176.793 339.115 175.002 336.906 175.002H323.906C321.697 175.002 319.906 176.793 319.906 179.002H315.906ZM342.906 192.477H317.906H342.906ZM315.906 192.477V179.002C315.906 174.584 319.488 171.002 323.906 171.002V175.002C321.697 175.002 319.906 176.793 319.906 179.002V192.477H315.906ZM336.906 171.002C341.325 171.002 344.906 174.584 344.906 179.002V192.477H340.906V179.002C340.906 176.793 339.115 175.002 336.906 175.002V171.002Z" fill="#FF1A63" mask="url(#path-162-inside-34_0_4157)"/>
<rect x="766.684" y="175.707" width="19.4444" height="30.2951" rx="4" fill="#FF1A63"/>
<mask id="path-165-inside-35_0_4157" fill="white">
<path d="M763.906 179.002C763.906 175.688 766.593 173.002 769.906 173.002H782.906C786.22 173.002 788.906 175.688 788.906 179.002V192.477H763.906V179.002Z"/>
</mask>
<path d="M761.906 179.002C761.906 174.584 765.488 171.002 769.906 171.002H782.906C787.325 171.002 790.906 174.584 790.906 179.002H786.906C786.906 176.793 785.115 175.002 782.906 175.002H769.906C767.697 175.002 765.906 176.793 765.906 179.002H761.906ZM788.906 192.477H763.906H788.906ZM761.906 192.477V179.002C761.906 174.584 765.488 171.002 769.906 171.002V175.002C767.697 175.002 765.906 176.793 765.906 179.002V192.477H761.906ZM782.906 171.002C787.325 171.002 790.906 174.584 790.906 179.002V192.477H786.906V179.002C786.906 176.793 785.115 175.002 782.906 175.002V171.002Z" fill="#FF1A63" mask="url(#path-165-inside-35_0_4157)"/>
<rect x="470.684" y="175.707" width="19.4444" height="30.2951" rx="4" fill="#FF1A63"/>
<mask id="path-168-inside-36_0_4157" fill="white">
<path d="M467.906 179.002C467.906 175.688 470.593 173.002 473.906 173.002H486.906C490.22 173.002 492.906 175.688 492.906 179.002V192.477H467.906V179.002Z"/>
</mask>
<path d="M465.906 179.002C465.906 174.584 469.488 171.002 473.906 171.002H486.906C491.325 171.002 494.906 174.584 494.906 179.002H490.906C490.906 176.793 489.115 175.002 486.906 175.002H473.906C471.697 175.002 469.906 176.793 469.906 179.002H465.906ZM492.906 192.477H467.906H492.906ZM465.906 192.477V179.002C465.906 174.584 469.488 171.002 473.906 171.002V175.002C471.697 175.002 469.906 176.793 469.906 179.002V192.477H465.906ZM486.906 171.002C491.325 171.002 494.906 174.584 494.906 179.002V192.477H490.906V179.002C490.906 176.793 489.115 175.002 486.906 175.002V171.002Z" fill="#FF1A63" mask="url(#path-168-inside-36_0_4157)"/>
<rect x="648.09" y="176.207" width="18.4444" height="29.2951" rx="3.5" fill="#DADEE7" stroke="#DADEE7"/>
<mask id="path-171-inside-37_0_4157" fill="white">
<path d="M644.812 179.002C644.812 175.688 647.499 173.002 650.812 173.002H663.812C667.126 173.002 669.812 175.688 669.812 179.002V192.477H644.812V179.002Z"/>
</mask>
<path d="M642.812 179.002C642.812 174.584 646.394 171.002 650.812 171.002H663.812C668.231 171.002 671.812 174.584 671.812 179.002H667.812C667.812 176.793 666.022 175.002 663.812 175.002H650.812C648.603 175.002 646.812 176.793 646.812 179.002H642.812ZM669.812 192.477H644.812H669.812ZM642.812 192.477V179.002C642.812 174.584 646.394 171.002 650.812 171.002V175.002C648.603 175.002 646.812 176.793 646.812 179.002V192.477H642.812ZM663.812 171.002C668.231 171.002 671.812 174.584 671.812 179.002V192.477H667.812V179.002C667.812 176.793 666.022 175.002 663.812 175.002V171.002Z" fill="#DADEE7" mask="url(#path-171-inside-37_0_4157)"/>
<rect x="352.09" y="176.207" width="18.4444" height="29.2951" rx="3.5" fill="#DADEE7" stroke="#DADEE7"/>
<mask id="path-174-inside-38_0_4157" fill="white">
<path d="M348.812 179.002C348.812 175.688 351.499 173.002 354.812 173.002H367.812C371.126 173.002 373.812 175.688 373.812 179.002V192.477H348.812V179.002Z"/>
</mask>
<path d="M346.812 179.002C346.812 174.584 350.394 171.002 354.812 171.002H367.812C372.231 171.002 375.812 174.584 375.812 179.002H371.812C371.812 176.793 370.022 175.002 367.812 175.002H354.812C352.603 175.002 350.812 176.793 350.812 179.002H346.812ZM373.812 192.477H348.812H373.812ZM346.812 192.477V179.002C346.812 174.584 350.394 171.002 354.812 171.002V175.002C352.603 175.002 350.812 176.793 350.812 179.002V192.477H346.812ZM367.812 171.002C372.231 171.002 375.812 174.584 375.812 179.002V192.477H371.812V179.002C371.812 176.793 370.022 175.002 367.812 175.002V171.002Z" fill="#DADEE7" mask="url(#path-174-inside-38_0_4157)"/>
<rect x="798.09" y="176.207" width="18.4444" height="29.2951" rx="3.5" fill="#DADEE7" stroke="#DADEE7"/>
<mask id="path-177-inside-39_0_4157" fill="white">
<path d="M794.812 179.002C794.812 175.688 797.499 173.002 800.812 173.002H813.812C817.126 173.002 819.812 175.688 819.812 179.002V192.477H794.812V179.002Z"/>
</mask>
<path d="M792.812 179.002C792.812 174.584 796.394 171.002 800.812 171.002H813.812C818.231 171.002 821.812 174.584 821.812 179.002H817.812C817.812 176.793 816.022 175.002 813.812 175.002H800.812C798.603 175.002 796.812 176.793 796.812 179.002H792.812ZM819.812 192.477H794.812H819.812ZM792.812 192.477V179.002C792.812 174.584 796.394 171.002 800.812 171.002V175.002C798.603 175.002 796.812 176.793 796.812 179.002V192.477H792.812ZM813.812 171.002C818.231 171.002 821.812 174.584 821.812 179.002V192.477H817.812V179.002C817.812 176.793 816.022 175.002 813.812 175.002V171.002Z" fill="#DADEE7" mask="url(#path-177-inside-39_0_4157)"/>
<rect x="502.09" y="176.207" width="18.4444" height="29.2951" rx="3.5" fill="#DADEE7" stroke="#DADEE7"/>
<mask id="path-180-inside-40_0_4157" fill="white">
<path d="M498.812 179.002C498.812 175.688 501.499 173.002 504.812 173.002H517.812C521.126 173.002 523.812 175.688 523.812 179.002V192.477H498.812V179.002Z"/>
</mask>
<path d="M496.812 179.002C496.812 174.584 500.394 171.002 504.812 171.002H517.812C522.231 171.002 525.812 174.584 525.812 179.002H521.812C521.812 176.793 520.022 175.002 517.812 175.002H504.812C502.603 175.002 500.812 176.793 500.812 179.002H496.812ZM523.812 192.477H498.812H523.812ZM496.812 192.477V179.002C496.812 174.584 500.394 171.002 504.812 171.002V175.002C502.603 175.002 500.812 176.793 500.812 179.002V192.477H496.812ZM517.812 171.002C522.231 171.002 525.812 174.584 525.812 179.002V192.477H521.812V179.002C521.812 176.793 520.022 175.002 517.812 175.002V171.002Z" fill="#DADEE7" mask="url(#path-180-inside-40_0_4157)"/>
<rect x="675.5" y="129.502" width="56" height="24" rx="3.5" fill="#DADEE7"/>
<path d="M684.33 146.002V136.006H685.744L690.294 144.238H690.35C690.341 143.995 690.327 143.715 690.308 143.398C690.289 143.081 690.275 142.763 690.266 142.446C690.257 142.119 690.252 141.839 690.252 141.606V136.006H691.358V146.002H689.986L685.38 137.742H685.324C685.343 137.985 685.357 138.274 685.366 138.61C685.385 138.937 685.399 139.263 685.408 139.59C685.427 139.917 685.436 140.206 685.436 140.458V146.002H684.33ZM692.688 146.002V145.036H696.286V146.002H692.688ZM694.48 144.126C694.079 144.126 693.719 144.037 693.402 143.86C693.094 143.673 692.851 143.403 692.674 143.048C692.497 142.693 692.408 142.259 692.408 141.746C692.408 140.981 692.595 140.397 692.968 139.996C693.351 139.585 693.869 139.38 694.522 139.38C694.923 139.38 695.278 139.473 695.586 139.66C695.903 139.837 696.151 140.103 696.328 140.458C696.515 140.803 696.608 141.233 696.608 141.746C696.608 142.511 696.417 143.099 696.034 143.51C695.651 143.921 695.133 144.126 694.48 144.126ZM694.508 143.314C694.919 143.314 695.213 143.183 695.39 142.922C695.567 142.651 695.656 142.259 695.656 141.746C695.656 141.223 695.567 140.841 695.39 140.598C695.213 140.346 694.919 140.22 694.508 140.22C694.107 140.22 693.813 140.346 693.626 140.598C693.439 140.841 693.346 141.223 693.346 141.746C693.346 142.259 693.435 142.651 693.612 142.922C693.799 143.183 694.097 143.314 694.508 143.314ZM703.783 138.288C703.578 137.252 702.939 136.734 701.865 136.734C701.035 136.734 700.414 137.056 700.003 137.7C699.593 138.335 699.392 139.385 699.401 140.85C699.616 140.365 699.971 139.987 700.465 139.716C700.969 139.436 701.529 139.296 702.145 139.296C703.107 139.296 703.872 139.595 704.441 140.192C705.02 140.789 705.309 141.615 705.309 142.67C705.309 143.305 705.183 143.874 704.931 144.378C704.689 144.882 704.315 145.283 703.811 145.582C703.317 145.881 702.715 146.03 702.005 146.03C701.044 146.03 700.293 145.815 699.751 145.386C699.21 144.957 698.832 144.364 698.617 143.608C698.403 142.852 698.295 141.919 698.295 140.808C698.295 137.383 699.49 135.67 701.879 135.67C702.794 135.67 703.513 135.917 704.035 136.412C704.558 136.907 704.866 137.532 704.959 138.288H703.783ZM701.879 140.374C701.478 140.374 701.1 140.458 700.745 140.626C700.391 140.785 700.101 141.032 699.877 141.368C699.663 141.695 699.555 142.096 699.555 142.572C699.555 143.281 699.761 143.86 700.171 144.308C700.582 144.747 701.17 144.966 701.935 144.966C702.589 144.966 703.107 144.765 703.489 144.364C703.881 143.953 704.077 143.403 704.077 142.712C704.077 141.984 703.891 141.415 703.517 141.004C703.144 140.584 702.598 140.374 701.879 140.374ZM707.028 140.836C707.028 139.231 707.289 137.98 707.812 137.084C708.335 136.179 709.249 135.726 710.556 135.726C711.853 135.726 712.763 136.179 713.286 137.084C713.809 137.98 714.07 139.231 714.07 140.836C714.07 142.469 713.809 143.739 713.286 144.644C712.763 145.549 711.853 146.002 710.556 146.002C709.249 146.002 708.335 145.549 707.812 144.644C707.289 143.739 707.028 142.469 707.028 140.836ZM712.81 140.836C712.81 140.024 712.754 139.338 712.642 138.778C712.539 138.209 712.32 137.751 711.984 137.406C711.657 137.061 711.181 136.888 710.556 136.888C709.921 136.888 709.436 137.061 709.1 137.406C708.773 137.751 708.554 138.209 708.442 138.778C708.339 139.338 708.288 140.024 708.288 140.836C708.288 141.676 708.339 142.381 708.442 142.95C708.554 143.519 708.773 143.977 709.1 144.322C709.436 144.667 709.921 144.84 710.556 144.84C711.181 144.84 711.657 144.667 711.984 144.322C712.32 143.977 712.539 143.519 712.642 142.95C712.754 142.381 712.81 141.676 712.81 140.836ZM722.273 136.986H717.359V140.178C717.574 139.879 717.891 139.637 718.311 139.45C718.731 139.254 719.184 139.156 719.669 139.156C720.444 139.156 721.074 139.319 721.559 139.646C722.045 139.963 722.39 140.379 722.595 140.892C722.81 141.396 722.917 141.933 722.917 142.502C722.917 143.174 722.791 143.776 722.539 144.308C722.287 144.84 721.9 145.26 721.377 145.568C720.864 145.876 720.225 146.03 719.459 146.03C718.479 146.03 717.686 145.778 717.079 145.274C716.473 144.77 716.104 144.098 715.973 143.258H717.219C717.341 143.79 717.597 144.205 717.989 144.504C718.381 144.803 718.876 144.952 719.473 144.952C720.211 144.952 720.766 144.733 721.139 144.294C721.513 143.846 721.699 143.258 721.699 142.53C721.699 141.802 721.513 141.242 721.139 140.85C720.766 140.449 720.215 140.248 719.487 140.248C718.993 140.248 718.559 140.369 718.185 140.612C717.821 140.845 717.555 141.167 717.387 141.578H716.183V135.866H722.273V136.986Z" fill="#2B3674"/>
<rect x="675.5" y="129.502" width="56" height="24" rx="3.5" stroke="#DADEE7"/>
<rect x="378.5" y="129.502" width="56" height="24" rx="3.5" fill="#DADEE7"/>
<path d="M387.33 146.002V136.006H388.744L393.294 144.238H393.35C393.341 143.995 393.327 143.715 393.308 143.398C393.289 143.081 393.275 142.763 393.266 142.446C393.257 142.119 393.252 141.839 393.252 141.606V136.006H394.358V146.002H392.986L388.38 137.742H388.324C388.343 137.985 388.357 138.274 388.366 138.61C388.385 138.937 388.399 139.263 388.408 139.59C388.427 139.917 388.436 140.206 388.436 140.458V146.002H387.33ZM395.688 146.002V145.036H399.286V146.002H395.688ZM397.48 144.126C397.079 144.126 396.719 144.037 396.402 143.86C396.094 143.673 395.851 143.403 395.674 143.048C395.497 142.693 395.408 142.259 395.408 141.746C395.408 140.981 395.595 140.397 395.968 139.996C396.351 139.585 396.869 139.38 397.522 139.38C397.923 139.38 398.278 139.473 398.586 139.66C398.903 139.837 399.151 140.103 399.328 140.458C399.515 140.803 399.608 141.233 399.608 141.746C399.608 142.511 399.417 143.099 399.034 143.51C398.651 143.921 398.133 144.126 397.48 144.126ZM397.508 143.314C397.919 143.314 398.213 143.183 398.39 142.922C398.567 142.651 398.656 142.259 398.656 141.746C398.656 141.223 398.567 140.841 398.39 140.598C398.213 140.346 397.919 140.22 397.508 140.22C397.107 140.22 396.813 140.346 396.626 140.598C396.439 140.841 396.346 141.223 396.346 141.746C396.346 142.259 396.435 142.651 396.612 142.922C396.799 143.183 397.097 143.314 397.508 143.314ZM406.783 138.288C406.578 137.252 405.939 136.734 404.865 136.734C404.035 136.734 403.414 137.056 403.003 137.7C402.593 138.335 402.392 139.385 402.401 140.85C402.616 140.365 402.971 139.987 403.465 139.716C403.969 139.436 404.529 139.296 405.145 139.296C406.107 139.296 406.872 139.595 407.441 140.192C408.02 140.789 408.309 141.615 408.309 142.67C408.309 143.305 408.183 143.874 407.931 144.378C407.689 144.882 407.315 145.283 406.811 145.582C406.317 145.881 405.715 146.03 405.005 146.03C404.044 146.03 403.293 145.815 402.751 145.386C402.21 144.957 401.832 144.364 401.617 143.608C401.403 142.852 401.295 141.919 401.295 140.808C401.295 137.383 402.49 135.67 404.879 135.67C405.794 135.67 406.513 135.917 407.035 136.412C407.558 136.907 407.866 137.532 407.959 138.288H406.783ZM404.879 140.374C404.478 140.374 404.1 140.458 403.745 140.626C403.391 140.785 403.101 141.032 402.877 141.368C402.663 141.695 402.555 142.096 402.555 142.572C402.555 143.281 402.761 143.86 403.171 144.308C403.582 144.747 404.17 144.966 404.935 144.966C405.589 144.966 406.107 144.765 406.489 144.364C406.881 143.953 407.077 143.403 407.077 142.712C407.077 141.984 406.891 141.415 406.517 141.004C406.144 140.584 405.598 140.374 404.879 140.374ZM410.028 140.836C410.028 139.231 410.289 137.98 410.812 137.084C411.335 136.179 412.249 135.726 413.556 135.726C414.853 135.726 415.763 136.179 416.286 137.084C416.809 137.98 417.07 139.231 417.07 140.836C417.07 142.469 416.809 143.739 416.286 144.644C415.763 145.549 414.853 146.002 413.556 146.002C412.249 146.002 411.335 145.549 410.812 144.644C410.289 143.739 410.028 142.469 410.028 140.836ZM415.81 140.836C415.81 140.024 415.754 139.338 415.642 138.778C415.539 138.209 415.32 137.751 414.984 137.406C414.657 137.061 414.181 136.888 413.556 136.888C412.921 136.888 412.436 137.061 412.1 137.406C411.773 137.751 411.554 138.209 411.442 138.778C411.339 139.338 411.288 140.024 411.288 140.836C411.288 141.676 411.339 142.381 411.442 142.95C411.554 143.519 411.773 143.977 412.1 144.322C412.436 144.667 412.921 144.84 413.556 144.84C414.181 144.84 414.657 144.667 414.984 144.322C415.32 143.977 415.539 143.519 415.642 142.95C415.754 142.381 415.81 141.676 415.81 140.836ZM424.461 138.288C424.256 137.252 423.617 136.734 422.543 136.734C421.713 136.734 421.092 137.056 420.681 137.7C420.271 138.335 420.07 139.385 420.079 140.85C420.294 140.365 420.649 139.987 421.143 139.716C421.647 139.436 422.207 139.296 422.823 139.296C423.785 139.296 424.55 139.595 425.119 140.192C425.698 140.789 425.987 141.615 425.987 142.67C425.987 143.305 425.861 143.874 425.609 144.378C425.367 144.882 424.993 145.283 424.489 145.582C423.995 145.881 423.393 146.03 422.683 146.03C421.722 146.03 420.971 145.815 420.429 145.386C419.888 144.957 419.51 144.364 419.295 143.608C419.081 142.852 418.973 141.919 418.973 140.808C418.973 137.383 420.168 135.67 422.557 135.67C423.472 135.67 424.191 135.917 424.713 136.412C425.236 136.907 425.544 137.532 425.637 138.288H424.461ZM422.557 140.374C422.156 140.374 421.778 140.458 421.423 140.626C421.069 140.785 420.779 141.032 420.555 141.368C420.341 141.695 420.233 142.096 420.233 142.572C420.233 143.281 420.439 143.86 420.849 144.308C421.26 144.747 421.848 144.966 422.613 144.966C423.267 144.966 423.785 144.765 424.167 144.364C424.559 143.953 424.755 143.403 424.755 142.712C424.755 141.984 424.569 141.415 424.195 141.004C423.822 140.584 423.276 140.374 422.557 140.374Z" fill="#2B3674"/>
<rect x="378.5" y="129.502" width="56" height="24" rx="3.5" stroke="#DADEE7"/>
<rect x="617" y="150.002" width="19" height="17" rx="4" fill="#DADEE7"/>
<path d="M628.45 162.002L627.59 159.792H624.76L623.91 162.002H623L625.79 154.832H626.6L629.38 162.002H628.45ZM626.52 156.832C626.5 156.779 626.467 156.682 626.42 156.542C626.373 156.402 626.327 156.259 626.28 156.112C626.24 155.959 626.207 155.842 626.18 155.762C626.147 155.895 626.11 156.032 626.07 156.172C626.037 156.305 626 156.429 625.96 156.542C625.927 156.655 625.897 156.752 625.87 156.832L625.06 158.992H627.32L626.52 156.832Z" fill="#2B3674"/>
<rect x="320" y="150.002" width="19" height="17" rx="4" fill="#DADEE7"/>
<path d="M331.45 162.002L330.59 159.792H327.76L326.91 162.002H326L328.79 154.832H329.6L332.38 162.002H331.45ZM329.52 156.832C329.5 156.779 329.467 156.682 329.42 156.542C329.373 156.402 329.327 156.259 329.28 156.112C329.24 155.959 329.207 155.842 329.18 155.762C329.147 155.895 329.11 156.032 329.07 156.172C329.037 156.305 329 156.429 328.96 156.542C328.927 156.655 328.897 156.752 328.87 156.832L328.06 158.992H330.32L329.52 156.832Z" fill="#2B3674"/>
<rect x="768" y="150.002" width="19" height="17" rx="4" fill="#DADEE7"/>
<path d="M774.97 162.002V154.862H779.21V155.652H775.87V157.882H776.93C777.643 157.882 778.197 157.972 778.59 158.152C778.983 158.325 779.257 158.565 779.41 158.872C779.563 159.172 779.64 159.519 779.64 159.912C779.64 160.345 779.553 160.719 779.38 161.032C779.213 161.345 778.94 161.585 778.56 161.752C778.18 161.919 777.68 162.002 777.06 162.002H774.97ZM776.97 161.232C777.61 161.232 778.06 161.125 778.32 160.912C778.58 160.692 778.71 160.359 778.71 159.912C778.71 159.605 778.647 159.362 778.52 159.182C778.4 158.995 778.2 158.862 777.92 158.782C777.647 158.702 777.28 158.662 776.82 158.662H775.87V161.232H776.97Z" fill="#2B3674"/>
<rect x="471" y="150.002" width="19" height="17" rx="4" fill="#DADEE7"/>
<path d="M477.97 162.002V154.862H482.21V155.652H478.87V157.882H479.93C480.643 157.882 481.197 157.972 481.59 158.152C481.983 158.325 482.257 158.565 482.41 158.872C482.563 159.172 482.64 159.519 482.64 159.912C482.64 160.345 482.553 160.719 482.38 161.032C482.213 161.345 481.94 161.585 481.56 161.752C481.18 161.919 480.68 162.002 480.06 162.002H477.97ZM479.97 161.232C480.61 161.232 481.06 161.125 481.32 160.912C481.58 160.692 481.71 160.359 481.71 159.912C481.71 159.605 481.647 159.362 481.52 159.182C481.4 158.995 481.2 158.862 480.92 158.782C480.647 158.702 480.28 158.662 479.82 158.662H478.87V161.232H479.97Z" fill="#2B3674"/>
<rect x="701" y="173.002" width="2" height="43" rx="1" fill="#B0BBD5"/>
<rect x="945" y="173" width="2" height="43" rx="1" fill="#B0BBD5"/>
<rect x="1137" y="173" width="2" height="43" rx="1" fill="#B0BBD5"/>
<rect x="404" y="173" width="2" height="43" rx="1" fill="#B0BBD5"/>
</svg>
