<svg width="1250" height="215" viewBox="0 0 1250 215" fill="none" xmlns="http://www.w3.org/2000/svg">
<rect y="-0.000976562" width="1250" height="215" rx="20" fill="white"/>
<path d="M9.00006 162C9.00006 159.791 10.7909 158 13.0001 158H163C165.209 158 167 159.791 167 162V202C167 204.209 165.209 206 163 206H23.0001C15.2681 206 9.00006 199.732 9.00006 192V162Z" fill="#DADEE7"/>
<path d="M77.6762 168.15C75.1807 168.15 73.1505 170.819 73.1505 174.099C73.1505 176.685 74.4098 178.952 76.2505 179.748L75.8387 194.962C75.8324 195.207 75.8753 195.451 75.9648 195.679C76.0543 195.908 76.1886 196.116 76.3599 196.292C76.5311 196.467 76.7358 196.607 76.9618 196.702C77.1879 196.798 77.4308 196.847 77.6761 196.847C77.9214 196.847 78.1643 196.798 78.3903 196.702C78.6164 196.607 78.8211 196.467 78.9923 196.292C79.1635 196.116 79.2979 195.908 79.3874 195.679C79.4769 195.451 79.5197 195.207 79.5134 194.962L79.1017 179.748C80.9423 178.952 82.2017 176.685 82.2017 174.099C82.2022 170.819 80.172 168.15 77.6762 168.15ZM78.535 179.058C78.4488 179.087 78.3741 179.143 78.3221 179.218C78.2701 179.292 78.2436 179.382 78.2463 179.473L78.6665 194.986C78.6701 195.118 78.6471 195.25 78.599 195.373C78.5508 195.496 78.4785 195.609 78.3862 195.703C78.2939 195.798 78.1835 195.874 78.0616 195.925C77.9397 195.977 77.8087 196.003 77.6763 196.003C77.544 196.003 77.413 195.977 77.2911 195.925C77.1692 195.874 77.0588 195.798 76.9665 195.703C76.8742 195.609 76.8018 195.496 76.7537 195.373C76.7055 195.25 76.6826 195.118 76.6861 194.986L77.1063 179.473C77.1088 179.382 77.0821 179.293 77.0302 179.218C76.9782 179.144 76.9037 179.088 76.8177 179.059C75.1575 178.501 73.9981 176.462 73.9981 174.099C73.9981 171.287 75.6481 168.998 77.6762 168.998C79.7043 168.998 81.3546 171.287 81.3546 174.099C81.3546 176.462 80.1952 178.501 78.535 179.058ZM88.548 168.166C88.2787 168.118 88.0011 168.169 87.7663 168.31C87.5316 168.45 87.3555 168.671 87.2705 168.931C86.0624 172.471 84.5895 178.298 84.4315 185.958C84.43 186.035 84.4497 186.112 84.4885 186.179C84.5273 186.246 84.5837 186.301 84.6517 186.338L86.3332 187.26L85.8418 194.896C85.8258 195.142 85.8594 195.388 85.9406 195.62C86.0217 195.853 86.1488 196.067 86.3142 196.249C86.4797 196.431 86.6801 196.578 86.9036 196.682C87.127 196.785 87.369 196.842 87.6151 196.85C87.8611 196.858 88.1063 196.816 88.3359 196.728C88.5655 196.639 88.775 196.505 88.9518 196.333C89.1286 196.162 89.2691 195.957 89.365 195.73C89.4609 195.503 89.5102 195.26 89.51 195.014V169.302C89.5136 169.028 89.4183 168.763 89.2415 168.554C89.0647 168.345 88.8184 168.208 88.548 168.166ZM88.6626 195.014C88.6622 195.276 88.558 195.527 88.3727 195.712C88.1874 195.897 87.9362 196.002 87.6742 196.002C87.5391 196.002 87.4054 195.974 87.2814 195.92C87.1574 195.867 87.0457 195.788 86.9533 195.69C86.8609 195.591 86.7897 195.475 86.744 195.347C86.6984 195.22 86.6793 195.085 86.688 194.95L87.1966 187.046C87.2018 186.965 87.184 186.885 87.1451 186.814C87.1063 186.744 87.0481 186.685 86.9774 186.647L85.2853 185.719C85.4676 178.294 86.898 172.648 88.0728 169.205C88.0957 169.137 88.1421 169.079 88.2037 169.042C88.2652 169.005 88.338 168.991 88.4089 169.002C88.4798 169.014 88.5443 169.051 88.5908 169.105C88.6372 169.16 88.6627 169.23 88.6626 169.302V195.014ZM101.426 168.15C101.37 168.15 101.315 168.161 101.264 168.183C101.212 168.204 101.165 168.235 101.126 168.274C101.087 168.314 101.056 168.361 101.034 168.412C101.013 168.463 101.002 168.519 101.002 168.574V175.523C101.003 176.343 100.729 177.14 100.225 177.787C99.7199 178.433 99.013 178.892 98.2169 179.09C98.1232 179.114 98.0403 179.168 97.982 179.245C97.9236 179.322 97.8933 179.417 97.896 179.513L98.3149 194.984C98.3191 195.117 98.2965 195.249 98.2486 195.373C98.2007 195.497 98.1284 195.61 98.036 195.705C97.9435 195.8 97.8329 195.876 97.7106 195.928C97.5884 195.98 97.4569 196.007 97.3242 196.007C97.1914 196.007 97.0599 195.98 96.9377 195.928C96.8154 195.876 96.7048 195.8 96.6123 195.705C96.5199 195.61 96.4476 195.497 96.3997 195.373C96.3518 195.249 96.3292 195.117 96.3334 194.984L96.7523 179.513C96.7551 179.417 96.7247 179.322 96.6664 179.245C96.608 179.168 96.5251 179.114 96.4315 179.09C95.635 178.893 94.9277 178.434 94.4225 177.787C93.9173 177.141 93.6434 176.343 93.6444 175.523V168.574C93.6444 168.462 93.5997 168.354 93.5202 168.275C93.4407 168.195 93.3329 168.15 93.2205 168.15C93.1081 168.15 93.0003 168.195 92.9208 168.275C92.8414 168.354 92.7967 168.462 92.7967 168.574V175.523C92.7955 176.473 93.0943 177.4 93.6507 178.172C94.207 178.943 94.9925 179.519 95.8952 179.817L95.4852 194.961C95.4783 195.207 95.5207 195.451 95.61 195.68C95.6993 195.909 95.8335 196.118 96.0049 196.294C96.1762 196.471 96.3812 196.611 96.6076 196.706C96.8341 196.802 97.0774 196.851 97.3232 196.851C97.569 196.851 97.8123 196.802 98.0387 196.706C98.2652 196.611 98.4701 196.471 98.6415 196.294C98.8128 196.118 98.9471 195.909 99.0364 195.68C99.1256 195.451 99.1681 195.207 99.1611 194.961L98.7511 179.817C99.6539 179.519 100.439 178.943 100.996 178.172C101.552 177.4 101.851 176.473 101.85 175.523V168.574C101.85 168.519 101.839 168.463 101.817 168.412C101.796 168.361 101.765 168.314 101.726 168.274C101.686 168.235 101.64 168.204 101.588 168.183C101.537 168.161 101.482 168.15 101.426 168.15Z" fill="#2B3674"/>
<path d="M95.2719 175.699C95.3275 175.699 95.3826 175.688 95.4341 175.666C95.4855 175.645 95.5323 175.614 95.5716 175.575C95.611 175.535 95.6422 175.488 95.6635 175.437C95.6848 175.386 95.6957 175.33 95.6957 175.275V168.574C95.6957 168.462 95.651 168.354 95.5715 168.275C95.4921 168.195 95.3843 168.15 95.2719 168.15C95.1594 168.15 95.0516 168.195 94.9722 168.275C94.8927 168.354 94.848 168.462 94.848 168.574V175.275C94.848 175.33 94.8589 175.386 94.8802 175.437C94.9015 175.488 94.9327 175.535 94.9721 175.575C95.0115 175.614 95.0582 175.645 95.1096 175.666C95.1611 175.688 95.2162 175.699 95.2719 175.699ZM97.3229 175.699C97.4353 175.699 97.5431 175.654 97.6226 175.575C97.7021 175.495 97.7468 175.387 97.7468 175.275V168.574C97.7468 168.462 97.7021 168.354 97.6226 168.275C97.5431 168.195 97.4353 168.15 97.3229 168.15C97.2105 168.15 97.1027 168.195 97.0232 168.275C96.9438 168.354 96.8991 168.462 96.8991 168.574V175.275C96.8991 175.33 96.91 175.386 96.9313 175.437C96.9526 175.488 96.9838 175.535 97.0232 175.575C97.0625 175.614 97.1093 175.645 97.1607 175.666C97.2121 175.688 97.2673 175.699 97.3229 175.699ZM99.374 175.699C99.4297 175.699 99.4848 175.688 99.5363 175.666C99.5877 175.645 99.6344 175.614 99.6738 175.575C99.7131 175.535 99.7444 175.488 99.7657 175.437C99.7869 175.386 99.7979 175.33 99.7979 175.275V168.574C99.7979 168.462 99.7532 168.354 99.6737 168.275C99.5942 168.195 99.4864 168.15 99.374 168.15C99.2616 168.15 99.1538 168.195 99.0743 168.275C98.9948 168.354 98.9502 168.462 98.9502 168.574V175.275C98.9502 175.387 98.9948 175.495 99.0743 175.575C99.1538 175.654 99.2616 175.699 99.374 175.699Z" fill="#2B3674"/>
<path fill-rule="evenodd" clip-rule="evenodd" d="M1230 2.99902H20C10.6112 2.99902 3 10.6102 3 19.999V194.999C3 204.388 10.6111 211.999 20 211.999H1230C1239.39 211.999 1247 204.388 1247 194.999V19.999C1247 10.6102 1239.39 2.99902 1230 2.99902ZM20 -0.000976562C8.95431 -0.000976562 0 8.95333 0 19.999V194.999C0 206.045 8.95427 214.999 20 214.999H1230C1241.05 214.999 1250 206.045 1250 194.999V19.999C1250 8.95333 1241.05 -0.000976562 1230 -0.000976562H20Z" fill="#B0BBD5"/>
<path d="M699.594 28.2188H689.313C688.923 28.2188 688.549 28.3735 688.274 28.6489C687.999 28.9244 687.844 29.298 687.844 29.6875V37.0312H680.5C680.111 37.0312 679.737 37.186 679.461 37.4614C679.186 37.7369 679.031 38.1105 679.031 38.5V45.8438H671.688C671.298 45.8438 670.924 45.9985 670.649 46.2739C670.374 46.5494 670.219 46.923 670.219 47.3125V54.6562H661.406C661.017 54.6562 660.643 54.811 660.368 55.0864C660.092 55.3619 659.938 55.7355 659.938 56.125C659.938 56.5145 660.092 56.8881 660.368 57.1636C660.643 57.439 661.017 57.5938 661.406 57.5938H671.688C672.077 57.5938 672.451 57.439 672.726 57.1636C673.002 56.8881 673.156 56.5145 673.156 56.125V48.7812H680.5C680.89 48.7812 681.263 48.6265 681.539 48.3511C681.814 48.0756 681.969 47.702 681.969 47.3125V39.9688H689.313C689.702 39.9688 690.076 39.814 690.351 39.5386C690.627 39.2631 690.781 38.8895 690.781 38.5V31.1562H699.594C699.983 31.1562 700.357 31.0015 700.632 30.7261C700.908 30.4506 701.063 30.077 701.063 29.6875C701.063 29.298 700.908 28.9244 700.632 28.6489C700.357 28.3735 699.983 28.2188 699.594 28.2188ZM661.406 41.4375C661.6 41.4386 661.791 41.4016 661.97 41.3285C662.149 41.2554 662.312 41.1477 662.449 41.0116L679.031 24.4294V26.2506C679.031 26.6402 679.186 27.0137 679.461 27.2892C679.737 27.5646 680.111 27.7194 680.5 27.7194C680.89 27.7194 681.263 27.5646 681.539 27.2892C681.814 27.0137 681.969 26.6402 681.969 26.2506V20.875C681.969 20.4855 681.814 20.1119 681.539 19.8364C681.263 19.561 680.89 19.4062 680.5 19.4062H675.124C674.735 19.4062 674.361 19.561 674.086 19.8364C673.81 20.1119 673.656 20.4855 673.656 20.875C673.656 21.2645 673.81 21.6381 674.086 21.9136C674.361 22.189 674.735 22.3438 675.124 22.3438H676.946L660.363 38.9259C660.156 39.1314 660.015 39.3938 659.958 39.6799C659.9 39.9659 659.929 40.2626 660.041 40.532C660.153 40.8014 660.343 41.0314 660.586 41.1927C660.829 41.354 661.115 41.4392 661.406 41.4375Z" fill="#B0BBD5"/>
<rect x="288" y="43" width="2" height="43" rx="1" transform="rotate(-180 288 43)" fill="#B0BBD5"/>
<rect x="309.687" y="12.705" width="19.4444" height="30.2951" rx="4" fill="#DADEE7"/>
<mask id="path-9-inside-1_0_1633" fill="white">
<path d="M306.909 16C306.909 12.6863 309.596 10 312.909 10L325.909 10C329.223 10 331.909 12.6863 331.909 16L331.909 29.4754L306.909 29.4754L306.909 16Z"/>
</mask>
<path d="M304.909 16C304.909 11.5817 308.491 8 312.909 8L325.909 8C330.328 8 333.909 11.5817 333.909 16L329.909 16C329.909 13.7909 328.118 12 325.909 12L312.909 12C310.7 12 308.909 13.7909 308.909 16L304.909 16ZM331.909 29.4754L306.909 29.4754L331.909 29.4754ZM304.909 29.4754L304.909 16C304.909 11.5817 308.491 8 312.909 8L312.909 12C310.7 12 308.909 13.7909 308.909 16L308.909 29.4754L304.909 29.4754ZM325.909 8C330.328 8 333.909 11.5817 333.909 16L333.909 29.4754L329.909 29.4754L329.909 16C329.909 13.7909 328.118 12 325.909 12L325.909 8Z" fill="#DADEE7" mask="url(#path-9-inside-1_0_1633)"/>
<rect x="118.687" y="12.705" width="19.4444" height="30.2951" rx="4" fill="#DADEE7"/>
<mask id="path-12-inside-2_0_1633" fill="white">
<path d="M115.909 16C115.909 12.6863 118.596 10 121.909 10L134.909 10C138.223 10 140.909 12.6863 140.909 16L140.909 29.4754L115.909 29.4754L115.909 16Z"/>
</mask>
<path d="M113.909 16C113.909 11.5817 117.491 8 121.909 8L134.909 8C139.328 8 142.909 11.5817 142.909 16L138.909 16C138.909 13.7909 137.118 12 134.909 12L121.909 12C119.7 12 117.909 13.7909 117.909 16L113.909 16ZM140.909 29.4754L115.909 29.4754L140.909 29.4754ZM113.909 29.4754L113.909 16C113.909 11.5817 117.491 8 121.909 8L121.909 12C119.7 12 117.909 13.7909 117.909 16L117.909 29.4754L113.909 29.4754ZM134.909 8C139.328 8 142.909 11.5817 142.909 16L142.909 29.4754L138.909 29.4754L138.909 16C138.909 13.7909 137.118 12 134.909 12L134.909 8Z" fill="#DADEE7" mask="url(#path-12-inside-2_0_1633)"/>
<rect x="500.687" y="12.705" width="19.4444" height="30.2951" rx="4" fill="#DADEE7"/>
<mask id="path-15-inside-3_0_1633" fill="white">
<path d="M497.909 16C497.909 12.6863 500.596 10 503.909 10L516.909 10C520.223 10 522.909 12.6863 522.909 16L522.909 29.4754L497.909 29.4754L497.909 16Z"/>
</mask>
<path d="M495.909 16C495.909 11.5817 499.491 8 503.909 8L516.909 8C521.328 8 524.909 11.5817 524.909 16L520.909 16C520.909 13.7909 519.118 12 516.909 12L503.909 12C501.7 12 499.909 13.7909 499.909 16L495.909 16ZM522.909 29.4754L497.909 29.4754L522.909 29.4754ZM495.909 29.4754L495.909 16C495.909 11.5817 499.491 8 503.909 8L503.909 12C501.7 12 499.909 13.7909 499.909 16L499.909 29.4754L495.909 29.4754ZM516.909 8C521.328 8 524.909 11.5817 524.909 16L524.909 29.4754L520.909 29.4754L520.909 16C520.909 13.7909 519.118 12 516.909 12L516.909 8Z" fill="#DADEE7" mask="url(#path-15-inside-3_0_1633)"/>
<rect x="212.773" y="12.705" width="19.4444" height="30.2951" rx="4" fill="#DADEE7"/>
<mask id="path-18-inside-4_0_1633" fill="white">
<path d="M209.996 16C209.996 12.6863 212.682 10 215.996 10L228.996 10C232.309 10 234.996 12.6863 234.996 16L234.996 29.4754L209.996 29.4754L209.996 16Z"/>
</mask>
<path d="M207.996 16C207.996 11.5817 211.577 8 215.996 8L228.996 8C233.414 8 236.996 11.5817 236.996 16L232.996 16C232.996 13.7909 231.205 12 228.996 12L215.996 12C213.787 12 211.996 13.7909 211.996 16L207.996 16ZM234.996 29.4754L209.996 29.4754L234.996 29.4754ZM207.996 29.4754L207.996 16C207.996 11.5817 211.577 8 215.996 8L215.996 12C213.787 12 211.996 13.7909 211.996 16L211.996 29.4754L207.996 29.4754ZM228.996 8C233.414 8 236.996 11.5817 236.996 16L236.996 29.4754L232.996 29.4754L232.996 16C232.996 13.7909 231.205 12 228.996 12L228.996 8Z" fill="#DADEE7" mask="url(#path-18-inside-4_0_1633)"/>
<rect x="21.7735" y="12.705" width="19.4444" height="30.2951" rx="4" fill="#DADEE7"/>
<mask id="path-21-inside-5_0_1633" fill="white">
<path d="M18.9957 16C18.9957 12.6863 21.682 10 24.9957 10L37.9957 10C41.3094 10 43.9957 12.6863 43.9957 16L43.9957 29.4754L18.9957 29.4754L18.9957 16Z"/>
</mask>
<path d="M16.9957 16C16.9957 11.5817 20.5774 8 24.9957 8L37.9957 8C42.414 8 45.9957 11.5817 45.9957 16L41.9957 16C41.9957 13.7909 40.2048 12 37.9957 12L24.9957 12C22.7865 12 20.9957 13.7909 20.9957 16L16.9957 16ZM43.9957 29.4754L18.9957 29.4754L43.9957 29.4754ZM16.9957 29.4754L16.9957 16C16.9957 11.5817 20.5774 8 24.9957 8L24.9957 12C22.7865 12 20.9957 13.7909 20.9957 16L20.9957 29.4754L16.9957 29.4754ZM37.9957 8C42.414 8 45.9957 11.5817 45.9957 16L45.9957 29.4754L41.9957 29.4754L41.9957 16C41.9957 13.7909 40.2048 12 37.9957 12L37.9957 8Z" fill="#DADEE7" mask="url(#path-21-inside-5_0_1633)"/>
<rect x="403.773" y="12.705" width="19.4444" height="30.2951" rx="4" fill="#DADEE7"/>
<mask id="path-24-inside-6_0_1633" fill="white">
<path d="M400.996 16C400.996 12.6863 403.682 10 406.996 10L419.996 10C423.309 10 425.996 12.6863 425.996 16L425.996 29.4754L400.996 29.4754L400.996 16Z"/>
</mask>
<path d="M398.996 16C398.996 11.5817 402.577 8 406.996 8L419.996 8C424.414 8 427.996 11.5817 427.996 16L423.996 16C423.996 13.7909 422.205 12 419.996 12L406.996 12C404.787 12 402.996 13.7909 402.996 16L398.996 16ZM425.996 29.4754L400.996 29.4754L425.996 29.4754ZM398.996 29.4754L398.996 16C398.996 11.5817 402.577 8 406.996 8L406.996 12C404.787 12 402.996 13.7909 402.996 16L402.996 29.4754L398.996 29.4754ZM419.996 8C424.414 8 427.996 11.5817 427.996 16L427.996 29.4754L423.996 29.4754L423.996 16C423.996 13.7909 422.205 12 419.996 12L419.996 8Z" fill="#DADEE7" mask="url(#path-24-inside-6_0_1633)"/>
<rect x="341.155" y="12.705" width="19.4444" height="30.2951" rx="4" fill="#DADEE7"/>
<mask id="path-27-inside-7_0_1633" fill="white">
<path d="M338.377 16C338.377 12.6863 341.063 10 344.377 10L357.377 10C360.691 10 363.377 12.6863 363.377 16L363.377 29.4754L338.377 29.4754L338.377 16Z"/>
</mask>
<path d="M336.377 16C336.377 11.5817 339.959 8 344.377 8L357.377 8C361.795 8 365.377 11.5817 365.377 16L361.377 16C361.377 13.7909 359.586 12 357.377 12L344.377 12C342.168 12 340.377 13.7909 340.377 16L336.377 16ZM363.377 29.4754L338.377 29.4754L363.377 29.4754ZM336.377 29.4754L336.377 16C336.377 11.5817 339.959 8 344.377 8L344.377 12C342.168 12 340.377 13.7909 340.377 16L340.377 29.4754L336.377 29.4754ZM357.377 8C361.795 8 365.377 11.5817 365.377 16L365.377 29.4754L361.377 29.4754L361.377 16C361.377 13.7909 359.586 12 357.377 12L357.377 8Z" fill="#DADEE7" mask="url(#path-27-inside-7_0_1633)"/>
<rect x="150.155" y="12.705" width="19.4444" height="30.2951" rx="4" fill="#DADEE7"/>
<mask id="path-30-inside-8_0_1633" fill="white">
<path d="M147.377 16C147.377 12.6863 150.063 10 153.377 10L166.377 10C169.691 10 172.377 12.6863 172.377 16L172.377 29.4754L147.377 29.4754L147.377 16Z"/>
</mask>
<path d="M145.377 16C145.377 11.5817 148.959 8 153.377 8L166.377 8C170.795 8 174.377 11.5817 174.377 16L170.377 16C170.377 13.7909 168.586 12 166.377 12L153.377 12C151.168 12 149.377 13.7909 149.377 16L145.377 16ZM172.377 29.4754L147.377 29.4754L172.377 29.4754ZM145.377 29.4754L145.377 16C145.377 11.5817 148.959 8 153.377 8L153.377 12C151.168 12 149.377 13.7909 149.377 16L149.377 29.4754L145.377 29.4754ZM166.377 8C170.795 8 174.377 11.5817 174.377 16L174.377 29.4754L170.377 29.4754L170.377 16C170.377 13.7909 168.586 12 166.377 12L166.377 8Z" fill="#DADEE7" mask="url(#path-30-inside-8_0_1633)"/>
<rect x="532.155" y="12.705" width="19.4444" height="30.2951" rx="4" fill="#DADEE7"/>
<mask id="path-33-inside-9_0_1633" fill="white">
<path d="M529.378 16C529.378 12.6863 532.064 10 535.378 10L548.378 10C551.691 10 554.378 12.6863 554.378 16L554.377 29.4754L529.377 29.4754L529.378 16Z"/>
</mask>
<path d="M527.378 16C527.378 11.5817 530.959 8 535.378 8L548.378 8C552.796 8 556.378 11.5817 556.378 16L552.378 16C552.378 13.7909 550.587 12 548.378 12L535.378 12C533.168 12 531.378 13.7909 531.378 16L527.378 16ZM554.377 29.4754L529.377 29.4754L554.377 29.4754ZM527.377 29.4754L527.378 16C527.378 11.5817 530.959 8 535.378 8L535.378 12C533.168 12 531.378 13.7909 531.378 16L531.377 29.4754L527.377 29.4754ZM548.378 8C552.796 8 556.378 11.5817 556.378 16L556.377 29.4754L552.377 29.4754L552.378 16C552.378 13.7909 550.587 12 548.378 12L548.378 8Z" fill="#DADEE7" mask="url(#path-33-inside-9_0_1633)"/>
<rect x="244.241" y="12.705" width="19.4444" height="30.295" rx="4" fill="#DADEE7"/>
<mask id="path-36-inside-10_0_1633" fill="white">
<path d="M241.464 16C241.464 12.6863 244.15 10 247.464 10L260.464 10C263.777 10 266.464 12.6863 266.464 16L266.464 29.4754L241.464 29.4754L241.464 16Z"/>
</mask>
<path d="M239.464 16C239.464 11.5817 243.045 8 247.464 8L260.464 8C264.882 8 268.464 11.5817 268.464 16L264.464 16C264.464 13.7909 262.673 12 260.464 12L247.464 12C245.254 12 243.464 13.7909 243.464 16L239.464 16ZM266.464 29.4754L241.464 29.4754L266.464 29.4754ZM239.464 29.4754L239.464 16C239.464 11.5817 243.045 8 247.464 8L247.464 12C245.254 12 243.464 13.7909 243.464 16L243.464 29.4754L239.464 29.4754ZM260.464 8C264.882 8 268.464 11.5817 268.464 16L268.464 29.4754L264.464 29.4754L264.464 16C264.464 13.7909 262.673 12 260.464 12L260.464 8Z" fill="#DADEE7" mask="url(#path-36-inside-10_0_1633)"/>
<rect x="53.2414" y="12.705" width="19.4444" height="30.295" rx="4" fill="#DADEE7"/>
<mask id="path-39-inside-11_0_1633" fill="white">
<path d="M50.4636 16C50.4636 12.6863 53.1499 10 56.4636 10L69.4636 10C72.7773 10 75.4636 12.6863 75.4636 16L75.4636 29.4754L50.4636 29.4754L50.4636 16Z"/>
</mask>
<path d="M48.4636 16C48.4636 11.5817 52.0453 8 56.4636 8L69.4636 8C73.8819 8 77.4636 11.5817 77.4636 16L73.4636 16C73.4636 13.7909 71.6727 12 69.4636 12L56.4636 12C54.2544 12 52.4636 13.7909 52.4636 16L48.4636 16ZM75.4636 29.4754L50.4636 29.4754L75.4636 29.4754ZM48.4636 29.4754L48.4636 16C48.4636 11.5817 52.0453 8 56.4636 8L56.4636 12C54.2544 12 52.4636 13.7909 52.4636 16L52.4636 29.4754L48.4636 29.4754ZM69.4636 8C73.8819 8 77.4636 11.5817 77.4636 16L77.4636 29.4754L73.4636 29.4754L73.4636 16C73.4636 13.7909 71.6727 12 69.4636 12L69.4636 8Z" fill="#DADEE7" mask="url(#path-39-inside-11_0_1633)"/>
<rect x="435.241" y="12.705" width="19.4444" height="30.295" rx="4" fill="#DADEE7"/>
<mask id="path-42-inside-12_0_1633" fill="white">
<path d="M432.464 16C432.464 12.6863 435.15 10 438.464 10L451.464 10C454.777 10 457.464 12.6863 457.464 16L457.464 29.4754L432.464 29.4754L432.464 16Z"/>
</mask>
<path d="M430.464 16C430.464 11.5817 434.045 8 438.464 8L451.464 8C455.882 8 459.464 11.5817 459.464 16L455.464 16C455.464 13.7909 453.673 12 451.464 12L438.464 12C436.254 12 434.464 13.7909 434.464 16L430.464 16ZM457.464 29.4754L432.464 29.4754L457.464 29.4754ZM430.464 29.4754L430.464 16C430.464 11.5817 434.045 8 438.464 8L438.464 12C436.254 12 434.464 13.7909 434.464 16L434.464 29.4754L430.464 29.4754ZM451.464 8C455.882 8 459.464 11.5817 459.464 16L459.464 29.4754L455.464 29.4754L455.464 16C455.464 13.7909 453.673 12 451.464 12L451.464 8Z" fill="#DADEE7" mask="url(#path-42-inside-12_0_1633)"/>
<rect x="326" y="49" width="19" height="17" rx="4" fill="#DADEE7"/>
<path d="M337.45 61L336.59 58.79H333.76L332.91 61H332L334.79 53.83H335.6L338.38 61H337.45ZM335.52 55.83C335.5 55.7767 335.467 55.68 335.42 55.54C335.373 55.4 335.327 55.2567 335.28 55.11C335.24 54.9567 335.207 54.84 335.18 54.76C335.147 54.8933 335.11 55.03 335.07 55.17C335.037 55.3033 335 55.4267 334.96 55.54C334.927 55.6533 334.897 55.75 334.87 55.83L334.06 57.99H336.32L335.52 55.83Z" fill="#2B3674"/>
<rect x="135" y="49" width="19" height="17" rx="4" fill="#DADEE7"/>
<path d="M146.45 61L145.59 58.79H142.76L141.91 61H141L143.79 53.83H144.6L147.38 61H146.45ZM144.52 55.83C144.5 55.7767 144.467 55.68 144.42 55.54C144.373 55.4 144.327 55.2567 144.28 55.11C144.24 54.9567 144.207 54.84 144.18 54.76C144.147 54.8933 144.11 55.03 144.07 55.17C144.037 55.3033 144 55.4267 143.96 55.54C143.927 55.6533 143.897 55.75 143.87 55.83L143.06 57.99H145.32L144.52 55.83Z" fill="#2B3674"/>
<rect x="517" y="49" width="19" height="17" rx="4" fill="#DADEE7"/>
<path d="M528.45 61L527.59 58.79H524.76L523.91 61H523L525.79 53.83H526.6L529.38 61H528.45ZM526.52 55.83C526.5 55.7767 526.467 55.68 526.42 55.54C526.373 55.4 526.327 55.2567 526.28 55.11C526.24 54.9567 526.207 54.84 526.18 54.76C526.147 54.8933 526.11 55.03 526.07 55.17C526.037 55.3033 526 55.4267 525.96 55.54C525.927 55.6533 525.897 55.75 525.87 55.83L525.06 57.99H527.32L526.52 55.83Z" fill="#2B3674"/>
<rect x="228" y="49" width="19" height="17" rx="4" fill="#DADEE7"/>
<path d="M234.97 61V53.86H239.21V54.65H235.87V56.88H236.93C237.643 56.88 238.197 56.97 238.59 57.15C238.983 57.3233 239.257 57.5633 239.41 57.87C239.563 58.17 239.64 58.5167 239.64 58.91C239.64 59.3433 239.553 59.7167 239.38 60.03C239.213 60.3433 238.94 60.5833 238.56 60.75C238.18 60.9167 237.68 61 237.06 61H234.97ZM236.97 60.23C237.61 60.23 238.06 60.1233 238.32 59.91C238.58 59.69 238.71 59.3567 238.71 58.91C238.71 58.6033 238.647 58.36 238.52 58.18C238.4 57.9933 238.2 57.86 237.92 57.78C237.647 57.7 237.28 57.66 236.82 57.66H235.87V60.23H236.97Z" fill="#2B3674"/>
<rect x="37.0001" y="49" width="19" height="17" rx="4" fill="#DADEE7"/>
<path d="M43.9701 61V53.86H48.2101V54.65H44.8701V56.88H45.9301C46.6434 56.88 47.1967 56.97 47.5901 57.15C47.9834 57.3233 48.2567 57.5633 48.4101 57.87C48.5634 58.17 48.6401 58.5167 48.6401 58.91C48.6401 59.3433 48.5534 59.7167 48.3801 60.03C48.2134 60.3433 47.9401 60.5833 47.5601 60.75C47.1801 60.9167 46.6801 61 46.0601 61H43.9701ZM45.9701 60.23C46.6101 60.23 47.0601 60.1233 47.3201 59.91C47.5801 59.69 47.7101 59.3567 47.7101 58.91C47.7101 58.6033 47.6467 58.36 47.5201 58.18C47.4001 57.9933 47.2001 57.86 46.9201 57.78C46.6467 57.7 46.2801 57.66 45.8201 57.66H44.8701V60.23H45.9701Z" fill="#2B3674"/>
<rect x="419" y="49" width="19" height="17" rx="4" fill="#DADEE7"/>
<path d="M425.97 61V53.86H430.21V54.65H426.87V56.88H427.93C428.643 56.88 429.197 56.97 429.59 57.15C429.983 57.3233 430.257 57.5633 430.41 57.87C430.563 58.17 430.64 58.5167 430.64 58.91C430.64 59.3433 430.553 59.7167 430.38 60.03C430.213 60.3433 429.94 60.5833 429.56 60.75C429.18 60.9167 428.68 61 428.06 61H425.97ZM427.97 60.23C428.61 60.23 429.06 60.1233 429.32 59.91C429.58 59.69 429.71 59.3567 429.71 58.91C429.71 58.6033 429.647 58.36 429.52 58.18C429.4 57.9933 429.2 57.86 428.92 57.78C428.647 57.7 428.28 57.66 427.82 57.66H426.87V60.23H427.97Z" fill="#2B3674"/>
<rect x="260" y="62" width="57" height="25" rx="4" fill="#DADEE7"/>
<path d="M269.33 79V69.004H270.744L275.294 77.236H275.35C275.341 76.9933 275.327 76.7133 275.308 76.396C275.289 76.0787 275.275 75.7613 275.266 75.444C275.257 75.1173 275.252 74.8373 275.252 74.604V69.004H276.358V79H274.986L270.38 70.74H270.324C270.343 70.9827 270.357 71.272 270.366 71.608C270.385 71.9347 270.399 72.2613 270.408 72.588C270.427 72.9147 270.436 73.204 270.436 73.456V79H269.33ZM277.688 79V78.034H281.286V79H277.688ZM279.48 77.124C279.079 77.124 278.719 77.0353 278.402 76.858C278.094 76.6713 277.851 76.4007 277.674 76.046C277.497 75.6913 277.408 75.2573 277.408 74.744C277.408 73.9787 277.595 73.3953 277.968 72.994C278.351 72.5833 278.869 72.378 279.522 72.378C279.923 72.378 280.278 72.4713 280.586 72.658C280.903 72.8353 281.151 73.1013 281.328 73.456C281.515 73.8013 281.608 74.2307 281.608 74.744C281.608 75.5093 281.417 76.0973 281.034 76.508C280.651 76.9187 280.133 77.124 279.48 77.124ZM279.508 76.312C279.919 76.312 280.213 76.1813 280.39 75.92C280.567 75.6493 280.656 75.2573 280.656 74.744C280.656 74.2213 280.567 73.8387 280.39 73.596C280.213 73.344 279.919 73.218 279.508 73.218C279.107 73.218 278.813 73.344 278.626 73.596C278.439 73.8387 278.346 74.2213 278.346 74.744C278.346 75.2573 278.435 75.6493 278.612 75.92C278.799 76.1813 279.097 76.312 279.508 76.312ZM283.113 71.426C283.179 70.5673 283.51 69.8953 284.107 69.41C284.705 68.9247 285.479 68.682 286.431 68.682C287.066 68.682 287.612 68.7987 288.069 69.032C288.536 69.256 288.886 69.564 289.119 69.956C289.362 70.348 289.483 70.7913 289.483 71.286C289.483 71.8647 289.315 72.364 288.979 72.784C288.653 73.204 288.223 73.4747 287.691 73.596V73.666C288.298 73.8153 288.779 74.1093 289.133 74.548C289.488 74.9867 289.665 75.5607 289.665 76.27C289.665 76.802 289.544 77.2827 289.301 77.712C289.059 78.132 288.695 78.4633 288.209 78.706C287.724 78.9487 287.141 79.07 286.459 79.07C285.47 79.07 284.658 78.8133 284.023 78.3C283.389 77.7773 283.034 77.04 282.959 76.088H284.191C284.257 76.648 284.485 77.1053 284.877 77.46C285.269 77.8147 285.792 77.992 286.445 77.992C287.099 77.992 287.593 77.824 287.929 77.488C288.275 77.1427 288.447 76.6993 288.447 76.158C288.447 75.458 288.214 74.954 287.747 74.646C287.281 74.338 286.576 74.184 285.633 74.184H285.311V73.12H285.647C286.506 73.1107 287.155 72.9707 287.593 72.7C288.032 72.42 288.251 71.9907 288.251 71.412C288.251 70.9173 288.088 70.5207 287.761 70.222C287.444 69.9233 286.987 69.774 286.389 69.774C285.811 69.774 285.344 69.9233 284.989 70.222C284.635 70.5207 284.425 70.922 284.359 71.426H283.113ZM291.386 73.834C291.386 72.2287 291.647 70.978 292.17 70.082C292.692 69.1767 293.607 68.724 294.914 68.724C296.211 68.724 297.121 69.1767 297.644 70.082C298.166 70.978 298.428 72.2287 298.428 73.834C298.428 75.4673 298.166 76.7367 297.644 77.642C297.121 78.5473 296.211 79 294.914 79C293.607 79 292.692 78.5473 292.17 77.642C291.647 76.7367 291.386 75.4673 291.386 73.834ZM297.168 73.834C297.168 73.022 297.112 72.336 297 71.776C296.897 71.2067 296.678 70.7493 296.342 70.404C296.015 70.0587 295.539 69.886 294.914 69.886C294.279 69.886 293.794 70.0587 293.458 70.404C293.131 70.7493 292.912 71.2067 292.8 71.776C292.697 72.336 292.646 73.022 292.646 73.834C292.646 74.674 292.697 75.3787 292.8 75.948C292.912 76.5173 293.131 76.9747 293.458 77.32C293.794 77.6653 294.279 77.838 294.914 77.838C295.539 77.838 296.015 77.6653 296.342 77.32C296.678 76.9747 296.897 76.5173 297 75.948C297.112 75.3787 297.168 74.674 297.168 73.834ZM302.025 73.736C301.502 73.5307 301.101 73.232 300.821 72.84C300.541 72.448 300.401 71.972 300.401 71.412C300.401 70.908 300.527 70.4553 300.779 70.054C301.031 69.6433 301.404 69.3213 301.899 69.088C302.403 68.8453 303.009 68.724 303.719 68.724C304.428 68.724 305.03 68.8453 305.525 69.088C306.029 69.3213 306.407 69.6433 306.659 70.054C306.92 70.4553 307.051 70.908 307.051 71.412C307.051 71.9533 306.906 72.4293 306.617 72.84C306.327 73.2413 305.931 73.54 305.427 73.736C306.005 73.9133 306.463 74.226 306.799 74.674C307.144 75.1127 307.317 75.6447 307.317 76.27C307.317 76.8767 307.167 77.4087 306.869 77.866C306.57 78.314 306.145 78.664 305.595 78.916C305.053 79.1587 304.428 79.28 303.719 79.28C303.009 79.28 302.384 79.1587 301.843 78.916C301.311 78.664 300.895 78.314 300.597 77.866C300.298 77.4087 300.149 76.8767 300.149 76.27C300.149 75.6447 300.317 75.108 300.653 74.66C300.989 74.212 301.446 73.904 302.025 73.736ZM305.819 71.566C305.819 70.9967 305.632 70.558 305.259 70.25C304.885 69.942 304.372 69.788 303.719 69.788C303.075 69.788 302.566 69.942 302.193 70.25C301.819 70.558 301.633 71.0013 301.633 71.58C301.633 72.1027 301.824 72.5227 302.207 72.84C302.599 73.1573 303.103 73.316 303.719 73.316C304.344 73.316 304.848 73.1573 305.231 72.84C305.623 72.5133 305.819 72.0887 305.819 71.566ZM303.719 74.296C303.028 74.296 302.463 74.4593 302.025 74.786C301.586 75.1033 301.367 75.584 301.367 76.228C301.367 76.8253 301.577 77.306 301.997 77.67C302.426 78.034 303 78.216 303.719 78.216C304.437 78.216 305.007 78.034 305.427 77.67C305.847 77.306 306.057 76.8253 306.057 76.228C306.057 75.6027 305.842 75.1267 305.413 74.8C304.983 74.464 304.419 74.296 303.719 74.296Z" fill="#2B3674"/>
<rect x="69.0001" y="62" width="55" height="25" rx="4" fill="#DADEE7"/>
<path d="M78.3301 79V69.004H79.7441L84.2941 77.236H84.3501C84.3407 76.9933 84.3267 76.7133 84.3081 76.396C84.2894 76.0787 84.2754 75.7613 84.2661 75.444C84.2567 75.1173 84.2521 74.8373 84.2521 74.604V69.004H85.3581V79H83.9861L79.3801 70.74H79.3241C79.3427 70.9827 79.3567 71.272 79.3661 71.608C79.3847 71.9347 79.3987 72.2613 79.4081 72.588C79.4267 72.9147 79.4361 73.204 79.4361 73.456V79H78.3301ZM86.6881 79V78.034H90.2861V79H86.6881ZM88.4801 77.124C88.0787 77.124 87.7194 77.0353 87.4021 76.858C87.0941 76.6713 86.8514 76.4007 86.6741 76.046C86.4967 75.6913 86.4081 75.2573 86.4081 74.744C86.4081 73.9787 86.5947 73.3953 86.9681 72.994C87.3507 72.5833 87.8687 72.378 88.5221 72.378C88.9234 72.378 89.2781 72.4713 89.5861 72.658C89.9034 72.8353 90.1507 73.1013 90.3281 73.456C90.5147 73.8013 90.6081 74.2307 90.6081 74.744C90.6081 75.5093 90.4167 76.0973 90.0341 76.508C89.6514 76.9187 89.1334 77.124 88.4801 77.124ZM88.5081 76.312C88.9187 76.312 89.2127 76.1813 89.3901 75.92C89.5674 75.6493 89.6561 75.2573 89.6561 74.744C89.6561 74.2213 89.5674 73.8387 89.3901 73.596C89.2127 73.344 88.9187 73.218 88.5081 73.218C88.1067 73.218 87.8127 73.344 87.6261 73.596C87.4394 73.8387 87.3461 74.2213 87.3461 74.744C87.3461 75.2573 87.4347 75.6493 87.6121 75.92C87.7987 76.1813 88.0974 76.312 88.5081 76.312ZM92.1135 71.426C92.1788 70.5673 92.5102 69.8953 93.1075 69.41C93.7048 68.9247 94.4795 68.682 95.4315 68.682C96.0662 68.682 96.6122 68.7987 97.0695 69.032C97.5362 69.256 97.8862 69.564 98.1195 69.956C98.3622 70.348 98.4835 70.7913 98.4835 71.286C98.4835 71.8647 98.3155 72.364 97.9795 72.784C97.6528 73.204 97.2235 73.4747 96.6915 73.596V73.666C97.2982 73.8153 97.7788 74.1093 98.1335 74.548C98.4882 74.9867 98.6655 75.5607 98.6655 76.27C98.6655 76.802 98.5442 77.2827 98.3015 77.712C98.0588 78.132 97.6948 78.4633 97.2095 78.706C96.7242 78.9487 96.1408 79.07 95.4595 79.07C94.4702 79.07 93.6582 78.8133 93.0235 78.3C92.3888 77.7773 92.0342 77.04 91.9595 76.088H93.1915C93.2568 76.648 93.4855 77.1053 93.8775 77.46C94.2695 77.8147 94.7922 77.992 95.4455 77.992C96.0988 77.992 96.5935 77.824 96.9295 77.488C97.2748 77.1427 97.4475 76.6993 97.4475 76.158C97.4475 75.458 97.2142 74.954 96.7475 74.646C96.2808 74.338 95.5762 74.184 94.6335 74.184H94.3115V73.12H94.6475C95.5062 73.1107 96.1548 72.9707 96.5935 72.7C97.0322 72.42 97.2515 71.9907 97.2515 71.412C97.2515 70.9173 97.0882 70.5207 96.7615 70.222C96.4442 69.9233 95.9868 69.774 95.3895 69.774C94.8108 69.774 94.3442 69.9233 93.9895 70.222C93.6348 70.5207 93.4248 70.922 93.3595 71.426H92.1135ZM100.386 73.834C100.386 72.2287 100.647 70.978 101.17 70.082C101.692 69.1767 102.607 68.724 103.914 68.724C105.211 68.724 106.121 69.1767 106.644 70.082C107.166 70.978 107.428 72.2287 107.428 73.834C107.428 75.4673 107.166 76.7367 106.644 77.642C106.121 78.5473 105.211 79 103.914 79C102.607 79 101.692 78.5473 101.17 77.642C100.647 76.7367 100.386 75.4673 100.386 73.834ZM106.168 73.834C106.168 73.022 106.112 72.336 106 71.776C105.897 71.2067 105.678 70.7493 105.342 70.404C105.015 70.0587 104.539 69.886 103.914 69.886C103.279 69.886 102.794 70.0587 102.458 70.404C102.131 70.7493 101.912 71.2067 101.8 71.776C101.697 72.336 101.646 73.022 101.646 73.834C101.646 74.674 101.697 75.3787 101.8 75.948C101.912 76.5173 102.131 76.9747 102.458 77.32C102.794 77.6653 103.279 77.838 103.914 77.838C104.539 77.838 105.015 77.6653 105.342 77.32C105.678 76.9747 105.897 76.5173 106 75.948C106.112 75.3787 106.168 74.674 106.168 73.834ZM115.407 69.872L111.515 79H110.227L114.175 69.998H108.771V68.906H115.407V69.872Z" fill="#2B3674"/>
<rect x="451" y="62" width="55" height="25" rx="4" fill="#DADEE7"/>
<path d="M460.33 79V69.004H461.744L466.294 77.236H466.35C466.341 76.9933 466.327 76.7133 466.308 76.396C466.289 76.0787 466.275 75.7613 466.266 75.444C466.257 75.1173 466.252 74.8373 466.252 74.604V69.004H467.358V79H465.986L461.38 70.74H461.324C461.343 70.9827 461.357 71.272 461.366 71.608C461.385 71.9347 461.399 72.2613 461.408 72.588C461.427 72.9147 461.436 73.204 461.436 73.456V79H460.33ZM468.688 79V78.034H472.286V79H468.688ZM470.48 77.124C470.079 77.124 469.719 77.0353 469.402 76.858C469.094 76.6713 468.851 76.4007 468.674 76.046C468.497 75.6913 468.408 75.2573 468.408 74.744C468.408 73.9787 468.595 73.3953 468.968 72.994C469.351 72.5833 469.869 72.378 470.522 72.378C470.923 72.378 471.278 72.4713 471.586 72.658C471.903 72.8353 472.151 73.1013 472.328 73.456C472.515 73.8013 472.608 74.2307 472.608 74.744C472.608 75.5093 472.417 76.0973 472.034 76.508C471.651 76.9187 471.133 77.124 470.48 77.124ZM470.508 76.312C470.919 76.312 471.213 76.1813 471.39 75.92C471.567 75.6493 471.656 75.2573 471.656 74.744C471.656 74.2213 471.567 73.8387 471.39 73.596C471.213 73.344 470.919 73.218 470.508 73.218C470.107 73.218 469.813 73.344 469.626 73.596C469.439 73.8387 469.346 74.2213 469.346 74.744C469.346 75.2573 469.435 75.6493 469.612 75.92C469.799 76.1813 470.097 76.312 470.508 76.312ZM474.113 71.426C474.179 70.5673 474.51 69.8953 475.107 69.41C475.705 68.9247 476.479 68.682 477.431 68.682C478.066 68.682 478.612 68.7987 479.069 69.032C479.536 69.256 479.886 69.564 480.119 69.956C480.362 70.348 480.483 70.7913 480.483 71.286C480.483 71.8647 480.315 72.364 479.979 72.784C479.653 73.204 479.223 73.4747 478.691 73.596V73.666C479.298 73.8153 479.779 74.1093 480.133 74.548C480.488 74.9867 480.665 75.5607 480.665 76.27C480.665 76.802 480.544 77.2827 480.301 77.712C480.059 78.132 479.695 78.4633 479.209 78.706C478.724 78.9487 478.141 79.07 477.459 79.07C476.47 79.07 475.658 78.8133 475.023 78.3C474.389 77.7773 474.034 77.04 473.959 76.088H475.191C475.257 76.648 475.485 77.1053 475.877 77.46C476.269 77.8147 476.792 77.992 477.445 77.992C478.099 77.992 478.593 77.824 478.929 77.488C479.275 77.1427 479.447 76.6993 479.447 76.158C479.447 75.458 479.214 74.954 478.747 74.646C478.281 74.338 477.576 74.184 476.633 74.184H476.311V73.12H476.647C477.506 73.1107 478.155 72.9707 478.593 72.7C479.032 72.42 479.251 71.9907 479.251 71.412C479.251 70.9173 479.088 70.5207 478.761 70.222C478.444 69.9233 477.987 69.774 477.389 69.774C476.811 69.774 476.344 69.9233 475.989 70.222C475.635 70.5207 475.425 70.922 475.359 71.426H474.113ZM482.386 73.834C482.386 72.2287 482.647 70.978 483.17 70.082C483.692 69.1767 484.607 68.724 485.914 68.724C487.211 68.724 488.121 69.1767 488.644 70.082C489.166 70.978 489.428 72.2287 489.428 73.834C489.428 75.4673 489.166 76.7367 488.644 77.642C488.121 78.5473 487.211 79 485.914 79C484.607 79 483.692 78.5473 483.17 77.642C482.647 76.7367 482.386 75.4673 482.386 73.834ZM488.168 73.834C488.168 73.022 488.112 72.336 488 71.776C487.897 71.2067 487.678 70.7493 487.342 70.404C487.015 70.0587 486.539 69.886 485.914 69.886C485.279 69.886 484.794 70.0587 484.458 70.404C484.131 70.7493 483.912 71.2067 483.8 71.776C483.697 72.336 483.646 73.022 483.646 73.834C483.646 74.674 483.697 75.3787 483.8 75.948C483.912 76.5173 484.131 76.9747 484.458 77.32C484.794 77.6653 485.279 77.838 485.914 77.838C486.539 77.838 487.015 77.6653 487.342 77.32C487.678 76.9747 487.897 76.5173 488 75.948C488.112 75.3787 488.168 74.674 488.168 73.834ZM497.407 69.872L493.515 79H492.227L496.175 69.998H490.771V68.906H497.407V69.872Z" fill="#2B3674"/>
<path fill-rule="evenodd" clip-rule="evenodd" d="M191 67L191 0L192.5 2.62268e-07L192.5 67C192.5 68.933 194.067 70.5 196 70.5L252 70.5L252 72L196 72C193.239 72 191 69.7614 191 67ZM323 72L378 72C380.761 72 383 69.7615 383 67L383 3.35703e-05L381.5 3.33081e-05L381.5 67C381.5 68.933 379.933 70.5 378 70.5L323 70.5L323 72Z" fill="#B0BBD5"/>
<path fill-rule="evenodd" clip-rule="evenodd" d="M6.45793e-05 67L6.94826e-05 38.9565L1.50007 38.6522L1.50006 67C1.50006 68.933 3.06707 70.5 5.00006 70.5L61.0001 70.5L61.0001 72L5.00007 72C2.23864 72 6.40965e-05 69.7614 6.45793e-05 67ZM132 72L187 72C189.761 72 192 69.7615 192 67L192 3.35703e-05L190.5 0.304378L190.5 67C190.5 68.933 188.933 70.5 187 70.5L132 70.5L132 72Z" fill="#B0BBD5"/>
<path fill-rule="evenodd" clip-rule="evenodd" d="M382 67L382 0L383.5 2.62268e-07L383.5 67C383.5 68.933 385.067 70.5 387 70.5L443 70.5L443 72L387 72C384.239 72 382 69.7614 382 67ZM514 72L569 72C571.761 72 574 69.7615 574 67L574 3.35703e-05L572.5 3.33081e-05L572.5 67C572.5 68.933 570.933 70.5 569 70.5L514 70.5L514 72Z" fill="#B0BBD5"/>
<rect x="97.0001" y="43" width="2" height="43" rx="1" transform="rotate(-180 97.0001 43)" fill="#B0BBD5"/>
<rect x="872.567" y="174.705" width="19.4444" height="30.2951" rx="4" fill="#DADEE7"/>
<mask id="path-67-inside-13_0_1633" fill="white">
<path d="M869.789 178C869.789 174.686 872.476 172 875.789 172H888.789C892.103 172 894.789 174.686 894.789 178V191.475H869.789V178Z"/>
</mask>
<path d="M867.789 178C867.789 173.582 871.371 170 875.789 170H888.789C893.208 170 896.789 173.582 896.789 178H892.789C892.789 175.791 890.998 174 888.789 174H875.789C873.58 174 871.789 175.791 871.789 178H867.789ZM894.789 191.475H869.789H894.789ZM867.789 191.475V178C867.789 173.582 871.371 170 875.789 170V174C873.58 174 871.789 175.791 871.789 178V191.475H867.789ZM888.789 170C893.208 170 896.789 173.582 896.789 178V191.475H892.789V178C892.789 175.791 890.998 174 888.789 174V170Z" fill="#DADEE7" mask="url(#path-67-inside-13_0_1633)"/>
<rect x="968.481" y="174.705" width="19.4444" height="30.2951" rx="4" fill="#DADEE7"/>
<mask id="path-70-inside-14_0_1633" fill="white">
<path d="M965.703 178C965.703 174.686 968.389 172 971.703 172H984.703C988.017 172 990.703 174.686 990.703 178V191.475H965.703V178Z"/>
</mask>
<path d="M963.703 178C963.703 173.582 967.285 170 971.703 170H984.703C989.121 170 992.703 173.582 992.703 178H988.703C988.703 175.791 986.912 174 984.703 174H971.703C969.494 174 967.703 175.791 967.703 178H963.703ZM990.703 191.475H965.703H990.703ZM963.703 191.475V178C963.703 173.582 967.285 170 971.703 170V174C969.494 174 967.703 175.791 967.703 178V191.475H963.703ZM984.703 170C989.121 170 992.703 173.582 992.703 178V191.475H988.703V178C988.703 175.791 986.912 174 984.703 174V170Z" fill="#DADEE7" mask="url(#path-70-inside-14_0_1633)"/>
<rect x="904.035" y="174.705" width="19.4444" height="30.2951" rx="4" fill="#DADEE7"/>
<mask id="path-73-inside-15_0_1633" fill="white">
<path d="M901.257 178C901.257 174.686 903.943 172 907.257 172H920.257C923.571 172 926.257 174.686 926.257 178V191.475H901.257V178Z"/>
</mask>
<path d="M899.257 178C899.257 173.582 902.839 170 907.257 170H920.257C924.675 170 928.257 173.582 928.257 178H924.257C924.257 175.791 922.466 174 920.257 174H907.257C905.048 174 903.257 175.791 903.257 178H899.257ZM926.257 191.475H901.257H926.257ZM899.257 191.475V178C899.257 173.582 902.839 170 907.257 170V174C905.048 174 903.257 175.791 903.257 178V191.475H899.257ZM920.257 170C924.675 170 928.257 173.582 928.257 178V191.475H924.257V178C924.257 175.791 922.466 174 920.257 174V170Z" fill="#DADEE7" mask="url(#path-73-inside-15_0_1633)"/>
<rect x="999.949" y="174.705" width="19.4444" height="30.295" rx="4" fill="#DADEE7"/>
<mask id="path-76-inside-16_0_1633" fill="white">
<path d="M997.171 178C997.171 174.686 999.857 172 1003.17 172H1016.17C1019.48 172 1022.17 174.686 1022.17 178V191.475H997.171V178Z"/>
</mask>
<path d="M995.171 178C995.171 173.582 998.752 170 1003.17 170H1016.17C1020.59 170 1024.17 173.582 1024.17 178H1020.17C1020.17 175.791 1018.38 174 1016.17 174H1003.17C1000.96 174 999.171 175.791 999.171 178H995.171ZM1022.17 191.475H997.171H1022.17ZM995.171 191.475V178C995.171 173.582 998.752 170 1003.17 170V174C1000.96 174 999.171 175.791 999.171 178V191.475H995.171ZM1016.17 170C1020.59 170 1024.17 173.582 1024.17 178V191.475H1020.17V178C1020.17 175.791 1018.38 174 1016.17 174V170Z" fill="#DADEE7" mask="url(#path-76-inside-16_0_1633)"/>
<rect x="888" y="149" width="19" height="17" rx="4" fill="#DADEE7"/>
<path d="M899.45 161L898.59 158.79H895.76L894.91 161H894L896.79 153.83H897.6L900.38 161H899.45ZM897.52 155.83C897.5 155.777 897.467 155.68 897.42 155.54C897.374 155.4 897.327 155.257 897.28 155.11C897.24 154.957 897.207 154.84 897.18 154.76C897.147 154.893 897.11 155.03 897.07 155.17C897.037 155.303 897 155.427 896.96 155.54C896.927 155.653 896.897 155.75 896.87 155.83L896.06 157.99H898.32L897.52 155.83Z" fill="#2B3674"/>
<rect x="986" y="149" width="19" height="17" rx="4" fill="#DADEE7"/>
<path d="M992.97 161V153.86H997.21V154.65H993.87V156.88H994.93C995.644 156.88 996.197 156.97 996.59 157.15C996.984 157.323 997.257 157.563 997.41 157.87C997.564 158.17 997.64 158.517 997.64 158.91C997.64 159.343 997.554 159.717 997.38 160.03C997.214 160.343 996.94 160.583 996.56 160.75C996.18 160.917 995.68 161 995.06 161H992.97ZM994.97 160.23C995.61 160.23 996.06 160.123 996.32 159.91C996.58 159.69 996.71 159.357 996.71 158.91C996.71 158.603 996.647 158.36 996.52 158.18C996.4 157.993 996.2 157.86 995.92 157.78C995.647 157.7 995.28 157.66 994.82 157.66H993.87V160.23H994.97Z" fill="#2B3674"/>
<rect x="920" y="128" width="57" height="25" rx="4" fill="#DADEE7"/>
<path d="M929.33 145V135.004H930.744L935.294 143.236H935.35C935.341 142.993 935.327 142.713 935.308 142.396C935.29 142.079 935.276 141.761 935.266 141.444C935.257 141.117 935.252 140.837 935.252 140.604V135.004H936.358V145H934.986L930.38 136.74H930.324C930.343 136.983 930.357 137.272 930.366 137.608C930.385 137.935 930.399 138.261 930.408 138.588C930.427 138.915 930.436 139.204 930.436 139.456V145H929.33ZM937.688 145V144.034H941.286V145H937.688ZM939.48 143.124C939.079 143.124 938.72 143.035 938.402 142.858C938.094 142.671 937.852 142.401 937.674 142.046C937.497 141.691 937.408 141.257 937.408 140.744C937.408 139.979 937.595 139.395 937.968 138.994C938.351 138.583 938.869 138.378 939.522 138.378C939.924 138.378 940.278 138.471 940.586 138.658C940.904 138.835 941.151 139.101 941.328 139.456C941.515 139.801 941.608 140.231 941.608 140.744C941.608 141.509 941.417 142.097 941.034 142.508C940.652 142.919 940.134 143.124 939.48 143.124ZM939.508 142.312C939.919 142.312 940.213 142.181 940.39 141.92C940.568 141.649 940.656 141.257 940.656 140.744C940.656 140.221 940.568 139.839 940.39 139.596C940.213 139.344 939.919 139.218 939.508 139.218C939.107 139.218 938.813 139.344 938.626 139.596C938.44 139.839 938.346 140.221 938.346 140.744C938.346 141.257 938.435 141.649 938.612 141.92C938.799 142.181 939.098 142.312 939.508 142.312ZM943.114 137.426C943.179 136.567 943.51 135.895 944.108 135.41C944.705 134.925 945.48 134.682 946.432 134.682C947.066 134.682 947.612 134.799 948.07 135.032C948.536 135.256 948.886 135.564 949.12 135.956C949.362 136.348 949.484 136.791 949.484 137.286C949.484 137.865 949.316 138.364 948.98 138.784C948.653 139.204 948.224 139.475 947.692 139.596V139.666C948.298 139.815 948.779 140.109 949.134 140.548C949.488 140.987 949.666 141.561 949.666 142.27C949.666 142.802 949.544 143.283 949.302 143.712C949.059 144.132 948.695 144.463 948.21 144.706C947.724 144.949 947.141 145.07 946.46 145.07C945.47 145.07 944.658 144.813 944.024 144.3C943.389 143.777 943.034 143.04 942.96 142.088H944.192C944.257 142.648 944.486 143.105 944.878 143.46C945.27 143.815 945.792 143.992 946.446 143.992C947.099 143.992 947.594 143.824 947.93 143.488C948.275 143.143 948.448 142.699 948.448 142.158C948.448 141.458 948.214 140.954 947.748 140.646C947.281 140.338 946.576 140.184 945.634 140.184H945.312V139.12H945.648C946.506 139.111 947.155 138.971 947.594 138.7C948.032 138.42 948.252 137.991 948.252 137.412C948.252 136.917 948.088 136.521 947.762 136.222C947.444 135.923 946.987 135.774 946.39 135.774C945.811 135.774 945.344 135.923 944.99 136.222C944.635 136.521 944.425 136.922 944.36 137.426H943.114ZM951.386 139.834C951.386 138.229 951.647 136.978 952.17 136.082C952.693 135.177 953.607 134.724 954.914 134.724C956.211 134.724 957.121 135.177 957.644 136.082C958.167 136.978 958.428 138.229 958.428 139.834C958.428 141.467 958.167 142.737 957.644 143.642C957.121 144.547 956.211 145 954.914 145C953.607 145 952.693 144.547 952.17 143.642C951.647 142.737 951.386 141.467 951.386 139.834ZM957.168 139.834C957.168 139.022 957.112 138.336 957 137.776C956.897 137.207 956.678 136.749 956.342 136.404C956.015 136.059 955.539 135.886 954.914 135.886C954.279 135.886 953.794 136.059 953.458 136.404C953.131 136.749 952.912 137.207 952.8 137.776C952.697 138.336 952.646 139.022 952.646 139.834C952.646 140.674 952.697 141.379 952.8 141.948C952.912 142.517 953.131 142.975 953.458 143.32C953.794 143.665 954.279 143.838 954.914 143.838C955.539 143.838 956.015 143.665 956.342 143.32C956.678 142.975 956.897 142.517 957 141.948C957.112 141.379 957.168 140.674 957.168 139.834ZM959.869 142.746V141.78L964.783 134.976H966.309V141.64H967.709V142.746H966.309V145H965.049V142.746H959.869ZM965.105 136.306L961.339 141.64H965.105V136.306Z" fill="#2B3674"/>
<path fill-rule="evenodd" clip-rule="evenodd" d="M1042 148L1042 215L1040.5 215L1040.5 148C1040.5 146.067 1038.93 144.5 1037 144.5L981 144.5L981 143L1037 143C1039.76 143 1042 145.239 1042 148ZM910 143L855 143C852.239 143 850 145.239 850 148L850 215L851.5 215L851.5 148C851.5 146.067 853.067 144.5 855 144.5L910 144.5L910 143Z" fill="#B0BBD5"/>
<rect x="1063.57" y="174.705" width="19.4444" height="30.2951" rx="4" fill="#DADEE7"/>
<mask id="path-86-inside-17_0_1633" fill="white">
<path d="M1060.79 178C1060.79 174.686 1063.48 172 1066.79 172H1079.79C1083.1 172 1085.79 174.686 1085.79 178V191.475H1060.79V178Z"/>
</mask>
<path d="M1058.79 178C1058.79 173.582 1062.37 170 1066.79 170H1079.79C1084.21 170 1087.79 173.582 1087.79 178H1083.79C1083.79 175.791 1082 174 1079.79 174H1066.79C1064.58 174 1062.79 175.791 1062.79 178H1058.79ZM1085.79 191.475H1060.79H1085.79ZM1058.79 191.475V178C1058.79 173.582 1062.37 170 1066.79 170V174C1064.58 174 1062.79 175.791 1062.79 178V191.475H1058.79ZM1079.79 170C1084.21 170 1087.79 173.582 1087.79 178V191.475H1083.79V178C1083.79 175.791 1082 174 1079.79 174V170Z" fill="#DADEE7" mask="url(#path-86-inside-17_0_1633)"/>
<rect x="1159.48" y="174.705" width="19.4444" height="30.2951" rx="4" fill="#DADEE7"/>
<mask id="path-89-inside-18_0_1633" fill="white">
<path d="M1156.7 178C1156.7 174.686 1159.39 172 1162.7 172H1175.7C1179.02 172 1181.7 174.686 1181.7 178V191.475H1156.7V178Z"/>
</mask>
<path d="M1154.7 178C1154.7 173.582 1158.28 170 1162.7 170H1175.7C1180.12 170 1183.7 173.582 1183.7 178H1179.7C1179.7 175.791 1177.91 174 1175.7 174H1162.7C1160.49 174 1158.7 175.791 1158.7 178H1154.7ZM1181.7 191.475H1156.7H1181.7ZM1154.7 191.475V178C1154.7 173.582 1158.28 170 1162.7 170V174C1160.49 174 1158.7 175.791 1158.7 178V191.475H1154.7ZM1175.7 170C1180.12 170 1183.7 173.582 1183.7 178V191.475H1179.7V178C1179.7 175.791 1177.91 174 1175.7 174V170Z" fill="#DADEE7" mask="url(#path-89-inside-18_0_1633)"/>
<rect x="1095.03" y="174.705" width="19.4444" height="30.2951" rx="4" fill="#DADEE7"/>
<mask id="path-92-inside-19_0_1633" fill="white">
<path d="M1092.26 178C1092.26 174.686 1094.94 172 1098.26 172H1111.26C1114.57 172 1117.26 174.686 1117.26 178V191.475H1092.26V178Z"/>
</mask>
<path d="M1090.26 178C1090.26 173.582 1093.84 170 1098.26 170H1111.26C1115.68 170 1119.26 173.582 1119.26 178H1115.26C1115.26 175.791 1113.47 174 1111.26 174H1098.26C1096.05 174 1094.26 175.791 1094.26 178H1090.26ZM1117.26 191.475H1092.26H1117.26ZM1090.26 191.475V178C1090.26 173.582 1093.84 170 1098.26 170V174C1096.05 174 1094.26 175.791 1094.26 178V191.475H1090.26ZM1111.26 170C1115.68 170 1119.26 173.582 1119.26 178V191.475H1115.26V178C1115.26 175.791 1113.47 174 1111.26 174V170Z" fill="#DADEE7" mask="url(#path-92-inside-19_0_1633)"/>
<rect x="1190.95" y="174.705" width="19.4444" height="30.295" rx="4" fill="#DADEE7"/>
<mask id="path-95-inside-20_0_1633" fill="white">
<path d="M1188.17 178C1188.17 174.686 1190.86 172 1194.17 172H1207.17C1210.48 172 1213.17 174.686 1213.17 178V191.475H1188.17V178Z"/>
</mask>
<path d="M1186.17 178C1186.17 173.582 1189.75 170 1194.17 170H1207.17C1211.59 170 1215.17 173.582 1215.17 178H1211.17C1211.17 175.791 1209.38 174 1207.17 174H1194.17C1191.96 174 1190.17 175.791 1190.17 178H1186.17ZM1213.17 191.475H1188.17H1213.17ZM1186.17 191.475V178C1186.17 173.582 1189.75 170 1194.17 170V174C1191.96 174 1190.17 175.791 1190.17 178V191.475H1186.17ZM1207.17 170C1211.59 170 1215.17 173.582 1215.17 178V191.475H1211.17V178C1211.17 175.791 1209.38 174 1207.17 174V170Z" fill="#DADEE7" mask="url(#path-95-inside-20_0_1633)"/>
<rect x="1079" y="149" width="19" height="17" rx="4" fill="#DADEE7"/>
<path d="M1090.45 161L1089.59 158.79H1086.76L1085.91 161H1085L1087.79 153.83H1088.6L1091.38 161H1090.45ZM1088.52 155.83C1088.5 155.777 1088.47 155.68 1088.42 155.54C1088.37 155.4 1088.33 155.257 1088.28 155.11C1088.24 154.957 1088.21 154.84 1088.18 154.76C1088.15 154.893 1088.11 155.03 1088.07 155.17C1088.04 155.303 1088 155.427 1087.96 155.54C1087.93 155.653 1087.9 155.75 1087.87 155.83L1087.06 157.99H1089.32L1088.52 155.83Z" fill="#2B3674"/>
<rect x="1177" y="149" width="19" height="17" rx="4" fill="#DADEE7"/>
<path d="M1183.97 161V153.86H1188.21V154.65H1184.87V156.88H1185.93C1186.64 156.88 1187.2 156.97 1187.59 157.15C1187.98 157.323 1188.26 157.563 1188.41 157.87C1188.56 158.17 1188.64 158.517 1188.64 158.91C1188.64 159.343 1188.55 159.717 1188.38 160.03C1188.21 160.343 1187.94 160.583 1187.56 160.75C1187.18 160.917 1186.68 161 1186.06 161H1183.97ZM1185.97 160.23C1186.61 160.23 1187.06 160.123 1187.32 159.91C1187.58 159.69 1187.71 159.357 1187.71 158.91C1187.71 158.603 1187.65 158.36 1187.52 158.18C1187.4 157.993 1187.2 157.86 1186.92 157.78C1186.65 157.7 1186.28 157.66 1185.82 157.66H1184.87V160.23H1185.97Z" fill="#2B3674"/>
<rect x="1111" y="128" width="52" height="25" rx="4" fill="#DADEE7"/>
<path d="M1120.33 145V135.004H1121.74L1126.29 143.236H1126.35C1126.34 142.993 1126.33 142.713 1126.31 142.396C1126.29 142.079 1126.28 141.761 1126.27 141.444C1126.26 141.117 1126.25 140.837 1126.25 140.604V135.004H1127.36V145H1125.99L1121.38 136.74H1121.32C1121.34 136.983 1121.36 137.272 1121.37 137.608C1121.38 137.935 1121.4 138.261 1121.41 138.588C1121.43 138.915 1121.44 139.204 1121.44 139.456V145H1120.33ZM1128.69 145V144.034H1132.29V145H1128.69ZM1130.48 143.124C1130.08 143.124 1129.72 143.035 1129.4 142.858C1129.09 142.671 1128.85 142.401 1128.67 142.046C1128.5 141.691 1128.41 141.257 1128.41 140.744C1128.41 139.979 1128.59 139.395 1128.97 138.994C1129.35 138.583 1129.87 138.378 1130.52 138.378C1130.92 138.378 1131.28 138.471 1131.59 138.658C1131.9 138.835 1132.15 139.101 1132.33 139.456C1132.51 139.801 1132.61 140.231 1132.61 140.744C1132.61 141.509 1132.42 142.097 1132.03 142.508C1131.65 142.919 1131.13 143.124 1130.48 143.124ZM1130.51 142.312C1130.92 142.312 1131.21 142.181 1131.39 141.92C1131.57 141.649 1131.66 141.257 1131.66 140.744C1131.66 140.221 1131.57 139.839 1131.39 139.596C1131.21 139.344 1130.92 139.218 1130.51 139.218C1130.11 139.218 1129.81 139.344 1129.63 139.596C1129.44 139.839 1129.35 140.221 1129.35 140.744C1129.35 141.257 1129.43 141.649 1129.61 141.92C1129.8 142.181 1130.1 142.312 1130.51 142.312ZM1134.11 137.426C1134.18 136.567 1134.51 135.895 1135.11 135.41C1135.7 134.925 1136.48 134.682 1137.43 134.682C1138.07 134.682 1138.61 134.799 1139.07 135.032C1139.54 135.256 1139.89 135.564 1140.12 135.956C1140.36 136.348 1140.48 136.791 1140.48 137.286C1140.48 137.865 1140.32 138.364 1139.98 138.784C1139.65 139.204 1139.22 139.475 1138.69 139.596V139.666C1139.3 139.815 1139.78 140.109 1140.13 140.548C1140.49 140.987 1140.67 141.561 1140.67 142.27C1140.67 142.802 1140.54 143.283 1140.3 143.712C1140.06 144.132 1139.69 144.463 1139.21 144.706C1138.72 144.949 1138.14 145.07 1137.46 145.07C1136.47 145.07 1135.66 144.813 1135.02 144.3C1134.39 143.777 1134.03 143.04 1133.96 142.088H1135.19C1135.26 142.648 1135.49 143.105 1135.88 143.46C1136.27 143.815 1136.79 143.992 1137.45 143.992C1138.1 143.992 1138.59 143.824 1138.93 143.488C1139.27 143.143 1139.45 142.699 1139.45 142.158C1139.45 141.458 1139.21 140.954 1138.75 140.646C1138.28 140.338 1137.58 140.184 1136.63 140.184H1136.31V139.12H1136.65C1137.51 139.111 1138.15 138.971 1138.59 138.7C1139.03 138.42 1139.25 137.991 1139.25 137.412C1139.25 136.917 1139.09 136.521 1138.76 136.222C1138.44 135.923 1137.99 135.774 1137.39 135.774C1136.81 135.774 1136.34 135.923 1135.99 136.222C1135.63 136.521 1135.42 136.922 1135.36 137.426H1134.11ZM1142.39 139.834C1142.39 138.229 1142.65 136.978 1143.17 136.082C1143.69 135.177 1144.61 134.724 1145.91 134.724C1147.21 134.724 1148.12 135.177 1148.64 136.082C1149.17 136.978 1149.43 138.229 1149.43 139.834C1149.43 141.467 1149.17 142.737 1148.64 143.642C1148.12 144.547 1147.21 145 1145.91 145C1144.61 145 1143.69 144.547 1143.17 143.642C1142.65 142.737 1142.39 141.467 1142.39 139.834ZM1148.17 139.834C1148.17 139.022 1148.11 138.336 1148 137.776C1147.9 137.207 1147.68 136.749 1147.34 136.404C1147.01 136.059 1146.54 135.886 1145.91 135.886C1145.28 135.886 1144.79 136.059 1144.46 136.404C1144.13 136.749 1143.91 137.207 1143.8 137.776C1143.7 138.336 1143.65 139.022 1143.65 139.834C1143.65 140.674 1143.7 141.379 1143.8 141.948C1143.91 142.517 1144.13 142.975 1144.46 143.32C1144.79 143.665 1145.28 143.838 1145.91 143.838C1146.54 143.838 1147.01 143.665 1147.34 143.32C1147.68 142.975 1147.9 142.517 1148 141.948C1148.11 141.379 1148.17 140.674 1148.17 139.834ZM1150.84 136.04V134.878H1153.47V145H1152.18V136.04H1150.84Z" fill="#2B3674"/>
<path fill-rule="evenodd" clip-rule="evenodd" d="M1233 148L1233 215L1231.5 215L1231.5 148C1231.5 146.067 1229.93 144.5 1228 144.5L1172 144.5L1172 143L1228 143C1230.76 143 1233 145.239 1233 148ZM1101 143L1046 143C1043.24 143 1041 145.239 1041 148L1041 215L1042.5 215L1042.5 148C1042.5 146.067 1044.07 144.5 1046 144.5L1101 144.5L1101 143Z" fill="#B0BBD5"/>
<path fill-rule="evenodd" clip-rule="evenodd" d="M851 148.002L851 215.002L849.5 215.002L849.5 148.002C849.5 146.069 847.933 144.502 846 144.502L744 144.502L744 143.002L846 143.002C848.762 143.002 851 145.241 851 148.002ZM659 143.002L558 143.002C555.239 143.002 553 145.241 553 148.002L553 215.002L554.5 215.002L554.5 148.002C554.5 146.069 556.067 144.502 558 144.502L659 144.502L659 143.002Z" fill="#B0BBD5"/>
<path fill-rule="evenodd" clip-rule="evenodd" d="M554 148.002L554 215.002L552.5 215.002L552.5 148.002C552.5 146.069 550.933 144.502 549 144.502L447 144.502L447 143.002L549 143.002C551.761 143.002 554 145.241 554 148.002ZM362 143.002L261 143.002C258.239 143.002 256 145.241 256 148.002L256 215.002L257.5 215.002L257.5 148.002C257.5 146.069 259.067 144.502 261 144.502L362 144.502L362 143.002Z" fill="#B0BBD5"/>
<rect x="586.278" y="175.207" width="18.4444" height="29.2951" rx="3.5" fill="#DADEE7" stroke="#DADEE7"/>
<mask id="path-107-inside-21_0_1633" fill="white">
<path d="M583 178.002C583 174.688 585.687 172.002 589 172.002H602C605.314 172.002 608 174.688 608 178.002V191.477H583V178.002Z"/>
</mask>
<path d="M581 178.002C581 173.584 584.582 170.002 589 170.002H602C606.419 170.002 610 173.584 610 178.002H606C606 175.793 604.209 174.002 602 174.002H589C586.791 174.002 585 175.793 585 178.002H581ZM608 191.477H583H608ZM581 191.477V178.002C581 173.584 584.582 170.002 589 170.002V174.002C586.791 174.002 585 175.793 585 178.002V191.477H581ZM602 170.002C606.419 170.002 610 173.584 610 178.002V191.477H606V178.002C606 175.793 604.209 174.002 602 174.002V170.002Z" fill="#DADEE7" mask="url(#path-107-inside-21_0_1633)"/>
<rect x="290.278" y="175.207" width="18.4444" height="29.2951" rx="3.5" fill="#DADEE7" stroke="#DADEE7"/>
<mask id="path-110-inside-22_0_1633" fill="white">
<path d="M287 178.002C287 174.688 289.687 172.002 293 172.002H306C309.314 172.002 312 174.688 312 178.002V191.477H287V178.002Z"/>
</mask>
<path d="M285 178.002C285 173.584 288.582 170.002 293 170.002H306C310.419 170.002 314 173.584 314 178.002H310C310 175.793 308.209 174.002 306 174.002H293C290.791 174.002 289 175.793 289 178.002H285ZM312 191.477H287H312ZM285 191.477V178.002C285 173.584 288.582 170.002 293 170.002V174.002C290.791 174.002 289 175.793 289 178.002V191.477H285ZM306 170.002C310.419 170.002 314 173.584 314 178.002V191.477H310V178.002C310 175.793 308.209 174.002 306 174.002V170.002Z" fill="#DADEE7" mask="url(#path-110-inside-22_0_1633)"/>
<rect x="735.778" y="174.707" width="19.4444" height="30.2951" rx="4" fill="#FF1A63"/>
<mask id="path-113-inside-23_0_1633" fill="white">
<path d="M733 178.002C733 174.688 735.687 172.002 739 172.002H752C755.314 172.002 758 174.688 758 178.002V191.477H733V178.002Z"/>
</mask>
<path d="M731 178.002C731 173.584 734.582 170.002 739 170.002H752C756.419 170.002 760 173.584 760 178.002H756C756 175.793 754.209 174.002 752 174.002H739C736.791 174.002 735 175.793 735 178.002H731ZM758 191.477H733H758ZM731 191.477V178.002C731 173.584 734.582 170.002 739 170.002V174.002C736.791 174.002 735 175.793 735 178.002V191.477H731ZM752 170.002C756.419 170.002 760 173.584 760 178.002V191.477H756V178.002C756 175.793 754.209 174.002 752 174.002V170.002Z" fill="#FF1A63" mask="url(#path-113-inside-23_0_1633)"/>
<rect x="439.778" y="174.707" width="19.4444" height="30.2951" rx="4" fill="#FF1A63"/>
<mask id="path-116-inside-24_0_1633" fill="white">
<path d="M437 178.002C437 174.688 439.686 172.002 443 172.002H456C459.314 172.002 462 174.688 462 178.002V191.477H437V178.002Z"/>
</mask>
<path d="M435 178.002C435 173.584 438.582 170.002 443 170.002H456C460.418 170.002 464 173.584 464 178.002H460C460 175.793 458.209 174.002 456 174.002H443C440.791 174.002 439 175.793 439 178.002H435ZM462 191.477H437H462ZM435 191.477V178.002C435 173.584 438.582 170.002 443 170.002V174.002C440.791 174.002 439 175.793 439 178.002V191.477H435ZM456 170.002C460.418 170.002 464 173.584 464 178.002V191.477H460V178.002C460 175.793 458.209 174.002 456 174.002V170.002Z" fill="#FF1A63" mask="url(#path-116-inside-24_0_1633)"/>
<rect x="616.684" y="174.707" width="19.4444" height="30.2951" rx="4" fill="#FF1A63"/>
<mask id="path-119-inside-25_0_1633" fill="white">
<path d="M613.907 178.002C613.907 174.688 616.593 172.002 619.907 172.002H632.907C636.22 172.002 638.907 174.688 638.907 178.002V191.477H613.907V178.002Z"/>
</mask>
<path d="M611.907 178.002C611.907 173.584 615.488 170.002 619.907 170.002H632.907C637.325 170.002 640.907 173.584 640.907 178.002H636.907C636.907 175.793 635.116 174.002 632.907 174.002H619.907C617.697 174.002 615.907 175.793 615.907 178.002H611.907ZM638.907 191.477H613.907H638.907ZM611.907 191.477V178.002C611.907 173.584 615.488 170.002 619.907 170.002V174.002C617.697 174.002 615.907 175.793 615.907 178.002V191.477H611.907ZM632.907 170.002C637.325 170.002 640.907 173.584 640.907 178.002V191.477H636.907V178.002C636.907 175.793 635.116 174.002 632.907 174.002V170.002Z" fill="#FF1A63" mask="url(#path-119-inside-25_0_1633)"/>
<rect x="320.684" y="174.707" width="19.4444" height="30.2951" rx="4" fill="#FF1A63"/>
<mask id="path-122-inside-26_0_1633" fill="white">
<path d="M317.906 178.002C317.906 174.688 320.593 172.002 323.906 172.002H336.906C340.22 172.002 342.906 174.688 342.906 178.002V191.477H317.906V178.002Z"/>
</mask>
<path d="M315.906 178.002C315.906 173.584 319.488 170.002 323.906 170.002H336.906C341.325 170.002 344.906 173.584 344.906 178.002H340.906C340.906 175.793 339.116 174.002 336.906 174.002H323.906C321.697 174.002 319.906 175.793 319.906 178.002H315.906ZM342.906 191.477H317.906H342.906ZM315.906 191.477V178.002C315.906 173.584 319.488 170.002 323.906 170.002V174.002C321.697 174.002 319.906 175.793 319.906 178.002V191.477H315.906ZM336.906 170.002C341.325 170.002 344.906 173.584 344.906 178.002V191.477H340.906V178.002C340.906 175.793 339.116 174.002 336.906 174.002V170.002Z" fill="#FF1A63" mask="url(#path-122-inside-26_0_1633)"/>
<rect x="766.684" y="174.707" width="19.4444" height="30.2951" rx="4" fill="#FF1A63"/>
<mask id="path-125-inside-27_0_1633" fill="white">
<path d="M763.907 178.002C763.907 174.688 766.593 172.002 769.907 172.002H782.907C786.22 172.002 788.907 174.688 788.907 178.002V191.477H763.907V178.002Z"/>
</mask>
<path d="M761.907 178.002C761.907 173.584 765.488 170.002 769.907 170.002H782.907C787.325 170.002 790.907 173.584 790.907 178.002H786.907C786.907 175.793 785.116 174.002 782.907 174.002H769.907C767.697 174.002 765.907 175.793 765.907 178.002H761.907ZM788.907 191.477H763.907H788.907ZM761.907 191.477V178.002C761.907 173.584 765.488 170.002 769.907 170.002V174.002C767.697 174.002 765.907 175.793 765.907 178.002V191.477H761.907ZM782.907 170.002C787.325 170.002 790.907 173.584 790.907 178.002V191.477H786.907V178.002C786.907 175.793 785.116 174.002 782.907 174.002V170.002Z" fill="#FF1A63" mask="url(#path-125-inside-27_0_1633)"/>
<rect x="470.684" y="174.707" width="19.4444" height="30.2951" rx="4" fill="#FF1A63"/>
<mask id="path-128-inside-28_0_1633" fill="white">
<path d="M467.906 178.002C467.906 174.688 470.593 172.002 473.906 172.002H486.906C490.22 172.002 492.906 174.688 492.906 178.002V191.477H467.906V178.002Z"/>
</mask>
<path d="M465.906 178.002C465.906 173.584 469.488 170.002 473.906 170.002H486.906C491.325 170.002 494.906 173.584 494.906 178.002H490.906C490.906 175.793 489.116 174.002 486.906 174.002H473.906C471.697 174.002 469.906 175.793 469.906 178.002H465.906ZM492.906 191.477H467.906H492.906ZM465.906 191.477V178.002C465.906 173.584 469.488 170.002 473.906 170.002V174.002C471.697 174.002 469.906 175.793 469.906 178.002V191.477H465.906ZM486.906 170.002C491.325 170.002 494.906 173.584 494.906 178.002V191.477H490.906V178.002C490.906 175.793 489.116 174.002 486.906 174.002V170.002Z" fill="#FF1A63" mask="url(#path-128-inside-28_0_1633)"/>
<rect x="648.091" y="175.207" width="18.4444" height="29.2951" rx="3.5" fill="#DADEE7" stroke="#DADEE7"/>
<mask id="path-131-inside-29_0_1633" fill="white">
<path d="M644.813 178.002C644.813 174.688 647.499 172.002 650.813 172.002H663.813C667.127 172.002 669.813 174.688 669.813 178.002V191.477H644.813V178.002Z"/>
</mask>
<path d="M642.813 178.002C642.813 173.584 646.395 170.002 650.813 170.002H663.813C668.231 170.002 671.813 173.584 671.813 178.002H667.813C667.813 175.793 666.022 174.002 663.813 174.002H650.813C648.604 174.002 646.813 175.793 646.813 178.002H642.813ZM669.813 191.477H644.813H669.813ZM642.813 191.477V178.002C642.813 173.584 646.395 170.002 650.813 170.002V174.002C648.604 174.002 646.813 175.793 646.813 178.002V191.477H642.813ZM663.813 170.002C668.231 170.002 671.813 173.584 671.813 178.002V191.477H667.813V178.002C667.813 175.793 666.022 174.002 663.813 174.002V170.002Z" fill="#DADEE7" mask="url(#path-131-inside-29_0_1633)"/>
<rect x="352.09" y="175.207" width="18.4444" height="29.2951" rx="3.5" fill="#DADEE7" stroke="#DADEE7"/>
<mask id="path-134-inside-30_0_1633" fill="white">
<path d="M348.813 178.002C348.813 174.688 351.499 172.002 354.813 172.002H367.813C371.126 172.002 373.813 174.688 373.813 178.002V191.477H348.813V178.002Z"/>
</mask>
<path d="M346.813 178.002C346.813 173.584 350.394 170.002 354.813 170.002H367.813C372.231 170.002 375.813 173.584 375.813 178.002H371.813C371.813 175.793 370.022 174.002 367.813 174.002H354.813C352.603 174.002 350.813 175.793 350.813 178.002H346.813ZM373.813 191.477H348.813H373.813ZM346.813 191.477V178.002C346.813 173.584 350.394 170.002 354.813 170.002V174.002C352.603 174.002 350.813 175.793 350.813 178.002V191.477H346.813ZM367.813 170.002C372.231 170.002 375.813 173.584 375.813 178.002V191.477H371.813V178.002C371.813 175.793 370.022 174.002 367.813 174.002V170.002Z" fill="#DADEE7" mask="url(#path-134-inside-30_0_1633)"/>
<rect x="798.091" y="175.207" width="18.4444" height="29.2951" rx="3.5" fill="#DADEE7" stroke="#DADEE7"/>
<mask id="path-137-inside-31_0_1633" fill="white">
<path d="M794.813 178.002C794.813 174.688 797.499 172.002 800.813 172.002H813.813C817.127 172.002 819.813 174.688 819.813 178.002V191.477H794.813V178.002Z"/>
</mask>
<path d="M792.813 178.002C792.813 173.584 796.395 170.002 800.813 170.002H813.813C818.231 170.002 821.813 173.584 821.813 178.002H817.813C817.813 175.793 816.022 174.002 813.813 174.002H800.813C798.604 174.002 796.813 175.793 796.813 178.002H792.813ZM819.813 191.477H794.813H819.813ZM792.813 191.477V178.002C792.813 173.584 796.395 170.002 800.813 170.002V174.002C798.604 174.002 796.813 175.793 796.813 178.002V191.477H792.813ZM813.813 170.002C818.231 170.002 821.813 173.584 821.813 178.002V191.477H817.813V178.002C817.813 175.793 816.022 174.002 813.813 174.002V170.002Z" fill="#DADEE7" mask="url(#path-137-inside-31_0_1633)"/>
<rect x="502.09" y="175.207" width="18.4444" height="29.2951" rx="3.5" fill="#DADEE7" stroke="#DADEE7"/>
<mask id="path-140-inside-32_0_1633" fill="white">
<path d="M498.813 178.002C498.813 174.688 501.499 172.002 504.813 172.002H517.813C521.126 172.002 523.813 174.688 523.813 178.002V191.477H498.813V178.002Z"/>
</mask>
<path d="M496.813 178.002C496.813 173.584 500.394 170.002 504.813 170.002H517.813C522.231 170.002 525.813 173.584 525.813 178.002H521.813C521.813 175.793 520.022 174.002 517.813 174.002H504.813C502.603 174.002 500.813 175.793 500.813 178.002H496.813ZM523.813 191.477H498.813H523.813ZM496.813 191.477V178.002C496.813 173.584 500.394 170.002 504.813 170.002V174.002C502.603 174.002 500.813 175.793 500.813 178.002V191.477H496.813ZM517.813 170.002C522.231 170.002 525.813 173.584 525.813 178.002V191.477H521.813V178.002C521.813 175.793 520.022 174.002 517.813 174.002V170.002Z" fill="#DADEE7" mask="url(#path-140-inside-32_0_1633)"/>
<rect x="675.5" y="128.502" width="56" height="24" rx="3.5" fill="#DADEE7"/>
<path d="M684.33 145.002V135.006H685.744L690.294 143.238H690.35C690.341 142.995 690.327 142.715 690.308 142.398C690.29 142.081 690.276 141.763 690.266 141.446C690.257 141.119 690.252 140.839 690.252 140.606V135.006H691.358V145.002H689.986L685.38 136.742H685.324C685.343 136.985 685.357 137.274 685.366 137.61C685.385 137.937 685.399 138.263 685.408 138.59C685.427 138.917 685.436 139.206 685.436 139.458V145.002H684.33ZM692.688 145.002V144.036H696.286V145.002H692.688ZM694.48 143.126C694.079 143.126 693.72 143.037 693.402 142.86C693.094 142.673 692.852 142.403 692.674 142.048C692.497 141.693 692.408 141.259 692.408 140.746C692.408 139.981 692.595 139.397 692.968 138.996C693.351 138.585 693.869 138.38 694.522 138.38C694.924 138.38 695.278 138.473 695.586 138.66C695.904 138.837 696.151 139.103 696.328 139.458C696.515 139.803 696.608 140.233 696.608 140.746C696.608 141.511 696.417 142.099 696.034 142.51C695.652 142.921 695.134 143.126 694.48 143.126ZM694.508 142.314C694.919 142.314 695.213 142.183 695.39 141.922C695.568 141.651 695.656 141.259 695.656 140.746C695.656 140.223 695.568 139.841 695.39 139.598C695.213 139.346 694.919 139.22 694.508 139.22C694.107 139.22 693.813 139.346 693.626 139.598C693.44 139.841 693.346 140.223 693.346 140.746C693.346 141.259 693.435 141.651 693.612 141.922C693.799 142.183 694.098 142.314 694.508 142.314ZM698.114 137.428C698.179 136.569 698.51 135.897 699.108 135.412C699.705 134.927 700.48 134.684 701.432 134.684C702.066 134.684 702.612 134.801 703.07 135.034C703.536 135.258 703.886 135.566 704.12 135.958C704.362 136.35 704.484 136.793 704.484 137.288C704.484 137.867 704.316 138.366 703.98 138.786C703.653 139.206 703.224 139.477 702.692 139.598V139.668C703.298 139.817 703.779 140.111 704.134 140.55C704.488 140.989 704.666 141.563 704.666 142.272C704.666 142.804 704.544 143.285 704.302 143.714C704.059 144.134 703.695 144.465 703.21 144.708C702.724 144.951 702.141 145.072 701.46 145.072C700.47 145.072 699.658 144.815 699.024 144.302C698.389 143.779 698.034 143.042 697.96 142.09H699.192C699.257 142.65 699.486 143.107 699.878 143.462C700.27 143.817 700.792 143.994 701.446 143.994C702.099 143.994 702.594 143.826 702.93 143.49C703.275 143.145 703.448 142.701 703.448 142.16C703.448 141.46 703.214 140.956 702.748 140.648C702.281 140.34 701.576 140.186 700.634 140.186H700.312V139.122H700.648C701.506 139.113 702.155 138.973 702.594 138.702C703.032 138.422 703.252 137.993 703.252 137.414C703.252 136.919 703.088 136.523 702.762 136.224C702.444 135.925 701.987 135.776 701.39 135.776C700.811 135.776 700.344 135.925 699.99 136.224C699.635 136.523 699.425 136.924 699.36 137.428H698.114ZM706.386 139.836C706.386 138.231 706.647 136.98 707.17 136.084C707.693 135.179 708.607 134.726 709.914 134.726C711.211 134.726 712.121 135.179 712.644 136.084C713.167 136.98 713.428 138.231 713.428 139.836C713.428 141.469 713.167 142.739 712.644 143.644C712.121 144.549 711.211 145.002 709.914 145.002C708.607 145.002 707.693 144.549 707.17 143.644C706.647 142.739 706.386 141.469 706.386 139.836ZM712.168 139.836C712.168 139.024 712.112 138.338 712 137.778C711.897 137.209 711.678 136.751 711.342 136.406C711.015 136.061 710.539 135.888 709.914 135.888C709.279 135.888 708.794 136.061 708.458 136.406C708.131 136.751 707.912 137.209 707.8 137.778C707.697 138.338 707.646 139.024 707.646 139.836C707.646 140.676 707.697 141.381 707.8 141.95C707.912 142.519 708.131 142.977 708.458 143.322C708.794 143.667 709.279 143.84 709.914 143.84C710.539 143.84 711.015 143.667 711.342 143.322C711.678 142.977 711.897 142.519 712 141.95C712.112 141.381 712.168 140.676 712.168 139.836ZM721.631 135.986H716.717V139.178C716.932 138.879 717.249 138.637 717.669 138.45C718.089 138.254 718.542 138.156 719.027 138.156C719.802 138.156 720.432 138.319 720.917 138.646C721.402 138.963 721.748 139.379 721.953 139.892C722.168 140.396 722.275 140.933 722.275 141.502C722.275 142.174 722.149 142.776 721.897 143.308C721.645 143.84 721.258 144.26 720.735 144.568C720.222 144.876 719.582 145.03 718.817 145.03C717.837 145.03 717.044 144.778 716.437 144.274C715.83 143.77 715.462 143.098 715.331 142.258H716.577C716.698 142.79 716.955 143.205 717.347 143.504C717.739 143.803 718.234 143.952 718.831 143.952C719.568 143.952 720.124 143.733 720.497 143.294C720.87 142.846 721.057 142.258 721.057 141.53C721.057 140.802 720.87 140.242 720.497 139.85C720.124 139.449 719.573 139.248 718.845 139.248C718.35 139.248 717.916 139.369 717.543 139.612C717.179 139.845 716.913 140.167 716.745 140.578H715.541V134.866H721.631V135.986Z" fill="#2B3674"/>
<rect x="675.5" y="128.502" width="56" height="24" rx="3.5" stroke="#DADEE7"/>
<rect x="378.5" y="128.502" width="56" height="24" rx="3.5" fill="#DADEE7"/>
<path d="M387.33 145.002V135.006H388.744L393.294 143.238H393.35C393.341 142.995 393.327 142.715 393.308 142.398C393.289 142.081 393.275 141.763 393.266 141.446C393.257 141.119 393.252 140.839 393.252 140.606V135.006H394.358V145.002H392.986L388.38 136.742H388.324C388.343 136.985 388.357 137.274 388.366 137.61C388.385 137.937 388.399 138.263 388.408 138.59C388.427 138.917 388.436 139.206 388.436 139.458V145.002H387.33ZM395.688 145.002V144.036H399.286V145.002H395.688ZM397.48 143.126C397.079 143.126 396.719 143.037 396.402 142.86C396.094 142.673 395.851 142.403 395.674 142.048C395.497 141.693 395.408 141.259 395.408 140.746C395.408 139.981 395.595 139.397 395.968 138.996C396.351 138.585 396.869 138.38 397.522 138.38C397.923 138.38 398.278 138.473 398.586 138.66C398.903 138.837 399.151 139.103 399.328 139.458C399.515 139.803 399.608 140.233 399.608 140.746C399.608 141.511 399.417 142.099 399.034 142.51C398.651 142.921 398.133 143.126 397.48 143.126ZM397.508 142.314C397.919 142.314 398.213 142.183 398.39 141.922C398.567 141.651 398.656 141.259 398.656 140.746C398.656 140.223 398.567 139.841 398.39 139.598C398.213 139.346 397.919 139.22 397.508 139.22C397.107 139.22 396.813 139.346 396.626 139.598C396.439 139.841 396.346 140.223 396.346 140.746C396.346 141.259 396.435 141.651 396.612 141.922C396.799 142.183 397.097 142.314 397.508 142.314ZM401.114 137.428C401.179 136.569 401.51 135.897 402.108 135.412C402.705 134.927 403.48 134.684 404.432 134.684C405.066 134.684 405.612 134.801 406.07 135.034C406.536 135.258 406.886 135.566 407.12 135.958C407.362 136.35 407.484 136.793 407.484 137.288C407.484 137.867 407.316 138.366 406.98 138.786C406.653 139.206 406.224 139.477 405.692 139.598V139.668C406.298 139.817 406.779 140.111 407.134 140.55C407.488 140.989 407.666 141.563 407.666 142.272C407.666 142.804 407.544 143.285 407.302 143.714C407.059 144.134 406.695 144.465 406.21 144.708C405.724 144.951 405.141 145.072 404.46 145.072C403.47 145.072 402.658 144.815 402.024 144.302C401.389 143.779 401.034 143.042 400.96 142.09H402.192C402.257 142.65 402.486 143.107 402.878 143.462C403.27 143.817 403.792 143.994 404.446 143.994C405.099 143.994 405.594 143.826 405.93 143.49C406.275 143.145 406.448 142.701 406.448 142.16C406.448 141.46 406.214 140.956 405.748 140.648C405.281 140.34 404.576 140.186 403.634 140.186H403.312V139.122H403.648C404.506 139.113 405.155 138.973 405.594 138.702C406.032 138.422 406.252 137.993 406.252 137.414C406.252 136.919 406.088 136.523 405.762 136.224C405.444 135.925 404.987 135.776 404.39 135.776C403.811 135.776 403.344 135.925 402.99 136.224C402.635 136.523 402.425 136.924 402.36 137.428H401.114ZM409.386 139.836C409.386 138.231 409.647 136.98 410.17 136.084C410.692 135.179 411.607 134.726 412.914 134.726C414.211 134.726 415.121 135.179 415.644 136.084C416.166 136.98 416.428 138.231 416.428 139.836C416.428 141.469 416.166 142.739 415.644 143.644C415.121 144.549 414.211 145.002 412.914 145.002C411.607 145.002 410.692 144.549 410.17 143.644C409.647 142.739 409.386 141.469 409.386 139.836ZM415.168 139.836C415.168 139.024 415.112 138.338 415 137.778C414.897 137.209 414.678 136.751 414.342 136.406C414.015 136.061 413.539 135.888 412.914 135.888C412.279 135.888 411.794 136.061 411.458 136.406C411.131 136.751 410.912 137.209 410.8 137.778C410.697 138.338 410.646 139.024 410.646 139.836C410.646 140.676 410.697 141.381 410.8 141.95C410.912 142.519 411.131 142.977 411.458 143.322C411.794 143.667 412.279 143.84 412.914 143.84C413.539 143.84 414.015 143.667 414.342 143.322C414.678 142.977 414.897 142.519 415 141.95C415.112 141.381 415.168 140.676 415.168 139.836ZM423.819 137.288C423.613 136.252 422.974 135.734 421.901 135.734C421.07 135.734 420.449 136.056 420.039 136.7C419.628 137.335 419.427 138.385 419.437 139.85C419.651 139.365 420.006 138.987 420.501 138.716C421.005 138.436 421.565 138.296 422.181 138.296C423.142 138.296 423.907 138.595 424.477 139.192C425.055 139.789 425.345 140.615 425.345 141.67C425.345 142.305 425.219 142.874 424.967 143.378C424.724 143.882 424.351 144.283 423.847 144.582C423.352 144.881 422.75 145.03 422.041 145.03C421.079 145.03 420.328 144.815 419.787 144.386C419.245 143.957 418.867 143.364 418.653 142.608C418.438 141.852 418.331 140.919 418.331 139.808C418.331 136.383 419.525 134.67 421.915 134.67C422.829 134.67 423.548 134.917 424.071 135.412C424.593 135.907 424.901 136.532 424.995 137.288H423.819ZM421.915 139.374C421.513 139.374 421.135 139.458 420.781 139.626C420.426 139.785 420.137 140.032 419.913 140.368C419.698 140.695 419.591 141.096 419.591 141.572C419.591 142.281 419.796 142.86 420.207 143.308C420.617 143.747 421.205 143.966 421.971 143.966C422.624 143.966 423.142 143.765 423.525 143.364C423.917 142.953 424.113 142.403 424.113 141.712C424.113 140.984 423.926 140.415 423.553 140.004C423.179 139.584 422.633 139.374 421.915 139.374Z" fill="#2B3674"/>
<rect x="378.5" y="128.502" width="56" height="24" rx="3.5" stroke="#DADEE7"/>
<rect x="617" y="149.002" width="19" height="17" rx="4" fill="#DADEE7"/>
<path d="M628.45 161.002L627.59 158.792H624.76L623.91 161.002H623L625.79 153.832H626.6L629.38 161.002H628.45ZM626.52 155.832C626.5 155.779 626.467 155.682 626.42 155.542C626.374 155.402 626.327 155.259 626.28 155.112C626.24 154.959 626.207 154.842 626.18 154.762C626.147 154.895 626.11 155.032 626.07 155.172C626.037 155.305 626 155.429 625.96 155.542C625.927 155.655 625.897 155.752 625.87 155.832L625.06 157.992H627.32L626.52 155.832Z" fill="#2B3674"/>
<rect x="320" y="149.002" width="19" height="17" rx="4" fill="#DADEE7"/>
<path d="M331.45 161.002L330.59 158.792H327.76L326.91 161.002H326L328.79 153.832H329.6L332.38 161.002H331.45ZM329.52 155.832C329.5 155.779 329.467 155.682 329.42 155.542C329.373 155.402 329.327 155.259 329.28 155.112C329.24 154.959 329.207 154.842 329.18 154.762C329.147 154.895 329.11 155.032 329.07 155.172C329.037 155.305 329 155.429 328.96 155.542C328.927 155.655 328.897 155.752 328.87 155.832L328.06 157.992H330.32L329.52 155.832Z" fill="#2B3674"/>
<rect x="768" y="149.002" width="19" height="17" rx="4" fill="#DADEE7"/>
<path d="M774.97 161.002V153.862H779.21V154.652H775.87V156.882H776.93C777.644 156.882 778.197 156.972 778.59 157.152C778.984 157.325 779.257 157.565 779.41 157.872C779.564 158.172 779.64 158.519 779.64 158.912C779.64 159.345 779.554 159.719 779.38 160.032C779.214 160.345 778.94 160.585 778.56 160.752C778.18 160.919 777.68 161.002 777.06 161.002H774.97ZM776.97 160.232C777.61 160.232 778.06 160.125 778.32 159.912C778.58 159.692 778.71 159.359 778.71 158.912C778.71 158.605 778.647 158.362 778.52 158.182C778.4 157.995 778.2 157.862 777.92 157.782C777.647 157.702 777.28 157.662 776.82 157.662H775.87V160.232H776.97Z" fill="#2B3674"/>
<rect x="471" y="149.002" width="19" height="17" rx="4" fill="#DADEE7"/>
<path d="M477.97 161.002V153.862H482.21V154.652H478.87V156.882H479.93C480.643 156.882 481.197 156.972 481.59 157.152C481.983 157.325 482.257 157.565 482.41 157.872C482.563 158.172 482.64 158.519 482.64 158.912C482.64 159.345 482.553 159.719 482.38 160.032C482.213 160.345 481.94 160.585 481.56 160.752C481.18 160.919 480.68 161.002 480.06 161.002H477.97ZM479.97 160.232C480.61 160.232 481.06 160.125 481.32 159.912C481.58 159.692 481.71 159.359 481.71 158.912C481.71 158.605 481.647 158.362 481.52 158.182C481.4 157.995 481.2 157.862 480.92 157.782C480.647 157.702 480.28 157.662 479.82 157.662H478.87V160.232H479.97Z" fill="#2B3674"/>
<rect x="701" y="172.002" width="2" height="43" rx="1" fill="#B0BBD5"/>
<rect x="945" y="172" width="2" height="43" rx="1" fill="#B0BBD5"/>
<rect x="1136" y="172" width="2" height="43" rx="1" fill="#B0BBD5"/>
<rect x="404" y="172" width="2" height="43" rx="1" fill="#B0BBD5"/>
</svg>
