<svg width="1250" height="215" viewBox="0 0 1250 215" fill="none" xmlns="http://www.w3.org/2000/svg">
<rect width="1250" height="215" rx="20" fill="white"/>
<path fill-rule="evenodd" clip-rule="evenodd" d="M924 148L924 215L922.5 215L922.5 148C922.5 146.067 920.933 144.5 919 144.5L817 144.5L817 143L919 143C921.761 143 924 145.238 924 148ZM732 142.999L631 142.999C628.239 142.999 626 145.238 626 147.999L626 214.999L627.5 214.999L627.5 147.999C627.5 146.066 629.067 144.499 631 144.499L732 144.499L732 142.999Z" fill="#B0BBD5"/>
<rect x="658.778" y="174.705" width="19.4444" height="30.2951" rx="4" fill="#4318FF"/>
<mask id="path-4-inside-1_0_3102" fill="white">
<path d="M656 178C656 174.686 658.686 172 662 172H675C678.314 172 681 174.686 681 178V191.475H656V178Z"/>
</mask>
<path d="M654 178C654 173.582 657.582 170 662 170H675C679.418 170 683 173.582 683 178H679C679 175.791 677.209 174 675 174H662C659.791 174 658 175.791 658 178H654ZM681 191.475H656H681ZM654 191.475V178C654 173.582 657.582 170 662 170V174C659.791 174 658 175.791 658 178V191.475H654ZM675 170C679.418 170 683 173.582 683 178V191.475H679V178C679 175.791 677.209 174 675 174V170Z" fill="#4318FF" mask="url(#path-4-inside-1_0_3102)"/>
<rect x="809.278" y="175.205" width="18.4444" height="29.2951" rx="3.5" fill="#DADEE7" stroke="#DADEE7"/>
<mask id="path-7-inside-2_0_3102" fill="white">
<path d="M806 178C806 174.686 808.686 172 812 172H825C828.314 172 831 174.686 831 178V191.475H806V178Z"/>
</mask>
<path d="M804 178C804 173.582 807.582 170 812 170H825C829.418 170 833 173.582 833 178H829C829 175.791 827.209 174 825 174H812C809.791 174 808 175.791 808 178H804ZM831 191.475H806H831ZM804 191.475V178C804 173.582 807.582 170 812 170V174C809.791 174 808 175.791 808 178V191.475H804ZM825 170C829.418 170 833 173.582 833 178V191.475H829V178C829 175.791 827.209 174 825 174V170Z" fill="#DADEE7" mask="url(#path-7-inside-2_0_3102)"/>
<rect x="689.684" y="174.705" width="19.4444" height="30.2951" rx="4" fill="#4318FF"/>
<mask id="path-10-inside-3_0_3102" fill="white">
<path d="M686.906 178C686.906 174.686 689.593 172 692.906 172H705.906C709.22 172 711.906 174.686 711.906 178V191.475H686.906V178Z"/>
</mask>
<path d="M684.906 178C684.906 173.582 688.488 170 692.906 170H705.906C710.325 170 713.906 173.582 713.906 178H709.906C709.906 175.791 708.115 174 705.906 174H692.906C690.697 174 688.906 175.791 688.906 178H684.906ZM711.906 191.475H686.906H711.906ZM684.906 191.475V178C684.906 173.582 688.488 170 692.906 170V174C690.697 174 688.906 175.791 688.906 178V191.475H684.906ZM705.906 170C710.325 170 713.906 173.582 713.906 178V191.475H709.906V178C709.906 175.791 708.115 174 705.906 174V170Z" fill="#4318FF" mask="url(#path-10-inside-3_0_3102)"/>
<rect x="840.184" y="175.205" width="18.4444" height="29.2951" rx="3.5" fill="#DADEE7" stroke="#DADEE7"/>
<mask id="path-13-inside-4_0_3102" fill="white">
<path d="M836.906 178C836.906 174.686 839.593 172 842.906 172H855.906C859.22 172 861.906 174.686 861.906 178V191.475H836.906V178Z"/>
</mask>
<path d="M834.906 178C834.906 173.582 838.488 170 842.906 170H855.906C860.325 170 863.906 173.582 863.906 178H859.906C859.906 175.791 858.115 174 855.906 174H842.906C840.697 174 838.906 175.791 838.906 178H834.906ZM861.906 191.475H836.906H861.906ZM834.906 191.475V178C834.906 173.582 838.488 170 842.906 170V174C840.697 174 838.906 175.791 838.906 178V191.475H834.906ZM855.906 170C860.325 170 863.906 173.582 863.906 178V191.475H859.906V178C859.906 175.791 858.115 174 855.906 174V170Z" fill="#DADEE7" mask="url(#path-13-inside-4_0_3102)"/>
<rect x="721.09" y="175.205" width="18.4444" height="29.2951" rx="3.5" fill="#DADEE7" stroke="#DADEE7"/>
<mask id="path-16-inside-5_0_3102" fill="white">
<path d="M717.812 178C717.812 174.686 720.499 172 723.812 172H736.812C740.126 172 742.812 174.686 742.812 178V191.475H717.812V178Z"/>
</mask>
<path d="M715.812 178C715.812 173.582 719.394 170 723.812 170H736.812C741.231 170 744.812 173.582 744.812 178H740.812C740.812 175.791 739.022 174 736.812 174H723.812C721.603 174 719.812 175.791 719.812 178H715.812ZM742.812 191.475H717.812H742.812ZM715.812 191.475V178C715.812 173.582 719.394 170 723.812 170V174C721.603 174 719.812 175.791 719.812 178V191.475H715.812ZM736.812 170C741.231 170 744.812 173.582 744.812 178V191.475H740.812V178C740.812 175.791 739.022 174 736.812 174V170Z" fill="#DADEE7" mask="url(#path-16-inside-5_0_3102)"/>
<rect x="870.59" y="174.705" width="19.4444" height="30.2951" rx="4" fill="#4318FF"/>
<mask id="path-19-inside-6_0_3102" fill="white">
<path d="M867.812 178C867.812 174.686 870.499 172 873.812 172H886.812C890.126 172 892.812 174.686 892.812 178V191.475H867.812V178Z"/>
</mask>
<path d="M865.812 178C865.812 173.582 869.394 170 873.812 170H886.812C891.231 170 894.812 173.582 894.812 178H890.812C890.812 175.791 889.022 174 886.812 174H873.812C871.603 174 869.812 175.791 869.812 178H865.812ZM892.812 191.475H867.812H892.812ZM865.812 191.475V178C865.812 173.582 869.394 170 873.812 170V174C871.603 174 869.812 175.791 869.812 178V191.475H865.812ZM886.812 170C891.231 170 894.812 173.582 894.812 178V191.475H890.812V178C890.812 175.791 889.022 174 886.812 174V170Z" fill="#4318FF" mask="url(#path-19-inside-6_0_3102)"/>
<rect x="749.5" y="128.5" width="51" height="24" rx="3.5" fill="#DADEE7"/>
<path d="M758.33 145V135.004H759.744L764.294 143.236H764.35C764.341 142.993 764.327 142.713 764.308 142.396C764.289 142.079 764.275 141.761 764.266 141.444C764.257 141.117 764.252 140.837 764.252 140.604V135.004H765.358V145H763.986L759.38 136.74H759.324C759.343 136.983 759.357 137.272 759.366 137.608C759.385 137.935 759.399 138.261 759.408 138.588C759.427 138.915 759.436 139.204 759.436 139.456V145H758.33ZM766.688 145V144.034H770.286V145H766.688ZM768.48 143.124C768.079 143.124 767.719 143.035 767.402 142.858C767.094 142.671 766.851 142.401 766.674 142.046C766.497 141.691 766.408 141.257 766.408 140.744C766.408 139.979 766.595 139.395 766.968 138.994C767.351 138.583 767.869 138.378 768.522 138.378C768.923 138.378 769.278 138.471 769.586 138.658C769.903 138.835 770.151 139.101 770.328 139.456C770.515 139.801 770.608 140.231 770.608 140.744C770.608 141.509 770.417 142.097 770.034 142.508C769.651 142.919 769.133 143.124 768.48 143.124ZM768.508 142.312C768.919 142.312 769.213 142.181 769.39 141.92C769.567 141.649 769.656 141.257 769.656 140.744C769.656 140.221 769.567 139.839 769.39 139.596C769.213 139.344 768.919 139.218 768.508 139.218C768.107 139.218 767.813 139.344 767.626 139.596C767.439 139.839 767.346 140.221 767.346 140.744C767.346 141.257 767.435 141.649 767.612 141.92C767.799 142.181 768.097 142.312 768.508 142.312ZM778.595 135.984H773.681V139.176C773.896 138.877 774.213 138.635 774.633 138.448C775.053 138.252 775.506 138.154 775.991 138.154C776.766 138.154 777.396 138.317 777.881 138.644C778.367 138.961 778.712 139.377 778.917 139.89C779.132 140.394 779.239 140.931 779.239 141.5C779.239 142.172 779.113 142.774 778.861 143.306C778.609 143.838 778.222 144.258 777.699 144.566C777.186 144.874 776.547 145.028 775.781 145.028C774.801 145.028 774.008 144.776 773.401 144.272C772.795 143.768 772.426 143.096 772.295 142.256H773.541C773.663 142.788 773.919 143.203 774.311 143.502C774.703 143.801 775.198 143.95 775.795 143.95C776.533 143.95 777.088 143.731 777.461 143.292C777.835 142.844 778.021 142.256 778.021 141.528C778.021 140.8 777.835 140.24 777.461 139.848C777.088 139.447 776.537 139.246 775.809 139.246C775.315 139.246 774.881 139.367 774.507 139.61C774.143 139.843 773.877 140.165 773.709 140.576H772.505V134.864H778.595V135.984ZM780.596 136.04V134.878H783.228V145H781.94V136.04H780.596ZM785.263 143.978C786.448 143.026 787.377 142.247 788.049 141.64C788.721 141.024 789.285 140.385 789.743 139.722C790.209 139.05 790.443 138.392 790.443 137.748C790.443 137.141 790.293 136.665 789.995 136.32C789.705 135.965 789.234 135.788 788.581 135.788C787.946 135.788 787.451 135.989 787.097 136.39C786.751 136.782 786.565 137.309 786.537 137.972H785.305C785.342 136.927 785.659 136.119 786.257 135.55C786.854 134.981 787.624 134.696 788.567 134.696C789.528 134.696 790.289 134.962 790.849 135.494C791.418 136.026 791.703 136.759 791.703 137.692C791.703 138.467 791.469 139.223 791.003 139.96C790.545 140.688 790.023 141.332 789.435 141.892C788.847 142.443 788.095 143.087 787.181 143.824H791.997V144.888H785.263V143.978Z" fill="#2B3674"/>
<rect x="749.5" y="128.5" width="51" height="24" rx="3.5" stroke="#DADEE7"/>
<rect x="690" y="149" width="19" height="17" rx="4" fill="#DADEE7"/>
<path d="M701.45 161L700.59 158.79H697.76L696.91 161H696L698.79 153.83H699.6L702.38 161H701.45ZM699.52 155.83C699.5 155.777 699.467 155.68 699.42 155.54C699.373 155.4 699.327 155.257 699.28 155.11C699.24 154.957 699.207 154.84 699.18 154.76C699.147 154.893 699.11 155.03 699.07 155.17C699.037 155.303 699 155.427 698.96 155.54C698.927 155.653 698.897 155.75 698.87 155.83L698.06 157.99H700.32L699.52 155.83Z" fill="#2B3674"/>
<rect x="841" y="149" width="19" height="17" rx="4" fill="#DADEE7"/>
<path d="M847.97 161V153.86H852.21V154.65H848.87V156.88H849.93C850.643 156.88 851.197 156.97 851.59 157.15C851.983 157.323 852.257 157.563 852.41 157.87C852.563 158.17 852.64 158.517 852.64 158.91C852.64 159.343 852.553 159.717 852.38 160.03C852.213 160.343 851.94 160.583 851.56 160.75C851.18 160.917 850.68 161 850.06 161H847.97ZM849.97 160.23C850.61 160.23 851.06 160.123 851.32 159.91C851.58 159.69 851.71 159.357 851.71 158.91C851.71 158.603 851.647 158.36 851.52 158.18C851.4 157.993 851.2 157.86 850.92 157.78C850.647 157.7 850.28 157.66 849.82 157.66H848.87V160.23H849.97Z" fill="#2B3674"/>
<rect x="774" y="172" width="2" height="43" rx="1" fill="#B0BBD5"/>
<path fill-rule="evenodd" clip-rule="evenodd" d="M627 148L627 215L625.5 215L625.5 148C625.5 146.067 623.933 144.5 622 144.5L520 144.5L520 143L622 143C624.761 143 627 145.238 627 148ZM435 142.999L334 142.999C331.239 142.999 329 145.238 329 147.999L329 214.999L330.5 214.999L330.5 147.999C330.5 146.066 332.067 144.499 334 144.499L435 144.499L435 142.999Z" fill="#B0BBD5"/>
<rect x="361.778" y="174.705" width="19.4444" height="30.2951" rx="4" fill="#4318FF"/>
<mask id="path-30-inside-7_0_3102" fill="white">
<path d="M359 178C359 174.686 361.686 172 365 172H378C381.314 172 384 174.686 384 178V191.475H359V178Z"/>
</mask>
<path d="M357 178C357 173.582 360.582 170 365 170H378C382.418 170 386 173.582 386 178H382C382 175.791 380.209 174 378 174H365C362.791 174 361 175.791 361 178H357ZM384 191.475H359H384ZM357 191.475V178C357 173.582 360.582 170 365 170V174C362.791 174 361 175.791 361 178V191.475H357ZM378 170C382.418 170 386 173.582 386 178V191.475H382V178C382 175.791 380.209 174 378 174V170Z" fill="#4318FF" mask="url(#path-30-inside-7_0_3102)"/>
<rect x="512.278" y="175.205" width="18.4444" height="29.2951" rx="3.5" fill="#DADEE7" stroke="#DADEE7"/>
<mask id="path-33-inside-8_0_3102" fill="white">
<path d="M509 178C509 174.686 511.686 172 515 172H528C531.314 172 534 174.686 534 178V191.475H509V178Z"/>
</mask>
<path d="M507 178C507 173.582 510.582 170 515 170H528C532.418 170 536 173.582 536 178H532C532 175.791 530.209 174 528 174H515C512.791 174 511 175.791 511 178H507ZM534 191.475H509H534ZM507 191.475V178C507 173.582 510.582 170 515 170V174C512.791 174 511 175.791 511 178V191.475H507ZM528 170C532.418 170 536 173.582 536 178V191.475H532V178C532 175.791 530.209 174 528 174V170Z" fill="#DADEE7" mask="url(#path-33-inside-8_0_3102)"/>
<rect x="392.684" y="174.705" width="19.4444" height="30.2951" rx="4" fill="#4318FF"/>
<mask id="path-36-inside-9_0_3102" fill="white">
<path d="M389.906 178C389.906 174.686 392.593 172 395.906 172H408.906C412.22 172 414.906 174.686 414.906 178V191.475H389.906V178Z"/>
</mask>
<path d="M387.906 178C387.906 173.582 391.488 170 395.906 170H408.906C413.325 170 416.906 173.582 416.906 178H412.906C412.906 175.791 411.115 174 408.906 174H395.906C393.697 174 391.906 175.791 391.906 178H387.906ZM414.906 191.475H389.906H414.906ZM387.906 191.475V178C387.906 173.582 391.488 170 395.906 170V174C393.697 174 391.906 175.791 391.906 178V191.475H387.906ZM408.906 170C413.325 170 416.906 173.582 416.906 178V191.475H412.906V178C412.906 175.791 411.115 174 408.906 174V170Z" fill="#4318FF" mask="url(#path-36-inside-9_0_3102)"/>
<rect x="543.184" y="175.205" width="18.4444" height="29.2951" rx="3.5" fill="#DADEE7" stroke="#DADEE7"/>
<mask id="path-39-inside-10_0_3102" fill="white">
<path d="M539.906 178C539.906 174.686 542.593 172 545.906 172H558.906C562.22 172 564.906 174.686 564.906 178V191.475H539.906V178Z"/>
</mask>
<path d="M537.906 178C537.906 173.582 541.488 170 545.906 170H558.906C563.325 170 566.906 173.582 566.906 178H562.906C562.906 175.791 561.115 174 558.906 174H545.906C543.697 174 541.906 175.791 541.906 178H537.906ZM564.906 191.475H539.906H564.906ZM537.906 191.475V178C537.906 173.582 541.488 170 545.906 170V174C543.697 174 541.906 175.791 541.906 178V191.475H537.906ZM558.906 170C563.325 170 566.906 173.582 566.906 178V191.475H562.906V178C562.906 175.791 561.115 174 558.906 174V170Z" fill="#DADEE7" mask="url(#path-39-inside-10_0_3102)"/>
<rect x="424.09" y="175.205" width="18.4444" height="29.2951" rx="3.5" fill="#DADEE7" stroke="#DADEE7"/>
<mask id="path-42-inside-11_0_3102" fill="white">
<path d="M420.812 178C420.812 174.686 423.499 172 426.812 172H439.812C443.126 172 445.812 174.686 445.812 178V191.475H420.812V178Z"/>
</mask>
<path d="M418.812 178C418.812 173.582 422.394 170 426.812 170H439.812C444.231 170 447.812 173.582 447.812 178H443.812C443.812 175.791 442.022 174 439.812 174H426.812C424.603 174 422.812 175.791 422.812 178H418.812ZM445.812 191.475H420.812H445.812ZM418.812 191.475V178C418.812 173.582 422.394 170 426.812 170V174C424.603 174 422.812 175.791 422.812 178V191.475H418.812ZM439.812 170C444.231 170 447.812 173.582 447.812 178V191.475H443.812V178C443.812 175.791 442.022 174 439.812 174V170Z" fill="#DADEE7" mask="url(#path-42-inside-11_0_3102)"/>
<rect x="573.59" y="174.705" width="19.4444" height="30.2951" rx="4" fill="#4318FF"/>
<mask id="path-45-inside-12_0_3102" fill="white">
<path d="M570.812 178C570.812 174.686 573.499 172 576.812 172H589.812C593.126 172 595.812 174.686 595.812 178V191.475H570.812V178Z"/>
</mask>
<path d="M568.812 178C568.812 173.582 572.394 170 576.812 170H589.812C594.231 170 597.812 173.582 597.812 178H593.812C593.812 175.791 592.022 174 589.812 174H576.812C574.603 174 572.812 175.791 572.812 178H568.812ZM595.812 191.475H570.812H595.812ZM568.812 191.475V178C568.812 173.582 572.394 170 576.812 170V174C574.603 174 572.812 175.791 572.812 178V191.475H568.812ZM589.812 170C594.231 170 597.812 173.582 597.812 178V191.475H593.812V178C593.812 175.791 592.022 174 589.812 174V170Z" fill="#4318FF" mask="url(#path-45-inside-12_0_3102)"/>
<rect x="452.5" y="128.5" width="51" height="24" rx="3.5" fill="#DADEE7"/>
<path d="M461.33 145V135.004H462.744L467.294 143.236H467.35C467.341 142.993 467.327 142.713 467.308 142.396C467.289 142.079 467.275 141.761 467.266 141.444C467.257 141.117 467.252 140.837 467.252 140.604V135.004H468.358V145H466.986L462.38 136.74H462.324C462.343 136.983 462.357 137.272 462.366 137.608C462.385 137.935 462.399 138.261 462.408 138.588C462.427 138.915 462.436 139.204 462.436 139.456V145H461.33ZM469.688 145V144.034H473.286V145H469.688ZM471.48 143.124C471.079 143.124 470.719 143.035 470.402 142.858C470.094 142.671 469.851 142.401 469.674 142.046C469.497 141.691 469.408 141.257 469.408 140.744C469.408 139.979 469.595 139.395 469.968 138.994C470.351 138.583 470.869 138.378 471.522 138.378C471.923 138.378 472.278 138.471 472.586 138.658C472.903 138.835 473.151 139.101 473.328 139.456C473.515 139.801 473.608 140.231 473.608 140.744C473.608 141.509 473.417 142.097 473.034 142.508C472.651 142.919 472.133 143.124 471.48 143.124ZM471.508 142.312C471.919 142.312 472.213 142.181 472.39 141.92C472.567 141.649 472.656 141.257 472.656 140.744C472.656 140.221 472.567 139.839 472.39 139.596C472.213 139.344 471.919 139.218 471.508 139.218C471.107 139.218 470.813 139.344 470.626 139.596C470.439 139.839 470.346 140.221 470.346 140.744C470.346 141.257 470.435 141.649 470.612 141.92C470.799 142.181 471.097 142.312 471.508 142.312ZM481.595 135.984H476.681V139.176C476.896 138.877 477.213 138.635 477.633 138.448C478.053 138.252 478.506 138.154 478.991 138.154C479.766 138.154 480.396 138.317 480.881 138.644C481.367 138.961 481.712 139.377 481.917 139.89C482.132 140.394 482.239 140.931 482.239 141.5C482.239 142.172 482.113 142.774 481.861 143.306C481.609 143.838 481.222 144.258 480.699 144.566C480.186 144.874 479.547 145.028 478.781 145.028C477.801 145.028 477.008 144.776 476.401 144.272C475.795 143.768 475.426 143.096 475.295 142.256H476.541C476.663 142.788 476.919 143.203 477.311 143.502C477.703 143.801 478.198 143.95 478.795 143.95C479.533 143.95 480.088 143.731 480.461 143.292C480.835 142.844 481.021 142.256 481.021 141.528C481.021 140.8 480.835 140.24 480.461 139.848C480.088 139.447 479.537 139.246 478.809 139.246C478.315 139.246 477.881 139.367 477.507 139.61C477.143 139.843 476.877 140.165 476.709 140.576H475.505V134.864H481.595V135.984ZM483.596 136.04V134.878H486.228V145H484.94V136.04H483.596ZM488.389 137.426C488.454 136.567 488.785 135.895 489.383 135.41C489.98 134.925 490.755 134.682 491.707 134.682C492.341 134.682 492.887 134.799 493.345 135.032C493.811 135.256 494.161 135.564 494.395 135.956C494.637 136.348 494.759 136.791 494.759 137.286C494.759 137.865 494.591 138.364 494.255 138.784C493.928 139.204 493.499 139.475 492.967 139.596V139.666C493.573 139.815 494.054 140.109 494.409 140.548C494.763 140.987 494.941 141.561 494.941 142.27C494.941 142.802 494.819 143.283 494.577 143.712C494.334 144.132 493.97 144.463 493.485 144.706C492.999 144.949 492.416 145.07 491.735 145.07C490.745 145.07 489.933 144.813 489.299 144.3C488.664 143.777 488.309 143.04 488.235 142.088H489.467C489.532 142.648 489.761 143.105 490.153 143.46C490.545 143.815 491.067 143.992 491.721 143.992C492.374 143.992 492.869 143.824 493.205 143.488C493.55 143.143 493.723 142.699 493.723 142.158C493.723 141.458 493.489 140.954 493.023 140.646C492.556 140.338 491.851 140.184 490.909 140.184H490.587V139.12H490.923C491.781 139.111 492.43 138.971 492.869 138.7C493.307 138.42 493.527 137.991 493.527 137.412C493.527 136.917 493.363 136.521 493.037 136.222C492.719 135.923 492.262 135.774 491.665 135.774C491.086 135.774 490.619 135.923 490.265 136.222C489.91 136.521 489.7 136.922 489.635 137.426H488.389Z" fill="#2B3674"/>
<rect x="452.5" y="128.5" width="51" height="24" rx="3.5" stroke="#DADEE7"/>
<rect x="393" y="149" width="19" height="17" rx="4" fill="#DADEE7"/>
<path d="M404.45 161L403.59 158.79H400.76L399.91 161H399L401.79 153.83H402.6L405.38 161H404.45ZM402.52 155.83C402.5 155.777 402.467 155.68 402.42 155.54C402.373 155.4 402.327 155.257 402.28 155.11C402.24 154.957 402.207 154.84 402.18 154.76C402.147 154.893 402.11 155.03 402.07 155.17C402.037 155.303 402 155.427 401.96 155.54C401.927 155.653 401.897 155.75 401.87 155.83L401.06 157.99H403.32L402.52 155.83Z" fill="#2B3674"/>
<rect x="544" y="149" width="19" height="17" rx="4" fill="#DADEE7"/>
<path d="M550.97 161V153.86H555.21V154.65H551.87V156.88H552.93C553.643 156.88 554.197 156.97 554.59 157.15C554.983 157.323 555.257 157.563 555.41 157.87C555.563 158.17 555.64 158.517 555.64 158.91C555.64 159.343 555.553 159.717 555.38 160.03C555.213 160.343 554.94 160.583 554.56 160.75C554.18 160.917 553.68 161 553.06 161H550.97ZM552.97 160.23C553.61 160.23 554.06 160.123 554.32 159.91C554.58 159.69 554.71 159.357 554.71 158.91C554.71 158.603 554.647 158.36 554.52 158.18C554.4 157.993 554.2 157.86 553.92 157.78C553.647 157.7 553.28 157.66 552.82 157.66H551.87V160.23H552.97Z" fill="#2B3674"/>
<rect x="477" y="172" width="2" height="43" rx="1" fill="#B0BBD5"/>
<path fill-rule="evenodd" clip-rule="evenodd" d="M330 148L330 215L328.5 215L328.5 148C328.5 146.067 326.933 144.5 325 144.5L223 144.5L223 143L325 143C327.761 143 330 145.238 330 148ZM138 142.999L37 142.999C34.2386 142.999 32 145.238 32 147.999L32 214.999L33.5 214.999L33.5 147.999C33.5 146.066 35.067 144.499 37 144.499L138 144.499L138 142.999Z" fill="#B0BBD5"/>
<rect x="64.7778" y="174.705" width="19.4444" height="30.2951" rx="4" fill="#4318FF"/>
<mask id="path-56-inside-13_0_3102" fill="white">
<path d="M62 178C62 174.686 64.6863 172 68 172H81C84.3137 172 87 174.686 87 178V191.475H62V178Z"/>
</mask>
<path d="M60 178C60 173.582 63.5817 170 68 170H81C85.4183 170 89 173.582 89 178H85C85 175.791 83.2091 174 81 174H68C65.7909 174 64 175.791 64 178H60ZM87 191.475H62H87ZM60 191.475V178C60 173.582 63.5817 170 68 170V174C65.7909 174 64 175.791 64 178V191.475H60ZM81 170C85.4183 170 89 173.582 89 178V191.475H85V178C85 175.791 83.2091 174 81 174V170Z" fill="#4318FF" mask="url(#path-56-inside-13_0_3102)"/>
<rect x="215.278" y="175.205" width="18.4444" height="29.2951" rx="3.5" fill="#DADEE7" stroke="#DADEE7"/>
<mask id="path-59-inside-14_0_3102" fill="white">
<path d="M212 178C212 174.686 214.686 172 218 172H231C234.314 172 237 174.686 237 178V191.475H212V178Z"/>
</mask>
<path d="M210 178C210 173.582 213.582 170 218 170H231C235.418 170 239 173.582 239 178H235C235 175.791 233.209 174 231 174H218C215.791 174 214 175.791 214 178H210ZM237 191.475H212H237ZM210 191.475V178C210 173.582 213.582 170 218 170V174C215.791 174 214 175.791 214 178V191.475H210ZM231 170C235.418 170 239 173.582 239 178V191.475H235V178C235 175.791 233.209 174 231 174V170Z" fill="#DADEE7" mask="url(#path-59-inside-14_0_3102)"/>
<rect x="95.6841" y="174.705" width="19.4444" height="30.2951" rx="4" fill="#4318FF"/>
<mask id="path-62-inside-15_0_3102" fill="white">
<path d="M92.9062 178C92.9062 174.686 95.5925 172 98.9062 172H111.906C115.22 172 117.906 174.686 117.906 178V191.475H92.9062V178Z"/>
</mask>
<path d="M90.9062 178C90.9062 173.582 94.488 170 98.9062 170H111.906C116.325 170 119.906 173.582 119.906 178H115.906C115.906 175.791 114.115 174 111.906 174H98.9062C96.6971 174 94.9062 175.791 94.9062 178H90.9062ZM117.906 191.475H92.9062H117.906ZM90.9062 191.475V178C90.9062 173.582 94.488 170 98.9062 170V174C96.6971 174 94.9062 175.791 94.9062 178V191.475H90.9062ZM111.906 170C116.325 170 119.906 173.582 119.906 178V191.475H115.906V178C115.906 175.791 114.115 174 111.906 174V170Z" fill="#4318FF" mask="url(#path-62-inside-15_0_3102)"/>
<rect x="246.184" y="175.205" width="18.4444" height="29.2951" rx="3.5" fill="#DADEE7" stroke="#DADEE7"/>
<mask id="path-65-inside-16_0_3102" fill="white">
<path d="M242.906 178C242.906 174.686 245.593 172 248.906 172H261.906C265.22 172 267.906 174.686 267.906 178V191.475H242.906V178Z"/>
</mask>
<path d="M240.906 178C240.906 173.582 244.488 170 248.906 170H261.906C266.325 170 269.906 173.582 269.906 178H265.906C265.906 175.791 264.115 174 261.906 174H248.906C246.697 174 244.906 175.791 244.906 178H240.906ZM267.906 191.475H242.906H267.906ZM240.906 191.475V178C240.906 173.582 244.488 170 248.906 170V174C246.697 174 244.906 175.791 244.906 178V191.475H240.906ZM261.906 170C266.325 170 269.906 173.582 269.906 178V191.475H265.906V178C265.906 175.791 264.115 174 261.906 174V170Z" fill="#DADEE7" mask="url(#path-65-inside-16_0_3102)"/>
<rect x="127.09" y="175.205" width="18.4444" height="29.2951" rx="3.5" fill="#DADEE7" stroke="#DADEE7"/>
<mask id="path-68-inside-17_0_3102" fill="white">
<path d="M123.812 178C123.812 174.686 126.499 172 129.812 172H142.812C146.126 172 148.812 174.686 148.812 178V191.475H123.812V178Z"/>
</mask>
<path d="M121.812 178C121.812 173.582 125.394 170 129.812 170H142.812C147.231 170 150.812 173.582 150.812 178H146.812C146.812 175.791 145.022 174 142.812 174H129.812C127.603 174 125.812 175.791 125.812 178H121.812ZM148.812 191.475H123.812H148.812ZM121.812 191.475V178C121.812 173.582 125.394 170 129.812 170V174C127.603 174 125.812 175.791 125.812 178V191.475H121.812ZM142.812 170C147.231 170 150.812 173.582 150.812 178V191.475H146.812V178C146.812 175.791 145.022 174 142.812 174V170Z" fill="#DADEE7" mask="url(#path-68-inside-17_0_3102)"/>
<rect x="276.59" y="174.705" width="19.4444" height="30.2951" rx="4" fill="#4318FF"/>
<mask id="path-71-inside-18_0_3102" fill="white">
<path d="M273.812 178C273.812 174.686 276.499 172 279.812 172H292.812C296.126 172 298.812 174.686 298.812 178V191.475H273.812V178Z"/>
</mask>
<path d="M271.812 178C271.812 173.582 275.394 170 279.812 170H292.812C297.231 170 300.812 173.582 300.812 178H296.812C296.812 175.791 295.022 174 292.812 174H279.812C277.603 174 275.812 175.791 275.812 178H271.812ZM298.812 191.475H273.812H298.812ZM271.812 191.475V178C271.812 173.582 275.394 170 279.812 170V174C277.603 174 275.812 175.791 275.812 178V191.475H271.812ZM292.812 170C297.231 170 300.812 173.582 300.812 178V191.475H296.812V178C296.812 175.791 295.022 174 292.812 174V170Z" fill="#4318FF" mask="url(#path-71-inside-18_0_3102)"/>
<rect x="155.5" y="128.5" width="52" height="24" rx="3.5" fill="#DADEE7"/>
<path d="M164.33 145V135.004H165.744L170.294 143.236H170.35C170.341 142.993 170.327 142.713 170.308 142.396C170.289 142.079 170.275 141.761 170.266 141.444C170.257 141.117 170.252 140.837 170.252 140.604V135.004H171.358V145H169.986L165.38 136.74H165.324C165.343 136.983 165.357 137.272 165.366 137.608C165.385 137.935 165.399 138.261 165.408 138.588C165.427 138.915 165.436 139.204 165.436 139.456V145H164.33ZM172.688 145V144.034H176.286V145H172.688ZM174.48 143.124C174.079 143.124 173.719 143.035 173.402 142.858C173.094 142.671 172.851 142.401 172.674 142.046C172.497 141.691 172.408 141.257 172.408 140.744C172.408 139.979 172.595 139.395 172.968 138.994C173.351 138.583 173.869 138.378 174.522 138.378C174.923 138.378 175.278 138.471 175.586 138.658C175.903 138.835 176.151 139.101 176.328 139.456C176.515 139.801 176.608 140.231 176.608 140.744C176.608 141.509 176.417 142.097 176.034 142.508C175.651 142.919 175.133 143.124 174.48 143.124ZM174.508 142.312C174.919 142.312 175.213 142.181 175.39 141.92C175.567 141.649 175.656 141.257 175.656 140.744C175.656 140.221 175.567 139.839 175.39 139.596C175.213 139.344 174.919 139.218 174.508 139.218C174.107 139.218 173.813 139.344 173.626 139.596C173.439 139.839 173.346 140.221 173.346 140.744C173.346 141.257 173.435 141.649 173.612 141.92C173.799 142.181 174.097 142.312 174.508 142.312ZM184.595 135.984H179.681V139.176C179.896 138.877 180.213 138.635 180.633 138.448C181.053 138.252 181.506 138.154 181.991 138.154C182.766 138.154 183.396 138.317 183.881 138.644C184.367 138.961 184.712 139.377 184.917 139.89C185.132 140.394 185.239 140.931 185.239 141.5C185.239 142.172 185.113 142.774 184.861 143.306C184.609 143.838 184.222 144.258 183.699 144.566C183.186 144.874 182.547 145.028 181.781 145.028C180.801 145.028 180.008 144.776 179.401 144.272C178.795 143.768 178.426 143.096 178.295 142.256H179.541C179.663 142.788 179.919 143.203 180.311 143.502C180.703 143.801 181.198 143.95 181.795 143.95C182.533 143.95 183.088 143.731 183.461 143.292C183.835 142.844 184.021 142.256 184.021 141.528C184.021 140.8 183.835 140.24 183.461 139.848C183.088 139.447 182.537 139.246 181.809 139.246C181.315 139.246 180.881 139.367 180.507 139.61C180.143 139.843 179.877 140.165 179.709 140.576H178.505V134.864H184.595V135.984ZM186.596 136.04V134.878H189.228V145H187.94V136.04H186.596ZM191.109 142.746V141.78L196.023 134.976H197.549V141.64H198.949V142.746H197.549V145H196.289V142.746H191.109ZM196.345 136.306L192.579 141.64H196.345V136.306Z" fill="#2B3674"/>
<rect x="155.5" y="128.5" width="52" height="24" rx="3.5" stroke="#DADEE7"/>
<rect x="96" y="149" width="19" height="17" rx="4" fill="#DADEE7"/>
<path d="M107.45 161L106.59 158.79H103.76L102.91 161H102L104.79 153.83H105.6L108.38 161H107.45ZM105.52 155.83C105.5 155.777 105.467 155.68 105.42 155.54C105.373 155.4 105.327 155.257 105.28 155.11C105.24 154.957 105.207 154.84 105.18 154.76C105.147 154.893 105.11 155.03 105.07 155.17C105.037 155.303 105 155.427 104.96 155.54C104.927 155.653 104.897 155.75 104.87 155.83L104.06 157.99H106.32L105.52 155.83Z" fill="#2B3674"/>
<rect x="247" y="149" width="19" height="17" rx="4" fill="#DADEE7"/>
<path d="M253.97 161V153.86H258.21V154.65H254.87V156.88H255.93C256.643 156.88 257.197 156.97 257.59 157.15C257.983 157.323 258.257 157.563 258.41 157.87C258.563 158.17 258.64 158.517 258.64 158.91C258.64 159.343 258.553 159.717 258.38 160.03C258.213 160.343 257.94 160.583 257.56 160.75C257.18 160.917 256.68 161 256.06 161H253.97ZM255.97 160.23C256.61 160.23 257.06 160.123 257.32 159.91C257.58 159.69 257.71 159.357 257.71 158.91C257.71 158.603 257.647 158.36 257.52 158.18C257.4 157.993 257.2 157.86 256.92 157.78C256.647 157.7 256.28 157.66 255.82 157.66H254.87V160.23H255.97Z" fill="#2B3674"/>
<rect x="180" y="172" width="2" height="43" rx="1" fill="#B0BBD5"/>
<path fill-rule="evenodd" clip-rule="evenodd" d="M618 67.0004L618 0.000366211L619.5 0.000366473L619.5 67.0004C619.5 68.9334 621.067 70.5004 623 70.5004L725 70.5004L725 72.0004L623 72.0004C620.239 72.0004 618 69.7618 618 67.0004ZM810 72.0004L911 72.0004C913.761 72.0004 916 69.7618 916 67.0004L916 0.000418315L914.5 0.000418053L914.5 67.0004C914.5 68.9334 912.933 70.5004 911 70.5004L810 70.5004L810 72.0004Z" fill="#B0BBD5"/>
<rect x="801.965" y="12.7048" width="19.4444" height="30.2951" rx="4" fill="#4318FF"/>
<mask id="path-82-inside-19_0_3102" fill="white">
<path d="M799.187 15.9999C799.187 12.6862 801.874 9.99994 805.188 9.99994L818.188 9.99994C821.501 9.99994 824.187 12.6862 824.187 15.9999L824.187 29.4754L799.187 29.4753L799.187 15.9999Z"/>
</mask>
<path d="M797.187 15.9999C797.187 11.5817 800.769 7.99994 805.188 7.99994L818.188 7.99994C822.606 7.99994 826.187 11.5817 826.187 15.9999L822.187 15.9999C822.187 13.7908 820.397 11.9999 818.187 11.9999L805.187 11.9999C802.978 11.9999 801.187 13.7908 801.187 15.9999L797.187 15.9999ZM824.187 29.4754L799.187 29.4753L824.187 29.4754ZM797.187 29.4753L797.187 15.9999C797.187 11.5817 800.769 7.99994 805.188 7.99994L805.187 11.9999C802.978 11.9999 801.187 13.7908 801.187 15.9999L801.187 29.4753L797.187 29.4753ZM818.188 7.99994C822.606 7.99994 826.187 11.5817 826.187 15.9999L826.187 29.4754L822.187 29.4754L822.187 15.9999C822.187 13.7908 820.397 11.9999 818.187 11.9999L818.188 7.99994Z" fill="#4318FF" mask="url(#path-82-inside-19_0_3102)"/>
<rect x="652.465" y="13.2048" width="18.4444" height="29.2951" rx="3.5" fill="#DADEE7" stroke="#DADEE7"/>
<mask id="path-85-inside-20_0_3102" fill="white">
<path d="M649.187 15.9999C649.187 12.6862 651.874 9.99994 655.188 9.99994L668.188 9.99994C671.501 9.99994 674.187 12.6862 674.187 15.9999L674.187 29.4754L649.187 29.4753L649.187 15.9999Z"/>
</mask>
<path d="M647.187 15.9999C647.187 11.5817 650.769 7.99994 655.188 7.99994L668.188 7.99994C672.606 7.99994 676.187 11.5817 676.187 15.9999L672.187 15.9999C672.187 13.7908 670.397 11.9999 668.187 11.9999L655.187 11.9999C652.978 11.9999 651.187 13.7908 651.187 15.9999L647.187 15.9999ZM674.187 29.4754L649.187 29.4753L674.187 29.4754ZM647.187 29.4753L647.187 15.9999C647.187 11.5817 650.769 7.99994 655.188 7.99994L655.187 11.9999C652.978 11.9999 651.187 13.7908 651.187 15.9999L651.187 29.4753L647.187 29.4753ZM668.188 7.99994C672.606 7.99994 676.187 11.5817 676.187 15.9999L676.187 29.4754L672.187 29.4754L672.187 15.9999C672.187 13.7908 670.397 11.9999 668.187 11.9999L668.188 7.99994Z" fill="#DADEE7" mask="url(#path-85-inside-20_0_3102)"/>
<rect x="832.872" y="12.7048" width="19.4444" height="30.2951" rx="4" fill="#4318FF"/>
<mask id="path-88-inside-21_0_3102" fill="white">
<path d="M830.094 15.9999C830.094 12.6862 832.78 9.99994 836.094 9.99994L849.094 9.99994C852.407 9.99994 855.094 12.6862 855.094 15.9999L855.094 29.4754L830.094 29.4753L830.094 15.9999Z"/>
</mask>
<path d="M828.094 15.9999C828.094 11.5817 831.675 7.99994 836.094 7.99994L849.094 7.99994C853.512 7.99994 857.094 11.5817 857.094 15.9999L853.094 15.9999C853.094 13.7908 851.303 11.9999 849.094 11.9999L836.094 11.9999C833.885 11.9999 832.094 13.7908 832.094 15.9999L828.094 15.9999ZM855.094 29.4754L830.094 29.4753L855.094 29.4754ZM828.094 29.4753L828.094 15.9999C828.094 11.5817 831.675 7.99994 836.094 7.99994L836.094 11.9999C833.885 11.9999 832.094 13.7908 832.094 15.9999L832.094 29.4753L828.094 29.4753ZM849.094 7.99994C853.512 7.99994 857.094 11.5817 857.094 15.9999L857.094 29.4754L853.094 29.4754L853.094 15.9999C853.094 13.7908 851.303 11.9999 849.094 11.9999L849.094 7.99994Z" fill="#4318FF" mask="url(#path-88-inside-21_0_3102)"/>
<rect x="683.372" y="13.2048" width="18.4444" height="29.2951" rx="3.5" fill="#DADEE7" stroke="#DADEE7"/>
<mask id="path-91-inside-22_0_3102" fill="white">
<path d="M680.094 15.9999C680.094 12.6862 682.78 9.99994 686.094 9.99994L699.094 9.99994C702.407 9.99994 705.094 12.6862 705.094 15.9999L705.094 29.4754L680.094 29.4753L680.094 15.9999Z"/>
</mask>
<path d="M678.094 15.9999C678.094 11.5817 681.675 7.99994 686.094 7.99994L699.094 7.99994C703.512 7.99994 707.094 11.5817 707.094 15.9999L703.094 15.9999C703.094 13.7908 701.303 11.9999 699.094 11.9999L686.094 11.9999C683.885 11.9999 682.094 13.7908 682.094 15.9999L678.094 15.9999ZM705.094 29.4754L680.094 29.4753L705.094 29.4754ZM678.094 29.4753L678.094 15.9999C678.094 11.5817 681.675 7.99994 686.094 7.99994L686.094 11.9999C683.885 11.9999 682.094 13.7908 682.094 15.9999L682.094 29.4753L678.094 29.4753ZM699.094 7.99994C703.512 7.99994 707.094 11.5817 707.094 15.9999L707.094 29.4754L703.094 29.4754L703.094 15.9999C703.094 13.7908 701.303 11.9999 699.094 11.9999L699.094 7.99994Z" fill="#DADEE7" mask="url(#path-91-inside-22_0_3102)"/>
<rect x="864.278" y="13.2048" width="18.4444" height="29.2951" rx="3.5" fill="#DADEE7" stroke="#DADEE7"/>
<mask id="path-94-inside-23_0_3102" fill="white">
<path d="M861 15.9999C861 12.6862 863.686 9.99994 867 9.99994L880 9.99994C883.314 9.99994 886 12.6862 886 15.9999L886 29.4754L861 29.4753L861 15.9999Z"/>
</mask>
<path d="M859 15.9999C859 11.5817 862.582 7.99994 867 7.99994L880 7.99994C884.418 7.99994 888 11.5817 888 15.9999L884 15.9999C884 13.7908 882.209 11.9999 880 11.9999L867 11.9999C864.791 11.9999 863 13.7908 863 15.9999L859 15.9999ZM886 29.4754L861 29.4753L886 29.4754ZM859 29.4753L859 15.9999C859 11.5817 862.582 7.99994 867 7.99994L867 11.9999C864.791 11.9999 863 13.7908 863 15.9999L863 29.4753L859 29.4753ZM880 7.99994C884.418 7.99994 888 11.5817 888 15.9999L888 29.4754L884 29.4754L884 15.9999C884 13.7908 882.209 11.9999 880 11.9999L880 7.99994Z" fill="#DADEE7" mask="url(#path-94-inside-23_0_3102)"/>
<rect x="713.778" y="12.7048" width="19.4444" height="30.2951" rx="4" fill="#4318FF"/>
<mask id="path-97-inside-24_0_3102" fill="white">
<path d="M711 15.9999C711 12.6862 713.686 9.99994 717 9.99994L730 9.99994C733.314 9.99994 736 12.6862 736 15.9999L736 29.4754L711 29.4753L711 15.9999Z"/>
</mask>
<path d="M709 15.9999C709 11.5817 712.582 7.99994 717 7.99994L730 7.99994C734.418 7.99994 738 11.5817 738 15.9999L734 15.9999C734 13.7908 732.209 11.9999 730 11.9999L717 11.9999C714.791 11.9999 713 13.7908 713 15.9999L709 15.9999ZM736 29.4754L711 29.4753L736 29.4754ZM709 29.4753L709 15.9999C709 11.5817 712.582 7.99994 717 7.99994L717 11.9999C714.791 11.9999 713 13.7908 713 15.9999L713 29.4753L709 29.4753ZM730 7.99994C734.418 7.99994 738 11.5817 738 15.9999L738 29.4754L734 29.4754L734 15.9999C734 13.7908 732.209 11.9999 730 11.9999L730 7.99994Z" fill="#4318FF" mask="url(#path-97-inside-24_0_3102)"/>
<rect x="743.5" y="62.5" width="56" height="24" rx="3.5" fill="#DADEE7"/>
<path d="M752.33 79V69.004H753.744L758.294 77.236H758.35C758.341 76.9933 758.327 76.7133 758.308 76.396C758.289 76.0787 758.275 75.7613 758.266 75.444C758.257 75.1173 758.252 74.8373 758.252 74.604V69.004H759.358V79H757.986L753.38 70.74H753.324C753.343 70.9827 753.357 71.272 753.366 71.608C753.385 71.9347 753.399 72.2613 753.408 72.588C753.427 72.9147 753.436 73.204 753.436 73.456V79H752.33ZM760.688 79V78.034H764.286V79H760.688ZM762.48 77.124C762.079 77.124 761.719 77.0353 761.402 76.858C761.094 76.6713 760.851 76.4007 760.674 76.046C760.497 75.6913 760.408 75.2573 760.408 74.744C760.408 73.9787 760.595 73.3953 760.968 72.994C761.351 72.5833 761.869 72.378 762.522 72.378C762.923 72.378 763.278 72.4713 763.586 72.658C763.903 72.8353 764.151 73.1013 764.328 73.456C764.515 73.8013 764.608 74.2307 764.608 74.744C764.608 75.5093 764.417 76.0973 764.034 76.508C763.651 76.9187 763.133 77.124 762.48 77.124ZM762.508 76.312C762.919 76.312 763.213 76.1813 763.39 75.92C763.567 75.6493 763.656 75.2573 763.656 74.744C763.656 74.2213 763.567 73.8387 763.39 73.596C763.213 73.344 762.919 73.218 762.508 73.218C762.107 73.218 761.813 73.344 761.626 73.596C761.439 73.8387 761.346 74.2213 761.346 74.744C761.346 75.2573 761.435 75.6493 761.612 75.92C761.799 76.1813 762.097 76.312 762.508 76.312ZM772.595 69.984H767.681V73.176C767.896 72.8773 768.213 72.6347 768.633 72.448C769.053 72.252 769.506 72.154 769.991 72.154C770.766 72.154 771.396 72.3173 771.881 72.644C772.367 72.9613 772.712 73.3767 772.917 73.89C773.132 74.394 773.239 74.9307 773.239 75.5C773.239 76.172 773.113 76.774 772.861 77.306C772.609 77.838 772.222 78.258 771.699 78.566C771.186 78.874 770.547 79.028 769.781 79.028C768.801 79.028 768.008 78.776 767.401 78.272C766.795 77.768 766.426 77.096 766.295 76.256H767.541C767.663 76.788 767.919 77.2033 768.311 77.502C768.703 77.8007 769.198 77.95 769.795 77.95C770.533 77.95 771.088 77.7307 771.461 77.292C771.835 76.844 772.021 76.256 772.021 75.528C772.021 74.8 771.835 74.24 771.461 73.848C771.088 73.4467 770.537 73.246 769.809 73.246C769.315 73.246 768.881 73.3673 768.507 73.61C768.143 73.8433 767.877 74.1653 767.709 74.576H766.505V68.864H772.595V69.984ZM774.932 73.834C774.932 72.2287 775.194 70.978 775.716 70.082C776.239 69.1767 777.154 68.724 778.46 68.724C779.758 68.724 780.668 69.1767 781.19 70.082C781.713 70.978 781.974 72.2287 781.974 73.834C781.974 75.4673 781.713 76.7367 781.19 77.642C780.668 78.5473 779.758 79 778.46 79C777.154 79 776.239 78.5473 775.716 77.642C775.194 76.7367 774.932 75.4673 774.932 73.834ZM780.714 73.834C780.714 73.022 780.658 72.336 780.546 71.776C780.444 71.2067 780.224 70.7493 779.888 70.404C779.562 70.0587 779.086 69.886 778.46 69.886C777.826 69.886 777.34 70.0587 777.004 70.404C776.678 70.7493 776.458 71.2067 776.346 71.776C776.244 72.336 776.192 73.022 776.192 73.834C776.192 74.674 776.244 75.3787 776.346 75.948C776.458 76.5173 776.678 76.9747 777.004 77.32C777.34 77.6653 777.826 77.838 778.46 77.838C779.086 77.838 779.562 77.6653 779.888 77.32C780.224 76.9747 780.444 76.5173 780.546 75.948C780.658 75.3787 780.714 74.674 780.714 73.834ZM785.361 76.284C785.455 76.816 785.669 77.2267 786.005 77.516C786.351 77.8053 786.813 77.95 787.391 77.95C788.166 77.95 788.735 77.6467 789.099 77.04C789.473 76.4333 789.65 75.4113 789.631 73.974C789.435 74.394 789.109 74.7253 788.651 74.968C788.194 75.2013 787.685 75.318 787.125 75.318C786.5 75.318 785.94 75.192 785.445 74.94C784.96 74.6787 784.577 74.3007 784.297 73.806C784.017 73.3113 783.877 72.714 783.877 72.014C783.877 71.0153 784.167 70.2127 784.745 69.606C785.324 68.99 786.145 68.682 787.209 68.682C788.516 68.682 789.431 69.1067 789.953 69.956C790.485 70.8053 790.751 72.07 790.751 73.75C790.751 74.926 790.644 75.8967 790.429 76.662C790.224 77.4273 789.869 78.0107 789.365 78.412C788.871 78.8133 788.189 79.014 787.321 79.014C786.369 79.014 785.627 78.7573 785.095 78.244C784.563 77.7307 784.26 77.0773 784.185 76.284H785.361ZM787.335 74.24C787.961 74.24 788.474 74.0487 788.875 73.666C789.277 73.274 789.477 72.7467 789.477 72.084C789.477 71.384 789.281 70.8193 788.889 70.39C788.497 69.9607 787.947 69.746 787.237 69.746C786.584 69.746 786.061 69.9513 785.669 70.362C785.287 70.7727 785.095 71.314 785.095 71.986C785.095 72.6673 785.287 73.2133 785.669 73.624C786.052 74.0347 786.607 74.24 787.335 74.24Z" fill="#2B3674"/>
<rect x="743.5" y="62.5" width="56" height="24" rx="3.5" stroke="#DADEE7"/>
<rect x="833" y="48.9999" width="19" height="17" rx="4" fill="#DADEE7"/>
<path d="M844.45 60.9999L843.59 58.7899H840.76L839.91 60.9999H839L841.79 53.8299H842.6L845.38 60.9999H844.45ZM842.52 55.8299C842.5 55.7766 842.467 55.6799 842.42 55.5399C842.373 55.3999 842.327 55.2566 842.28 55.1099C842.24 54.9566 842.207 54.8399 842.18 54.7599C842.147 54.8933 842.11 55.0299 842.07 55.1699C842.037 55.3033 842 55.4266 841.96 55.5399C841.927 55.6533 841.897 55.7499 841.87 55.8299L841.06 57.9899H843.32L842.52 55.8299Z" fill="#2B3674"/>
<rect x="682" y="48.9999" width="19" height="17" rx="4" fill="#DADEE7"/>
<path d="M688.97 60.9999V53.8599H693.21V54.6499H689.87V56.8799H690.93C691.643 56.8799 692.197 56.9699 692.59 57.1499C692.983 57.3233 693.257 57.5633 693.41 57.8699C693.563 58.1699 693.64 58.5166 693.64 58.9099C693.64 59.3433 693.553 59.7166 693.38 60.0299C693.213 60.3433 692.94 60.5833 692.56 60.7499C692.18 60.9166 691.68 60.9999 691.06 60.9999H688.97ZM690.97 60.2299C691.61 60.2299 692.06 60.1233 692.32 59.9099C692.58 59.6899 692.71 59.3566 692.71 58.9099C692.71 58.6033 692.647 58.3599 692.52 58.1799C692.4 57.9933 692.2 57.8599 691.92 57.7799C691.647 57.6999 691.28 57.6599 690.82 57.6599H689.87V60.2299H690.97Z" fill="#2B3674"/>
<rect x="768" y="43.0004" width="2" height="43" rx="1" transform="rotate(-180 768 43.0004)" fill="#B0BBD5"/>
<path fill-rule="evenodd" clip-rule="evenodd" d="M915 67.0004L915 0.000366211L916.5 0.000366473L916.5 67.0004C916.5 68.9334 918.067 70.5004 920 70.5004L1022 70.5004L1022 72.0004L920 72.0004C917.239 72.0004 915 69.7618 915 67.0004ZM1107 72.0004L1208 72.0004C1210.76 72.0004 1213 69.7618 1213 67.0004L1213 0.000418315L1211.5 0.000418053L1211.5 67.0004C1211.5 68.9334 1209.93 70.5004 1208 70.5004L1107 70.5004L1107 72.0004Z" fill="#B0BBD5"/>
<rect x="1098.97" y="12.7048" width="19.4444" height="30.2951" rx="4" fill="#4318FF"/>
<mask id="path-108-inside-25_0_3102" fill="white">
<path d="M1096.19 15.9999C1096.19 12.6862 1098.87 9.99994 1102.19 9.99994L1115.19 9.99994C1118.5 9.99994 1121.19 12.6862 1121.19 15.9999L1121.19 29.4754L1096.19 29.4753L1096.19 15.9999Z"/>
</mask>
<path d="M1094.19 15.9999C1094.19 11.5817 1097.77 7.99994 1102.19 7.99994L1115.19 7.99994C1119.61 7.99994 1123.19 11.5817 1123.19 15.9999L1119.19 15.9999C1119.19 13.7908 1117.4 11.9999 1115.19 11.9999L1102.19 11.9999C1099.98 11.9999 1098.19 13.7908 1098.19 15.9999L1094.19 15.9999ZM1121.19 29.4754L1096.19 29.4753L1121.19 29.4754ZM1094.19 29.4753L1094.19 15.9999C1094.19 11.5817 1097.77 7.99994 1102.19 7.99994L1102.19 11.9999C1099.98 11.9999 1098.19 13.7908 1098.19 15.9999L1098.19 29.4753L1094.19 29.4753ZM1115.19 7.99994C1119.61 7.99994 1123.19 11.5817 1123.19 15.9999L1123.19 29.4754L1119.19 29.4754L1119.19 15.9999C1119.19 13.7908 1117.4 11.9999 1115.19 11.9999L1115.19 7.99994Z" fill="#4318FF" mask="url(#path-108-inside-25_0_3102)"/>
<rect x="949.465" y="13.2048" width="18.4444" height="29.2951" rx="3.5" fill="#DADEE7" stroke="#DADEE7"/>
<mask id="path-111-inside-26_0_3102" fill="white">
<path d="M946.187 15.9999C946.187 12.6862 948.874 9.99994 952.188 9.99994L965.188 9.99994C968.501 9.99994 971.187 12.6862 971.187 15.9999L971.187 29.4754L946.187 29.4753L946.187 15.9999Z"/>
</mask>
<path d="M944.187 15.9999C944.187 11.5817 947.769 7.99994 952.188 7.99994L965.188 7.99994C969.606 7.99994 973.187 11.5817 973.187 15.9999L969.187 15.9999C969.187 13.7908 967.397 11.9999 965.187 11.9999L952.187 11.9999C949.978 11.9999 948.187 13.7908 948.187 15.9999L944.187 15.9999ZM971.187 29.4754L946.187 29.4753L971.187 29.4754ZM944.187 29.4753L944.187 15.9999C944.187 11.5817 947.769 7.99994 952.188 7.99994L952.187 11.9999C949.978 11.9999 948.187 13.7908 948.187 15.9999L948.187 29.4753L944.187 29.4753ZM965.188 7.99994C969.606 7.99994 973.187 11.5817 973.187 15.9999L973.187 29.4754L969.187 29.4754L969.187 15.9999C969.187 13.7908 967.397 11.9999 965.187 11.9999L965.188 7.99994Z" fill="#DADEE7" mask="url(#path-111-inside-26_0_3102)"/>
<rect x="1129.87" y="12.7048" width="19.4444" height="30.2951" rx="4" fill="#4318FF"/>
<mask id="path-114-inside-27_0_3102" fill="white">
<path d="M1127.09 15.9999C1127.09 12.6862 1129.78 9.99994 1133.09 9.99994L1146.09 9.99994C1149.41 9.99994 1152.09 12.6862 1152.09 15.9999L1152.09 29.4754L1127.09 29.4753L1127.09 15.9999Z"/>
</mask>
<path d="M1125.09 15.9999C1125.09 11.5817 1128.68 7.99994 1133.09 7.99994L1146.09 7.99994C1150.51 7.99994 1154.09 11.5817 1154.09 15.9999L1150.09 15.9999C1150.09 13.7908 1148.3 11.9999 1146.09 11.9999L1133.09 11.9999C1130.88 11.9999 1129.09 13.7908 1129.09 15.9999L1125.09 15.9999ZM1152.09 29.4754L1127.09 29.4753L1152.09 29.4754ZM1125.09 29.4753L1125.09 15.9999C1125.09 11.5817 1128.68 7.99994 1133.09 7.99994L1133.09 11.9999C1130.88 11.9999 1129.09 13.7908 1129.09 15.9999L1129.09 29.4753L1125.09 29.4753ZM1146.09 7.99994C1150.51 7.99994 1154.09 11.5817 1154.09 15.9999L1154.09 29.4754L1150.09 29.4754L1150.09 15.9999C1150.09 13.7908 1148.3 11.9999 1146.09 11.9999L1146.09 7.99994Z" fill="#4318FF" mask="url(#path-114-inside-27_0_3102)"/>
<rect x="980.372" y="13.2048" width="18.4444" height="29.2951" rx="3.5" fill="#DADEE7" stroke="#DADEE7"/>
<mask id="path-117-inside-28_0_3102" fill="white">
<path d="M977.094 15.9999C977.094 12.6862 979.78 9.99994 983.094 9.99994L996.094 9.99994C999.407 9.99994 1002.09 12.6862 1002.09 15.9999L1002.09 29.4754L977.094 29.4753L977.094 15.9999Z"/>
</mask>
<path d="M975.094 15.9999C975.094 11.5817 978.675 7.99994 983.094 7.99994L996.094 7.99994C1000.51 7.99994 1004.09 11.5817 1004.09 15.9999L1000.09 15.9999C1000.09 13.7908 998.303 11.9999 996.094 11.9999L983.094 11.9999C980.885 11.9999 979.094 13.7908 979.094 15.9999L975.094 15.9999ZM1002.09 29.4754L977.094 29.4753L1002.09 29.4754ZM975.094 29.4753L975.094 15.9999C975.094 11.5817 978.675 7.99994 983.094 7.99994L983.094 11.9999C980.885 11.9999 979.094 13.7908 979.094 15.9999L979.094 29.4753L975.094 29.4753ZM996.094 7.99994C1000.51 7.99994 1004.09 11.5817 1004.09 15.9999L1004.09 29.4754L1000.09 29.4754L1000.09 15.9999C1000.09 13.7908 998.303 11.9999 996.094 11.9999L996.094 7.99994Z" fill="#DADEE7" mask="url(#path-117-inside-28_0_3102)"/>
<rect x="1161.28" y="13.2048" width="18.4444" height="29.2951" rx="3.5" fill="#DADEE7" stroke="#DADEE7"/>
<mask id="path-120-inside-29_0_3102" fill="white">
<path d="M1158 15.9999C1158 12.6862 1160.69 9.99994 1164 9.99994L1177 9.99994C1180.31 9.99994 1183 12.6862 1183 15.9999L1183 29.4754L1158 29.4753L1158 15.9999Z"/>
</mask>
<path d="M1156 15.9999C1156 11.5817 1159.58 7.99994 1164 7.99994L1177 7.99994C1181.42 7.99994 1185 11.5817 1185 15.9999L1181 15.9999C1181 13.7908 1179.21 11.9999 1177 11.9999L1164 11.9999C1161.79 11.9999 1160 13.7908 1160 15.9999L1156 15.9999ZM1183 29.4754L1158 29.4753L1183 29.4754ZM1156 29.4753L1156 15.9999C1156 11.5817 1159.58 7.99994 1164 7.99994L1164 11.9999C1161.79 11.9999 1160 13.7908 1160 15.9999L1160 29.4753L1156 29.4753ZM1177 7.99994C1181.42 7.99994 1185 11.5817 1185 15.9999L1185 29.4754L1181 29.4754L1181 15.9999C1181 13.7908 1179.21 11.9999 1177 11.9999L1177 7.99994Z" fill="#DADEE7" mask="url(#path-120-inside-29_0_3102)"/>
<rect x="1010.78" y="12.7048" width="19.4444" height="30.2951" rx="4" fill="#4318FF"/>
<mask id="path-123-inside-30_0_3102" fill="white">
<path d="M1008 15.9999C1008 12.6862 1010.69 9.99994 1014 9.99994L1027 9.99994C1030.31 9.99994 1033 12.6862 1033 15.9999L1033 29.4754L1008 29.4753L1008 15.9999Z"/>
</mask>
<path d="M1006 15.9999C1006 11.5817 1009.58 7.99994 1014 7.99994L1027 7.99994C1031.42 7.99994 1035 11.5817 1035 15.9999L1031 15.9999C1031 13.7908 1029.21 11.9999 1027 11.9999L1014 11.9999C1011.79 11.9999 1010 13.7908 1010 15.9999L1006 15.9999ZM1033 29.4754L1008 29.4753L1033 29.4754ZM1006 29.4753L1006 15.9999C1006 11.5817 1009.58 7.99994 1014 7.99994L1014 11.9999C1011.79 11.9999 1010 13.7908 1010 15.9999L1010 29.4753L1006 29.4753ZM1027 7.99994C1031.42 7.99994 1035 11.5817 1035 15.9999L1035 29.4754L1031 29.4754L1031 15.9999C1031 13.7908 1029.21 11.9999 1027 11.9999L1027 7.99994Z" fill="#4318FF" mask="url(#path-123-inside-30_0_3102)"/>
<rect x="1040.5" y="62.5" width="48" height="24" rx="3.5" fill="#DADEE7"/>
<path d="M1049.33 79V69.004H1050.74L1055.29 77.236H1055.35C1055.34 76.9933 1055.33 76.7133 1055.31 76.396C1055.29 76.0787 1055.28 75.7613 1055.27 75.444C1055.26 75.1173 1055.25 74.8373 1055.25 74.604V69.004H1056.36V79H1054.99L1050.38 70.74H1050.32C1050.34 70.9827 1050.36 71.272 1050.37 71.608C1050.38 71.9347 1050.4 72.2613 1050.41 72.588C1050.43 72.9147 1050.44 73.204 1050.44 73.456V79H1049.33ZM1057.69 79V78.034H1061.29V79H1057.69ZM1059.48 77.124C1059.08 77.124 1058.72 77.0353 1058.4 76.858C1058.09 76.6713 1057.85 76.4007 1057.67 76.046C1057.5 75.6913 1057.41 75.2573 1057.41 74.744C1057.41 73.9787 1057.59 73.3953 1057.97 72.994C1058.35 72.5833 1058.87 72.378 1059.52 72.378C1059.92 72.378 1060.28 72.4713 1060.59 72.658C1060.9 72.8353 1061.15 73.1013 1061.33 73.456C1061.51 73.8013 1061.61 74.2307 1061.61 74.744C1061.61 75.5093 1061.42 76.0973 1061.03 76.508C1060.65 76.9187 1060.13 77.124 1059.48 77.124ZM1059.51 76.312C1059.92 76.312 1060.21 76.1813 1060.39 75.92C1060.57 75.6493 1060.66 75.2573 1060.66 74.744C1060.66 74.2213 1060.57 73.8387 1060.39 73.596C1060.21 73.344 1059.92 73.218 1059.51 73.218C1059.11 73.218 1058.81 73.344 1058.63 73.596C1058.44 73.8387 1058.35 74.2213 1058.35 74.744C1058.35 75.2573 1058.43 75.6493 1058.61 75.92C1058.8 76.1813 1059.1 76.312 1059.51 76.312ZM1069.6 69.984H1064.68V73.176C1064.9 72.8773 1065.21 72.6347 1065.63 72.448C1066.05 72.252 1066.51 72.154 1066.99 72.154C1067.77 72.154 1068.4 72.3173 1068.88 72.644C1069.37 72.9613 1069.71 73.3767 1069.92 73.89C1070.13 74.394 1070.24 74.9307 1070.24 75.5C1070.24 76.172 1070.11 76.774 1069.86 77.306C1069.61 77.838 1069.22 78.258 1068.7 78.566C1068.19 78.874 1067.55 79.028 1066.78 79.028C1065.8 79.028 1065.01 78.776 1064.4 78.272C1063.79 77.768 1063.43 77.096 1063.3 76.256H1064.54C1064.66 76.788 1064.92 77.2033 1065.31 77.502C1065.7 77.8007 1066.2 77.95 1066.8 77.95C1067.53 77.95 1068.09 77.7307 1068.46 77.292C1068.83 76.844 1069.02 76.256 1069.02 75.528C1069.02 74.8 1068.83 74.24 1068.46 73.848C1068.09 73.4467 1067.54 73.246 1066.81 73.246C1066.31 73.246 1065.88 73.3673 1065.51 73.61C1065.14 73.8433 1064.88 74.1653 1064.71 74.576H1063.51V68.864H1069.6V69.984ZM1071.6 70.04V68.878H1074.23V79H1072.94V70.04H1071.6ZM1076.08 70.04V68.878H1078.71V79H1077.42V70.04H1076.08Z" fill="#2B3674"/>
<rect x="1040.5" y="62.5" width="48" height="24" rx="3.5" stroke="#DADEE7"/>
<rect x="1130" y="48.9999" width="19" height="17" rx="4" fill="#DADEE7"/>
<path d="M1141.45 60.9999L1140.59 58.7899H1137.76L1136.91 60.9999H1136L1138.79 53.8299H1139.6L1142.38 60.9999H1141.45ZM1139.52 55.8299C1139.5 55.7766 1139.47 55.6799 1139.42 55.5399C1139.37 55.3999 1139.33 55.2566 1139.28 55.1099C1139.24 54.9566 1139.21 54.8399 1139.18 54.7599C1139.15 54.8933 1139.11 55.0299 1139.07 55.1699C1139.04 55.3033 1139 55.4266 1138.96 55.5399C1138.93 55.6533 1138.9 55.7499 1138.87 55.8299L1138.06 57.9899H1140.32L1139.52 55.8299Z" fill="#2B3674"/>
<rect x="979" y="48.9999" width="19" height="17" rx="4" fill="#DADEE7"/>
<path d="M985.97 60.9999V53.8599H990.21V54.6499H986.87V56.8799H987.93C988.643 56.8799 989.197 56.9699 989.59 57.1499C989.983 57.3233 990.257 57.5633 990.41 57.8699C990.563 58.1699 990.64 58.5166 990.64 58.9099C990.64 59.3433 990.553 59.7166 990.38 60.0299C990.213 60.3433 989.94 60.5833 989.56 60.7499C989.18 60.9166 988.68 60.9999 988.06 60.9999H985.97ZM987.97 60.2299C988.61 60.2299 989.06 60.1233 989.32 59.9099C989.58 59.6899 989.71 59.3566 989.71 58.9099C989.71 58.6033 989.647 58.3599 989.52 58.1799C989.4 57.9933 989.2 57.8599 988.92 57.7799C988.647 57.6999 988.28 57.6599 987.82 57.6599H986.87V60.2299H987.97Z" fill="#2B3674"/>
<rect x="1065" y="43.0004" width="2" height="43" rx="1" transform="rotate(-180 1065 43.0004)" fill="#B0BBD5"/>
<path fill-rule="evenodd" clip-rule="evenodd" d="M233 67.0004L233 0.000366211L234.5 0.000366473L234.5 67.0004C234.5 68.9334 236.067 70.5004 238 70.5004L340 70.5004L340 72.0004L238 72.0004C235.239 72.0004 233 69.7618 233 67.0004ZM425 72.0004L526 72.0004C528.761 72.0004 531 69.7618 531 67.0004L531 0.000418315L529.5 0.000418053L529.5 67.0004C529.5 68.9334 527.933 70.5004 526 70.5004L425 70.5004L425 72.0004Z" fill="#B0BBD5"/>
<rect x="416.965" y="12.7048" width="19.4444" height="30.2951" rx="4" fill="#4318FF"/>
<mask id="path-134-inside-31_0_3102" fill="white">
<path d="M414.187 15.9999C414.187 12.6862 416.874 9.99994 420.188 9.99994L433.188 9.99994C436.501 9.99994 439.187 12.6862 439.187 15.9999L439.187 29.4754L414.187 29.4753L414.187 15.9999Z"/>
</mask>
<path d="M412.187 15.9999C412.187 11.5817 415.769 7.99994 420.188 7.99994L433.188 7.99994C437.606 7.99994 441.187 11.5817 441.187 15.9999L437.187 15.9999C437.187 13.7908 435.397 11.9999 433.187 11.9999L420.187 11.9999C417.978 11.9999 416.187 13.7908 416.187 15.9999L412.187 15.9999ZM439.187 29.4754L414.187 29.4753L439.187 29.4754ZM412.187 29.4753L412.187 15.9999C412.187 11.5817 415.769 7.99994 420.188 7.99994L420.187 11.9999C417.978 11.9999 416.187 13.7908 416.187 15.9999L416.187 29.4753L412.187 29.4753ZM433.188 7.99994C437.606 7.99994 441.187 11.5817 441.187 15.9999L441.187 29.4754L437.187 29.4754L437.187 15.9999C437.187 13.7908 435.397 11.9999 433.187 11.9999L433.188 7.99994Z" fill="#4318FF" mask="url(#path-134-inside-31_0_3102)"/>
<rect x="267.465" y="13.2048" width="18.4444" height="29.2951" rx="3.5" fill="#DADEE7" stroke="#DADEE7"/>
<mask id="path-137-inside-32_0_3102" fill="white">
<path d="M264.187 15.9999C264.187 12.6862 266.874 9.99994 270.188 9.99994L283.188 9.99994C286.501 9.99994 289.187 12.6862 289.187 15.9999L289.187 29.4754L264.187 29.4753L264.187 15.9999Z"/>
</mask>
<path d="M262.187 15.9999C262.187 11.5817 265.769 7.99994 270.188 7.99994L283.188 7.99994C287.606 7.99994 291.187 11.5817 291.187 15.9999L287.187 15.9999C287.187 13.7908 285.397 11.9999 283.187 11.9999L270.187 11.9999C267.978 11.9999 266.187 13.7908 266.187 15.9999L262.187 15.9999ZM289.187 29.4754L264.187 29.4753L289.187 29.4754ZM262.187 29.4753L262.187 15.9999C262.187 11.5817 265.769 7.99994 270.188 7.99994L270.187 11.9999C267.978 11.9999 266.187 13.7908 266.187 15.9999L266.187 29.4753L262.187 29.4753ZM283.188 7.99994C287.606 7.99994 291.187 11.5817 291.187 15.9999L291.187 29.4754L287.187 29.4754L287.187 15.9999C287.187 13.7908 285.397 11.9999 283.187 11.9999L283.188 7.99994Z" fill="#DADEE7" mask="url(#path-137-inside-32_0_3102)"/>
<rect x="447.872" y="12.7048" width="19.4444" height="30.2951" rx="4" fill="#4318FF"/>
<mask id="path-140-inside-33_0_3102" fill="white">
<path d="M445.094 15.9999C445.094 12.6862 447.78 9.99994 451.094 9.99994L464.094 9.99994C467.407 9.99994 470.094 12.6862 470.094 15.9999L470.094 29.4754L445.094 29.4753L445.094 15.9999Z"/>
</mask>
<path d="M443.094 15.9999C443.094 11.5817 446.675 7.99994 451.094 7.99994L464.094 7.99994C468.512 7.99994 472.094 11.5817 472.094 15.9999L468.094 15.9999C468.094 13.7908 466.303 11.9999 464.094 11.9999L451.094 11.9999C448.885 11.9999 447.094 13.7908 447.094 15.9999L443.094 15.9999ZM470.094 29.4754L445.094 29.4753L470.094 29.4754ZM443.094 29.4753L443.094 15.9999C443.094 11.5817 446.675 7.99994 451.094 7.99994L451.094 11.9999C448.885 11.9999 447.094 13.7908 447.094 15.9999L447.094 29.4753L443.094 29.4753ZM464.094 7.99994C468.512 7.99994 472.094 11.5817 472.094 15.9999L472.094 29.4754L468.094 29.4754L468.094 15.9999C468.094 13.7908 466.303 11.9999 464.094 11.9999L464.094 7.99994Z" fill="#4318FF" mask="url(#path-140-inside-33_0_3102)"/>
<rect x="298.372" y="13.2048" width="18.4444" height="29.2951" rx="3.5" fill="#DADEE7" stroke="#DADEE7"/>
<mask id="path-143-inside-34_0_3102" fill="white">
<path d="M295.094 15.9999C295.094 12.6862 297.78 9.99994 301.094 9.99994L314.094 9.99994C317.407 9.99994 320.094 12.6862 320.094 15.9999L320.094 29.4754L295.094 29.4753L295.094 15.9999Z"/>
</mask>
<path d="M293.094 15.9999C293.094 11.5817 296.675 7.99994 301.094 7.99994L314.094 7.99994C318.512 7.99994 322.094 11.5817 322.094 15.9999L318.094 15.9999C318.094 13.7908 316.303 11.9999 314.094 11.9999L301.094 11.9999C298.885 11.9999 297.094 13.7908 297.094 15.9999L293.094 15.9999ZM320.094 29.4754L295.094 29.4753L320.094 29.4754ZM293.094 29.4753L293.094 15.9999C293.094 11.5817 296.675 7.99994 301.094 7.99994L301.094 11.9999C298.885 11.9999 297.094 13.7908 297.094 15.9999L297.094 29.4753L293.094 29.4753ZM314.094 7.99994C318.512 7.99994 322.094 11.5817 322.094 15.9999L322.094 29.4754L318.094 29.4754L318.094 15.9999C318.094 13.7908 316.303 11.9999 314.094 11.9999L314.094 7.99994Z" fill="#DADEE7" mask="url(#path-143-inside-34_0_3102)"/>
<rect x="479.278" y="13.2048" width="18.4444" height="29.2951" rx="3.5" fill="#DADEE7" stroke="#DADEE7"/>
<mask id="path-146-inside-35_0_3102" fill="white">
<path d="M476 15.9999C476 12.6862 478.686 9.99994 482 9.99994L495 9.99994C498.314 9.99994 501 12.6862 501 15.9999L501 29.4754L476 29.4753L476 15.9999Z"/>
</mask>
<path d="M474 15.9999C474 11.5817 477.582 7.99994 482 7.99994L495 7.99994C499.418 7.99994 503 11.5817 503 15.9999L499 15.9999C499 13.7908 497.209 11.9999 495 11.9999L482 11.9999C479.791 11.9999 478 13.7908 478 15.9999L474 15.9999ZM501 29.4754L476 29.4753L501 29.4754ZM474 29.4753L474 15.9999C474 11.5817 477.582 7.99994 482 7.99994L482 11.9999C479.791 11.9999 478 13.7908 478 15.9999L478 29.4753L474 29.4753ZM495 7.99994C499.418 7.99994 503 11.5817 503 15.9999L503 29.4754L499 29.4754L499 15.9999C499 13.7908 497.209 11.9999 495 11.9999L495 7.99994Z" fill="#DADEE7" mask="url(#path-146-inside-35_0_3102)"/>
<rect x="328.778" y="12.7048" width="19.4444" height="30.2951" rx="4" fill="#4318FF"/>
<mask id="path-149-inside-36_0_3102" fill="white">
<path d="M326 15.9999C326 12.6862 328.686 9.99994 332 9.99994L345 9.99994C348.314 9.99994 351 12.6862 351 15.9999L351 29.4754L326 29.4753L326 15.9999Z"/>
</mask>
<path d="M324 15.9999C324 11.5817 327.582 7.99994 332 7.99994L345 7.99994C349.418 7.99994 353 11.5817 353 15.9999L349 15.9999C349 13.7908 347.209 11.9999 345 11.9999L332 11.9999C329.791 11.9999 328 13.7908 328 15.9999L324 15.9999ZM351 29.4754L326 29.4753L351 29.4754ZM324 29.4753L324 15.9999C324 11.5817 327.582 7.99994 332 7.99994L332 11.9999C329.791 11.9999 328 13.7908 328 15.9999L328 29.4753L324 29.4753ZM345 7.99994C349.418 7.99994 353 11.5817 353 15.9999L353 29.4754L349 29.4754L349 15.9999C349 13.7908 347.209 11.9999 345 11.9999L345 7.99994Z" fill="#4318FF" mask="url(#path-149-inside-36_0_3102)"/>
<rect x="358.5" y="62.5" width="52" height="24" rx="3.5" fill="#DADEE7"/>
<path d="M367.33 79V69.004H368.744L373.294 77.236H373.35C373.341 76.9933 373.327 76.7133 373.308 76.396C373.289 76.0787 373.275 75.7613 373.266 75.444C373.257 75.1173 373.252 74.8373 373.252 74.604V69.004H374.358V79H372.986L368.38 70.74H368.324C368.343 70.9827 368.357 71.272 368.366 71.608C368.385 71.9347 368.399 72.2613 368.408 72.588C368.427 72.9147 368.436 73.204 368.436 73.456V79H367.33ZM375.688 79V78.034H379.286V79H375.688ZM377.48 77.124C377.079 77.124 376.719 77.0353 376.402 76.858C376.094 76.6713 375.851 76.4007 375.674 76.046C375.497 75.6913 375.408 75.2573 375.408 74.744C375.408 73.9787 375.595 73.3953 375.968 72.994C376.351 72.5833 376.869 72.378 377.522 72.378C377.923 72.378 378.278 72.4713 378.586 72.658C378.903 72.8353 379.151 73.1013 379.328 73.456C379.515 73.8013 379.608 74.2307 379.608 74.744C379.608 75.5093 379.417 76.0973 379.034 76.508C378.651 76.9187 378.133 77.124 377.48 77.124ZM377.508 76.312C377.919 76.312 378.213 76.1813 378.39 75.92C378.567 75.6493 378.656 75.2573 378.656 74.744C378.656 74.2213 378.567 73.8387 378.39 73.596C378.213 73.344 377.919 73.218 377.508 73.218C377.107 73.218 376.813 73.344 376.626 73.596C376.439 73.8387 376.346 74.2213 376.346 74.744C376.346 75.2573 376.435 75.6493 376.612 75.92C376.799 76.1813 377.097 76.312 377.508 76.312ZM387.595 69.984H382.681V73.176C382.896 72.8773 383.213 72.6347 383.633 72.448C384.053 72.252 384.506 72.154 384.991 72.154C385.766 72.154 386.396 72.3173 386.881 72.644C387.367 72.9613 387.712 73.3767 387.917 73.89C388.132 74.394 388.239 74.9307 388.239 75.5C388.239 76.172 388.113 76.774 387.861 77.306C387.609 77.838 387.222 78.258 386.699 78.566C386.186 78.874 385.547 79.028 384.781 79.028C383.801 79.028 383.008 78.776 382.401 78.272C381.795 77.768 381.426 77.096 381.295 76.256H382.541C382.663 76.788 382.919 77.2033 383.311 77.502C383.703 77.8007 384.198 77.95 384.795 77.95C385.533 77.95 386.088 77.7307 386.461 77.292C386.835 76.844 387.021 76.256 387.021 75.528C387.021 74.8 386.835 74.24 386.461 73.848C386.088 73.4467 385.537 73.246 384.809 73.246C384.315 73.246 383.881 73.3673 383.507 73.61C383.143 73.8433 382.877 74.1653 382.709 74.576H381.505V68.864H387.595V69.984ZM389.596 70.04V68.878H392.228V79H390.94V70.04H389.596ZM400.059 71.286C399.853 70.25 399.214 69.732 398.141 69.732C397.31 69.732 396.689 70.054 396.279 70.698C395.868 71.3327 395.667 72.3827 395.677 73.848C395.891 73.3627 396.246 72.9847 396.741 72.714C397.245 72.434 397.805 72.294 398.421 72.294C399.382 72.294 400.147 72.5927 400.717 73.19C401.295 73.7873 401.585 74.6133 401.585 75.668C401.585 76.3027 401.459 76.872 401.207 77.376C400.964 77.88 400.591 78.2813 400.087 78.58C399.592 78.8787 398.99 79.028 398.281 79.028C397.319 79.028 396.568 78.8133 396.027 78.384C395.485 77.9547 395.107 77.362 394.893 76.606C394.678 75.85 394.571 74.9167 394.571 73.806C394.571 70.3807 395.765 68.668 398.155 68.668C399.069 68.668 399.788 68.9153 400.311 69.41C400.833 69.9047 401.141 70.53 401.235 71.286H400.059ZM398.155 73.372C397.753 73.372 397.375 73.456 397.021 73.624C396.666 73.7827 396.377 74.03 396.153 74.366C395.938 74.6927 395.831 75.094 395.831 75.57C395.831 76.2793 396.036 76.858 396.447 77.306C396.857 77.7447 397.445 77.964 398.211 77.964C398.864 77.964 399.382 77.7633 399.765 77.362C400.157 76.9513 400.353 76.4007 400.353 75.71C400.353 74.982 400.166 74.4127 399.793 74.002C399.419 73.582 398.873 73.372 398.155 73.372Z" fill="#2B3674"/>
<rect x="358.5" y="62.5" width="52" height="24" rx="3.5" stroke="#DADEE7"/>
<rect x="448" y="48.9999" width="19" height="17" rx="4" fill="#DADEE7"/>
<path d="M459.45 60.9999L458.59 58.7899H455.76L454.91 60.9999H454L456.79 53.8299H457.6L460.38 60.9999H459.45ZM457.52 55.8299C457.5 55.7766 457.467 55.6799 457.42 55.5399C457.373 55.3999 457.327 55.2566 457.28 55.1099C457.24 54.9566 457.207 54.8399 457.18 54.7599C457.147 54.8933 457.11 55.0299 457.07 55.1699C457.037 55.3033 457 55.4266 456.96 55.5399C456.927 55.6533 456.897 55.7499 456.87 55.8299L456.06 57.9899H458.32L457.52 55.8299Z" fill="#2B3674"/>
<rect x="297" y="48.9999" width="19" height="17" rx="4" fill="#DADEE7"/>
<path d="M303.97 60.9999V53.8599H308.21V54.6499H304.87V56.8799H305.93C306.643 56.8799 307.197 56.9699 307.59 57.1499C307.983 57.3233 308.257 57.5633 308.41 57.8699C308.563 58.1699 308.64 58.5166 308.64 58.9099C308.64 59.3433 308.553 59.7166 308.38 60.0299C308.213 60.3433 307.94 60.5833 307.56 60.7499C307.18 60.9166 306.68 60.9999 306.06 60.9999H303.97ZM305.97 60.2299C306.61 60.2299 307.06 60.1233 307.32 59.9099C307.58 59.6899 307.71 59.3566 307.71 58.9099C307.71 58.6033 307.647 58.3599 307.52 58.1799C307.4 57.9933 307.2 57.8599 306.92 57.7799C306.647 57.6999 306.28 57.6599 305.82 57.6599H304.87V60.2299H305.97Z" fill="#2B3674"/>
<rect x="383" y="43.0004" width="2" height="43" rx="1" transform="rotate(-180 383 43.0004)" fill="#B0BBD5"/>
<path fill-rule="evenodd" clip-rule="evenodd" d="M20 3H1230C1239.39 3 1247 10.6112 1247 20V70.5C1247 71.3284 1247.67 72 1248.5 72C1249.33 72 1250 71.3284 1250 70.5V20C1250 8.95431 1241.05 0 1230 0H20C8.95431 0 0 8.9543 0 20V195C0 206.046 8.95427 215 20 215H1230C1241.05 215 1250 206.046 1250 195V148.5C1250 147.672 1249.33 147 1248.5 147C1247.67 147 1247 147.672 1247 148.5V195C1247 204.389 1239.39 212 1230 212H20C10.6111 212 3 204.389 3 195V20C3 10.6112 10.6112 3 20 3Z" fill="#B0BBD5"/>
<path d="M590.594 27.2188H580.312C579.923 27.2188 579.549 27.3735 579.274 27.6489C578.998 27.9244 578.844 28.298 578.844 28.6875V36.0312H571.5C571.11 36.0312 570.737 36.186 570.461 36.4614C570.186 36.7369 570.031 37.1105 570.031 37.5V44.8438H562.687C562.298 44.8438 561.924 44.9985 561.649 45.2739C561.373 45.5494 561.219 45.923 561.219 46.3125V53.6562H552.406C552.017 53.6562 551.643 53.811 551.368 54.0864C551.092 54.3619 550.937 54.7355 550.937 55.125C550.937 55.5145 551.092 55.8881 551.368 56.1636C551.643 56.439 552.017 56.5938 552.406 56.5938H562.687C563.077 56.5938 563.451 56.439 563.726 56.1636C564.002 55.8881 564.156 55.5145 564.156 55.125V47.7812H571.5C571.89 47.7812 572.263 47.6265 572.539 47.3511C572.814 47.0756 572.969 46.702 572.969 46.3125V38.9688H580.312C580.702 38.9688 581.076 38.814 581.351 38.5386C581.627 38.2631 581.781 37.8895 581.781 37.5V30.1562H590.594C590.983 30.1562 591.357 30.0015 591.632 29.7261C591.908 29.4506 592.062 29.077 592.062 28.6875C592.062 28.298 591.908 27.9244 591.632 27.6489C591.357 27.3735 590.983 27.2188 590.594 27.2188ZM552.406 40.4375C552.6 40.4386 552.791 40.4016 552.97 40.3285C553.149 40.2554 553.312 40.1477 553.449 40.0116L570.031 23.4294V25.2506C570.031 25.6402 570.186 26.0137 570.461 26.2892C570.737 26.5646 571.11 26.7194 571.5 26.7194C571.89 26.7194 572.263 26.5646 572.539 26.2892C572.814 26.0137 572.969 25.6402 572.969 25.2506V19.875C572.969 19.4855 572.814 19.1119 572.539 18.8364C572.263 18.561 571.89 18.4062 571.5 18.4062H566.124C565.735 18.4062 565.361 18.561 565.086 18.8364C564.81 19.1119 564.656 19.4855 564.656 19.875C564.656 20.2645 564.81 20.6381 565.086 20.9136C565.361 21.189 565.735 21.3438 566.124 21.3438H567.946L551.363 37.9259C551.156 38.1314 551.015 38.3938 550.958 38.6799C550.9 38.9659 550.929 39.2626 551.041 39.532C551.153 39.8014 551.343 40.0314 551.586 40.1927C551.829 40.354 552.115 40.4392 552.406 40.4375Z" fill="#B0BBD5"/>
<rect x="160.687" y="12.7049" width="19.4444" height="30.2951" rx="4" fill="#DADEE7"/>
<mask id="path-161-inside-37_0_3102" fill="white">
<path d="M157.909 16C157.909 12.6863 160.596 10 163.909 10L176.909 10C180.223 10 182.909 12.6863 182.909 16L182.909 29.4754L157.909 29.4754L157.909 16Z"/>
</mask>
<path d="M155.909 16C155.909 11.5817 159.491 8 163.909 8L176.909 8C181.328 8 184.909 11.5817 184.909 16L180.909 16C180.909 13.7909 179.119 12 176.909 12L163.909 12C161.7 12 159.909 13.7909 159.909 16L155.909 16ZM182.909 29.4754L157.909 29.4754L182.909 29.4754ZM155.909 29.4754L155.909 16C155.909 11.5817 159.491 8 163.909 8L163.909 12C161.7 12 159.909 13.7909 159.909 16L159.909 29.4754L155.909 29.4754ZM176.909 8C181.328 8 184.909 11.5817 184.909 16L184.909 29.4754L180.909 29.4754L180.909 16C180.909 13.7909 179.119 12 176.909 12L176.909 8Z" fill="#DADEE7" mask="url(#path-161-inside-37_0_3102)"/>
<rect x="63.7737" y="12.7049" width="19.4444" height="30.2951" rx="4" fill="#DADEE7"/>
<mask id="path-164-inside-38_0_3102" fill="white">
<path d="M60.9958 16C60.9958 12.6863 63.6821 10 66.9958 10L79.9958 10C83.3096 10 85.9958 12.6863 85.9958 16L85.9958 29.4754L60.9958 29.4754L60.9958 16Z"/>
</mask>
<path d="M58.9958 16C58.9958 11.5817 62.5776 8 66.9958 8L79.9958 8C84.4141 8 87.9958 11.5817 87.9958 16L83.9958 16C83.9958 13.7909 82.205 12 79.9958 12L66.9958 12C64.7867 12 62.9958 13.7909 62.9958 16L58.9958 16ZM85.9958 29.4754L60.9958 29.4754L85.9958 29.4754ZM58.9958 29.4754L58.9958 16C58.9958 11.5817 62.5776 8 66.9958 8L66.9958 12C64.7867 12 62.9958 13.7909 62.9958 16L62.9958 29.4754L58.9958 29.4754ZM79.9958 8C84.4141 8 87.9958 11.5817 87.9958 16L87.9958 29.4754L83.9958 29.4754L83.9958 16C83.9958 13.7909 82.205 12 79.9958 12L79.9958 8Z" fill="#DADEE7" mask="url(#path-164-inside-38_0_3102)"/>
<rect x="192.155" y="12.7049" width="19.4444" height="30.2951" rx="4" fill="#DADEE7"/>
<mask id="path-167-inside-39_0_3102" fill="white">
<path d="M189.377 16C189.377 12.6863 192.063 10 195.377 10L208.377 10C211.691 10 214.377 12.6863 214.377 16L214.377 29.4754L189.377 29.4754L189.377 16Z"/>
</mask>
<path d="M187.377 16C187.377 11.5817 190.959 8 195.377 8L208.377 8C212.795 8 216.377 11.5817 216.377 16L212.377 16C212.377 13.7909 210.586 12 208.377 12L195.377 12C193.168 12 191.377 13.7909 191.377 16L187.377 16ZM214.377 29.4754L189.377 29.4754L214.377 29.4754ZM187.377 29.4754L187.377 16C187.377 11.5817 190.959 8 195.377 8L195.377 12C193.168 12 191.377 13.7909 191.377 16L191.377 29.4754L187.377 29.4754ZM208.377 8C212.795 8 216.377 11.5817 216.377 16L216.377 29.4754L212.377 29.4754L212.377 16C212.377 13.7909 210.586 12 208.377 12L208.377 8Z" fill="#DADEE7" mask="url(#path-167-inside-39_0_3102)"/>
<rect x="95.2415" y="12.705" width="19.4444" height="30.295" rx="4" fill="#DADEE7"/>
<mask id="path-170-inside-40_0_3102" fill="white">
<path d="M92.4636 16C92.4636 12.6863 95.1499 10 98.4636 10L111.464 10C114.777 10 117.464 12.6863 117.464 16L117.464 29.4754L92.4636 29.4754L92.4636 16Z"/>
</mask>
<path d="M90.4636 16C90.4636 11.5817 94.0453 8 98.4636 8L111.464 8C115.882 8 119.464 11.5817 119.464 16L115.464 16C115.464 13.7909 113.673 12 111.464 12L98.4636 12C96.2545 12 94.4636 13.7909 94.4636 16L90.4636 16ZM117.464 29.4754L92.4636 29.4754L117.464 29.4754ZM90.4636 29.4754L90.4636 16C90.4636 11.5817 94.0453 8 98.4636 8L98.4636 12C96.2545 12 94.4636 13.7909 94.4636 16L94.4636 29.4754L90.4636 29.4754ZM111.464 8C115.882 8 119.464 11.5817 119.464 16L119.464 29.4754L115.464 29.4754L115.464 16C115.464 13.7909 113.673 12 111.464 12L111.464 8Z" fill="#DADEE7" mask="url(#path-170-inside-40_0_3102)"/>
<rect x="177" y="49" width="19" height="17" rx="4" fill="#DADEE7"/>
<path d="M188.45 61L187.59 58.79H184.76L183.91 61H183L185.79 53.83H186.6L189.38 61H188.45ZM186.52 55.83C186.5 55.7767 186.467 55.68 186.42 55.54C186.374 55.4 186.327 55.2567 186.28 55.11C186.24 54.9567 186.207 54.84 186.18 54.76C186.147 54.8933 186.11 55.03 186.07 55.17C186.037 55.3033 186 55.4267 185.96 55.54C185.927 55.6533 185.897 55.75 185.87 55.83L185.06 57.99H187.32L186.52 55.83Z" fill="#2B3674"/>
<rect x="79.0002" y="49" width="19" height="17" rx="4" fill="#DADEE7"/>
<path d="M85.9702 61V53.86H90.2102V54.65H86.8702V56.88H87.9302C88.6436 56.88 89.1969 56.97 89.5902 57.15C89.9836 57.3233 90.2569 57.5633 90.4102 57.87C90.5636 58.17 90.6402 58.5167 90.6402 58.91C90.6402 59.3433 90.5536 59.7167 90.3802 60.03C90.2136 60.3433 89.9402 60.5833 89.5602 60.75C89.1802 60.9167 88.6802 61 88.0602 61H85.9702ZM87.9702 60.23C88.6102 60.23 89.0602 60.1233 89.3202 59.91C89.5802 59.69 89.7102 59.3567 89.7102 58.91C89.7102 58.6033 89.6469 58.36 89.5202 58.18C89.4002 57.9933 89.2002 57.86 88.9202 57.78C88.6469 57.7 88.2802 57.66 87.8202 57.66H86.8702V60.23H87.9702Z" fill="#2B3674"/>
<rect x="111" y="62" width="53" height="25" rx="4" fill="#DADEE7"/>
<path d="M120.33 79V69.004H121.744L126.294 77.236H126.35C126.341 76.9933 126.327 76.7133 126.308 76.396C126.29 76.0787 126.276 75.7613 126.266 75.444C126.257 75.1173 126.252 74.8373 126.252 74.604V69.004H127.358V79H125.986L121.38 70.74H121.324C121.343 70.9827 121.357 71.272 121.366 71.608C121.385 71.9347 121.399 72.2613 121.408 72.588C121.427 72.9147 121.436 73.204 121.436 73.456V79H120.33ZM128.688 79V78.034H132.286V79H128.688ZM130.48 77.124C130.079 77.124 129.72 77.0353 129.402 76.858C129.094 76.6713 128.852 76.4007 128.674 76.046C128.497 75.6913 128.408 75.2573 128.408 74.744C128.408 73.9787 128.595 73.3953 128.968 72.994C129.351 72.5833 129.869 72.378 130.522 72.378C130.924 72.378 131.278 72.4713 131.586 72.658C131.904 72.8353 132.151 73.1013 132.328 73.456C132.515 73.8013 132.608 74.2307 132.608 74.744C132.608 75.5093 132.417 76.0973 132.034 76.508C131.652 76.9187 131.134 77.124 130.48 77.124ZM130.508 76.312C130.919 76.312 131.213 76.1813 131.39 75.92C131.568 75.6493 131.656 75.2573 131.656 74.744C131.656 74.2213 131.568 73.8387 131.39 73.596C131.213 73.344 130.919 73.218 130.508 73.218C130.107 73.218 129.813 73.344 129.626 73.596C129.44 73.8387 129.346 74.2213 129.346 74.744C129.346 75.2573 129.435 75.6493 129.612 75.92C129.799 76.1813 130.098 76.312 130.508 76.312ZM140.596 69.984H135.682V73.176C135.896 72.8773 136.214 72.6347 136.634 72.448C137.054 72.252 137.506 72.154 137.992 72.154C138.766 72.154 139.396 72.3173 139.882 72.644C140.367 72.9613 140.712 73.3767 140.918 73.89C141.132 74.394 141.24 74.9307 141.24 75.5C141.24 76.172 141.114 76.774 140.862 77.306C140.61 77.838 140.222 78.258 139.7 78.566C139.186 78.874 138.547 79.028 137.782 79.028C136.802 79.028 136.008 78.776 135.402 78.272C134.795 77.768 134.426 77.096 134.296 76.256H135.542C135.663 76.788 135.92 77.2033 136.312 77.502C136.704 77.8007 137.198 77.95 137.796 77.95C138.533 77.95 139.088 77.7307 139.462 77.292C139.835 76.844 140.022 76.256 140.022 75.528C140.022 74.8 139.835 74.24 139.462 73.848C139.088 73.4467 138.538 73.246 137.81 73.246C137.315 73.246 136.881 73.3673 136.508 73.61C136.144 73.8433 135.878 74.1653 135.71 74.576H134.506V68.864H140.596V69.984ZM142.597 70.04V68.878H145.229V79H143.941V70.04H142.597ZM153.871 69.984H148.957V73.176C149.172 72.8773 149.489 72.6347 149.909 72.448C150.329 72.252 150.782 72.154 151.267 72.154C152.042 72.154 152.672 72.3173 153.157 72.644C153.642 72.9613 153.988 73.3767 154.193 73.89C154.408 74.394 154.515 74.9307 154.515 75.5C154.515 76.172 154.389 76.774 154.137 77.306C153.885 77.838 153.498 78.258 152.975 78.566C152.462 78.874 151.822 79.028 151.057 79.028C150.077 79.028 149.284 78.776 148.677 78.272C148.07 77.768 147.702 77.096 147.571 76.256H148.817C148.938 76.788 149.195 77.2033 149.587 77.502C149.979 77.8007 150.474 77.95 151.071 77.95C151.808 77.95 152.364 77.7307 152.737 77.292C153.11 76.844 153.297 76.256 153.297 75.528C153.297 74.8 153.11 74.24 152.737 73.848C152.364 73.4467 151.813 73.246 151.085 73.246C150.59 73.246 150.156 73.3673 149.783 73.61C149.419 73.8433 149.153 74.1653 148.985 74.576H147.781V68.864H153.871V69.984Z" fill="#2B3674"/>
<path fill-rule="evenodd" clip-rule="evenodd" d="M42 67L42 0L43.5 2.62268e-07L43.5 67C43.5 68.933 45.067 70.5 47 70.5L103 70.5L103 72L47 72C44.2386 72 42 69.7614 42 67ZM174 72L229 72C231.761 72 234 69.7615 234 67L234 3.35703e-05L232.5 3.33081e-05L232.5 67C232.5 68.933 230.933 70.5 229 70.5L174 70.5L174 72Z" fill="#B0BBD5"/>
<rect x="139" y="43" width="2" height="43" rx="1" transform="rotate(-180 139 43)" fill="#B0BBD5"/>
</svg>
