<svg width="1250" height="215" viewBox="0 0 1250 215" fill="none" xmlns="http://www.w3.org/2000/svg">
<rect y="-0.000976562" width="1250" height="215" rx="20" fill="white"/>
<path d="M9 162C9 159.791 10.7909 158 13 158H163C165.209 158 167 159.791 167 162V202C167 204.209 165.209 206 163 206H23C15.268 206 9 199.732 9 192V162Z" fill="#DADEE7"/>
<path d="M77.6761 168.15C75.1806 168.15 73.1504 170.819 73.1504 174.099C73.1504 176.685 74.4098 178.952 76.2504 179.748L75.8387 194.962C75.8324 195.207 75.8752 195.451 75.9647 195.679C76.0543 195.908 76.1886 196.116 76.3598 196.292C76.5311 196.467 76.7357 196.607 76.9618 196.702C77.1878 196.798 77.4307 196.847 77.676 196.847C77.9214 196.847 78.1642 196.798 78.3903 196.702C78.6163 196.607 78.821 196.467 78.9922 196.292C79.1635 196.116 79.2978 195.908 79.3873 195.679C79.4768 195.451 79.5197 195.207 79.5134 194.962L79.1017 179.748C80.9423 178.952 82.2017 176.685 82.2017 174.099C82.2021 170.819 80.1719 168.15 77.6761 168.15ZM78.5349 179.058C78.4487 179.087 78.3741 179.143 78.3221 179.218C78.2701 179.292 78.2435 179.382 78.2463 179.473L78.6665 194.986C78.67 195.118 78.6471 195.25 78.5989 195.373C78.5508 195.496 78.4784 195.609 78.3861 195.703C78.2938 195.798 78.1834 195.874 78.0615 195.925C77.9396 195.977 77.8086 196.003 77.6763 196.003C77.5439 196.003 77.4129 195.977 77.291 195.925C77.1691 195.874 77.0587 195.798 76.9664 195.703C76.8741 195.609 76.8018 195.496 76.7536 195.373C76.7055 195.25 76.6825 195.118 76.6861 194.986L77.1063 179.473C77.1088 179.382 77.0821 179.293 77.0301 179.218C76.9781 179.144 76.9036 179.088 76.8176 179.059C75.1574 178.501 73.998 176.462 73.998 174.099C73.998 171.287 75.6481 168.998 77.6761 168.998C79.7042 168.998 81.3545 171.287 81.3545 174.099C81.3545 176.462 80.1951 178.501 78.5349 179.058ZM88.5479 168.166C88.2786 168.118 88.001 168.169 87.7663 168.31C87.5315 168.45 87.3554 168.671 87.2704 168.931C86.0624 172.471 84.5894 178.298 84.4315 185.958C84.4299 186.035 84.4496 186.112 84.4884 186.179C84.5272 186.246 84.5837 186.301 84.6516 186.338L86.3331 187.26L85.8417 194.896C85.8258 195.142 85.8593 195.388 85.9405 195.62C86.0217 195.853 86.1487 196.067 86.3142 196.249C86.4796 196.431 86.68 196.578 86.9035 196.682C87.127 196.785 87.3689 196.842 87.615 196.85C87.8611 196.858 88.1062 196.816 88.3359 196.728C88.5655 196.639 88.7749 196.505 88.9517 196.333C89.1285 196.162 89.269 195.957 89.3649 195.73C89.4608 195.503 89.5101 195.26 89.5099 195.014V169.302C89.5136 169.028 89.4182 168.763 89.2414 168.554C89.0646 168.345 88.8183 168.208 88.5479 168.166ZM88.6625 195.014C88.6622 195.276 88.5579 195.527 88.3727 195.712C88.1874 195.897 87.9362 196.002 87.6741 196.002C87.539 196.002 87.4053 195.974 87.2813 195.92C87.1573 195.867 87.0457 195.788 86.9533 195.69C86.8608 195.591 86.7896 195.475 86.744 195.347C86.6983 195.22 86.6793 195.085 86.6879 194.95L87.1965 187.046C87.2018 186.965 87.1839 186.885 87.1451 186.814C87.1062 186.744 87.0481 186.685 86.9774 186.647L85.2852 185.719C85.4676 178.294 86.8979 172.648 88.0728 169.205C88.0956 169.137 88.142 169.079 88.2036 169.042C88.2652 169.005 88.3379 168.991 88.4088 169.002C88.4798 169.014 88.5442 169.051 88.5907 169.105C88.6372 169.16 88.6626 169.23 88.6625 169.302V195.014ZM101.426 168.15C101.37 168.15 101.315 168.161 101.264 168.183C101.212 168.204 101.165 168.235 101.126 168.274C101.087 168.314 101.055 168.361 101.034 168.412C101.013 168.463 101.002 168.519 101.002 168.574V175.523C101.003 176.343 100.729 177.14 100.225 177.787C99.7198 178.433 99.0129 178.892 98.2168 179.09C98.1231 179.114 98.0403 179.168 97.9819 179.245C97.9235 179.322 97.8932 179.417 97.8959 179.513L98.3149 194.984C98.319 195.117 98.2965 195.249 98.2486 195.373C98.2006 195.497 98.1283 195.61 98.0359 195.705C97.9435 195.8 97.8329 195.876 97.7106 195.928C97.5883 195.98 97.4569 196.007 97.3241 196.007C97.1913 196.007 97.0599 195.98 96.9376 195.928C96.8153 195.876 96.7047 195.8 96.6123 195.705C96.5199 195.61 96.4476 195.497 96.3996 195.373C96.3517 195.249 96.3292 195.117 96.3333 194.984L96.7523 179.513C96.755 179.417 96.7247 179.322 96.6663 179.245C96.6079 179.168 96.5251 179.114 96.4314 179.09C95.6349 178.893 94.9276 178.434 94.4224 177.787C93.9173 177.141 93.6433 176.343 93.6443 175.523V168.574C93.6443 168.462 93.5996 168.354 93.5202 168.275C93.4407 168.195 93.3329 168.15 93.2205 168.15C93.1081 168.15 93.0003 168.195 92.9208 168.275C92.8413 168.354 92.7966 168.462 92.7966 168.574V175.523C92.7954 176.473 93.0943 177.4 93.6506 178.172C94.207 178.943 94.9924 179.519 95.8952 179.817L95.4852 194.961C95.4783 195.207 95.5207 195.451 95.6099 195.68C95.6992 195.909 95.8335 196.118 96.0048 196.294C96.1762 196.471 96.3811 196.611 96.6076 196.706C96.834 196.802 97.0773 196.851 97.3231 196.851C97.5689 196.851 97.8123 196.802 98.0387 196.706C98.2651 196.611 98.4701 196.471 98.6414 196.294C98.8128 196.118 98.9471 195.909 99.0363 195.68C99.1256 195.451 99.168 195.207 99.1611 194.961L98.7511 179.817C99.6538 179.519 100.439 178.943 100.996 178.172C101.552 177.4 101.851 176.473 101.85 175.523V168.574C101.85 168.519 101.839 168.463 101.817 168.412C101.796 168.361 101.765 168.314 101.726 168.274C101.686 168.235 101.639 168.204 101.588 168.183C101.537 168.161 101.481 168.15 101.426 168.15Z" fill="#2B3674"/>
<path d="M95.2717 175.699C95.3274 175.699 95.3825 175.688 95.434 175.666C95.4854 175.645 95.5321 175.614 95.5715 175.575C95.6109 175.535 95.6421 175.488 95.6634 175.437C95.6846 175.386 95.6956 175.33 95.6956 175.275V168.574C95.6956 168.462 95.6509 168.354 95.5714 168.275C95.4919 168.195 95.3841 168.15 95.2717 168.15C95.1593 168.15 95.0515 168.195 94.972 168.275C94.8926 168.354 94.8479 168.462 94.8479 168.574V175.275C94.8479 175.33 94.8588 175.386 94.8801 175.437C94.9014 175.488 94.9326 175.535 94.972 175.575C95.0113 175.614 95.0581 175.645 95.1095 175.666C95.1609 175.688 95.2161 175.699 95.2717 175.699ZM97.3228 175.699C97.4352 175.699 97.543 175.654 97.6225 175.575C97.702 175.495 97.7466 175.387 97.7466 175.275V168.574C97.7466 168.462 97.702 168.354 97.6225 168.275C97.543 168.195 97.4352 168.15 97.3228 168.15C97.2104 168.15 97.1026 168.195 97.0231 168.275C96.9436 168.354 96.899 168.462 96.899 168.574V175.275C96.899 175.33 96.9099 175.386 96.9312 175.437C96.9525 175.488 96.9837 175.535 97.0231 175.575C97.0624 175.614 97.1091 175.645 97.1606 175.666C97.212 175.688 97.2671 175.699 97.3228 175.699ZM99.3739 175.699C99.4296 175.699 99.4847 175.688 99.5361 175.666C99.5876 175.645 99.6343 175.614 99.6737 175.575C99.713 175.535 99.7442 175.488 99.7655 175.437C99.7868 175.386 99.7978 175.33 99.7977 175.275V168.574C99.7977 168.462 99.7531 168.354 99.6736 168.275C99.5941 168.195 99.4863 168.15 99.3739 168.15C99.2615 168.15 99.1537 168.195 99.0742 168.275C98.9947 168.354 98.9501 168.462 98.9501 168.574V175.275C98.9501 175.387 98.9947 175.495 99.0742 175.575C99.1537 175.654 99.2615 175.699 99.3739 175.699Z" fill="#2B3674"/>
<path fill-rule="evenodd" clip-rule="evenodd" d="M1230 2.99902H20C10.6112 2.99902 3 10.6102 3 19.999V194.999C3 204.388 10.6111 211.999 20 211.999H1230C1239.39 211.999 1247 204.388 1247 194.999V19.999C1247 10.6102 1239.39 2.99902 1230 2.99902ZM20 -0.000976562C8.95431 -0.000976562 0 8.95333 0 19.999V194.999C0 206.045 8.95427 214.999 20 214.999H1230C1241.05 214.999 1250 206.045 1250 194.999V19.999C1250 8.95333 1241.05 -0.000976562 1230 -0.000976562H20Z" fill="#B0BBD5"/>
<path d="M699.594 28.2188H689.312C688.923 28.2188 688.549 28.3735 688.274 28.6489C687.998 28.9244 687.844 29.298 687.844 29.6875V37.0312H680.5C680.11 37.0312 679.737 37.186 679.461 37.4614C679.186 37.7369 679.031 38.1105 679.031 38.5V45.8438H671.687C671.298 45.8438 670.924 45.9985 670.649 46.2739C670.373 46.5494 670.219 46.923 670.219 47.3125V54.6562H661.406C661.017 54.6562 660.643 54.811 660.368 55.0864C660.092 55.3619 659.937 55.7355 659.937 56.125C659.937 56.5145 660.092 56.8881 660.368 57.1636C660.643 57.439 661.017 57.5938 661.406 57.5938H671.687C672.077 57.5938 672.451 57.439 672.726 57.1636C673.002 56.8881 673.156 56.5145 673.156 56.125V48.7812H680.5C680.89 48.7812 681.263 48.6265 681.539 48.3511C681.814 48.0756 681.969 47.702 681.969 47.3125V39.9688H689.312C689.702 39.9688 690.076 39.814 690.351 39.5386C690.627 39.2631 690.781 38.8895 690.781 38.5V31.1562H699.594C699.983 31.1562 700.357 31.0015 700.632 30.7261C700.908 30.4506 701.062 30.077 701.062 29.6875C701.062 29.298 700.908 28.9244 700.632 28.6489C700.357 28.3735 699.983 28.2188 699.594 28.2188ZM661.406 41.4375C661.6 41.4386 661.791 41.4016 661.97 41.3285C662.149 41.2554 662.312 41.1477 662.449 41.0116L679.031 24.4294V26.2506C679.031 26.6402 679.186 27.0137 679.461 27.2892C679.737 27.5646 680.11 27.7194 680.5 27.7194C680.89 27.7194 681.263 27.5646 681.539 27.2892C681.814 27.0137 681.969 26.6402 681.969 26.2506V20.875C681.969 20.4855 681.814 20.1119 681.539 19.8364C681.263 19.561 680.89 19.4062 680.5 19.4062H675.124C674.735 19.4062 674.361 19.561 674.086 19.8364C673.81 20.1119 673.656 20.4855 673.656 20.875C673.656 21.2645 673.81 21.6381 674.086 21.9136C674.361 22.189 674.735 22.3438 675.124 22.3438H676.946L660.363 38.9259C660.156 39.1314 660.015 39.3938 659.958 39.6799C659.9 39.9659 659.929 40.2626 660.041 40.532C660.153 40.8014 660.343 41.0314 660.586 41.1927C660.829 41.354 661.115 41.4392 661.406 41.4375Z" fill="#B0BBD5"/>
<rect x="288" y="43" width="2" height="43" rx="1" transform="rotate(-180 288 43)" fill="#B0BBD5"/>
<rect x="309.687" y="12.705" width="19.4444" height="30.2951" rx="4" fill="#DADEE7"/>
<mask id="path-9-inside-1_0_3317" fill="white">
<path d="M306.909 16C306.909 12.6863 309.595 10 312.909 10L325.909 10C329.223 10 331.909 12.6863 331.909 16L331.909 29.4754L306.909 29.4754L306.909 16Z"/>
</mask>
<path d="M304.909 16C304.909 11.5817 308.491 8 312.909 8L325.909 8C330.327 8 333.909 11.5817 333.909 16L329.909 16C329.909 13.7909 328.118 12 325.909 12L312.909 12C310.7 12 308.909 13.7909 308.909 16L304.909 16ZM331.909 29.4754L306.909 29.4754L331.909 29.4754ZM304.909 29.4754L304.909 16C304.909 11.5817 308.491 8 312.909 8L312.909 12C310.7 12 308.909 13.7909 308.909 16L308.909 29.4754L304.909 29.4754ZM325.909 8C330.327 8 333.909 11.5817 333.909 16L333.909 29.4754L329.909 29.4754L329.909 16C329.909 13.7909 328.118 12 325.909 12L325.909 8Z" fill="#DADEE7" mask="url(#path-9-inside-1_0_3317)"/>
<rect x="118.687" y="12.705" width="19.4444" height="30.2951" rx="4" fill="#DADEE7"/>
<mask id="path-12-inside-2_0_3317" fill="white">
<path d="M115.909 16C115.909 12.6863 118.595 10 121.909 10L134.909 10C138.223 10 140.909 12.6863 140.909 16L140.909 29.4754L115.909 29.4754L115.909 16Z"/>
</mask>
<path d="M113.909 16C113.909 11.5817 117.491 8 121.909 8L134.909 8C139.327 8 142.909 11.5817 142.909 16L138.909 16C138.909 13.7909 137.118 12 134.909 12L121.909 12C119.7 12 117.909 13.7909 117.909 16L113.909 16ZM140.909 29.4754L115.909 29.4754L140.909 29.4754ZM113.909 29.4754L113.909 16C113.909 11.5817 117.491 8 121.909 8L121.909 12C119.7 12 117.909 13.7909 117.909 16L117.909 29.4754L113.909 29.4754ZM134.909 8C139.327 8 142.909 11.5817 142.909 16L142.909 29.4754L138.909 29.4754L138.909 16C138.909 13.7909 137.118 12 134.909 12L134.909 8Z" fill="#DADEE7" mask="url(#path-12-inside-2_0_3317)"/>
<rect x="500.687" y="12.705" width="19.4444" height="30.2951" rx="4" fill="#DADEE7"/>
<mask id="path-15-inside-3_0_3317" fill="white">
<path d="M497.909 16C497.909 12.6863 500.595 10 503.909 10L516.909 10C520.223 10 522.909 12.6863 522.909 16L522.909 29.4754L497.909 29.4754L497.909 16Z"/>
</mask>
<path d="M495.909 16C495.909 11.5817 499.491 8 503.909 8L516.909 8C521.327 8 524.909 11.5817 524.909 16L520.909 16C520.909 13.7909 519.118 12 516.909 12L503.909 12C501.7 12 499.909 13.7909 499.909 16L495.909 16ZM522.909 29.4754L497.909 29.4754L522.909 29.4754ZM495.909 29.4754L495.909 16C495.909 11.5817 499.491 8 503.909 8L503.909 12C501.7 12 499.909 13.7909 499.909 16L499.909 29.4754L495.909 29.4754ZM516.909 8C521.327 8 524.909 11.5817 524.909 16L524.909 29.4754L520.909 29.4754L520.909 16C520.909 13.7909 519.118 12 516.909 12L516.909 8Z" fill="#DADEE7" mask="url(#path-15-inside-3_0_3317)"/>
<rect x="212.773" y="12.705" width="19.4444" height="30.2951" rx="4" fill="#DADEE7"/>
<mask id="path-18-inside-4_0_3317" fill="white">
<path d="M209.996 16C209.996 12.6863 212.682 10 215.996 10L228.996 10C232.309 10 234.996 12.6863 234.996 16L234.996 29.4754L209.996 29.4754L209.996 16Z"/>
</mask>
<path d="M207.996 16C207.996 11.5817 211.577 8 215.996 8L228.996 8C233.414 8 236.996 11.5817 236.996 16L232.996 16C232.996 13.7909 231.205 12 228.996 12L215.996 12C213.786 12 211.996 13.7909 211.996 16L207.996 16ZM234.996 29.4754L209.996 29.4754L234.996 29.4754ZM207.996 29.4754L207.996 16C207.996 11.5817 211.577 8 215.996 8L215.996 12C213.786 12 211.996 13.7909 211.996 16L211.996 29.4754L207.996 29.4754ZM228.996 8C233.414 8 236.996 11.5817 236.996 16L236.996 29.4754L232.996 29.4754L232.996 16C232.996 13.7909 231.205 12 228.996 12L228.996 8Z" fill="#DADEE7" mask="url(#path-18-inside-4_0_3317)"/>
<rect x="21.7734" y="12.705" width="19.4444" height="30.2951" rx="4" fill="#DADEE7"/>
<mask id="path-21-inside-5_0_3317" fill="white">
<path d="M18.9956 16C18.9956 12.6863 21.6819 10 24.9956 10L37.9956 10C41.3093 10 43.9956 12.6863 43.9956 16L43.9956 29.4754L18.9956 29.4754L18.9956 16Z"/>
</mask>
<path d="M16.9956 16C16.9956 11.5817 20.5773 8 24.9956 8L37.9956 8C42.4139 8 45.9956 11.5817 45.9956 16L41.9956 16C41.9956 13.7909 40.2047 12 37.9956 12L24.9956 12C22.7865 12 20.9956 13.7909 20.9956 16L16.9956 16ZM43.9956 29.4754L18.9956 29.4754L43.9956 29.4754ZM16.9956 29.4754L16.9956 16C16.9956 11.5817 20.5773 8 24.9956 8L24.9956 12C22.7865 12 20.9956 13.7909 20.9956 16L20.9956 29.4754L16.9956 29.4754ZM37.9956 8C42.4139 8 45.9956 11.5817 45.9956 16L45.9956 29.4754L41.9956 29.4754L41.9956 16C41.9956 13.7909 40.2047 12 37.9956 12L37.9956 8Z" fill="#DADEE7" mask="url(#path-21-inside-5_0_3317)"/>
<rect x="403.773" y="12.705" width="19.4444" height="30.2951" rx="4" fill="#DADEE7"/>
<mask id="path-24-inside-6_0_3317" fill="white">
<path d="M400.996 16C400.996 12.6863 403.682 10 406.996 10L419.996 10C423.309 10 425.996 12.6863 425.996 16L425.996 29.4754L400.996 29.4754L400.996 16Z"/>
</mask>
<path d="M398.996 16C398.996 11.5817 402.577 8 406.996 8L419.996 8C424.414 8 427.996 11.5817 427.996 16L423.996 16C423.996 13.7909 422.205 12 419.996 12L406.996 12C404.786 12 402.996 13.7909 402.996 16L398.996 16ZM425.996 29.4754L400.996 29.4754L425.996 29.4754ZM398.996 29.4754L398.996 16C398.996 11.5817 402.577 8 406.996 8L406.996 12C404.786 12 402.996 13.7909 402.996 16L402.996 29.4754L398.996 29.4754ZM419.996 8C424.414 8 427.996 11.5817 427.996 16L427.996 29.4754L423.996 29.4754L423.996 16C423.996 13.7909 422.205 12 419.996 12L419.996 8Z" fill="#DADEE7" mask="url(#path-24-inside-6_0_3317)"/>
<rect x="341.155" y="12.705" width="19.4444" height="30.2951" rx="4" fill="#DADEE7"/>
<mask id="path-27-inside-7_0_3317" fill="white">
<path d="M338.377 16C338.377 12.6863 341.063 10 344.377 10L357.377 10C360.691 10 363.377 12.6863 363.377 16L363.377 29.4754L338.377 29.4754L338.377 16Z"/>
</mask>
<path d="M336.377 16C336.377 11.5817 339.959 8 344.377 8L357.377 8C361.795 8 365.377 11.5817 365.377 16L361.377 16C361.377 13.7909 359.586 12 357.377 12L344.377 12C342.168 12 340.377 13.7909 340.377 16L336.377 16ZM363.377 29.4754L338.377 29.4754L363.377 29.4754ZM336.377 29.4754L336.377 16C336.377 11.5817 339.959 8 344.377 8L344.377 12C342.168 12 340.377 13.7909 340.377 16L340.377 29.4754L336.377 29.4754ZM357.377 8C361.795 8 365.377 11.5817 365.377 16L365.377 29.4754L361.377 29.4754L361.377 16C361.377 13.7909 359.586 12 357.377 12L357.377 8Z" fill="#DADEE7" mask="url(#path-27-inside-7_0_3317)"/>
<rect x="150.155" y="12.705" width="19.4444" height="30.2951" rx="4" fill="#DADEE7"/>
<mask id="path-30-inside-8_0_3317" fill="white">
<path d="M147.377 16C147.377 12.6863 150.063 10 153.377 10L166.377 10C169.691 10 172.377 12.6863 172.377 16L172.377 29.4754L147.377 29.4754L147.377 16Z"/>
</mask>
<path d="M145.377 16C145.377 11.5817 148.959 8 153.377 8L166.377 8C170.795 8 174.377 11.5817 174.377 16L170.377 16C170.377 13.7909 168.586 12 166.377 12L153.377 12C151.168 12 149.377 13.7909 149.377 16L145.377 16ZM172.377 29.4754L147.377 29.4754L172.377 29.4754ZM145.377 29.4754L145.377 16C145.377 11.5817 148.959 8 153.377 8L153.377 12C151.168 12 149.377 13.7909 149.377 16L149.377 29.4754L145.377 29.4754ZM166.377 8C170.795 8 174.377 11.5817 174.377 16L174.377 29.4754L170.377 29.4754L170.377 16C170.377 13.7909 168.586 12 166.377 12L166.377 8Z" fill="#DADEE7" mask="url(#path-30-inside-8_0_3317)"/>
<rect x="532.155" y="12.705" width="19.4444" height="30.2951" rx="4" fill="#DADEE7"/>
<mask id="path-33-inside-9_0_3317" fill="white">
<path d="M529.377 16C529.377 12.6863 532.064 10 535.377 10L548.377 10C551.691 10 554.377 12.6863 554.377 16L554.377 29.4754L529.377 29.4754L529.377 16Z"/>
</mask>
<path d="M527.377 16C527.377 11.5817 530.959 8 535.377 8L548.377 8C552.796 8 556.377 11.5817 556.377 16L552.377 16C552.377 13.7909 550.587 12 548.377 12L535.377 12C533.168 12 531.377 13.7909 531.377 16L527.377 16ZM554.377 29.4754L529.377 29.4754L554.377 29.4754ZM527.377 29.4754L527.377 16C527.377 11.5817 530.959 8 535.377 8L535.377 12C533.168 12 531.377 13.7909 531.377 16L531.377 29.4754L527.377 29.4754ZM548.377 8C552.796 8 556.377 11.5817 556.377 16L556.377 29.4754L552.377 29.4754L552.377 16C552.377 13.7909 550.587 12 548.377 12L548.377 8Z" fill="#DADEE7" mask="url(#path-33-inside-9_0_3317)"/>
<rect x="244.241" y="12.705" width="19.4444" height="30.295" rx="4" fill="#DADEE7"/>
<mask id="path-36-inside-10_0_3317" fill="white">
<path d="M241.464 16C241.464 12.6863 244.15 10 247.464 10L260.464 10C263.777 10 266.464 12.6863 266.464 16L266.464 29.4754L241.464 29.4754L241.464 16Z"/>
</mask>
<path d="M239.464 16C239.464 11.5817 243.045 8 247.464 8L260.464 8C264.882 8 268.464 11.5817 268.464 16L264.464 16C264.464 13.7909 262.673 12 260.464 12L247.464 12C245.254 12 243.464 13.7909 243.464 16L239.464 16ZM266.464 29.4754L241.464 29.4754L266.464 29.4754ZM239.464 29.4754L239.464 16C239.464 11.5817 243.045 8 247.464 8L247.464 12C245.254 12 243.464 13.7909 243.464 16L243.464 29.4754L239.464 29.4754ZM260.464 8C264.882 8 268.464 11.5817 268.464 16L268.464 29.4754L264.464 29.4754L264.464 16C264.464 13.7909 262.673 12 260.464 12L260.464 8Z" fill="#DADEE7" mask="url(#path-36-inside-10_0_3317)"/>
<rect x="53.2415" y="12.705" width="19.4444" height="30.295" rx="4" fill="#DADEE7"/>
<mask id="path-39-inside-11_0_3317" fill="white">
<path d="M50.4636 16C50.4636 12.6863 53.1499 10 56.4636 10L69.4636 10C72.7773 10 75.4636 12.6863 75.4636 16L75.4636 29.4754L50.4636 29.4754L50.4636 16Z"/>
</mask>
<path d="M48.4636 16C48.4636 11.5817 52.0453 8 56.4636 8L69.4636 8C73.8819 8 77.4636 11.5817 77.4636 16L73.4636 16C73.4636 13.7909 71.6728 12 69.4636 12L56.4636 12C54.2545 12 52.4636 13.7909 52.4636 16L48.4636 16ZM75.4636 29.4754L50.4636 29.4754L75.4636 29.4754ZM48.4636 29.4754L48.4636 16C48.4636 11.5817 52.0453 8 56.4636 8L56.4636 12C54.2545 12 52.4636 13.7909 52.4636 16L52.4636 29.4754L48.4636 29.4754ZM69.4636 8C73.8819 8 77.4636 11.5817 77.4636 16L77.4636 29.4754L73.4636 29.4754L73.4636 16C73.4636 13.7909 71.6728 12 69.4636 12L69.4636 8Z" fill="#DADEE7" mask="url(#path-39-inside-11_0_3317)"/>
<rect x="435.241" y="12.705" width="19.4444" height="30.295" rx="4" fill="#DADEE7"/>
<mask id="path-42-inside-12_0_3317" fill="white">
<path d="M432.463 16C432.463 12.6863 435.15 10 438.463 10L451.463 10C454.777 10 457.463 12.6863 457.463 16L457.463 29.4754L432.463 29.4754L432.463 16Z"/>
</mask>
<path d="M430.463 16C430.463 11.5817 434.045 8 438.463 8L451.463 8C455.882 8 459.463 11.5817 459.463 16L455.463 16C455.463 13.7909 453.673 12 451.463 12L438.463 12C436.254 12 434.463 13.7909 434.463 16L430.463 16ZM457.463 29.4754L432.463 29.4754L457.463 29.4754ZM430.463 29.4754L430.463 16C430.463 11.5817 434.045 8 438.463 8L438.463 12C436.254 12 434.463 13.7909 434.463 16L434.463 29.4754L430.463 29.4754ZM451.463 8C455.882 8 459.463 11.5817 459.463 16L459.463 29.4754L455.463 29.4754L455.463 16C455.463 13.7909 453.673 12 451.463 12L451.463 8Z" fill="#DADEE7" mask="url(#path-42-inside-12_0_3317)"/>
<rect x="326" y="49" width="19" height="17" rx="4" fill="#DADEE7"/>
<path d="M337.45 61L336.59 58.79H333.76L332.91 61H332L334.79 53.83H335.6L338.38 61H337.45ZM335.52 55.83C335.5 55.7767 335.467 55.68 335.42 55.54C335.373 55.4 335.327 55.2567 335.28 55.11C335.24 54.9567 335.207 54.84 335.18 54.76C335.147 54.8933 335.11 55.03 335.07 55.17C335.037 55.3033 335 55.4267 334.96 55.54C334.927 55.6533 334.897 55.75 334.87 55.83L334.06 57.99H336.32L335.52 55.83Z" fill="#2B3674"/>
<rect x="135" y="49" width="19" height="17" rx="4" fill="#DADEE7"/>
<path d="M146.45 61L145.59 58.79H142.76L141.91 61H141L143.79 53.83H144.6L147.38 61H146.45ZM144.52 55.83C144.5 55.7767 144.467 55.68 144.42 55.54C144.373 55.4 144.327 55.2567 144.28 55.11C144.24 54.9567 144.207 54.84 144.18 54.76C144.147 54.8933 144.11 55.03 144.07 55.17C144.037 55.3033 144 55.4267 143.96 55.54C143.927 55.6533 143.897 55.75 143.87 55.83L143.06 57.99H145.32L144.52 55.83Z" fill="#2B3674"/>
<rect x="517" y="49" width="19" height="17" rx="4" fill="#DADEE7"/>
<path d="M528.45 61L527.59 58.79H524.76L523.91 61H523L525.79 53.83H526.6L529.38 61H528.45ZM526.52 55.83C526.5 55.7767 526.467 55.68 526.42 55.54C526.373 55.4 526.327 55.2567 526.28 55.11C526.24 54.9567 526.207 54.84 526.18 54.76C526.147 54.8933 526.11 55.03 526.07 55.17C526.037 55.3033 526 55.4267 525.96 55.54C525.927 55.6533 525.897 55.75 525.87 55.83L525.06 57.99H527.32L526.52 55.83Z" fill="#2B3674"/>
<rect x="228" y="49" width="19" height="17" rx="4" fill="#DADEE7"/>
<path d="M234.97 61V53.86H239.21V54.65H235.87V56.88H236.93C237.643 56.88 238.197 56.97 238.59 57.15C238.983 57.3233 239.257 57.5633 239.41 57.87C239.563 58.17 239.64 58.5167 239.64 58.91C239.64 59.3433 239.553 59.7167 239.38 60.03C239.213 60.3433 238.94 60.5833 238.56 60.75C238.18 60.9167 237.68 61 237.06 61H234.97ZM236.97 60.23C237.61 60.23 238.06 60.1233 238.32 59.91C238.58 59.69 238.71 59.3567 238.71 58.91C238.71 58.6033 238.647 58.36 238.52 58.18C238.4 57.9933 238.2 57.86 237.92 57.78C237.647 57.7 237.28 57.66 236.82 57.66H235.87V60.23H236.97Z" fill="#2B3674"/>
<rect x="37" y="49" width="19" height="17" rx="4" fill="#DADEE7"/>
<path d="M43.97 61V53.86H48.21V54.65H44.87V56.88H45.93C46.6433 56.88 47.1967 56.97 47.59 57.15C47.9833 57.3233 48.2567 57.5633 48.41 57.87C48.5633 58.17 48.64 58.5167 48.64 58.91C48.64 59.3433 48.5533 59.7167 48.38 60.03C48.2133 60.3433 47.94 60.5833 47.56 60.75C47.18 60.9167 46.68 61 46.06 61H43.97ZM45.97 60.23C46.61 60.23 47.06 60.1233 47.32 59.91C47.58 59.69 47.71 59.3567 47.71 58.91C47.71 58.6033 47.6467 58.36 47.52 58.18C47.4 57.9933 47.2 57.86 46.92 57.78C46.6467 57.7 46.28 57.66 45.82 57.66H44.87V60.23H45.97Z" fill="#2B3674"/>
<rect x="419" y="49" width="19" height="17" rx="4" fill="#DADEE7"/>
<path d="M425.97 61V53.86H430.21V54.65H426.87V56.88H427.93C428.643 56.88 429.197 56.97 429.59 57.15C429.983 57.3233 430.257 57.5633 430.41 57.87C430.563 58.17 430.64 58.5167 430.64 58.91C430.64 59.3433 430.553 59.7167 430.38 60.03C430.213 60.3433 429.94 60.5833 429.56 60.75C429.18 60.9167 428.68 61 428.06 61H425.97ZM427.97 60.23C428.61 60.23 429.06 60.1233 429.32 59.91C429.58 59.69 429.71 59.3567 429.71 58.91C429.71 58.6033 429.647 58.36 429.52 58.18C429.4 57.9933 429.2 57.86 428.92 57.78C428.647 57.7 428.28 57.66 427.82 57.66H426.87V60.23H427.97Z" fill="#2B3674"/>
<rect x="260" y="62" width="57" height="25" rx="4" fill="#DADEE7"/>
<path d="M269.33 79V69.004H270.744L275.294 77.236H275.35C275.341 76.9933 275.327 76.7133 275.308 76.396C275.289 76.0787 275.275 75.7613 275.266 75.444C275.257 75.1173 275.252 74.8373 275.252 74.604V69.004H276.358V79H274.986L270.38 70.74H270.324C270.343 70.9827 270.357 71.272 270.366 71.608C270.385 71.9347 270.399 72.2613 270.408 72.588C270.427 72.9147 270.436 73.204 270.436 73.456V79H269.33ZM277.688 79V78.034H281.286V79H277.688ZM279.48 77.124C279.079 77.124 278.719 77.0353 278.402 76.858C278.094 76.6713 277.851 76.4007 277.674 76.046C277.497 75.6913 277.408 75.2573 277.408 74.744C277.408 73.9787 277.595 73.3953 277.968 72.994C278.351 72.5833 278.869 72.378 279.522 72.378C279.923 72.378 280.278 72.4713 280.586 72.658C280.903 72.8353 281.151 73.1013 281.328 73.456C281.515 73.8013 281.608 74.2307 281.608 74.744C281.608 75.5093 281.417 76.0973 281.034 76.508C280.651 76.9187 280.133 77.124 279.48 77.124ZM279.508 76.312C279.919 76.312 280.213 76.1813 280.39 75.92C280.567 75.6493 280.656 75.2573 280.656 74.744C280.656 74.2213 280.567 73.8387 280.39 73.596C280.213 73.344 279.919 73.218 279.508 73.218C279.107 73.218 278.813 73.344 278.626 73.596C278.439 73.8387 278.346 74.2213 278.346 74.744C278.346 75.2573 278.435 75.6493 278.612 75.92C278.799 76.1813 279.097 76.312 279.508 76.312ZM289.595 69.984H284.681V73.176C284.896 72.8773 285.213 72.6347 285.633 72.448C286.053 72.252 286.506 72.154 286.991 72.154C287.766 72.154 288.396 72.3173 288.881 72.644C289.367 72.9613 289.712 73.3767 289.917 73.89C290.132 74.394 290.239 74.9307 290.239 75.5C290.239 76.172 290.113 76.774 289.861 77.306C289.609 77.838 289.222 78.258 288.699 78.566C288.186 78.874 287.547 79.028 286.781 79.028C285.801 79.028 285.008 78.776 284.401 78.272C283.795 77.768 283.426 77.096 283.295 76.256H284.541C284.663 76.788 284.919 77.2033 285.311 77.502C285.703 77.8007 286.198 77.95 286.795 77.95C287.533 77.95 288.088 77.7307 288.461 77.292C288.835 76.844 289.021 76.256 289.021 75.528C289.021 74.8 288.835 74.24 288.461 73.848C288.088 73.4467 287.537 73.246 286.809 73.246C286.315 73.246 285.881 73.3673 285.507 73.61C285.143 73.8433 284.877 74.1653 284.709 74.576H283.505V68.864H289.595V69.984ZM291.932 73.834C291.932 72.2287 292.194 70.978 292.716 70.082C293.239 69.1767 294.154 68.724 295.46 68.724C296.758 68.724 297.668 69.1767 298.19 70.082C298.713 70.978 298.974 72.2287 298.974 73.834C298.974 75.4673 298.713 76.7367 298.19 77.642C297.668 78.5473 296.758 79 295.46 79C294.154 79 293.239 78.5473 292.716 77.642C292.194 76.7367 291.932 75.4673 291.932 73.834ZM297.714 73.834C297.714 73.022 297.658 72.336 297.546 71.776C297.444 71.2067 297.224 70.7493 296.888 70.404C296.562 70.0587 296.086 69.886 295.46 69.886C294.826 69.886 294.34 70.0587 294.004 70.404C293.678 70.7493 293.458 71.2067 293.346 71.776C293.244 72.336 293.192 73.022 293.192 73.834C293.192 74.674 293.244 75.3787 293.346 75.948C293.458 76.5173 293.678 76.9747 294.004 77.32C294.34 77.6653 294.826 77.838 295.46 77.838C296.086 77.838 296.562 77.6653 296.888 77.32C297.224 76.9747 297.444 76.5173 297.546 75.948C297.658 75.3787 297.714 74.674 297.714 73.834ZM302.571 73.736C302.049 73.5307 301.647 73.232 301.367 72.84C301.087 72.448 300.947 71.972 300.947 71.412C300.947 70.908 301.073 70.4553 301.325 70.054C301.577 69.6433 301.951 69.3213 302.445 69.088C302.949 68.8453 303.556 68.724 304.265 68.724C304.975 68.724 305.577 68.8453 306.071 69.088C306.575 69.3213 306.953 69.6433 307.205 70.054C307.467 70.4553 307.597 70.908 307.597 71.412C307.597 71.9533 307.453 72.4293 307.163 72.84C306.874 73.2413 306.477 73.54 305.973 73.736C306.552 73.9133 307.009 74.226 307.345 74.674C307.691 75.1127 307.863 75.6447 307.863 76.27C307.863 76.8767 307.714 77.4087 307.415 77.866C307.117 78.314 306.692 78.664 306.141 78.916C305.6 79.1587 304.975 79.28 304.265 79.28C303.556 79.28 302.931 79.1587 302.389 78.916C301.857 78.664 301.442 78.314 301.143 77.866C300.845 77.4087 300.695 76.8767 300.695 76.27C300.695 75.6447 300.863 75.108 301.199 74.66C301.535 74.212 301.993 73.904 302.571 73.736ZM306.365 71.566C306.365 70.9967 306.179 70.558 305.805 70.25C305.432 69.942 304.919 69.788 304.265 69.788C303.621 69.788 303.113 69.942 302.739 70.25C302.366 70.558 302.179 71.0013 302.179 71.58C302.179 72.1027 302.371 72.5227 302.753 72.84C303.145 73.1573 303.649 73.316 304.265 73.316C304.891 73.316 305.395 73.1573 305.777 72.84C306.169 72.5133 306.365 72.0887 306.365 71.566ZM304.265 74.296C303.575 74.296 303.01 74.4593 302.571 74.786C302.133 75.1033 301.913 75.584 301.913 76.228C301.913 76.8253 302.123 77.306 302.543 77.67C302.973 78.034 303.547 78.216 304.265 78.216C304.984 78.216 305.553 78.034 305.973 77.67C306.393 77.306 306.603 76.8253 306.603 76.228C306.603 75.6027 306.389 75.1267 305.959 74.8C305.53 74.464 304.965 74.296 304.265 74.296Z" fill="#2B3674"/>
<rect x="69" y="62" width="56" height="25" rx="4" fill="#DADEE7"/>
<path d="M78.33 79V69.004H79.744L84.294 77.236H84.35C84.3407 76.9933 84.3267 76.7133 84.308 76.396C84.2893 76.0787 84.2753 75.7613 84.266 75.444C84.2567 75.1173 84.252 74.8373 84.252 74.604V69.004H85.358V79H83.986L79.38 70.74H79.324C79.3427 70.9827 79.3567 71.272 79.366 71.608C79.3847 71.9347 79.3987 72.2613 79.408 72.588C79.4267 72.9147 79.436 73.204 79.436 73.456V79H78.33ZM86.688 79V78.034H90.286V79H86.688ZM88.48 77.124C88.0787 77.124 87.7193 77.0353 87.402 76.858C87.094 76.6713 86.8513 76.4007 86.674 76.046C86.4967 75.6913 86.408 75.2573 86.408 74.744C86.408 73.9787 86.5947 73.3953 86.968 72.994C87.3507 72.5833 87.8687 72.378 88.522 72.378C88.9233 72.378 89.278 72.4713 89.586 72.658C89.9033 72.8353 90.1507 73.1013 90.328 73.456C90.5147 73.8013 90.608 74.2307 90.608 74.744C90.608 75.5093 90.4167 76.0973 90.034 76.508C89.6513 76.9187 89.1333 77.124 88.48 77.124ZM88.508 76.312C88.9187 76.312 89.2127 76.1813 89.39 75.92C89.5673 75.6493 89.656 75.2573 89.656 74.744C89.656 74.2213 89.5673 73.8387 89.39 73.596C89.2127 73.344 88.9187 73.218 88.508 73.218C88.1067 73.218 87.8127 73.344 87.626 73.596C87.4393 73.8387 87.346 74.2213 87.346 74.744C87.346 75.2573 87.4347 75.6493 87.612 75.92C87.7987 76.1813 88.0973 76.312 88.508 76.312ZM98.5954 69.984H93.6814V73.176C93.8961 72.8773 94.2134 72.6347 94.6334 72.448C95.0534 72.252 95.5061 72.154 95.9914 72.154C96.7661 72.154 97.3961 72.3173 97.8814 72.644C98.3668 72.9613 98.7121 73.3767 98.9174 73.89C99.1321 74.394 99.2394 74.9307 99.2394 75.5C99.2394 76.172 99.1134 76.774 98.8614 77.306C98.6094 77.838 98.2221 78.258 97.6994 78.566C97.1861 78.874 96.5468 79.028 95.7814 79.028C94.8014 79.028 94.0081 78.776 93.4014 78.272C92.7948 77.768 92.4261 77.096 92.2954 76.256H93.5414C93.6628 76.788 93.9194 77.2033 94.3114 77.502C94.7034 77.8007 95.1981 77.95 95.7954 77.95C96.5328 77.95 97.0881 77.7307 97.4614 77.292C97.8348 76.844 98.0214 76.256 98.0214 75.528C98.0214 74.8 97.8348 74.24 97.4614 73.848C97.0881 73.4467 96.5374 73.246 95.8094 73.246C95.3148 73.246 94.8808 73.3673 94.5074 73.61C94.1434 73.8433 93.8774 74.1653 93.7094 74.576H92.5054V68.864H98.5954V69.984ZM100.932 73.834C100.932 72.2287 101.194 70.978 101.716 70.082C102.239 69.1767 103.154 68.724 104.46 68.724C105.758 68.724 106.668 69.1767 107.19 70.082C107.713 70.978 107.974 72.2287 107.974 73.834C107.974 75.4673 107.713 76.7367 107.19 77.642C106.668 78.5473 105.758 79 104.46 79C103.154 79 102.239 78.5473 101.716 77.642C101.194 76.7367 100.932 75.4673 100.932 73.834ZM106.714 73.834C106.714 73.022 106.658 72.336 106.546 71.776C106.444 71.2067 106.224 70.7493 105.888 70.404C105.562 70.0587 105.086 69.886 104.46 69.886C103.826 69.886 103.34 70.0587 103.004 70.404C102.678 70.7493 102.458 71.2067 102.346 71.776C102.244 72.336 102.192 73.022 102.192 73.834C102.192 74.674 102.244 75.3787 102.346 75.948C102.458 76.5173 102.678 76.9747 103.004 77.32C103.34 77.6653 103.826 77.838 104.46 77.838C105.086 77.838 105.562 77.6653 105.888 77.32C106.224 76.9747 106.444 76.5173 106.546 75.948C106.658 75.3787 106.714 74.674 106.714 73.834ZM115.953 69.872L112.061 79H110.773L114.721 69.998H109.317V68.906H115.953V69.872Z" fill="#2B3674"/>
<rect x="451" y="62" width="56" height="25" rx="4" fill="#DADEE7"/>
<path d="M460.33 79V69.004H461.744L466.294 77.236H466.35C466.341 76.9933 466.327 76.7133 466.308 76.396C466.289 76.0787 466.275 75.7613 466.266 75.444C466.257 75.1173 466.252 74.8373 466.252 74.604V69.004H467.358V79H465.986L461.38 70.74H461.324C461.343 70.9827 461.357 71.272 461.366 71.608C461.385 71.9347 461.399 72.2613 461.408 72.588C461.427 72.9147 461.436 73.204 461.436 73.456V79H460.33ZM468.688 79V78.034H472.286V79H468.688ZM470.48 77.124C470.079 77.124 469.719 77.0353 469.402 76.858C469.094 76.6713 468.851 76.4007 468.674 76.046C468.497 75.6913 468.408 75.2573 468.408 74.744C468.408 73.9787 468.595 73.3953 468.968 72.994C469.351 72.5833 469.869 72.378 470.522 72.378C470.923 72.378 471.278 72.4713 471.586 72.658C471.903 72.8353 472.151 73.1013 472.328 73.456C472.515 73.8013 472.608 74.2307 472.608 74.744C472.608 75.5093 472.417 76.0973 472.034 76.508C471.651 76.9187 471.133 77.124 470.48 77.124ZM470.508 76.312C470.919 76.312 471.213 76.1813 471.39 75.92C471.567 75.6493 471.656 75.2573 471.656 74.744C471.656 74.2213 471.567 73.8387 471.39 73.596C471.213 73.344 470.919 73.218 470.508 73.218C470.107 73.218 469.813 73.344 469.626 73.596C469.439 73.8387 469.346 74.2213 469.346 74.744C469.346 75.2573 469.435 75.6493 469.612 75.92C469.799 76.1813 470.097 76.312 470.508 76.312ZM480.595 69.984H475.681V73.176C475.896 72.8773 476.213 72.6347 476.633 72.448C477.053 72.252 477.506 72.154 477.991 72.154C478.766 72.154 479.396 72.3173 479.881 72.644C480.367 72.9613 480.712 73.3767 480.917 73.89C481.132 74.394 481.239 74.9307 481.239 75.5C481.239 76.172 481.113 76.774 480.861 77.306C480.609 77.838 480.222 78.258 479.699 78.566C479.186 78.874 478.547 79.028 477.781 79.028C476.801 79.028 476.008 78.776 475.401 78.272C474.795 77.768 474.426 77.096 474.295 76.256H475.541C475.663 76.788 475.919 77.2033 476.311 77.502C476.703 77.8007 477.198 77.95 477.795 77.95C478.533 77.95 479.088 77.7307 479.461 77.292C479.835 76.844 480.021 76.256 480.021 75.528C480.021 74.8 479.835 74.24 479.461 73.848C479.088 73.4467 478.537 73.246 477.809 73.246C477.315 73.246 476.881 73.3673 476.507 73.61C476.143 73.8433 475.877 74.1653 475.709 74.576H474.505V68.864H480.595V69.984ZM482.932 73.834C482.932 72.2287 483.194 70.978 483.716 70.082C484.239 69.1767 485.154 68.724 486.46 68.724C487.758 68.724 488.668 69.1767 489.19 70.082C489.713 70.978 489.974 72.2287 489.974 73.834C489.974 75.4673 489.713 76.7367 489.19 77.642C488.668 78.5473 487.758 79 486.46 79C485.154 79 484.239 78.5473 483.716 77.642C483.194 76.7367 482.932 75.4673 482.932 73.834ZM488.714 73.834C488.714 73.022 488.658 72.336 488.546 71.776C488.444 71.2067 488.224 70.7493 487.888 70.404C487.562 70.0587 487.086 69.886 486.46 69.886C485.826 69.886 485.34 70.0587 485.004 70.404C484.678 70.7493 484.458 71.2067 484.346 71.776C484.244 72.336 484.192 73.022 484.192 73.834C484.192 74.674 484.244 75.3787 484.346 75.948C484.458 76.5173 484.678 76.9747 485.004 77.32C485.34 77.6653 485.826 77.838 486.46 77.838C487.086 77.838 487.562 77.6653 487.888 77.32C488.224 76.9747 488.444 76.5173 488.546 75.948C488.658 75.3787 488.714 74.674 488.714 73.834ZM497.953 69.872L494.061 79H492.773L496.721 69.998H491.317V68.906H497.953V69.872Z" fill="#2B3674"/>
<path fill-rule="evenodd" clip-rule="evenodd" d="M191 67L191 0L192.5 2.62268e-07L192.5 67C192.5 68.933 194.067 70.5 196 70.5L252 70.5L252 72L196 72C193.239 72 191 69.7614 191 67ZM323 72L378 72C380.761 72 383 69.7615 383 67L383 3.35703e-05L381.5 3.33081e-05L381.5 67C381.5 68.933 379.933 70.5 378 70.5L323 70.5L323 72Z" fill="#B0BBD5"/>
<path fill-rule="evenodd" clip-rule="evenodd" d="M-1.17147e-05 67L-6.81138e-06 38.9565L1.49999 38.6522L1.49999 67C1.49999 68.933 3.06699 70.5 4.99999 70.5L61 70.5L61 72L4.99999 72C2.23857 72 -1.21975e-05 69.7614 -1.17147e-05 67ZM132 72L187 72C189.761 72 192 69.7615 192 67L192 3.35703e-05L190.5 0.304378L190.5 67C190.5 68.933 188.933 70.5 187 70.5L132 70.5L132 72Z" fill="#B0BBD5"/>
<path fill-rule="evenodd" clip-rule="evenodd" d="M382 67L382 0L383.5 2.62268e-07L383.5 67C383.5 68.933 385.067 70.5 387 70.5L443 70.5L443 72L387 72C384.239 72 382 69.7614 382 67ZM514 72L569 72C571.761 72 574 69.7615 574 67L574 3.35703e-05L572.5 3.33081e-05L572.5 67C572.5 68.933 570.933 70.5 569 70.5L514 70.5L514 72Z" fill="#B0BBD5"/>
<rect x="97" y="43" width="2" height="43" rx="1" transform="rotate(-180 97 43)" fill="#B0BBD5"/>
<rect x="872.567" y="174.705" width="19.4444" height="30.2951" rx="4" fill="#DADEE7"/>
<mask id="path-67-inside-13_0_3317" fill="white">
<path d="M869.789 178C869.789 174.686 872.475 172 875.789 172H888.789C892.103 172 894.789 174.686 894.789 178V191.475H869.789V178Z"/>
</mask>
<path d="M867.789 178C867.789 173.582 871.371 170 875.789 170H888.789C893.207 170 896.789 173.582 896.789 178H892.789C892.789 175.791 890.998 174 888.789 174H875.789C873.58 174 871.789 175.791 871.789 178H867.789ZM894.789 191.475H869.789H894.789ZM867.789 191.475V178C867.789 173.582 871.371 170 875.789 170V174C873.58 174 871.789 175.791 871.789 178V191.475H867.789ZM888.789 170C893.207 170 896.789 173.582 896.789 178V191.475H892.789V178C892.789 175.791 890.998 174 888.789 174V170Z" fill="#DADEE7" mask="url(#path-67-inside-13_0_3317)"/>
<rect x="968.48" y="174.705" width="19.4444" height="30.2951" rx="4" fill="#DADEE7"/>
<mask id="path-70-inside-14_0_3317" fill="white">
<path d="M965.703 178C965.703 174.686 968.389 172 971.703 172H984.703C988.016 172 990.703 174.686 990.703 178V191.475H965.703V178Z"/>
</mask>
<path d="M963.703 178C963.703 173.582 967.284 170 971.703 170H984.703C989.121 170 992.703 173.582 992.703 178H988.703C988.703 175.791 986.912 174 984.703 174H971.703C969.493 174 967.703 175.791 967.703 178H963.703ZM990.703 191.475H965.703H990.703ZM963.703 191.475V178C963.703 173.582 967.284 170 971.703 170V174C969.493 174 967.703 175.791 967.703 178V191.475H963.703ZM984.703 170C989.121 170 992.703 173.582 992.703 178V191.475H988.703V178C988.703 175.791 986.912 174 984.703 174V170Z" fill="#DADEE7" mask="url(#path-70-inside-14_0_3317)"/>
<rect x="904.035" y="174.705" width="19.4444" height="30.2951" rx="4" fill="#DADEE7"/>
<mask id="path-73-inside-15_0_3317" fill="white">
<path d="M901.257 178C901.257 174.686 903.943 172 907.257 172H920.257C923.571 172 926.257 174.686 926.257 178V191.475H901.257V178Z"/>
</mask>
<path d="M899.257 178C899.257 173.582 902.839 170 907.257 170H920.257C924.675 170 928.257 173.582 928.257 178H924.257C924.257 175.791 922.466 174 920.257 174H907.257C905.048 174 903.257 175.791 903.257 178H899.257ZM926.257 191.475H901.257H926.257ZM899.257 191.475V178C899.257 173.582 902.839 170 907.257 170V174C905.048 174 903.257 175.791 903.257 178V191.475H899.257ZM920.257 170C924.675 170 928.257 173.582 928.257 178V191.475H924.257V178C924.257 175.791 922.466 174 920.257 174V170Z" fill="#DADEE7" mask="url(#path-73-inside-15_0_3317)"/>
<rect x="999.948" y="174.705" width="19.4444" height="30.295" rx="4" fill="#DADEE7"/>
<mask id="path-76-inside-16_0_3317" fill="white">
<path d="M997.17 178C997.17 174.686 999.857 172 1003.17 172H1016.17C1019.48 172 1022.17 174.686 1022.17 178V191.475H997.17V178Z"/>
</mask>
<path d="M995.17 178C995.17 173.582 998.752 170 1003.17 170H1016.17C1020.59 170 1024.17 173.582 1024.17 178H1020.17C1020.17 175.791 1018.38 174 1016.17 174H1003.17C1000.96 174 999.17 175.791 999.17 178H995.17ZM1022.17 191.475H997.17H1022.17ZM995.17 191.475V178C995.17 173.582 998.752 170 1003.17 170V174C1000.96 174 999.17 175.791 999.17 178V191.475H995.17ZM1016.17 170C1020.59 170 1024.17 173.582 1024.17 178V191.475H1020.17V178C1020.17 175.791 1018.38 174 1016.17 174V170Z" fill="#DADEE7" mask="url(#path-76-inside-16_0_3317)"/>
<rect x="888" y="149" width="19" height="17" rx="4" fill="#DADEE7"/>
<path d="M899.45 161L898.59 158.79H895.76L894.91 161H894L896.79 153.83H897.6L900.38 161H899.45ZM897.52 155.83C897.5 155.777 897.467 155.68 897.42 155.54C897.373 155.4 897.327 155.257 897.28 155.11C897.24 154.957 897.207 154.84 897.18 154.76C897.147 154.893 897.11 155.03 897.07 155.17C897.037 155.303 897 155.427 896.96 155.54C896.927 155.653 896.897 155.75 896.87 155.83L896.06 157.99H898.32L897.52 155.83Z" fill="#2B3674"/>
<rect x="986" y="149" width="19" height="17" rx="4" fill="#DADEE7"/>
<path d="M992.97 161V153.86H997.21V154.65H993.87V156.88H994.93C995.643 156.88 996.197 156.97 996.59 157.15C996.983 157.323 997.257 157.563 997.41 157.87C997.563 158.17 997.64 158.517 997.64 158.91C997.64 159.343 997.553 159.717 997.38 160.03C997.213 160.343 996.94 160.583 996.56 160.75C996.18 160.917 995.68 161 995.06 161H992.97ZM994.97 160.23C995.61 160.23 996.06 160.123 996.32 159.91C996.58 159.69 996.71 159.357 996.71 158.91C996.71 158.603 996.647 158.36 996.52 158.18C996.4 157.993 996.2 157.86 995.92 157.78C995.647 157.7 995.28 157.66 994.82 157.66H993.87V160.23H994.97Z" fill="#2B3674"/>
<rect x="920" y="128" width="57" height="25" rx="4" fill="#DADEE7"/>
<path d="M929.33 145V135.004H930.744L935.294 143.236H935.35C935.341 142.993 935.327 142.713 935.308 142.396C935.289 142.079 935.275 141.761 935.266 141.444C935.257 141.117 935.252 140.837 935.252 140.604V135.004H936.358V145H934.986L930.38 136.74H930.324C930.343 136.983 930.357 137.272 930.366 137.608C930.385 137.935 930.399 138.261 930.408 138.588C930.427 138.915 930.436 139.204 930.436 139.456V145H929.33ZM937.688 145V144.034H941.286V145H937.688ZM939.48 143.124C939.079 143.124 938.719 143.035 938.402 142.858C938.094 142.671 937.851 142.401 937.674 142.046C937.497 141.691 937.408 141.257 937.408 140.744C937.408 139.979 937.595 139.395 937.968 138.994C938.351 138.583 938.869 138.378 939.522 138.378C939.923 138.378 940.278 138.471 940.586 138.658C940.903 138.835 941.151 139.101 941.328 139.456C941.515 139.801 941.608 140.231 941.608 140.744C941.608 141.509 941.417 142.097 941.034 142.508C940.651 142.919 940.133 143.124 939.48 143.124ZM939.508 142.312C939.919 142.312 940.213 142.181 940.39 141.92C940.567 141.649 940.656 141.257 940.656 140.744C940.656 140.221 940.567 139.839 940.39 139.596C940.213 139.344 939.919 139.218 939.508 139.218C939.107 139.218 938.813 139.344 938.626 139.596C938.439 139.839 938.346 140.221 938.346 140.744C938.346 141.257 938.435 141.649 938.612 141.92C938.799 142.181 939.097 142.312 939.508 142.312ZM949.595 135.984H944.681V139.176C944.896 138.877 945.213 138.635 945.633 138.448C946.053 138.252 946.506 138.154 946.991 138.154C947.766 138.154 948.396 138.317 948.881 138.644C949.367 138.961 949.712 139.377 949.917 139.89C950.132 140.394 950.239 140.931 950.239 141.5C950.239 142.172 950.113 142.774 949.861 143.306C949.609 143.838 949.222 144.258 948.699 144.566C948.186 144.874 947.547 145.028 946.781 145.028C945.801 145.028 945.008 144.776 944.401 144.272C943.795 143.768 943.426 143.096 943.295 142.256H944.541C944.663 142.788 944.919 143.203 945.311 143.502C945.703 143.801 946.198 143.95 946.795 143.95C947.533 143.95 948.088 143.731 948.461 143.292C948.835 142.844 949.021 142.256 949.021 141.528C949.021 140.8 948.835 140.24 948.461 139.848C948.088 139.447 947.537 139.246 946.809 139.246C946.315 139.246 945.881 139.367 945.507 139.61C945.143 139.843 944.877 140.165 944.709 140.576H943.505V134.864H949.595V135.984ZM951.932 139.834C951.932 138.229 952.194 136.978 952.716 136.082C953.239 135.177 954.154 134.724 955.46 134.724C956.758 134.724 957.668 135.177 958.19 136.082C958.713 136.978 958.974 138.229 958.974 139.834C958.974 141.467 958.713 142.737 958.19 143.642C957.668 144.547 956.758 145 955.46 145C954.154 145 953.239 144.547 952.716 143.642C952.194 142.737 951.932 141.467 951.932 139.834ZM957.714 139.834C957.714 139.022 957.658 138.336 957.546 137.776C957.444 137.207 957.224 136.749 956.888 136.404C956.562 136.059 956.086 135.886 955.46 135.886C954.826 135.886 954.34 136.059 954.004 136.404C953.678 136.749 953.458 137.207 953.346 137.776C953.244 138.336 953.192 139.022 953.192 139.834C953.192 140.674 953.244 141.379 953.346 141.948C953.458 142.517 953.678 142.975 954.004 143.32C954.34 143.665 954.826 143.838 955.46 143.838C956.086 143.838 956.562 143.665 956.888 143.32C957.224 142.975 957.444 142.517 957.546 141.948C957.658 141.379 957.714 140.674 957.714 139.834ZM960.415 142.746V141.78L965.329 134.976H966.855V141.64H968.255V142.746H966.855V145H965.595V142.746H960.415ZM965.651 136.306L961.885 141.64H965.651V136.306Z" fill="#2B3674"/>
<path fill-rule="evenodd" clip-rule="evenodd" d="M1042 148L1042 215L1040.5 215L1040.5 148C1040.5 146.067 1038.93 144.5 1037 144.5L981 144.5L981 143L1037 143C1039.76 143 1042 145.239 1042 148ZM910 143L855 143C852.239 143 850 145.239 850 148L850 215L851.5 215L851.5 148C851.5 146.067 853.067 144.5 855 144.5L910 144.5L910 143Z" fill="#B0BBD5"/>
<rect x="1062.57" y="174.705" width="19.4444" height="30.2951" rx="4" fill="#DADEE7"/>
<mask id="path-86-inside-17_0_3317" fill="white">
<path d="M1059.79 178C1059.79 174.686 1062.48 172 1065.79 172H1078.79C1082.1 172 1084.79 174.686 1084.79 178V191.475H1059.79V178Z"/>
</mask>
<path d="M1057.79 178C1057.79 173.582 1061.37 170 1065.79 170H1078.79C1083.21 170 1086.79 173.582 1086.79 178H1082.79C1082.79 175.791 1081 174 1078.79 174H1065.79C1063.58 174 1061.79 175.791 1061.79 178H1057.79ZM1084.79 191.475H1059.79H1084.79ZM1057.79 191.475V178C1057.79 173.582 1061.37 170 1065.79 170V174C1063.58 174 1061.79 175.791 1061.79 178V191.475H1057.79ZM1078.79 170C1083.21 170 1086.79 173.582 1086.79 178V191.475H1082.79V178C1082.79 175.791 1081 174 1078.79 174V170Z" fill="#DADEE7" mask="url(#path-86-inside-17_0_3317)"/>
<rect x="1158.48" y="174.705" width="19.4444" height="30.2951" rx="4" fill="#DADEE7"/>
<mask id="path-89-inside-18_0_3317" fill="white">
<path d="M1155.7 178C1155.7 174.686 1158.39 172 1161.7 172H1174.7C1178.02 172 1180.7 174.686 1180.7 178V191.475H1155.7V178Z"/>
</mask>
<path d="M1153.7 178C1153.7 173.582 1157.28 170 1161.7 170H1174.7C1179.12 170 1182.7 173.582 1182.7 178H1178.7C1178.7 175.791 1176.91 174 1174.7 174H1161.7C1159.49 174 1157.7 175.791 1157.7 178H1153.7ZM1180.7 191.475H1155.7H1180.7ZM1153.7 191.475V178C1153.7 173.582 1157.28 170 1161.7 170V174C1159.49 174 1157.7 175.791 1157.7 178V191.475H1153.7ZM1174.7 170C1179.12 170 1182.7 173.582 1182.7 178V191.475H1178.7V178C1178.7 175.791 1176.91 174 1174.7 174V170Z" fill="#DADEE7" mask="url(#path-89-inside-18_0_3317)"/>
<rect x="1094.03" y="174.705" width="19.4444" height="30.2951" rx="4" fill="#DADEE7"/>
<mask id="path-92-inside-19_0_3317" fill="white">
<path d="M1091.26 178C1091.26 174.686 1093.94 172 1097.26 172H1110.26C1113.57 172 1116.26 174.686 1116.26 178V191.475H1091.26V178Z"/>
</mask>
<path d="M1089.26 178C1089.26 173.582 1092.84 170 1097.26 170H1110.26C1114.68 170 1118.26 173.582 1118.26 178H1114.26C1114.26 175.791 1112.47 174 1110.26 174H1097.26C1095.05 174 1093.26 175.791 1093.26 178H1089.26ZM1116.26 191.475H1091.26H1116.26ZM1089.26 191.475V178C1089.26 173.582 1092.84 170 1097.26 170V174C1095.05 174 1093.26 175.791 1093.26 178V191.475H1089.26ZM1110.26 170C1114.68 170 1118.26 173.582 1118.26 178V191.475H1114.26V178C1114.26 175.791 1112.47 174 1110.26 174V170Z" fill="#DADEE7" mask="url(#path-92-inside-19_0_3317)"/>
<rect x="1189.95" y="174.705" width="19.4444" height="30.295" rx="4" fill="#DADEE7"/>
<mask id="path-95-inside-20_0_3317" fill="white">
<path d="M1187.17 178C1187.17 174.686 1189.86 172 1193.17 172H1206.17C1209.48 172 1212.17 174.686 1212.17 178V191.475H1187.17V178Z"/>
</mask>
<path d="M1185.17 178C1185.17 173.582 1188.75 170 1193.17 170H1206.17C1210.59 170 1214.17 173.582 1214.17 178H1210.17C1210.17 175.791 1208.38 174 1206.17 174H1193.17C1190.96 174 1189.17 175.791 1189.17 178H1185.17ZM1212.17 191.475H1187.17H1212.17ZM1185.17 191.475V178C1185.17 173.582 1188.75 170 1193.17 170V174C1190.96 174 1189.17 175.791 1189.17 178V191.475H1185.17ZM1206.17 170C1210.59 170 1214.17 173.582 1214.17 178V191.475H1210.17V178C1210.17 175.791 1208.38 174 1206.17 174V170Z" fill="#DADEE7" mask="url(#path-95-inside-20_0_3317)"/>
<rect x="1078" y="149" width="19" height="17" rx="4" fill="#DADEE7"/>
<path d="M1089.45 161L1088.59 158.79H1085.76L1084.91 161H1084L1086.79 153.83H1087.6L1090.38 161H1089.45ZM1087.52 155.83C1087.5 155.777 1087.47 155.68 1087.42 155.54C1087.37 155.4 1087.33 155.257 1087.28 155.11C1087.24 154.957 1087.21 154.84 1087.18 154.76C1087.15 154.893 1087.11 155.03 1087.07 155.17C1087.04 155.303 1087 155.427 1086.96 155.54C1086.93 155.653 1086.9 155.75 1086.87 155.83L1086.06 157.99H1088.32L1087.52 155.83Z" fill="#2B3674"/>
<rect x="1176" y="149" width="19" height="17" rx="4" fill="#DADEE7"/>
<path d="M1182.97 161V153.86H1187.21V154.65H1183.87V156.88H1184.93C1185.64 156.88 1186.2 156.97 1186.59 157.15C1186.98 157.323 1187.26 157.563 1187.41 157.87C1187.56 158.17 1187.64 158.517 1187.64 158.91C1187.64 159.343 1187.55 159.717 1187.38 160.03C1187.21 160.343 1186.94 160.583 1186.56 160.75C1186.18 160.917 1185.68 161 1185.06 161H1182.97ZM1184.97 160.23C1185.61 160.23 1186.06 160.123 1186.32 159.91C1186.58 159.69 1186.71 159.357 1186.71 158.91C1186.71 158.603 1186.65 158.36 1186.52 158.18C1186.4 157.993 1186.2 157.86 1185.92 157.78C1185.65 157.7 1185.28 157.66 1184.82 157.66H1183.87V160.23H1184.97Z" fill="#2B3674"/>
<rect x="1110" y="128" width="53" height="25" rx="4" fill="#DADEE7"/>
<path d="M1119.33 145V135.004H1120.74L1125.29 143.236H1125.35C1125.34 142.993 1125.33 142.713 1125.31 142.396C1125.29 142.079 1125.28 141.761 1125.27 141.444C1125.26 141.117 1125.25 140.837 1125.25 140.604V135.004H1126.36V145H1124.99L1120.38 136.74H1120.32C1120.34 136.983 1120.36 137.272 1120.37 137.608C1120.38 137.935 1120.4 138.261 1120.41 138.588C1120.43 138.915 1120.44 139.204 1120.44 139.456V145H1119.33ZM1127.69 145V144.034H1131.29V145H1127.69ZM1129.48 143.124C1129.08 143.124 1128.72 143.035 1128.4 142.858C1128.09 142.671 1127.85 142.401 1127.67 142.046C1127.5 141.691 1127.41 141.257 1127.41 140.744C1127.41 139.979 1127.59 139.395 1127.97 138.994C1128.35 138.583 1128.87 138.378 1129.52 138.378C1129.92 138.378 1130.28 138.471 1130.59 138.658C1130.9 138.835 1131.15 139.101 1131.33 139.456C1131.51 139.801 1131.61 140.231 1131.61 140.744C1131.61 141.509 1131.42 142.097 1131.03 142.508C1130.65 142.919 1130.13 143.124 1129.48 143.124ZM1129.51 142.312C1129.92 142.312 1130.21 142.181 1130.39 141.92C1130.57 141.649 1130.66 141.257 1130.66 140.744C1130.66 140.221 1130.57 139.839 1130.39 139.596C1130.21 139.344 1129.92 139.218 1129.51 139.218C1129.11 139.218 1128.81 139.344 1128.63 139.596C1128.44 139.839 1128.35 140.221 1128.35 140.744C1128.35 141.257 1128.43 141.649 1128.61 141.92C1128.8 142.181 1129.1 142.312 1129.51 142.312ZM1139.6 135.984H1134.68V139.176C1134.9 138.877 1135.21 138.635 1135.63 138.448C1136.05 138.252 1136.51 138.154 1136.99 138.154C1137.77 138.154 1138.4 138.317 1138.88 138.644C1139.37 138.961 1139.71 139.377 1139.92 139.89C1140.13 140.394 1140.24 140.931 1140.24 141.5C1140.24 142.172 1140.11 142.774 1139.86 143.306C1139.61 143.838 1139.22 144.258 1138.7 144.566C1138.19 144.874 1137.55 145.028 1136.78 145.028C1135.8 145.028 1135.01 144.776 1134.4 144.272C1133.79 143.768 1133.43 143.096 1133.3 142.256H1134.54C1134.66 142.788 1134.92 143.203 1135.31 143.502C1135.7 143.801 1136.2 143.95 1136.8 143.95C1137.53 143.95 1138.09 143.731 1138.46 143.292C1138.83 142.844 1139.02 142.256 1139.02 141.528C1139.02 140.8 1138.83 140.24 1138.46 139.848C1138.09 139.447 1137.54 139.246 1136.81 139.246C1136.31 139.246 1135.88 139.367 1135.51 139.61C1135.14 139.843 1134.88 140.165 1134.71 140.576H1133.51V134.864H1139.6V135.984ZM1141.93 139.834C1141.93 138.229 1142.19 136.978 1142.72 136.082C1143.24 135.177 1144.15 134.724 1145.46 134.724C1146.76 134.724 1147.67 135.177 1148.19 136.082C1148.71 136.978 1148.97 138.229 1148.97 139.834C1148.97 141.467 1148.71 142.737 1148.19 143.642C1147.67 144.547 1146.76 145 1145.46 145C1144.15 145 1143.24 144.547 1142.72 143.642C1142.19 142.737 1141.93 141.467 1141.93 139.834ZM1147.71 139.834C1147.71 139.022 1147.66 138.336 1147.55 137.776C1147.44 137.207 1147.22 136.749 1146.89 136.404C1146.56 136.059 1146.09 135.886 1145.46 135.886C1144.83 135.886 1144.34 136.059 1144 136.404C1143.68 136.749 1143.46 137.207 1143.35 137.776C1143.24 138.336 1143.19 139.022 1143.19 139.834C1143.19 140.674 1143.24 141.379 1143.35 141.948C1143.46 142.517 1143.68 142.975 1144 143.32C1144.34 143.665 1144.83 143.838 1145.46 143.838C1146.09 143.838 1146.56 143.665 1146.89 143.32C1147.22 142.975 1147.44 142.517 1147.55 141.948C1147.66 141.379 1147.71 140.674 1147.71 139.834ZM1150.39 136.04V134.878H1153.02V145H1151.73V136.04H1150.39Z" fill="#2B3674"/>
<path fill-rule="evenodd" clip-rule="evenodd" d="M1232 148L1232 215L1230.5 215L1230.5 148C1230.5 146.067 1228.93 144.5 1227 144.5L1171 144.5L1171 143L1227 143C1229.76 143 1232 145.239 1232 148ZM1100 143L1045 143C1042.24 143 1040 145.239 1040 148L1040 215L1041.5 215L1041.5 148C1041.5 146.067 1043.07 144.5 1045 144.5L1100 144.5L1100 143Z" fill="#B0BBD5"/>
<path fill-rule="evenodd" clip-rule="evenodd" d="M851 148.002L851 215.002L849.5 215.002L849.5 148.002C849.5 146.069 847.933 144.502 846 144.502L744 144.502L744 143.002L846 143.002C848.762 143.002 851 145.241 851 148.002ZM659 143.002L558 143.002C555.239 143.002 553 145.241 553 148.002L553 215.002L554.5 215.002L554.5 148.002C554.5 146.069 556.067 144.502 558 144.502L659 144.502L659 143.002Z" fill="#B0BBD5"/>
<path fill-rule="evenodd" clip-rule="evenodd" d="M554 148.002L554 215.002L552.5 215.002L552.5 148.002C552.5 146.069 550.933 144.502 549 144.502L447 144.502L447 143.002L549 143.002C551.761 143.002 554 145.241 554 148.002ZM362 143.002L261 143.002C258.239 143.002 256 145.241 256 148.002L256 215.002L257.5 215.002L257.5 148.002C257.5 146.069 259.067 144.502 261 144.502L362 144.502L362 143.002Z" fill="#B0BBD5"/>
<rect x="586.278" y="175.207" width="18.4444" height="29.2951" rx="3.5" fill="#DADEE7" stroke="#DADEE7"/>
<mask id="path-107-inside-21_0_3317" fill="white">
<path d="M583 178.002C583 174.688 585.687 172.002 589 172.002H602C605.314 172.002 608 174.688 608 178.002V191.477H583V178.002Z"/>
</mask>
<path d="M581 178.002C581 173.584 584.582 170.002 589 170.002H602C606.419 170.002 610 173.584 610 178.002H606C606 175.793 604.209 174.002 602 174.002H589C586.791 174.002 585 175.793 585 178.002H581ZM608 191.477H583H608ZM581 191.477V178.002C581 173.584 584.582 170.002 589 170.002V174.002C586.791 174.002 585 175.793 585 178.002V191.477H581ZM602 170.002C606.419 170.002 610 173.584 610 178.002V191.477H606V178.002C606 175.793 604.209 174.002 602 174.002V170.002Z" fill="#DADEE7" mask="url(#path-107-inside-21_0_3317)"/>
<rect x="290.278" y="175.207" width="18.4444" height="29.2951" rx="3.5" fill="#DADEE7" stroke="#DADEE7"/>
<mask id="path-110-inside-22_0_3317" fill="white">
<path d="M287 178.002C287 174.688 289.687 172.002 293 172.002H306C309.314 172.002 312 174.688 312 178.002V191.477H287V178.002Z"/>
</mask>
<path d="M285 178.002C285 173.584 288.582 170.002 293 170.002H306C310.419 170.002 314 173.584 314 178.002H310C310 175.793 308.209 174.002 306 174.002H293C290.791 174.002 289 175.793 289 178.002H285ZM312 191.477H287H312ZM285 191.477V178.002C285 173.584 288.582 170.002 293 170.002V174.002C290.791 174.002 289 175.793 289 178.002V191.477H285ZM306 170.002C310.419 170.002 314 173.584 314 178.002V191.477H310V178.002C310 175.793 308.209 174.002 306 174.002V170.002Z" fill="#DADEE7" mask="url(#path-110-inside-22_0_3317)"/>
<rect x="735.778" y="174.707" width="19.4444" height="30.2951" rx="4" fill="#FF1A63"/>
<mask id="path-113-inside-23_0_3317" fill="white">
<path d="M733 178.002C733 174.688 735.687 172.002 739 172.002H752C755.314 172.002 758 174.688 758 178.002V191.477H733V178.002Z"/>
</mask>
<path d="M731 178.002C731 173.584 734.582 170.002 739 170.002H752C756.419 170.002 760 173.584 760 178.002H756C756 175.793 754.209 174.002 752 174.002H739C736.791 174.002 735 175.793 735 178.002H731ZM758 191.477H733H758ZM731 191.477V178.002C731 173.584 734.582 170.002 739 170.002V174.002C736.791 174.002 735 175.793 735 178.002V191.477H731ZM752 170.002C756.419 170.002 760 173.584 760 178.002V191.477H756V178.002C756 175.793 754.209 174.002 752 174.002V170.002Z" fill="#FF1A63" mask="url(#path-113-inside-23_0_3317)"/>
<rect x="439.778" y="174.707" width="19.4444" height="30.2951" rx="4" fill="#FF1A63"/>
<mask id="path-116-inside-24_0_3317" fill="white">
<path d="M437 178.002C437 174.688 439.686 172.002 443 172.002H456C459.314 172.002 462 174.688 462 178.002V191.477H437V178.002Z"/>
</mask>
<path d="M435 178.002C435 173.584 438.582 170.002 443 170.002H456C460.418 170.002 464 173.584 464 178.002H460C460 175.793 458.209 174.002 456 174.002H443C440.791 174.002 439 175.793 439 178.002H435ZM462 191.477H437H462ZM435 191.477V178.002C435 173.584 438.582 170.002 443 170.002V174.002C440.791 174.002 439 175.793 439 178.002V191.477H435ZM456 170.002C460.418 170.002 464 173.584 464 178.002V191.477H460V178.002C460 175.793 458.209 174.002 456 174.002V170.002Z" fill="#FF1A63" mask="url(#path-116-inside-24_0_3317)"/>
<rect x="616.684" y="174.707" width="19.4444" height="30.2951" rx="4" fill="#FF1A63"/>
<mask id="path-119-inside-25_0_3317" fill="white">
<path d="M613.906 178.002C613.906 174.688 616.593 172.002 619.906 172.002H632.906C636.22 172.002 638.906 174.688 638.906 178.002V191.477H613.906V178.002Z"/>
</mask>
<path d="M611.906 178.002C611.906 173.584 615.488 170.002 619.906 170.002H632.906C637.325 170.002 640.906 173.584 640.906 178.002H636.906C636.906 175.793 635.116 174.002 632.906 174.002H619.906C617.697 174.002 615.906 175.793 615.906 178.002H611.906ZM638.906 191.477H613.906H638.906ZM611.906 191.477V178.002C611.906 173.584 615.488 170.002 619.906 170.002V174.002C617.697 174.002 615.906 175.793 615.906 178.002V191.477H611.906ZM632.906 170.002C637.325 170.002 640.906 173.584 640.906 178.002V191.477H636.906V178.002C636.906 175.793 635.116 174.002 632.906 174.002V170.002Z" fill="#FF1A63" mask="url(#path-119-inside-25_0_3317)"/>
<rect x="320.684" y="174.707" width="19.4444" height="30.2951" rx="4" fill="#FF1A63"/>
<mask id="path-122-inside-26_0_3317" fill="white">
<path d="M317.906 178.002C317.906 174.688 320.593 172.002 323.906 172.002H336.906C340.22 172.002 342.906 174.688 342.906 178.002V191.477H317.906V178.002Z"/>
</mask>
<path d="M315.906 178.002C315.906 173.584 319.488 170.002 323.906 170.002H336.906C341.325 170.002 344.906 173.584 344.906 178.002H340.906C340.906 175.793 339.115 174.002 336.906 174.002H323.906C321.697 174.002 319.906 175.793 319.906 178.002H315.906ZM342.906 191.477H317.906H342.906ZM315.906 191.477V178.002C315.906 173.584 319.488 170.002 323.906 170.002V174.002C321.697 174.002 319.906 175.793 319.906 178.002V191.477H315.906ZM336.906 170.002C341.325 170.002 344.906 173.584 344.906 178.002V191.477H340.906V178.002C340.906 175.793 339.115 174.002 336.906 174.002V170.002Z" fill="#FF1A63" mask="url(#path-122-inside-26_0_3317)"/>
<rect x="766.684" y="174.707" width="19.4444" height="30.2951" rx="4" fill="#FF1A63"/>
<mask id="path-125-inside-27_0_3317" fill="white">
<path d="M763.906 178.002C763.906 174.688 766.593 172.002 769.906 172.002H782.906C786.22 172.002 788.906 174.688 788.906 178.002V191.477H763.906V178.002Z"/>
</mask>
<path d="M761.906 178.002C761.906 173.584 765.488 170.002 769.906 170.002H782.906C787.325 170.002 790.906 173.584 790.906 178.002H786.906C786.906 175.793 785.116 174.002 782.906 174.002H769.906C767.697 174.002 765.906 175.793 765.906 178.002H761.906ZM788.906 191.477H763.906H788.906ZM761.906 191.477V178.002C761.906 173.584 765.488 170.002 769.906 170.002V174.002C767.697 174.002 765.906 175.793 765.906 178.002V191.477H761.906ZM782.906 170.002C787.325 170.002 790.906 173.584 790.906 178.002V191.477H786.906V178.002C786.906 175.793 785.116 174.002 782.906 174.002V170.002Z" fill="#FF1A63" mask="url(#path-125-inside-27_0_3317)"/>
<rect x="470.684" y="174.707" width="19.4444" height="30.2951" rx="4" fill="#FF1A63"/>
<mask id="path-128-inside-28_0_3317" fill="white">
<path d="M467.906 178.002C467.906 174.688 470.593 172.002 473.906 172.002H486.906C490.22 172.002 492.906 174.688 492.906 178.002V191.477H467.906V178.002Z"/>
</mask>
<path d="M465.906 178.002C465.906 173.584 469.488 170.002 473.906 170.002H486.906C491.325 170.002 494.906 173.584 494.906 178.002H490.906C490.906 175.793 489.115 174.002 486.906 174.002H473.906C471.697 174.002 469.906 175.793 469.906 178.002H465.906ZM492.906 191.477H467.906H492.906ZM465.906 191.477V178.002C465.906 173.584 469.488 170.002 473.906 170.002V174.002C471.697 174.002 469.906 175.793 469.906 178.002V191.477H465.906ZM486.906 170.002C491.325 170.002 494.906 173.584 494.906 178.002V191.477H490.906V178.002C490.906 175.793 489.115 174.002 486.906 174.002V170.002Z" fill="#FF1A63" mask="url(#path-128-inside-28_0_3317)"/>
<rect x="648.091" y="175.207" width="18.4444" height="29.2951" rx="3.5" fill="#DADEE7" stroke="#DADEE7"/>
<mask id="path-131-inside-29_0_3317" fill="white">
<path d="M644.813 178.002C644.813 174.688 647.499 172.002 650.813 172.002H663.813C667.126 172.002 669.813 174.688 669.813 178.002V191.477H644.813V178.002Z"/>
</mask>
<path d="M642.813 178.002C642.813 173.584 646.394 170.002 650.813 170.002H663.813C668.231 170.002 671.813 173.584 671.813 178.002H667.813C667.813 175.793 666.022 174.002 663.813 174.002H650.813C648.604 174.002 646.813 175.793 646.813 178.002H642.813ZM669.813 191.477H644.813H669.813ZM642.813 191.477V178.002C642.813 173.584 646.394 170.002 650.813 170.002V174.002C648.604 174.002 646.813 175.793 646.813 178.002V191.477H642.813ZM663.813 170.002C668.231 170.002 671.813 173.584 671.813 178.002V191.477H667.813V178.002C667.813 175.793 666.022 174.002 663.813 174.002V170.002Z" fill="#DADEE7" mask="url(#path-131-inside-29_0_3317)"/>
<rect x="352.09" y="175.207" width="18.4444" height="29.2951" rx="3.5" fill="#DADEE7" stroke="#DADEE7"/>
<mask id="path-134-inside-30_0_3317" fill="white">
<path d="M348.812 178.002C348.812 174.688 351.499 172.002 354.812 172.002H367.812C371.126 172.002 373.812 174.688 373.812 178.002V191.477H348.812V178.002Z"/>
</mask>
<path d="M346.812 178.002C346.812 173.584 350.394 170.002 354.812 170.002H367.812C372.231 170.002 375.812 173.584 375.812 178.002H371.812C371.812 175.793 370.022 174.002 367.812 174.002H354.812C352.603 174.002 350.812 175.793 350.812 178.002H346.812ZM373.812 191.477H348.812H373.812ZM346.812 191.477V178.002C346.812 173.584 350.394 170.002 354.812 170.002V174.002C352.603 174.002 350.812 175.793 350.812 178.002V191.477H346.812ZM367.812 170.002C372.231 170.002 375.812 173.584 375.812 178.002V191.477H371.812V178.002C371.812 175.793 370.022 174.002 367.812 174.002V170.002Z" fill="#DADEE7" mask="url(#path-134-inside-30_0_3317)"/>
<rect x="798.091" y="175.207" width="18.4444" height="29.2951" rx="3.5" fill="#DADEE7" stroke="#DADEE7"/>
<mask id="path-137-inside-31_0_3317" fill="white">
<path d="M794.813 178.002C794.813 174.688 797.499 172.002 800.813 172.002H813.813C817.126 172.002 819.813 174.688 819.813 178.002V191.477H794.813V178.002Z"/>
</mask>
<path d="M792.813 178.002C792.813 173.584 796.394 170.002 800.813 170.002H813.813C818.231 170.002 821.813 173.584 821.813 178.002H817.813C817.813 175.793 816.022 174.002 813.813 174.002H800.813C798.604 174.002 796.813 175.793 796.813 178.002H792.813ZM819.813 191.477H794.813H819.813ZM792.813 191.477V178.002C792.813 173.584 796.394 170.002 800.813 170.002V174.002C798.604 174.002 796.813 175.793 796.813 178.002V191.477H792.813ZM813.813 170.002C818.231 170.002 821.813 173.584 821.813 178.002V191.477H817.813V178.002C817.813 175.793 816.022 174.002 813.813 174.002V170.002Z" fill="#DADEE7" mask="url(#path-137-inside-31_0_3317)"/>
<rect x="502.09" y="175.207" width="18.4444" height="29.2951" rx="3.5" fill="#DADEE7" stroke="#DADEE7"/>
<mask id="path-140-inside-32_0_3317" fill="white">
<path d="M498.812 178.002C498.812 174.688 501.499 172.002 504.812 172.002H517.812C521.126 172.002 523.812 174.688 523.812 178.002V191.477H498.812V178.002Z"/>
</mask>
<path d="M496.812 178.002C496.812 173.584 500.394 170.002 504.812 170.002H517.812C522.231 170.002 525.812 173.584 525.812 178.002H521.812C521.812 175.793 520.022 174.002 517.812 174.002H504.812C502.603 174.002 500.812 175.793 500.812 178.002H496.812ZM523.812 191.477H498.812H523.812ZM496.812 191.477V178.002C496.812 173.584 500.394 170.002 504.812 170.002V174.002C502.603 174.002 500.812 175.793 500.812 178.002V191.477H496.812ZM517.812 170.002C522.231 170.002 525.812 173.584 525.812 178.002V191.477H521.812V178.002C521.812 175.793 520.022 174.002 517.812 174.002V170.002Z" fill="#DADEE7" mask="url(#path-140-inside-32_0_3317)"/>
<rect x="675.5" y="128.502" width="56" height="24" rx="3.5" fill="#DADEE7"/>
<path d="M684.33 145.002V135.006H685.744L690.294 143.238H690.35C690.341 142.995 690.327 142.715 690.308 142.398C690.29 142.081 690.276 141.763 690.266 141.446C690.257 141.119 690.252 140.839 690.252 140.606V135.006H691.358V145.002H689.986L685.38 136.742H685.324C685.343 136.985 685.357 137.274 685.366 137.61C685.385 137.937 685.399 138.263 685.408 138.59C685.427 138.917 685.436 139.206 685.436 139.458V145.002H684.33ZM692.688 145.002V144.036H696.286V145.002H692.688ZM694.48 143.126C694.079 143.126 693.72 143.037 693.402 142.86C693.094 142.673 692.852 142.403 692.674 142.048C692.497 141.693 692.408 141.259 692.408 140.746C692.408 139.981 692.595 139.397 692.968 138.996C693.351 138.585 693.869 138.38 694.522 138.38C694.924 138.38 695.278 138.473 695.586 138.66C695.904 138.837 696.151 139.103 696.328 139.458C696.515 139.803 696.608 140.233 696.608 140.746C696.608 141.511 696.417 142.099 696.034 142.51C695.652 142.921 695.134 143.126 694.48 143.126ZM694.508 142.314C694.919 142.314 695.213 142.183 695.39 141.922C695.568 141.651 695.656 141.259 695.656 140.746C695.656 140.223 695.568 139.841 695.39 139.598C695.213 139.346 694.919 139.22 694.508 139.22C694.107 139.22 693.813 139.346 693.626 139.598C693.44 139.841 693.346 140.223 693.346 140.746C693.346 141.259 693.435 141.651 693.612 141.922C693.799 142.183 694.098 142.314 694.508 142.314ZM704.596 135.986H699.682V139.178C699.896 138.879 700.214 138.637 700.634 138.45C701.054 138.254 701.506 138.156 701.992 138.156C702.766 138.156 703.396 138.319 703.882 138.646C704.367 138.963 704.712 139.379 704.918 139.892C705.132 140.396 705.24 140.933 705.24 141.502C705.24 142.174 705.114 142.776 704.862 143.308C704.61 143.84 704.222 144.26 703.7 144.568C703.186 144.876 702.547 145.03 701.782 145.03C700.802 145.03 700.008 144.778 699.402 144.274C698.795 143.77 698.426 143.098 698.296 142.258H699.542C699.663 142.79 699.92 143.205 700.312 143.504C700.704 143.803 701.198 143.952 701.796 143.952C702.533 143.952 703.088 143.733 703.462 143.294C703.835 142.846 704.022 142.258 704.022 141.53C704.022 140.802 703.835 140.242 703.462 139.85C703.088 139.449 702.538 139.248 701.81 139.248C701.315 139.248 700.881 139.369 700.508 139.612C700.144 139.845 699.878 140.167 699.71 140.578H698.506V134.866H704.596V135.986ZM706.933 139.836C706.933 138.231 707.194 136.98 707.717 136.084C708.239 135.179 709.154 134.726 710.461 134.726C711.758 134.726 712.668 135.179 713.191 136.084C713.713 136.98 713.975 138.231 713.975 139.836C713.975 141.469 713.713 142.739 713.191 143.644C712.668 144.549 711.758 145.002 710.461 145.002C709.154 145.002 708.239 144.549 707.717 143.644C707.194 142.739 706.933 141.469 706.933 139.836ZM712.715 139.836C712.715 139.024 712.659 138.338 712.547 137.778C712.444 137.209 712.225 136.751 711.889 136.406C711.562 136.061 711.086 135.888 710.461 135.888C709.826 135.888 709.341 136.061 709.005 136.406C708.678 136.751 708.459 137.209 708.347 137.778C708.244 138.338 708.193 139.024 708.193 139.836C708.193 140.676 708.244 141.381 708.347 141.95C708.459 142.519 708.678 142.977 709.005 143.322C709.341 143.667 709.826 143.84 710.461 143.84C711.086 143.84 711.562 143.667 711.889 143.322C712.225 142.977 712.444 142.519 712.547 141.95C712.659 141.381 712.715 140.676 712.715 139.836ZM722.178 135.986H717.264V139.178C717.478 138.879 717.796 138.637 718.216 138.45C718.636 138.254 719.088 138.156 719.574 138.156C720.348 138.156 720.978 138.319 721.464 138.646C721.949 138.963 722.294 139.379 722.5 139.892C722.714 140.396 722.822 140.933 722.822 141.502C722.822 142.174 722.696 142.776 722.444 143.308C722.192 143.84 721.804 144.26 721.282 144.568C720.768 144.876 720.129 145.03 719.364 145.03C718.384 145.03 717.59 144.778 716.984 144.274C716.377 143.77 716.008 143.098 715.878 142.258H717.124C717.245 142.79 717.502 143.205 717.894 143.504C718.286 143.803 718.78 143.952 719.378 143.952C720.115 143.952 720.67 143.733 721.044 143.294C721.417 142.846 721.604 142.258 721.604 141.53C721.604 140.802 721.417 140.242 721.044 139.85C720.67 139.449 720.12 139.248 719.392 139.248C718.897 139.248 718.463 139.369 718.09 139.612C717.726 139.845 717.46 140.167 717.292 140.578H716.088V134.866H722.178V135.986Z" fill="#2B3674"/>
<rect x="675.5" y="128.502" width="56" height="24" rx="3.5" stroke="#DADEE7"/>
<rect x="378.5" y="128.502" width="56" height="24" rx="3.5" fill="#DADEE7"/>
<path d="M387.33 145.002V135.006H388.744L393.294 143.238H393.35C393.341 142.995 393.327 142.715 393.308 142.398C393.289 142.081 393.275 141.763 393.266 141.446C393.257 141.119 393.252 140.839 393.252 140.606V135.006H394.358V145.002H392.986L388.38 136.742H388.324C388.343 136.985 388.357 137.274 388.366 137.61C388.385 137.937 388.399 138.263 388.408 138.59C388.427 138.917 388.436 139.206 388.436 139.458V145.002H387.33ZM395.688 145.002V144.036H399.286V145.002H395.688ZM397.48 143.126C397.079 143.126 396.719 143.037 396.402 142.86C396.094 142.673 395.851 142.403 395.674 142.048C395.497 141.693 395.408 141.259 395.408 140.746C395.408 139.981 395.595 139.397 395.968 138.996C396.351 138.585 396.869 138.38 397.522 138.38C397.923 138.38 398.278 138.473 398.586 138.66C398.903 138.837 399.151 139.103 399.328 139.458C399.515 139.803 399.608 140.233 399.608 140.746C399.608 141.511 399.417 142.099 399.034 142.51C398.651 142.921 398.133 143.126 397.48 143.126ZM397.508 142.314C397.919 142.314 398.213 142.183 398.39 141.922C398.567 141.651 398.656 141.259 398.656 140.746C398.656 140.223 398.567 139.841 398.39 139.598C398.213 139.346 397.919 139.22 397.508 139.22C397.107 139.22 396.813 139.346 396.626 139.598C396.439 139.841 396.346 140.223 396.346 140.746C396.346 141.259 396.435 141.651 396.612 141.922C396.799 142.183 397.097 142.314 397.508 142.314ZM407.595 135.986H402.681V139.178C402.896 138.879 403.213 138.637 403.633 138.45C404.053 138.254 404.506 138.156 404.991 138.156C405.766 138.156 406.396 138.319 406.881 138.646C407.367 138.963 407.712 139.379 407.917 139.892C408.132 140.396 408.239 140.933 408.239 141.502C408.239 142.174 408.113 142.776 407.861 143.308C407.609 143.84 407.222 144.26 406.699 144.568C406.186 144.876 405.547 145.03 404.781 145.03C403.801 145.03 403.008 144.778 402.401 144.274C401.795 143.77 401.426 143.098 401.295 142.258H402.541C402.663 142.79 402.919 143.205 403.311 143.504C403.703 143.803 404.198 143.952 404.795 143.952C405.533 143.952 406.088 143.733 406.461 143.294C406.835 142.846 407.021 142.258 407.021 141.53C407.021 140.802 406.835 140.242 406.461 139.85C406.088 139.449 405.537 139.248 404.809 139.248C404.315 139.248 403.881 139.369 403.507 139.612C403.143 139.845 402.877 140.167 402.709 140.578H401.505V134.866H407.595V135.986ZM409.932 139.836C409.932 138.231 410.194 136.98 410.716 136.084C411.239 135.179 412.154 134.726 413.46 134.726C414.758 134.726 415.668 135.179 416.19 136.084C416.713 136.98 416.974 138.231 416.974 139.836C416.974 141.469 416.713 142.739 416.19 143.644C415.668 144.549 414.758 145.002 413.46 145.002C412.154 145.002 411.239 144.549 410.716 143.644C410.194 142.739 409.932 141.469 409.932 139.836ZM415.714 139.836C415.714 139.024 415.658 138.338 415.546 137.778C415.444 137.209 415.224 136.751 414.888 136.406C414.562 136.061 414.086 135.888 413.46 135.888C412.826 135.888 412.34 136.061 412.004 136.406C411.678 136.751 411.458 137.209 411.346 137.778C411.244 138.338 411.192 139.024 411.192 139.836C411.192 140.676 411.244 141.381 411.346 141.95C411.458 142.519 411.678 142.977 412.004 143.322C412.34 143.667 412.826 143.84 413.46 143.84C414.086 143.84 414.562 143.667 414.888 143.322C415.224 142.977 415.444 142.519 415.546 141.95C415.658 141.381 415.714 140.676 415.714 139.836ZM424.365 137.288C424.16 136.252 423.521 135.734 422.447 135.734C421.617 135.734 420.996 136.056 420.585 136.7C420.175 137.335 419.974 138.385 419.983 139.85C420.198 139.365 420.553 138.987 421.047 138.716C421.551 138.436 422.111 138.296 422.727 138.296C423.689 138.296 424.454 138.595 425.023 139.192C425.602 139.789 425.891 140.615 425.891 141.67C425.891 142.305 425.765 142.874 425.513 143.378C425.271 143.882 424.897 144.283 424.393 144.582C423.899 144.881 423.297 145.03 422.587 145.03C421.626 145.03 420.875 144.815 420.333 144.386C419.792 143.957 419.414 143.364 419.199 142.608C418.985 141.852 418.877 140.919 418.877 139.808C418.877 136.383 420.072 134.67 422.461 134.67C423.376 134.67 424.095 134.917 424.617 135.412C425.14 135.907 425.448 136.532 425.541 137.288H424.365ZM422.461 139.374C422.06 139.374 421.682 139.458 421.327 139.626C420.973 139.785 420.683 140.032 420.459 140.368C420.245 140.695 420.137 141.096 420.137 141.572C420.137 142.281 420.343 142.86 420.753 143.308C421.164 143.747 421.752 143.966 422.517 143.966C423.171 143.966 423.689 143.765 424.071 143.364C424.463 142.953 424.659 142.403 424.659 141.712C424.659 140.984 424.473 140.415 424.099 140.004C423.726 139.584 423.18 139.374 422.461 139.374Z" fill="#2B3674"/>
<rect x="378.5" y="128.502" width="56" height="24" rx="3.5" stroke="#DADEE7"/>
<rect x="617" y="149.002" width="19" height="17" rx="4" fill="#DADEE7"/>
<path d="M628.45 161.002L627.59 158.792H624.76L623.91 161.002H623L625.79 153.832H626.6L629.38 161.002H628.45ZM626.52 155.832C626.5 155.779 626.467 155.682 626.42 155.542C626.374 155.402 626.327 155.259 626.28 155.112C626.24 154.959 626.207 154.842 626.18 154.762C626.147 154.895 626.11 155.032 626.07 155.172C626.037 155.305 626 155.429 625.96 155.542C625.927 155.655 625.897 155.752 625.87 155.832L625.06 157.992H627.32L626.52 155.832Z" fill="#2B3674"/>
<rect x="320" y="149.002" width="19" height="17" rx="4" fill="#DADEE7"/>
<path d="M331.45 161.002L330.59 158.792H327.76L326.91 161.002H326L328.79 153.832H329.6L332.38 161.002H331.45ZM329.52 155.832C329.5 155.779 329.467 155.682 329.42 155.542C329.373 155.402 329.327 155.259 329.28 155.112C329.24 154.959 329.207 154.842 329.18 154.762C329.147 154.895 329.11 155.032 329.07 155.172C329.037 155.305 329 155.429 328.96 155.542C328.927 155.655 328.897 155.752 328.87 155.832L328.06 157.992H330.32L329.52 155.832Z" fill="#2B3674"/>
<rect x="768" y="149.002" width="19" height="17" rx="4" fill="#DADEE7"/>
<path d="M774.97 161.002V153.862H779.21V154.652H775.87V156.882H776.93C777.644 156.882 778.197 156.972 778.59 157.152C778.984 157.325 779.257 157.565 779.41 157.872C779.564 158.172 779.64 158.519 779.64 158.912C779.64 159.345 779.554 159.719 779.38 160.032C779.214 160.345 778.94 160.585 778.56 160.752C778.18 160.919 777.68 161.002 777.06 161.002H774.97ZM776.97 160.232C777.61 160.232 778.06 160.125 778.32 159.912C778.58 159.692 778.71 159.359 778.71 158.912C778.71 158.605 778.647 158.362 778.52 158.182C778.4 157.995 778.2 157.862 777.92 157.782C777.647 157.702 777.28 157.662 776.82 157.662H775.87V160.232H776.97Z" fill="#2B3674"/>
<rect x="471" y="149.002" width="19" height="17" rx="4" fill="#DADEE7"/>
<path d="M477.97 161.002V153.862H482.21V154.652H478.87V156.882H479.93C480.643 156.882 481.197 156.972 481.59 157.152C481.983 157.325 482.257 157.565 482.41 157.872C482.563 158.172 482.64 158.519 482.64 158.912C482.64 159.345 482.553 159.719 482.38 160.032C482.213 160.345 481.94 160.585 481.56 160.752C481.18 160.919 480.68 161.002 480.06 161.002H477.97ZM479.97 160.232C480.61 160.232 481.06 160.125 481.32 159.912C481.58 159.692 481.71 159.359 481.71 158.912C481.71 158.605 481.647 158.362 481.52 158.182C481.4 157.995 481.2 157.862 480.92 157.782C480.647 157.702 480.28 157.662 479.82 157.662H478.87V160.232H479.97Z" fill="#2B3674"/>
<rect x="701" y="172.002" width="2" height="43" rx="1" fill="#B0BBD5"/>
<rect x="945" y="172" width="2" height="43" rx="1" fill="#B0BBD5"/>
<rect x="1135" y="172" width="2" height="43" rx="1" fill="#B0BBD5"/>
</svg>
