<svg width="1250" height="215" viewBox="0 0 1250 215" fill="none" xmlns="http://www.w3.org/2000/svg">
<rect width="1250" height="215" rx="20" fill="white"/>
<rect x="977.567" y="174.705" width="19.4444" height="30.2951" rx="4" fill="#DADEE7"/>
<mask id="path-3-inside-1_202_27" fill="white">
<path d="M974.789 178C974.789 174.686 977.475 172 980.789 172H993.789C997.103 172 999.789 174.686 999.789 178V191.475H974.789V178Z"/>
</mask>
<path d="M972.789 178C972.789 173.582 976.371 170 980.789 170H993.789C998.207 170 1001.79 173.582 1001.79 178H997.789C997.789 175.791 995.998 174 993.789 174H980.789C978.58 174 976.789 175.791 976.789 178H972.789ZM999.789 191.475H974.789H999.789ZM972.789 191.475V178C972.789 173.582 976.371 170 980.789 170V174C978.58 174 976.789 175.791 976.789 178V191.475H972.789ZM993.789 170C998.207 170 1001.79 173.582 1001.79 178V191.475H997.789V178C997.789 175.791 995.998 174 993.789 174V170Z" fill="#DADEE7" mask="url(#path-3-inside-1_202_27)"/>
<rect x="895.471" y="12.705" width="19.4444" height="30.2951" rx="4" fill="#4318FF"/>
<mask id="path-6-inside-2_202_27" fill="white">
<path d="M892.693 16C892.693 12.6863 895.38 10 898.693 10H911.693C915.007 10 917.693 12.6863 917.693 16V29.4754H892.693V16Z"/>
</mask>
<path d="M890.693 16C890.693 11.5817 894.275 8 898.693 8H911.693C916.112 8 919.693 11.5817 919.693 16H915.693C915.693 13.7909 913.902 12 911.693 12H898.693C896.484 12 894.693 13.7909 894.693 16H890.693ZM917.693 29.4754H892.693H917.693ZM890.693 29.4754V16C890.693 11.5817 894.275 8 898.693 8V12C896.484 12 894.693 13.7909 894.693 16V29.4754H890.693ZM911.693 8C916.112 8 919.693 11.5817 919.693 16V29.4754H915.693V16C915.693 13.7909 913.902 12 911.693 12V8Z" fill="#4318FF" mask="url(#path-6-inside-2_202_27)"/>
<rect x="1045.47" y="12.705" width="19.4444" height="30.2951" rx="4" fill="#DADEE7"/>
<mask id="path-9-inside-3_202_27" fill="white">
<path d="M1042.69 16C1042.69 12.6863 1045.38 10 1048.69 10H1061.69C1065.01 10 1067.69 12.6863 1067.69 16V29.4754H1042.69V16Z"/>
</mask>
<path d="M1040.69 16C1040.69 11.5817 1044.28 8 1048.69 8H1061.69C1066.11 8 1069.69 11.5817 1069.69 16H1065.69C1065.69 13.7909 1063.9 12 1061.69 12H1048.69C1046.48 12 1044.69 13.7909 1044.69 16H1040.69ZM1067.69 29.4754H1042.69H1067.69ZM1040.69 29.4754V16C1040.69 11.5817 1044.28 8 1048.69 8V12C1046.48 12 1044.69 13.7909 1044.69 16V29.4754H1040.69ZM1061.69 8C1066.11 8 1069.69 11.5817 1069.69 16V29.4754H1065.69V16C1065.69 13.7909 1063.9 12 1061.69 12V8Z" fill="#DADEE7" mask="url(#path-9-inside-3_202_27)"/>
<rect x="1073.48" y="174.705" width="19.4444" height="30.2951" rx="4" fill="#DADEE7"/>
<mask id="path-12-inside-4_202_27" fill="white">
<path d="M1070.7 178C1070.7 174.686 1073.39 172 1076.7 172H1089.7C1093.02 172 1095.7 174.686 1095.7 178V191.475H1070.7V178Z"/>
</mask>
<path d="M1068.7 178C1068.7 173.582 1072.28 170 1076.7 170H1089.7C1094.12 170 1097.7 173.582 1097.7 178H1093.7C1093.7 175.791 1091.91 174 1089.7 174H1076.7C1074.49 174 1072.7 175.791 1072.7 178H1068.7ZM1095.7 191.475H1070.7H1095.7ZM1068.7 191.475V178C1068.7 173.582 1072.28 170 1076.7 170V174C1074.49 174 1072.7 175.791 1072.7 178V191.475H1068.7ZM1089.7 170C1094.12 170 1097.7 173.582 1097.7 178V191.475H1093.7V178C1093.7 175.791 1091.91 174 1089.7 174V170Z" fill="#DADEE7" mask="url(#path-12-inside-4_202_27)"/>
<rect x="1009.03" y="174.705" width="19.4444" height="30.2951" rx="4" fill="#DADEE7"/>
<mask id="path-15-inside-5_202_27" fill="white">
<path d="M1006.26 178C1006.26 174.686 1008.94 172 1012.26 172H1025.26C1028.57 172 1031.26 174.686 1031.26 178V191.475H1006.26V178Z"/>
</mask>
<path d="M1004.26 178C1004.26 173.582 1007.84 170 1012.26 170H1025.26C1029.68 170 1033.26 173.582 1033.26 178H1029.26C1029.26 175.791 1027.47 174 1025.26 174H1012.26C1010.05 174 1008.26 175.791 1008.26 178H1004.26ZM1031.26 191.475H1006.26H1031.26ZM1004.26 191.475V178C1004.26 173.582 1007.84 170 1012.26 170V174C1010.05 174 1008.26 175.791 1008.26 178V191.475H1004.26ZM1025.26 170C1029.68 170 1033.26 173.582 1033.26 178V191.475H1029.26V178C1029.26 175.791 1027.47 174 1025.26 174V170Z" fill="#DADEE7" mask="url(#path-15-inside-5_202_27)"/>
<rect x="926.377" y="12.705" width="19.4444" height="30.2951" rx="4" fill="#4318FF"/>
<mask id="path-18-inside-6_202_27" fill="white">
<path d="M923.6 16C923.6 12.6863 926.286 10 929.6 10H942.6C945.913 10 948.6 12.6863 948.6 16V29.4754H923.6V16Z"/>
</mask>
<path d="M921.6 16C921.6 11.5817 925.181 8 929.6 8H942.6C947.018 8 950.6 11.5817 950.6 16H946.6C946.6 13.7909 944.809 12 942.6 12H929.6C927.39 12 925.6 13.7909 925.6 16H921.6ZM948.6 29.4754H923.6H948.6ZM921.6 29.4754V16C921.6 11.5817 925.181 8 929.6 8V12C927.39 12 925.6 13.7909 925.6 16V29.4754H921.6ZM942.6 8C947.018 8 950.6 11.5817 950.6 16V29.4754H946.6V16C946.6 13.7909 944.809 12 942.6 12V8Z" fill="#4318FF" mask="url(#path-18-inside-6_202_27)"/>
<rect x="1076.38" y="12.705" width="19.4444" height="30.2951" rx="4" fill="#DADEE7"/>
<mask id="path-21-inside-7_202_27" fill="white">
<path d="M1073.6 16C1073.6 12.6863 1076.29 10 1079.6 10H1092.6C1095.91 10 1098.6 12.6863 1098.6 16V29.4754H1073.6V16Z"/>
</mask>
<path d="M1071.6 16C1071.6 11.5817 1075.18 8 1079.6 8H1092.6C1097.02 8 1100.6 11.5817 1100.6 16H1096.6C1096.6 13.7909 1094.81 12 1092.6 12H1079.6C1077.39 12 1075.6 13.7909 1075.6 16H1071.6ZM1098.6 29.4754H1073.6H1098.6ZM1071.6 29.4754V16C1071.6 11.5817 1075.18 8 1079.6 8V12C1077.39 12 1075.6 13.7909 1075.6 16V29.4754H1071.6ZM1092.6 8C1097.02 8 1100.6 11.5817 1100.6 16V29.4754H1096.6V16C1096.6 13.7909 1094.81 12 1092.6 12V8Z" fill="#DADEE7" mask="url(#path-21-inside-7_202_27)"/>
<rect x="957.284" y="12.705" width="19.4444" height="30.2951" rx="4" fill="#DADEE7"/>
<mask id="path-24-inside-8_202_27" fill="white">
<path d="M954.506 16C954.506 12.6863 957.192 10 960.506 10H973.506C976.82 10 979.506 12.6863 979.506 16V29.4754H954.506V16Z"/>
</mask>
<path d="M952.506 16C952.506 11.5817 956.088 8 960.506 8H973.506C977.924 8 981.506 11.5817 981.506 16H977.506C977.506 13.7909 975.715 12 973.506 12H960.506C958.297 12 956.506 13.7909 956.506 16H952.506ZM979.506 29.4754H954.506H979.506ZM952.506 29.4754V16C952.506 11.5817 956.088 8 960.506 8V12C958.297 12 956.506 13.7909 956.506 16V29.4754H952.506ZM973.506 8C977.924 8 981.506 11.5817 981.506 16V29.4754H977.506V16C977.506 13.7909 975.715 12 973.506 12V8Z" fill="#DADEE7" mask="url(#path-24-inside-8_202_27)"/>
<rect x="1107.28" y="12.705" width="19.4444" height="30.2951" rx="4" fill="#4318FF"/>
<mask id="path-27-inside-9_202_27" fill="white">
<path d="M1104.51 16C1104.51 12.6863 1107.19 10 1110.51 10H1123.51C1126.82 10 1129.51 12.6863 1129.51 16V29.4754H1104.51V16Z"/>
</mask>
<path d="M1102.51 16C1102.51 11.5817 1106.09 8 1110.51 8H1123.51C1127.92 8 1131.51 11.5817 1131.51 16H1127.51C1127.51 13.7909 1125.71 12 1123.51 12H1110.51C1108.3 12 1106.51 13.7909 1106.51 16H1102.51ZM1129.51 29.4754H1104.51H1129.51ZM1102.51 29.4754V16C1102.51 11.5817 1106.09 8 1110.51 8V12C1108.3 12 1106.51 13.7909 1106.51 16V29.4754H1102.51ZM1123.51 8C1127.92 8 1131.51 11.5817 1131.51 16V29.4754H1127.51V16C1127.51 13.7909 1125.71 12 1123.51 12V8Z" fill="#4318FF" mask="url(#path-27-inside-9_202_27)"/>
<rect x="1104.95" y="174.705" width="19.4444" height="30.295" rx="4" fill="#DADEE7"/>
<mask id="path-30-inside-10_202_27" fill="white">
<path d="M1102.17 178C1102.17 174.686 1104.86 172 1108.17 172H1121.17C1124.48 172 1127.17 174.686 1127.17 178V191.475H1102.17V178Z"/>
</mask>
<path d="M1100.17 178C1100.17 173.582 1103.75 170 1108.17 170H1121.17C1125.59 170 1129.17 173.582 1129.17 178H1125.17C1125.17 175.791 1123.38 174 1121.17 174H1108.17C1105.96 174 1104.17 175.791 1104.17 178H1100.17ZM1127.17 191.475H1102.17H1127.17ZM1100.17 191.475V178C1100.17 173.582 1103.75 170 1108.17 170V174C1105.96 174 1104.17 175.791 1104.17 178V191.475H1100.17ZM1121.17 170C1125.59 170 1129.17 173.582 1129.17 178V191.475H1125.17V178C1125.17 175.791 1123.38 174 1121.17 174V170Z" fill="#DADEE7" mask="url(#path-30-inside-10_202_27)"/>
<path d="M1160 162C1160 159.791 1161.79 158 1164 158H1237C1239.21 158 1241 159.791 1241 162V192C1241 199.732 1234.73 206 1227 206H1164C1161.79 206 1160 204.209 1160 202V162Z" fill="#DADEE7"/>
<rect x="493" y="13" width="358" height="48" rx="4" fill="#DADEE7"/>
<path fill-rule="evenodd" clip-rule="evenodd" d="M20 3H1230C1239.39 3 1247 10.6112 1247 20V65.8164C1247 66.6448 1247.67 67.3164 1248.5 67.3164C1249.33 67.3164 1250 66.6448 1250 65.8164V20C1250 8.95431 1241.05 0 1230 0H20C8.95431 0 0 8.9543 0 20V195C0 206.046 8.95427 215 20 215H1230C1241.05 215 1250 206.046 1250 195V148.497C1250 147.668 1249.33 146.997 1248.5 146.997C1247.67 146.997 1247 147.668 1247 148.497V195C1247 204.389 1239.39 212 1230 212H20C10.6111 212 3 204.389 3 195V20C3 10.6112 10.6112 3 20 3Z" fill="#B0BBD5"/>
<rect x="984.054" y="62" width="53" height="25" rx="4" fill="#DADEE7"/>
<path d="M993.384 79V69.004H994.798L999.348 77.236H999.404C999.395 76.9933 999.381 76.7133 999.362 76.396C999.344 76.0787 999.33 75.7613 999.32 75.444C999.311 75.1173 999.306 74.8373 999.306 74.604V69.004H1000.41V79H999.04L994.434 70.74H994.378C994.397 70.9827 994.411 71.272 994.42 71.608C994.439 71.9347 994.453 72.2613 994.462 72.588C994.481 72.9147 994.49 73.204 994.49 73.456V79H993.384ZM1001.74 79V78.034H1005.34V79H1001.74ZM1003.53 77.124C1003.13 77.124 1002.77 77.0353 1002.46 76.858C1002.15 76.6713 1001.91 76.4007 1001.73 76.046C1001.55 75.6913 1001.46 75.2573 1001.46 74.744C1001.46 73.9787 1001.65 73.3953 1002.02 72.994C1002.4 72.5833 1002.92 72.378 1003.58 72.378C1003.98 72.378 1004.33 72.4713 1004.64 72.658C1004.96 72.8353 1005.2 73.1013 1005.38 73.456C1005.57 73.8013 1005.66 74.2307 1005.66 74.744C1005.66 75.5093 1005.47 76.0973 1005.09 76.508C1004.71 76.9187 1004.19 77.124 1003.53 77.124ZM1003.56 76.312C1003.97 76.312 1004.27 76.1813 1004.44 75.92C1004.62 75.6493 1004.71 75.2573 1004.71 74.744C1004.71 74.2213 1004.62 73.8387 1004.44 73.596C1004.27 73.344 1003.97 73.218 1003.56 73.218C1003.16 73.218 1002.87 73.344 1002.68 73.596C1002.49 73.8387 1002.4 74.2213 1002.4 74.744C1002.4 75.2573 1002.49 75.6493 1002.67 75.92C1002.85 76.1813 1003.15 76.312 1003.56 76.312ZM1006.86 70.04V68.878H1009.49V79H1008.2V70.04H1006.86ZM1011.68 73.834C1011.68 72.2287 1011.94 70.978 1012.46 70.082C1012.99 69.1767 1013.9 68.724 1015.21 68.724C1016.51 68.724 1017.42 69.1767 1017.94 70.082C1018.46 70.978 1018.72 72.2287 1018.72 73.834C1018.72 75.4673 1018.46 76.7367 1017.94 77.642C1017.42 78.5473 1016.51 79 1015.21 79C1013.9 79 1012.99 78.5473 1012.46 77.642C1011.94 76.7367 1011.68 75.4673 1011.68 73.834ZM1017.46 73.834C1017.46 73.022 1017.41 72.336 1017.29 71.776C1017.19 71.2067 1016.97 70.7493 1016.64 70.404C1016.31 70.0587 1015.83 69.886 1015.21 69.886C1014.57 69.886 1014.09 70.0587 1013.75 70.404C1013.43 70.7493 1013.21 71.2067 1013.09 71.776C1012.99 72.336 1012.94 73.022 1012.94 73.834C1012.94 74.674 1012.99 75.3787 1013.09 75.948C1013.21 76.5173 1013.43 76.9747 1013.75 77.32C1014.09 77.6653 1014.57 77.838 1015.21 77.838C1015.83 77.838 1016.31 77.6653 1016.64 77.32C1016.97 76.9747 1017.19 76.5173 1017.29 75.948C1017.41 75.3787 1017.46 74.674 1017.46 73.834ZM1022.32 73.736C1021.8 73.5307 1021.4 73.232 1021.12 72.84C1020.84 72.448 1020.7 71.972 1020.7 71.412C1020.7 70.908 1020.82 70.4553 1021.07 70.054C1021.33 69.6433 1021.7 69.3213 1022.19 69.088C1022.7 68.8453 1023.3 68.724 1024.01 68.724C1024.72 68.724 1025.32 68.8453 1025.82 69.088C1026.32 69.3213 1026.7 69.6433 1026.95 70.054C1027.21 70.4553 1027.35 70.908 1027.35 71.412C1027.35 71.9533 1027.2 72.4293 1026.91 72.84C1026.62 73.2413 1026.23 73.54 1025.72 73.736C1026.3 73.9133 1026.76 74.226 1027.09 74.674C1027.44 75.1127 1027.61 75.6447 1027.61 76.27C1027.61 76.8767 1027.46 77.4087 1027.16 77.866C1026.86 78.314 1026.44 78.664 1025.89 78.916C1025.35 79.1587 1024.72 79.28 1024.01 79.28C1023.3 79.28 1022.68 79.1587 1022.14 78.916C1021.61 78.664 1021.19 78.314 1020.89 77.866C1020.59 77.4087 1020.44 76.8767 1020.44 76.27C1020.44 75.6447 1020.61 75.108 1020.95 74.66C1021.28 74.212 1021.74 73.904 1022.32 73.736ZM1026.11 71.566C1026.11 70.9967 1025.93 70.558 1025.55 70.25C1025.18 69.942 1024.67 69.788 1024.01 69.788C1023.37 69.788 1022.86 69.942 1022.49 70.25C1022.11 70.558 1021.93 71.0013 1021.93 71.58C1021.93 72.1027 1022.12 72.5227 1022.5 72.84C1022.89 73.1573 1023.4 73.316 1024.01 73.316C1024.64 73.316 1025.14 73.1573 1025.53 72.84C1025.92 72.5133 1026.11 72.0887 1026.11 71.566ZM1024.01 74.296C1023.32 74.296 1022.76 74.4593 1022.32 74.786C1021.88 75.1033 1021.66 75.584 1021.66 76.228C1021.66 76.8253 1021.87 77.306 1022.29 77.67C1022.72 78.034 1023.29 78.216 1024.01 78.216C1024.73 78.216 1025.3 78.034 1025.72 77.67C1026.14 77.306 1026.35 76.8253 1026.35 76.228C1026.35 75.6027 1026.14 75.1267 1025.71 74.8C1025.28 74.464 1024.71 74.296 1024.01 74.296Z" fill="#2B3674"/>
<rect x="993" y="149" width="19" height="17" rx="4" fill="#DADEE7"/>
<path d="M1004.45 161L1003.59 158.79H1000.76L999.91 161H999L1001.79 153.83H1002.6L1005.38 161H1004.45ZM1002.52 155.83C1002.5 155.777 1002.47 155.68 1002.42 155.54C1002.37 155.4 1002.33 155.257 1002.28 155.11C1002.24 154.957 1002.21 154.84 1002.18 154.76C1002.15 154.893 1002.11 155.03 1002.07 155.17C1002.04 155.303 1002 155.427 1001.96 155.54C1001.93 155.653 1001.9 155.75 1001.87 155.83L1001.06 157.99H1003.32L1002.52 155.83Z" fill="#2B3674"/>
<rect x="1077.05" y="49" width="19" height="17" rx="4" fill="#DADEE7"/>
<path d="M1084.02 61V53.86H1088.26V54.65H1084.92V56.88H1085.98C1086.7 56.88 1087.25 56.97 1087.64 57.15C1088.04 57.3233 1088.31 57.5633 1088.46 57.87C1088.62 58.17 1088.69 58.5167 1088.69 58.91C1088.69 59.3433 1088.61 59.7167 1088.43 60.03C1088.27 60.3433 1087.99 60.5833 1087.61 60.75C1087.23 60.9167 1086.73 61 1086.11 61H1084.02ZM1086.02 60.23C1086.66 60.23 1087.11 60.1233 1087.37 59.91C1087.63 59.69 1087.76 59.3567 1087.76 58.91C1087.76 58.6033 1087.7 58.36 1087.57 58.18C1087.45 57.9933 1087.25 57.86 1086.97 57.78C1086.7 57.7 1086.33 57.66 1085.87 57.66H1084.92V60.23H1086.02Z" fill="#2B3674"/>
<rect x="1091" y="149" width="19" height="17" rx="4" fill="#DADEE7"/>
<path d="M1097.97 161V153.86H1102.21V154.65H1098.87V156.88H1099.93C1100.64 156.88 1101.2 156.97 1101.59 157.15C1101.98 157.323 1102.26 157.563 1102.41 157.87C1102.56 158.17 1102.64 158.517 1102.64 158.91C1102.64 159.343 1102.55 159.717 1102.38 160.03C1102.21 160.343 1101.94 160.583 1101.56 160.75C1101.18 160.917 1100.68 161 1100.06 161H1097.97ZM1099.97 160.23C1100.61 160.23 1101.06 160.123 1101.32 159.91C1101.58 159.69 1101.71 159.357 1101.71 158.91C1101.71 158.603 1101.65 158.36 1101.52 158.18C1101.4 157.993 1101.2 157.86 1100.92 157.78C1100.65 157.7 1100.28 157.66 1099.82 157.66H1098.87V160.23H1099.97Z" fill="#2B3674"/>
<rect x="1025" y="128" width="53" height="25" rx="4" fill="#DADEE7"/>
<path d="M1034.33 145V135.004H1035.74L1040.29 143.236H1040.35C1040.34 142.993 1040.33 142.713 1040.31 142.396C1040.29 142.079 1040.28 141.761 1040.27 141.444C1040.26 141.117 1040.25 140.837 1040.25 140.604V135.004H1041.36V145H1039.99L1035.38 136.74H1035.32C1035.34 136.983 1035.36 137.272 1035.37 137.608C1035.38 137.935 1035.4 138.261 1035.41 138.588C1035.43 138.915 1035.44 139.204 1035.44 139.456V145H1034.33ZM1042.69 145V144.034H1046.29V145H1042.69ZM1044.48 143.124C1044.08 143.124 1043.72 143.035 1043.4 142.858C1043.09 142.671 1042.85 142.401 1042.67 142.046C1042.5 141.691 1042.41 141.257 1042.41 140.744C1042.41 139.979 1042.59 139.395 1042.97 138.994C1043.35 138.583 1043.87 138.378 1044.52 138.378C1044.92 138.378 1045.28 138.471 1045.59 138.658C1045.9 138.835 1046.15 139.101 1046.33 139.456C1046.51 139.801 1046.61 140.231 1046.61 140.744C1046.61 141.509 1046.42 142.097 1046.03 142.508C1045.65 142.919 1045.13 143.124 1044.48 143.124ZM1044.51 142.312C1044.92 142.312 1045.21 142.181 1045.39 141.92C1045.57 141.649 1045.66 141.257 1045.66 140.744C1045.66 140.221 1045.57 139.839 1045.39 139.596C1045.21 139.344 1044.92 139.218 1044.51 139.218C1044.11 139.218 1043.81 139.344 1043.63 139.596C1043.44 139.839 1043.35 140.221 1043.35 140.744C1043.35 141.257 1043.43 141.649 1043.61 141.92C1043.8 142.181 1044.1 142.312 1044.51 142.312ZM1047.81 136.04V134.878H1050.44V145H1049.15V136.04H1047.81ZM1052.63 139.834C1052.63 138.229 1052.89 136.978 1053.41 136.082C1053.93 135.177 1054.85 134.724 1056.15 134.724C1057.45 134.724 1058.36 135.177 1058.88 136.082C1059.41 136.978 1059.67 138.229 1059.67 139.834C1059.67 141.467 1059.41 142.737 1058.88 143.642C1058.36 144.547 1057.45 145 1056.15 145C1054.85 145 1053.93 144.547 1053.41 143.642C1052.89 142.737 1052.63 141.467 1052.63 139.834ZM1058.41 139.834C1058.41 139.022 1058.35 138.336 1058.24 137.776C1058.14 137.207 1057.92 136.749 1057.58 136.404C1057.26 136.059 1056.78 135.886 1056.15 135.886C1055.52 135.886 1055.03 136.059 1054.7 136.404C1054.37 136.749 1054.15 137.207 1054.04 137.776C1053.94 138.336 1053.89 139.022 1053.89 139.834C1053.89 140.674 1053.94 141.379 1054.04 141.948C1054.15 142.517 1054.37 142.975 1054.7 143.32C1055.03 143.665 1055.52 143.838 1056.15 143.838C1056.78 143.838 1057.26 143.665 1057.58 143.32C1057.92 142.975 1058.14 142.517 1058.24 141.948C1058.35 141.379 1058.41 140.674 1058.41 139.834ZM1063.05 142.284C1063.15 142.816 1063.36 143.227 1063.7 143.516C1064.04 143.805 1064.51 143.95 1065.08 143.95C1065.86 143.95 1066.43 143.647 1066.79 143.04C1067.17 142.433 1067.34 141.411 1067.32 139.974C1067.13 140.394 1066.8 140.725 1066.34 140.968C1065.89 141.201 1065.38 141.318 1064.82 141.318C1064.19 141.318 1063.63 141.192 1063.14 140.94C1062.65 140.679 1062.27 140.301 1061.99 139.806C1061.71 139.311 1061.57 138.714 1061.57 138.014C1061.57 137.015 1061.86 136.213 1062.44 135.606C1063.02 134.99 1063.84 134.682 1064.9 134.682C1066.21 134.682 1067.12 135.107 1067.65 135.956C1068.18 136.805 1068.44 138.07 1068.44 139.75C1068.44 140.926 1068.34 141.897 1068.12 142.662C1067.92 143.427 1067.56 144.011 1067.06 144.412C1066.56 144.813 1065.88 145.014 1065.01 145.014C1064.06 145.014 1063.32 144.757 1062.79 144.244C1062.26 143.731 1061.95 143.077 1061.88 142.284H1063.05ZM1065.03 140.24C1065.65 140.24 1066.17 140.049 1066.57 139.666C1066.97 139.274 1067.17 138.747 1067.17 138.084C1067.17 137.384 1066.97 136.819 1066.58 136.39C1066.19 135.961 1065.64 135.746 1064.93 135.746C1064.28 135.746 1063.75 135.951 1063.36 136.362C1062.98 136.773 1062.79 137.314 1062.79 137.986C1062.79 138.667 1062.98 139.213 1063.36 139.624C1063.75 140.035 1064.3 140.24 1065.03 140.24Z" fill="#2B3674"/>
<path d="M453.594 27.2188H443.312C442.923 27.2188 442.549 27.3735 442.274 27.6489C441.998 27.9244 441.844 28.298 441.844 28.6875V36.0312H434.5C434.11 36.0312 433.737 36.186 433.461 36.4614C433.186 36.7369 433.031 37.1105 433.031 37.5V44.8438H425.687C425.298 44.8438 424.924 44.9985 424.649 45.2739C424.373 45.5494 424.219 45.923 424.219 46.3125V53.6562H415.406C415.017 53.6562 414.643 53.811 414.368 54.0864C414.092 54.3619 413.937 54.7355 413.937 55.125C413.937 55.5145 414.092 55.8881 414.368 56.1636C414.643 56.439 415.017 56.5938 415.406 56.5938H425.687C426.077 56.5938 426.451 56.439 426.726 56.1636C427.002 55.8881 427.156 55.5145 427.156 55.125V47.7812H434.5C434.89 47.7812 435.263 47.6265 435.539 47.3511C435.814 47.0756 435.969 46.702 435.969 46.3125V38.9688H443.312C443.702 38.9688 444.076 38.814 444.351 38.5386C444.627 38.2631 444.781 37.8895 444.781 37.5V30.1562H453.594C453.983 30.1562 454.357 30.0015 454.632 29.7261C454.908 29.4506 455.062 29.077 455.062 28.6875C455.062 28.298 454.908 27.9244 454.632 27.6489C454.357 27.3735 453.983 27.2188 453.594 27.2188ZM415.406 40.4375C415.6 40.4386 415.791 40.4016 415.97 40.3285C416.149 40.2554 416.312 40.1477 416.449 40.0116L433.031 23.4294V25.2506C433.031 25.6402 433.186 26.0137 433.461 26.2892C433.737 26.5646 434.11 26.7194 434.5 26.7194C434.89 26.7194 435.263 26.5646 435.539 26.2892C435.814 26.0137 435.969 25.6402 435.969 25.2506V19.875C435.969 19.4855 435.814 19.1119 435.539 18.8364C435.263 18.561 434.89 18.4062 434.5 18.4062H429.124C428.735 18.4062 428.361 18.561 428.086 18.8364C427.81 19.1119 427.656 19.4855 427.656 19.875C427.656 20.2645 427.81 20.6381 428.086 20.9136C428.361 21.189 428.735 21.3438 429.124 21.3438H430.946L414.363 37.9259C414.156 38.1314 414.015 38.3938 413.958 38.6799C413.9 38.9659 413.929 39.2626 414.041 39.532C414.153 39.8014 414.343 40.0314 414.586 40.1927C414.829 40.354 415.115 40.4392 415.406 40.4375Z" fill="#B0BBD5"/>
<path d="M351.594 27.2188H341.312C340.923 27.2188 340.549 27.3735 340.274 27.6489C339.998 27.9244 339.844 28.298 339.844 28.6875V36.0312H332.5C332.11 36.0312 331.737 36.186 331.461 36.4614C331.186 36.7369 331.031 37.1105 331.031 37.5V44.8438H323.687C323.298 44.8438 322.924 44.9985 322.649 45.2739C322.373 45.5494 322.219 45.923 322.219 46.3125V53.6562H313.406C313.017 53.6562 312.643 53.811 312.368 54.0864C312.092 54.3619 311.937 54.7355 311.937 55.125C311.937 55.5145 312.092 55.8881 312.368 56.1636C312.643 56.439 313.017 56.5938 313.406 56.5938H323.687C324.077 56.5938 324.451 56.439 324.726 56.1636C325.002 55.8881 325.156 55.5145 325.156 55.125V47.7812H332.5C332.89 47.7812 333.263 47.6265 333.539 47.3511C333.814 47.0756 333.969 46.702 333.969 46.3125V38.9688H341.312C341.702 38.9688 342.076 38.814 342.351 38.5386C342.627 38.2631 342.781 37.8895 342.781 37.5V30.1562H351.594C351.983 30.1562 352.357 30.0015 352.632 29.7261C352.908 29.4506 353.062 29.077 353.062 28.6875C353.062 28.298 352.908 27.9244 352.632 27.6489C352.357 27.3735 351.983 27.2188 351.594 27.2188ZM313.406 40.4375C313.6 40.4386 313.791 40.4016 313.97 40.3285C314.149 40.2554 314.312 40.1477 314.449 40.0116L331.031 23.4294V25.2506C331.031 25.6402 331.186 26.0137 331.461 26.2892C331.737 26.5646 332.11 26.7194 332.5 26.7194C332.89 26.7194 333.263 26.5646 333.539 26.2892C333.814 26.0137 333.969 25.6402 333.969 25.2506V19.875C333.969 19.4855 333.814 19.1119 333.539 18.8364C333.263 18.561 332.89 18.4062 332.5 18.4062H327.124C326.735 18.4062 326.361 18.561 326.086 18.8364C325.81 19.1119 325.656 19.4855 325.656 19.875C325.656 20.2645 325.81 20.6381 326.086 20.9136C326.361 21.189 326.735 21.3438 327.124 21.3438H328.946L312.363 37.9259C312.156 38.1314 312.015 38.3938 311.958 38.6799C311.9 38.9659 311.929 39.2626 312.041 39.532C312.153 39.8014 312.343 40.0314 312.586 40.1927C312.829 40.354 313.115 40.4392 313.406 40.4375Z" fill="#B0BBD5"/>
<path d="M1193.68 170.15C1191.18 170.15 1189.15 172.819 1189.15 176.099C1189.15 178.685 1190.41 180.952 1192.25 181.748L1191.84 196.962C1191.83 197.207 1191.88 197.451 1191.96 197.679C1192.05 197.908 1192.19 198.116 1192.36 198.292C1192.53 198.467 1192.74 198.607 1192.96 198.702C1193.19 198.798 1193.43 198.847 1193.68 198.847C1193.92 198.847 1194.16 198.798 1194.39 198.702C1194.62 198.607 1194.82 198.467 1194.99 198.292C1195.16 198.116 1195.3 197.908 1195.39 197.679C1195.48 197.451 1195.52 197.207 1195.51 196.962L1195.1 181.748C1196.94 180.952 1198.2 178.685 1198.2 176.099C1198.2 172.819 1196.17 170.15 1193.68 170.15ZM1194.53 181.058C1194.45 181.087 1194.37 181.143 1194.32 181.218C1194.27 181.292 1194.24 181.382 1194.25 181.473L1194.67 196.986C1194.67 197.118 1194.65 197.25 1194.6 197.373C1194.55 197.496 1194.48 197.609 1194.39 197.703C1194.29 197.798 1194.18 197.874 1194.06 197.925C1193.94 197.977 1193.81 198.003 1193.68 198.003C1193.54 198.003 1193.41 197.977 1193.29 197.925C1193.17 197.874 1193.06 197.798 1192.97 197.703C1192.87 197.609 1192.8 197.496 1192.75 197.373C1192.71 197.25 1192.68 197.118 1192.69 196.986L1193.11 181.473C1193.11 181.382 1193.08 181.293 1193.03 181.218C1192.98 181.144 1192.9 181.088 1192.82 181.059C1191.16 180.501 1190 178.462 1190 176.099C1190 173.287 1191.65 170.998 1193.68 170.998C1195.7 170.998 1197.35 173.287 1197.35 176.099C1197.35 178.462 1196.2 180.501 1194.53 181.058ZM1204.55 170.166C1204.28 170.118 1204 170.169 1203.77 170.31C1203.53 170.45 1203.36 170.671 1203.27 170.931C1202.06 174.471 1200.59 180.298 1200.43 187.958C1200.43 188.035 1200.45 188.112 1200.49 188.179C1200.53 188.246 1200.58 188.301 1200.65 188.338L1202.33 189.26L1201.84 196.896C1201.83 197.142 1201.86 197.388 1201.94 197.62C1202.02 197.853 1202.15 198.067 1202.31 198.249C1202.48 198.431 1202.68 198.578 1202.9 198.682C1203.13 198.785 1203.37 198.842 1203.62 198.85C1203.86 198.858 1204.11 198.816 1204.34 198.728C1204.57 198.639 1204.77 198.505 1204.95 198.333C1205.13 198.162 1205.27 197.957 1205.36 197.73C1205.46 197.503 1205.51 197.26 1205.51 197.014V171.302C1205.51 171.028 1205.42 170.763 1205.24 170.554C1205.06 170.345 1204.82 170.208 1204.55 170.166ZM1204.66 197.014C1204.66 197.276 1204.56 197.527 1204.37 197.712C1204.19 197.897 1203.94 198.002 1203.67 198.002C1203.54 198.002 1203.41 197.974 1203.28 197.92C1203.16 197.867 1203.05 197.788 1202.95 197.69C1202.86 197.591 1202.79 197.475 1202.74 197.347C1202.7 197.22 1202.68 197.085 1202.69 196.95L1203.2 189.046C1203.2 188.965 1203.18 188.885 1203.15 188.814C1203.11 188.744 1203.05 188.685 1202.98 188.647L1201.29 187.719C1201.47 180.294 1202.9 174.648 1204.07 171.205C1204.1 171.137 1204.14 171.079 1204.2 171.042C1204.27 171.005 1204.34 170.991 1204.41 171.002C1204.48 171.014 1204.54 171.051 1204.59 171.105C1204.64 171.16 1204.66 171.23 1204.66 171.302V197.014ZM1217.43 170.15C1217.37 170.15 1217.31 170.161 1217.26 170.183C1217.21 170.204 1217.17 170.235 1217.13 170.274C1217.09 170.314 1217.06 170.361 1217.03 170.412C1217.01 170.463 1217 170.519 1217 170.574V177.523C1217 178.343 1216.73 179.14 1216.22 179.787C1215.72 180.433 1215.01 180.892 1214.22 181.09C1214.12 181.114 1214.04 181.168 1213.98 181.245C1213.92 181.322 1213.89 181.417 1213.9 181.513L1214.31 196.984C1214.32 197.117 1214.3 197.249 1214.25 197.373C1214.2 197.497 1214.13 197.61 1214.04 197.705C1213.94 197.8 1213.83 197.876 1213.71 197.928C1213.59 197.98 1213.46 198.007 1213.32 198.007C1213.19 198.007 1213.06 197.98 1212.94 197.928C1212.82 197.876 1212.7 197.8 1212.61 197.705C1212.52 197.61 1212.45 197.497 1212.4 197.373C1212.35 197.249 1212.33 197.117 1212.33 196.984L1212.75 181.513C1212.75 181.417 1212.72 181.322 1212.67 181.245C1212.61 181.168 1212.53 181.114 1212.43 181.09C1211.63 180.893 1210.93 180.434 1210.42 179.787C1209.92 179.141 1209.64 178.343 1209.64 177.523V170.574C1209.64 170.462 1209.6 170.354 1209.52 170.275C1209.44 170.195 1209.33 170.15 1209.22 170.15C1209.11 170.15 1209 170.195 1208.92 170.275C1208.84 170.354 1208.8 170.462 1208.8 170.574V177.523C1208.8 178.473 1209.09 179.4 1209.65 180.172C1210.21 180.943 1210.99 181.519 1211.9 181.817L1211.49 196.961C1211.48 197.207 1211.52 197.451 1211.61 197.68C1211.7 197.909 1211.83 198.118 1212 198.294C1212.18 198.471 1212.38 198.611 1212.61 198.706C1212.83 198.802 1213.08 198.851 1213.32 198.851C1213.57 198.851 1213.81 198.802 1214.04 198.706C1214.27 198.611 1214.47 198.471 1214.64 198.294C1214.81 198.118 1214.95 197.909 1215.04 197.68C1215.13 197.451 1215.17 197.207 1215.16 196.961L1214.75 181.817C1215.65 181.519 1216.44 180.943 1217 180.172C1217.55 179.4 1217.85 178.473 1217.85 177.523V170.574C1217.85 170.519 1217.84 170.463 1217.82 170.412C1217.8 170.361 1217.76 170.314 1217.73 170.274C1217.69 170.235 1217.64 170.204 1217.59 170.183C1217.54 170.161 1217.48 170.15 1217.43 170.15Z" fill="#2B3674"/>
<path d="M1211.27 177.699C1211.33 177.699 1211.38 177.688 1211.43 177.666C1211.49 177.645 1211.53 177.614 1211.57 177.575C1211.61 177.535 1211.64 177.488 1211.66 177.437C1211.68 177.386 1211.7 177.33 1211.7 177.275V170.574C1211.7 170.462 1211.65 170.354 1211.57 170.275C1211.49 170.195 1211.38 170.15 1211.27 170.15C1211.16 170.15 1211.05 170.195 1210.97 170.275C1210.89 170.354 1210.85 170.462 1210.85 170.574V177.275C1210.85 177.33 1210.86 177.386 1210.88 177.437C1210.9 177.488 1210.93 177.535 1210.97 177.575C1211.01 177.614 1211.06 177.645 1211.11 177.666C1211.16 177.688 1211.22 177.699 1211.27 177.699ZM1213.32 177.699C1213.44 177.699 1213.54 177.654 1213.62 177.575C1213.7 177.495 1213.75 177.387 1213.75 177.275V170.574C1213.75 170.462 1213.7 170.354 1213.62 170.275C1213.54 170.195 1213.44 170.15 1213.32 170.15C1213.21 170.15 1213.1 170.195 1213.02 170.275C1212.94 170.354 1212.9 170.462 1212.9 170.574V177.275C1212.9 177.33 1212.91 177.386 1212.93 177.437C1212.95 177.488 1212.98 177.535 1213.02 177.575C1213.06 177.614 1213.11 177.645 1213.16 177.666C1213.21 177.688 1213.27 177.699 1213.32 177.699ZM1215.37 177.699C1215.43 177.699 1215.48 177.688 1215.54 177.666C1215.59 177.645 1215.63 177.614 1215.67 177.575C1215.71 177.535 1215.74 177.488 1215.77 177.437C1215.79 177.386 1215.8 177.33 1215.8 177.275V170.574C1215.8 170.462 1215.75 170.354 1215.67 170.275C1215.59 170.195 1215.49 170.15 1215.37 170.15C1215.26 170.15 1215.15 170.195 1215.07 170.275C1214.99 170.354 1214.95 170.462 1214.95 170.574V177.275C1214.95 177.387 1214.99 177.495 1215.07 177.575C1215.15 177.654 1215.26 177.699 1215.37 177.699Z" fill="#2B3674"/>
<path fill-rule="evenodd" clip-rule="evenodd" d="M862 67V0H863.5V67C863.5 68.933 865.067 70.5 867 70.5H969V72H867C864.239 72 862 69.7614 862 67ZM1054 72H1155C1157.76 72 1160 69.7614 1160 67V0H1158.5V67C1158.5 68.933 1156.93 70.5 1155 70.5H1054V72Z" fill="#B0BBD5"/>
<rect x="926.054" y="49" width="19" height="17" rx="4" fill="#DADEE7"/>
<path d="M937.504 61L936.644 58.79H933.814L932.964 61H932.054L934.844 53.83H935.654L938.434 61H937.504ZM935.574 55.83C935.554 55.7767 935.521 55.68 935.474 55.54C935.428 55.4 935.381 55.2567 935.334 55.11C935.294 54.9567 935.261 54.84 935.234 54.76C935.201 54.8933 935.164 55.03 935.124 55.17C935.091 55.3033 935.054 55.4267 935.014 55.54C934.981 55.6533 934.951 55.75 934.924 55.83L934.114 57.99H936.374L935.574 55.83Z" fill="#2B3674"/>
<path fill-rule="evenodd" clip-rule="evenodd" d="M0 68V28L1.5 27.8641V68C1.5 69.933 3.067 71.5 5 71.5H107V73H5C2.23858 73 0 70.7614 0 68ZM192 73H293C295.761 73 298 70.7614 298 68V1L296.5 1.13591V68C296.5 69.933 294.933 71.5 293 71.5H192V73Z" fill="#B0BBD5"/>
<path fill-rule="evenodd" clip-rule="evenodd" d="M482 67V0H483.5V67C483.5 68.933 485.067 70.5 487 70.5H618.802V72H487C484.239 72 482 69.7614 482 67ZM727.477 72H858C860.761 72 863 69.7614 863 67V0H861.5V67C861.5 68.933 859.933 70.5 858 70.5H727.477V72Z" fill="#B0BBD5"/>
<path d="M673.86 36.5609C675.448 36.5609 676.824 35.9912 677.947 34.8673C679.071 33.7436 679.641 32.3687 679.641 30.7803C679.641 29.1924 679.071 27.8173 677.947 26.6932C676.823 25.5696 675.448 25 673.86 25C672.272 25 670.897 25.5696 669.773 26.6934C668.649 27.8171 668.08 29.1922 668.08 30.7803C668.08 32.3687 668.649 33.7438 669.773 34.8675C670.897 35.9911 672.272 36.5609 673.86 36.5609H673.86ZM670.768 27.6878C671.63 26.8255 672.641 26.4064 673.86 26.4064C675.079 26.4064 676.09 26.8255 676.953 27.6878C677.815 28.5502 678.234 29.5619 678.234 30.7802C678.234 31.999 677.815 33.0105 676.953 33.8729C676.09 34.7354 675.079 35.1545 673.86 35.1545C672.642 35.1545 671.63 34.7352 670.768 33.8729C669.905 33.0107 669.486 31.999 669.486 30.7803C669.486 29.5619 669.905 28.5502 670.768 27.6878ZM683.975 43.4548C683.942 42.9872 683.877 42.477 683.78 41.9383C683.683 41.3956 683.557 40.8825 683.407 40.4136C683.252 39.9289 683.041 39.4503 682.78 38.9916C682.51 38.5155 682.192 38.101 681.835 37.7599C681.462 37.403 681.006 37.1161 680.478 36.9067C679.951 36.6986 679.368 36.5931 678.744 36.5931C678.499 36.5931 678.262 36.6936 677.805 36.9916C677.48 37.2034 677.153 37.4137 676.826 37.6225C676.512 37.8229 676.086 38.0106 675.56 38.1805C675.047 38.3466 674.525 38.4308 674.011 38.4308C673.497 38.4308 672.976 38.3466 672.462 38.1805C671.937 38.0107 671.51 37.8231 671.197 37.6227C670.832 37.39 670.503 37.1776 670.217 36.9914C669.76 36.6935 669.523 36.5929 669.278 36.5929C668.654 36.5929 668.071 36.6986 667.545 36.907C667.017 37.1159 666.56 37.4028 666.187 37.7601C665.83 38.1013 665.512 38.5157 665.242 38.9916C664.981 39.4503 664.771 39.9287 664.615 40.4138C664.465 40.8827 664.34 41.3956 664.242 41.9383C664.146 42.4763 664.08 42.9866 664.048 43.4554C664.016 43.9137 664 44.3906 664 44.8726C664 46.1254 664.398 47.1396 665.184 47.8876C665.959 48.6257 666.985 49 668.234 49H679.79C681.038 49 682.064 48.6257 682.839 47.8876C683.625 47.1401 684.023 46.1256 684.023 44.8724C684.023 44.3888 684.007 43.9118 683.975 43.4548ZM681.87 46.8686C681.357 47.3564 680.677 47.5935 679.789 47.5935H668.234C667.346 47.5935 666.666 47.3564 666.153 46.8688C665.651 46.3903 665.406 45.7372 665.406 44.8726C665.406 44.4229 665.421 43.9789 665.451 43.5526C665.48 43.1344 665.539 42.6749 665.627 42.1868C665.713 41.7047 665.824 41.2522 665.955 40.8426C666.08 40.4498 666.252 40.061 666.465 39.6863C666.668 39.3292 666.902 39.0229 667.159 38.7761C667.4 38.5452 667.704 38.3563 668.063 38.2146C668.394 38.0834 668.766 38.0116 669.17 38.0008C669.219 38.0271 669.307 38.077 669.449 38.1696C669.738 38.3581 670.072 38.5731 670.44 38.8083C670.855 39.0731 671.39 39.3122 672.03 39.5186C672.683 39.7299 673.35 39.8372 674.011 39.8372C674.673 39.8372 675.339 39.7299 675.993 39.5188C676.632 39.312 677.167 39.0731 677.583 38.8079C677.96 38.567 678.284 38.3583 678.573 38.1696C678.715 38.0772 678.803 38.027 678.852 38.0008C679.256 38.0116 679.629 38.0834 679.96 38.2145C680.318 38.3563 680.622 38.5454 680.863 38.7761C681.121 39.0227 681.355 39.3291 681.558 39.6865C681.771 40.061 681.942 40.4501 682.068 40.8425C682.199 41.2526 682.31 41.7049 682.396 42.1866C682.484 42.6757 682.543 43.1353 682.572 43.5528V43.5531C682.602 43.9777 682.617 44.4216 682.617 44.8726C682.617 45.7374 682.372 46.3904 681.87 46.8686H681.87Z" fill="#2B3674"/>
<path fill-rule="evenodd" clip-rule="evenodd" d="M1147 148L1147 215L1145.5 215L1145.5 148C1145.5 146.067 1143.93 144.5 1142 144.5L1086 144.5L1086 143L1142 143C1144.76 143 1147 145.239 1147 148ZM1015 143L960 143C957.239 143 955 145.239 955 148L955 215L956.5 215L956.5 148C956.5 146.067 958.067 144.5 960 144.5L1015 144.5L1015 143Z" fill="#B0BBD5"/>
<path fill-rule="evenodd" clip-rule="evenodd" d="M765 148L765 215L763.5 215L763.5 148C763.5 146.067 761.933 144.5 760 144.5L704 144.5L704 143L760 143C762.761 143 765 145.239 765 148ZM633 143L578 143C575.239 143 573 145.239 573 148L573 215L574.5 215L574.5 148C574.5 146.067 576.067 144.5 578 144.5L633 144.5L633 143Z" fill="#B0BBD5"/>
<path fill-rule="evenodd" clip-rule="evenodd" d="M574 148L574 215L572.5 215L572.5 148C572.5 146.067 570.933 144.5 569 144.5L513 144.5L513 143L569 143C571.761 143 574 145.239 574 148ZM442 143L387 143C384.239 143 382 145.239 382 148L382 215L383.5 215L383.5 148C383.5 146.067 385.067 144.5 387 144.5L442 144.5L442 143Z" fill="#B0BBD5"/>
<path fill-rule="evenodd" clip-rule="evenodd" d="M383 148L383 215L381.5 215L381.5 148C381.5 146.067 379.933 144.5 378 144.5L322 144.5L322 143L378 143C380.761 143 383 145.239 383 148ZM251 143L196 143C193.239 143 191 145.239 191 148L191 215L192.5 215L192.5 148C192.5 146.067 194.067 144.5 196 144.5L251 144.5L251 143Z" fill="#B0BBD5"/>
<path fill-rule="evenodd" clip-rule="evenodd" d="M192 148L192 215L190.5 214.769L190.5 148C190.5 146.067 188.933 144.5 187 144.5L131 144.5L131 143L187 143C189.761 143 192 145.239 192 148ZM60 143L5.00001 143C2.23858 143 6.09874e-06 145.239 5.85733e-06 148L2.58897e-06 185.386L1.5 185.617L1.50001 148C1.50001 146.067 3.06701 144.5 5.00001 144.5L60 144.5L60 143Z" fill="#B0BBD5"/>
<path fill-rule="evenodd" clip-rule="evenodd" d="M956 148L956 215L954.5 215L954.5 148C954.5 146.067 952.933 144.5 951 144.5L895 144.5L895 143L951 143C953.761 143 956 145.239 956 148ZM824 143L769 143C766.239 143 764 145.239 764 148L764 215L765.5 215L765.5 148C765.5 146.067 767.067 144.5 769 144.5L824 144.5L824 143Z" fill="#B0BBD5"/>
<rect x="1050" y="172" width="2" height="43" rx="1" fill="#B0BBD5"/>
<rect x="1010.05" width="2" height="43" rx="1" fill="#B0BBD5"/>
</svg>
